<svg id="a" class="img-fluid" width="1536" height="1536" version="1.1" viewBox="0 0 15360 15360" xmlns="http://www.w3.org/2000/svg">
 <rect x=".66099" y="21.812" width="15376" height="15376" stroke-width="10.125"/>
 <g fill="#eeda50">
  <path id="b" class="UnoptimicedTransforms" d="m9881 12866 0.028-2336.8 1217.8 590.55-0.02 1137.4-1217.8 608.9zm2435.7 0-0.03-2336.8-1217.8 590.55 0.02 1137.4 1217.8 608.9z"/>
  <path d="m3360.3 12859 569.7-1189.9-568.09-1136.1 819.09-2.851c1099.5 3.162 1607.2 8.214 1609 1171 3.0832 1163.9-934.68 1168.7-1555 1168z"/>
  <path d="m8935 12853-569.7-1189.9 568.08-1136.1-819.08-2.851c-1099.5 3.162-1607.2 8.214-1609 1171-3.0832 1163.9 934.68 1168.7 1555 1168z"/>
  <path id="c" d="m4854 5154.5h1155.8l-0.01 928.5-774.75 12.25c-114.8 2.6709-251.84 10.31-379.5 158.5z"/>
  <path id="d" d="m4838 4949c189.02-429.74 418.72-979.5 583-1420-214.93-345.67-418.04-712.49-581.88-963.75 145.74-0.5376 718.71-0.25 1184.6-0.25s996.25 383.91 993.27 1336.7c-2.983 952.81-831.06 1052.9-1462 1055.3s-706 0-717-8z"/>
  <path id="e" d="m6991 4708.4c202.38-158.24 289.36-255.97 281.32-957.92s-333.29-1164.4-978.03-1392.6c536.21 5.2402 126.72-1.1932 1134.7 2.0955s1431.4 181.21 1434 1310-721.6 1039.7-1303 1040-454.7-2-569-1.6256z"/>
  <path id="f" d="m8756.9 4623.4c340.91-339.22 314.33-633.63 304.12-1135.9s-135.45-922.98-499.73-1141.4c44.375 0.125 431.21 8.125 1129.8 8.125 698.61 0 951.28 171.96 960.91 1123.6s-232.78 1141.9-994 1142.2-895.12 17.445-901.12 3.4454z"/>
 </g>
 <g id="g" fill="#f8eecb">
  <path id="h" d="m6226 8470c0-632.9 0.9196-1052.7 0.1055-1162.3-0.0869-11.7-272.24-13.856-538.11-15.656-531.74-3.6-496.95 34.302-610-77s-101.86-202.6-103-403.5-23.66-320.88 109-437.5 630.04-83.39 676-84l422.37-6.5938 3.0171-1167.4c311.2-42.5 448.22-92.017 625.21-192.52 360.1 0 1579.5 14.118 1634.3-69.464l1482.1-20.806c258.77-8.3289 560.07-111.87 619.67-253.19l-14.687 1505c-10.645 2336.4-618.16 2396-2632 2390z"/>
 </g>
</svg>
