<svg id="a" class="img-fluid" width="224" height="168" version="1.1" viewBox="0 0 2240 1680" xmlns="http://www.w3.org/2000/svg">
 <g fill="#370d17">
  <path id="b" d="m1010 1650c-109-11-151-44-154-121-1-39-1-39-278-39-152 0-288-4-301-9-29-11-50-67-97-264-31-127-31-127-11-153 12-15 21-31 21-35 0-5-16-26-35-48-27-30-37-51-44-97-5-33-16-95-26-139-11-51-16-104-13-150 5-67 9-80 82-206 89-156 179-284 219-313 28-21 37-21 741-24 712-2 712-2 747 21 44 29 128 148 223 312 101 176 106 210 63 415-9 41-18 91-22 111-3 21-17 47-35 64-33 32-39 69-15 95 14 15 14 25 0 91-9 41-29 121-46 179-45 160-21 150-363 150-283 0-283 0-284 41-3 78-37 104-155 119-80 10-121 10-217 0zm16-135c-10-14-16-45-16-77 0-46-2-50-15-38-8 9-15 39-17 70-3 53-2 55 27 61 17 4 32 7 34 8 2 0-4-10-13-24zm218 19c23-9 23-134 1-134-11 0-15 12-15 49 0 31-5 53-15 61-29 24-11 39 29 24zm665-301c1-7-3-13-9-13-5 0-10 17-9 38 1 33 2 34 9 12 4-14 8-31 9-37zm-1563-60c4-30 8-33 39-33 19 0 35-4 35-10s73-10 200-10c181 0 230-6 184-24-29-11-502-7-509 5-8 12 16 99 27 99 4 0 9 12 9 28 2 26 2 26 6 2 2-14 6-40 9-57zm1550-30c2-14 12-23 23-23 10 0 21-7 25-15 5-13-26-15-237-15-133 0-252 3-264 6-55 15-11 22 155 28 97 3 199 8 225 12 44 6 48 9 55 38 4 23 7 26 9 11 2-11 6-30 9-42zm-734-90c2-10 2-33 0-50-4-31-7-33-42-33-36 0-38 1-44 41-8 52-3 59 44 59 29 0 39-4 42-17zm-325-126c76-3 113-15 113-38 0-5-156-9-350-9-351 0-351 0-336 28 15 29 15 29 253 25 131-2 275-5 320-6zm1138-17c16-30 16-30-297-30-172 0-342-5-378-10-63-9-91-6-54 5 10 4 26 11 34 16 52 32 72 34 360 39 162 3 301 7 307 8 7 1 19-11 28-28zm-775-165c0-85 0-85-80-85s-80 0-80 39c0 36 4 42 40 62 29 16 40 29 40 46 0 20 5 23 40 23 40 0 40 0 40-85zm-936-13c-1-6-2-23-2-37-2-20-7-25-28-25-24 0-25 2-19 33 4 17 9 36 12 40 7 12 38 3 37-11zm1750 10c2-4 7-24 11-45 7-33 5-37-14-37-22 0-41 33-41 71 0 19 33 28 44 11zm-1376-209c-10-2-28-2-40 0-13 2-5 4 17 4 22 1 32-1 23-4zm555-43c-3-46-20-209-29-267-5-31-8-33-43-33-44 0-51 10-51 70 0 22-4 61-9 87s-12 78-16 115c-6 77-6 77 90 75 60-2 60-2 58-47zm515 43c-16-2-40-2-55 0-16 2-3 4 27 4s43-2 28-4zm-1440-15c5-7 17-31 26-53 16-40 16-40-3-16-31 40-53 81-43 81 5 0 14-6 20-12zm1716-16c-9-16-25-39-35-53-19-24-19-24-3 16 18 45 32 65 46 65 5 0 2-13-8-28zm-1074-108c21-54 22-54-143-54-169 0-151-6-185 62-2 4 63 9 145 11 81 1 154 4 161 5s17-10 22-24zm739-14c-23-40-23-40-176-40-152 0-153 0-153 23 0 44 9 46 165 50 83 1 158 4 168 5 17 2 16-1-4-38z"/>
 </g>
 <g id="c" fill="#431819">
  <path id="d" d="m300 1249c0-11-4-18-9-15-8 5-14-14-27-90-6-31-6-31 98-27 56 3 109 6 116 8 20 7 14 25-9 25-11 0-17 5-14 10 4 6-7 10-24 10s-34 0-38 1c-13 1-24 40-18 60 5 15 1 19-19 19-14 0-28 5-31 10-11 17-25 11-25-11z"/>
  <path id="e" d="m1851 1215c-10-42-14-45-44-45-46 0-77-10-77-25 0-8 33-14 111-18 61-4 115-4 120-1 16 10 9 24-12 24-11 0-17 5-14 10 3 6 1 10-4 10-6 0-11 5-11 11 0 5 4 8 9 5 12-8 21 18 14 42-3 12-16 22-35 26-45 9-45 9-57-39z"/>
  <path d="m1260 925c-7-8-16-13-20-10-5 3-23-9-42-26-31-29-36-30-93-24-33 4-62 11-63 16-2 5-8 7-13 3-5-3-9 0-9 6 0 7-7 10-14 7-9-4-17 2-21 13-9 30-35 13-35-24 0-34 30-55 79-57 15 0 34-4 44-8 15-5 11-10-22-29-23-13-41-27-41-31 0-12 64-21 148-21 64 0 72 2 72 19 0 10 8 22 18 26 16 6 16 7 0 19-18 13-24 27-10 24 7-1 83 9 135 18 44 9 34 34-13 34-36 0-40 3-40 24 0 34-38 48-60 21z"/>
 </g>
 <g id="f" fill="#5a2f1a">
  <path id="g" d="m1055 1561c-4-8-27-11-58-9-52 3-52 3-52-74 0-85-2-83 66-72 32 5 35 9 31 33-3 21 5 37 31 64 19 21 41 37 50 37 26 0 80-77 73-104-5-21-2-24 32-30 64-10 62-12 62 68 0 73 0 73-62 80-35 3-86 9-114 12-35 4-54 2-59-5z"/>
  <path id="h" d="m1045 1090c-3-5-5-37-4-71 2-61 2-61 38-55 20 3 53 6 73 6 34 0 38 3 44 34 3 19 3 48-1 65-7 31-7 31-75 31-38 0-71-4-75-10z"/>
 </g>
 <g id="i" fill="#6a4313">
  <path id="j" d="m1853 1310c3-39 9-75 12-80 3-6 22-10 41-10 28 0 34 4 34 21 0 41-23 109-36 109-8 0-14 7-14 15 0 9-9 15-21 15-21 0-22-3-16-70z"/>
  <path id="k" d="m328 1331c-10-10-21-39-24-64-7-47-7-47 30-47 41 0 42 2 50 78 6 49 5 52-16 51-13 0-31-8-40-18z"/>
  <path d="m790 1149c-15-6-124-9-275-8-250 3-250 3-250-37 0-39 0-39 280-41 154-2 285 0 291 5 6 4 14 26 18 50 6 39 5 42-16 41-13 0-34-5-48-10z"/>
  <path id="l" d="m1386 1153c-9-10-7-56 4-73 8-13 55-15 300-18 290-3 290-3 290 30 0 18-4 38-8 43-4 6-94 10-232 10-124 0-253 3-286 7-34 4-64 5-68 1z"/>
  <path id="m" d="m240 949c-7-13-16-38-21-56-7-33-7-33 180-31 184 3 186 3 189 26 2 12 8 22 13 22s9 11 9 25c0 24-2 25-67 25-38 0-118 3-179 7-110 6-112 6-124-18z"/>
  <path id="n" d="m1610 960c-162-3-305-10-317-14-30-11-29-34 2-48 14-6 25-18 25-26 0-15-11-16 273 4 60 5 92 3 100-5 7-7 66-11 174-11 163 0 163 0 157 28-4 15-13 39-21 55-12 24-19 27-56 25-23-1-175-5-337-8z"/>
  <path id="o" d="m202 777c-14-18-35-114-27-127 5-8 114-16 115-7 1 1 4 30 7 64 6 68 7 66-54 77-19 3-35 0-41-7z"/>
  <path id="p" d="m1014 764c-2-8-6-21-9-29-2-8-2-29 2-45 6-30 6-30 113-30 108 0 108 0 115 30 4 17 4 42 1 58-7 27-7 27-112 28-81 1-107-2-110-12z"/>
  <path id="q" d="m1940 733c0-88 4-93 71-93 66 0 66-2 46 85-12 50-12 50-65 53-52 3-52 3-52-45z"/>
 </g>
 <g id="r" fill="#5e2442">
  <path id="s" d="m1365 1250c-16-25 14-30 191-30s184 1 184 20-7 20-184 20c-113 0-187-4-191-10z"/>
 </g>
 <g id="t" fill="#443b4f">
  <path id="u" d="m997 1269c-24-14-67-102-67-139 0-26 4-30 26-30s25 2 14 15c-8 9-8 15-2 15s19 17 29 37c20 41 82 83 123 83 28 0 111-44 123-66 4-8 19-14 33-14 24 0 24 0 8 33-37 72-46 77-163 77-58 0-114-5-124-11z"/>
 </g>
 <g id="v" fill="#744821">
  <path id="w" d="m980 1561c-14-4-26-15-28-24-3-15 5-17 57-17 34 0 70 5 81 12 15 10 26 10 53 0 18-7 59-12 90-12 49 0 57 3 57 19 0 10-7 22-16 25-21 8-263 6-294-3z"/>
  <path id="x" d="m664 1385c-10-26 3-30 103-33 94-4 95-4 91 20-3 22-7 23-96 26-77 2-93 0-98-13z"/>
  <path d="m580 951c0-6-7-11-16-11-11 0-14-6-9-21s2-22-14-26c-12-3-21-11-21-17 0-10 59-13 240-13 179-1 238 2 233 10-4 6-8 20-8 30-1 10-9 26-19 35-14 15-44 17-201 20-128 3-185 0-185-7z"/>
  <path id="y" d="m1264 929c-4-7 0-17 10-24 15-11 14-13-6-18-16-5-20-9-12-17 15-15 126-9 132 8 2 7-5 12-18 12-12 0-19 4-16 8 8 13-26 37-56 40-14 2-29-2-34-9z"/>
  <path d="m1580 925c-7-8-22-15-34-15-35 0-66-12-66-25 0-8 27-14 83-18 131-11 197-9 197 6 0 18-49 37-97 37-32 0-43 4-43 15 0 8-6 15-14 15-7 0-19-7-26-15z"/>
 </g>
 <g id="z" fill="#722558">
  <path id="aa" d="m486 1245c-3-9 1-18 8-21 20-8 373 0 381 8 22 22-18 28-195 28-160 0-189-2-194-15z"/>
  <path id="ab" d="m1578 1253c-110-3-137-6-142-19s15-14 152-12c140 3 157 5 160 21 2 12-2 16-15 15-10-1-79-4-155-5z"/>
  <path id="ac" d="m525 771c-143-10-63-26 153-29 215-4 252-1 252 23 0 13-25 15-162 13-90-1-199-4-243-7z"/>
  <path id="ad" d="m1315 771c-17-28 17-32 253-29 216 3 266 7 250 23-2 3-115 8-250 11-190 6-247 4-253-5z"/>
 </g>
 <g id="ae" fill="#845c24">
  <path d="m348 1393c-10-2-21-17-24-31-3-15-8-35-11-44-3-15 2-18 32-18 22 0 34 4 30 10-3 6-1 10 5 10 14 0 9 73-5 76-5 1-18 0-27-3z"/>
  <path id="af" d="m496 1391c-27-5-28-7-12-20 14-11 44-13 164-7 81 4 157 7 170 7 15-1 22 4 19 12-4 13-286 21-341 8z"/>
  <path id="ag" d="m1391 1391c-8-5-11-16-8-25 6-14 31-16 189-16 191 0 230 7 194 35-16 12-55 15-190 15-94 0-177-4-185-9z"/>
  <path id="ah" d="m1853 1366c7-46 23-66 50-66 17 0 19 5 14 41-6 48-4 45-41 55-29 7-29 7-23-30z"/>
  <path d="m540 1153c-246-3-297-10-260-33 20-13 511-13 544 0 36 13 34 41-1 38-16-2-143-4-283-5z"/>
  <path id="ai" d="m1404 1150c-13-5-14-8-2-17 17-14 140-22 348-24 225-2 220-3 220 21 0 15-7 21-32 22-66 5-518 3-534-2z"/>
  <path id="aj" d="m1050 1060c0-30 0-30 70-30s70 0 70 30 0 30-70 30-70 0-70-30z"/>
  <path d="m1855 960c-27-4-48-8-45-9 26-13 129-16 163-5 9 3 15 10 12 15-7 10-53 10-130-1z"/>
  <path id="ak" d="m285 951c32-13 178-14 170-2-4 7-44 11-98 10-56 0-84-4-72-8z"/>
  <path id="al" d="m1007 739c-3-12-3-35 0-51 5-24 10-29 31-26 30 3 43 28 15 28-14 0-18 8-18 32 0 36-20 49-28 17z"/>
  <path id="am" d="m1210 735c0-14 5-25 10-25 6 0 10 11 10 25s-4 25-10 25c-5 0-10-11-10-25z"/>
 </g>
 <g id="an" fill="#8b3779">
  <path id="ao" d="m558 442c-21-2-38-6-38-9s15-32 32-64c33-59 33-59 221-59s188 0 181 48c-14 94 1 87-190 87-93 0-186-1-206-3z"/>
  <path id="ap" d="m1328 442c-30-4-36-16-40-87-3-40-3-40 183-43 186-2 186-2 218 57 24 46 28 62 19 68-12 8-321 12-380 5z"/>
 </g>
 <g id="aq" fill="#c48944">
  <path id="ar" d="m172 658c5-15 80-33 102-25 9 4 16 13 16 22 0 12-13 15-61 15-44 0-60-3-57-12z"/>
  <path id="as" d="m1952 653c2-14 15-19 61-21 52-3 57-1 57 18 0 18-6 20-61 20-52 0-60-2-57-17z"/>
 </g>
 <g fill="#dc9c4f">
  <path id="aw" d="m460 662c0-28 30-32 242-32 178 0 218 3 218 14 0 8-15 16-37 20-56 9-423 7-423-2z"/>
  <path d="m1338 663c-10-2-18-11-18-19 0-12 42-14 264-14 145 0 272 3 280 6 13 5 14 9 5 20s-60 14-263 13c-138-1-259-3-268-6z"/>
  <path id="ax" d="m670 183c0-19 8-21 128-25 143-5 172-2 172 18 0 11-19 14-82 14-46 0-113 3-150 7-64 5-68 5-68-14z"/>
  <path id="ay" d="m1421 190c-119-4-141-7-129-18 12-9 59-12 184-10 151 3 169 5 172 21 3 14-3 17-40 15-24-1-108-5-187-8z"/>
 </g>
 <g id="az" fill="#9097b8">
  <path id="ba" d="m928 1116c-4-38 14-96 31-96 5 0 12 19 16 41 6 36 4 45-18 66-25 25-25 25-29-11z"/>
  <path id="bb" d="m1275 1120c-20-38-20-100 0-100 21 0 35 33 35 84 0 53-13 59-35 16z"/>
 </g>
 <g id="bc" fill="#eaae5d">
  <path id="bd" d="m1052 988c-7-7-12-23-12-36 0-20 4-23 23-18 12 3 47 6 78 6 56 0 56 0 51 30-4 30-5 30-66 30-35 0-67-5-74-12z"/>
  <path id="be" d="m1255 880c-14-22 10-30 86-30 72 0 79 2 79 20s-7 20-79 20c-44 0-83-4-86-10z"/>
  <path id="bf" d="m360 275c61-90 86-115 118-115 13 0 22 3 20 8-30 64-54 102-64 102-6 0-23 18-38 40-21 32-32 40-56 40-31 0-31 0 20-75z"/>
  <path id="bg" d="m592 183c2-14 15-19 52-21 63-4 83 3 66 23-8 10-31 15-67 15-46 0-54-3-51-17z"/>
 </g>
 <g fill="#f8c263">
  <path id="bh" d="m956 1424c-20-20-20-27 2-47 13-12 37-17 81-17 63 0 63 0 32 29-17 16-31 34-31 40 0 17-66 13-84-5z"/>
  <path id="bi" d="m1189 1413c-8-22-7-30 7-40 39-28 94-12 94 27 0 30-15 40-61 40-23 0-32-6-40-27z"/>
  <path id="bj" d="m435 893c-203-3-224-7-225-35 0-5 181-8 402-8 397 0 402 0 383 19-18 17-39 20-185 24-91 2-259 2-375 0z"/>
  <path id="bk" d="m1415 893c-16-3-36-10-43-16-27-22 22-26 341-26 278-1 317 1 317 14 0 9-6 17-12 19-19 6-568 13-603 9z"/>
  <path d="m1010 660c0-30 0-30 110-30s110 0 110 30 0 30-110 30-110 0-110-30z"/>
  <path id="bl" d="m448 563c-62-4-66-8-44-38 13-18 30-19 272-20 259 0 259 0 262 28 3 27 3 27-81 27-46 0-144 2-218 4s-160 2-191-1z"/>
  <path id="bm" d="m1022 560c-17-7-21-15-17-32 4-21 19-145 31-273 10-100 6-95 84-95 69 0 69 0 74 33 15 96 28 232 30 297 1 75 1 75-89 77-49 1-100-2-113-7z"/>
  <path id="bn" d="m1460 563c-79-2-148-7-153-12-4-4 1-15 10-23 15-13 60-17 254-23 233-7 237-7 258 14 11 11 21 25 21 30 0 10-115 22-190 19-30-1-120-4-200-5z"/>
  <path id="bo" d="m1971 561c-25-7-39-31-186-313-44-86-45-88-22-88 13 0 31 6 39 13 16 12 270 379 265 382-8 7-76 11-96 6z"/>
  <path id="bp" d="m185 533c20-32 130-186 177-250 18-24 40-43 49-43 10 0 21-4 24-10 11-17 24-11 20 9-2 11-33 75-70 143-36 67-72 134-79 148-10 22-19 25-75 28-64 3-64 3-46-25z"/>
 </g>
</svg>
