<svg id="a" class="img-fluid" width="516" height="600" version="1.1" viewBox="0 0 5160 6e3" xmlns="http://www.w3.org/2000/svg">
 <g id="b" fill="#370b17">
  <path id="c" d="m732 5538c-6-7-78-278-161-602l-151-589 296-626c163-344 311-654 329-689 33-63 33-64 14-83-10-10-19-24-19-30 0-5-97-501-216-1101-118-600-214-1103-212-1117 3-23 28-39 228-141l225-115h3090l225 115c200 102 225 118 228 141 2 21-416 2171-434 2232-3 10-16 22-29 27l-23 9 33 63c18 35 166 345 329 689l296 626-151 589c-83 324-155 595-161 602-8 9-394 12-1868 12s-1860-3-1868-12zm3662-96c2-4 7-24 11-45l7-37h-3624l7 37c4 21 9 41 11 45 7 10 3581 10 3588 0zm-3538-229c-14-50-29-114-61-268-19-93-37-180-40-192-5-21-11-23-71-23-53 0-65 3-61 14 3 8 29 104 57 213s56 215 61 236l10 37h55c48 0 55-2 50-17zm1915-43c13-118 28-279 34-352l6-78h-421l6 83c5 74 9 119 30 322 3 33 7 66 10 73 3 10 41 12 166 10l163-3zm1688 23c5-21 32-127 60-235s54-204 57-212c5-14-4-16-59-16-76 0-66-14-97 145-21 106-65 302-76 338-5 15 2 17 50 17h55zm-2163-146c-3-40-8-120-12-178-3-59-9-111-13-117-4-7-211-12-649-14-639-3-643-3-638 17 3 11 20 95 38 187l33 167 255 3c140 2 421 4 624 5l368 2zm1597 63c245 0 257-1 257-19 0-17 50-276 65-331l6-25-643 3c-455 2-644 6-649 14-4 6-10 56-13 112-4 56-9 136-12 179l-6 78 368-5c203-3 485-6 627-6zm721-527c3-10 14-51 25-90l20-73h-4117l9 38c6 20 17 61 25 90l15 52h2009c1904 0 2009-1 2014-17zm19-299c-3-10-133-285-289-613l-283-596-1453-2c-799-2-1458 1-1464 5-13 8-574 1191-574 1210 0 9 414 12 2035 12 1885 0 2034-1 2028-16zm-3443-1445c0-11-5-29-10-39-6-11-26-120-45-242-41-257-166-1021-195-1183-10-60-26-159-35-220-27-194-46-319-51-348-5-25-9-27-60-27-30 0-54 4-54 10 0 10 126 652 240 1225 33 165 82 418 110 563 27 145 52 267 55 273 12 18 45 10 45-12zm2563 14c121-5 137-8 137-24 0-15-15-18-122-24-68-3-630-5-1249-3-1111 3-1127 3-1149 23l-22 20 83 6c121 8 2160 10 2322 2zm322-2c3-6 28-128 55-273 28-145 77-398 110-563 103-519 240-1217 240-1226 0-5-24-9-54-9-51 0-55 2-60 27-5 29-24 154-51 348-9 61-25 160-36 220-21 120-162 981-203 1243-14 90-30 172-36 182-17 31-12 60 9 60 11 0 22-4 26-9zm-463-197c76-6 76-6 66-30-7-14-21-27-33-30s-515-4-1118-2c-1083 3-1096 3-1111 23-9 11-16 23-16 27s51 9 113 10c244 6 2027 8 2099 2zm208-14c-12-23-19-24-42-6-22 16-13 26 24 26 26 0 28-2 18-20zm195-615c140-859 141-867 125-909-6-16-13-27-16-24-2 3-13 63-24 134s-47 305-80 519c-33 215-62 434-64 487-3 68-9 102-19 112-21 21-32 141-15 160 11 12 13 11 16-8 2-11 36-223 77-471zm-2709 470c6-14-10-138-45-365-67-424-112-715-131-850-28-194-27-189-47-161-14 21-14 36 6 179 12 87 29 195 37 242 49 293 137 827 146 893 10 73 22 95 34 62zm2449-68c8-37 140-888 165-1067 5-36 16-110 23-165 8-55 12-102 10-105-3-3-607-5-1343-5s-1340 2-1343 5 2 50 9 105c8 55 19 129 23 165 22 158 158 1035 166 1067l5 21h1140l1140 1zm447-1537c4-25 10-60 13-77l6-33h-3223l5 23c3 12 9 45 13 72 3 28 8 53 11 58 2 4 716 6 1586 5l1581-3z"/>
  <path id="d" d="m2266 4232c-1132-1-1563-5-1573-13-7-6-13-30-13-54 0-33 41-132 200-481 111-241 216-472 235-511l34-73h2902l34 73c19 39 124 270 235 511 159 349 200 448 200 481 0 24-6 47-12 53-18 15-446 17-2242 14zm-1373-159c22-53 165-387 221-516 26-60 46-113 44-119-4-10-308 648-308 665 0 4 6 7 13 7 8 0 21-17 30-37zm313-20c-3-32-9-109-13-170-3-62-9-113-12-113s-17 28-30 63c-13 34-43 104-67 156s-44 97-44 102c0 8 44 15 124 17l49 2zm2647 47c3-3 16-135 29-295l23-290-1304-3c-717-1-1305-1-1306 0-1 2 9 120 21 263 13 143 23 274 23 292l1 32 63 3c101 6 2445 3 2450-2zm300 5c11-5 10-14-8-49-12-24-46-103-76-176l-54-132-6 108c-4 60-10 142-14 182l-8 72h76c41 0 82-2 90-5zm197-3c0-4-70-160-155-347s-155-331-155-320 23 72 51 135 68 158 91 210c82 193 131 305 141 318s27 16 27 4zm-436-714c3-7 7-48 10-90l6-78h-2660l6 78c3 42 7 83 10 90 3 9 274 12 1314 12s1311-3 1314-12z"/>
 </g>
 <g id="e" fill="#471e0c">
  <path d="m806 5481c-26-5-31-13-47-71-10-36-18-66-19-67 0-2 61-3 135-3h135v97l-50 6c-28 3-62 15-77 27-27 21-30 21-77 11z"/>
  <path id="f" d="m4317 5467c-3-8-24-17-46-21-39-6-41-8-41-40 0-26 5-36 20-41 11-3 20-11 20-16s41-9 90-9c102 0 99-3 77 85l-13 50-51 3c-36 2-52-1-56-11z"/>
  <path id="g" d="m2386 5078c-3-13-6-45-6-73 0-96 11-106 99-89 29 6 31 9 31 54 0 30-6 52-15 60-8 7-15 20-15 29 0 26-21 41-56 41-24 0-33-5-38-22z"/>
  <path id="h" d="m2727 5084c-4-4-7-14-7-22 0-7-9-25-20-39-12-16-20-41-20-64v-39h141l-3 83-3 82-40 3c-23 2-44 0-48-4z"/>
  <path d="m667 5043c-2-5-12-38-22-75-24-91-18-98 90-98h82l6 33c3 17 9 47 13 65l7 32h-52c-45 0-53 3-63 25-11 24-51 35-61 18z"/>
  <path id="i" d="m4467 4993c-4-3-7-23-7-44 0-39 14-49 73-49 29 0 32 10 21 69-6 28-10 31-44 31-20 0-40-3-43-7z"/>
  <path d="m4280 4878c0-13 8-58 17-100 15-64 21-78 37-78s18 5 12 43c-13 79-38 157-52 157-8 0-14-10-14-22z"/>
  <path d="m557 4613c-11-17-37-132-37-161 0-36 15-42 118-42 44 0 72 4 72 11 0 6 7 17 15 25 8 9 15 33 15 55v39h-44c-47 0-62 11-68 50-2 20-10 26-35 28-17 2-33-1-36-5z"/>
  <path id="j" d="m4568 4588c-2-17-13-24-42-30-22-5-45-13-53-19-18-16-17-88 2-95 8-4 15-12 15-20 0-11 20-14 95-14h95v36c0 20-8 65-17 100l-17 64h-37c-31 0-38-4-41-22z"/>
  <path d="m2480 4533c-46-2-90-9-97-15-9-7-13-27-11-52 3-40 4-41 48-48 25-4 143-6 263-6l217 1v34c0 21-6 36-15 39-8 4-15 12-15 19s-17 15-38 19c-56 9-254 14-352 9z"/>
  <path d="m1106 2858c-3-13-6-35-6-50 0-24 4-28 29-28 52 0 61 8 61 56v44h-39c-32 0-40-4-45-22z"/>
  <path id="k" d="m1261 2565c-18-66-15-75 23-75 47 0 54 36 16 82l-28 33z"/>
  <path d="m3922 2571c-39-53-25-90 36-91 15 0 15 55-1 93l-12 29z"/>
  <path id="l" d="m4095 1424c-8-20-15-52-15-71 0-33 1-34 38-31 35 3 37 5 35 37-4 102-30 131-58 65z"/>
  <path id="m" d="m1045 1248c-17-125 2-188 56-188 30 0 32 3 43 84 3 24 1 45-7 54-7 8-19 33-27 56-11 28-22 42-36 44-19 3-22-4-29-50z"/>
  <path id="n" d="m4115 1268c-4-18-14-46-23-63-16-31-17-91-2-130 12-31 68-23 81 12 12 32 14 96 4 161-7 45-11 52-31 52-17 0-24-7-29-32z"/>
 </g>
 <g id="o" fill="#4e2509">
  <path id="p" d="m4180 5406c0-19 7-39 16-47 22-18 135-19 141-1 3 7-4 12-17 12-12 0-19 4-16 9s-6 12-22 16l-27 7 29 10c40 14 15 28-51 28h-53z"/>
  <path d="m4470 5015c-8-10-30-15-62-15-47 0-50-1-45-22 4-13 9-42 13-65l7-43h93c108 0 106-3 77 100-15 54-19 60-43 60-15 0-33-7-40-15zm58-68c2-11-2-14-17-10-22 5-26 14-14 27 10 10 28 1 31-17z"/>
  <path id="q" d="m2376 4963c-3-21-6-48-6-60v-23h460v39c0 24-7 46-17 57-17 17-18 17-21-2-2-16-10-20-42-19-45 0-44-1-30 26 10 17 7 19-31 19-25 0-52-8-69-20-27-19-27-19-45 0-13 14-31 20-60 20-40 0-42-2-37-25 3-18 0-25-11-25-8 0-22-3-30-6-11-4-17 4-22 25-9 43-31 39-39-6z"/>
  <path id="r" d="m4260 4952c0-28 29-120 40-127 10-6 6 99-5 128-9 23-35 22-35-1z"/>
  <path id="s" d="m876 4832c-31-119-32-132-6-132 14 0 20 7 20 23 0 12 8 54 19 92 31 117 31 115 11 115-13 0-23-21-44-98z"/>
  <path id="t" d="m2356 4763c-3-25-4-48-2-51 4-3 71-5 129-3 13 1 17 10 17 45 0 50-10 56-91 56h-46z"/>
  <path d="m2729 4803c-11-2-19-19-22-46-3-23-4-43-2-45s34-4 72-4c75-1 69-7 65 72-2 29-4 30-49 29-27-1-55-3-64-6z"/>
  <path id="u" d="m4320 4745c0-33 4-45 15-45 16 0 18 12 9 59-10 46-24 38-24-14z"/>
  <path id="v" d="m600 4552c0-29 21-42 67-42 45 0 53-9 28-34-29-28-17-37 43-34 57 3 57 3 60 36 4 43-10 59-59 67-21 4-39 11-39 16s-22 9-50 9c-41 0-50-3-50-18z"/>
  <path id="w" d="m4510 4556c0-10-13-16-37-18-35-3-38-6-41-36-4-43 12-62 53-62 42 0 51 11 24 31-13 10-19 21-14 28 12 20 49 30 64 18 10-9 17-7 27 8 25 34 17 45-31 45-32 0-45-4-45-14z"/>
  <path id="x" d="m810 4490v-50h90v100h-90z"/>
  <path d="m2350 4523c-40-8-60-32-60-75v-38h53c28 0 62 3 75 6 24 7 31 34 8 34-26 0-30 23-8 41 43 34 15 47-68 32z"/>
  <path id="y" d="m2770 4515c0-10 43-44 56-45 5 0 19-7 30-15 17-14 15-15-31-9l-50 6 40-21c28-15 58-21 102-21h63v35c0 27-4 35-18 35-11 0-32 7-48 15-33 16-144 32-144 20z"/>
  <path d="m980 4130c0-2 10-28 22-57 15-36 27-53 40-53 12 0 28-20 48-60 28-56 33-60 65-60 35 0 35 1 35 43 0 24-4 47-10 53-5 5-20 38-33 74l-25 65h-71c-39 0-71-2-71-5z"/>
  <path id="z" d="m1364 4131c-2-2-4-28-4-58v-53h34c29 0 36 4 45 31 6 18 11 44 11 58 0 24-3 26-41 26-22 0-42-2-45-4z"/>
  <path d="m3760 4069c0-73 5-79 62-79h30l-4 65c-2 35-7 67-10 71-4 3-23 7-42 8l-36 1z"/>
  <path id="aa" d="m4136 4117c-3-12-6-35-6-50 0-25 3-28 27-25 20 2 33 13 45 38 25 51 23 58-21 58-32 1-40-3-45-21z"/>
  <path id="ab" d="m3972 3916c3-50 5-56 25-56 28 0 45 31 41 73-3 28-7 32-36 35l-33 3z"/>
  <path id="ac" d="m1231 2383c-16-56-13-87 12-148 14-35 28-55 38-55 32 0 55 155 31 213-9 21-18 27-41 27-26 0-31-5-40-37z"/>
  <path id="ad" d="m1076 1428c-3-7-9-43-15-80-8-58-7-71 10-104 10-21 19-44 19-51 0-15 42-45 50-35 4 4 12 41 18 84 11 71 10 80-12 135-17 42-30 59-45 61-12 2-23-3-25-10z"/>
  <path id="ae" d="m4102 1405c-6-14-16-25-21-25-23 0-30-60-16-146 8-48 17-90 21-93 11-11 44 41 55 85 6 24 15 44 20 44 12 0 11 18-2 81l-11 53-15-28c-21-39-26-26-8 17 12 30 13 37 2 37-8 0-19-11-25-25z"/>
 </g>
 <g fill="#512a08">
  <path d="m4354 5014c4-15 10-39 13-55 6-32 23-40 23-10 0 18 14 20 60 10 11-3 15 4 15 26 0 34-31 55-84 55-31 0-33-2-27-26z"/>
  <path id="af" d="m2573 4963c-26-5-30-21-8-29 8-4 15-10 15-15s-7-9-15-9-15-7-15-15c0-12 13-15 60-15s60 3 60 15c0 8-6 15-14 15-23 0-31 22-13 35 10 7 17 15 17 19 0 6-50 6-87-1z"/>
  <path id="ag" d="m4266 4913c13-53 23-60 24-15 0 31-4 42-15 42-12 0-14-7-9-27z"/>
  <path id="ah" d="m2687 4803c-9-8-9-56-1-77 3-9 17-16 30-16 20 0 24 5 24 29 0 25 5 31 30 36 53 12 37 35-23 35-30 0-57-3-60-7z"/>
  <path id="ai" d="m2357 4754c-13-13-7-44 8-44 16 0 17 5 6 33-3 10-10 15-14 11z"/>
  <path id="aj" d="m658 4573c-22-6-24-33-3-33 8 0 15-4 15-9s17-12 38-16c71-13 80-45 11-45-28 0-39-4-39-15 0-8-7-15-15-15s-15-7-15-15c0-13 21-15 125-15h125v149l-32 5c-55 8-192 14-210 9zm212-83c0-11-7-20-15-20s-15 9-15 20 7 20 15 20 15-9 15-20z"/>
  <path id="ak" d="m4405 4573c-109-6-106-3-103-86l3-72h124c91 0 125 3 129 13 2 7-5 12-17 12s-20 5-18 12c1 6-7 14-18 16-25 5-46 22-40 32 3 4 21 11 40 14 19 4 35 11 35 16 0 6 7 10 15 10s15 6 15 14c0 14-46 27-84 24-11-1-48-3-81-5z"/>
  <path id="al" d="m2278 4513c-10-2-18-8-18-13s-17-10-37-12c-36-3-38-5-41-40l-3-38h84c66 0 86 3 91 15 4 10-1 15-14 15-27 0-25 15 6 39 14 11 23 25 19 31-6 10-54 12-87 3z"/>
  <path id="am" d="m2830 4500c0-10 69-45 105-53 11-3-2-5-29-6-71-1-46-20 37-28l67-6v42c0 39-2 41-29 41-17 0-33 5-36 10-8 13-115 13-115 0z"/>
  <path id="an" d="m3770 4008c0-84 7-98 47-98h34l-3 72c-2 46-7 73-15 76-8 2-13-5-13-17 0-14-5-19-15-15-8 4-15 12-15 20s-4 14-10 14c-5 0-10-24-10-52z"/>
  <path id="ao" d="m1065 3529c15-49 76-160 91-166 21-8 26 0 32 56 5 59-13 121-36 121-9 0-34 3-56 7-37 6-38 5-31-18z"/>
  <path id="ap" d="m4021 3509c-22-64-11-149 20-149 27 0 67 93 61 143-4 34-7 37-37 37-28 0-35-5-44-31z"/>
  <path d="m1091 1538c-17-95-20-127-9-130 11-4 58-113 58-137s-15-1-35 52c-25 67-35 67-35 3 0-49 2-56 20-56 14 0 22-11 30-41 7-25 15-38 21-32 12 12 29 107 20 113-5 3-13 15-20 28-10 19-9 22 9 22 16 0 20 7 20 33 0 47-43 197-57 197-6 0-16-24-22-52z"/>
  <path id="aq" d="m4072 1305c-7-15-11-30-8-32 7-7 28 36 24 49-2 6-9-2-16-17z"/>
  <path id="ar" d="m4102 1276c-6-14-16-26-22-26-5 0-10-11-10-25s5-25 10-25c6 0 10 7 10 15 0 9 7 27 16 40s14 30 12 36-9 0-16-15z"/>
 </g>
 <g id="as" fill="#562f04">
  <path id="at" d="m958 5440c-23-14-23-30 0-30 11 0 18-7 18-20s-7-20-19-20c-10 0-17-5-15-12 4-10 148-14 666-16l662-2v70h-565c-496 0-565 2-565 15 0 10-10 15-32 15-18 0-55 3-83 5-28 3-58 1-67-5z"/>
  <path id="au" d="m4067 5444c-4-4-7-22-7-40 0-28 4-35 28-40 15-3 43-10 62-15 57-15 140-11 140 5 0 8-13 17-29 21-16 3-35 13-42 21-9 12-7 14 17 14s26 2 14 14c-16 15-171 32-183 20z"/>
  <path id="av" d="m4240 5058c1-46 26-142 38-146 18-6 19 40 1 121-11 49-39 67-39 25z"/>
  <path d="m4347 5048c12-61 19-82 30-85 6-2 9 7 7 24-2 15-1 22 2 15 3-6 11-9 17-5 5 3 20-6 32-21l22-27 31 26c30 25 31 25 37 4 4-13 11-17 16-12 6 6 5 30-2 61-11 46-15 52-39 52-14 0-31-5-37-11-8-8-13-8-17 0-4 6-29 11-56 11h-49z"/>
  <path id="aw" d="m905 4951c-4-22-2-48 4-58 9-16 10-16 19 7 5 14 12 40 15 58 6 27 4 32-12 32-15 0-21-10-26-39z"/>
  <path d="m2510 4984c0-10 52-49 74-55 20-5 66 16 66 30 0 9-83 31-115 31-14 0-25-3-25-6z"/>
  <path id="ax" d="m2550 4900c36-12 88-12 95 0 4 6-17 10-57 9-47-1-57-3-38-9z"/>
  <path d="m591 4760c-6-28-11-53-11-55 0-3 45-5 99-5 110 0 103-4 117 73l6 37h-200z"/>
  <path id="ay" d="m2410 4796c0-8 14-17 30-21 25-5 30-11 30-36v-29h123c68 0 126 3 130 6 3 3 1 17-4 31-8 21-6 26 11 30 11 3 20 12 20 19 0 11-32 14-170 14-140 0-170-2-170-14z"/>
  <path id="az" d="m4404 4773c14-77 7-73 117-73 63 0 99 4 99 11 0 5-5 30-11 55l-11 44h-200z"/>
  <path d="m940 4524c0-36 0-36-35-30-36 7-39 3-38-41 1-7-8-13-19-13s-18-5-16-12c4-10 91-14 381-16l377-2v70h-510v24c0 50-8 56-76 56h-64z"/>
  <path id="ba" d="m2166 4495c-9-13-16-38-16-55 0-30 0-30 55-30 30 0 55 5 55 10 0 6 14 10 32 10 50 0 28 9-29 11-57 3-63 19-7 19 19 0 34 5 34 10 0 6 7 10 15 10 28 0 15 27-16 34-67 13-106 7-123-19z"/>
  <path id="bb" d="m2810 4506c0-15 30-26 72-26 15 0 30-4 33-10 3-5 19-10 36-10 49 0 32-20-18-22-37-1-40-2-15-5 17-2 32-8 32-14 0-5 52-9 120-9h120v70h-80c-73 0-80 2-80 20 0 19-7 20-110 20-87 0-110-3-110-14z"/>
  <path id="bc" d="m1310 4091c0-50 1-51 31-51s30 1 27 48c-3 43-5 47-30 50-27 3-28 2-28-47z"/>
  <path id="bd" d="m1420 4114c-6-14-10-41-10-60 0-35 1-35 38-32l37 3 3 58 3 57h-31c-24 0-33-6-40-26z"/>
  <path id="be" d="m3837 3910c-8-69 1-152 17-162 6-4 24-8 39-8h29l-6 63c-19 179-16 167-46 167-26 0-27-3-33-60z"/>
  <path id="bf" d="m1020 3696c0-8-5-16-11-18-14-5 43-133 73-165 17-18 24-20 39-10 15 9 21 8 33-8 30-40 16 36-23 125-36 83-38 85-74 88-27 2-37-1-37-12z"/>
  <path id="bg" d="m4036 3548c-3-13-6-34-6-48 1-23 2-24 14-7 16 21 30 22 22 2-3-8-3-22 0-30 11-28 35-15 54 27s19 43 0 60c-28 26-76 24-84-4z"/>
  <path id="bh" d="m4060 1673c0-10-9-52-19-93-18-69-18-81-4-174 22-151 25-154 62-71 45 98 45 101 25 235-17 114-19 120-41 120-15 0-23-6-23-17z"/>
  <path id="bi" d="m1105 1550c-4-6 3-43 15-81 25-82 20-102-10-38l-20 44 6-49c6-54 50-163 61-152 12 12 41 231 32 240-5 6-9 18-9 28 0 14-8 18-34 18-19 0-38-5-41-10z"/>
 </g>
 <g id="bj" fill="#572012">
  <path d="m4066 4100c-9-22-16-58-16-80 0-39 1-40 33-40 28 0 36 5 50 35 9 20 17 56 17 80 0 44 0 45-34 45-30 0-36-4-50-40z"/>
  <path id="bk" d="m1435 2463c-5-10-10-116-13-235l-4-218h34c35 0 35 1 47 57 6 31 11 70 11 86 0 20 6 30 19 34 23 6 27 24 36 147 4 49 12 98 19 108 16 27-6 38-80 38-49 0-63-4-69-17z"/>
  <path id="bl" d="m3640 2456c0-14 5-28 10-31 6-4 10-55 10-121 0-113 0-114 24-114 22 0 24-4 30-80l7-80h81l-4 208c-3 114-8 215-12 225-7 14-21 17-77 17-66 0-69-1-69-24z"/>
  <path d="m1305 1618c-2-7-11-62-19-123-9-60-21-137-26-170-6-33-15-91-20-130-6-38-13-84-16-101-6-30-5-31 38-37 58-8 2641-9 2700-1l46 6-13 47c-7 25-16 73-20 106-3 33-10 83-15 110-5 28-17 105-27 173-14 96-21 122-33 122-13 0-19-21-28-97-7-54-21-141-32-193-21-103-26-200-10-200 6 0 10-9 10-20 0-20-7-20-1235-20h-1235v40c0 22 5 40 10 40 17 0 11 104-15 234-14 69-25 148-25 176 0 38-4 50-15 50-9 0-17-6-20-12z"/>
 </g>
 <g id="bm" fill="#592809">
  <path id="bn" d="m830 5482c0-21 46-61 78-67 31-6 32-6 32 29 0 34-2 36-32 36-18 0-43 3-55 6-13 4-23 2-23-4z"/>
  <path id="bo" d="m4272 5448c3-30 6-33 33-30 17 2 39 14 50 27s27 25 35 28-16 6-53 6l-68 1z"/>
  <path id="bp" d="m980 4131c0-6 25-64 55-130 30-67 64-144 76-173 42-109 72-168 84-168 9 0 15 27 19 88 11 147 26 325 32 360l5 33-110-2-110-3 5-46c5-47 0-42-27 28-8 22-29 31-29 13zm136-91c14-35 29-69 35-76s9-19 7-26c-5-14-51 71-74 135-24 67 6 37 32-33z"/>
  <path id="bq" d="m1336 4102c2-20 0-27-2-14-6 23-24 31-24 10 0-26-20-254-25-290l-5-38h78l12 65c10 51 16 65 30 65 22 0 28 23 37 123 5 64 3 77-9 77-8 0-19-12-25-27-10-27-11-26-12 18-1 43-3 46-29 47-26 0-28-2-26-36z"/>
  <path id="br" d="m3816 4025c5-164 11-195 36-195 14 0 18 5 14 15-3 8 0 15 6 15 7 0 9 14 5 40-3 23-1 38 4 34 5-3 9-25 9-49s5-47 11-51c9-5 10 11 6 62-4 38-10 108-13 157l-7 87-37-2-38-3z"/>
  <path id="bs" d="m3954 4103c3-21 8-69 12-106 5-51 10-67 20-63 22 8 24-8 6-36-14-22-16-40-10-115 3-48 7-103 7-120 1-40 13-42 28-5 35 87 164 383 182 419 24 48 27 67 9 61-7-3-17-19-22-36-5-18-12-32-17-32-4 0-3 15 2 32 5 18 9 34 9 35 0 2-52 3-116 3h-116zm147-60c-25-47-27-29-4 29 11 27 19 37 21 26 2-9-6-34-17-55z"/>
  <path id="bt" d="m3885 2524c-12-12-14-27-10-63 4-25 8-52 10-58 6-19 33-16 38 5 3 9 5 3 6-15 2-50 10-63 43-63 23 0 28 4 24 18-2 9-8 41-11 71-5 39-12 55-25 58-10 3-20 18-24 34-6 32-26 37-51 13z"/>
  <path id="bu" d="m1290 2468c0-59 11-84 32-75 15 5 33 101 22 118-3 5-16 9-30 9-22 0-24-3-24-52z"/>
 </g>
 <g id="bv" fill="#5c3601">
  <path d="m1114 5439c-28-4-60-11-70-17-16-10-12-12 26-12l45-2-30-11c-24-10 96-13 565-17l595-5-607-3c-335-1-608-6-608-10 0-10 1406-22 2487-22 604 0 713 2 713 14 0 9-20 18-52 26-80 18-90 21-83 28 3 3 27 5 53 5l47-2-35 11c-19 6-96 13-170 15-258 6-2825 8-2876 2z"/>
  <path id="bw" d="m936 5101c-25-106-28-189-6-176 15 10 52 239 42 265-8 21-13 7-36-89z"/>
  <path id="bx" d="m4226 5182c-4-11-4-33-1-49 16-74 28-113 37-113 5 0 6-6 2-12-5-10-4-10 6-1s9 27-5 90c-21 95-30 115-39 85z"/>
  <path id="by" d="m4413 5083c-41-5-42-24-2-42 17-7 34-24 39-37 6-15 15-22 24-18 8 3 13 11 10 18-2 6 3 20 12 31 8 11 13 14 9 8-3-7-1-13 4-13 6 0 11-7 11-15s5-15 11-15c11 0 5 63-7 82-5 8-52 8-111 1z"/>
  <path id="bz" d="m666 5049c-9-47-7-81 4-74 5 3 10 16 10 28 0 19 3 18 20-11 23-37 46-50 63-33 16 16 47 14 47-4 0-8 4-15 9-15 10 0 16 15 26 70 4 19 9 43 11 53 5 15-4 17-89 17h-94z"/>
  <path d="m2433 5062c9-10 17-25 17-33 1-22 33-55 60-62 14-3 44-12 68-19 38-11 47-10 74 5 16 9 36 17 45 17 18 0 58 48 58 70 0 8 8 14 18 14 10-1 16 3 14 10s-60 12-187 14c-178 2-183 2-167-16z"/>
  <path id="ca" d="m810 4556c0-8 14-17 30-21 26-6 30-11 30-41v-34h69c42 0 73 5 77 12 4 6 3 8-2 5-15-9-34 7-39 31-3 18 1 21 28 19 39-2 48-13 36-44-6-17-5-25 4-28 6-3 127-6 267-8 240-2 234-3-110-6-497-6-324-16 421-26 527-7 578-7 600 9l23 16h-34c-32 1-33 2-17 14 10 8 19 18 20 23 1 4 34 9 72 10 160 4 295 12 305 18 5 3 18 2 27-3 10-5 26-7 36-3s51 3 90-1c40-4 114-7 165-7 83-1 93-3 90-18-3-16 8-19 82-24l85-5-104-2c-84-2-103-5-93-14 10-10 169-14 707-16 608-3 695-2 695 11 0 8-8 17-18 19-13 4-19 16-20 46-3 37 0 42 23 48 14 3 25 12 25 20 0 12-267 14-1785 14-1536 0-1785-2-1785-14z"/>
  <path id="cb" d="m790 4136c0-16 216-475 230-490 21-22 43-13 35 15-10 30 12 22 23-8 10-27 10-26 11 13 1 37-46 160-160 422l-23 52h-58c-32 0-58-2-58-4z"/>
  <path id="cc" d="m1460 4095v-45h39c33 0 40 4 51 29 18 44 9 55-43 58l-47 2z"/>
  <path id="cd" d="m4293 4128c-10-13-113-243-113-253 0-2-29-71-65-151-42-95-65-159-65-183 1-31 2-34 13-20 10 14 14 14 25 3 7-8 19-14 26-14 9 0 252 510 293 615 4 12-6 15-50 15-32 0-59-5-64-12z"/>
  <path id="ce" d="m1246 3321c-3-41-6-85-6-98v-23h2723l-7 77c-3 42-6 85-6 97v21h-2697z"/>
  <path id="cf" d="m1157 1933c-8-13-57-338-57-375 0-19 7-43 15-54 11-13 13-14 9-3-3 10 1 19 10 22 9 4 13 1 10-6-2-7 6-23 20-36l24-23 6 29c3 15 17 101 31 190l24 162-32 50c-30 47-50 61-60 44z"/>
  <path id="cg" d="m4003 1889-32-51 24-161c30-194 33-207 44-207s25 41 42 125c7 33 16 62 21 65 4 3-3 66-15 140-26 157-35 166-84 89z"/>
 </g>
 <g id="ch" fill="#51291b">
  <path d="m1115 2880c-5-9-45-204-45-222 0-13 84-8 103 6 9 7 17 20 17 29s6 36 14 59c8 24 18 64 21 91l7 47h-55c-31 0-59-4-62-10zm45-44c0-8-7-16-15-20-15-5-21 14-8 27 11 12 23 8 23-7z"/>
  <path id="ci" d="m3995 2843c3-27 13-67 21-91 8-23 14-49 14-57 0-29 38-55 80-55 25 0 40 5 40 13 0 21-39 217-45 227-3 6-31 10-62 10h-55z"/>
  <path id="cj" d="m3927 2578c-8-13-24-34-36-47-11-13-21-33-21-45 0-20 1-20 20 4 23 30 25 17 6-38-8-22-13-49-11-59s7-35 10-56 10-35 15-32c4 3 6-12 3-33-5-37-5-38 30-40 34-2 37 0 48 37 13 44 4 125-12 100-10-15-10-13-13 44-1 17 1 34 5 37 14 10-4 63-22 67-21 6-25 34-9 64 15 26 6 24-13-3z"/>
  <path id="ck" d="m1290 2546c0-23-3-27-12-18-21 21-26 13-33-50-3-35-8-70-11-79-3-11 2-15 17-15 17 1 26-9 40-49 9-27 18-61 19-75 2-14 8 16 15 65 7 52 9 97 4 107-5 9-9 27-9 39 0 18 2 19 15 9 29-24 17 28-15 62l-29 33z"/>
  <path id="cl" d="m1380 560c0-13 7-20 19-20 11 0 23-4 26-10 4-6 95-10 241-10 227 0 234 1 234 20s-7 20-89 20c-50 0-93 5-96 10-4 6-72 10-171 10-157 0-164-1-164-20z"/>
 </g>
 <g id="cm" fill="#602612">
  <path id="cn" d="m1436 2463c-3-10-26-153-51-318s-53-338-61-385c-22-122-19-237 11-384 27-137 32-192 15-166-7 10-10-10-10-67v-83l1263-2c694-2 1263-2 1265-1s6 41 8 90c3 60 1 83-6 73-5-8-10-26-11-40-2-21-2-22-6-4-2 12 5 66 16 120s23 119 26 144c4 25 9 54 12 65 11 55 2 178-25 345-17 102-46 281-64 398-24 159-37 216-48 222-14 7-15 0-8-63 10-99 8-347-3-347-5 0-9 6-9 14 0 33-31 304-37 331-6 21-10-2-14-80l-5-110-2 117c-1 66-6 120-12 123-6 4-8 11-5 16 4 5-403 9-1063 8-816 0-1069-3-1070-12-1-7-4-56-7-111-4-54-11-108-16-120-6-14-8 13-4 84 7 144-11 108-25-51-6-69-17-150-25-180-13-53-13-51-14 91 0 80 4 174 10 209 8 50 7 66-2 72-8 5 3 9 27 12l39 4-42 1c-32 2-43-2-47-15z"/>
  <path id="co" d="m1278 1394c-12-11-8-54 7-94l13-35v40c-1 53-11 99-20 89z"/>
  <path id="cp" d="m3947 1192c-9-49-17-98-17-110 0-23 26-32 27-9 1 6 4 56 8 110 5 53 6 97 3 97-2 0-12-40-21-88z"/>
  <path id="cq" d="m1254 1182c4-51 9-99 12-107 8-21 24-19 24 3 0 30-29 185-36 191-4 3-4-36 0-87z"/>
 </g>
 <g id="cr" fill="#764200">
  <path id="cs" d="m1030 4126c0-13 8-16 35-13 42 4 59 17 22 17-14 0-32 3-41 6-11 4-16 1-16-10z"/>
  <path id="ct" d="m1370 4123c-1-99-38-323-53-323-9 0-4 163 9 268 4 27 2 42-5 42-6 0-11-6-11-12 0-7-11-143-25-303s-25-296-25-302c0-10 275-13 1341-13h1342l-6 58c-4 31-16 176-28 322s-23 267-25 269c-13 14-14-20-4-130 6-68 13-148 17-177 5-43 3-51-8-47-14 5-42 148-55 288-11 108-25 89-19-25 6-118-10-107-22 15-3 40-11 75-17 79s-513 7-1127 7h-1117l-12-29c-16-39-34-39-28 0 4 28 2 30-28 30-41 0-43-5-55-88-13-98-19-122-31-122-6 0-8 16-4 43 16 119 18 167 7 167-6 0-11-8-11-17zm81-66c-8-8-11-1-11 24 0 46 14 60 18 19 2-18-1-37-7-43z"/>
 </g>
 <g id="cu" fill="#633d1b">
  <path id="cv" d="m874 5473c4-5 13-8 19-8 7 0 12-11 12-25v-25l115-3c99-2 117 0 128 15 6 9 12 25 12 35 0 17-12 18-147 18-80 0-143-3-139-7z"/>
  <path id="cw" d="m1320 5465c0-25 38-55 69-55 38 0 91 30 91 53 0 15-10 17-80 17-64 0-80-3-80-15z"/>
  <path id="cx" d="m4052 5448 3-33 105-3c127-4 154 1 147 28-4 14 0 20 13 20 9 0 32 3 49 6 24 5 31 3 31-10 0-9 5-16 10-16 6 0 10 9 10 20 0 19-7 20-186 20h-185z"/>
  <path id="cy" d="m709 5218c-17-61-13-130 8-145 9-7 33-13 54-13 35 0 37 2 58 59 11 32 21 77 21 100v41h-129z"/>
  <path d="m4330 5232c0-15 4-32 9-37 5-6 18-35 29-65 19-54 21-55 62-58 23-2 48 2 56 9 17 14 19 87 3 142l-10 37h-149z"/>
  <path id="cz" d="m554 4604c-8-44 5-64 22-33 13 25 14 24 29-27 2-8 72-11 95-3 3 0 15 0 27-1 24-1 37 28 31 71-3 23-6 24-100 25l-98 1z"/>
  <path id="da" d="m4478 4632c-26-3-28-7-28-47v-43l53-1c28-1 61-2 72-4 14-1 21 5 23 21 4 24 32 31 32 7 0-8 5-15 10-15 11 0 13 33 4 67-5 19-12 21-72 20-37-1-79-3-94-5z"/>
  <path d="m3871 4093c1-34 2-35 9-13 11 36 11 50 0 50-5 0-10-17-9-37z"/>
  <path id="db" d="m1335 2663c10-15 28-43 41-62l22-33 96-2 96-1v38c0 33-3 37-24 37-18 0-25 6-28 23-3 25-32 31-87 17-19-5-39-6-45-2-6 5-29 10-50 11l-40 3z"/>
  <path id="dc" d="m3690 2638c0-47 12-63 24-32 5 14 10 13 40-5 59-37 81-25 140 77 6 11-13 13-98 11l-106-3z"/>
  <path id="dd" d="m1236 2410c-4-24-4-45-1-48s5 2 5 11c0 10 7 17 15 17 18 0 18 8 1 39-13 23-13 22-20-19z"/>
  <path id="de" d="m1201 2210c-14-64-14-79 0-119 10-27 16-31 46-31h36l-6 63c-8 91-24 137-47 137-14 0-21-12-29-50z"/>
  <path id="df" d="m3961 2223c-6-21-16-59-22-84-16-61-8-79 35-79 32 0 36 3 45 38 13 46 13 50 0 112-8 38-15 50-29 50s-22-11-29-37z"/>
  <path id="dg" d="m746 1008c-20-96-26-136-26-183v-55h39c21 0 44 6 50 14 7 8 27 17 46 20 30 6 34 11 40 48 7 39 5 44-26 70-18 15-37 28-41 28s-8 18-8 40c0 39-1 40-35 40-28 0-36-4-39-22z"/>
  <path id="dh" d="m4388 983c-2-28-9-41-25-48-55-24-55-117 1-123 15-2 36-12 47-23s33-19 54-19h35v58c0 50-5 79-25 170-5 18-12 22-45 22-38 0-39-1-42-37z"/>
  <path id="di" d="m1007 923c-4-3-7-39-7-80v-73h33c17 0 49 3 70 6 34 6 37 9 37 40 0 27-4 34-20 34-14 0-20 7-20 24 0 45-10 56-49 56-21 0-41-3-44-7z"/>
  <path d="m4120 892c0-22 3-54 6-71 6-27 11-31 38-31 50 0 57 10 54 76l-3 59-47 3-48 3z"/>
 </g>
 <g id="dj" fill="#5d1e4c">
  <path id="dk" d="m1010 5053c-6-32-25-119-41-193s-29-141-29-149c0-11 20-13 105-9 58 3 108 7 111 10s8 30 11 60l5 54-44 18-45 19 5 80c4 71 2 85-19 124-13 23-29 43-36 43-6 0-17-26-23-57z"/>
  <path id="dl" d="m4124 4885c-3-14-2-46 2-72 9-48 9-48 52-51 41-3 42-2 42 28 0 17-5 51-11 76-11 41-14 44-45 44-28 0-35-5-40-25z"/>
 </g>
 <g id="dm" fill="#6c481c">
  <path id="dn" d="m1115 5450c-8-16-15-31-15-34s676-6 1501-6c1429 0 1501 1 1494 17-4 10-10 26-12 36-5 15-22 17-179 17-148 0-174-2-174-15s-133-15-1139-15c-892 0-1140 3-1143 12s-12 8-31-5c-26-17-27-17-47 3-18 18-33 20-130 20h-109z"/>
  <path id="do" d="m790 5245c0-8 7-15 15-15s15-6 15-12c0-12-38-119-45-126-10-10-45 22-45 41 0 30-11 67-19 67-4 0-16-35-26-77-10-43-20-84-22-90-3-7 2-13 11-13s16 7 16 15c0 12 14 15 70 15s70-3 70-15c0-8 4-15 8-15 10 0 52 174 52 213 0 26-2 27-50 27-38 0-50-4-50-15z"/>
  <path id="dp" d="m2407 5253c-3-5-8-54-12-109-5-71-4-103 4-108 6-4 15 2 19 15 6 16 11 19 16 10 6-9 53-12 178-10 134 1 172-1 179-12 17-29 22 5 13 108l-9 108-192 3c-105 1-194-1-196-5zm233-133 35-29-67-1c-38 0-68 4-68 9 0 9 49 50 60 51 3 0 21-13 40-30z"/>
  <path id="dq" d="m4469 5213c0-10-1-35-2-57-2-47-30-71-51-43-19 25-26 21-26-18s18-49 80-42c32 4 35 8 38 38 5 41-16 139-29 139-5 0-9-8-10-17z"/>
  <path id="dr" d="m735 4630c-2-4-7-25-11-47-6-37-4-41 19-45 36-7 48 3 54 49 5 39 4 41-26 45-18 3-34 2-36-2z"/>
  <path id="ds" d="m4404 4599c3-17 6-38 6-45 0-9 12-14 35-14 35 0 35 0 35 45v45h-41c-41 0-41 0-35-31z"/>
  <path d="m1113 3587c6-36 56-127 71-127 11 0 2 35-29 103-28 64-51 77-42 24z"/>
  <path id="dt" d="m4041 3558c-28-65-33-88-22-88 13 0 48 49 66 94 15 34 14 36-5 36-15 0-26-12-39-42z"/>
  <path id="du" d="m1304 2864c-5-20 1-33 26-59 29-29 39-34 81-33 49 0 49 0 49 34 0 19-4 34-10 34-5 0-10 11-10 24 0 23-3 24-65 24-61 0-65-1-71-24z"/>
  <path id="dv" d="m3730 2860c0-14 9-40 20-58l20-32 77 5c42 3 79 7 80 9 2 2 0 25-4 52l-9 49h-92c-91 0-92 0-92-25z"/>
  <path d="m1185 2748c-4-11-19-32-32-44-23-21-24-25-9-39 25-26 39-13 51 48 11 55 4 80-10 35z"/>
  <path id="dw" d="m4120 2705c0-36-22-50-34-20-12 32-26 13-26-34 0-72 6-81 50-81 22 0 42 5 46 11 8 14-16 159-27 159-5 0-9-16-9-35z"/>
  <path id="dx" d="m1371 2657c19-18 38-40 42-49 4-13 17-18 41-18 33 0 35 2 32 29-2 15-6 33-10 40-5 7 1 11 16 11 16 0 19-3 10-9-11-7-10-16 7-47l20-39 1 58v57l-27-6c-15-4-32-7-38-6-5 1-37 3-70 6l-60 4z"/>
  <path id="dy" d="m3782 2678c-7-7-12-27-12-45 0-26 4-33 20-33 11 0 20 6 20 13s14 23 30 36c17 12 28 26 25 32-9 13-69 11-83-3z"/>
  <path id="dz" d="m3956 2409c-38-110-46-138-46-164 0-23 3-27 10-15 7 11 8 6 4-17-4-18-1-69 6-113 12-75 14-80 37-80 18 0 28 8 36 30 6 17 17 30 25 30 10 0 12 11 6 48-3 26-10 54-15 62-9 17-11 14-29-57-6-24-14-43-19-43s1 30 11 68c30 103 31 106 18 168l-12 59-20-63c-10-34-24-62-30-62-11 0-9 11 15 100 9 30 14 57 11 59-2 2-6-2-8-10z"/>
  <path id="ea" d="m1221 2332c-11-64-11-81 3-125 19-63 31-124 22-116-3 3-15 30-26 60l-19 54 5-75c7-81 24-120 53-120 15 0 20 13 30 75 15 103 15 107-15 177-14 34-29 80-33 102l-7 41z"/>
  <path id="eb" d="m4277 1693c-9-8-9-96-1-117 4-10 18-16 40-16 33 0 34 1 34 39 0 21-3 53-6 70-5 26-11 31-34 31-14 0-30-3-33-7z"/>
  <path id="ec" d="m736 963c-9-59-7-73 10-73 10 0 14 5 10 15-3 9 0 34 8 55 13 37 12 40-4 40-12 0-19-11-24-37z"/>
  <path id="ed" d="m790 985c0-8-4-15-9-15s-11-11-13-25c-4-20-1-25 16-25 12 0 27-5 34-12 14-14 16 9 6 61-7 31-34 44-34 16z"/>
  <path id="ee" d="m1069 865c-1-8-2-20-3-27s10-15 24-19l25-7-25-1c-31-2-65-21-37-21 9 0 17-4 17-10s33-10 80-10h80v35c0 44-25 60-102 69-48 5-58 3-59-9z"/>
  <path id="ef" d="m4065 871c-48-6-50-7-53-41-3-24 2-38 14-47 24-17 144-18 144 0 0 6 3 23 6 37 4 17 3 21-4 12-7-10-11-6-15 17-5 22-12 31-24 29-10 0-40-4-68-7z"/>
  <path id="eg" d="m1342 560c9-14 24-20 52-20 30 0 36 3 28 13-8 9 16 13 112 15 102 3 124 1 135-12 12-14 45-16 242-16 222 0 229 1 229 20 0 20-7 20-405 20-403 0-405 0-393-20z"/>
  <path id="eh" d="m3570 552c0-27 1-28 63-30 51-3 68 1 89 17 21 17 41 21 95 21 37 0 75 5 83 10 10 6-42 10-157 10h-173z"/>
 </g>
 <g id="ei" fill="#642255">
  <path id="ej" d="m2247 5098c-4-29-7-90-7-135 0-75-2-83-19-83-11 0-21-7-23-15-4-18-135-23-720-24-338-1-388-3-388-16 0-8 6-15 13-15 6 0 18-4 26-9 12-8 12-12 2-25-7-8-11-25-9-38l3-23 587-3c552-2 587-1 592 15 3 10 10 101 16 203s12 192 13 200c1 11-9 16-39 18l-41 3z"/>
  <path id="ek" d="m2867 5144c-3-3-4-11-2-17 2-7 9-97 15-200 6-104 13-194 16-202 5-11 123-14 682-17 372-2 679-2 681-1s-8 55-23 120c-14 65-33 162-43 216l-18 97h-47c-43 0-48-2-48-22 0-23 26-194 35-235 10-42-51-46-603-41-367 4-507 8-510 17-2 6-12 11-23 11-17 0-19 8-19 94 0 51-3 114-6 140-7 45-7 46-44 46-20 0-39-3-43-6zm1318-353c-9-9-23 13-25 39-4 50 2 54 16 11 8-25 11-47 9-50z"/>
  <path id="el" d="m1020 5103c0-21 9-51 20-68 11-16 20-42 20-57 0-21 5-28 19-28 16 0 20 12 30 75 17 119 19 115-39 115h-50z"/>
 </g>
 <g id="em" fill="#72501d">
  <path id="en" d="m1120 5461c-15-29-12-41 10-41 11 0 20 6 20 14s3 21 6 30c9 23-23 20-36-3z"/>
  <path d="m1420 5450-31-30 1238 2c681 1 1221 3 1201 5-25 3-41 12-52 29l-16 24h-2309z"/>
  <path d="m4060 5453c0-5 4-15 10-23 11-18 25-7 17 15-6 15-27 21-27 8z"/>
  <path id="eo" d="m760 5246c0-8 6-14 13-13 42 1 87-4 86-10-8-49 25-59 35-12 3 17 6 35 6 40s-31 9-70 9c-53 0-70-3-70-14z"/>
  <path id="ep" d="m4300 5253c-1-23 55-233 62-233 4 0 8 7 8 15 0 11 13 15 48 16 26 1 57 3 70 4s22-3 22-11c0-7 5-16 12-20 13-8 6 53-12 119-14 49-26 47-28-5-2-49-12-62-40-54-13 4-27 28-42 69-12 34-27 68-33 75s-6 12-1 11c21-4 44 2 44 11 0 11-110 14-110 3z"/>
  <path id="eq" d="m2548 5167c-33-28-58-71-58-98 0-5 50-9 115-9 63 0 115 2 115 4s-7 20-15 40c-10 24-32 47-62 66-26 17-49 30-52 30-4-1-23-15-43-33z"/>
  <path id="er" d="m844 5115c-4-8-12-15-20-15s-14-9-14-20c0-13 5-17 14-14 11 4 13 0 9-15-3-12-1-21 5-21 8 0 32 71 32 94 0 13-21 5-26-9z"/>
  <path id="es" d="m766 4608c-3-13-6-34-6-48v-25l1841 3 1840 2-3 43-3 42-1831 3-1832 2z"/>
  <path id="et" d="m888 4134c-9-8 3-42 65-194 90-219 173-400 180-393 14 13 6 54-19 110-15 32-57 130-94 218-121 284-116 275-132 259z"/>
  <path id="eu" d="m4294 4129c-11-14-114-244-114-254 0-2-29-71-65-151-36-81-65-150-65-154 0-5 8-7 17-6 12 2 36 44 74 127 90 200 171 407 167 430-2 18-5 20-14 8z"/>
  <path id="ev" d="m1257 3423c-16-15-6-51 16-57 30-8 2606-8 2646 0 27 6 32 11 29 33l-3 26-1341 3c-737 1-1344-1-1347-5z"/>
  <path id="ew" d="m4065 3220c-8-16-15-40-15-55 0-23 4-25 40-25 34 0 42 4 50 26 6 14 10 39 10 55 0 26-3 29-35 29-28 0-37-5-50-30z"/>
  <path id="ex" d="m1115 2881c-3-6-28-128-55-273-28-145-77-398-110-563s-91-460-130-655c-79-401-85-457-44-402 12 15 13 13 14-20 0-66 92-111 106-50 3 15 7 33 10 40 2 7 15 86 29 175s32 198 41 242c17 96 165 997 192 1175 11 69 17 133 13 142-6 16-9 16-39 1-18-9-36-13-39-9-7 6 14 121 33 184 6 22-9 32-21 13z"/>
  <path id="ey" d="m1310 2878c1-16 28-53 35-47 2 3 6 16 7 30 2 18-2 25-19 27-14 2-23-2-23-10z"/>
  <path id="ez" d="m1395 2882c2-3 0-11-6-18-8-10-5-19 14-38 18-17 21-28 14-35-8-8-4-11 15-11 33 0 48 19 55 67l5 38-51 1c-29 1-49-1-46-4z"/>
  <path id="fa" d="m4080 2886c0-2 11-47 25-100 27-103 32-171 14-182-15-9-29 15-29 50 0 16-10 38-22 51-13 13-31 33-40 46-17 24-17 24-8-11 5-19 21-111 35-205 28-186 164-1014 194-1190 11-60 27-157 36-215 21-136 35-202 48-217 13-17 57-16 81 2 13 10 17 23 14 44-5 34 8 40 28 14 12-16 13-13 14 22 0 37-30 192-200 1050-33 165-82 418-110 563-27 145-52 267-55 273-6 9-25 13-25 5zm237-1278c-3-22-4-21-11 4-5 16-5 36 0 45 7 16 8 15 11-4 3-13 3-33 0-45z"/>
  <path id="fb" d="m3770 2680c-14-4-22-8-18-9s3-13-3-28c-9-24-7-30 11-45 24-19 76-25 65-8-4 6-10 8-14 6-9-6-6 48 4 63 3 6 17 11 31 11s22 4 19 10c-7 12-59 12-95 0z"/>
  <path d="m3716 2665c-3-9-6-26-5-38 1-16 4-12 10 12 10 34 6 55-5 26z"/>
  <path id="fc" d="m1197 2180c-4-14-13-72-22-130s-18-112-21-121c-5-16 74-144 83-135 3 3 14 58 24 122 17 105 18 119 4 134-8 9-26 48-39 86-20 58-25 65-29 44z"/>
  <path id="fd" d="m3991 2127c-6-16-11-33-11-38s-9-18-20-29c-20-20-20-23-5-123 9-56 18-112 21-125l5-23 22 28c13 15 33 44 44 63 21 34 21 37 4 133-9 54-21 101-27 105s-13 14-16 22c-4 11-9 7-17-13z"/>
  <path id="fe" d="m4112 870c-17-28-15-33 14-27 17 3 22 1 16-5s-8-17-5-26c5-12 1-14-15-10-12 4-22 3-22-1 0-19 29-31 73-31h48l-3 47c-2 38-7 49-22 51-15 3-18 0-13-17 3-12 1-19-3-16-5 3-10-1-13-7-2-7-7 4-11 25-8 41-25 48-44 17z"/>
 </g>
 <g id="ff" fill="#8e397d">
  <path id="fg" d="m1313 5142c-123-1-223-5-223-9 0-3-12-76-26-161s-23-157-20-159c3-3 12 0 20 6 10 9 16 9 21 1s170-10 572-9c558 2 565 2 572 22s8 19 14-3c12-47 20-9 29 132 4 79 9 152 10 163 3 20-3 20-372 20-206 0-475-1-597-3z"/>
  <path id="fh" d="m2917 5143c-3-5-1-28 3-53 5-25 9-88 10-140 0-52 3-105 6-118 7-26 24-30 24-4 1 15 2 15 10 1 9-15 64-16 552-18 309-1 557 2 574 8 22 6 36 5 43-2 6-6 13-8 16-5 4 4-43 319-48 325-7 6-1186 12-1190 6z"/>
 </g>
 <g id="fi" fill="#d79b41">
  <path id="fj" d="m775 5468c-9-29-35-127-35-132 0-3 837-6 1860-6h1860l-7 28c-26 106-30 117-46 120-15 3-15 0-2-39 8-23 15-48 15-55 0-12-284-14-1824-14h-1825l19 55c16 47 17 55 4 55-8 0-16-6-19-12z"/>
  <path id="fk" d="m711 5223c-80-308-111-431-111-436 0-4 44-7 98-7h99l32 155c18 85 43 193 55 240l23 85h-186zm155 0c-2-10-10-45-16-78s-20-102-31-152l-21-93h-58c-78 0-83 8-60 100 10 41 25 110 35 152 18 85 17 84 108 87 42 1 48-1 43-16z"/>
  <path id="fl" d="m990 5254c0-3 5-14 10-25 10-18 28-19 675-19 397 0 665 4 665 9s3 16 6 25c6 15-58 16-675 16-375 0-681-3-681-6z"/>
  <path id="fm" d="m2406 5248c-3-7-7-40-10-73-20-198-25-248-30-317l-6-78h480l-6 73c-5 70-21 236-33 347l-6 55-193 3c-149 2-193 0-196-10zm355-18c8-5 15-50 20-127 5-65 10-135 13-155l4-38h-395l4 28c2 15 7 85 12 156 6 80 13 131 21 136 16 10 305 9 321 0z"/>
  <path id="fn" d="m2854 5244c3-9 6-20 6-25s268-9 665-9c647 0 665 1 675 19 5 11 10 22 10 25s-306 6-681 6c-617 0-681-1-675-16z"/>
  <path id="fo" d="m4320 5158c15-57 40-165 55-240l28-138h99c54 0 98 3 98 6 0 5-19 79-111 437l-10 37h-186zm118 76c27-6 32-12 42-58 7-28 23-97 36-153 13-57 24-107 24-113s-28-10-65-10c-51 0-66 4-74 18-5 9-21 76-36 147-14 72-29 140-32 153-5 20-2 22 35 22 22 0 53-3 70-6z"/>
  <path id="fp" d="m560 4636c0-2-13-55-30-117-16-63-30-117-30-121 0-5 945-8 2100-8s2100 3 2100 7c0 3-14 60-31 125-23 84-36 118-46 118-11 0-14-7-10-22 15-62 37-164 37-170 0-9-4086-6-4095 3-3 4 3 44 14 89 25 99 25 100 6 100-8 0-15-2-15-4z"/>
  <path id="fq" d="m528 4323c-10-2-18-8-18-11 1-4 32-72 70-152l69-145 52-3c28-2 55 0 60 5 4 4-6 38-23 75-34 74-32 93 9 109 40 16 3666 16 3706 0 41-16 43-35 9-109-16-37-27-72-25-79 3-8 24-13 57-13h52l72 155c40 86 72 160 72 165 0 10-4125 13-4162 3z"/>
  <path id="fr" d="m4071 3236-50-106h-2842l-46 98c-25 53-46 98-47 100-2 1-18-1-36-4-32-7-32-8-28-53 5-54 52-166 83-199l21-23h1485l1484-1 17 39c10 21 18 53 18 71 0 21 5 32 14 32 33 0 50 123 19 134-10 3-24 9-30 12-8 4-30-31-62-100zm42-36c-6-22-21-35-29-27-7 7 15 47 25 47 5 0 7-9 4-20z"/>
  <path id="fs" d="m1240 3210c0-20 7-20 1360-20s1360 0 1360 20-7 20-1360 20-1360 0-1360-20z"/>
  <path id="ft" d="m1466 2875c-9-9-16-21-16-27 0-5-9-22-20-38-11-15-17-30-13-34 9-9 2376-7 2391 3 10 6 10 11-3 21-18 15-49 70-40 70 3 0 17-12 31-27 28-31 42-24 28 15l-9 27-1167 3c-1057 2-1168 1-1182-13z"/>
  <path id="fu" d="m1390 2682c0-5 6-15 14-21 18-16 68-11 58 5-9 15-72 29-72 16z"/>
  <path id="fv" d="m1505 2679c-4-5-3-9 2-9 4 0 2-4-5-9-11-6-10-15 4-44 18-38 34-48 34-22 0 24 18 17 22-7l3-23 1057-3c1179-2 1077-9 1099 70 8 32 8 43-3 49-18 12-2206 10-2213-2z"/>
  <path id="fw" d="m887 1718c-13-52-187-941-187-954 0-11 19-14 89-14h89l6 27c3 16 12 75 20 133 9 58 26 176 39 263 35 231 20 199-53-118-16-70-32-130-35-134-4-3-20 9-36 27-28 32-29 32-29 8 0-16 13-35 40-56 22-17 40-37 40-45 0-16-63-30-69-14-2 6-8 1-15-12-6-12-17-24-25-27-11-4-12 11-8 76 3 44 10 89 16 100 11 20 103 536 122 681 10 71 7 105-4 59z"/>
  <path id="fx" d="m4325 1685c3-33 15-107 25-165 11-58 35-198 54-313 20-114 40-216 46-227s13-56 17-101c6-81 6-81-15-70-12 7-22 18-22 25 0 8-10 11-28 8-59-8-59 37 1 67 20 11 27 22 27 43v29l-24-28c-22-25-26-26-39-13-8 8-34 96-57 195s-47 187-52 195c-7 12-8 11-4-5 2-11 14-85 25-165 32-218 51-352 57-383l6-27h89c68 0 89 3 89 14 0 25-189 968-195 975-4 3-4-21 0-54z"/>
  <path id="fy" d="m995 958c-9-29-33-194-28-200 6-10 3280-10 3286 0 3 4-3 52-12 107l-17 100-1612 3c-1285 2-1613 0-1617-10zm74-88c9-26 15-30 49-30 25 0 49-7 63-19l24-20-174 4 4 45c4 54 3 50 14 50 5 0 14-13 20-30zm3117-22 3-48-65 4c-100 6-113 31-19 38 36 3 40 6 43 31 2 20 8 27 19 25 12-2 17-16 19-50z"/>
 </g>
 <g id="fz" fill="#f8daad">
  <path id="ga" d="m1405 4240c-647-5-690-6-693-22-3-17 35-18 692-18h696v25c0 14-1 24-2 23-2-2-313-5-693-8z"/>
  <path id="gb" d="m1060 3161c0-18 41-106 53-113 7-4 101-8 210-8 195 0 197 0 197 22 0 21-1 21-179 15l-180-6-35 40c-20 21-36 44-36 49 0 6-7 10-15 10s-15-4-15-9z"/>
  <path id="gc" d="m4070 3085c0-12-16-15-85-15-70 0-85-3-85-15 0-13 15-15 98-13l97 3 3 28c2 19-1 27-12 27-9 0-16-7-16-15z"/>
  <path id="gd" d="m1170 661c-79-14 12-21 286-21 246 0 284 2 284 15s-36 15-267 14c-148-1-284-4-303-8z"/>
  <path id="ge" d="m3670 655c0-13 28-15 193-14 105 0 201 4 212 8 31 12-70 21-247 21-134 0-158-2-158-15z"/>
  <path id="gf" d="m3340 562c0-35 21-42 130-42 105 0 139 8 126 29-4 6-2 11 4 11s8 4 5 10c-4 6-60 10-136 10-118 0-129-2-129-18z"/>
 </g>
 <g fill="#f9e0b9">
  <path d="m514 4303c36-94 594-1253 604-1253 17 0 15 21-4 48-8 12-18 35-20 50-3 15-14 51-24 80-24 65-25 60 3 64 13 2 21 9 19 18-4 16-290 647-324 714-14 28-23 35-31 27-15-15-62-14-75 2-11 13-84 184-99 232-6 20-17 31-33 33-19 3-22 0-16-15z"/>
  <path id="gg" d="m4645 4308c-25-72-51-135-83-198-40-80-70-100-97-64-11 16-14 14-33-22-73-145-322-708-318-720 3-8 12-14 21-14 19 0 19-5-4-54-48-100-75-202-51-194 10 3 609 1250 610 1271 0 12-40 8-45-5z"/>
  <path id="gh" d="m2080 4240c-9-6-145-10-367-10-325 0-431-8-316-24 25-3 732-6 1570-6 1357 0 1523 2 1523 15 0 9-6 17-12 20-31 9-2384 15-2398 5z"/>
  <path id="gi" d="m1468 3073c-16-2-28-8-28-13s-12-11-27-13c-16-2 573-4 1307-4s1306 3 1270 7c-38 4-52 8-35 10 24 2 20 4-20 10-50 8-2416 11-2467 3z"/>
  <path d="m834 661c4-6 24-19 44-30 20-10 75-37 121-61 89-45 141-57 188-45 25 6 15 13-107 72-102 49-149 66-194 70-43 5-57 3-52-6z"/>
  <path id="gj" d="m1600 656c13-13 1718-22 2097-11 523 15 181 23-937 22-833 0-1167-4-1160-11z"/>
  <path id="gk" d="m4280 660c-14-4-81-35-150-68-93-45-120-62-107-67 38-15 114 2 197 45 47 24 104 52 128 63 23 12 42 24 42 29 0 10-77 9-110-2z"/>
  <path d="m1886 570-228-5 22-20c22-20 39-20 887-23 613-3 868-1 876 7s4 11-14 11c-14 0-34 9-44 20-18 20-29 20-644 18-344-1-729-5-855-8z"/>
 </g>
</svg>
