<svg id="a" class="img-fluid" width="224" height="168" version="1.1" viewBox="0 0 2240 1680" xmlns="http://www.w3.org/2000/svg">
 <g fill="#341015">
  <path id="b" d="m920 1670c0-5-8-10-18-10-30 0-49-31-63-98-12-64-12-64-293-61s-281 3-298-32c-33-66-91-292-92-359-1-55-5-68-24-83-16-13-22-29-22-56 0-21-8-80-19-132-45-227-44-224-26-281 18-55 88-179 183-328 61-95 105-149 136-167 16-9 194-12 736-13 781 0 732-3 783 55 72 82 251 380 273 456 15 50 15 61-1 154-9 55-23 125-31 156s-14 75-14 97c0 31-6 45-24 59-21 17-23 26-19 64 4 32-6 84-37 194-66 243-28 219-356 216-281-3-281-3-293 58-7 37-22 72-37 91-26 30-26 30-235 30-133 0-209-4-209-10zm120-144c-5-15-10-41-10-57 0-27-2-29-40-29-40 0-40 0-40 54 0 55 0 55 48 58 26 2 48 2 50 2 1-1-2-13-8-28zm253 17c2-5 2-29-1-55-4-48-4-48-42-48-36 0-38 2-42 38-3 20-8 45-12 55-7 15-2 17 42 17 28 0 53-3 55-7zm-942-233c-16-76-14-106 12-136 22-25 29-27 140-32 117-5 117-5 117 32 0 35-1 36-38 36-41 0-82 23-82 46 0 10 12 14 40 14 39 0 40 1 40 35 0 31-3 35-27 35-27 1-63 20-63 34 0 3 69 6 154 6 154 0 154 0 166-30 17-40 6-74-35-115-25-24-35-42-35-64 0-27 3-31 28-31 40 0 52-17 52-71 0-29 5-49 13-52 6-3-99-6-235-6-243-1-248-1-248 19 0 11-8 24-17 27-52 20-62 68-34 160 11 37 23 82 27 98 4 17 11 39 17 50 16 31 20 2 8-55zm1391 25c-3-35-1-46 12-51 9-4 16-17 16-34 0-29 18-40 68-40 44 0 55 24 49 103-6 65-5 70 8 53 8-11 15-25 15-32 0-6 13-58 30-115 16-57 30-121 30-141 0-72 18-68-286-68-237 0-274 2-274 15 0 8-4 15-10 15-5 0-10 9-10 20s3 20 8 20c4 0 15 14 24 30 15 26 23 30 58 30 38 0 40 1 40 31 0 20-8 37-22 49-21 16-21 18-5 34 9 10 17 32 17 50 0 28-5 34-35 46-19 7-32 17-29 22 3 4 72 8 153 8 149 0 149 0 143-45zm-562-254c5-11 10-44 10-75 0-54 0-54-70-58-70-3-70-3-70 68 0 39 3 74 7 77 3 4 30 7 59 7 42 0 55-4 64-19zm-260-163c0-48 3-47-340-48h-342c-21 0-22 8-8 44 10 26 10 26 350 26s340 0 340-22zm1089-9c6-18 11-34 11-35 0-2-155-4-345-4-345 0-345 0-351 24-3 14-3 30 1 35 4 8 116 11 340 11 333 0 333 0 344-31zm-799-169c0-80 0-80-87-80-88 0-88 0-90 80s-2 80 87 80c90 0 90 0 90-80zm-940-2c0-31-13-57-31-61-16-4-19 0-19 28 0 18-6 36-12 38-7 3 4 6 25 6 23 1 37-4 37-11zm163-60c7-4-1-8-19-8-29 0-30 2-26 33 7 45 26 55 30 14 2-17 9-35 15-39zm1611 50c11-43 8-49-26-46-27 3-33 8-39 36-6 31-5 32 26 32 25 0 34-5 39-22zm-898-187c51-1 51-1 56-65 3-35 9-69 12-75 9-14 73-15 81-1 7 12 375 14 375 3-1-5-7-19-15-33s-14-42-15-63c0-38 0-38 42-35 39 3 44 6 67 53 14 27 43 67 63 89 28 29 38 48 38 73 0 33 0 33-247 34-137 0-257 4-268 9-12 5 96 7 265 5 157-3 313-5 348-6 72 0 72 7-3-109-24-36-67-105-97-155-53-87-55-90-89-87-18 1-38 7-43 12-12 12-76 13-76 1 0-27-64-33-306-28-213 4-248 7-256 21-13 22-74 21-87-1-9-16-27-18-173-17-90 0-191 4-226 8-46 7-69 5-87-4-41-22-47-16-133 127-12 21-49 81-82 133-60 95-60 95 48 102 59 4 116 9 127 11 16 3 399 2 681-2z"/>
  <path id="c" d="m655 520c-143-4-261-7-262-8-2-1-3-18-3-37 0-29 5-37 32-51s70-16 302-16c149 0 277 1 284 1 13 1 16 59 6 99-6 19-12 22-53 20-25-1-163-5-306-8z"/>
 </g>
 <g id="d" fill="#371a1d">
  <path id="e" d="m638 1363c-104-2-188-7-188-12 0-14 44-39 76-44 20-3 13-4-19-6-29 0-46-5-42-11 3-5-1-10-9-10-11 0-16-9-16-30 0-16 5-30 12-30 6 0 20-8 30-17 11-10 40-20 66-25 36-5 29-6-28-3-41 2-84 6-94 8-25 5-58 46-52 64 4 9-6 13-34 15-22 0-46 1-52 2-14 1-33-50-43-113-6-41 10-101 28-101 5 0 5-4 2-10-3-5 2-10 13-10 10 0 22-3 25-7 10-9-14-34-26-26-6 3-7 1-3-5 5-9 91-12 307-12 222 0 298 3 293 11-4 7-8 21-9 33-4 36-5 37-17 30-8-5-9-2-3 12 20 49-8 101-57 106-33 4-33 4-6 17 15 8 25 18 22 22-3 5-1 9 4 9 10 0 26 37 37 83 7 35-2 68-18 65-7-2-96-4-199-5zm147-228c6-2-56-4-137-4-82-1-148 3-148 8 0 8 261 4 285-4z"/>
  <path id="f" d="m1410 1347c0-7 15-19 34-27 34-13 40-40 10-40-8 0-14-7-14-15s-4-15-10-15c-5 0-10-7-10-15s4-15 10-15c5 0 20-11 34-25 25-25 25-25-15-25-34 0-42-5-57-30-26-46-46-39-38 13 5 35 3 47-14 65-39 42-54 26-64-70-2-18 5-34 20-49 13-13 24-19 24-16 0 4 9-1 20-10 11-10 20-27 20-39s6-25 13-27c10-4 10-6 0-6-7-1-13-5-13-11s111-10 313-10c293 0 313 1 324 19 15 24 10 121-12 199-17 60-19 62-50 62-20 0-35 6-39 15-6 17-36 21-36 5 0-19-24-37-42-32-12 3-18 14-18 32 0 16-7 30-16 34-12 5-14 10-5 20 6 7 8 16 4 19-3 4-89 7-190 7-144 0-183-3-183-13z"/>
  <path id="g" d="m255 960c8-14 665-14 665 0 0 6-119 10-336 10-221 0-333-3-329-10z"/>
  <path id="h" d="m1330 960c0-6 122-10 345-10s345 4 345 10-122 10-345 10-345-4-345-10z"/>
  <path id="i" d="m373 773c-6-5-15-37-19-72-7-64-7-64 26-58 18 4 66 7 106 7 56 0 74 3 74 14 0 14-29 26-63 26-21 0-49 24-40 34 4 3 31 6 62 6 70 0 101 8 101 26 0 11-21 14-97 14-54 0-107 3-118 5-11 3-25 2-32-2z"/>
  <path id="j" d="m960 581c0-4-10-7-21-8-30-3-32-7-18-46 9-26 17-33 35-31 17 1 24-4 29-24 7-29-9-45-39-38-16 4-18 0-12-37 4-23 12-45 19-49 26-16-31-20-181-14-89 4-163 12-170 19-7 6-22 27-32 48-18 35-63 58-76 38-2-4-21 2-41 14-37 21-37 21 0 30 48 12 48 33-1 41-79 13-90 9-101-31-17-60-13-84 24-148 19-33 48-87 65-120 16-33 35-68 43-78 15-18 42-23 51-9 5 9 407 9 449 0 21-5 30-2 38 14 11 20 11 20 32-3 22-24 22-24 25 21 2 25-1 81-7 125s-16 112-21 152c-6 39-10 77-10 82 0 7 23 11 55 11 41 0 55 4 55 15 0 15-26 21-127 29-35 2-63 1-63-3z"/>
  <path id="k" d="m1830 560c0-7-14-26-32-42-32-28-32-28-5-28 15 0 27-2 27-3 0-2-17-22-39-44-21-23-48-62-60-87-23-46-38-63-48-53-7 8 48 107 57 102 7-5 20 17 20 34 0 5-10 6-23 4-17-3-26-16-36-48-13-44-13-44-69-51-71-9-318-11-327-3-10 11 6 59 21 59 8 0 14 9 14 20 0 15-7 20-29 20-17 0-33-5-36-10-10-17-22-3-29 35-8 40-33 48-40 13-5-20-24-160-42-304-5-40-5-40 53-39 32 0 64 4 71 9 7 4 97 6 199 5 144-3 187-1 191 9 2 8 8 10 15 4 7-5 24-12 38-15 32-8 46 6 87 88 16 33 55 107 85 165 59 109 71 159 40 159-10 0-37 3-60 7-32 5-43 3-43-6z"/>
 </g>
 <g id="l" fill="#282f2e">
  <path id="m" d="m1014 966c-9-49 1-58 54-54 35 2 48 8 50 21 2 10-3 17-11 17s-17 7-21 15c-3 8-12 15-21 15-8 0-15 5-15 10 0 6-7 10-15 10s-17-14-21-34z"/>
  <path id="n" d="m1001 770c1-90 1-90 120-90s119 0 119 91c0 81-2 90-17 87-12-2-19-14-21-36-3-27-7-32-30-32-15 0-51-3-79-6-49-6-53-5-53 15 0 14 6 21 20 21 27 0 25 26-2 34-58 15-59 13-57-84z"/>
 </g>
 <g id="o" fill="#41262b">
  <path id="p" d="m920 1670c0-5-8-10-18-10-30 0-49-31-63-98-12-64-12-64-293-61s-281 3-298-32c-33-66-91-292-92-359-1-55-5-68-24-83-16-13-22-29-22-56 0-21-8-80-19-132-45-227-44-224-26-281 22-66 194-358 212-358 7 0 13 2 13 5 0 10-52 90-75 115-33 36-113 173-131 223-11 30-14 60-9 105 10 107 66 356 83 376 12 13 16 32 14 68-4 50 11 124 54 273 37 127 6 116 334 124 283 6 283 6 296 68 7 35 16 67 19 73 3 5 26 15 51 21 48 12 59 29 19 29-14 0-25-4-25-10z"/>
  <path id="q" d="m1962 1481c15-17 33-54 42-83 47-165 59-220 61-285 1-54 6-78 20-93 10-11 15-20 12-20s-1-15 4-32c11-35 43-202 59-304 8-52 7-71-9-116-25-72-43-107-75-141-14-15-26-32-26-37 0-6-20-37-45-71-43-59-55-89-35-89 22 0 183 274 206 351 15 50 15 61-1 154-9 55-23 125-31 156s-14 75-14 97c0 31-6 45-24 59-21 17-23 26-19 64 4 32-6 84-37 194-47 171-67 218-94 224-17 3-17 0 6-28z"/>
  <path id="r" d="m353 567c-51-7-73-14-73-24 0-18 46-109 75-148 12-16 25-38 28-48 10-28 87-137 97-137 11 0-22 81-49 119-10 14-28 46-40 71-21 42-21 44-2 20 11-14 21-29 21-34s19-38 42-74c41-64 69-84 104-77 11 2 116 4 234 4 143 1 210 5 200 11-8 5-80 10-160 11s-174 4-210 8c-65 6-65 6-112 70-27 35-48 70-48 78 0 11-47 38-59 33-2-1-7 4-11 11-11 17 0 41 16 35 9-3 14 2 14 14 0 19 8 20 210 20 199 0 210 1 210 19 0 13-10 21-34 25-49 9-367 4-453-7z"/>
  <path id="s" d="m1863 426c-37-75-38-77-20-70 22 8 59 82 55 110-3 22-8 16-35-40z"/>
  <path d="m1843 467c-4-8-18-19-29-25-25-13-39-62-18-62 27 0 83 83 65 95-6 3-13-1-18-8z"/>
  <path d="m1015 408c-12-28-45-37-45-13 0 9-6 15-12 12-14-4-17-91-4-104 4-4 16-2 27 5s24 10 29 7 11 14 13 37c3 42 4 42 5-9 3-84 22-75 22 11 0 55-4 76-13 76-7 0-17-10-22-22z"/>
  <path id="t" d="m1740 320c0-5-12-21-27-35-28-25-28-25-246-25-200 1-239-1-226-15 4-3 422-8 487-6 6 1 12 11 12 23s7 29 15 38c14 16 14 18 0 23-8 4-15 2-15-3z"/>
 </g>
 <g id="u" fill="#53382c">
  <path id="v" d="m1059 1269c-33-33-19-44 59-47 70-3 72-2 72 21 0 34-19 47-67 47-30 0-49-6-64-21z"/>
  <path d="m438 1255c-3-13-3-27 0-30s92-5 198-5c166 0 193 2 198 16 17 44 16 44-193 44-199 0-199 0-203-25z"/>
  <path id="w" d="m1400 1266c0-46 2-46 206-46 194 0 194 0 194 30s0 30-200 30c-166 0-200-2-200-14z"/>
  <path id="x" d="m372 773c-10-4-10-8-1-19s63-14 291-14c261 0 279 1 276 18-3 16-25 17-278 19-151 1-281-1-288-4z"/>
  <path id="y" d="m1300 772c0-29 30-32 297-32 266 0 273 0 273 20s-7 20-285 20c-157 0-285-4-285-8z"/>
  <path id="z" d="m526 393c50-88 36-83 260-86 223-2 202-10 188 73-9 59-15 60-256 60-219 0-219 0-192-47z"/>
  <path id="aa" d="m1288 433c-16-4-25-30-31-93-2-23 2-25 58-33 62-9 334 0 352 11 5 4 24 33 42 65 32 57 32 57-186 56-120-1-226-3-235-6z"/>
 </g>
 <g id="ab" fill="#324545">
  <path id="ac" d="m352 1412c-23-2-36-10-42-25-14-33-42-149-37-154 14-13 75-14 89 0 17 18 44 166 31 176-4 3-23 5-41 3z"/>
  <path id="ad" d="m594 1413c-132-4-132-4-138-34-3-17-3-35 0-40 6-10 387-13 397-3s-26 74-42 74c-9 0-32 2-51 3-19 2-94 2-166 0z"/>
  <path id="ae" d="m1851 1411c-11-7-11-21-2-77 18-108 16-104 72-104 27 0 49 3 49 8-1 19-40 156-47 163-14 13-57 20-72 10z"/>
  <path id="af" d="m1400 1383c-11-14-19-31-17-37 4-11 367-22 392-12 7 2 9 19 7 40-4 36-4 36-182 36-179 0-179 0-200-27z"/>
  <path id="ag" d="m914 1275c-20-49-18-65 10-65 18 0 25 7 30 28 3 15 8 37 12 50 5 18 2 22-15 22-16 0-26-10-37-35z"/>
  <path id="ah" d="m1278 1305c-2-3 0-27 6-55 9-45 13-50 37-50 27 0 27 1 17 38-6 20-14 45-19 55-9 16-30 23-41 12z"/>
  <path d="m1305 1180c-3-5 3-10 14-10 12 0 21 5 21 10 0 6-6 10-14 10s-18-4-21-10z"/>
  <path id="ai" d="m1027 1123c-4-3-7-46-7-95 0-65 3-87 12-82 6 4 17-1 24-10 9-14 29-17 91-18 78-1 78-1 74 88-5 124-4 124-105 124-45 0-86-3-89-7z"/>
  <path d="m201 948c-4-13-11-42-15-65-6-40-5-43 16-44h377c279 0 356 3 362 13 5 7 9 37 9 66 0 52 0 52-370 52s-370 0-379-22z"/>
  <path id="aj" d="m1297 963c-9-9-9-95 1-110 5-8 103-12 362-13 195-1 365-1 377-1 20 1 22 5 17 34-3 17-10 47-16 65-10 32-10 32-372 32-200 0-366-3-369-7z"/>
  <path id="ak" d="m1113 853c-103-4-103-4-103-53 0-50 0-50 110-49 110 2 110 2 110 55 0 30-3 53-7 52-5-1-54-4-110-5z"/>
  <path id="al" d="m169 762c-13-35-11-50 9-55 13-4 11-5-5-6-13 0-23-5-23-11s31-10 74-10c74 0 74 0 81 46 3 25 4 49 0 52-3 3-33 7-66 7-55 1-62-1-70-23z"/>
  <path id="am" d="m1934 748c4-18 7-43 6-55 0-22 4-23 75-23 41 0 75 2 75 5 0 2-5 27-11 55-11 50-11 50-81 50s-70 0-64-32z"/>
 </g>
 <g fill="#744f1d">
  <path id="an" d="m973 1581c-24-4-46-11-50-14-11-12-3-101 10-109 7-4 40-8 73-8 59 0 62 1 62 25 0 34 28 75 52 75 20 0 63-68 58-92-4-17 78-23 115-9 43 17 50 110 9 126-25 10-279 14-329 6z"/>
 </g>
 <g id="ao" fill="#678885">
  <path id="ap" d="m485 681c-113-5-130-8-133-23-3-17 11-18 190-18 106 0 237-3 291-7 99-6 99-6 95 23-3 29-3 29-158 30-85 0-213-2-285-5z"/>
  <path id="aq" d="m1310 675c-7-8-9-22-6-31 6-15 18-16 98-10 50 3 180 6 290 6 166 0 198 2 198 14 0 8-4 17-9 20s-133 8-284 11c-236 5-276 3-287-10z"/>
 </g>
 <g id="ar" fill="#6fa195">
  <path id="as" d="m459 1166c-2-2-48-6-101-9s-102-8-107-12c-22-13-10-33 22-38 66-11 565-8 572 3 4 6-1 22-9 35-16 25-16 25-195 25-98 0-180-2-182-4z"/>
  <path id="at" d="m1410 1150c-12-12-18-26-13-30 12-12 564-20 585-9 15 8 16 14 8 29-8 16-20 20-53 18-23-1-146 2-273 7-231 8-231 8-254-15z"/>
  <path d="m173 703c-18-3-23-11-23-35 0-30 0-30 65-26 35 2 66 6 69 8 2 3 7 17 11 33 7 27 7 27-46 26-30-1-64-4-76-6z"/>
  <path d="m995 680c-4-16-4-34 0-40s55-10 125-10c128 0 137 4 124 56-6 24-8 24-124 24-118 0-118 0-125-30z"/>
  <path id="au" d="m1940 686c0-23 22-33 88-39 62-7 62-7 62 23s0 30-75 30c-57 0-75-3-75-14z"/>
  <path id="av" d="m593 563c-189-3-223-6-223-18 0-8 9-24 20-35 19-19 33-20 279-20 143 0 266 3 275 6 16 6 21 30 10 58-5 13-20 16-73 14-36-2-166-4-288-5z"/>
  <path id="aw" d="m1e3 563c0-5 7-51 15-103s15-97 15-100 40-5 90-5c90-1 90-1 95 30 2 16 9 57 15 89 18 104 26 96-110 96-66 0-120-3-120-7z"/>
  <path id="ax" d="m1286 554c-13-35-6-51 25-58 17-3 141-6 275-6 233 0 245 1 265 21 11 11 19 28 17 37-3 15-30 17-290 20-254 2-286 1-292-14z"/>
  <path id="ay" d="m170 551c0-10 68-112 104-155 20-24 34-30 81-34 56-5 56-5 6 97-51 101-51 101-121 101-39 0-70-4-70-9z"/>
  <path id="az" d="m1880 460c-56-111-57-108 33-92 30 5 46 17 68 47 51 71 89 129 89 137 0 4-31 8-70 8-70 0-70 0-120-100z"/>
 </g>
 <g id="ba" fill="#c69b45">
  <path d="m916 1572c-3-5-2-20 2-33 7-24 7-24 56 8 48 33 48 33-2 33-28 0-53-4-56-8z"/>
  <path id="bb" d="m1268 1550c17-17 32-35 32-41 0-5 7-9 16-9 12 0 14 9 12 38-3 36-4 37-48 40-45 3-45 3-12-28z"/>
  <path id="bc" d="m1275 1480c-4-6 5-10 19-10s26 5 26 10c0 6-9 10-19 10-11 0-23-4-26-10z"/>
 </g>
 <g id="bd" fill="#a79095">
  <path id="be" d="m1856 73c-4-5-328-10-719-13-712-5-712-5-6-8 607-2 708 0 725 13 10 8 16 15 13 15s-9-3-13-7z"/>
 </g>
 <g id="bf" fill="#a5bab8">
  <path d="m170 552c0-5 34-62 75-128 41-65 85-136 97-157 74-126 80-132 127-135 72-5 76 1 36 59-19 28-35 56-35 62 0 9-43 87-75 134-1 3-43 11-60 12-6 1-28 23-49 50-61 81-116 129-116 103z"/>
  <path id="bg" d="m1994 498c-22-24-48-55-57-70-12-20-26-28-45-28-15 0-32-4-37-8-16-12-60-83-84-137-12-27-31-59-42-71-24-25-13-38 42-48 44-8 47-5 126 129 33 55 83 136 112 180 28 44 51 83 51 88 0 19-30 3-66-35z"/>
  <path id="bh" d="m1034 308c4-24 9-70 13-103 3-33 11-63 17-67 14-10 98-10 112 0 6 4 14 39 17 79 4 39 10 78 13 87 5 12 0 16-20 16-19 0-26-5-26-19 0-27-26-44-55-37-18 5-25 13-25 30 0 38-10 56-32 56-19 0-20-4-14-42z"/>
  <path id="bi" d="m606 171c-37-6-38-7-21-21 14-12 56-16 198-18 98-2 190-1 203 2 30 8 31 32 2 40-29 7-330 5-382-3z"/>
  <path id="bj" d="m1239 164c-10-13-10-17 2-25 21-13 373-11 404 3 63 29 12 38-215 38-149 0-180-2-191-16z"/>
 </g>
 <g id="bk" fill="#bbc8c4">
  <path id="bl" d="m1900 398c-49-28-53-33-41-56 8-14 17-19 32-15s20 3 15-5c-15-25 14-10 33 17 23 32 19 41-17 41-24 0-24 0-1 20 30 25 24 24-21-2z"/>
  <path id="bm" d="m294 402c-21-3-21-5 12-60 22-35 42-57 53-58 12-1 17 4 14 12-3 9 2 14 16 14 47 0 9 67-49 87-14 5-35 7-46 5z"/>
  <path id="bn" d="m1034 375c-4-9-3-28 1-43 3-15 9-42 12-60 4-23 12-34 28-38 37-9 97 0 105 16 4 8 12 25 18 37 18 34 15 90-4 97-9 3-47 6-85 6-53 0-71-4-75-15z"/>
  <path id="bo" d="m1234 159c-14-23 26-29 203-29 174 0 233 8 233 32 0 5-13 2-30-7-42-22-352-22-370 0-15 18-26 19-36 4z"/>
 </g>
 <g id="bp" fill="#a5dcf1">
  <path d="m1300 1171c-15-28-12-51 6-58 20-7 34 13 34 50 0 32-24 37-40 8z"/>
 </g>
 <g fill="#f7e4a1">
  <path id="bq" d="m920 1475c0-65 0-65 200-65s200 0 200 41c0 42 0 42-32 33-18-4-49-7-68-7-29 1-39-5-52-28-24-41-71-41-93 1-14 26-21 30-58 30-52 0-94 25-76 46 9 11 8 14-5 14s-16-12-16-65z"/>
 </g>
 <g id="br" fill="#ded4d7">
  <path d="m413 53c9-2 25-2 35 0 9 3 1 5-18 5s-27-2-17-5z"/>
 </g>
</svg>
