<svg id="a" class="img-fluid" width="1430" height="1007" cursor="move" version="1.1" viewBox="0 0 14300 10070" xmlns="http://www.w3.org/2000/svg">
 <g fill="#acffe3">
  <path id="b" d="m1656 8849c-39-31-36-78 10-129 41-45 79-52 130-25 16 8 37 15 47 15 12 0 17 8 17 29 0 23-13 42-52 80-44 42-59 51-89 51-22 0-47-8-63-21z"/>
  <path id="c" d="m12502 8827c-33-34-42-50-42-78 0-31 4-37 38-52 46-20 102-22 121-4 11 10 12 9 6-3-5-8-17-27-27-42-18-26-25-83-10-91 4-3 137-7 295-8 317-4 307-6 307 58 0 17-4 33-9 35s-27 26-49 54c-40 51-40 51-253 46-179-4-217-7-233-21-17-13-16-11 2 13 48 63 12 136-67 136-30 0-45-8-79-43z"/>
  <path id="d" d="m1182 8712c-15-20-37-46-49-59-27-28-30-75-7-97 14-14 52-16 307-14 292 3 292 3 295 34 2 22-8 47-39 93-23 34-47 64-53 66s-105 5-219 8c-209 4-209 4-235-31z"/>
  <path id="e" d="m1420 2120c-9-17-21-20-70-20-56 0-60-2-75-30-8-16-15-47-15-69 0-40 0-40 145-40s145 0 145 29c0 37-19 80-37 80-8 0-13 12-13 35 0 33-2 35-35 35-24 0-37-6-45-20z"/>
  <path id="f" d="m12800 2105c0-23-5-35-14-35-18 0-26-22-26-71 0-39 0-39 140-39s140 0 140 40c0 23-7 54-15 70-15 28-19 30-75 30-49 0-61 3-70 20-8 14-21 20-45 20-33 0-35-2-35-35z"/>
 </g>
 <g id="g" fill="#8b7b66">
  <path id="h" d="m1110 8560c0-6 13-19 30-28 16-9 30-23 30-29 0-7 7-13 16-13 12 0 14 9 12 38-3 36-4 37-45 40-27 2-43-1-43-8z"/>
  <path id="i" d="m2441 8200c-18-4-36-12-40-18-3-5-21-17-40-27-37-19-80-63-81-83 0-7-7-15-15-18-8-4-24-36-35-73-20-65-20-86-18-2631 3-2542 3-2565 23-2605 11-22 25-46 30-54 24-35 107-111 137-128 32-17 218-18 4748-18 4715 0 4715 0 4761 27 38 22 87 70 128 123 4 6 16 33 27 60 19 49 19 111 19 2620 0 2503 0 2571-19 2620-11 28-25 54-33 58-7 4-13 13-13 20-1 19-44 64-81 82-19 10-37 22-40 27s-24 14-45 18c-49 12-9365 11-9413 0z"/>
 </g>
 <g id="u" fill="#4d9d82">
  <path id="v" d="m1222 9290c-13-21-15-52-6-85 5-19 13-20 270-20 264 0 264 0 264 46 0 79 0 79-276 79-228 0-240-1-252-20z"/>
  <path id="w" d="m12567 9292c-18-19-21-50-11-89 6-23 6-23 265-23s259 0 259 49c0 87 18 81-255 81-222 0-243-2-258-18z"/>
 </g>
 <g fill="#987748">
  <path id="x" d="m13083 1843c-30-4-33-7-33-38s3-34 38-39c20-4 82-2 137 4 55 5 112 10 128 10 24 0 27 4 27 35 0 35 0 35-132 33-73 0-148-3-165-5z"/>
  <path id="y" d="m2904 1830c-66-4-129-10-140-13-10-3-38-11-62-17-42-11-43-12-40-48 3-37 3-37 78-34 41 2 92 7 112 13 20 5 243 14 495 19s461 10 466 10c4 0 7 15 7 34 0 32-2 34-46 40-61 8-714 5-870-4z"/>
  <path id="z" d="m10650 1807c0-18 5-38 12-45 9-9 82-12 263-13 137 0 315-5 395-10 369-25 350-25 350 12 0 34 0 34-82 53-111 25-294 35-645 36-293 0-293 0-293-33z"/>
 </g>
 <g id="j" fill="#83725f">
  <path d="m2386 8484c-38-7-72-17-75-22s-23-15-43-21c-21-7-38-17-38-22 0-4-13-15-29-23-31-17-91-73-91-86 0-4-11-18-25-31-26-25-85-138-85-164 0-8-4-15-9-15s-17-42-25-92c-15-85-17-322-14-2673 3-2580 3-2580 36-2673 49-141 59-158 151-257 63-68 150-115 256-140 93-22 9430-22 9515 0 71 18 170 62 170 74 0 5 8 12 19 16 20 6 91 71 91 84 0 4 11 17 25 29 25 22 85 140 85 167 0 8 4 15 9 15s16 39 25 88c14 78 16 339 16 2637s-2 2559-16 2638c-9 48-20 87-25 87s-9 7-9 15c0 26-59 139-85 164-14 13-25 27-25 31 0 13-60 69-91 86-16 8-29 19-29 23 0 5-17 15-37 22-21 6-41 16-44 21-3 4-40 15-83 23-68 13-656 15-4764 14-3933-1-4698-3-4756-15zm9438-314c21-4 42-13 45-18s21-17 40-27c37-18 80-63 81-82 0-7 6-16 13-20 8-4 22-30 33-58 19-49 19-116 19-2590 0-2479 0-2541-19-2590-11-27-23-54-27-60-41-53-90-101-128-123-46-27-46-27-4731-27-4501 0-4686 1-4718 18-30 17-113 93-137 128-5 8-19 32-30 54-20 40-20 63-23 2575-2 2515-2 2536 18 2601 11 37 27 69 35 73 8 3 15 11 15 18 1 20 44 64 81 83 19 10 37 22 40 27 4 6 22 14 40 18 48 11 9304 12 9353 0z"/>
 </g>
 <g fill="#7f6d5c">
  <path id="k" d="m2408 8612c-1-4-39-15-82-25-44-9-82-21-85-25-3-5-26-16-49-25-24-10-59-33-77-52s-37-35-42-35c-11 0-66-67-76-92-3-10-11-18-16-18-11 0-56-92-67-137-4-16-11-31-17-34-5-4-16-35-25-70-15-58-16-316-19-2684-4-2417-3-2627 13-2715 9-52 25-111 35-130 11-19 19-38 19-42 0-15 44-103 57-113 7-5 25-29 40-52 63-94 183-167 339-208 96-25 96-25 4794-25 4697 0 4697 0 4815 31 65 17 125 37 132 45 8 8 20 14 28 14 7 0 32 18 55 40s45 40 50 40c10 0 64 68 73 93 4 9 11 17 16 17 9 0 61 100 61 118 0 4 8 23 19 42 10 19 26 78 35 130 16 88 17 298 13 2715-3 2368-4 2626-19 2684-9 35-20 66-25 70-6 3-13 18-17 34-11 45-56 137-67 137-5 0-13 8-16 18-10 25-65 92-76 92-5 0-24 16-42 35s-53 42-77 52c-23 9-46 20-49 25-3 4-41 16-85 25-43 10-80 21-82 25-5 10-9479 10-9484 0zm9453-153c38-7 69-16 69-22 0-5 7-7 15-3 8 3 15 2 15-3 0-4 18-13 40-20 22-6 40-16 40-21s13-16 29-24c31-17 91-73 91-86 0-4 11-18 25-31 26-25 85-138 85-164 0-8 5-15 11-15s8-9 4-20c-3-11-2-20 3-20 30 0 32-154 32-2655 0-2509-2-2655-33-2655-5 0-7-9-4-20s1-20-4-20-9-7-9-15c0-27-60-145-85-167-14-12-25-25-25-29 0-13-71-78-91-84-11-4-19-11-19-16 0-12-99-56-170-74-85-22-9362-22-9455 0-106 25-193 72-256 140-92 99-102 116-151 257-33 93-33 93-36 2633-3 2543-2 2705 30 2705 5 0 6 9 3 20-4 11-2 20 4 20s11 7 11 15c0 26 59 139 85 164 14 13 25 27 25 31 0 13 60 69 91 86 16 8 29 19 29 24s18 15 40 21c22 7 40 16 40 20 0 5 7 6 15 3 8-4 15-2 15 4 0 5 26 14 58 20 87 15 9342 16 9433 1z"/>
 </g>
 <g id="l" fill="#408f74">
  <path id="m" d="m1207 9263c-4-3-7-36-7-72 0-66 0-66 267-62 187 2 270 7 275 15 14 21 9 94-7 100-10 3-15-1-15-12 0-16-19-17-232-17-198 0-234 2-239 15-4 8-2 21 3 28 8 9 4 12-14 12-14 0-28-3-31-7z"/>
  <path id="n" d="m12550 9208c0-35 4-68 8-74 5-9 83-13 262-14 140-1 261-2 268-1 10 1 12 20 10 74-3 69-4 72-29 75-23 3-25 0-21-27 4-31 4-31-226-31-218 0-230 1-235 19-2 11 0 24 6 30 8 8 3 11-16 11-26 0-27-1-27-62z"/>
  <path id="o" d="m1260 2125c0-34 0-34 93-37 72-2 95 0 105 12 11 13 12 12 7-7-6-20-3-23 24-23 17 0 31 5 31 10 0 6 9 10 20 10 16 0 20 7 20 35 0 35 0 35-150 35s-150 0-150-35z"/>
  <path id="p" d="m12740 2125c0-28 4-35 19-35 10 0 21-7 25-15 3-9 18-15 36-15 28 0 30 2 20 21-7 11-9 23-6 26s8 0 11-8c4-11 27-13 105-11 100 3 100 3 100 38 0 34 0 34-155 34s-155 0-155-35z"/>
 </g>
 <g id="q" fill="#796756">
  <path d="m2368 8722c-24-2-38-8-38-17 0-13-77-35-125-35-15 0-25-6-25-14s-15-20-34-26-37-17-40-25c-3-9-19-15-37-15-21 0-32-6-36-18-2-10-17-24-34-31-18-8-29-20-29-32 0-11-8-23-17-26-23-9-42-33-43-54 0-9-9-19-20-22-14-4-20-14-20-34 0-16-4-33-9-38-5-6-16-36-26-67-10-34-23-58-31-58-9 0-14-12-14-36 0-46-21-174-29-174-3 0-6-1181-6-2625s3-2625 6-2625c8 0 29-128 29-174 0-24 5-36 14-36 8 0 21-24 31-57 10-32 21-62 26-68 5-5 9-19 9-31 0-32 10-54 25-54 7 0 16-11 19-24 3-14 18-31 33-38s32-23 39-35c17-35 45-63 64-63 10 0 33-11 53-24 19-13 46-27 58-31 13-4 29-11 34-15 6-5 53-21 105-37 95-28 95-28 4840-28 4512 0 4748 1 4815 18 141 36 155 40 155 47 0 4 18 12 39 19 21 6 42 18 45 26 3 9 18 15 37 15 21 0 32 6 36 18 2 10 17 24 34 31 18 8 29 20 29 32s10 23 25 29c14 5 27 20 31 35 3 14 12 25 19 25 15 0 25 22 25 54 0 12 4 26 9 31 5 6 16 36 26 68 10 33 23 57 31 57 9 0 14 12 14 36 0 46 21 174 29 174 3 0 6 1181 6 2625s-3 2625-6 2625c-8 0-29 128-29 174 0 24-5 36-14 36-8 0-21 24-31 58-10 31-21 61-26 67-5 5-9 22-9 38 0 20-6 30-20 34-11 3-20 13-20 22-1 21-20 45-42 54-10 3-18 15-18 26 0 12-11 24-29 32-17 7-32 21-34 31-4 12-15 18-36 18-18 0-34 6-37 15-3 8-21 19-40 25s-34 18-34 26-10 14-25 14c-49 0-125 22-125 36 0 9-11 14-32 14-1124 2-9545 4-9570 2zm9494-140c2-4 39-15 82-25 44-9 82-21 85-25 3-5 26-16 49-25 24-10 59-33 77-52s37-35 42-35c11 0 66-67 76-92 3-10 11-18 16-18 12 0 59-100 68-141 3-16 10-29 15-29s7-4 4-9c-4-5-2-11 3-13 5-1 16-45 25-97 14-85 16-348 16-2650 0-2326-1-2564-16-2646-9-49-21-93-26-96s-9-8-8-10-3-17-9-32c-6-16-11-30-11-32 0-16-53-115-61-115-5 0-12-8-16-18-9-24-63-92-73-92-5 0-27-18-50-40s-48-40-55-40c-8 0-21-7-29-16-9-8-20-13-25-10-5 4-11 2-13-2-1-4-50-20-108-35-105-27-105-27-4771-27-4667 0-4667 0-4763 25-156 41-276 114-339 208-15 23-33 47-40 52-11 9-57 97-57 109 0 3-5 17-11 33-6 15-10 30-9 32s-3 7-8 10-17 47-26 96c-15 82-16 320-16 2646 0 2302 2 2565 16 2650 9 52 20 96 25 97 5 2 7 8 3 13-3 5-1 9 4 9s12 13 15 29c9 41 56 141 68 141 5 0 13 8 16 18 10 25 65 92 76 92 5 0 24 16 42 35s53 42 77 52c23 9 46 20 49 25 3 4 41 16 85 25 43 10 81 21 82 25 5 10 9419 10 9424 0z"/>
 </g>
 <g id="r" fill="#82653d">
  <path id="s" d="m2340 1884c-63-7-148-13-187-13-73-1-73-1-73-41s0-40 93-40c102 0 278 15 375 31 62 11 62 11 62 45s0 34-77 33c-43-1-130-7-193-15z"/>
  <path id="t" d="m11932 1843c4-48 14-50 201-52 137-1 137-1 137 34 0 30-3 35-24 35-14 0-28 5-31 10-4 6-64 10-146 10-140 0-140 0-137-37z"/>
  <path d="m13055 1849c-60-11-147-22-192-25-83-7-83-7-83-40 0-18 4-35 10-39 5-3 39-8 74-12 75-7 273 23 294 44 9 9 45 13 118 13 104 0 104 0 104 40s0 40-107 39c-60-1-157-10-218-20zm240-39c-68-9-158-14-195-10-55 6 47 17 150 17 95 0 99 0 45-7z"/>
  <path id="al" d="m1200 1817c0-70 75-92 278-81 132 7 132 7 132 39 0 40-14 45-120 45-41 0-110 7-153 15s-92 15-108 15c-26 0-29-3-29-33z"/>
 </g>
 <g id="am" fill="#358469">
  <path id="an" d="m1716 9186c-6-23-6-23-228-21-123 1-231-2-241-7-13-7-17-4-17 12 0 13-5 20-12 18-17-6-24-258-8-258 5 0 10-6 10-13 0-9 56-11 258-9 141 2 258 5 260 7s6 69 9 149c5 128 4 146-9 146-9 0-18-11-22-24z"/>
  <path id="ao" d="m12554 9123c3-42 6-98 6-125 0-48 0-48 35-48 19 0 35 4 35 9 0 6 78 9 190 8 104-1 190-5 190-9 0-14 61-8 76 6 21 22 20 216-1 216-8 0-15-6-15-14s-4-16-10-18c-5-1-113-2-240 0-230 3-230 3-236 27-3 14-13 25-22 25-13 0-14-12-8-77z"/>
  <path id="ap" d="m1228 2148c-37-56-58-110-58-148 0-45 1-45 84-34 39 6 46 10 41 25-3 10 1 32 10 49 15 28 19 30 75 30 50 0 61 3 70 21 7 11 14 18 17 15s-6-23-20-45c-25-37-25-39-7-44 11-3 24 1 31 9 16 20 24 18 37-11 10-22 9-25-9-25-12 0-19-5-17-12 3-9 32-14 86-16 82-3 82-3 82 36 0 28-11 56-42 105-43 67-43 67-204 67-157 0-162-1-176-22zm285-25c-13-2-23-9-23-15 0-7-4-7-13 0-7 6-53 13-103 15-70 2-62 3 36 4 69 0 115-2 103-4z"/>
  <path id="aq" d="m12703 2120c-26-39-33-60-33-100 0-50 0-50 60-50 56 0 60 2 60 23 0 12 4 29 10 37 8 12 11 12 28-3 19-17 62-24 62-9 0 4-8 15-17 23-10 9-30 30-44 46-14 17-34 33-45 36-10 2 40 4 111 4 120-1 122-1 28-4-62-2-103-8-103-14s4-8 9-4c6 3 15-4 21-15 9-17 21-20 70-20 56 0 60-2 75-30 19-37 19-50 0-50-8 0-15-7-15-15 0-12 15-15 75-15 75 0 75 0 75 43 0 29-11 61-34 102-33 60-33 60-197 62-164 3-164 3-196-47z"/>
 </g>
 <g id="ar" fill="#715e4f">
  <path id="as" d="m1978 8803c-36-4-38-6-38-39 0-20 5-34 12-34s-3-12-21-27c-18-16-45-41-60-58-14-16-39-43-55-59-15-16-37-48-48-70-45-93-48-97-90-110-17-5-18-149-18-2846 0-2447 2-2840 14-2840 15 0 21-19 31-107 4-29 11-53 16-53s9-9 9-20c0-35 61-201 81-221 10-10 19-23 19-29 0-28 96-134 179-198 37-28 145-82 165-82 8 0 17-4 20-9s36-14 73-21c38-7 71-18 75-24 10-16 9606-16 9616 0 4 6 40 17 80 24 39 6 72 15 72 18 0 4 27 16 60 26 33 11 60 22 60 25 0 4 16 15 35 25 19 11 35 23 35 28 0 4 5 8 11 8 24 0 159 153 159 180 0 6 9 19 19 29 20 20 81 186 81 220 0 11 4 21 9 23s14 39 20 83c6 43 15 82 20 85 6 3 10 1159 12 2840 2 2835 2 2835-19 2838-20 3-62 49-62 69 0 17-39 80-67 109-15 16-40 43-54 59-15 17-42 42-60 58-18 15-28 27-21 27s12 14 12 34c0 33-1 33-52 40-56 6-10267 5-10330-1zm9879-111c-9-2-17-8-17-14s11-8 25-4c14 3 36 9 50 12 15 4 25 2 25-5 0-6-8-11-17-12-10 0 13-7 52-15 38-7 71-18 73-24s11-6 24 1c18 9 20 9 15-4-4-11 2-17 24-22 16-4 38-16 48-26 10-11 31-21 47-23 21-2 29-9 29-22 0-10 7-19 15-20 28-2 52-16 40-24-8-5-4-15 14-33 14-14 26-21 26-14 1 20 24-26 25-48 0-13 7-20 20-20 14 0 19-6 17-18-2-10 3-28 11-40 8-13 23-50 33-84 12-42 22-59 31-56 11 4 11 0 3-21-5-14-6-26-1-26 9 0 30-116 32-172 1-28 2-29 7-10 4 13 7-1145 7-2573s-3-2586-7-2573c-5 19-6 17-7-11-2-56-23-165-33-172-6-4-5-15 2-29 10-19 10-22-2-18-10 4-19-11-32-55-10-34-25-71-33-84-8-12-13-27-12-35 4-33 0-41-16-28-8 7-16 9-16 4-1-5-3-19-4-32-2-23-11-37-23-37-4 0-18-8-32-18-19-13-22-19-12-26 11-6 10-10-5-16-10-5-25-9-33-9-8-1-15-10-15-20 0-13-8-20-29-22-16-2-37-12-47-23-10-10-32-22-49-26-16-4-30-10-30-14 0-8-13-12-155-48-67-17-302-18-4785-18-4715 0-4715 0-4810 28-52 16-99 32-105 37-5 4-21 11-33 15-13 4-44 20-68 37-24 16-48 27-52 24-5-3-20 6-32 19-13 14-20 25-15 25s-4 13-20 30c-15 16-32 27-36 24-10-6-21 13-24 40-1 11-3 25-4 30 0 5-8 3-16-4-16-13-20-5-16 28 1 8-4 23-12 35-8 13-23 50-33 84-13 44-22 59-32 55-12-4-12-1-2 18 7 14 8 25 2 29-10 7-31 116-33 172-1 28-2 30-7 11-4-13-7 1145-7 2573s3 2586 7 2573c5-19 6-18 7 10 2 56 23 172 32 172 5 0 4 12-1 26-8 21-8 25 3 21 9-3 19 14 31 56 10 34 25 71 33 84 8 12 13 30 11 40-2 12 3 18 17 18 13 0 20 7 20 20 1 22 24 68 25 48 0-7 12 0 26 14 18 18 22 28 14 33-12 8 12 22 40 24 8 1 15 10 15 20 0 13 8 20 29 22 16 2 37 12 47 23 10 10 32 22 48 26 22 5 28 11 24 22-5 13-3 13 15 4 13-7 22-7 24-1s35 17 73 24c39 8 62 15 53 15-10 1-18 6-18 12 0 7 10 9 25 5 14-3 36-9 50-12 14-4 25-2 25 4s-8 12-17 14 2109 3 4707 3 4716-1 4707-3z"/>
 </g>
 <g id="at" fill="#6d594c">
  <path d="m1859 8808c0-2-6-23-12-48-11-41-15-45-44-48-30-3-33-6-33-38 0-30-3-34-25-34-15 0-25-6-25-15 0-26-23-65-42-70-16-6-18-18-18-111 0-58 4-104 9-104 6 0 12-17 14-37 3-32 4-29 5 14 2 64 22 82 23 21 1-24 3-35 6-25 2 9 9 17 15 17 5 0 8 7 4 15-3 8-1 15 5 15s9 6 6 13 4 24 14 38c10 13 19 29 19 34 0 19 38 81 67 111 15 16 40 43 54 59 36 40 91 85 104 85 6 0 18 9 28 20 9 11 24 20 32 20s15 5 15 10c0 6-26 11-57 11-58 2-58 2 17 14s75 12 18 14c-32 0-58 6-58 11 0 8-138 16-141 8z"/>
  <path d="m12300 8800c0-5-26-11-57-11-58-2-58-2 17-14s75-12 18-14c-32 0-58-5-58-11 0-5 7-10 15-10s23-9 32-20c10-11 22-20 28-20 13 0 68-45 104-85 14-16 39-43 54-59 29-30 67-92 67-111 0-5 9-21 19-34 10-14 17-31 14-38s0-13 6-13 8-7 5-15c-4-8-1-15 4-15 6 0 13-8 15-17 3-10 5 1 6 25 1 61 21 43 23-21 1-43 2-46 5-14 2 20 8 37 14 37 5 0 9 46 9 104 0 93-2 105-18 111-19 5-42 44-42 70 0 9-10 15-24 15-21 0-25 5-28 37-3 33-7 39-33 43-29 5-34 13-51 78-4 15-144 17-144 2z"/>
  <path d="m12606 7948c-3-13-6-1186-7-2608s-5-2567-9-2545c-7 38-7 38-9-17 0-32-6-58-11-58-6 0-8-15-4-40 4-24 3-40-3-40s-8-11-5-25c2-15 0-25-7-25-6 0-11-9-11-20 0-35-61-201-81-221-10-10-19-23-19-29 0-27-135-180-159-180-6 0-11-4-11-8 0-5-16-17-35-28-19-10-35-21-35-25 0-3-27-14-60-25-33-10-60-22-60-26 0-3-34-12-75-19-41-6-75-16-75-21 0-6-23-7-55-3-38 5-55 4-55-4s-1242-11-4670-11-4670 3-4670 11-17 9-55 4c-31-4-55-3-55 3 0 5-31 14-70 21-38 7-72 17-76 22-3 5-12 9-20 9-20 0-128 54-165 82-83 64-179 170-179 198 0 6-9 19-19 29-20 20-81 186-81 221 0 11-5 20-11 20-7 0-9 10-7 25 3 14 1 25-5 25s-7 16-3 40c4 25 2 40-4 40-5 0-11 26-12 58-1 39-2 46-5 22-8-62-23-58-25 5-1 40-3 48-5 25-3-19-9-39-14-45-10-10-12-318-2-442 6-83 6-83 34-83 22 0 32-7 45-36 10-21 44-63 76-96 32-32 58-64 58-71s16-21 35-31c19-11 35-22 35-26 0-5 18-15 40-24 34-13 40-20 40-44 0-29 0-29 128-35 70-4 2421-7 5225-7 5097 0 5097 0 5097 34 0 33 0 33-92 41-69 5-87 10-70 16 12 5 32 18 44 29s30 22 40 26c10 3 18 12 18 19 0 8 26 41 58 73 32 33 66 75 76 96 13 29 23 36 45 36 28 0 28 0 34 287 4 157 7 1442 7 2855 0 2180-2 2568-14 2568-7 0-16-10-20-22z"/>
 </g>
 <g id="au" fill="#317c63">
  <path id="av" d="m12551 9013c0-82 3-155 7-163s16-16 27-18c53-7 496-9 500-3 2 5 7 52 11 105 6 85 5 96-10 96-9 0-16-5-16-11s-7-17-15-25c-8-9-15-11-15-5 0 15-432 14-442-2-4-7-8 20-8 58 0 84-7 115-26 115-11 0-14-28-13-147z"/>
  <path id="aw" d="m1716 9038c-3-13-6-39-6-58 0-36 0-36-212-35-117 1-221-2-230-7-13-6-18-5-18 7 0 8-4 15-10 15-5 0-10 7-10 15s-7 15-16 15c-15 0-16-10-11-85 3-47 9-89 12-94s104-7 230-5c187 3 229 6 250 20 20 13 28 14 40 4 13-11 15 2 15 109 0 96-3 121-14 121-7 0-16-10-20-22z"/>
  <path id="ax" d="m1410 2023c-28-27-43-33-79-33-38 0-43 2-38 19 2 10 1 25-4 32-5 9-9 5-14-13-5-21-14-27-41-30-30-4-35-1-31 14 3 11 0 18-9 18s-14-11-14-34c0-33 1-33 52-40 29-3 87-6 128-6 63 0 78 3 93 20 9 11 12 20 6 20-7 0-5 10 5 25 20 30 20 32-1 37-11 2-33-10-53-29z"/>
  <path id="ay" d="m12656 2044c-3-9-6-30-6-48 0-33 0-33 68-39 37-4 91-7 120-7 52 0 52 0 52 35 0 31-3 35-26 35-19 0-25-4-20-15 4-11-2-15-25-15-26 0-30 3-26 19 2 10 1 25-4 32-5 9-11 6-20-14s-19-27-42-27c-27 0-29 2-25 30 4 26 1 30-18 30-12 0-25-7-28-16z"/>
 </g>
 <g id="az" fill="#665146">
  <path d="m1795 8723c-48-7-75-39-75-89 0-49 8-76 21-68 5 3 9 15 9 27 0 16 3 18 9 8 7-10 19-3 52 30 24 23 39 39 32 36-6-4-19-4-30 0-14 6-11 9 16 13 23 3 36 12 42 28 9 24 0 26-76 15z"/>
  <path id="ba" d="m12452 8705c-11-13-9-15 12-15 14 0 27-4 30-9 8-12-22-23-37-14-7 3 8-13 32-36 33-33 45-40 52-30 6 10 9 8 9-8 0-12 4-24 9-27 13-8 21 19 21 68 0 32-6 48-23 64-27 26-85 29-105 7z"/>
  <path id="bb" d="m12606 2678c-3-13-7-106-8-208s-3-164-5-137c-2 26-9 47-15 47-5 0-7-7-4-16 4-12 2-15-9-10-8 3-15 1-15-4 0-6 5-10 10-10 6 0 10-4 10-10 0-5-8-6-17-3-12 5-15 2-10-10 3-9 2-17-4-17s-7-4-4-10c3-5 1-10-5-10-7 0-9-7-6-15 3-9-1-18-9-21-8-4-12-10-9-16 3-5-6-20-20-33s-26-21-26-18-16-15-35-40-35-51-35-56c0-10-8-13-27-10-3 0-10-6-15-15s-13-14-19-11c-5 4-9-2-9-12 0-15-2-16-10-3s-10 12-10-4c0-12-5-16-15-12-8 3-15 1-15-5s-4-7-10-4c-5 3-10 1-10-5s-4-8-10-5c-5 3-10-2-10-12 0-15-2-16-10-3-8 12-10 12-16-3-4-10-12-16-19-13-8 3-16-2-19-10-4-11 10-14 82-15 48-1 114-5 147-9 47-5 25-8-105-10-165-3-165-3-35-12 72-5 159-10 195-11 64-2 64-2 71 43 10 66 32 113 78 163 41 44 41 44 41 321 0 228-2 276-14 276-7 0-16-10-20-22z"/>
  <path id="bc" d="m1660 2289c0-142 0-142 41-186 46-50 68-97 78-163 6-45 6-45 244-48 198-2 237 0 237 12 0 19-30 25-125 28-62 1-68 3-27 5 28 2 52 8 52 13s-7 7-15 4c-8-4-15-1-15 5s-6 8-14 5c-7-3-16 3-20 13-6 15-8 15-16 3-8-13-10-12-10 3 0 10-4 15-10 12-5-3-10-1-10 5s-4 8-10 5c-11-7-42 8-41 18 3 19 0 21-9 7-8-13-10-12-10 3 0 10-4 16-9 12-6-3-13 1-18 9-8 14-12 16-33 16-5 0-10 5-10 11 0 5-16 31-35 56s-35 43-35 40-12 5-26 18-23 28-20 33c3 6-1 12-9 16-8 3-12 12-9 21 3 8 1 15-6 15-6 0-8 5-5 10 3 6 2 10-4 10s-7 8-4 17c5 12 2 15-10 10-9-3-17-2-17 3 0 6 5 10 10 10 6 0 10 4 10 10 0 5-7 7-15 4-11-5-13-2-9 10 3 9 1 16-5 16s-12-20-13-47c-1-46-1-47-5-8-6 78-14 105-28 105-12 0-15-24-15-141z"/>
 </g>
 <g id="bd" fill="#73552e">
  <path id="be" d="m3267 9343c-12-11-7-70 6-82 23-18 136-43 186-40 25 2 92-1 148-5s129-5 162-1c61 7 61 7 61 40 0 42 0 42-176 55-153 11-202 18-210 31-6 10-167 12-177 2z"/>
  <path id="bf" d="m10898 9336c-25-8-100-16-165-20s-146-9-181-13c-63-5-63-5-60-41 5-58 12-58 378-33 58 4 119 14 135 22 26 12 30 20 30 54 0 40 0 40-45 42-25 1-66-4-92-11z"/>
  <path id="bg" d="m1958 9307c-24-9-28-17-28-50 0-40 0-40 72-33 40 4 76 10 81 15s7 24 5 42c-3 33-4 34-53 36-27 1-62-4-77-10z"/>
  <path id="bh" d="m2770 9109c-80-9-133-22-355-86-84-25-102-27-265-24-96 1-203-1-237-4-63-7-63-7-63-50 0-24 5-47 10-50 6-4 140-6 298-6 267 0 290 1 328 20 22 11 63 25 90 32 27 6 56 15 64 20 9 4 66 19 129 33 104 23 124 25 279 19 165-6 167-6 202-35 34-28 36-28 170-28 174 0 180 2 180 50 0 46-10 50-133 50-71 0-96 4-130 22-23 12-69 26-102 30-95 13-372 17-465 7z"/>
  <path id="bi" d="m11145 9109c-22-4-58-8-79-8-22-1-64-13-95-27-46-22-68-26-129-25-40 1-88-1-107-5-31-6-35-10-35-38 0-47 30-56 182-56 131 0 178 11 191 43 4 11 44 15 176 20 144 5 187 2 264-13 98-20 253-67 302-92 32-17 213-24 493-20 142 2 142 2 142 51s0 49-56 56c-31 4-129 4-218 0-178-7-127-16-491 82-136 36-435 54-540 32z"/>
  <path d="m1566 8028c2-315 8-553 15-597 13-87 3-243-17-283-16-31-19-118-4-118 7 0 10-800 10-2380 0-2342 0-2379 19-2390 11-5 33-10 50-10 31 0 31 0 31 3150s0 3150-53 3150c-54 0-54 0-51-522z"/>
  <path id="bj" d="m12630 5390c0-3160 0-3160 35-3160 23 0 35 5 35 14 0 8 7 16 15 20 13 5 15 279 15 2386 0 1580 3 2380 10 2380 15 0 12 91-4 122-24 45-29 200-12 315 13 83 16 198 16 593 0 490 0 490-55 490s-55 0-55-3160z"/>
  <path d="m1252 8378c3-103 3-103 40-106 35-3 36-2 43 38 4 23 4 71 0 106-7 64-7 64-46 64-40 0-40 0-37-102z"/>
  <path id="bk" d="m12964 8434c-4-15-3-52 2-83 9-56 9-56 47-59 37-3 37-3 37 82 0 86 0 86-40 86-34 0-40-3-46-26z"/>
  <path d="m1276 4151c-11-17-25-157-30-308-6-153-6-153 27-153 17 1 42 9 55 19 22 19 22 23 22 235 0 216 0 216-34 216-19 0-37-4-40-9z"/>
  <path id="bl" d="m12950 3950c0-201 1-211 22-235 15-18 32-25 56-25 34 0 34 0 28 53-3 28-10 126-15 217s-12 173-16 183c-5 11-18 17-41 17-34 0-34 0-34-210z"/>
  <path d="m1457 3128c-4-40-23-136-42-213-29-118-37-171-47-336-6-107-9-203-5-213 5-13 16-16 44-14 38 3 38 3 46 138 8 126 27 242 62 369 9 32 16 110 17 195 3 141 3 141-33 144s-36 3-42-70z"/>
  <path id="bm" d="m12773 3094c-13-34 7-213 36-325 24-93 32-154 41-299 6-101 13-187 16-191 3-5 21-9 40-9 34 0 34 0 34 108 0 209-18 382-55 529-19 76-35 152-35 170 0 31-2 33-35 33-23 0-38-6-42-16z"/>
  <path id="bn" d="m1060 1868c0-17 7-40 17-50 15-17 13-18-70-18-87 0-87 0-87-61 0-62 0-62 77-55 42 3 123 6 180 6 103 0 103 0 103 34 0 31-3 35-37 44-36 9-36 10-9 11 29 1 29 1 10 22-18 20-18 20 6 15 98-21 141-26 213-27 113-1 147-17 42-20-44-1-65-4-47-6 29-4 32-7 32-39 0-34 0-34 533-33 586 1 689 5 709 31 7 9 22 19 33 21 11 3 1 5-22 4-90-3-47 21 81 44 73 13 871 23 926 11 42-9 38-10-50-13-52-1-79-4-60-6 79-8 206-35 225-47 39-25 203-39 403-34 105 2 192 1 192-4 0-14 5678-4 5825 10 66 6 145 18 175 27 30 8 101 18 158 22 56 3 102 8 102 10 0 3-10 13-22 24-23 18-19 18 237 18 321 0 536-13 635-39 75-20 75-20-10-17-85 4-85 4-20-12 36-8 68-19 71-23 15-22 164-28 677-28 552 0 552 0 552 24 0 14 7 32 16 40 14 15 13 16-10 16-14 0-27 4-30 9s29 11 72 14c42 3 135 15 206 26 157 26 256 28 256 6 0-8 7-15 15-15 10 0 15 11 15 35 0 35 0 35-615 35-517 0-615-2-615-14 0-13 13-20 70-36 15-5-20-9-90-11-184-6-350 0-420 16-212 48 98 45-4558 45-4350 0-4350 0-4468-26-66-15-153-28-194-29s-54 0-27 2c26 2 47 9 47 14 0 6-12 8-27 5-102-21-373-33-373-16 0 6 28 10 65 10 61 0 232 15 303 26 19 3 32 11 32 19 0 13-97 15-725 15-725 0-725 0-725-32zm1318-55c-10-2-26-2-35 0-10 3-2 5 17 5s27-2 18-5z"/>
 </g>
 <g id="bo" fill="#2a6c56">
  <path id="bp" d="m13066 8938c-3-18-7-43-8-56-3-23-3-23-153-23-340 0-313-3-320 31-11 52-35 37-35-21 0-44 2-50 14-40 16 13 43 4 64-22 9-10 8-18-2-32-11-15-9-23 12-56 23-35 27-37 41-25 13 12 56 15 198 17 99 1 186-2 193-6 21-13 25 6 28 136 3 111 1 129-12 129-9 0-17-12-20-32z"/>
  <path id="bq" d="m1202 8821c3-111 7-129 28-116 7 4 94 7 193 6 147-2 185-5 199-17 15-14 18-13 33 15 8 17 22 31 31 31 13 0 12 5-5 26s-19 30-9 41c21 26 48 35 64 22 12-9 14-6 14 20 0 33-26 45-32 14-4-20-7-21-262-24-120-1-211 2-212 7s-5 26-9 47c-4 24-11 37-21 37-14 0-15-16-12-109z"/>
 </g>
 <g id="br" fill="#6b512e">
  <path d="m12270 9288c0-20 6-40 13-45 16-13 98-33 136-33 30 0 31 1 31 50 0 50 0 50-37 50-21 0-62 3-90 6-53 7-53 7-53-28z"/>
  <path id="bs" d="m1868 9303c-13-3-18-15-18-44 0-39 0-39 70-39 40 0 70 4 70 10s7 10 15 10 15 5 15 11c0 7-11 8-30 4-16-4-30-3-30 2s14 14 30 20c52 19 35 33-37 32-38-1-76-3-85-6z"/>
  <path id="bt" d="m11885 8930c-3-5-12-7-20-3-10 3-15-2-15-16 0-20 4-22 57-19 34 2 58 8 61 16 2 7-5 12-18 12-12 0-18 5-15 10 3 6-5 10-19 10s-27-4-31-10z"/>
  <path id="bu" d="m12970 8323c0-69 9-83 47-83 34 0 34 0 31 57s-23 84-31 41c-4-23-4-23-12 0-12 37-35 27-35-15z"/>
  <path id="bv" d="m1226 3713c-3-21-6-59-6-85 0-48 0-48 34-48 19 0 38 5 41 10 4 6 9 45 12 88 6 77 6 77-16 58-19-17-21-17-21-3 0 10-8 17-19 17-14 0-20-10-25-37z"/>
  <path id="bw" d="m12990 3710c0-24 7-82 15-129 9-47 18-101 21-118 5-31 8-33 44-33 40 0 40 0 40 63 0 59-21 172-42 230-11 29-38 37-38 10 0-14-2-14-20 2-20 18-20 17-20-25z"/>
  <path id="bx" d="m1477 2453c-4-38-7-94-7-125 0-58 0-58 39-58 88.501 0 79.532 9 79.532 132 0 108-32.532 118-73.532 118-32 0-32 0-38-67z"/>
  <path id="by" d="m1355 2355c-10-86-4-97 42-93 38 3 38 3 41 67 4 76-5 109-19 73-9-24-29-22-29 4 0 8-6 14-14 14-10 0-16-19-21-65z"/>
  <path id="bz" d="m1580 2259c0-79 11-99 56-99 35 0 35 0 32 77-2 47-7 78-15 80-6 2-13-6-15-19-3-23-3-23-25 0-13 12-22.777 58.313-25.777 58.313s-7.2233-63.313-7.2233-97.313z"/>
  <path id="ca" d="m12636 2298c-3-13-6-49-6-80 0-58 0-58 35-58 24 0 37 6 45 19 10 20 15 141 5 141-8 0-42-36-48-51-3-8-6 1-6 19-1 37-16 43-25 10z"/>
  <path id="cb" d="m2055 1813c-45-7-55-23-14-23 51 0 109 11 109 21 0 9-39 10-95 2z"/>
  <path id="cc" d="m12090 1808c0-11 22-15 92-17 51-1 96-5 100-7 4-3 8 1 8 9 0 18-26 23-124 26-59 2-76-1-76-11z"/>
  <path id="cd" d="m13096 1780c-72-13-76-16-76-55 0-35 0-35 83-35 45 0 126-3 180-7 97-6 97-6 97 50 0 57 0 57-117 56-65-1-140-5-167-9z"/>
 </g>
 <g id="ce" fill="#634926">
  <path id="cf" d="m10813 9333c-25-3-33-9-33-24 0-16 7-19 46-19 62 0 134 19 134 36 0 14-66 17-147 7z"/>
  <path id="cg" d="m2307 9309c-26-14-338-59-404-59-53 0-53 0-53-160 0-136 2-160 15-160 8 0 15 7 15 15 0 19 9 19 270 20 191 1 211 3 295 27 219 65 271 77 372 87 135 14 245 14 314 0 30-5 70-10 89-11 19 0 57-11 84-25 42-22 63-25 131-24 88 1 135-6 135-20 0-5-6-9-14-9s-16-6-19-14-28-16-64-20c-32-3-78-9-103-12-40-5-50-2-90 28-45 33-45 33-308 36-244 4-268 3-320-16-247-87-338-104-579-110-213-4-213-4-213-43s0-39 5296-39c5295 0 5295 0 5292 42s-3 42-218 43c-227 1-249 4-440 62-47 14-111 34-142 45-52 19-76 20-320 16-263-3-263-3-308-37-40-29-51-32-93-28-26 2-55 11-65 21-10 9-32 16-49 16s-43 6-58 14c-27 14-27 14 16 20 24 3 73 4 109 3 51-2 74 3 108 21 24 12 60 24 80 26 21 2 73 9 117 16 109 17 345 0 470-33 365-98 311-90 503-83 191 6 262 1 262-20 0-8 7-14 15-14 13 0 15 24 15 160 0 161 0 161-22 158-33-4-127 12-134 23-3 5-45 9-94 9s-118 7-154 15c-54 13-135 15-454 13-381-3-388-3-442-27-103-44-141-49-370-54-185-4-220-2-216 9 3 9-2 14-14 14-10 0-22 4-25 10-4 6 6 10 22 10 42 0 73 11 73 25 0 10-702 12-3475 13-2802 0-3475-3-3475-13 0-14 31-25 75-25 17 0 37-5 45-10 11-7 6-10-20-10-32-1-34-2-16-15 16-12-12-13-205-9-252 5-284 8-354 36-27 11-66 26-85 34-27 10-123 14-413 16-208 2-384 0-390-3z"/>
  <path id="ch" d="m3180 9036c0-2 18-6 39-8 22-2 37 0 35 4-5 8-74 11-74 4z"/>
  <path id="ci" d="m11046 9032c-2-4 13-6 35-4 21 2 39 6 39 8 0 7-69 4-74-4z"/>
  <path id="cj" d="m1224 8285c-1-264-1-264 27-267s28-3 6-58-22-55-24-2162c-3-1791-1-2108 11-2108 21 0 36 77 36 187 0 111 16 233 31 248 7 7 10-48 8-180-2-170-5-191-21-203-20-15-24-48-7-54 8-3 9-13 4-28-8-24-8-24-16-5-7 17-8 17-8-7-1-15-6-30-12-34-8-5-10 4-7 30 3 32 1 36-18 36s-23-8-33-63c-6-35-11-94-11-130 0-67 0-67 45-67 25 0 45-5 45-10 0-6-11-33-25-60-25-49-25-49-25-571 0-521 0-521 60-517 33 1 61 0 63-4 1-5 58-5 127-2 125 7 125 7 122 2402-2 1879-5 2398-14 2404-10 5-9 14 2 40 23 50 17 268-9 356-36 118-41 198-41 650 0 442 0 442-157 442-158 0-158 0-159-265zm79 120c7-50-1-107-14-99-10 6-8 144 2 144 3 0 9-20 12-45zm-16-4947c-2-13-4-3-4 22s2 35 4 23c2-13 2-33 0-45zm217-412c-3-61-13-133-20-161-35-126-53-243-64-404-6-96-13-178-16-183-13-21-22 7-19 60 1 31 0 38-2 14-3-30-9-42-20-42-14 0-15 14-10 118 8 155 31 281 73 405 41 118 63 214 64 275 0 28 4 41 11 37 7-5 8-42 3-119zm24-661c-3-68-11-96-23-84-6 7-6 76 1 138 9 82 27 38 22-54z"/>
  <path id="ck" d="m1393 2545c0-22 2-30 4-17 2 12 2 30 0 40-3 9-5-1-4-23z"/>
  <path id="cl" d="m12758 8058c-4-476-5-496-27-567-41-137-54-315-27-366 18-34 21-62 6-67-6-2-11-828-12-2401-3-2397-3-2397 57-2397 33 0 90-3 128-7 67-6 67-6 67 34 0 26-5 43-14 46-9 4-16 24-19 54-3 39-4 35-5-22-4-128-21-55-32 134-9 145-17 208-41 300-32 126-48 264-32 274 6 4 13-18 17-55 3-33 11-67 17-74s7-19 3-25c-5-8-3-9 6-4 10 6 12 3 8-13-4-12-2-20 2-17 12 7 46-104 64-209 8-46 20-156 27-245 13-161 13-161 66-161s53 0 53 508c0 507 0 507-25 559-30 67-45 145-45 245 0 59 3 78 14 78 8 0 12 9 10 27-3 31-24 73-36 73-4 0-8 84-8 188 1 143 3 182 12 168 6-11 13-83 15-165 4-139 12-202 35-263 6-15 14-25 18-23 5 3 9 948 10 2099 1 2095 1 2095-25 2168-15 42-29 106-32 151-6 77-6 77 26 77 31 0 31 0 31 134 0 73 3 161 6 195 7 61 7 61-154 61s-161 0-164-492zm261 290c0-89-16-82-19 8-3 65-2 74 10 74 6 0 10-34 9-82z"/>
  <path id="cm" d="m12653 7200c0-25 2-35 4-22 2 12 2 32 0 45-2 12-4 2-4-23z"/>
  <path id="cn" d="m12903 2565c0-33 2-45 4-27s2 45 0 60-4 0-4-33z"/>
 </g>
 <g id="co" fill="#5c4627">
  <path id="cp" d="m2695 1889c-51-16-226-47-305-54-108-9-140-15-140-25 0-6 7-10 15-10s23-5 33-11c27-17 284 5 417 35 110 25 110 25 4433 26 4627 0 4319 3 4532-45 99-22 307-29 401-14 43 7 79 16 79 19 0 4-41 10-91 12-50 3-96 11-102 17-8 8 171 11 686 11 613 0 697-2 697-15 0-8 7-15 15-15 11 0 15 11 15 40 0 40 0 40-750 40s-750 0-750-25c0-23-4-25-42-25-46 0-181 22-238 40-46 13-8861 13-8905-1z"/>
  <path id="cq" d="m1140 1811c0-6-9-11-20-11s-20-6-20-13c0-14 35-31 105-49 49-13 47-13-100-18-82-3-151-2-153 2-2 5-10 8-18 8-12 0-14-13-12-62 3-63 3-63 6230-66 6228-2 6228-2 6228 98s0 100-107 100c-60 0-153-8-208-17-59-10-142-16-201-15-83 2-103 0-108-13-3-10 1-15 12-15 9 0 24-5 32-10 18-13-1103-8-1137 4-13 5-21 11-19 15 2 3-26 6-62 7-37 1-150 6-252 13-104 7-333 10-525 9-285-3-353-6-420-22-62-14-128-18-287-19-113-1-204-5-201-10 2-4-1213-7-2701-7-1633 0-2706 4-2706 9s6 12 13 15c6 3-15 3-48 0-114-12-389-14-445-3-30 6-64 12-75 13-11 2-29 7-40 12s-232 9-510 9c-484 0-562-5-680-37-26-7-246-12-615-14-569-4-575-4-552 15 12 11 22 23 22 27s-43 4-96 1c-99-7-187 5-214 28-20 18-110 31-110 16zm12210-77c0-25-2-26-42-20-24 3-92 5-152 5-180 1-82 37 107 40 87 1 87 1 87-25z"/>
 </g>
 <g fill="#663f23">
  <path d="m1560 7955c0-321 2-385 14-385 7 0 16 10 20 23 8 29 8 695 0 725-4 12-13 22-20 22-12 0-14-64-14-385z"/>
  <path d="m2193 1821c-108-7-135-21-41-21 106 0 248 12 248 21 0 10-60 9-207 0z"/>
  <path id="cr" d="m1678 1783c-10-2-18-8-18-13 0-10 186-1 215 11 21 8-166 10-197 2z"/>
  <path d="m12425 1781c29-11 235-22 235-12 0 15-43 21-150 20-62 0-97-3-85-8z"/>
  <path id="cs" d="m4393 1741c-24-4-46-11-50-16-5-4 12-4 37 0s59 7 75 6c17 0 37 4 45 9 18 11-39 12-107 1z"/>
  <path id="ct" d="m9894 1732c7-11 68-13 84-3 9 5-5 9-38 10-28 0-49-3-46-7z"/>
  <path id="cu" d="m12005 1579c-66-4-138-12-160-16-37-8-40-11-43-46-3-36-2-37 30-37 18 0 110 7 203 15 94 8 232 15 307 15s143 3 152 6c10 4 16 18 16 40 0 34 0 34-192 33-106-1-247-5-313-10z"/>
  <path d="m2192 1544c3-37 5-39 43-45 22-4 93-10 158-14 117-8 117-8 117 27 0 49-26 58-187 65-134 6-134 6-131-33z"/>
  <path id="cv" d="m702 1488c-32-35-62-108-62-155 0-43 0-43 38-43 20 0 116 12 212 26 236 35 400 31 572-15 101-26 140-31 300-37 116-4 225-2 298 5 63 7 194 16 290 21s235 15 308 21c133 13 133 13 130 48s-4 36-48 40c-65 5-465-18-600-34-63-8-191-15-285-16-169-3-170-3-246 28-115 48-201 56-491 49-139-3-273-8-298-12-44-6-45-6-27 13 9 11 17 34 17 51 0 31-1 32-43 32-32 0-49-6-65-22z"/>
  <path id="cw" d="m13490 1478c0-17 8-40 18-51 17-19 16-19-28-13-25 4-159 9-298 12-290 7-376-1-491-49-75-30-77-31-241-28-91 1-221 8-290 16s-215 19-325 24c-110 6-239 14-287 17-88 6-88 6-88-30 0-19 5-38 10-41 22-14 289-35 560-46 157-6 293-15 302-20 10-5 93-9 186-9 138 0 180 4 242 21 210 58 439 68 684 32 82-13 164-23 182-23 34 0 34 1 34 45 0 48-27 113-63 153-15 16-32 22-64 22-42 0-43-1-43-32z"/>
  <path id="cx" d="m642 1228c3-58-6-56 183-47 35 2 62-4 90-18 23-12 58-25 79-29 43-8 53-1-84-52-30-11-63-23-72-27-13-5-23 2-39 29-17 30-27 36-54 36-33 0-33 0-41-67-7-67-7-67 29-100 53-48 94-45 232 16 61 26 155 61 210 77 87 25 117 29 225 28 104 0 136-4 190-23 75-26 189-82 232-114 27-20 45-23 226-28 108-4 260-12 337-19 109-9 158-9 220 1 117 17 125 22 125 65 0 37 0 37-112 30-106-6-183-1-369 23-42 6-137 13-212 16-136 5-136 5-219 50-149 79-207 96-335 98-113 2-113 2-113 28 0 23-5 28-36 34-21 3-96 3-169-1-129-6-134-6-190 20-53 24-68 26-197 26-139 0-139 0-136-52z"/>
  <path id="cy" d="m13325 1254c-48-24-55-25-190-19-169 8-195 3-195-34 0-26 0-26-118-28-134-2-189-18-340-98-83-45-83-45-219-50-75-3-170-10-212-16-186-24-263-29-368-23-113 7-113 7-113-30 0-43 8-47 121-65 58-9 109-9 220 0 79 6 233 14 341 18 181 5 199 8 226 28 43 32 157 88 232 114 54 19 86 23 190 23 109 1 138-3 225-28 100-29 241-85 282-112 13-8 46-14 77-14 47 0 58 4 85 31 32 32 35 46 25 123-6 44-8 46-39 46-27 0-37-6-54-36-16-27-26-34-39-29-9 4-42 16-72 27-109 40-125 47-107 48 10 0 53 14 95 31 75 30 79 30 147 19 39-7 84-10 100-8 29 3 30 5 33 56 3 52 3 52-140 51-131-1-147-3-193-25z"/>
  <path id="cz" d="m3935 1090c-38-5-119-14-180-20-176-17-175-16-175-57 0-35 0-35 173-29 94 3 282 8 417 11s278 8 318 11c72 6 72 6 72 39 0 22-6 35-17 40-29 10-532 15-608 5z"/>
  <path id="da" d="m9855 1094c-108-6-115-9-115-48 0-33 0-33 78-39 42-4 256-10 475-14 397-6 397-6 397 29 0 36 0 36-97 43-54 4-120 11-148 16-54 10-475 19-590 13z"/>
  <path d="m3340 929c-41-5-113-20-160-34-133-38-303-81-455-116-135-30-146-31-307-25-92 3-177 10-188 16-14 7-20 21-20 44 0 29-5 36-31 45-18 6-65 11-105 11-74 0-74 0-74-34 0-37 12-46 61-46 27 0 29-3 29-36 0-49 14-71 62-95 54-28 226-36 398-20 120 12 154 20 625 142 61 16 156 36 211 44 173 26 241 22 1019-49 417-39 791-70 1015-86 194-13 3266-13 3460 0 224 16 598 47 1015 86 942 86 953 86 1400-39 322-90 474-113 695-105 164 6 220 37 220 122 0 33 2 36 29 36 49 0 61 9 61 46 0 34 0 34-67 34-38 0-85-5-105-11-34-9-38-13-38-44 0-52-21-58-210-63-157-4-172-2-305 27-149 34-316 76-455 116-47 14-125 29-175 35-131 14-495 12-653-4-75-8-177-18-227-21-49-4-121-11-160-16-38-5-122-14-185-19s-162-14-220-20c-58-5-188-14-290-20-102-5-282-17-400-25-316-22-3003-21-3325 0-121 9-301 20-400 25-99 6-227 15-285 20-58 6-157 15-220 20s-146 14-185 19c-38 5-110 12-160 16-49 3-152 13-227 21-150 15-543 17-668 3z"/>
 </g>
 <g id="db" fill="#235947">
  <path id="dc" d="m1190 9400c0-23 7-55 16-73 16-32 16-32-10-2-14 17-25 33-26 38 0 4-16 7-35 7-35 0-35 0-35-270s0-270 37-270c26 0 45 8 65 27 28 27 28 27 28 196 0 244-18 227 246 227 192 0 212-2 227-18 14-15 17-42 17-159 0-141 0-141 39-172 27-22 50-31 75-31 36 0 36 0 36 231s0 231-45 227c-45-3-45-3-45 39 0 43 0 43-295 43s-295 0-295-40z"/>
  <path id="dd" d="m12520 9397c0-24 6-49 13-57 6-8 3-7-9 3-11 9-37 17-57 17-37 0-37 0-35-217 3-218 3-218 47-221 36-3 48 1 72 24 29 28 29 28 29 164 0 120 2 139 18 153 16 15 47 17 228 17 261 0 244 15 244-229 0-167 0-167 33-199 23-22 43-32 65-32 32 0 32 0 32 275s0 275-32 275c-23 0-39-8-56-27-18-22-21-23-13-6 6 12 11 40 11 62 0 41 0 41-295 41s-295 0-295-43z"/>
  <path id="de" d="m1654 8782c-6-4-19-21-28-39-16-31-15-33 15-78 25-38 36-45 62-45 25 0 36 7 50 31 9 17 17 42 17 56 0 21-2 24-15 13-12-10-22-6-54 23-22 19-37 38-33 41 8 8-1 7-14-2z"/>
  <path id="df" d="m12607 8749c-30-41-45-47-65-27-19 19-15-35 6-71 13-24 24-31 48-31 25 0 36 8 62 45 30 43 31 47 18 74-27 51-38 53-69 10z"/>
  <path id="dg" d="m1122 2149c-45-29-82-96-82-147 0-42 0-42 48-42 47 0 47 0 95 70 33 51 47 81 47 105 0 34-1 35-37 35-21 0-53-10-71-21z"/>
  <path id="dh" d="m1587 2163c-21-21-4-68 48-134 56-69 56-69 105-69 50 0 50 0 50 36 0 49-24 97-71 139-32 29-47 35-82 35-24 0-47-3-50-7z"/>
  <path id="di" d="m12579 2133c-47-43-69-86-69-138 0-35 0-35 50-35 49 0 49 0 105 69 43 55 55 77 55 105 0 36 0 36-50 36-44 0-55-5-91-37z"/>
  <path id="dj" d="m13070 2135c0-24 14-54 48-105 47-70 47-70 95-70 47 0 47 0 47 42 0 84-77 168-154 168-34 0-36-1-36-35z"/>
 </g>
 <g fill="#584021">
  <path id="dk" d="m1850 9295c0-55 0-55 48-53 36 1 39 2 15 5-18 2-33 8-33 13 0 10 43 19 117 22 58 3 73-13 21-23-18-4-25-7-15-8 9 0 17-6 17-12 0-8 14-9 43-5 23 4 69 10 102 12 33 3 77 10 98 15 35 9 37 12 37 49 0 40 0 40-225 40s-225 0-225-55z"/>
  <path id="dl" d="m2413 9337c-51-8-63-13-63-28 0-11 1-20 3-21 1-1 162-5 357-8 343-5 357-6 410-29 135-57 114-55 721-60 246-2 289 2 289 25 0 11-22 14-104 14-65 0-107 4-112 11-4 7-53 10-143 9-179-3-364 6-426 19-62 14-163 50-190 68-15 10-90 13-350 12-181-1-358-6-392-12z"/>
  <path id="dm" d="m3380 9338c0-20 47-38 130-50 54-8 1071-11 3635-11 3367-1 3566 0 3675 17 63 10 130 20 148 22 19 3 32 11 32 19 0 13-483 15-3810 15-3041 0-3810-3-3810-12z"/>
  <path id="dn" d="m11145 9337c-24-16-113-50-135-52-9 0-20-4-26-8-6-3-49-9-95-12s-127-10-179-15c-52-4-117-8-145-7-64 1-320-12-362-19-40-6-43-19-7-28 25-7 280-7 659-1 177 3 215 9 325 56 55 24 58 24 428 24 372 0 372 0 372 21 0 20-10 24-87 38-117 21-717 24-748 3z"/>
  <path id="do" d="m12100 9317c0-50 25-67 98-67 33 0 64-4 67-10 8-12 85-13 85-1 0 4 12 7 28 5 15-2 8 2-15 9-23 6-48 18-55 26s-8 11-2 8c6-4 34-7 63-8 42-2 51-5 51-20 0-12 5-16 15-13 11 4 15 21 15 55 0 49 0 49-175 49s-175 0-175-33z"/>
  <path d="m11147 9042c-76-2-99-6-104-18-11-31-59-44-158-44-78 0-95-3-95-15 0-8 5-15 12-15 6 0 20-8 30-17 22-20 34-22 112-24 51-1 64 3 105 32 46 32 46 32 279 37 215 4 238 2 290-16 251-88 339-105 582-109 282-5 291-22 13-26-208-2-208-2 15-5 222-2 222-2 222 42 0 43 0 43-132 49-73 3-202 6-287 7-120 1-161 4-185 17-115 60-366 115-504 111-53-2-141-4-195-6z"/>
  <path id="dp" d="m2717 9020c-42-10-90-23-105-28-15-6-47-16-72-23-25-6-62-19-83-30-32-15-65-18-190-19-84-1-212-4-284-7-133-6-133-6-133-52 0-47 0-47 203-44 270 5 287 10 40 12-112 0-203 5-203 10s96 11 213 13c241 6 332 23 579 110 52 18 75 20 290 16 233-5 233-5 279-37 41-29 54-33 105-32 66 1 84 4 99 13 6 3 52 9 103 13 50 4 92 11 92 16s7 9 15 9 15 5 15 10c0 6-68 10-183 10-183 0-183 0-217 30-35 29-35 29-260 28-177 0-242-4-303-18z"/>
  <path d="m1190 8271c0-276 0-280 21-283s21-3 0-30c-21-26-21-26-21-2232 0-1924 2-2206 15-2206 9 0 16 14 20 37 4 21 13 59 21 85 12 40 14 349 14 2131 0 2033 0 2086 19 2128 31 70 42 155 39 289-3 115-4 122-15 85-7-22-17-78-23-124-5-47-13-88-18-93-4-4-7 98-7 227 0 215 1 235 17 235 11 0 15 5 12 15-4 10-20 15-50 15-44 0-44 0-44-279z"/>
  <path id="dq" d="m1480 8535c0-8 6-15 14-15 13 0 15-73 18-487 4-472 5-490 27-563 12-41 26-111 31-155s9-81 9-82c3-10 30 0 35 13 12 31 6 154-14 269-18 105-20 163-20 576 0 459 0 459-50 459-38 0-50-4-50-15z"/>
  <path id="dr" d="m12720 8091c0-413-2-471-20-576-25-145-27-263-5-272 23-8 26-2 35 75 5 38 19 102 31 143 22 71 23 91 27 567 3 419 5 492 18 492 8 0 14 7 14 15 0 11-12 15-50 15-50 0-50 0-50-459z"/>
  <path id="ds" d="m13016 8535c-4-10 1-15 15-15 15 0 19-5 15-16-3-9-6-83-6-166 0-115-3-149-12-146-7 3-17 30-23 61-22 124-39 67-30-102 7-137 13-175 45-265 21-58 21-58 20-2120-1-1827 0-2069 14-2131 23-105 27-115 42-115 12 0 14 335 14 2207 0 2077-1 2208-17 2226-17 18-17 19 0 28 15 9 17 35 17 289 0 280 0 280-44 280-30 0-46-5-50-15z"/>
  <path id="dt" d="m12955 4049c-11-49-8-311 4-349 6-19 11-78 11-131 0-116 13-193 45-262 25-52 25-52 25-529 0-478 0-478-25-478-23 0-25 4-25 43-1 76-28 330-45 412-27 131-99 294-120 273-4-3 9-71 29-150 20-78 40-182 46-229 15-123 22-369 11-369-6 0-20 4-33 9-19 7-25 21-35 73-16 83-35 141-49 145-7 2-8-15-3-54 4-32 8-82 8-110 1-53 1-53-54-53s-55 0-55-33c0-18-7-42-15-53-14-18-14-17-15 16 0 46-20 20-20-27 0-33 0-33 235-33s235 0 235 577c0 571 0 577-21 599-15 16-23 43-30 101-19 174-43 293-61 313-16 17-18 39-18 175 0 147-10 195-25 124z"/>
  <path id="du" d="m1319 3893c-1-27-2-68-3-93-1-28-7-49-17-57-15-11-28-82-58-312-7-51-16-80-30-95-21-22-21-30-21-599 0-577 0-577 235-577s235 0 235 33c0 47-20 73-20 27-1-33-1-34-15-16-8 11-15 35-15 53 0 33 0 33-50 33-37 0-52 4-57 16-3 9-1 59 4 113 6 53 9 98 7 100-2 3-10-4-18-14-14-20-30-84-42-167-3-27-11-48-18-48-6 0-22-3-35-7-24-6-24-6-17 143 9 194 28 331 66 479 33 131 35 145 20 145-5 0-10-9-10-21 0-11-4-17-10-14-5 3-10-3-10-14s-4-22-9-25c-14-9-70-194-85-286-14-78-23-178-30-335-2-57-4-60-29-63-27-3-27-3-27 488s0 491 26 543c24 46 28 68 35 207 5 85 13 182 19 215 16 97 11 195-11 195-5 0-10-21-10-47z"/>
  <path id="dv" d="m2525 1721c-20-4-26-9-17-14 13-9 114 1 147 14 24 10-85 10-130 0z"/>
 </g>
 <g id="dw" fill="#52321b">
  <path id="dx" d="m3730 9242c-16-7 150-26 333-38 71-5 107-4 107 3 0 17-38 23-147 23-57 0-105 4-108 10-7 11-161 12-185 2z"/>
  <path id="dy" d="m10465 9240c-33-4-104-8-157-9-80-1-98-4-98-16 0-17 12-17 160 1 58 8 129 14 158 14 33 0 51 4 47 10-7 11-20 11-110 0z"/>
  <path id="dz" d="m2655 9004c-27-8-60-18-72-21-13-3-23-10-23-15s-6-6-12-2c-9 5-10 4-3-4 17-18 175 27 175 50 0 10-5 10-65-8z"/>
  <path id="ea" d="m12940 8535c0-8 6-15 14-15 16 0 26-30 26-77 0-18 5-33 10-33 6 0 10 25 10 55 0 42 3 55 15 55 8 0 15 7 15 15 0 11-12 15-45 15s-45-4-45-15z"/>
  <path id="eb" d="m1274 8094c-4-22-2-40 5-47 8-8 11 1 11 36 0 56-7 61-16 11z"/>
  <path id="ec" d="m1328 4434c-9-48-12-363-4-372 14-14 16 17 14 209-2 125-6 188-10 163z"/>
  <path id="ed" d="m12961 4263c-1-136 3-213 9-213 11 0 12 23 9 205-3 226-16 231-18 8z"/>
  <path d="m1341 2286c-6-25-11-56-11-70 0-16-6-26-15-26-8 0-15-7-15-15 0-10 10-15 34-15 31 0 34 3 40 38 3 20 6 58 6 85 0 62-23 64-39 3z"/>
  <path id="ee" d="m922 1703c3-37 28-60 28-26 0 14 7 19 27 18 14 0 28 6 30 12 3 9-4 11-26 7-24-5-31-3-31 10 0 9-7 16-16 16-11 0-14-9-12-37z"/>
  <path id="ef" d="m2650 1730c-35-7-35-7 8-9 23 0 42 4 42 9 0 6-3 9-7 9-5-1-24-5-43-9z"/>
  <path d="m13350 1725c0-10-10-15-31-15-19 0-28-4-23-11 3-6 17-9 30-6 19 3 24 0 24-15 0-35 25-13 28 25 2 28-1 37-12 37-9 0-16-7-16-15z"/>
  <path id="eg" d="m11690 1720c0-5 14-10 31-10s28 4 24 10c-3 6-17 10-31 10-13 0-24-4-24-10z"/>
  <path id="eh" d="m2420 1554c0-6 14-17 31-25 29-14 15-15-162-14-118 0-234-6-297-15-96-13-107-13-150 4-117 44-139 46-478 53-333 6-603-6-631-29-7-6-13-20-13-32 0-11-7-30-15-40-8-11-15-29-15-40 1-21 1-21 12-1 18 33 51 65 66 65 9 0 3-13-17-35-35-40-43-90-13-81 59 18 280 36 440 36 216 0 300-11 402-53 75-32 75-32 275-29 110 1 252 9 315 17 160 19 554 40 576 30 21-9-168-33-269-34-32-1-56-5-53-10 7-11-22-16-199-35-467-50-519-50-675-3-124 38-126 38-345 43-173 5-246 2-340-11-66-9-141-19-167-22-47-5-48-6-48-39 0-19 5-34 10-34 6 0 10 6 10 13 0 9 30 13 108 15 100 2 113 0 167-24 57-26 62-27 204-22 153 6 239-3 151-15-25-4-98-11-163-17s-122-11-125-11c-25-4-42 2-36 13 5 8 2 9-10 5-9-4-15-3-12 2 3 4-6 13-20 20-31 14-55 15-34 1 11-7-6-10-55-11-38 0-90-4-115-7-43-7-45-9-48-43-2-27 4-44 27-73 30-37 30-37 33-5 3 33 3 33 32-14 17-26 34-47 38-47 5 0 22 7 38 15 44 23 159 65 216 79 28 8 59 18 70 24 28 15 315 31 394 22 76-9 142-33 260-97 85-46 85-46 214-49 70-2 165-8 210-14 260-34 330-39 426-26 91 12 67-10-31-29-74-14-74-14-9-10s65 4 10-10c-90-23-210-33-295-24-97 9-271 11-302 3-18-5-23-14-23-40 0-34 0-34 49-34 27 0 61-4 75-10 15-5 28-6 31 0 3 5-11 12-32 15s-49 9-63 13c-21 5-19 7 15 10 22 2 57-1 78-8 33-10 37-14 37-45 0-44 14-51 120-59 193-15 307-9 455 24s314 75 455 115c47 14 126 29 175 35 130 14 434 12 593-4 75-8 178-18 227-21 50-4 122-11 160-16 39-5 122-14 185-19s162-14 220-20c58-5 186-14 285-20 99-5 279-16 400-25 322-21 3069-22 3385 0 118 8 298 20 400 25 102 6 232 15 290 20 58 6 157 15 220 20s147 14 185 19c39 5 111 12 160 16 50 3 152 13 227 21 159 16 463 18 593 4 50-6 128-21 175-35 140-40 307-82 454-115 122-27 156-31 290-31 158 1 239 8 269 23 11 6 17 20 17 43 0 31 4 35 38 44 47 14 127 14 97 1-11-5-42-12-69-15-29-4-45-10-39-16 5-5 23-5 43 1 19 6 54 10 77 10 42 0 43 1 43 34 0 26-5 35-22 40-34 9-200 7-311-4-82-8-116-6-214 10-131 23-161 35-63 27 65-6 65-6-9 8-98 19-122 41-31 29 96-13 166-8 426 26 45 6 140 12 210 14 129 3 129 3 214 49 120 64 184 88 265 97 80 10 360-7 389-22 11-6 42-16 70-24 57-14 172-56 216-79 42-22 46-20 77 32 28 48 28 48 31 15s3-33 33 4c35 44 40 98 10 114-11 5-41 10-68 11-46 0-142 16-114 18 8 0 12 3 9 6-8 9-89-26-83-35 3-5-5-6-17-3-19 4-20 3-8-6 13-9 12-11-5-12-24-2-5-3-155 11-69 6-141 14-160 17-77 12 7 21 151 16 142-6 147-5 204 21 54 24 67 26 167 24 78-2 108-6 108-15 0-7 5-13 10-13 6 0 10 15 10 34 0 33-1 34-47 39-27 3-102 13-168 22-94 13-167 16-340 11-220-5-220-5-362-45-141-41-141-41-260-31-65 6-172 14-238 20-66 5-174 16-240 25-66 8-121 15-123 15s0 5 3 10c4 6-14 10-47 10-81 1-320 28-330 38-6 6 10 8 39 6 26-2 143-8 258-14 116-6 266-17 335-25s213-16 320-17c195-3 195-3 270 28 102 43 186 54 402 54 160 0 381-18 441-36 29-9 21 41-14 81-20 22-26 35-17 35 15 0 48-32 66-65 11-20 11-20 12 0 0 11-6 30-14 41s-16 31-18 44c-3 27-8 29-178 51-106 14-776 5-835-11-22-6-64-21-92-32-51-21-57-21-160-7-61 8-190 14-295 14-181 0-221 6-138 19 22 3 40 12 40 19 0 9-981 12-4750 12-3363 0-4750-3-4750-11zm2098-504c13-7 7-10-28-10-38-1-42-3-22-11 13-5 22-15 19-21-5-17-177-17-402 1-96 7-237 11-325 8-173-5-163 5 23 23 67 6 151 15 187 20 84 11 526 3 548-10zm5907 1c44-6 116-15 160-20 74-8 66-8-90-10-93-1-222-6-285-12-63-5-178-10-255-13-77-2-119-2-92 1 30 2 47 9 47 17 0 17-31 26-94 26-78 0-43 14 52 21 122 9 461 3 557-10z"/>
  <path id="ei" d="m2175 1313c-11-2-60-7-110-12-86-8-87-8-25-9 36 0 106 6 155 13 59 8 75 12 45 12-25 0-54-1-65-4z"/>
  <path id="ej" d="m12110 1304c112-15 268-18 255-5-6 5-86 11-180 13-170 5-170 5-75-8z"/>
  <path id="ek" d="m1635 1290c17-4 73-8 125-7 89 0 91 0 35 7-82 11-201 10-160 0z"/>
  <path d="m12498 1283c29-2 74-2 100 0s2 3-53 3-76-1-47-3z"/>
 </g>
 <g id="el" fill="#194737">
  <path d="m1120 9420c-24-24-27-97-5-126 14-18 14-17 15 15 0 34 0 34 22 5 12-16 32-41 46-56 22-24 25-25 43-10 10 9 19 22 19 30 0 7 4 11 9 8 5-4-4 18-20 46-32 60-36 78-14 78 8 0 15 7 15 15 0 25-104 21-130-5z"/>
  <path id="em" d="m1720 9425c0-8 7-15 15-15 21 0 19-13-15-80-30-59-30-59-9-70 17-10 27-6 64 29 50 46 65 51 65 20 0-19 2-20 16-8 21 17 14 92-11 119-23 26-125 29-125 5z"/>
  <path id="en" d="m12455 9420c-25-28-33-115-11-123 11-5 16-1 16 13 0 29 10 25 62-23 35-31 51-41 63-35 21 13 19 38-10 92s-31 66-10 66c8 0 15 7 15 15 0 25-102 21-125-5z"/>
  <path id="eo" d="m13050 9425c0-8 7-15 15-15 21 0 19-13-10-69-24-48-24-48 0-81 24-32 24-32 67 24s43 56 46 25c3-29 4-30 17-12 22 28 19 99-5 123-26 26-130 30-130 5z"/>
  <path id="ep" d="m1720 8932c0-89 0-89 54-141 40-37 50-51 36-51-10 0-22-4-25-10-4-6 12-10 39-10 46 0 46 0 46 119 0 96-3 120-15 125-10 4-15-1-15-14 0-29-9-25-68 26-52 46-52 46-52-44z"/>
  <path id="eq" d="m12525 8979c-35-31-65-33-65-4 0 8-7 15-15 15-13 0-15-22-15-135 0-135 0-135 48-135 44 1 46 2 27 15-18 15-17 17 28 63 47 48 47 48 47 130 0 46-4 82-10 82-5 0-25-14-45-31z"/>
  <path id="er" d="m1180 8895c-39-40-50-43-50-15 0 13-5 18-15 14-12-5-15-32-15-160 0-154 0-154 26-154 15 0 24 5 22 12-2 6 5 21 16 33 61 65 83 100 75 120-4 11-8 57-8 103-1 45-5 82-9 82s-23-16-42-35z"/>
  <path id="es" d="m13069 8848c0-46-4-92-8-103-6-15 3-33 37-75 25-30 49-56 53-58s5-10 2-18c-4-10 2-14 21-14 26 0 26 0 26 149 0 120-3 151-15 161-13 11-15 8-15-16 0-28 0-28-43 14-23 23-46 42-50 42s-7-37-8-82z"/>
  <path id="et" d="m12650 8742c0-7-12-31-27-53-27-40-27-40-39-17-11 21-13 21-19 5-4-9-4-37-1-62 7-45 7-45 49-44 36 0 39 2 19 9-23 10-23 10 5 52 15 24 34 51 42 61 13 16 13 20-7 40-13 12-22 16-22 9z"/>
  <path id="eu" d="m1621 8726c-10-11-3-27 33-79 24-36 42-68 38-71-3-3 4-6 16-6 17 0 22 8 28 45 3 25 3 53-1 62-6 16-8 15-20-7-13-24-13-24-41 23-31 51-36 54-53 33z"/>
  <path id="ev" d="m1156 2139c-18-31-18-31 8-14 15 10 29 15 32 13 10-11-91-148-108-148-10 0-18 7-18 16s-7 14-17 12c-15-3-18-14-18-58 0-55 0-55 383-58 383-2 383-2 380 55-3 51-6 58-25 61-17 3-21 0-17-12 4-11 0-16-15-16-14 0-38 22-71 65-52 65-58 80-29 79 11 0 15 6 11 18-4 15-15 18-73 18-55 0-69-3-69-15 0-8 6-15 13-15 6 0 29-26 49-58 62-96 63-92-36-92-84 0-86 1-76 20 15 28-2 25-34-6-26-27-28-27-123-20-53 4-99 9-102 12-10 10 63 137 81 142 10 2 18 11 18 18 0 10-16 14-63 14-60 0-64-2-81-31z"/>
  <path id="ew" d="m12653 2152c-10-17-8-18 13-14 13 2 24 1 24-2 0-4-25-38-55-77-37-45-63-69-76-69-15 0-19 5-15 15s-1 15-14 15c-23 0-33-30-28-81 3-34 3-34 386-37 382-2 382-2 382 58 0 53-2 60-20 60-11 0-20-7-20-15s-8-15-17-15c-18 0-119 137-109 148 3 2 17-3 32-13 26-17 26-17 8 14-17 29-21 31-81 31-47 0-63-4-63-14 0-7 8-16 18-18 17-5 82-113 82-137 0-7-32-11-94-11-89 0-95 1-110 25-12 18-25 25-47 25-30 0-30 0-8-32 23-31 23-31-47-25-38 4-80 7-93 7-18 0-22 4-16 18 14 36 81 132 93 132 6 0 12 7 12 15 0 24-121 21-137-3z"/>
 </g>
 <g id="ex" fill="#492c17">
  <path id="ey" d="m4090 9221c-85-6-85-6-6-13 116-11 136-10 136 7 0 9-8 14-22 13-13-1-61-4-108-7z"/>
  <path d="m10090 9213c0-16 136-18 160-3 18 12 17 12-82 14-58 2-78-1-78-11z"/>
  <path id="ez" d="m1466 2298c-3-13-6-42-6-65 0-32-4-43-15-43-8 0-15-7-15-15 0-10 11-15 35-15 35 0 35 0 35 80 0 61-3 80-14 80-7 0-16-10-20-22z"/>
  <path id="fa" d="m815 1577c-55-20-60-25-63-56-3-25 0-31 10-25 7 5 27 9 43 10 17 1 73 8 125 14 66 8 194 10 415 6 324-6 367-11 457-50 48-20 145-21 268 0 60 10 119 13 161 9 47-4 73-2 93 8 20 11 60 14 154 12 70-1 98-1 62 1-156 9-305 25-315 35-7 7 13 9 65 4 135-12 9451-17 9600-5 208 16 598 24 580 11-9-6-77-11-165-12-138-1-475-25-395-28 19-1 48-8 65-17 22-11 45-13 90-9 37 4 101 1 166-9 136-20 220-20 267 0 91 40 132 44 467 50 310 5 353 4 530-22 22-3 46-13 53-22 10-13 12-10 12 20 0 29-7 42-35 67-36 31-36 31-453 31-384-1-446-4-524-25-22-6-28-4-28 9 0 15-429 16-5210 16-5210 0-5210 0-5210-28 0-29 0-29-94-35-95-6-191 10-273 45-20 9-139 13-443 15-407 2-416 2-475-20z"/>
  <path id="fb" d="m11793 1503c15-2 37-2 50 0 12 2 0 4-28 4-27 0-38-2-22-4z"/>
  <path id="fc" d="m915 1355c-44-7-122-21-173-31-92-18-92-18-92-56s13-51 23-24c3 8 26 16 54 19 26 3 100 13 163 22 88 12 161 15 310 11 190-5 198-6 320-43 109-33 137-38 220-37 98 1 267 14 520 40 142 15 290 49 290 67 0 11-251 1-410-16-63-6-207-12-320-12-200 1-208 1-325 34-112 31-132 33-310 36-131 3-215 0-270-10z"/>
  <path id="fd" d="m13035 1364c-86-5-186-22-294-51-87-23-106-25-250-20-86 3-223 10-306 15-260 18-405 23-405 15 1-33 163-62 525-92 317-27 294-28 455 18 142 41 149 42 340 47 149 4 222 1 310-11 63-9 137-19 163-22 28-3 51-11 54-19 10-27 23-14 23 24s0 38-87 55c-200 39-346 51-528 41z"/>
  <path id="fe" d="m768 1215c-4-5-31-9-60-10-52-2-53-2-56-34-4-39 12-61 45-61 17 0 23 5 21 18-3 14 9 18 76 26 59 7 87 6 110-3 74-31 103-35 145-21 55 18 52 35-7 36-28 0-65 10-92 24-46 23-168 40-182 25z"/>
  <path id="ff" d="m13345 1190c-38-16-82-30-97-30-35 0-36-11-1-27 38-18 71-16 123 9 35 16 61 20 115 19 77-3 107-14 99-36-4-11 1-15 17-15 39 0 51 14 47 56-3 37-5 39-38 40-19 1-71 5-115 8-74 6-86 4-150-24z"/>
  <path id="fg" d="m4489 1036c-2-2-123-6-268-10-145-3-267-8-270-12-14-14 41-29 124-36 243-18 405-21 451-8 71 20 72 57 2 65-19 3-37 3-39 1z"/>
  <path d="m9724 1017c-9-24 1-33 51-47 45-13 208-10 450 8 84 7 138 22 124 37-4 3-144 9-312 12-276 6-307 5-313-10z"/>
  <path id="fh" d="m3088 1003c-38-2-68-8-68-12 0-13 33-19 55-10 11 4 34 8 50 8 17 1 37 6 45 11 13 9 13 9 0 8-8-1-45-3-82-5z"/>
  <path id="fi" d="m11110 1001c23-13 160-24 160-13 0 14-38 22-110 22-41-1-59-4-50-9z"/>
  <path id="fj" d="m2878 975c-3-3-83-18-179-34-166-28-182-28-344-20-93 5-217 10-275 11-105 3-105 3-108-34-4-53 12-78 50-78 30 0 31 1 13 14-19 13-17 15 19 21 21 4 95 4 164-1 70-5 166-8 213-7 161 4 469 83 469 120 0 13-12 17-22 8z"/>
  <path id="fk" d="m11440 961c0-6 6-11 13-11 8 0 22-9 31-19 12-13 56-29 124-45 180-42 255-49 390-37 136 12 238 13 267 2 19-8 19-8 0-19-18-10-17-11 13-12 26 0 34 5 43 27 5 15 9 41 7 57-3 31-3 31-108 28-58-1-181-6-275-11-155-7-183-6-320 16-82 13-158 26-167 29-10 3-18 1-18-5z"/>
 </g>
 <g id="fl" fill="#48211d">
  <path id="fm" d="m1090 9095c0-288 0-295 20-295s20 7 20 279c0 154 3 286 6 295 5 12 0 16-20 16-26 0-26 0-26-295z"/>
  <path id="fn" d="m12000 9310c0-37 2-40 38-49 20-6 78-11 129-11 50 0 95-4 98-10 9-15 25-12 25 4 0 9-18 15-57 19-42 4-63 12-82 31-26 26-26 26 3 26 24 0 27 2 16 15-9 11-33 15-91 15-79 0-79 0-79-40z"/>
  <path d="m2245 9290c-3-5-22-10-41-10-46 0-124-20-124-32 0-5 28-7 68-3 97 9 122 15 122 30 0 18-17 28-25 15z"/>
  <path id="fo" d="m1852 9233c3-44 28-76 28-36 0 14 9 19 47 21 50 3 63 8 63 23 0 5-25 9-55 9-42 0-55 3-55 15 0 8-7 15-16 15-12 0-14-10-12-47z"/>
  <path id="fp" d="m4161 9221c-20-13 37-19 248-27 116-4 171-3 167 4-10 16-393 37-415 23z"/>
  <path id="fq" d="m9920 9219c-74-4-147-7-162-8-16 0-28-6-28-12 0-13 371-2 405 12 37 15-21 17-215 8z"/>
  <path id="fr" d="m2765 9030c-38-10-72-19-75-20s-9-2-15 0c-7 1-7-2 0-8 6-6 29-7 60-2 28 5 94 9 148 9 90 1 97 2 97 21 0 18-6 20-72 19-40-1-104-9-143-19z"/>
  <path d="m11148 9042c-84-2-99-5-108-22-7-13-7-21 0-25 6-3 12 0 15 7 4 11 32 14 120 13 85-1 115 1 115 10 0 17-28 20-142 17z"/>
  <path id="fs" d="m3100 9030c0-5 6-10 13-11 162-10 160-10 147 6-14 17-160 22-160 5z"/>
  <path id="ft" d="m3668 8993c-10-2-18-11-18-19 0-13 13-14 78-9 93 8 120 25 40 25-31 0-62 2-70 4-7 2-21 2-30-1z"/>
  <path d="m10545 8991c-73-8-58-17 55-31 124-15 200-13 200 4 0 24-144 39-255 27z"/>
  <path id="fu" d="m13068 7918c15-15 18-4458 2-4458-5 0-12 16-16 35-4 22-12 35-22 35-12 0-14-10-9-59 3-33 8-64 12-70 3-6 24-11 46-11 39 0 39 0 39 2270s0 2270-32 2270c-25 0-29-3-20-12z"/>
  <path id="fv" d="m12622 4703c3-2548 3-2548 41-2551 32-3 37 0 37 17 0 14-6 21-20 21-20 0-20 7-20 2530 0 2524 0 2530-20 2530s-20-5-18-2547z"/>
  <path id="fw" d="m1328 4101c-12-53-10-267 2-255 7 7 10 64 8 150-2 91-6 127-10 105z"/>
  <path id="fx" d="m1293 3738c-12-16-36-148-28-156 12-12 23 16 34 87 12 76 11 91-6 69z"/>
  <path id="fy" d="m12994 3716c3-14 9-46 13-71 3-29 11-45 20-45s12 7 8 23c-3 12-9 42-13 66-4 25-13 46-21 49-10 3-12-2-7-22z"/>
  <path id="fz" d="m12791 3345c-1-11 3-56 8-100 6-44 13-114 16-155 11-129 41-237 60-218 2 2-2 28-10 58s-24 124-35 208c-21 156-37 243-39 207z"/>
  <path id="ga" d="m1496 3323c-10-47-36-262-36-294 0-56 18-20 25 49 3 37 8 83 10 102 13 116 17 170 12 170-3 0-8-12-11-27z"/>
  <path id="gb" d="m1519 2574c-24-61-28-84-16-84 7 0 18 23 25 52 13 58 9 76-9 32z"/>
  <path id="gc" d="m12764 2580c8-31 24-112 31-162 3-21 11-38 17-38 7 0 8 14 3 43-3 23-8 51-9 62-4 32-28 99-39 110-6 7-8 2-3-15z"/>
  <path id="gd" d="m1640 2265c0-68-2-75-20-75-14 0-20-7-20-21 0-17 5-20 38-17 37 3 37 3 40 96 3 87 2 92-18 92-18 0-20-6-20-75z"/>
  <path id="ge" d="m1536 1769c-28-4-55-5-60-2-7 4-6 1 0-6 7-7 31-13 55-13 53 1 221 21 228 28 8 7-165 2-223-7z"/>
  <path id="gf" d="m2933 1771c-75-4-127-11-135-19-19-19-7-21 67-12 39 5 222 9 408 10 293 0 337 2 337 15s-37 15-277 13c-153-1-333-4-400-7z"/>
  <path id="gg" d="m10820 1765c0-13 42-15 320-15 176 0 320 4 320 8 0 11-252 22-477 22-138 0-163-2-163-15z"/>
  <path id="gh" d="m12561 1777c12-14 219-36 244-27 27 10 32 16 13 17-7 0-69 4-138 8s-122 5-119 2z"/>
  <path id="gi" d="m3860 1756c0-19 31-26 140-31 95-4 95-4 30 11-36 8-77 15-92 17-15 1-30 6-34 10-13 12-44 8-44-7z"/>
  <path id="gj" d="m1900 1567c0-59 21-68 141-62 134 8 138 9 109 40-23 25-23 25 4 25 24 0 27 2 16 15-10 12-39 15-141 15-129 0-129 0-129-33z"/>
  <path id="gk" d="m12440 1580c-11-7-6-10 20-10 33-1 34-1 16-15-15-11-50-15-145-15-155 0-562-30-555-42 8-12 115-9 233 7 75 10 128 11 190 4 103-10 255-5 294 10 21 8 27 17 27 41 0 27-3 30-32 30-18 0-40-5-48-10z"/>
  <path id="gl" d="m2316 1510c15-15 221-35 268-26 21 4 35 11 30 15-14 13-310 23-298 11z"/>
  <path id="gm" d="m2915 1370c-38-5-101-11-140-14-38-4-113-11-165-16-52-6-180-14-285-20-104-5-237-15-295-21-170-18-400-4-540 33-125 32-350 52-350 30 0-13 31-19 170-32 58-5 131-16 163-25 32-8 71-15 88-15 16 0 41-7 54-16 20-13 50-16 148-15 67 0 140 3 162 6s144 12 270 20c375 24 657 50 895 85 54 7 54 8-25 7-44 0-111-3-150-7z"/>
  <path id="gn" d="m11245 1365c50-7 113-14 142-14 29-1 62-5 75-11 22-9 283-32 588-50 80-5 197-14 260-20 207-18 313-15 430 14 139 34 180 47 180 58 0 13-62 3-175-28-75-20-114-24-228-24-75 0-145 4-155 9-9 5-147 14-307 21-159 6-346 18-415 26-158 19-336 33-420 32-65-1-65-1 25-13z"/>
  <path id="go" d="m13625 1214c-9-14-18-15-63-5-85 18-134 13-215-19-75-30-75-30-219-17s-288 12-288-2c0-7 328-31 421-31 28 0 68 10 100 25 31 14 75 25 104 26 70 2 146-11 152-27 9-25 33-2 33 32 0 37-9 43-25 18z"/>
  <path id="gp" d="m738 1208c-21-6-38-14-38-19 0-12 7-11 31 1 13 7 19 7 19 1 0-7 9-7 24-1 33 12 123-3 175-29 24-13 60-21 88-21 108 0 433 24 425 32-12 12-218 11-335-1-102-11-99-12-217 34-40 16-118 17-172 3z"/>
  <path d="m3920 1022c-228-3-286-21-80-24 255-5 330-1 330 17 0 6-12 11-27 11-16-1-116-2-223-4z"/>
  <path id="gq" d="m10120 1014c0-20 30-22 364-16 251 3 174 20-112 24-183 2-252 0-252-8z"/>
  <path d="m2940 985c-243-48-428-74-482-68-77 8-79-13-2-23 74-9 185 2 314 30 58 13 147 31 198 41 50 10 92 21 92 26 0 12-41 10-120-6z"/>
  <path id="gr" d="m11230 993c0-12 174-43 235-42 50 1 50 1-28 19-97 22-207 34-207 23z"/>
  <path id="gs" d="m11543 933c22-22 108-34 270-38 108-2 127-1 127 12s-13 15-82 11c-55-4-122 1-198 13-140 23-138 23-117 2z"/>
  <path id="gt" d="m12160 810c-25-8-25-8-2-16 19-5 23-12 20-35-4-25-1-29 19-29 21 0 23 5 23 45 0 48-7 52-60 35z"/>
 </g>
 <g id="gu" fill="#3f0c1e">
  <path id="gv" d="m1114 9429c-29-30-29-30-32-428-3-397-3-397 21-432 13-19 31-34 42-34 19 0 20-11 26-275 4-151 7-279 6-285 0-5-2-1033-4-2284-3-1961-1-2278 11-2303 13-24 13-32 0-56-11-22-14-121-14-583 0-556 0-556-42-585-54-37-95-103-110-175-11-56-12-57-52-62-61-8-66-22-66-174 0-98-3-135-13-137-6-2-32-9-57-16-53-14-129-86-175-165-27-48-29-56-29-174-1-123-1-123 33-151 29-25 33-33 28-62-8-53 42.481-105.66 75-132 50.788-35.845 126.52 3.5468 168 23 186 87 357 125 533 119 146.24 4.8901 276.74-83.54 380-147 49-31 74-41 91-37 20 5 24 1 30-26 8-43 53-88 86-88 21 0 26-5 28-27 30.719-94.699 107.44-97.344 181-112 74-15 215-13 341 4 95 12 168 30 460 110 340 94 454.28 115.93 1105 50 450.93-58.588 757.8-84.709 1160.2-121.91 179-16 338-18 1890-18 1534 0 1714 2 1895 18 574 50 783.76 88.913 1084.8 117.91 431 41 620.99 73.631 851 12 212.94-60.164 440.31-122.56 634-156 47-9 146-19 221-22 111-6 145-5 192 9 63 18 127 67 127 97 0 12 12 24 33 33 42 18 73 53 82 93 3 18 10 33 13 34 46 4 70 14 133 55 44 28 116 61 179 82 102 35 109 35 268 36 96.588 1.5001 216.89-13.373 303-52 191-91 240-110 276-102 67 16 116 82 106 144-5 33-2 40 27 65 33 27 33 27 37 140 4 107 3 115-24 169-16 32-59 88-99 129-66 67-74 73-113 73-41 0-41 0-41 133 0 152-5 166-66 174-40 5-41 6-52 62-15 72-56 138-110 175-42 29-42 29-42 588 0 481-2 562-15 582s-13 26 0 53 15 291 11 2304c-2 1251-3 2281-4 2289 0 8 2 132 4 275 5 260 5 260 34 277 60 35 61 38 58 472-3 395-3 395-32 425-30 31-30 31-365 31-336 0-336 0-363-25-14-13-29-34-33-45-6-19-14-20-205-20-133 0-208-4-225-12-21-9-31-9-46 0-14 9-123 12-407 12-331 0-395-2-436-16-43-15-48-15-65 0-16 15-344 16-3891 16-3537 0-3875-1-3891-16s-22-15-67 0c-42 14-99 16-448 12-219-2-408-4-419-4s-115 2-232 4c-201 5-212 6-218 25-4 11-19 31-33 44-27 25-27 25-363 25-335 0-335 0-365-31zm702-40c18-20 19-40 19-332 0-311 0-311-35-320-59-15-92-58-103-137-4-25-4-25-265-28-251-2-262-2-280 18-16 18-20 43-25 187-4 91-7 259-7 373 0 287-37 260 363 260 306 0 314-1 333-21zm11334 1c19-19 20-33 20-397-1-308-3-381-15-396-13-18-32-19-271-18-154 1-263 6-270 12-7 5-15 25-18 44-9 47-47 89-96 105-41 13-41 13-38 321 3 285 4 308 22 328 19 20 27 21 333 21 300 0 314-1 333-20zm-10880-78c0-4-9-13-20-20-36-22-24-35 28-27 26 4 55 11 65 17 10 5 55 16 100 24 115 20 653 20 682 0 11-7 55-25 98-40 63-22 92-26 155-24 77 3 77 3 8 20-71 19-100 34-90 49 7 12 7701 12 7708 0 7-11-11-26-46-37-39-12-35-28 6-32 35-3 175 40 211 64 15 11 81 14 315 14 301 0 323-2 500-47 19-5 46-7 58-5 24 4 24 4 1 28-22 24-22 24 174 24 197 0 197 0 197-41 0-35-3-40-17-34-10 4-47 9-82 12-52 5-63 3-59-8 5-16 44-26 111-28 47-1 47-1 47-152 0-150 0-150-119-147-66 1-123-1-127-5-18-18 19-27 129-33 114-7 117-8 117-31s0-23-5267-21c-5268 3-5268 3-5271 24-3 20 3 21 114 28 64 3 123 10 131 15 31 17-10 25-127 25-115 1-115 1-118 199-2 197-2 197 193 197 107 0 195-3 195-8zm10144-545c18-68 21-72 56-75 47-5 80-37 80-78 0-43 18-82 42-89 17-6 18-102 18-3177 0-3171 0-3171-41-3215-46-50-68-97-78-163-6-45-6-45-5341-45s-5335 0-5341 45c-10 66-32 113-78 163-41 44-41 44-41 3215 0 3075 1 3171 18 3177 23 7 42 46 42 87 0 40 34 78 71 78 33 0 59 23 59 54 0 12 3 26 7 29 3 4 2373 7 5265 7 4175 0 5259-3 5262-13zm-10864-706c0-419 2-469 21-578 15-89 19-138 14-200-6-69-4-83 8-83 30 0 36 144 12 300-11 73-15 202-15 558 0 462 0 462 25 462s25 0 27-3162c2-1740 2-3165 1-3168 0-3-34-3-74-2-72 4-72 4-66 149 3 84 2 142-3 137-13-14-30-130-30-211 0-73 0-73-45-73-54 0-51-28-30 315 13 209 20 258 50 379 19 76 31 144 28 149-4 6-14-21-24-59-9-38-28-98-42-134-29-77-44-190-52-395-3-82-8-174-11-202-5-53-5-53-65-53-59 0-59 0-59 547 0 540 0 547 21 569 14 15 23 43 29 91 13 111 16 218 5 223s-23-59-24-127c-1-31-5-43-16-43-13 0-15 254-15 2225 0 2226 0 2226 21 2254 24 33 40 124 18 104-37-35-39-21-39 237 0 250 0 250 165 250s165 0 165-459zm11160-3c0-356-4-485-15-558-24-155-18-310 12-310 13 0 14 14 8 88-5 67-1 115 14 205 19 108 21 160 21 578 0 459 0 459 165 459s165 0 165-248c0-137-3-252-7-255-3-4-17 2-29 14-23 22-23 22-17-17 7-45 25-85 47-103 14-12 16-233 16-2252 0-1278-4-2239-9-2239-20 0-30 31-35 109-5 74-17 114-30 100-5-5 10-228 19-275 3-17 14-39 25-49 19-18 20-33 20-567 0-548 0-548-59-548s-59 0-65 93c-28 448-33 489-72 586-26 67-35 34-13-54 19-79 36-282 43-508 3-117 3-117-39-117s-42 0-48 113c-10 180-25 198-26 30-1-141-1-141-72-145-39-2-73-1-75 1-7 7-5 4294 3 5354 6 977 6 977 30 977 23 0 23 0 23-462zm-11010-5966c26-27 51-64 58-88 24-81 54-75-340-72-353 3-353 3-351 42 3 50 43 118 85 145 31 19 47 21 267 21 235 0 235 0 281-48zm11452 23c40-27 88-112 88-157 0-28 0-28-349-28-226 0-352 4-356 10s1 34 9 64c12 40 27 64 61 95 45 41 45 41 277 41 231 0 234 0 270-25zm-10572-249c0-4-67-16-183-32-21-3-34-10-31-16 10-17 248 9 348 38 74 21 8797 21 8872 0 68-20 162-34 279-42 100-6 100-6 71 25-30 31-30 31 692 31s722 0 722-29 0-29-97-36c-111-7-127-11-118-25 3-6 51-10 111-10 104 0 104 0 104-70s0-70-6197-68c-6198 3-6198 3-6201 71-3 67-3 67 129 67s132 0 109 25c-13 14-31 25-40 25s-27 11-40 25c-23 25-23 25 723 25 411 0 747-2 747-4zm-825-330c91-31 203-43 255-28 35 10 35 10-1 11-24 1-43 9-59 26-23 25-23 25 5258 25 4557 0 5282-2 5282-14 0-16-23-22-122-32-38-3-68-11-68-17 0-18 160 1 245 29 80 28 80 28 499 31 419 4 419 4 478-58 57-59 108-142 108-174 0-18 14-19-155 6-77 12-176 23-220 26-107 6-364-12-379-27-8-9 4-11 54-6 180 16 337 17 410 3 64-13 270-59 277-62 2-1 6-15 9-32 4-20 1-35-9-45s-12-19-6-25c7-7-1-22-22-44-27-29-31-39-26-77 4-37 1-46-25-72-32-33-66-38-101-16-41 27-181 83-282 112-92 26-113 29-255 29-136-1-163-4-220-24-73-25-179-77-232-113-33-23-45-24-184-26-152-2-315-16-369-31-29-8-29-8 16-15 25-4 119-3 210 2 90 6 167 8 171 6 12-7-13-64-32-74-10-6-33-10-50-10-27 0-30-3-24-24 9-36-21-83-69-107-54-28-171-35-329-21-131 12-228 33-463 99-269 75-371 94-550 100-169 5-240 0-910-61-417-39-791-70-1015-86-194-13-3206-13-3400 0-224 16-598 47-1015 86-908 83-989 84-1290 5-471-122-505-130-625-142-155-14-286-7-340 21-58 30-78 79-43 105 16 12 13 14-22 20-22 3-50 8-62 11-25 5-60 61-46 74 4 5 80 4 168-2 156-9 276-4 259 11-13 12-250 31-408 33-129 2-141 4-174 26-53 36-159 88-232 113-57 20-84 23-220 24-142 0-164-3-255-29-55-16-149-51-210-77-60-27-115-49-122-49s-28 14-47 30c-31 27-34 34-29 71 5 34 1 45-26 79-32 40-32 40 1 54s33 14 1 15c-38 1-47 12-38 51 4 19 13 30 23 30s71 14 137 30c79 20 158 33 232 37 62 3 110 10 107 15-10 15-145 8-321-17-97-14-178-24-181-21-11 12 32 99 74 150 35 44 55 58 101 75 55 19 77 20 443 17 385-2 385-2 465-30z"/>
  <path id="gw" d="m2050 9259c-36-4-85-10-109-14-40-7-42-9-22-17 24-9 195 8 220 22 22 12-16 16-89 9z"/>
  <path id="gx" d="m2827 9036c-4-9-3-15 1-13s41 0 82-4c82-10 236-1 223 12-4 4-74 11-154 15-132 6-146 5-152-10z"/>
  <path id="gy" d="m11270 9039c-29-9-32-12-17-20 24-14 272 0 257 15-14 14-196 18-240 5z"/>
  <path id="gz" d="m11044 9025c-15-38-55-45-259-45-107 0-195-4-195-9 0-12 82-20 250-23 138-3 147-2 178 20 38 27 57 58 42 67-6 3-13-1-16-10z"/>
  <path id="ha" d="m3431 8981c-98-5-112-8-98-20 13-10 53-12 189-8 95 3 184 9 198 13 25 8 25 8-5 15-34 8-120 7-284 0z"/>
  <path id="hb" d="m3595 1780c-11-5-61-9-112-9-50-1-94-5-97-10-5-7 523-23 532-15 2 1-9 11-24 21-23 15-51 18-154 20-69 2-134-2-145-7z"/>
  <path id="hc" d="m10500 1780c-19-4-68-15-108-23s-76-18-79-21c-15-14 9-15 102-1 58 9 170 15 272 15 135 0 174 3 171 13-7 21-282 34-358 17z"/>
  <path id="hd" d="m4300 1030c-217-7-198-24 30-28 124-2 187 1 203 9 21 12 21 12 2 20-11 4-33 7-50 6-16-1-100-4-185-7z"/>
  <path id="he" d="m9770 1015c10-12 45-15 199-15 175 0 237 8 196 24-9 3-105 6-212 6-173 0-194-2-183-15z"/>
 </g>
</svg>
