<svg id="a" class="img-fluid" width="512" height="256" cursor="move" version="1.1" viewBox="0 0 5120 2560" xmlns="http://www.w3.org/2000/svg">
 <g id="c" fill="#190309">
  <path id="d" d="m605 2172c-224-159-373-360-394-527-23-195 42-372 174-470 48-36 52-37 105-29 30 5 87 9 127 9 57 0 77-4 100-21 42-32 74-103 80-178 5-55 9-65 27-70 11-3 141-6 287-6 147 0 280-3 297-6 25-5 31-12 37-40 7-41 57-165 79-199 223.87-402.27 1824.3-449.02 2090 33 26 52 66 165 66 186 0 22 49 26 329 26 146 0 276 3 287 6 18 5 22 15 27 70 5 73 38 146 78 176 36 27 98 33 194 18 79-12 85-12 118 8 47 30 121 110 146 160 52 103 70 296 36 397-40 117-108 217-221 325-87 83-233 190-259 190-9 0-162-38-341-85-365.65-114.1-762.3-155.31-1124-173.63-351.89-22.286-704.21-17.257-1064 13.632-165 16-392 47-470 65-25 5-191 48-370 95s-333 85-343 85c-10-1-54-26-98-58z"/>
  <path id="e" d="m2580 990c-11-7 0-10 38-10 28 0 52 5 52 10 0 13-70 13-90 0z"/>
  <path id="f" d="m2660 915c0-19 5-35 10-35 6 0 10 16 10 35s-4 35-10 35c-5 0-10-16-10-35z"/>
  <path id="g" d="m2687 785c-3-16 0-24 7-22 14 4 21 47 8 47-5 0-12-11-15-25z"/>
 </g>
 <g id="h" fill="#3f2b13">
  <path id="i" d="m614 2134c-244-180-374-373-374-554 0-169 71-320 185-390 30-19 35-19 104-4 80 16 163 8 208-21 46-31 103-154 103-226 0-15 32-17 307-25 308-9 308-9 343-109 44-122 61-155 107-205 89-99 315-181 613-222 239.02-31.995 445.29-35.387 700 1 297 41 525 123 613 220 45 50 78 114 108 211 13 41 27 80 31 86 6 8 105 14 312 19 304 7 304 7 316 69 33 174 126 237 297 202 90-18 105-13 175 62 58 61 86 115 104 201 45 212-24 386-229 577-41 39-108 93-149 121-74 52-74 52-414-37-354-93-424-109-614-135-447-61-1111-71-1595-24-269 26-442 59-785 149-190 50-352 93-361 96-9 2-53-23-105-62zm293-118c414-119 569-139 1375-181 286-14 432-11 1003 25 383 24 613 63 945 161 172 50 172 50 227 17 285-172 392-428 276-663-47-94-48-95-197-95-214-1-253-25-314-190-28-75-28-75-341-80s-313-5-332-80c-62-244-204-355-559-434-278-61-582-61-860 0-364 81-510 199-564 454-12 55-12 55-326 60s-314 5-342 79c-60 164-102 190-314 191-148 0-150 1-194 90-65 127-64 274 0 400 49 97 233 266 326 300 1 0 87-25 191-54z"/>
  <path id="j" d="m825 2e3c11-5 27-9 35-9 9 0 8 4-5 9-11 5-27 9-35 9-9 0-8-4 5-9z"/>
  <path id="k" d="m4265 2e3c-13-5-14-9-5-9 8 0 24 4 35 9 13 5 14 9 5 9-8 0-24-4-35-9z"/>
  <path id="l" d="m965 1960c11-5 27-9 35-9 9 0 8 4-5 9-11 5-27 9-35 9-9 0-8-4 5-9z"/>
  <path id="m" d="m396 1430c9-36 60.19-101.18 77.19-106.18 10-3 4.8104-8.8203-9.1896 7.1797-12 13-34 47-48 74-15 28-24 39-20 25z"/>
  <path id="n" d="m800 1278c54-28 90-79 122-170 12-38 44.387-48.487 47.387-48.487 12 0-67.387 131.49-96.387 173.49-15 22-42 46-60 54-52 21-61 15-13-9z"/>
  <path id="o" d="m3500 894c-7-25-30-71-50-102-63-97-131-147-285-209-33-13-48-21-34-19 15 3 66 22 115 43 133 55 219 149 264 286 6 21 10 40 7 43-2 2-10-16-17-42z"/>
  <path id="p" d="m1606 910c16-66 67-154 121-209 46-45 76-65 147-94 49-21 100-40 115-43 14-3-10 10-54 28-115 48-166 80-218 138-41 45-56 71-106 180-11 25-11 25-5 0z"/>
 </g>
 <g id="q" fill="#524c2b">
  <path id="r" d="m394 1703c-40-97-24-251 36-347 28-44 28-44 172-48 129-3 148-6 193-28 59-30 94-77 127-172 23-68 23-68 340-68s317 0 323-37c34-204 124-328 288-396 102-42 231-79 367-104 134-24 506-24 640 0 136 25 265 62 367 104 164 68 254 192 288 396 6 37 6 37 323 37s317 0 340 68c33 95 68 142 127 172 45 22 64 25 193 28 144 4 144 4 172 48 42 67 64 160 57 241-7 80-30 143-54 143-14 0-15-9-9-67 10-93 10-99-14-163-37-97-32-94-188-100-113-5-144-10-177-27-61-32-100-80-144-175-41-88-41-88-363-90-322-3-322-3-334-75-13-81-51-171-94-225-17-20-30-47-30-60 0-20-7-26-47-35-27-6-86-27-133-46-59-25-133-44-245-63-138-24-187-28-355-28-169 0-216 3-350 27-156 28-235 51-322 94-26 12-65 23-88 23-29 0-40 4-40 15 0 8 5 15 10 15 17 0 11 21-17 54-37 44-80 140-93 205-22 115 24 101-340 101-320 0-304.24-42.028-345.24 45.972-44 95-98.76 184.03-159.76 217.03-33 18-63 22-180 27-140 5-140 5-170 65-28 56-30 66-28 163 2 84 0 102-12 102-8 0-22-17-31-37z"/>
 </g>
 <g id="s" fill="#605c39">
  <path id="t" d="m1590 1341c0-30 11-51 26-51 9 0 14 12 14 35 0 28-4 35-20 35-13 0-20-7-20-19z"/>
 </g>
 <g id="u" fill="#6c663f">
  <path id="v" d="m648 1994c-136-92-254-235-242-294 4-15 2-20-3-13s-8-21-7-70c2-82 22-154 60-211 14-23 21-24 152-28 116-3 143-7 177-25 61-33 100-80 144-175 41-88 41-88 361-88 364 0 318 14 340-101 20-102 102-245 135-233 10 4 13 29 14 100 0 52-4 94-10 94-5 0-9 7-9 15 0 11 12 15 50 15 50 0 50 0 44-40-5-32-3-40 9-40 19 0 29 25 21 56-6 23-4 24 45 24 28 0 51-3 51-7 0-5-11-30-24-58-24-49-24-49-5-73 24-31 24-54 0-83-15-19-31-24-97-28-79-6-79-6-32-34 83-50 189-84 353-113 145-26 181-29 385-28 200 0 242 3 380 27 235 41 351 89 433 176 60 64 105 159 121 254 12 72 12 72 334 75 322 2 322 2 363 90 44 95 83 143 144 175 33 17 64 22 177 27 157 6 151 2 190 105 17 43 23 81 23 137 0 46-3 72-8 65s-7-2-3 13c13 59-107 204-244 295-69 46-69 46-202 6-224-67-445-117-618-140-95-13-452-37-812-55-294-16-472-11-1063 29-383 26-596 65-956 176-53 16-98 29-100 29s-34-21-71-46zm307-84c44-10 136-39 205-63 168-60 256-74 366-57 128 19 189 8 454-80 129-43 256-82 282-85 88-13 145 18 113 61-13 18-14 18-39-5-20-19-29-22-38-13-20 20 17 62 54 62 68 0 94-78 41-120-25-20-37-22-113-17-72 3-117 15-296 76-244 82-345 102-413 80-52-16-71-40-55-66 18-29 61-40 80-21 15 15 15 17-5 28-26 13-19 30 13 30 50 0 62-56 20-89-66-52-172 11-151 89 3 11 2 20-1 20-76 1-208 28-320 66-111 38-145 45-186 41-89-8-124-80-67-138 32-31 66-37 95-16 25 18 16 49-18 66-22 10-25 15-15 22 30 19 89-19 89-56 0-34-37-73-74-81-38-7-88 15-118 50-42 51-30 133 25 166 29 18 29 18-13 25-83 14-211-17-264-63-53-47-71-155-37-227 44-96 159-147 211-95 44 44 7 110-62 110-41 0-61-21-39-43 14-14 14-27 1-27-14 0-50 38-50 53 0 7 9 23 20 35 17 18 32 22 76 22 50 0 59-3 90-34 47-47 47-95 0-142-31-31-39-34-93-34-79 0-140 37-182 111-38 66-46 113-31 182 33 160 216 233 445 177zm3513-10c31-13 69-41 92-67 94-108 67-285-57-363-38-25-58-30-106-30-54 0-62 3-93 34-48 48-48 96 2 142 31 30 42 34 89 34 43 0 59-5 75-22 27-29 25-54-5-74-31-20-41-14-25 15 15 30 5 41-37 41-69 0-107-66-63-110 52-52 167-1 211 95 34 72 16 180-37 227-52 46-184 78-261 63-36-7-36-7-11-28 52-44 62-98 28-152-24-39-89-69-131-60-34 8-69 48-69 80 0 45 80 79 112 47 9-9 5-12-18-12-51 0-75-48-35-70 33-17 61-11 92 19 57 58 22 130-67 138-41 4-75-3-186-41-112-38-244-65-320-66-3 0-4-9-1-20 9-34-7-70-40-90-41-26-78-25-111 1-42 33-30 89 20 89 32 0 39-17 13-30-20-11-20-13-5-28 19-19 62-8 80 21 16 26-3 50-55 66-68 22-169 2-413-80-179-61-224-73-296-76-76-5-88-3-112 17-53 42-28 120 38 120 40 0 76-42 55-63-10-9-16-7-28 11-19 27-39 28-52 3-7-13-6-24 4-37 11-16 26-19 82-18 57 1 107 14 308 82 269 90 332 101 455 82 107-17 207-1 369 56 203 73 253 84 361 81 73-3 107-9 148-27zm-2519-356c29-21 60-89 61-132 0-33 0-33-42-30-41 3-43 4-46 38-4 58-12 80-27 80-20 0-26-46-23-195 3-122 4-130 23-130 17 0 20 8 23 53 3 52 3 52 48 52s45 0 38-37c-14-79-60-133-114-133-46 0-110 99-110 169 0 9-5 22-12 29-8 8-8 15-1 24 6 7 13 39 17 71 7 68 25 107 62 136 32 25 71 27 103 5zm-748-23c14-17 19-40 19-83 0-50-4-63-25-84-25-25-25-25-5-51s28-101 14-138c-11-28-60-45-134-45-67 0-70 1-70 24 0 13 7 26 15 30 18 7 21 116 4 133-8 8-8 17 0 31 6 11 11 52 11 91 0 56-3 71-15 71-10 0-15 10-15 26 0 26 0 26 91 22 81-4 94-7 110-27zm259-46c0-73-1-75-25-75-22 0-25 4-25 34 0 47-9 66-31 66-17 0-19-8-19-79 0-44 5-83 10-86 7-4 7-12 0-25-16-30-13-130 5-136 8-4 15-17 15-30 0-23-3-24-65-24s-65 1-65 24c0 13 7 26 15 30 18 7 21 116 4 133-8 8-8 17 0 31 6 11 11 52 11 91 0 56-3 71-15 71-9 0-15 9-15 25 0 25 0 25 100 25s100 0 100-75zm115 25c-7-50-7-50 34-50 37 0 41 2 41 25 0 14-4 25-10 25-5 0-10 11-10 25 0 24 3 25 55 25s55-1 55-24c0-14-4-27-9-30-14-9-25-146-12-159 7-7 6-13-5-21-18-13-36-126-23-141 5-5 9-19 9-32 0-22-3-23-80-23-78 0-80 1-80 24 0 14 5 28 10 31 12 7 3 76-16 122-7 17-10 40-8 50 7 26-14 147-26 151-5 2-10 15-10 28 0 22 4 24 46 24 46 0 46 0 39-50zm569-12c-4-47-2-68 9-82 13-18 15-16 25 26 6 24 9 61 5 81-6 37-6 37 56 37 56 0 61-2 61-22 0-12-6-29-14-37-19-23-45-135-35-154 6-10 4-17-6-20-24-10-30-73-10-105 10-15 24-31 32-35 7-4 13-19 13-32 0-23-4-25-50-25-51 0-51 0-49 38 1 20-8 57-19 82-21 45-21 45-21-7-1-28 4-55 9-58 6-3 10-17 10-31 0-23-3-24-55-24-62 0-80 17-50 50 14 15 16 31 11 82-6 74-6 61 1 166 3 55 1 82-6 82-6 0-11 11-11 25 0 23 3 25 50 25 51 0 51 0 44-62zm426 38c0-14-4-28-10-31-5-3-10-31-10-61 0-41 4-54 15-54 8 0 15 7 15 15 0 7 5 37 11 65 8 37 15 50 28 50 14 0 20-15 31-72 20-116 29-123 29-25 1 52-3 87-9 87-5 0-10 11-10 25 0 24 3 25 60 25s60-1 60-24c0-13-7-27-16-30-14-5-16-17-10-84 8-94 8-93 0-163-5-44-3-59 10-71 9-9 16-26 16-37 0-19-6-21-59-21-59 0-59 0-72 80-7 43-16 77-19 75-4-2-13-38-20-80-13-75-13-75-71-75-56 0-59 1-59 24 0 13 7 27 16 30 13 5 15 18 10 74-6 79-6 66 1 170 4 70 2 82-11 82-10 0-16 9-16 25 0 23 4 25 45 25s45-2 45-24zm325-26c-7-50-7-50 34-50 37 0 41 2 41 25 0 14-4 25-10 25-5 0-10 11-10 25 0 24 3 25 55 25s55-1 55-24c0-14-4-27-9-30-14-9-25-146-12-159 7-7 6-13-5-21-18-13-36-126-23-141 5-5 9-19 9-32 0-22-3-23-80-23-78 0-80 1-80 24 0 14 5 28 10 31 12 7 3 76-15 121-7 17-11 42-8 56 6 32-14 142-27 146-6 2-10 15-10 28 0 22 4 24 46 24 46 0 46 0 39-50zm298-30c-4-56-3-80 5-80 17 0 33 74 26 119-7 41-7 41 50 41 52 0 56-2 56-23 0-13-5-28-11-34s-18-41-28-79c-16-65-16-69 1-103 21-41 23-98 6-136-18-39-57-55-138-55-68 0-70 1-70 25 0 14 4 25 9 25 6 0 10 69 10 165 0 98-4 165-9 165-6 0-10 11-10 25 0 24 3 25 55 25 54 0 54 0 48-80zm271 18c-4-47-2-68 9-82 13-18 15-16 25 26 6 24 9 61 5 81-6 37-6 37 56 37 56 0 61-2 61-22 0-12-6-29-14-37-19-23-45-135-35-154 6-10 4-17-6-20-24-10-30-73-10-105 10-15 24-31 32-35 7-4 13-19 13-32 0-23-4-25-50-25-51 0-51 0-49 38 1 20-8 57-19 82-21 45-21 45-21-7-1-28 4-55 9-58 6-3 10-17 10-31 0-23-3-24-55-24-62 0-80 17-50 50 14 15 16 31 11 82-6 74-6 61 1 166 3 55 1 82-6 82-6 0-11 11-11 25 0 23 3 25 50 25 51 0 51 0 44-62zm366-13c0-68-2-75-20-75-15 0-20 7-20 28 0 47-11 72-31 72-17 0-19-8-19-60 0-57 1-60 25-60 23 0 25-4 25-45s-2-45-25-45c-24 0-25-3-25-55 0-42 4-57 16-62 21-8 34 13 34 55 0 25 4 32 20 32 18 0 20-7 20-70 0-70 0-70-95-70-94 0-95 0-95 24 0 13 7 27 16 30 13 5 15 18 10 74-6 80-6 68 0 165 5 64 3 78-10 83-9 3-16 17-16 30 0 24 1 24 95 24 95 0 95 0 95-75zm220 51c0-13-7-27-16-30-14-5-15-18-10-84 7-92 7-91 0-166-4-37-2-62 5-69 17-17 31 9 31 56 0 33 3 37 25 37 24 0 25-2 25-75 0-75 0-75-120-75s-120 0-120 75c0 73 1 75 24 75 22 0 25-5 28-47 2-26 9-48 16-51 16-5 17 134 1 144-8 4-8 9 0 17 14 14 15 167 1 167-5 0-10 11-10 25 0 24 3 25 60 25s60-1 60-24zm-1866-546c56-21 85-111 57-175-24-54-46-70-98-70-38 0-49 5-74 33-16 18-29 41-29 52 0 10-4 21-9 24-5 4-1 29 10 58 10 29 19 54 19 55s12 9 28 17c32 18 61 20 96 6zm309 0c36 0 37 0 37-37 0-21 3-48 6-60 6-22 4-23-50-23-43 0-56 3-56 15 0 8 5 15 10 15 16 0 12 46-5 60-29 24-45-5-44-84 0-39 3-79 6-88 7-28 33-21 44 12 10 26 16 30 50 30 39 0 39 0 39-45 0-44 0-44-81-42-78 3-83 5-110 35-16 18-29 41-29 52 0 10-5 22-11 26-8 4-8 9 0 17 6 6 11 22 11 36 1 52 55 94 110 86 19-3 52-6 73-5zm257-45c0-38-3-45-19-45-14 0-21 8-23 28-2 19-9 28-25 30-20 3-23-1-23-32 0-32 3-36 25-36 34 0 37-47 3-52-18-2-23-10-23-33s4-30 20-30c13 0 21 8 23 23 2 14 10 22 23 22 16 0 19-7 19-40 0-40 0-40-90-40-70 0-90 3-90 14 0 8 7 16 15 20 17 6 21 61 5 71-7 4-7 12 0 25 16 30 13 90-5 90-8 0-15 7-15 15 0 12 17 15 90 15 90 0 90 0 90-45zm123 0c-5-36-3-45 10-45 18 0 29 36 20 68-5 21-2 22 46 22 28 0 51-3 51-7 0-5-11-30-24-57-24-50-24-50-3-78 17-23 19-33 11-55-13-39-48-53-131-53-58 0-73 3-73 15 0 8 4 15 9 15 12 0 13 188 0 195-22 14-5 25 41 25 50 0 50 0 43-45zm445 25c20-13 32-28 32-42 0-33-39-84-73-94-42-13-57-39-34-61 17-17 18-17 23 5 5 17 13 22 41 22 32 0 34-2 31-31-3-30-6-32-52-36-146-12-187 88-61 152 42 21 52 40 35 65-9 13-13 12-29-7-11-13-31-23-45-23-22 0-26 4-26 29s5 30 28 34c63 9 99 6 130-13zm-220-215c30-74 29-85-8-85-30 0-30 0-30 70 0 39 3 70 8 70 4 0 17-25 30-55z"/>
  <path d="m1100 1441c0-61 4-68 28-52 21 13 12 105-10 109-16 3-18-5-18-57z"/>
  <path id="w" d="m1100 1230c0-60 6-70 28-48 23 23 12 108-14 108-10 0-14-15-14-60z"/>
  <path d="m1597 1297c7-62 16-65 27-10 6 25 3 34-12 42-18 10-19 7-15-32z"/>
  <path id="x" d="m2916 1308c10-81 21-81 31 1 5 48 4 51-16 51s-21-3-15-52z"/>
  <path id="y" d="m3190 1244c0-56 3-75 12-72 22 8 32 65 19 108-18 62-31 47-31-36z"/>
  <path id="z" d="m2126 952c-3-5-5-47-5-94 0-64 4-88 14-92 7-2 18 1 24 7 13 17 13 158-1 174-12 15-25 17-32 5z"/>
  <path id="b" d="m2870 805c0-33 4-45 15-45 20 0 29 43 15 69-18 34-30 24-30-24z"/>
  <path id="ab" d="m1857 844c-4-4-7-25-7-46 0-32 3-39 18-36 10 2 18 14 20 28 3 27-19 66-31 54z"/>
 </g>
</svg>
