<svg id="a" class="img-fluid" width="128" height="128" version="1.1" viewBox="0 0 1280 1280" xmlns="http://www.w3.org/2000/svg">
 <g id="b" fill="#220303">
  <path d="m445 1067c-161-182-161-182-274-187-98-4-106.63-1.8309-127-25-10-14-14-210.75-13-406.5 1.9045-372.81 1.3863-388.3 17-400.5 14.555-11.372 26.09-13.534 592-16 570-2 580-2 600 18 19 19 20 32 20 405 0 372-1 386-20 405s-33 20-325 20h-305l-2 184-3 184zm116-239c19-16 50-18 325-18h304v-710h-1090v710h107c120 0 98-14 261 172l67 76 3-106c2-95 5-109 23-124z"/>
 </g>
 <g id="c" fill="#cdbaa7">
  <path id="d" d="m535 1098c-102-116-211-236-227-250-16-15-40-18-124-18h-104v-750h1130v750h-304c-275 0-306 2-325 18-19 15-21 29-23 145-3 129-3 129-23 105zm2-238c8-35 22-50 47-50 12 0 28-6 34-12 9-10 80-14 252-18 240-5 240-5 265-30 30-30 30-26 27-326-2-204-4-233-19-251-38-42-44-43-508-43-447 0-447 0-476 30-30 29-30 29-27 299 3 313 0 302 101 320 34 6 63 15 65 21 2 5 12 10 22 10s51 30 91 67c72 66 72 66 96 37 13-16 26-40 30-54z"/>
 </g>
 <g id="e" fill="#d3c2af">
  <path d="m389 895c-39-36-79-65-89-65s-20-5-22-10c-2-6-31-15-65-21-102-18-98-4-101-340-3-290-3-290 27-319 31-32 34-32 181-32 185 1 190 1 190 17 0 13-18 15-117 14-191-2-189-3-223 33-31 32-31 32-28 289s3 257 28 278c14 11 41 23 60 26 71 12 117 36 182 95 67 60 67 60 94 25 50-65 76-32 29 38-37 54-61 50-146-28z"/>
  <path id="f" d="m570 821c0-40 35-46 288-51 321-7 292 24 292-315 0-342 35-309-329-313-238-2-281-5-281-17 0-13 42-15 281-15 290 0 305 2 342 43 15 18 17 47 19 251 4 345 5 334-26 364-26 27-26 27-265 32-153 3-243 9-252 16-8 6-26 14-41 16-21 4-28 1-28-11z"/>
 </g>
 <g id="g" fill="#dbcbb7">
  <path d="m390 879c-63-58-109-82-180-94-51-8-79-36-88-87-4-24-7-49-6-55 1-7 2-113 3-235 1-223 1-223 26-252 18-21 38-31 71-36 65-10 871-1 899 10 52 20 54 35 55 322 1 166-2 273-9 285-24 46-32 48-288 53-217 4-246 7-257 22-7 10-15 15-18 12s-27 22-53 55c-32 43-53 61-68 61-12-1-50-27-87-61zm203-108c20-7 123-12 248-12 243-1 270-7 287-61 7-20 10-122 9-258-2-233-6-258-47-277-24-10-820-13-863-2-69 18-72 31-72 300 0 236 0 237 24 263 15 16 43 29 80 37 71 14 94 27 156 83 50 45 50 45 98-9 26-30 62-58 80-64z"/>
 </g>
 <g id="h" fill="#e3d6c3">
  <path id="i" d="m391 860c-66-55-91-67-177-85-17-3-42-17-55-31-24-26-24-26-24-283 0-291 2-302 72-320 45-12 879-9 905 3 40 19 47 60 47 306 0 143-4 248-10 268-18 55-46 61-293 62-250 0-262 3-325 78-24 28-49 53-56 56-8 3-46-22-84-54zm194-106c17-4 35-10 40-14 6-4 108-8 227-8 222-1 252-6 261-42 2-8 2-118 0-245-4-211-6-232-23-250-19-18-38-19-426-22-455-2-466-1-481 59-5 18-9 130-8 248 0 214 0 214 32 236 18 12 49 25 70 29 20 3 57 21 81 38 115 82 101 80 152 26 25-26 58-51 75-55z"/>
 </g>
 <g id="j" fill="#e6dcc8">
  <path id="k" d="m414 857c-18-12-52-36-76-54-36-25-113-53-126-44-1 1-16-11-32-26-25-24-30-37-32-83-4-116 4-397 14-433 16-67 19-67 502-64 413 2 426 3 446 22 19 19 20 36 25 265 2 134 2 253-1 265-11 45-35 49-264 51-118 1-224 4-235 8-60 22-86 39-116 75-37 47-59 50-105 18zm70-52c9-13 37-37 63-52 48-28 48-28 286-33 222-5 240-6 253-24 11-16 14-66 14-242 0-223 0-223-26-243s-37-21-435-21c-396 0-410 1-429 20s-20 33-20 243c0 258-2 251 101 281 30 8 80 33 110 55s57 40 60 41c4 0 14-11 23-25z"/>
 </g>
 <g fill="#efe6d4">
  <path id="l" d="m439 846c-13-7-44-27-68-44-25-18-70-40-100-48-104-30-101-20-101-301 0-230 1-244 20-263s33-20 449-20c418 0 429 0 455 21 26 20 26 20 26 263 0 193-3 246-14 262-13 18-31 19-253 24-238 5-238 5-286 33-26 15-54 39-63 52-20 31-36 36-65 21z"/>
 </g>
</svg>
