<svg id="a" class="img-fluid" width="128" height="128" cursor="move" style="max-height:347.98px;transform-origin:50% 50% 0px;transform:matrix(1.69, 0, 0, 1.69, -32.5811, 178.718);transition:none 0s ease 0s" version="1.1" viewBox="0 0 1280 1280" xmlns="http://www.w3.org/2000/svg">
 <g fill="#3f0d1e" style="transform:none">
  <path id="b" d="m570 1251c-85-29-360-156-382-178-18-17-52-88-100-207-97-242-97-241 6-476 42-96 88-187 103-202 18-19 85-51 207-100 243-97 236-97 474 6 134 58 190 88 210 111 17 18 57 107 101 220 64 165 73 195 68 235-8 59-150 386-183 422-18 18-87 51-208 99-179 72-245 87-296 70zm220-226c80-32 150-63 156-69 7-6 41-79 76-162l65-152-62-156c-34-87-72.232-176.27-77.232-181.27-5-4-71.768-21.732-155.77-57.732l-153-65-155 63c-86 35-160 67-164 72-4 4-37 76-73 160l-65 152 59 148c32 81 62 154 66 162 10 15 313 151 328 146 6-2 75-29 155-60z"/>
 </g>
 <g id="c" fill="#584321" style="transform:none">
  <path id="d" d="m523 764c-17-7-16-57 1-99 12-27 21-35 40-35 15 0 26-4 26-10 0-5 16-10 35-10 33 0 35 2 35 34 0 19-3 36-7 38-5 2-18 21-30 43-18 33-27 40-55 42-18 1-39 0-45-3z"/>
  <path id="e" d="m1088 669c-2-5-39-13-82-16-75-6-79-7-90-35-6-16-18-28-28-28-14 0-18-8-18-35 0-33 2-35 32-35 17 0 47-5 65-12 28-10 33-17 33-45s4-33 23-33 28 16 65 108c24 62 40 116 36 125-7 19-30 23-36 6z"/>
 </g>
 <g id="f" fill="#654f27" style="transform:none">
  <path d="m670 1087c0-14-4-28-10-32-5-3-12-32-16-65s-11-60-15-60c-5 0-9-7-9-15s-7-15-15-15-15-7-15-15-8-15-18-15c-15 0-21 16-36 93-9 51-20 98-24 104-9 14-132-41-132-59 0-7 11-44 25-83 13-39 20-71 15-73-13-5-13-72-1-72 5 0 14-21 20-47 18-72 61-143 110-181 38-29 50-33 95-30 50 3 51 4 54 37 4 36-8 66-45 117-13 17-23 36-23 42 0 7-7 12-15 12s-15 6-15 13c0 6-3 29-6 50-6 36-6 37 22 37 23 0 46-16 107-78 50-50 77-85 77-100 0-12-4-22-10-22-5 0-10-22-10-50 0-45 3-51 30-65 39-20 120-20 120 0 0 9 9 15 25 15 31 0 32 13 4 32-19 12-20 17-10 37 11 20 19 22 67 19 30-1 54 0 54 5 0 4 11 7 24 7s26 6 28 12c5 13-55 155-72 171-4 5-22 1-39-7-26-14-31-14-31-2 0 8-29 28-65 45-40 18-85 50-115 81-50 52-74 100-52 108 23 7 12 40-15 50-16 5-36 13-45 17-14 6-18 2-18-18zm-82-381c11-19 18-37 15-40-13-12-33-5-44 15-9 17-8 23 2 30 11 7 9 9-6 9-17 0-17 2-5 10 8 5 16 10 17 10 0 0 10-15 21-34z"/>
  <path id="g" d="m983 511c-42-35-24-111 26-111 23 0 29 6 38 34 9 30 8 34-5 29-11-5-14-1-10 13 13 45 12 49-7 51-11 2-30-6-42-16z"/>
 </g>
 <g id="h" fill="#785e2f" style="transform:none">
  <path d="m542 1094c-62-29-71-36-64-51 6-10 17-56 26-103 10-47 20-92 23-100s5-21 4-27c-2-17 53-17 82-1 12 6 37 14 55 17l34 6-27 29c-15 16-23 32-18 35s14 33 19 66c8 55 26 75 29 33 2-26 54-95 96-129 20-16 62-41 93-55 65-30 66-32 36-150-20-75-28-110-29-126-1-13-30-9-62 7-27 14-35 39-19 55 3 3 11 23 18 45 9 32 9 42-1 53-11 10-23 7-65-20-44-28-51-38-51-66-1-22 7-39 24-54 14-12 25-29 25-37 0-15 132-91 157-91 6 0 13-9 16-21 3-11 15-23 26-26 12-3 21-12 21-19 0-27 26-14 38 19 15 43 15 47-3 47-24 0-36 32-17 47 16 11 16 12 1 13-18 0-36 30-19 30 22 0 8 19-25 34l-35 17 15 34c7 19 12 35 9 35s2 7 10 16c9 8 14 20 11 25-4 5-1 9 4 9 6 0 10 3 9 8-5 16 33 71 53 77 24 8 22 23-11 99-15 36-24 46-43 46-31 0-114 70-95 81 8 5 9 11 3 18-18 17-160 69-163 60-2-5-10-9-18-9-7 0-11 6-8 14 3 9-9 19-36 30-22 9-44 16-48 15-4 0-40-16-80-35z"/>
  <path id="i" d="m363 1015c-34-14-44-35-19-35 22 0 29-18 27-72-1-42 1-48 19-48s20-6 20-67c0-76 25-140 85-225 19-26 35-59 35-73 0-22 4-25 35-25 24 0 35 5 35 14 0 10 13 16 38 18 35 3 37 5 40 43 3 36 2 38-11 21-19-25-51-17-103 28-55 47-93 134-104 239-8 75-44 198-59 197-3-1-21-7-38-15z"/>
 </g>
 <g id="j" fill="#896935" style="transform:none">
  <path id="k" d="m607 1123c-13-3-16-12-13-36 9-67 56-170 56-123 0 9 7 16 16 16 13 0 15 7 11 30-4 19-2 30 5 30 11 0 4 59-10 71-11 11-45 17-65 12z"/>
  <path id="l" d="m822 1033c-17-17-5-39 52-91 43-39 103-72 132-72 20 0 17 28-9 79-20 40-29 47-92 71-59 22-73 24-83 13z"/>
  <path id="m" d="m335 1004c-55-20-57-25-38-72 14-31 27-45 55-56 35-15 59-36 39-36-49 0-57-125-13-205 15-27 37-54 50-60 12-5 25-17 27-27 3-9 16-23 28-31s41-34 65-57c42-42 44-43 94-37 28 4 55 12 59 19 6 9 24 7 79-11 80-25 160-90 160-129 0-15 6-22 20-22 20 0 51 49 64 102 5 22 2 27-15 30-27 4-50 38-31 45 7 3 25 16 40 30l27 24-46-4c-26-2-55 0-65 6-14 8-13 4 5-16 14-15 22-30 18-33-10-10-158 70-153 82 3 7-9 24-26 39l-31 28 24 13c23 13 23 13-16 13-22 0-57-3-77-7l-38-7 15-29c15-27 14-31-3-48-18-18-21-18-61-2-43 17-75 55-122 144-18 33-24 63-25 115-1 49-10 92-29 143-15 39-30 72-34 71-3 0-24-7-46-15z"/>
  <path id="n" d="m1041 833c0-7-7-13-14-13-19 0-77-75-77-99 0-17 4-19 23-12 12 5 21 14 19 20-1 6 3 11 9 11 5 0 8 4 5 9s6 20 20 34c15 16 24 33 21 44-3 10-5 12-6 6z"/>
 </g>
 <g id="o" fill="#ffdd5f" style="transform:none">
  <path id="p" d="m286 983c-20-21-33-74-29-117 5-45 4-50-35-89-23-24-50-66-61-97-12-30-21-56-21-57 0-9 65 0 120 17 71 21 94 15 72-20-6-11-12-36-12-56v-36l58 4 59 4 11-84c11-79 16-91 79-190 80-124 103.58-124.39 177.08-93.915 92.894 35.033 51.915 23.915 53.915 29.915 1 5-15 58-37 117-23 59-38 111-35 116 14 24 59 5 134-56 78-62-161.18-191.64 128.44-97.181 5.7043 1.8604 30.268 8.0652 41.565 22.181 9 17 3 28-48 78-46 46-71 63-122 80-70 24-150 29-150 10 0-6-3-8-6-5-4 3-15 2-26-4-15-8-27-2-70 38-82 77-88 83-88 91 0 4-10 12-22 17-30 13-77 101-78 142 0 32 3 36 49 71 34 26 21 54-37 81-37 17-52 31-61 57-12 32-29 43-45 27z"/>
  <path d="m593 847c-29-13-55-25-58-29-5-5 27-64 114-210 9-16 20-28 24-28 14 0 111 52 146 77l33 26-93 93c-52 52-98 94-104 94-5-1-33-11-62-23z"/>
  <path id="q" d="m913 554c-17-13-15-16 25-54l42-41 31 21c16 12 29 26 27 31s-26 20-55 33c-45 21-54 23-70 10z"/>
  <path id="r" d="m260 448c-25-42-25-44 4-110 18-40 32-58 55-67 27-12 33-10 75 19 41 28 46 35 46 70 0 34-6 44-47 79-63 53-104 56-133 9z"/>
 </g>
 <g id="s" fill="#fff" style="transform:none">
  <path id="t" d="m208 798-68-170 54-126c30-70 58-128 64-130 5-1 15 11 22 27 22 54 32 54 86 6l49-45-29-23c-16-12-40-31-54-43l-25-21 154-61c149-60 179-69 179-55 0 3-34 59-75 123-71 111-76 121-86 201-7 46-15 88-20 93s-27 4-54-4c-25-7-48-10-51-8-3 3 4 22 16 42 20 36 20 38 3 67-10 16-22 29-28 29s-49-11-95-24c-47-14-86-24-87-22-1 1 23 28 55 59 53 53 91 79 180 124 39 20 40 34 4 55-32 19-40 16-81-36l-31-39-1 54c-3 78-3 87-9 92-3 3-36-71-72-165z"/>
  <path id="u" d="m691 469c-25-5-48-12-52-16-7-7 74.915-257.85 88.915-272.85 7-7 255.08 103.85 259.08 115.85 2 5-11 18-27 28-17 10-70 49-117 87s-91 69-97 68-31-5-55-10z"/>
 </g>
</svg>
