<?xml version="1.0" encoding="UTF-8"?>
<svg id="a" class="img-fluid" width="413.73" height="380.9" version="1.1" viewBox="0 0 4137.3 3809" xmlns="http://www.w3.org/2000/svg">
 <g id="b" transform="translate(-1268.3 -1400)" fill="#200">
  <path id="c" d="m3627 5036c-53-59-272-322-321-386-62-81-58-77-63-62-11 31-24 7-21-40 3-53 3-53 43-56 39-2 41-1 99 75 33 43 98 124 145 181 86 102 86 102 93 65 8-51 26-160 41-258 12-80 12-80 60-83 27-2 54 2 61 7 9 8 6-24-10-102-13-61-24-140-24-174 0-63 0-63 38-63 34 0 115 26 350 115 72 27 72 27 72 81 0 53-16 80-31 52-10-17-316-134-326-124-7 7 23 169 68 364 16 68 29 133 29 145 0 24 9 32-119-112-29-34-59-61-66-61-9 0-17 24-24 68-5 37-19 126-31 197-11 72-20 141-20 155 0 43-13 48-43 16z"/>
  <path id="d" d="m3027 5015c-4-11-9-36-12-55s-12-44-19-55-28-66-46-123c-27-83-35-100-46-91s-14 5-14-23c0-45 27-70 71-66 27 2 34 9 44 38 13 35 13 35 16 5 4-27 8-30 46-33 41-3 42-2 52 35 14 48 14 93 1 93-5 0-10-5-10-12 0-32-12 11-36 132-14 74-30 144-34 155-7 20-7 20-13 0z"/>
  <path id="e" d="m2522 4690c-13-56-26-109-29-116-3-10 3-14 20-14 18 0 33 13 61 53 36 52 48 101 23 91-8-3-20 13-33 43-19 47-19 47-42-57z"/>
  <path id="f" d="m4700 4595c-41-13-120-42-175-65-59-24-101-37-103-31s-7 11-12 11c-11 0-11-218 0-225 4-3 23 10 42 28 18 17 80 75 138 127 142 129 196 180 190 179-3 0-39-11-80-24z"/>
  <path id="g" d="m2685 4449c-4-6-9-36-12-67-4-51 0-65 35-137 46-95 59-107 107-103 35 3 37 5 60 73 29 82 31 124 9 171-25 53-48 45-63-21-7-31-18-55-25-55s-28 34-47 75c-32 71-50 88-64 64z"/>
  <path id="h" d="m2084 4285c3-22 8-78 11-125s8-109 11-137c4-29 2-53-2-53-5 0-29 19-54 43-176 165-164 156-156 117 4-19 9-69 12-110 2-41 6-85 9-97 4-17 2-21-10-17-20 8-20-29 0-46 8-7 35-15 60-18 45-5 45-4 45 27 0 17 3 31 6 31s30-20 58-45c45-38 60-45 96-45 43 0 43 0 36 83-4 45-9 106-13 135-6 51-5 52 21 52s26 1 26 70c0 56-3 70-15 70-8 0-15-6-15-14s-30 16-66 53c-65 66-65 66-60 26z"/>
  <path d="m4395 4166c-13-65-8-70 74-76 74-5 74-5 3-53-68-45-72-49-72-85 0-21 5-43 12-50 17-17 59-16 52 1-5 14 41 45 279 190 154 94 153 93 65 100-40 3-84 5-98 3s-85-7-157-11c-95-5-133-4-133 4 0 26-20 8-25-23z"/>
  <path d="m4157 3824c-45-33-48-37-45-76 3-40 4-41 73-69 41-16 90-28 118-28 47-1 47-1 47 38 0 27-7 46-25 65-14 15-25 35-25 44-1 50-11 62-54 62-31 0-53-9-89-36zm131-67c2-12-1-15-12-11-19 7-22 38-3 32 6-3 13-12 15-21z"/>
  <path id="i" d="m4820 3551c-17-33-12-78 11-95 20-14 19-15-25-21-56-9-86-41-86-93 0-29 2-33 14-22 8 6 57 22 108 35 79 20 95 21 104 9 6-8 14-14 18-14 10 0 7 88-4 95-5 3-10 24-10 45s-3 45-6 54c-8 20-34 21-34 2 0-9-7-12-20-9-11 3-20 12-20 19 0 21-38 17-50-5z"/>
  <path id="j" d="m1640 3470c0-5 5-10 10-10 21 0 9-21-17-31-67-25-223-100-229-111-3-4 3-8 13-8 34-1 224-28 229-33 3-3-9-47-26-99-17-51-47-149-67-218-19-69-46-163-59-210-31-109-56-212-52-215 2-1 57 13 123 32s170 47 230 63c61 17 145 39 188 51 43 11 81 19 83 16 3-3-29-76-71-163-42-88-81-168-85-179-26-60-40-99-36-102 3-4 209 141 310 219 18 14 27 16 23 7-16-42-151-648-192-862-17-90-20-177-5-177 17 0 70 62 159 184 25 35 95 129 156 210 94 124 111 142 116 123 3-12 9-100 13-195 3-95 11-196 17-224 12-52 12-52 36 12 14 36 52 157 85 270s63 208 67 213c4 4 16-10 28-30 11-21 37-69 58-108 97-181 147-266 153-260 4 4 9 126 12 272 3 171 9 268 15 270s38-29 70-69c33-40 94-111 135-158 42-47 129-148 195-225s126-145 135-152c29-23 22 22-33 196-30 94-51 170-47 169 4-2 79-71 166-153 264-250 416-385 435-385 5 0 7 18 3 43-8 57-97 444-134 586-17 63-29 116-27 117 2 2 32-16 68-40 127-86 414-274 437-285 23-12 23-12 3 26-10 21-41 63-68 93-93 107-142 177-98 140 13-11 15-9 15 13 0 20-9 28-49 46-28 11-53 26-56 31-10 17-73 12-77-6-2-11-21-3-78 37-41 29-90 63-109 76s-48 23-67 23c-33 0-34-1-34-42 0-24 9-74 19-113 29-104 121-470 121-481 0-5-8 7-19 26-15 28-25 36-53 38-31 3-64 31-264 227-203 200-233 225-261 225-32 0-33-2-33-40 0-22 11-73 25-112s23-73 21-75c-2-3-72 74-154 170-177 205-193 219-241 215-36-3-36-3-41-203-5-199-5-199-66-90-60 110-60 110-112 113-51 3-51 3-84-105s-33-108-40-58c-3 28-7 76-7 108-1 58-1 58-38 55-33-3-43-10-85-68-122-167-261-350-264-347-2 1 6 43 17 92 11 50 35 164 54 255 18 91 43 201 55 245 25 97 50 228 50 273 0 30-2 32-34 32-27 0-51-13-112-61-77-62-77-62-21 45 42 79 57 118 57 148 0 40 0 40-37 36-36-5-251-60-494-127-106-29-106-29-82 58 14 47 33 118 43 156 10 39 41 143 69 232 58 183 64 232 29 234-17 1-19 2-5 6 27 7 24 77-5 97-25 18-78 22-78 6z"/>
  <path d="m4477 3133c-4-3-7-25-7-49 0-49-8-46 165-65 61-7 126-15 145-18 35-7 35-7-13-35-45-27-48-31-45-65 3-36 3-36 58-39 30-1 66 3 79 10 30 16 41 41 14 32-30-11-4 9 90 69 48 31 87 62 87 68s7 9 15 5c11-4 15 1 15 19 0 19-5 25-21 25-12 0-17-4-13-11 4-8-3-9-22-5-31 6-222 21-402 32-93 5-110 9-101 20s7 14-13 14c-14 0-28-3-31-7z"/>
  <path id="k" d="m4690 2598c0-17 7-39 16-49 15-17 12-18-72-16-49 1-155 1-236 0-148-3-148-3-148-37 0-31 7-39 66-83 66-48 66-48 30-51-34-3-36-5-36-37 0-24 6-38 20-45 11-6 24-20 30-31 9-17 6-25-20-49-18-17-36-30-41-30s-9-22-9-50c0-50 0-50-35-50s-47-16-20-26c15-6 21-25 8-23-39 6-19-11 81-71 101-60 125-70 165-70 32 0 57-7 81-23 19-13 67-40 105-61 70-39 70-39 5 28-41 42-58 66-48 66 13 0 118-60 228-130 8-5 36-22 62-37 27-16 48-31 48-36 0-4-12-12-27-18-28-11-28-11-2-33 38-33 239-97 326-103 62-5 73-3 79 11 14 37-133 210-244 286-46 32-67 38-59 17 3-7-3-18-12-24-13-8-47 8-166 78-82 49-153 89-157 89-5 0-8 7-8 16 0 24-77 184-89 184-11 0-111 61-111 67s113-6 170-19c25-5 70-11 100-14 55-5 55-5 17 21-20 14-90 53-155 87-163 85-174 92-176 103-1 6 106 11 289 12 160 1 292 2 294 3 18 2-53 52-144 101-60 32-102 59-92 59s15 5 12 10c-3 6-33 10-66 10-59 0-59 0-59-32zm471-929c30-38 30-38-2-29-34 10-99 56-99 70 0 13 43 18 58 6 7-5 26-26 43-47z"/>
 </g>
 <g id="l" transform="translate(-1268.3 -1400)" fill="#3e0d1f">
  <path id="m" d="m1830 5191c-192-61-333-210-342-363-3-40-1-43 22-40 13 1 85 37 160 80 74 42 139 77 144 77s17-40 28-90c10-49 30-137 44-195 26-105 26-105 92-168 60-57 180-144 217-159 12-4 15-28 15-115 0-97-2-109-15-98-51 43 33-228 98-314 13-18 12-22-14-43-34-29-28-31-179 71-127 86-118 82-122 56-3-20-3-20-43 1-22 12-143 89-270 172-445 291-395 265-395 205 1-53 1-53 228-201 648-424 667-436 670-457 5-31-12-25-100 41-117 87-165 109-236 109-54 0-60-2-71-27-7-14-15-70-18-125-3-54-8-98-10-98s-14 6-26 14c-84 54-395 216-414 216-20 0-23-5-23-37 0-36 3-40 53-65 101-54 361-199 374-209 17-15 17-29-2-29-26 0-16-14 24-33 33-15 41-26 56-70 25-79 89-179 145-230 64-58 165-109 310-158 120-41 187-79 281-161 53-46 60-49 105-46 49 3 49 3 70 65 20 61 20 61 165-19 145-79 145-79 157-146 14-85 73-203 128-259 76-76 209-123 345-123 79 0 208 19 241 35 26 12 32 11 75-19 27-18 84-52 128-76s87-48 95-55c8-6 29-17 45-24 30-13 30-13 10 11-12 12-27 32-35 43-14 19-14 19 6 3 11-10 24-18 28-18s44-18 87-40c64-32 90-40 134-40 30 0 55 3 55 8-1 23-56 61-224 152-103 56-185 104-183 107 3 2 44 13 91 24 86 21 86 21 211-60 89-58 133-81 156-81 30 0 31 1 16 18-10 10-14 21-11 24 9 10-25 67-49 80-21 12-21 13 12 18s33 5-27 40c-60 34-60 34-64 97-7 109-81 183-214 212-30 7-54 16-54 20s9 16 21 27c17 15 23 16 40 6 11-7 49-12 88-11 41 1 89-5 118-15 26-8 89-27 138-42 50-14 119-41 154-60 50-27 76-34 119-34 47 0 53 2 42 15s-8 15 14 15c38 0 108 18 236 61 114 38 114 38 136 18 42-39 138-51 172-22 11 10 27 38 36 62 10 25 31 64 48 87 25 36 30 49 25 80-13 77-58 114-150 121-67 6-98-4-146-46-13-12-38-21-55-21-18 0-59-7-91-16-33-8-73-17-90-19-16-1-42-6-57-10-16-4-36-4-45 0-17 6-17 8 2 22s17 14-25 10c-25-2-60-10-78-18-29-12-37-12-75 8-23 11-58 27-77 34s-37 14-39 15c-6 5 40 74 50 74 5 0 9 7 9 15s-7 15-15 15c-16 0-19 9-9 34 3 9 55 59 115 112 61 52 121 113 135 135 13 22 35 44 48 48 12 5 30 21 39 35 21 31 33 33 42 7 3-11 15-21 27-23 16-2 25-17 39-68 36-125 63-205 81-242 10-21 15-38 11-38-22-1 35-30 58-30 40 0 140 79 193 153 93 130 126 240 106 354-18 109-64 136-96 56-34-88-106-186-131-181-10 2-31 45-55 113-66 187-74 208-107 286-18 42-41 85-52 95-17 15-22 16-46 3-14-8-76-67-137-132-124-132-101-129-195-22-14 17-55 65-90 108-62 75-63 78-46 97 12 14 14 20 5 20-13 0-12 16 5 96 6 25 3 32-12 36-17 5-19 13-16 74 6 149 10 175 32 190 12 9 21 26 21 38 0 19-4 22-23 19-22-4-25 0-35 66-7 38-12 90-12 115 0 67-25 81-133 73-184-13-308-89-381-234-21-41-7-50 47-30 75 28 197 58 207 52 17-10 9-168-8-181-14-10-14-27-3-140 15-153 25-209 53-286 17-50 23-57 42-53 17 4 24-2 37-32 14-34 37-85 47-105 7-15-28-8-95 18-88 35-92 39-63 69 23 25 23 25-1 25-14 0-64 26-113 58-87 59-87 59-90 143-5 157-24 171-233 178-31 1-31 1-26 79 6 86-10 159-53 244-13 26-24 56-24 67s-10 32-23 47c-18 21-35 28-75 32-73 7-132-18-182-76-22-26-40-41-40-33 0 11-4 9-14-5-21-28-34-9-41 61-12 120-55 240-84 240-12 0-46-78-72-162-11-35-26-43-35-18-9 23-24 18-24-7 0-13-5-30-10-38-7-11-13-6-26 25-16 40-17 40-26 15-10-25-10-25-39 10-16 19-52 77-80 128-61 113-73 116-145 39-123-132-214-247-214-268 0-12-50-99-56-99-3 0-62 34-132 77-70 42-154 90-187 107-110 57-103 41-92 196 8 110 7 152-5 228-21 120-35 142-91 141-23 0-67-8-97-18zm107-127c13-58 17-278 4-270-5 3-17 50-26 103-24 133-31 143-100 143-46 0-64-6-112-36-53-34-56-35-33-10 14 16 45 40 69 54 50 29 161 72 176 68 6-1 15-25 22-52zm853-354c20-40 20-40-25-33-31 4-50 1-62-8-10-8 0 7 22 34 22 26 40 47 42 47 1 0 12-18 23-40zm-124-102c-13-31-58-210-87-340-16-74-3-136 49-239 42-84 173-272 205-294 17-12 58-15 182-16 160-1 160-1 28-24-146-25-181-35-222-65-26-17-35-19-81-10-29 6-75 10-101 10-60 0-84-21-94-81-4-24-20-76-35-116-16-39-32-88-36-109-4-20-16-46-26-56-17-17-19-28-13-74 3-30 12-57 20-61 21-12 90-103 114-150 11-23 21-58 21-78 0-37 0-37-42-1-51 44-179 108-273 136-227 69-345 181-395 376-22 84-27 194-9 194 6 0 60-34 119-75 106-74 111-76 167-75 32 1 74-3 93-9 46-15 103-14 118 1 7 7 12 28 12 47 0 27-9 44-37 73-36 37-36 37-12 57 13 11 27 20 31 21 4 0 10-20 14-46 6-45 6-45 46-42 37 3 43 7 66 51 14 27 27 70 30 96 4 45 2 50-45 102-112 124-154 216-179 404-9 61-18 125-20 142-3 19-15 39-27 48-197 138-275 200-264 212 3 3 28-10 54-29s77-52 113-73 102-62 148-92c137-89 171-86 239 20 46 72 135 197 139 197 2 0-3-15-10-32zm1669-85c10-115 8-285-6-370-5-37-13-100-16-139-5-72-5-72 117-219 127-152 133-165 70-165-20 0-35 16-78 81-30 44-75 126-101 182-55 116-66 180-81 477-9 178-13 200-39 200-9 0-22 4-30 9-17 11 50 28 115 30 42 1 42 1 49-86zm-1429-23c60-104 73-115 130-108 26 3 35 14 77 98 48 95 48 95 42 45-6-59-63-180-100-215-27-25-27-25-66 18-32 37-158 262-146 262 2 0 30-45 63-100zm-130 28c3-12 26-63 50-114 32-67 42-100 38-121-4-24 3-37 49-85 52-56 55-58 106-58 28 0 64 6 79 14 33 17 85 81 124 150 52 96 31 12-27-103-74-148-95-215-95-301 0-71 0-71-87-68-88 3-88 3-160 98-40 52-92 131-114 174-41 79-41 79-29 131 9 39 10 61 2 84-11 30-6 76 20 184 10 41 33 49 44 15zm720-45c4-16 22-59 41-98 44-92 43-117-4-150-25-16-41-21-47-15-15 15-92 12-105-4-6-7-36-100-66-205-31-106-61-207-69-224-12-31-13-29-19 51-8 101-1 124 89 299 60 118 65 132 63 186s0 61 45 122c26 36 52 65 57 65s12-12 15-27zm301-438c30-8 38-45 23-99-23-85-21-88 158-216 90-64 177-130 193-147 31-30 31-30 19-104-6-41-10-128-8-194 3-120 3-120 42-123 21-2 43 1 47 5 5 5 13 64 18 131 6 67 13 127 16 133 17 27 185 79 256 79 66 0 99 22 233 159 71 72 130 130 132 129 3-4 34-80 34-84 0-2-19-4-43-4-34 0-49-6-69-27-55-60-129-174-157-242-18-44-40-80-58-94-73-57-201-178-225-213-14-21-48-75-75-119-85-140-111-172-150-180-38-7-63 7-63 35 0 35-75 41-124 11-65-41-171-219-164-277 3-29 4-29 88-35 88-6 162-32 194-68 15-17 11-18-71-31-49-7-105-12-125-11-27 2-38-2-38-11s-27-20-77-32c-43-10-114-30-158-44-213-69-404 1-487 178-52 112-61 103 108 99 82-2 175-2 206-1 57 2 57 2 60 49s3 47 78 63c86 18 100 25 100 48 0 14 7 17 39 14 35-4 43 0 81 42 41 44 146 106 181 106 14 0 18 13 24 73 5 54 15 89 42 141 36 69 36 69 38 226 2 86 0 161-3 167-4 5-52 39-107 75-55 35-138 98-184 138-72 64-90 75-130 80-41 5-48 9-75 53-30 48-30 48 1 79 18 18 51 36 79 44 48 12 56 12 101-1zm-256-256c21-22 36-29 64-29 34 0 48-9 124-82 58-56 115-99 172-130 86-47 86-47 92-100 12-93 8-115-33-200-29-60-40-96-40-130 0-43-2-47-30-53-17-4-53-22-81-42-51-35-51-35-67-11-41 60-79 88-118 88-22 0-50-6-64-13-21-11-93-101-102-129-5-15-808 512-808 530 0 12 9 13 43 8 141-22 151-21 201 17 37 28 62 38 119 47 148 24 271 52 294 67 34 22 65 89 104 222 33 113 33 113 68 41 20-40 48-86 62-101zm1494-284c31-87 61-165 67-172s31-13 58-13c41 0 53 5 94 42 48 41 48 41 32 3-25-58-101-167-139-197-34-27-34-27-47 0-35 75-99 307-114 412-4 25-10 56-13 70-14 60 11 2 62-145zm-125 48c0-16 3-38 6-50 6-20 3-23-23-23-46 0-55 16-31 61 24 46 48 52 48 12zm-1890-481c352-230 395-262 398-287 4-28 4-28-162-22s-166 6-356 109c-175 95-191 106-201 138-16 49-57 120-90 155-28 30-28 30-13 98 9 37 19 67 22 67 4 0 185-116 402-258zm630-162c0-4-13-5-30-2-26 4-28 7-19 24 10 19 12 19 30 2 10-9 19-20 19-24zm1615 0c37-14 40-32 11-75-14-21-26-45-26-54 0-55-66-66-72-13-3 25-7 27-50 30-34 2-60-4-95-21-70-36-209-77-278-84-54-4-64-2-105 25-38 25-113 53-248 91-20 5-21 9-10 24 12 17 18 15 91-23 43-22 90-40 104-40s76 9 137 20 173 31 249 45c138 25 162 32 206 66 27 21 48 23 86 9z"/>
  <path id="n" d="m1360 3806c0-38 27-67 108-113 26-14 74-43 108-64 45-29 71-39 102-39 41 0 42 1 42 34 0 25-7 40-26 55-15 12-31 21-37 21-5 0-30 15-56 34-78 56-176 106-209 106-30 0-32-3-32-34z"/>
  <path id="o" d="m4380 2540c0-40 0-40 88-40 102 0 134 7 130 27s-110 53-170 53c-48 0-48 0-48-40z"/>
  <path id="p" d="m4398 2114c-15-32-25-25 178-145 84-49 160-89 171-89s32-13 48-30c16-16 32-30 36-30s34-18 67-40c45-31 69-40 101-40 22 0 41 5 41 10 0 6-4 10-9 10s-20 9-33 21c-12 11-44 33-70 47-25 15-77 45-115 66-37 22-70 42-73 46s-25 18-50 31c-25 14-71 41-103 62-31 20-60 37-62 37-3 0-28 16-55 35s-52 35-55 35-11-12-17-26z"/>
  <path id="q" d="m3660 1804c0-53 33-94 76-94 32 0 34 2 34 36 0 20-8 49-17 65-14 24-24 29-55 29-37 0-38-1-38-36z"/>
 </g>
 <g id="r" transform="translate(-1268.3 -1400)" fill="#49455d">
  <path d="m2158 4525c-10-13-18-38-18-54 0-29 2-31 38-31 42 0 85 24 80 46-2 8-21 25-43 38-40 24-40 24-57 1z"/>
  <path id="s" d="m2273 4458c-29-7-33-13-33-41 0-18 5-38 12-45 13-13 96-15 137-3 46 13 40 22-59 83-19 12-33 13-57 6z"/>
  <path id="t" d="m3327 4243c-58-96-60-104-48-174 6-37 11-84 11-103 0-29 4-36 20-36 15 0 24 15 42 73 24 78 27 137 9 205-11 39-24 52-34 35z"/>
  <path id="u" d="m4443 3802c-15-10-29-132-15-132 6 0 12-12 14-27 2-23 10-30 40-37 50-12 123 3 123 26 0 20-125 177-140 178-5 0-15-4-22-8z"/>
  <path id="v" d="m1930 3547c0-57 10-71 72-110 35-22 108-23 108-2 0 8 5 15 10 15 6 0 10 9 10 19 0 23-148 131-180 131-18 0-20-6-20-53z"/>
  <path id="w" d="m4291 3473c-23-15-23-20-17-99 4-53 2-84-4-86s-13-21-16-43c-4-22-12-45-19-50-8-6-11-22-8-38 5-24 10-27 44-27 39 0 39 0 39 55 0 53 1 55 26 55 27 0 27 0 20 95-11 160-17 172-65 138z"/>
  <path d="m4369 2878c-6-13-23-35-37-50-25-27-25-27 2-38 15-5 39-12 54-16 15-3 39-10 55-16 38-14 69 13 65 56-3 26-12 35-58 58-67 34-66 34-81 6z"/>
  <path id="x" d="m3480 2641c0-42 13-51 78-51 30 0 32 2 32 35 0 40-20 55-74 55-35 0-36-1-36-39z"/>
 </g>
 <g id="y" transform="translate(-1268.3 -1400)" fill="#32516c">
  <path id="z" d="m5078 1778c-3-24-23-28-65-14-20 6-23 4-23-18 0-19 4-24 15-19 9 3 15 2 14-3-4-28 20-53 80-87 53-28 80-37 117-37 44 0 46 1 28 15-10 8-15 15-10 15 18 0-126 170-145 170-4 0-9-10-11-22z"/>
 </g>
 <g id="aa" transform="translate(-1268.3 -1400)" fill="#50516e">
  <path id="ab" d="m2208 4487c-38-31-37-69 2-104 17-14 30-32 30-39 0-23 20-26 65-8 34 13 45 22 45 39 0 18-5 21-28 17-18-2-33 2-41 12-12 14-9 17 18 22 17 4 33 10 36 14 4 6-86 71-96 70-2-1-16-11-31-23z"/>
  <path id="ac" d="m3346 4332c3-16-3-48-15-80-11-28-17-52-12-52s13-24 18-52c11-71 34-76 54-11 9 32 22 51 37 58 22 10 31 35 12 35-5 0-12 27-16 59-5 49-10 60-28 65-45 12-56 8-50-22z"/>
  <path id="ad" d="m3262 4120c-28-55-32-71-26-109 4-29 16-53 32-68 25-23 62-31 62-14 0 5 3 17 7 27 4 12 3 15-5 10-9-5-12 6-13 36 0 24-6 75-12 113-13 70-13 70-45 5z"/>
  <path id="ae" d="m2702 3803c3-48 3-48 51-51 47-3 47-3 47 31 0 42-26 67-69 67-32 0-32 0-29-47z"/>
  <path id="af" d="m4393 3769c-18-12-33-26-33-32 0-23 94-148 108-142 7 3 22 5 33 5 12 0 16 5 13 15-4 9 0 16 7 16 8 1 1 4-15 8-40 8-36 24 10 37 42 12 52 25 30 43-11 9-23 8-56-3-42-14-42-14-19 10 19 20 20 24 6 24-22 0-22 9 1 26 30 23-48 17-85-7z"/>
  <path id="ag" d="m4320 3487c-34-17-46-29-51-52-11-50-10-203 1-210 14-8 13-65-1-65-7 0-9 9-6 21 5 18 2 20-18 15-17-4-27-1-34 11-7 14-11 8-16-28-12-78-6-94 38-97 33-3 39 1 55 27 9 17 20 31 25 31 4 0 7 6 7 13 0 6 13 19 29 28 27 16 28 20 35 121s0 208-13 208c-3-1-26-11-51-23zm-6-69c11-81 14-148 6-148-4 0-10 35-13 78s-9 86-13 95c-3 9-1 17 4 17 6 0 13-19 16-42z"/>
  <path id="ah" d="m2390 3350c0-15-7-20-25-20-22 0-25-4-25-34 0-28 7-40 39-65 41-32 98-43 88-17-3 8 0 17 8 20 12 4 35 64 35 91 0 16-59 45-91 45-22 0-29-5-29-20z"/>
  <path id="ai" d="m4436 2866c3-7-1-20-9-27-7-8-17-28-20-44-7-30-7-30 13-6 11 13 20 32 20 42 0 23 18 25 26 4 8-19 24-20 24-1 0 14-36 46-52 46-4 0-5-6-2-14z"/>
  <path id="aj" d="m4450 2781c-6-12-7-21-1-21 10 0 24 30 17 37-2 3-9-5-16-16z"/>
  <path id="ak" d="m3500 2694c0-10-13-14-47-14-67 0-93-9-93-31 0-12 15-26 43-40 23-12 56-34 73-50 42-41 126-52 143-20 8 14 21 21 42 21 29 0 30 1 27 41-3 39-7 44-53 69-59 33-135 46-135 24zm46-60c17-14 17-15 1-10-10 3-23 6-28 6s-9 5-9 10c0 14 13 12 36-6z"/>
  <path id="al" d="m3740 2516c0-18 7-39 15-46s15-23 15-36c0-40 33-54 93-40 29 7 51 17 50 22s14 8 33 6c29-4 34-1 34 16 0 13-11 24-32 33-18 7-59 28-91 46-33 18-72 33-88 33-26 0-29-3-29-34z"/>
 </g>
 <g transform="translate(-1268.3 -1400)" fill="#555777">
  <path id="am" d="m1572 4948c-28-46-36-78-21-78 7 0 41 17 76 38 80 47 85 72 14 72-45 0-51-3-69-32z"/>
  <path id="an" d="m2130 4548c0-13-7-32-15-42-26-35-17-53 42-90 32-20 60-36 64-36 16 0 18 34 4 50-15 17-15 19 4 32 12 8 18 18 14 21-3 4 2 7 13 7 18 1 18 1 1 11-13 8-24 5-44-10-31-26-52-28-31-3 29 33 28 40-8 61-44 26-44 26-44-1z"/>
  <path id="ao" d="m3339 4134c8-41 17-74 22-74 13 0 23 64 11 68-6 2-14 19-18 37-3 19-11 36-18 38-9 4-8-14 3-69z"/>
  <path id="ap" d="m2650 3946c0-19 5-38 10-41 6-3 10-25 10-49 0-45 13-66 42-66 10 0 23-9 30-20 17-26 98-29 98-4 0 9-32 61-70 115-57 79-76 99-95 99-22 0-25-5-25-34zm115-164c-9-9-35 8-35 24s2 16 20-1c11-10 18-20 15-23z"/>
  <path id="aq" d="m1836 3649c-3-17-6-48-6-68 0-33 5-39 60-74 40-24 72-37 95-37 35 0 35 0 7 28-15 15-21 21-12 15 36-28 42-11 9 23-34 36-34 36 6 19 22-10 48-22 59-27 12-6 16-6 12 0-6 10-211 152-219 152-2 0-7-14-11-31z"/>
  <path id="ar" d="m4354 3408c1-49 4-88 9-88 9 0 7 104-3 145-4 19-7-2-6-57z"/>
  <path id="as" d="m4316 3408c7-56 10-65 20-55 9 9-7 107-17 107-6 0-7-22-3-52z"/>
  <path d="m2550 2870c-12-8-9-14 20-39 30-25 36-27 42-13 4 10 7 27 7 40 1 18-4 22-26 22-16 0-35-5-43-10z"/>
  <path id="at" d="m3498 2696c-6-30-2-36 40-58 52-28 73-23 37 8-29 25-29 25 24-3 56-30 76-53 47-53-18 0-23-45-6-55 6-3 10-17 10-31 0-21 5-24 35-24 22 0 38 6 41 15 4 8 15 15 25 15 15 0 19 7 19 32 0 45-50 88-102 88-24 0-38 5-38 13 0 20-77 77-103 77-18 0-26-6-29-24z"/>
 </g>
 <g id="au" transform="translate(-1268.3 -1400)" fill="#5a5e7f">
  <path d="m1900 5149c-55-8-136-39-192-72-53-31-133-112-124-125 3-5 22-8 41-6 24 2 33-1 29-8-11-17 17-4 81 37 31 19 66 35 80 35 26 0 55-33 55-64s71-338 83-363c11-19 154-142 167-143 3 0 14 16 24 35 11 19 24 35 30 35s4 5-4 11c-11 8-12 12-2 16 7 3-24 29-70 59-132 87-126 75-120 254 4 142-7 267-26 296-4 6-25 7-52 3z"/>
  <path id="av" d="m2718 4758c-74-86-135-167-201-269-58-92-69-101-104-88-24 9-54 2-124-29-47-20-47-20-42-69 26-266 70-383 195-522 37-41 47-58 42-75-10-35-50-110-61-113-6-2-13 15-17 39-13 82-39 87-111 23-50-44-50-44 5-100 50-51 53-56 38-71s-21-15-83 4c-52 16-72 18-94 9-24-9-34-6-77 23-49 33-49 33-14-5s35-38 7-33c-27 5-27 5-11-13 32-35-5-20-111 47-58 36-109 63-115 59-30-19 6-223 57-318 59-110 180-196 348-247 93-28 222-92 271-134 29-24 50-34 72-34 26 1 31 5 37 35 8 42-1 85-28 138-22 46-92 136-113 148-8 4-14 18-14 31 0 15-14 33-45 55-49 35-71 60-36 41 17-9 26-9 36 0 8 7 20 8 27 4s2 5-12 20c-25 28-25 28 13 6 21-13 42-19 46-14 14 17 69 169 76 213 8 48 34 81 65 81 12 0 54-7 96-15 74-16 74-16 109 10 45 35 91 48 263 75 164 26 148 12 199 183 27 88 27 88-5 117-18 16-32 38-32 49s-5 32-11 48c-11 28-11 28-38-27-23-49-26-67-26-164 0-100-2-110-20-117-11-4-82-8-159-8-138-1-138-1-173 34-40 40-47 43-38 15 10-30-12-25-42 10-14 17-28 28-31 25s5-16 18-30c20-21 21-25 6-25-9 0-21 11-26 24s-13 27-19 30c-5 4-7 22-4 41 4 26 1 41-12 55-17 19-17 20 3 20 19 0 18 5-18 68-57 98-81 177-69 227 64 279 86 355 115 386 30 33 51 8 124-139 54-110 84-157 126-200 54-56 54-56 95-17 22 22 57 73 77 114 32 65 37 84 40 167 3 60 0 112-9 141-13 47-13 47-34-23-25-79-97-238-113-248-6-3-17-4-24-1-16 6-133 204-192 323-20 39-38 72-40 72s-29-28-58-62zm-476-1560c-16-16-25-19-33-11s-5 17 11 33 25 19 33 11 5-17-11-33z"/>
  <path id="aw" d="m4160 4624c-55-15-133-55-146-75-14-23 13-29 72-16 70 15 100 12 109-11 4-9 10-91 15-182 16-305 25-360 85-485 77-160 70-155 138-110 31 21 57 39 57 41s-35 45-77 95c-76 93-76 93-64 163 21 126 31 325 21 436-5 58-9 117-10 133 0 27 0 27-72 26-40 0-98-7-128-15z"/>
  <path id="ax" d="m3453 4544c-7-3-35-36-63-74-41-56-51-76-48-102 2-22 10-36 24-42 17-8 23-22 28-68 6-52 9-58 30-58 13 0 30-10 38-21 14-21 15-21 48-4 82 42 90 51 90 113 0 45-8 73-34 128-18 39-37 85-41 102-5 27-11 32-33 31-15 0-32-3-39-5z"/>
  <path id="ay" d="m3667 4076c-28-8-64-28-85-47-20-19-39-35-41-36-6-4 20-60 50-108 26-41 32-45 68-45s50-9 128-77c48-42 133-106 188-141 55-36 102-66 104-68s3-64 3-138c0-135 0-135-39-208-21-40-38-86-39-103-2-95-4-105-22-105-36 0-140-61-182-106-48-53-45-54-121 46-29 39-58 70-65 70s-26-23-44-50c-38-59-32-74 31-84 52-8 79-22 79-41 0-20-16-27-100-45-75-16-75-16-78-64-2-29 1-46 6-42 16 9 167-80 217-128 20-19 20-19-2-14-16 4-23 0-28-16-7-20-7-20-12-1-9 40-27 65-47 65s-20-1 2-18c23-18 23-19 7-58-15-37-17-38-31-20-8 11-14 36-14 55-1 28-3 32-10 19-13-22-47-13-85 22-16 15-57 41-90 58-57 29-67 31-201 34-141 3-141 3-127-52 38-143 121-249 228-289 70-27 189-37 260-23 78 15 275 74 275 82 0 4-12 15-26 25-21 13-24 19-13 26 11 6 7 15-16 41-17 18-23 27-15 21s52-30 97-52c82-41 82-41 194-21 62 11 114 22 117 25 8 8-26 53-60 78-47 36-119 57-192 57-34 0-65 2-68 6-9 8 50 124 91 177 58 77 131 109 131 58 0-9 5-22 12-29 13-13 87-15 125-4 26 8 69 65 143 187 29 50 65 105 79 123 23 32 149 148 214 199 18 14 40 50 58 94 28 68 124 214 168 253 33 30 46 15 60-75 27-178 102-433 140-481 18-22 18-22 71 17 54 42 124 138 161 221 15 33 23 77 26 134 5 85 5 85-31 25-41-68-128-155-155-155-28 0-36 15-95 180-77 220-116 324-125 333-4 4-76-63-161-148-151-152-195-183-237-172-10 3-56-4-103-16-85-22-85-22-85-97-1-194-2-199-35-218-16-9-30-21-30-25 0-16-52-77-61-71-5 3-7 20-3 39 3 19 1 35-5 39-17 11-13 186 5 292 17 92 17 92-21 126-20 18-110 85-199 149-122 88-160 121-158 135 10 60 14 126 8 148-11 43-95 57-189 32z"/>
  <path id="az" d="m5141 2926c-43-32-67-39-221-66-69-12-170-30-225-41-100-18-100-18-176 20-77 38-77 38-58 7 16-26 16-32 4-46-28-31-21-41 50-64 39-12 88-35 110-50 38-27 44-28 130-23 97 5 189 30 297 79 73 33 98 32 98-6 0-18 8-27 31-35 51-18 75-14 87 14 7 14 12 32 12 39s13 33 30 57c57 84 32 131-73 137-54 3-66 0-96-22z"/>
 </g>
 <g id="ba" transform="translate(-1268.3 -1400)" fill="#ff3c00">
  <path id="bb" d="m3596 4913c-2-10-13-51-22-90-10-40-22-73-26-73-11 0-10-41 4-99 11-50 12-51 48-51 34 0 38 3 50 39 9 29 10 51 2 87-6 27-14 72-17 99-9 77-16 105-25 105-5 0-11-8-14-17z"/>
  <path d="m3791 4566c-32-33-48-61-67-120-28-90-32-161-8-170 46-18 49-13 87 161 20 92 35 169 33 170-1 1-21-17-45-41z"/>
  <path id="bc" d="m4483 4452c-45-22-53-30-53-54s3-27 18-19c23 13 109 101 97 100-6 0-34-12-62-27z"/>
  <path id="bd" d="m1270 4133c1-128 1-128 257-282 225-134 258-151 269-137 24 34 95 12 197-60 47-34 47-34 47-9 0 14 5 25 10 25 6 0 10 7 10 16s9 18 20 21 20 8 20 12c0 3-77 56-170 116-94 61-278 181-410 268-132 86-242 157-245 157s-5-57-5-127z"/>
  <path id="be" d="m2155 4075c4-49 13-103 21-119s14-38 14-48 7-34 14-53c14-32 19-35 55-35s41 3 41 24c0 13-13 52-29 87s-37 90-47 121c-10 34-30 69-47 85-29 28-29 28-22-62z"/>
  <path d="m1270 3830c0-66 4-120 8-120 7 0 109-55 422-228 75-41 75-41 75 74 0 114 0 114-233 254-128 77-242 140-253 140-18 0-19-8-19-120zm300-125c25-18 55-35 66-39 12-4 29-15 39-26 30-33-2-24-69 18-34 21-87 54-119 73s-68 45-80 58c-19 21-12 19 48-14 39-21 90-52 115-70z"/>
  <path id="bf" d="m4795 3435c-11-19-17-36-15-38 12-9 90 15 90 29 0 8-6 14-14 14s-16 7-20 15c-9 24-21 18-41-20z"/>
  <path d="m1676 2929c-20-16-30-19-39-10-22 22-34 10-55-62-28-93-28-97 7-97 39 0 70 13 105 44 16 14 36 28 46 31 24 8 42 46 38 81-3 25-8 29-39 32-24 2-44-4-63-19z"/>
  <path id="bg" d="m4470 2640c0-34 5-43 37-65 35-23 46-25 147-25 109 0 109 0 86 25-13 14-35 25-49 25s-62 18-105 40c-102 52-116 52-116 0z"/>
  <path id="bh" d="m2318 2498c-9-24-39-95-67-158-29-66-51-130-51-150 0-19-7-48-16-65-8-16-18-51-21-77-5-40-3-48 11-48 9 0 16-2 16-4 0-5-29-72-60-141-25-55-68-251-57-262 4-3 8-4 10-2 104 138 158 222 148 228-9 6-8 15 4 37 14 27 15 28 15 6 0-36 15-24 80 63 65 85 160 271 160 310 0 13 5 27 10 30 6 3 10 22 10 41 0 32-2 34-33 34-25 0-42-9-70-38-20-21-37-44-37-51 0-6-5-9-10-6-10 6-3 55 9 65 4 3 14 23 22 45 42 105 51 165 24 165-8 0-15 5-15 10 0 6-15 10-33 10-29 0-34-4-49-42z"/>
  <path id="bi" d="m2740 2350c0-38-1-40-31-40-31 0-31 0-24-85 7-82 6-85-14-85-21 0-21 0-2-19 10-10 52-80 92-155 41-74 80-136 87-136 25 0 1 415-30 523-10 33-15 37-45 37-32 0-33-1-33-40z"/>
  <path id="bj" d="m3080 2333c0-16 7-46 14-68 9-23 12-57 9-80-4-32 1-51 21-87 14-26 26-55 26-66 0-19 199-256 208-247 3 2-7 37-21 77-13 40-39 120-56 178-48 160-52 172-72 214-11 22-19 48-19 59 0 30-25 47-69 47-38 0-41-2-41-27z"/>
  <path id="bk" d="m4073 2300c8-65 26-86 125-145 76-46 140-61 128-30-3 8-2 14 2 13 4-2 20 10 35 26 16 16 34 25 42 22 30-11 14 24-17 40-18 9-69 38-113 65-64 38-93 49-144 55-64 7-64 7-58-46z"/>
  <path id="bl" d="m3592 2095c3-31 12-63 21-73 25-27 21-32-23-32-39 0-40-1-40-33 0-22 11-47 30-73 16-21 30-45 30-51 0-7 4-13 9-13s13-9 16-20 13-20 22-20c19 0 42-28 43-51 0-21 42-59 64-59 13 0 16 5 12 18-4 10 2 7 13-8 11-13 19-27 18-30s15-27 37-53c37-45 66-61 66-34 0 26-30 138-40 150-6 7-35 50-66 97-43 66-52 86-40 88 24 5 20 58-9 100-14 20-25 40-25 43 0 4-13 21-30 39-16 18-30 41-30 51 0 16-7 19-41 19-41 0-41 0-37-55zm132-316c10-17 16-33 13-35-5-5-47 49-47 60 0 16 18 3 34-25z"/>
  <path id="bm" d="m4030 2103c0-22 9-33 40-50 21-13 42-23 45-23 9 0-68 99-77 100-5 0-8-12-8-27z"/>
 </g>
 <g id="bn" transform="translate(-1268.3 -1400)" fill="#6e5877">
  <path id="bo" d="m4460 2241c0-5 11-33 25-64 22-48 34-60 95-96 37-23 71-41 74-41s-11 32-31 71c-23 45-44 74-59 79-13 5-41 21-64 35-22 14-40 21-40 16z"/>
  <path d="m4394 2099c-9-16-4-20 182-130 84-49 160-89 170-89s32-13 49-28c25-24 189-132 199-132 2 0 13 9 26 20 22 19 22 19-19 26-27 4-56 19-85 45-24 22-53 39-63 39-19 0-250 133-361 208-75 52-88 57-98 41z"/>
  <path id="bp" d="m4360 2001c-55-6-55-6 10-48 60-40 70-43 133-43 37 0 67 4 67 9 0 10-134 92-147 89-4-1-33-4-63-7z"/>
  <path id="bq" d="m5015 1720c-3-5 1-13 10-16 22-9 29 1 11 15-10 8-16 9-21 1z"/>
 </g>
 <g id="br" transform="translate(-1268.3 -1400)" fill="#ff5007">
  <path d="m3508 4812c-182-217-259-321-278-377-25-72-46-112-91-171-22-28-39-54-39-57 0-4 17-7 38-7 33 0 43 7 92 62 52 58 55 64 52 107-3 38 2 54 30 96 80 120 162 173 224 144 28-14 42-35 62-94 6-16 23-59 38-95 35-80 40-196 11-228-9-10-17-29-17-41 0-19 4-22 23-18 106 26 191 19 232-19 27-25 27-25 103 1 76 25 76 25 29-23-40-40-47-54-47-86 0-39 0-39 100-32 130 9 131-4 5-63-52-24-95-47-95-52 0-8 135-99 147-99 6 0 89 52 120 75 2 1-8 29-22 62-30 74-31 83-52 263-9 80-17 146-18 148-1 1-44-14-96-34-135-51-283-104-293-104-5 0-6 27-2 61 4 45 2 64-8 74-7 8-16 11-20 8-13-14-5 31 23 117 16 49 26 90 22 90-3 0 0 4 8 9 7 5 10 14 6 21-5 8-17 2-40-20-53-52-68-40-83 65-7 50-16 101-19 115-5 24-6 23-22-13-9-21-20-35-25-30-5 4-7-2-3-14 3-13 2-23-3-23-10 0-22 59-14 71 3 5 0 9-7 9s-5 6 6 13c10 8 15 19 11 25-4 7-2 12 4 12s8 4 5 10c-3 5-1 27 5 47 6 21 10 57 8 80-3 42-3 42-110-85z"/>
  <path id="bs" d="m3011 4778c-5-13-19-55-31-94-23-71-23-71 5-117 15-26 30-45 34-42 4 2 16 22 25 44 17 37 17 43 1 135-10 53-19 96-21 96-3 0-8-10-13-22z"/>
  <path d="m2677 4265c-19-75-19-75 50-183 67-104 70-107 109-110s39-3 81 120c43 122 43 122 15 156-65 82-56 81-80 17-12-31-22-63-22-70 0-22-20-28-39-11-9 8-32 47-51 86-19 38-36 70-39 70s-14-34-24-75z"/>
  <path id="bt" d="m2155 4137c14-54 52-147 58-142 4 3 5 2 3-1-5-6 35-56 41-50 2 2-8 39-22 84-18 55-35 88-56 106-30 27-30 27-24 3z"/>
  <path id="bu" d="m4541 4126c-129-12-120-5-135-109-6-36-4-48 7-53 8-3 68 30 135 73 66 43 128 83 138 90 18 11 17 12-6 11-14-1-76-6-139-12z"/>
  <path id="bv" d="m2168 4004c-4-4-6-16-3-28 13-67 14-136 3-136-7 0-55 36-105 80-102 88-101 88-87-13 7-46 7-46 129-126 67-44 130-83 139-87 11-4 27 2 44 19 26 25 27 30 22 92-4 42-11 69-20 75-11 7-16 4-18-10-2-11-8-20-13-20-14 0-41 69-35 86s-46 79-56 68z"/>
  <path id="bw" d="m2033 3720c-3-11-11-20-18-20s-15-7-19-15c-3-8-1-15 4-15 6 0 10-6 10-13s30-37 67-66c56-45 70-52 85-42 10 6 25 11 33 11 13 0 15 7 10 34-4 21-3 36 5 41 14 9-126 105-153 105-11 0-21-9-24-20z"/>
  <path id="bx" d="m4252 3657c48-45 55-56 51-80-5-23-2-27 18-27 13 0 32 7 43 15 18 14 17 16-15 61-25 34-47 51-84 65-27 11-54 19-60 19-5 0 15-24 47-53z"/>
  <path id="by" d="m4815 3467c-31-48 8-70 84-48 49 13 29 55-31 65-32 6-39 3-53-17z"/>
  <path id="bz" d="m1651 3382c-64-27-64-27-25-39 21-6 51-12 67-12 15-1 27-3 27-6s-27-92-60-198c-35-115-59-209-58-234 0-41 1-42 21-28 12 8 30 15 40 15s30 9 44 20 29 17 34 14c12-7-12-43-33-49-9-3-31-19-50-35-18-16-47-32-65-36-29-6-33-11-53-82-12-43-24-85-27-96-5-14-2-17 13-12 10 3 129 35 264 71s275 73 313 84c37 10 67 15 67 11 0-3-38-81-85-172-84-163-94-188-76-188 5 0 67 45 136 100 70 56 129 99 131 97 5-5-24-156-46-242-12-44-37-154-55-245-19-91-45-213-58-273-23-102-23-107-6-107 11 0 19 4 19 10 0 5 13 39 30 74 51 112 80 185 80 201 0 8 5 15 11 15s9 7 5 15c-3 8-1 15 5 15s8 7 5 16c-4 10-2 13 6 8 7-5 9 0 6 14-4 12-2 20 3 16 8-5 13 12 12 43-1 7 4 10 10 6s8 2 5 15c-4 12-2 22 4 22 5 0 6 5 2 12s-3 8 4 4c12-7 12-66-1-66-4 0-7-6-5-12 1-7-7-31-19-53-11-22-22-44-23-50-8-33-30-85-70-165-25-51-26-59-15-85 8-17 14-24 14-17 1 7 5 11 10 8 18-11 71 70 71 108 0 19 14 70 31 113 40 101 87 214 99 235 6 10 6 18 0 20s-6 28 0 68c17 112 50 405 50 438 0 30-2 32-37 32-21 0-51-9-68-20-16-11-33-20-38-20-4 0 7 27 24 61 16 34 28 67 26 73-3 7-31 20-63 30-57 17-62 17-174-4-159-30-280-39-280-23 0 7-5 13-12 13-9 0-9 3 0 12 7 7 12 27 12 44 0 24-5 33-19 36-18 3-17 8 10 92 30 90 30 90-5 160-18 39-36 82-39 96-6 23-52 61-74 59-4 0-37-12-72-27zm734-892c10 0 11-7 3-32-21-63-47-123-48-108 0 9-6 5-15-10-17-29-19-44-5-35 6 3 7-1 4-9-3-9-11-13-17-9-7 4-8 0-4-11 8-19-52-158-73-171-10-6-11-3-6 11 5 10 9 37 11 59s30 102 64 178 61 143 62 150c0 9 2 9 6 0 2-7 11-13 18-13zm-165-430c-13-23-30-35-30-20 0 20 21 51 31 45 6-4 5-13-1-25z"/>
  <path id="ca" d="m4451 3022c-17-27-31-51-31-55 0-3 15-7 33-9 24-2 33-8 35-25 2-13 9-23 16-23 8 0 34-12 60-26 41-23 51-25 91-16 41 9 274 138 275 153 0 3-46 9-102 12-57 4-152 14-213 22-60 8-115 15-121 15-7 0-26-22-43-48z"/>
  <path d="m4332 2698c2-13 17-32 35-43s32-23 33-26c0-3-54-6-119-5-66 1-123-2-126-6-4-4 6-19 23-33 33-28 72-99 72-133 0-11-9-27-21-35-19-14-18-16 33-48 44-27 70-35 153-45 55-7 114-13 130-13 27 0 25 3-27 29-31 16-59 34-63 40-3 5-13 10-22 10-8 0-47 24-86 53-71 52-71 52 33 57 94 5 102 6 77 18-16 6-33 12-38 12s-9 5-9 10c0 15 28 12 98-10 101-32 285-40 268-12-3 5 9 7 27 5 29-4 27-2-22 26-48 27-64 31-133 31-64 0-82 4-97 19-11 11-21 17-24 15-2-2-10 2-17 11-10 11-10 18-1 29 15 18 12 19-75 45-92 27-106 27-102-1z"/>
  <path d="m2739 2458c0-89-3-108-11-90-15 30-82 32-98 2-16-29-30-24-30 10 0 27-3 30-31 30-44 0-139-80-139-118 0-25 0-25 28-1 15 13 21 17 15 9-7-8-13-24-13-36 0-31-84-206-95-197-5 4-3-1 5-11 14-18 13-19-3-13-17 6-17 6 0-17 18-23 18-23 60 34 23 32 46 61 51 64 10 6 22-142 22-281 0-50 4-94 9-97s19 31 31 77c12 45 37 133 56 195 39 124 52 136 96 84 42-50 51-50 45-1-8 73-14 114-22 147-4 19-3 32 3 32 15 0 25-30 28-90 1-30 5-71 8-91 5-28 2-38-10-43-14-5-13-9 2-35 10-17 21-28 26-25 4 3 8-2 8-10 0-15 18-32 26-24 2 3-4 55-14 117-11 61-17 122-15 135 3 14-2 35-11 48-9 12-16 27-16 33 0 5 5 3 10-5 7-11 10-3 10 30 1 41 2 43 12 20 5-14 11-45 13-70s5-58 8-75c8-45 17-105 22-154 3-24 11-53 18-65 10-17 13 9 17 154 4 149 7 175 20 172 23-5 43-26 172-174 111-129 146-161 131-121-4 11-3 14 6 9 20-12 6 37-28 99-21 38-26 55-17 55 15 0 9 43-17 118-11 32-11 39 0 39 7 0 13-7 13-14 0-8 5-11 12-7s8 3 4-4c-4-6 2-31 12-54 11-24 32-71 47-105 31-71 51-83 40-25-7 37-7 37 17 15 12-12 124-121 248-243 123-121 230-220 237-220 17 0-60 128-104 175-7 8-13 17-13 22 0 4-14 26-31 48-30 40-30 40 7 43 26 2 41-2 55-17 11-11 19-23 19-27 0-3 27-47 60-96 34-50 67-103 75-118 18-35 55-47 55-17 0 19-79 343-122 495-11 39-18 77-16 83s21-2 43-17c248-172 270-185 273-163 6 38-30 69-170 146-137 75-137 75-185 59-26-8-67-18-90-22-24-4-43-12-43-18s7-45 15-86c30-149 30-139 6-133-12 3-72 58-134 123-90 94-124 123-172 145-77 35-127 75-162 130-15 25-31 45-35 45-5 0-8-38-8-85 0-69 3-86 18-94 9-6 13-11 8-11s-74 65-152 145c-131 133-146 145-178 145-36 0-36 0-37-112zm897-346c-6-11 41-82 54-82 6 0 10-6 10-13s11-29 25-50c14-20 21-37 15-37-12 0-40 24-40 34 0 4-16 28-35 56-38 54-54 100-35 100 6 0 9-4 6-8z"/>
  <path id="cb" d="m4084 2379c-99-17-124-28-124-55 0-18 9-29 35-41 23-11 35-24 35-37 0-33 8-40 140-115 115-65 183-90 164-59-9 15-11 67-2 62 4-2 9 0 12 5s-2 12-11 15c-9 4-19 2-23-4-4-7-32 4-76 31-78 47-126 88-118 101 3 5 0 16-7 24-9 12-9 14 2 10 8-2 29-7 47-10 28-5 32-3 32 17-1 35-56 64-106 56z"/>
  <path id="cc" d="m3225 2045c4-11 8-28 10-38 2-9 18-44 34-78 17-33 31-63 31-66 0-4-15 6-32 23-33 29-33 29-1-6 18-20 41-36 51-36 18 0 18 3 3 57-10 38-21 59-32 62-10 3-29 27-44 53-14 27-23 40-20 29z"/>
 </g>
 <g id="cd" transform="translate(-1268.3 -1400)" fill="#ff8718">
  <path id="ce" d="m2573 3318c-20-83-20-83 35-117 39-25 70-36 108-39 50-4 53-3 68 27 9 17 21 31 26 31 6 0 10 8 10 18s-31 37-83 69c-45 29-96 62-113 73-31 20-31 20-51-62z"/>
  <path d="m3935 2346c-75-17-70-35 23-90 58-34 89-46 118-46 37 1 38 1 16 13-12 7-19 16-16 20 4 4 2 7-6 7-9 0-10 3-1 14 13 15 5 24-48 51-23 11-30 19-22 25 23 14-12 17-64 6z"/>
 </g>
 <g id="cf" transform="translate(-1268.3 -1400)" fill="#ff9521">
  <path id="cg" d="m2777 3247c-10-12-24-31-31-41-11-16-17-18-44-8-30 10-32 9-32-13 0-30 74-75 123-75 30 0 36 5 47 33 8 17 20 40 28 50 17 19 12 25-48 61-24 13-27 13-43-7z"/>
  <path id="ch" d="m2582 3133c31-34 72-106 87-155 10-30 37-57 46-46 19 20 45 86 45 111 0 30-6 37-70 75-43 26-83 42-102 42-32 0-32 0-6-27z"/>
 </g>
 <g transform="translate(-1268.3 -1400)" fill="#ffc401">
  <path id="ci" d="m3548 4673c-35-36-36-59-2-67 15-4 28-5 31-3 2 3 3 26 1 52-3 47-3 47-30 18z"/>
  <path id="cj" d="m3656 4392c-2-4 2-32 9-62 13-58 17-54 29 33 4 31 2 37-14 37-10 0-21-3-24-8z"/>
  <path id="ck" d="m3208 4300c-37-39-71-69-76-66s-16-1-23-10c-17-21-63-44-88-44-11 0-36 14-56 31-41 36-31 49-86-113-19-54-37-98-41-98-5 0-42 52-83 116-70 106-95 129-95 85 0-35 79-179 152-276 81-109 105-133 117-119 4 5 27 65 52 132 43 124 43 124 57 83 13-39 16-41 52-41 39 0 39 0 120 168 69 142 80 171 73 196-8 29-8 29-75-44z"/>
  <path id="cl" d="m4120 4196c-14-8-59-23-100-34-42-12-88-26-103-31-27-10-27-12-13-40 22-42 29-100 18-149-10-42-10-42 33-72 24-17 47-30 52-30 4 0 50 19 100 42 91 42 93 44 93 78 0 57-5 59-104 48-48-5-91-7-94-4-3 4 31 44 76 90 93 95 111 139 42 102z"/>
  <path d="m3595 4148c-22-16-46-33-54-38-9-4-11-14-7-25 6-17 8-16 30 4 13 13 41 29 62 36 26 9 38 19 39 34 2 29-22 26-70-11z"/>
  <path id="cm" d="m2277 3820c3-52 7-97 9-99s12 4 23 13c10 9 30 20 44 24 25 7 25 7-16 63-23 31-47 65-54 75-9 15-11 0-6-76z"/>
  <path d="m4297 3563c-3-16-5-28-4-29s18 5 37 13c33 14 34 16 15 29-28 21-42 17-48-13z"/>
  <path id="cn" d="m1810 3118c-17-57-36-115-42-129-5-15-8-35-6-46 1-10-7-32-20-47-23-30-29-56-12-56 5 0 25 9 45 20 45 25 53 25 31 1-25-27-6-33 53-15 28 8 56 12 61 9 12-7 370 56 370 66 0 4-30 17-67 30-38 12-83 30-102 40-25 13-46 16-82 12-49-6-60 2-37 25 9 9-2 24-48 66-33 29-68 70-79 90s-23 36-26 36c-4 0-21-46-39-102zm-5-168c-19-21-35-26-35-12 0 5 10 14 23 20 31 15 32 14 12-8z"/>
  <path id="co" d="m4422 2975c-11-25-10-27 34-45 25-11 48-20 51-20 11 0 123 53 120 56-2 2-39 8-83 14-43 6-86 13-95 16-10 3-20-5-27-21z"/>
  <path id="cp" d="m2289 2804c-27-58-47-110-43-115 3-6 43 10 91 36 47 25 87 44 89 42 4-3-30-303-46-409-19-130-9-156 41-102 13 14 52 48 85 74 62 48 62 48 68 3 3-25 6-67 6-92 0-46 0-46 43 33 23 44 47 81 53 83s25-26 42-62c18-36 36-65 41-65s9 68 10 152 4 154 6 156 75-69 164-157c88-89 167-161 175-161 24 0 28 16 15 62-6 24-13 68-14 98-2 37-14 77-35 122-17 37-37 97-43 132-9 54-15 67-39 81-28 16-28 16-28-15 0-17 5-51 11-74 6-24 9-53 7-66-2-18-15-7-81 69-71 83-82 91-114 91-29 0-48-11-107-62-39-34-82-74-96-90-25-29-25-29-22 64 2 51 8 95 13 98 17 11-202 180-233 180-5 0-32-48-59-106z"/>
  <path id="cq" d="m4143 2753c-13-2-23-11-23-19s-11-14-27-15c-51-2-88 3-91 12-7 18-20 9-36-25-20-42-20-57-1-50 20 8 111-14 165-41 39-19 63-22 177-23 123-2 161 6 131 24-9 6-5 10 12 14 23 5 21 8-30 40-123 80-190 100-277 83z"/>
  <path id="cr" d="m3280 2283c0-4 60-71 133-147 129-135 133-138 181-144 49-5 49-5 42 44-4 27-9 65-11 84-5 47-15 101-21 123-5 16-14 17-77 11-66-5-174 9-229 31-10 4-18 3-18-2z"/>
 </g>
 <g id="cs" transform="translate(-1268.3 -1400)" fill="#ff9e2a">
  <path id="ct" d="m2833 3218c-5-7-16-28-23-46-8-21-18-31-26-28-10 4-14-2-14-18 0-30 73-76 119-76 30 0 31 1 31 49 0 28 5 53 10 56 17 11 11 19-34 48-50 31-50 31-63 15z"/>
  <path id="cu" d="m2713 3056c17-13 17-16-8-61-15-26-25-48-23-49s28-17 60-34c56-31 56-31 72-7 21 31 30 77 22 107-7 30-58 58-104 58-33-1-35-2-19-14z"/>
  <path d="m3460 2147c0-4 9-21 20-39 11-19 15-35 10-38-14-9 55-73 74-68 12 2 2 20-40 73-67 83-64 80-64 72z"/>
 </g>
 <g id="cv" transform="translate(-1268.3 -1400)" fill="#ffa938">
  <path id="cw" d="m2895 3181c-3-5-6-30-7-55-2-39-4-43-20-35-12 7-18 6-18-1 0-42 85-100 147-100 35 0 40 3 51 33 21 59 16 69-61 120-78 50-83 52-92 38z"/>
  <path id="cx" d="m2787 3010c24-22 21-47-7-78-10-10-15-23-12-29 10-15 170-99 176-92 3 3 8 36 12 75 6 69 6 69-58 107-40 23-78 37-98 37-34 0-34 0-13-20z"/>
 </g>
 <g id="cy" transform="translate(-1268.3 -1400)" fill="#ffcc25">
  <path id="cz" d="m3120 2922c0-23-19-42-41-42-19 0-29-20-29-59 0-23 9-32 59-59 59-32 61-32 200-32 141 0 141 0 141 29 0 26-10 35-97 89-134 81-157 92-198 92-27 0-35-4-35-18z"/>
  <path id="da" d="m4e3 2706c0-20 78-35 107-21 44 20 26 35-42 35-50 0-65-3-65-14z"/>
  <path id="db" d="m2734 2367c-2-7 0-24 5-38 9-22 10-21 10 14 1 37-5 48-15 24z"/>
 </g>
 <g id="dc" transform="translate(-1268.3 -1400)" fill="#ffb549">
  <path d="m3624 4169c-27-29-27-31-6-25 14 5 22 3 22-4 0-26 23-2 26 28 5 40-4 40-42 1z"/>
  <path id="dd" d="m3026 3096c4-17 2-26-6-26-6 0-9-4-5-9 3-5 1-12-5-16s-7-11-4-17c5-7 0-9-14-6-18 5-22 2-22-17 0-23 12-33 120-93 25-14 48-30 52-36 7-10 12 6 9 27-2 11 6 9 50-14 23-11 42-19 43-17 9 14 26 61 26 72 0 12-56 52-197 143-54 34-54 34-47 9z"/>
  <path d="m2912 2937c22-17 14-94-11-99-9-2 21-24 69-49 71-39 97-47 158-53 60-5 72-4 72 9 0 8-13 21-30 30-16 9-30 20-30 26s-7 8-15 5c-9-3-18 1-21 9-4 8-10 12-15 9s-6 2-3 10c3 9 9 14 13 12 4-3 13-1 21 5 12 7 12 9 2 9-8 0-45 20-83 45-51 33-79 45-107 45-32-1-35-2-20-13z"/>
  <path id="de" d="m4315 2660c20-23 20-23-20-16-57 11-37-3 31-20 35-10 59-12 63-6 3 5 15 12 26 14 14 3 5 9-30 20-27 9-59 20-70 24-20 7-20 7 0-16z"/>
  <path id="df" d="m3093 2255c-9-10-6-18 11-34 30-28 36-27 36 8 0 32-27 47-47 26z"/>
 </g>
 <g id="dg" transform="translate(-1268.3 -1400)" fill="#ffd445">
  <path id="dh" d="m2953 2999c-33-10-62-45-46-58 38-33 178-112 181-103 2 7 8 10 13 7 12-8 62 42 54 54-3 5 0 11 5 13 6 2-6 12-27 23s-58 32-82 47c-49 30-51 31-98 17z"/>
 </g>
 <g id="di" transform="translate(-1268.3 -1400)" fill="#ffdb63">
  <path id="dj" d="m2710 3151c0-20-6-30-20-34-42-11-17-37 106-111 122-74 157-89 151-64-3 16 64 39 80 26 7-5 13-5 17 1 4 5-6 18-21 29-42 29-300 182-307 182-3 0-6-13-6-29z"/>
 </g>
 <g transform="translate(-1268.3 -1400)" fill="#ffe17c">
  <path id="dk" d="m2548 3226c-16-44-16-44 10-69 15-14 51-39 80-56 46-27 55-29 75-18 30 16 35 26 30 48-4 15-2 18 12 12 11-4 16-2 12 4-6 9-188 123-198 123-3 0-12-20-21-44z"/>
 </g>
 <g id="dl" transform="translate(-1268.3 -1400)" fill="#ffdd97">
  <path id="dm" d="m3240 2968c0-2-7-21-14-43-14-39-14-39 81-98 118-72 143-83 143-60 0 9 7 24 16 34 15 17 10 23-99 94-105 68-127 80-127 73z"/>
  <path id="dn" d="m3157 2760c11-23 21-30 44-30 38 0 30 14-21 40-38 19-38 19-23-10z"/>
 </g>
 <g id="do" transform="translate(-1268.3 -1400)" fill="#fff8e5">
  <path id="dp" d="m2971 4025c-28-74-51-138-51-142 0-5-6-20-14-35-22-41-5-47 119-41 110 6 110 6 110 92 0 71 5 97 28 150 15 35 25 66 23 68s-23-21-47-51c-24-31-47-56-51-56s-17 34-29 75-25 75-29 75-31-61-59-135z"/>
  <path d="m3501 4099c-13-5-32-7-41-4-13 4-19-2-24-22-21-90-92-315-112-354-12-25-34-53-47-62-23-15-146-43-294-67-56-9-82-19-118-46-45-35-45-35-135-17-102 19-109 16-113-41-2-39-2-39 423-317 234-153 427-279 430-279 4 0 11 15 18 33 18 48 79 127 108 137 35 14 55 1 105-65 23-30 48-55 55-55 8 0 37 18 65 40 27 21 74 47 104 56 54 17 54 17 38 55-15 38-14 40 26 124 44 91 50 137 34 263-6 53-6 53-92 100-57 31-114 74-172 130-76 73-90 82-124 82-46 0-78 31-122 121-35 73-34 111 3 136 14 9 24 25 24 39 0 26-3 27-39 13z"/>
  <path id="dq" d="m1270 3952c0-25 20-39 242-172 133-80 247-146 254-148s14 11 17 30c3 18 8 42 12 53 5 17-6 28-72 68-56 34-89 47-116 47-20 0-37 5-37 10 0 6-9 10-20 10s-20 4-20 10c0 5-11 12-25 16-13 3-29 12-36 20-6 8-20 14-31 14-10 0-21 7-24 15-4 8-13 15-21 15s-26 9-40 20-39 20-54 20c-25 0-29-4-29-28z"/>
  <path d="m2659 2811c-19-60-28-77-45-79-11-2-27 4-34 13-29 35-37 17-43-102-3-65-9-128-12-139-5-15-1-23 12-28 14-6 29 4 63 41 44 48 183 173 192 173 3 0 51-52 107-115 65-73 109-115 121-115 23 0 23-5 10 79-30 189-13 166-189 262-157 85-157 85-182 10z"/>
  <path id="dr" d="m3995 2748c-45-54-39-58 98-58 122 0 122 0 92 25-16 13-36 22-44 19-8-2-22 3-32 12s-34 19-53 24c-32 7-39 5-61-22z"/>
  <path id="ds" d="m3875 2333c-49-11-47-15 24-54 71-40 101-44 101-15 0 11-93 79-103 75-1-1-11-3-22-6z"/>
 </g>
 <g id="dt" transform="translate(-1268.3 -1400)" fill="#fffef3">
  <path id="du" d="m3538 4111c-19-7-64-81-50-81 5 0 26 15 48 34 39 34 40 61 2 47z"/>
  <path d="m1270 3990c0-36 4-60 11-60 5 0 7 5 4 10-12 19 14 10 44-16 17-14 35-23 40-20s11-1 15-9c3-8 14-15 24-15 20 0 46-23 37-32-3-3 2-5 12-5 35 0 44-3 38-13-6-9-2-12 28-14 6-1 21-9 31-18 10-10 23-15 27-12 4 2 10 0 14-6 3-5 15-10 27-10 17 0 18 2 8 15-8 9-9 15-2 15 6 0 13-4 16-9s15-7 26-4 17 9 15 14c-6 8-402 249-411 249-2 0-4-27-4-60z"/>
  <path d="m3693 3764c15-16 27-35 27-41 0-14 27-36 40-31 6 2-13 26-42 53-29 28-40 36-25 19z"/>
  <path id="dv" d="m1955 3030c-37-59-24-72 64-64 105 11 114 17 61 44-25 12-57 31-72 42-27 19-27 19-53-22z"/>
  <path id="dw" d="m4015 2770c-21-23-16-32 21-36 14-1 34-10 44-19 12-11 33-15 64-14 46 3 46 3 24 26-12 13-27 23-34 23-8 0-29 9-49 20-44 25-48 25-70 0z"/>
  <path id="dx" d="m3010 2531c0-16 8-35 17-42 15-12 16-12 10 4-4 10-7 30-7 43s-4 24-10 24c-5 0-10-13-10-29z"/>
  <path id="dy" d="m3957 2273c-15-16-13-18 33-45 60-34 70-35 70-5 0 15-12 29-40 45-47 26-42 26-63 5z"/>
 </g>
 <g id="dz" transform="translate(-1268.3 -1400)" fill="#fff">
  <path id="ea" d="m2211 3266c-26-14-50-51-51-77 0-23 32-49 62-49 29 0 64 34 73 72 5 19 1 32-14 47-24 24-37 25-70 7z"/>
  <path id="eb" d="m3586 2565c-31-48-8-125 39-125 8 0 24 9 35 20 23 23 27 85 6 113-19 25-61 22-80-8z"/>
  <path id="ec" d="m4102 2381c-24-6-24-6 0-27 33-31 259-164 277-164 9 0 27-3 40-7 17-4 22-3 17 6-9 14-294 201-304 200-4-1-17-4-30-8z"/>
  <path id="ed" d="m4030 2247c0-8-6-17-12-20-7-2-11-6-8-9 17-16 332-179 337-174 12 12-31 46-150 117-67 40-132 79-144 87-20 13-23 12-23-1z"/>
  <path id="ee" d="m5017 1723c-10-9 25-63 53-83 49-35 190-67 190-44 0 11-34 33-50 34-8 0-54 22-102 49s-89 47-91 44z"/>
 </g>
</svg>
