<svg id="a" class="img-fluid" width="256" height="256" version="1.1" viewBox="0 0 2560 2560" xmlns="http://www.w3.org/2000/svg">
 <g id="b" fill="#400d1d">
  <path d="m513 2358c-6-13-39-111-73-218-120-371-202-625-210-645-4-11-31-94-60-185s-66-205-82-253c-16-49-28-92-26-97 3-8 161-125 323-240 43-30 83-60 89-65 6-6 58-44 116-85s107-77 110-80 52-39 110-80 107-77 110-80 58-44 123-90c65-47 143-103 173-124 54-39 54-39 108 0 30 21 108 77 173 124 65 46 120 87 123 90s52 39 110 80 107 77 110 80 46 34 95 69c132 95 536 389 544 397 2 2-11 50-29 107-18 56-59 181-90 277s-85 263-120 370c-34 107-66 204-70 215-10 25-16 44-80 245-29 91-57 175-63 188-10 22-10 22-757 22s-747 0-757-22zm1394-150c18-41 154-470 150-474s-130 374-143 429c-6 27-6 27-635 27-534 0-629-2-629-14 0-8-60-196-133-418-211-639-217-658-217-715 0-29 4-53 8-53 5 0 37-22 73-50 35-27 69-50 75-50s19-10 30-21c10-12 77-62 148-113 70-50 145-103 165-118 72-54 147-109 211-154 137-96 230-167 226-172-3-2-44 25-91 59-48 35-140 102-205 149-210 152-404 292-455 330-27 20-92 68-142 105-51 38-93 72-93 76s16 54 35 111c19 56 100 306 180 553 80 248 152 469 161 493 16 42 16 42 643 42 628 0 628 0 638-22zm-60-218c17-52 77-237 133-410 57-173 117-360 135-415 33-99 33-99-60-165-52-36-158-112-237-169-588-429-534-396-588-354-27 21-105 78-174 127-70 49-145 110-167 137-26 31-49 49-62 49-29 0-55 17-237 149-83 61-158 115-166 119-11 6-1 48 55 217 38 116 110 338 161 495s96 293 102 303c8 16 42 17 541 15 532-3 532-3 564-98zm311-555c0-5-6 4-13 20-8 17-14 37-14 45s7-1 14-20 13-39 13-45zm118-423c-15-15-16-12-16 34 0 28-11 84-25 124s-25 78-24 84c0 6 19-42 41-107 37-110 39-120 24-135z"/>
  <path d="m737 1878c-26-79-48-160-47-180 0-34 6-42 76-97 42-32 89-65 103-72s37-23 51-35 60-45 102-73c43-29 80-57 84-62 3-5 20-9 38-9 24 0 41-10 71-40 35-36 44-40 87-40 45 0 57 6 184 98 75 53 173 123 217 155 173 122 167 115 167 167 0 27-18 101-43 181-44 134-44 134-81 137-28 3-45-3-74-25-20-16-47-35-59-43-11-8-83-60-160-116-76-55-143-104-150-107-6-4-29 5-51 20-22 16-84 59-138 97-55 38-115 84-134 102-47 45-124 84-163 84-33 0-33 0-80-142zm145-108c33-42 143-130 164-130 4 0 17-9 28-19 12-11 44-31 71-47 28-15 61-35 74-46 31-23 91-23 122 1 13 10 47 30 74 44 81 41 237 159 271 204 33 43 33 43 48-10 12-41 13-55 3-64-7-7-82-61-167-122-85-60-183-130-217-155-62-46-62-46-218 66-179 129-193 139-267 190-55 38-55 38-44 88 5 27 12 50 15 49 4 0 23-22 43-49z"/>
  <path id="c" d="m627 1503c-18-30-118-359-115-380 2-14 12-31 23-37s39-27 62-46c40-34 83-67 167-131 21-16 46-29 55-29s39-23 66-50 53-50 58-50 25-13 44-30c18-16 42-30 51-30 10 0 31-14 48-31 16-17 58-53 94-80 55-42 71-49 110-49 52 0 42-7 596 399 179 132 184 136 184 170-1 20-27 113-58 206-57 170-57 170-98 173-33 2-49-3-87-30-61-44-351-252-453-327-92-66-63-73-249 62-33 24-91 66-128 93s-93 69-125 93c-108 83-160 111-202 111-21 0-41-3-43-7zm1301-293c22-45 22-45-6-68-15-13-43-34-62-48-19-13-51-37-71-52-55-41-260-189-365-262-51-36-101-74-112-83-19-17-25-14-198 112-99 71-194 140-212 153s-63 46-100 73c-37 28-79 58-94 68-22 14-28 25-28 52 0 25-4 35-16 35-11 0-14 5-9 17 3 10 11 39 16 66 10 42 29 57 29 22 0-22 47-71 103-106 28-18 73-50 98-71 26-21 51-38 57-38 5 0 15-7 22-15s51-40 99-71c47-32 104-72 127-91 63-51 84-46 216 46 279 195 428 306 428 318 0 7 8 29 17 48 17 36 17 36 29-12 6-26 21-68 32-93z"/>
 </g>
 <g id="d" fill="#3a6567">
  <path id="e" d="m712 2103c-11-21-162-482-162-495 0-26 126 4 133 32 3 12 14 20 27 20 19 0 21 4 16 25-4 16 9 71 40 162 26 76 48 139 49 141 6 7 103-52 135-82 19-18 79-64 134-102 54-38 123-86 153-107 64-45 36-56 246 97 77 56 149 108 160 116 12 8 39 27 60 43 21 17 42 26 46 21 10-10 91-263 91-281s114-17 128 0c9 10-6 65-56 218-67 204-67 204-629 207-528 2-563 1-571-15z"/>
  <path d="m1751 1490c-33-28-59-42-193-105-51-23-58-30-58-56 0-21-5-29-18-29-10 0-36-22-58-50-42-53-44-54-161-50-40 1-63-2-63-9 0-6-9-11-19-11-20 0-37-29-24-40 55-44 123-90 134-90 8 0 55 29 104 65 165 119 415 300 462 333 26 18 52 31 60 28s13 2 13 13c0 15-11 19-52 25-81 9-90 7-127-24z"/>
 </g>
 <g id="f" fill="#6c798d">
  <path d="m601 2233c-11-28-335-1021-374-1146-28-93-22-101 77-105 79-3 98 8 51 30-41 19-53-26 192 716 73 222 133 410 133 418 0 12 91 14 599 14 599 0 599 0 607-32 3-18 66-213 139-433 158-476 205-626 205-654 0-12-8-25-17-28-15-6-15-7 3-14 37-15 104-10 111 7 3 9-23 107-60 218-36 110-120 370-186 576s-128 394-137 418c-16 42-16 42-674 42s-658 0-669-27z"/>
 </g>
 <g id="g" fill="#457778">
  <path id="h" d="m1943 1732c-7-12-24-17-54-17-36 0-44-4-48-22-7-24-26-40-157-133-51-36-153-109-228-162-130-94-167-111-182-87-4 8-9 7-15-2-7-12-11-11-26 4-16 16-16 17 2 17 17 0 16 2-5 25-16 17-34 25-56 25-18 0-35 4-39 10-3 5-44 35-90 66s-92 65-101 75c-9 11-21 19-27 19-15 0-136 89-179 132-21 21-38 32-38 24s-15-17-37-21c-27-5-33-9-22-16 12-8 12-10-1-18-8-5-18-7-22-4-5 2-15-1-23-7-12-10-15-9-15 9 0 13 6 21 16 21 14 0 14 3 4 15-15 18-30 19-30 3 0-7-27-96-60-197-33-102-60-186-60-188s7-3 15-3c9 0 26-6 38-14s36-17 53-20c30-7 30-7 64 99 18 59 39 109 45 112 14 5 90-42 177-108 31-24 85-64 120-89 34-25 94-69 132-98 68-51 96-63 96-41 0 6 7 8 15 5 9-3 18 1 21 9 8 19 34 19 69 1 23-12 30-12 56 2 23 14 31 14 37 4 6-9 23 5 57 48 27 33 54 59 61 56 18-7 37 20 29 43-5 16 4 24 52 46 122 56 149 71 190 102 40 32 59 42 49 25-3-5 18-8 47-8 52 1 52 1 91-116 39-118 39-118 99-118s60 0 53 31c-9 48-147 469-155 473-4 3-12-3-18-12z"/>
  <path id="i" d="m1210 1386c34-23 48-20 36 9-3 9-19 15-38 15-32 0-32 0 2-24z"/>
 </g>
 <g id="j" fill="#f8b949">
  <path id="k" d="m1647 1795c-30-38-196-159-267-195-24-12-57-32-72-43-27-20-27-20-82 17-30 20-58 36-63 36s-24 13-43 30c-19 16-39 29-43 30-17 0-125 80-150 109-43 52-67 38-67-39 0-36 4-41 88-102 48-36 129-92 181-126 84-56 99-62 145-62 54 0 49-2 216 101 30 19 81 54 114 79 32 25 69 51 82 58 16 9 24 22 24 39 0 30-21 103-29 103-3 0-18-16-34-35z"/>
  <path id="l" d="m698 1298c-19-16-41-95-36-133 3-30 7-32 305-238 70-49 159-113 198-143 61-47 76-54 114-54 40 0 55 7 140 73 53 41 148 109 211 152 243 164 270 186 270 216 0 39-22 122-35 131-16 12-45 9-45-5 0-12-147-121-429-318-113-79-113-79-155-46-22 19-80 59-127 91-48 31-92 63-99 71s-17 15-22 15c-6 0-31 17-57 38-25 21-70 53-98 71-29 18-64 46-77 62-28 32-35 35-58 17z"/>
 </g>
 <g id="m" fill="#548e92">
  <path id="n" d="m471 1368c-4-13-30-90-57-172-49-148-49-148-24-165 13-9 92-65 174-124 178-130 204-147 232-147 12 0 27-7 34-15s25-15 41-15c26 0 29 4 29 31 0 19-13 47-35 76-19 25-35 52-35 58 0 13-28 38-115 105-25 19-65 52-89 73-24 20-47 37-53 37-29 0-30 24-5 100 14 44 23 82 20 85s-16 8-29 10c-13 3-29 12-36 21s-19 14-27 11c-12-5-14 0-9 23 7 35-4 40-16 8z"/>
  <path id="o" d="m1240 1365c19-14 41-25 49-25 10 0 8 7-9 25-13 14-35 25-49 25-24 0-24-1 9-25z"/>
  <path id="p" d="m1136 1370c5-8 9-17 9-20 0-13 63-74 89-87 28-14 33-14 73 8 24 13 43 27 43 31 0 13-17 9-30-7-12-14-18-11-55 25-32 31-48 40-76 40-19 0-41 6-48 13-11 10-12 9-5-3z"/>
  <path d="m2085 1295c2-14-1-25-6-25s-9 7-9 15c0 14-3 14-25-1-13-8-29-13-35-9-16 10-12-19 11-87 17-53 18-64 7-73-8-5-87-64-176-129-153-113-162-122-162-153s2-33 35-33c31 0 35-3 35-25 0-14 5-25 10-25 6 0 56 34 113 75 56 42 148 108 205 147 56 40 102 77 101 82-1 28-85 260-95 263-7 2-10-6-9-22z"/>
  <path id="q" d="m640 1105c19-19 36-35 39-35s-10 16-29 35-36 35-39 35 10-16 29-35z"/>
 </g>
 <g fill="#66a5aa">
  <path id="r" d="m770 942c0-4 5-13 12-20s9-12 6-12c-12 0 24-74 54-112s30-38 3-38-27 0 14-49c22-27 97-88 166-137s156-112 194-141c52-40 69-48 77-38 8 12 204 156 428 315 59 42 84 65 76 70-7 4-10 15-7 23 8 22-12 37-42 31-22-5-27-2-28 15-1 14 12 29 42 48 24 15 44 31 45 36 0 16-27 6-55-20-16-16-42-35-57-43s-71-47-125-87c-193-141-268-193-283-193-18 0-132 84-174 129-17 17-38 31-48 31-9 0-33 14-51 30-19 17-39 30-44 30s-31 23-58 50c-27 28-57 50-66 50s-28 9-42 20c-27 21-37 25-37 12z"/>
  <path id="s" d="m870 936c0-3 21-19 48-36 47-32 47-32 13 4-30 31-61 47-61 32z"/>
  <path id="t" d="m1096 772c5-4 27-21 49-37 40-28 40-28 6 8-19 21-42 37-50 37-9 0-11-3-5-8z"/>
 </g>
 <g id="u" fill="#f7e6ce">
  <path id="v" d="m1539 1635c-8-8-40-30-72-50-31-19-83-51-114-70s-66-35-78-35-77 37-145 81c-104 69-126 80-142 70-10-6-31-11-48-11-56 0-60 3 185-172 82-60 157-108 166-108s48 24 87 53c40 28 117 84 172 122 55 39 100 73 100 78 0 4-9 7-19 7-11 0-33 11-49 25-25 21-31 22-43 10z"/>
  <path d="m867 1019c-3-11-15-23-26-26-28-7-27-27 2-41 12-7 33-20 47-31 117-91 388-281 401-281 9 0 29 10 44 22 27 22 75 56 318 228 103 73 127 100 88 100-10 0-30 9-44 20-26 21-26 21-84-16-32-20-117-81-189-135-72-55-138-99-145-99-8 0-43 23-79 50-80 62-316 230-323 230-3 0-7-9-10-21z"/>
 </g>
 <g id="w" fill="#e0ecfa">
  <path id="x" d="m760 700c0-5-11-10-24-10-33 0-56-10-56-24 1-6 26-29 57-51 83-59 276-199 397-287 58-43 113-78 121-78 11 0 15 12 15 48 0 49 0 49-82 110-46 33-112 81-148 106-80 56-160 115-220 160-48 37-60 42-60 26z"/>
  <path id="y" d="m1710 651c-36-26-123-90-195-141-246-177-225-157-225-213 0-49 0-49 32-29 17 11 77 54 132 94 56 41 167 122 249 182 81 59 147 112 147 117s-11 9-25 9c-16 0-25 6-25 15 0 25-22 17-90-34z"/>
 </g>
 <g id="z" fill="#b9cbe9">
  <path id="aa" d="m2133 957c-329-234-387-279-371-288 10-7 9-9-4-9-10 0-18-4-18-10 0-9 8-11 65-15 20-1 66 29 239 155 214 156 286 212 286 221 0 5-12 9-27 9-16 0-37 2-48 5-14 3-53-18-122-68z"/>
  <path id="ab" d="m210 1006c0-3 44-37 98-77 339-252 394-289 413-278 10 5 29 9 42 9 31 0 41 23 19 42-9 8-69 51-132 95-64 45-124 91-134 102-11 12-24 21-30 21s-37 20-68 45c-57 44-59 45-133 45-41 0-75-2-75-4z"/>
 </g>
 <g id="ac" fill="#efcb8b">
  <path d="m845 1761c-6-5-23-11-39-13-47-5-45-41 5-75 22-15 53-38 69-51 50-40 86-47 130-26 38 19 38 19-42 78-60 44-78 64-75 78 4 13 0 18-17 18-12 0-26-4-31-9z"/>
  <path id="ad" d="m1672 1745c2-9-6-21-18-28-41-24-124-89-124-97 0-15 52-50 75-50 17 0 149 84 189 120 15 14-10 42-50 56-52 18-76 18-72-1z"/>
  <path id="ae" d="m622 1187c-25-14-20-27 12-28 19 0 18-1-4-10-25-10-25-10 16-47 59-53 190-147 206-148 18 0 48 26 48 43 0 7 6 13 13 13 6 0-10 14-38 31-100 63-186 132-181 145 7 18-40 18-72 1z"/>
  <path id="af" d="m1866 1187c3-8-27-36-78-72-164-116-153-105-131-126 10-11 33-23 50-28 28-8 38-5 70 19 21 16 54 41 73 55 94 69 140 108 140 116 0 13-79 48-107 49-14 0-21-5-17-13z"/>
 </g>
 <g id="ag" fill="#7c521d">
  <path id="ah" d="m819 1893c-5-15-15-50-21-78-6-27-15-58-20-68-7-14-3-19 19-28 37-14 69-4 90 29 10 15 21 30 25 33s-3 20-17 39c-13 18-29 48-36 67-13 40-26 42-40 6z"/>
  <path id="ai" d="m1691 1863c-51-92-26-153 62-153 33 0 38 3 32 18-3 9-16 53-27 97-12 44-25 84-28 88-4 5-22-18-39-50z"/>
  <path id="aj" d="m659 1358c-12-40-30-99-39-130-10-31-16-59-12-62 11-12 61-6 76 9 8 9 18 31 22 51 3 19 15 39 25 44 17 10 16 14-13 83-16 39-32 73-33 75-2 2-13-29-26-70z"/>
  <path d="m1873 1408c-18-23-53-97-53-113 0-9 7-18 15-21 8-4 15-14 15-24 0-9 5-31 11-49 12-33 59-61 105-61 21 0 24 3 18 27-4 16-15 48-26 73s-28 74-37 109c-16 66-30 82-48 59z"/>
 </g>
</svg>
