<?xml version="1.0" encoding="UTF-8"?>
<svg id="a" class="img-fluid" width="378.4" height="378.76" version="1.1" viewBox="0 0 3784 3787.6" xmlns="http://www.w3.org/2000/svg">
 <g id="b" transform="translate(-1468 -1308)">
  <path id="c" d="m3220 5090c-312-26-610-124-862-281-404-254-697-647-823-1105-49-177-68-321-67-509 1-662 346-1275 912-1617 153-93 313-160 492-208 173-45 302-62 488-62s315 17 488 62c325 87 614 253 851 490 359 360 553 830 553 1340 0 251-43 476-132 701-151 377-413 692-758 908-329 206-762 313-1142 281zm432-109c393-69 788-289 1050-586 221-251 381-578 440-903 30-166 30-421 0-584-59-323-218-650-435-898-347-395-917-644-1412-617-576 32-1107 332-1426 806-215 319-334 722-316 1066 32 576 332 1107 806 1426 394 265 850 367 1293 290z"/>
  <path id="d" d="m3110 4895c-306-42-617-176-837-362-71-60-70-77 8-201 112-177 107-166 74-158-121 31-277 56-323 54-56-3-56-3-99-68-100-148-183-334-228-505-28-107-55-296-55-381 0-54 0-54 388-54 237 0 393-4 402-10 38-25-26-30-402-30-388 0-388 0-388-54 0-164 51-405 122-581 77-189 194-378 238-383 21-2 251 40 344 64 34 8 39 19-73-158-78-124-79-141-8-201 255-216 602-350 964-373 102-7 102-7 105 399 2 223 7 409 11 413 22 22 27-48 27-418 0-398 0-398 58-398 140 1 375 46 526 102 167 61 363 173 484 275 73 63 72 77-28 232-44 69-78 126-77 128 2 2 55-9 118-23s151-28 195-31c82-6 82-6 131 68 146 219 234 453 268 716 8 63 15 139 15 169 0 54 0 54-387 54-238 0-394 4-403 10-38 25 26 30 403 30 387 0 387 0 387 54 0 30-7 106-15 169-34 263-122 497-268 716-49 74-49 74-131 68-44-3-132-17-195-31s-116-24-118-22 32 59 77 127c100 155 102 169 28 232-191 161-454 285-718 341-94 20-228 36-297 36-53 0-53 0-53-397 0-387-5-451-30-413-6 9-10 169-10 413 0 397 0 397-67 396-38-1-111-7-163-14zm580-146c47-11 103-28 125-39 22-10 56-21 75-25 86-17 440-215 440-246 0-6-17-36-38-67-65-97-112-179-112-196 0-9-5-16-11-16-20 0-4-89 22-116 21-22 30-24 116-24 70 0 93 3 93 13 0 8 37 21 108 35 59 12 116 25 128 28 18 5 28-5 61-58 118-186 214-447 238-641 7-58 7-58-347-55-348 2-354 2-403-20-79-36-85-45-85-123 0-65 1-69 33-93 19-15 40-26 48-26s20-5 27-12c9-9 102-11 373-9 361 3 361 3 354-56-24-194-120-455-238-641-35-57-42-63-65-57-130 32-272 58-344 62-84 5-87 4-104-21-13-21-15-39-11-82 5-48 17-74 81-176 42-65 76-123 76-128 0-13-174-127-264-172-161-81-359-144-514-163-54-7-54-7-50 369 2 278 0 377-9 380-6 3-14 18-18 34-13 61-73 92-150 78-44-9-70-36-90-94-12-38-15-107-15-410 0-364 0-364-52-357-217 27-473 124-663 251-100 66-118 81-114 91 2 5 38 62 78 127 66 105 75 125 79 176 4 49 1 61-17 79-32 32-118 28-301-14-85-19-157-35-161-35-20 0-136 212-190 347-35 90-84 273-94 356-6 57-6 57 352 57 359 0 359 0 414 28 68 34 83 63 74 140-6 57-6 57-70 85-64 27-64 27-420 27s-356 0-350 58c23 192 120 454 237 639 33 52 44 62 61 58 156-37 278-58 349-62 84-5 87-4 104 21 13 21 15 39 11 82-5 48-17 74-81 176-42 65-76 123-76 128 0 12 209 150 227 150 7 0 13 4 13 8 0 5 18 15 40 22s40 16 40 20 15 11 33 17c17 6 57 21 87 33 75 29 274 80 313 80 18 0 40-9 54-22 22-20 23-29 23-145 0-103-2-123-15-123-18 0-20-55-4-97 7-16 11-84 11-161-1-105 3-146 18-196 27-86 58-116 121-116 67 0 95 16 121 69 23 45 23 53 26 425 3 378 3 378 55 372 29-4 90-16 137-27z"/>
  <path d="m3235 3533c-88-27-147-79-200-179-21-39-25-61-25-132 0-240 125-371 354-372 200-1 331 122 343 322 15 232-123 380-351 377-39 0-93-7-121-16zm210-130c78-39 138-128 138-203 0-109-114-224-223-224s-223 115-223 224c-1 92 79 188 183 221 31 10 85 2 125-18z"/>
 </g>
 <g id="e" transform="translate(-1468 -1308)" fill="#210000">
  <path id="f" d="m3118 4803c-49-5-49-23 2-80 22-25 40-55 40-67 1-40 20-203 26-220 3-9 15-16 25-16 12 0 16 5 13 15-4 9 0 15 10 15 14 0 16 19 16 152 0 151 0 152-27 180-15 15-36 27-47 26-12-1-38-3-58-5z"/>
  <path d="m3640 4773c0-35 72-123 126-154 44-26 44-26 24-44-16-15-20-31-20-85 0-56 4-73 29-112 63-100 139-134 317-144 132-7 132-7 168 51 21 31 34 60 31 64-4 3-64 9-133 12-145 7-196 23-242 75-16 19-30 38-29 42 0 4 19 21 42 37 39 29 42 34 45 84 4 62-11 84-67 102-20 7-56 22-81 35s-82 32-127 42c-83 19-83 19-83-5z"/>
  <path id="g" d="m2800 4720c-25-10-62-24-82-31-21-7-38-15-38-19s-18-13-40-20-40-17-40-22c0-4-7-8-16-8-11 0-15-6-11-19 2-10-8-40-24-67-31-53-40-143-16-161 6-6 57-13 112-16s130-11 166-18c66-12 66-12 51-42-10-20-18-82-24-181-5-83-11-188-14-234-7-92 1-112 45-112 47 0 55-12 48-80-3-39-15-81-32-114-36-67-55-131-55-182 0-42 0-42-47-49-27-3-87-15-135-26-73-17-88-24-88-40 0-10 7-19 15-19 14 0 21-37 15-79-1-10 9-12 39-9 33 3 41 0 41-13 0-22 39-29 164-29 168 0 203 17 208 100 2 30 10 65 16 77 12 22 11 23-23 23-20 0-45-5-56-10-16-9-19-7-19 9 0 14 16 27 55 45 110 50 199 175 230 321 20 97 20 229-1 249-23 23-124 21-172-3-20-10-53-23-72-28-35-10-35-10-31 120 4 175 2 170 71 146 30-11 80-35 112-54 94-59 95-58 96 103 1 75-2 142-6 149-8 12-140 55-225 73-56 11-59 14-78 57-10 25-31 87-47 139-15 52-31 94-37 93-5-1-30-9-55-19zm-22-200c9-35 9-35-34-32-43 4-43 4-11 42 17 22 33 36 34 32s6-23 11-42zm312-821c-11-31-27-64-35-75-13-17-14-14-9 41 8 91 13 105 37 114 31 12 33-12 7-80z"/>
  <path d="m3470 4454c0-96 0-96 118-211 64-62 152-139 195-169 77-54 77-54 77-168 0-63 3-123 7-133 6-16 4-16-18 3-13 11-64 46-114 77-53 33-122 89-170 137-44 44-85 80-91 80s-17-18-24-41c-8-22-24-50-37-62-12-12-23-26-23-32 0-5 23-32 50-60 58-59 58-71-1-109-35-23-39-31-39-66 0-40 0-40 44-40 58 0 85 11 123 50 32 33 32 33 113-16 49-30 82-57 85-69 2-11 9-74 16-140 6-66 16-126 21-132 6-8 33-13 65-13 59 0 99-16 151-61 26-23 42-29 78-29 41 0 52 6 97 46 48 43 111 81 175 105 27 10 27 10 0-18-16-16-28-38-28-50 0-19 6-20 93-20 91 0 92 1 137 37 25 20 71 56 103 79 56 41 57 42 57 92 0 27-4 55-10 62-5 7-27 35-49 63-70 92-173 153-296 175-63 12-64 13-67 47-5 55-42 77-133 77-95 0-112-14-121-102-5-50-11-66-30-78-22-14-23-14-29 38-3 28-5 88-3 132 3 80 3 80 141 83 113 2 137 5 137 17 0 8-6 15-13 15-16 0-51 37-60 63-4 9-2 17 3 17 6 0 10 4 10 9 0 4-54 6-120 3-119-5-119-5-202 52-48 33-146 119-234 206-83 83-159 150-168 150-14 0-16-14-16-96zm715-732c-10-56-18-28-9 35 6 43 9 50 12 29 2-16 1-45-3-64zm237-74c31-17 64-38 73-48 16-18 15-19-22-25-21-3-77-18-125-33-80-25-87-26-97-10-8 13-6 18 9 23 26 8 36 29 45 87 7 45 9 47 34 42 14-4 52-20 83-36zm-327-108c8 0 15-9 15-20 0-12 7-34 15-49 13-26 13-30-4-45-13-12-21-14-26-7-11 19-66 43-114 50-46 7-46 7 13 69 60 63 60 63 72 32 7-16 20-30 29-30z"/>
  <path id="h" d="m4485 4100c-74-16-119-31-117-38 1-7-7-12-19-12s-19-5-17-12c7-20 251-23 267-4 15 18 27 96 15 95-5-1-63-14-129-29z"/>
  <path id="i" d="m3760 3225c-14-7-37-18-52-23-21-9-28-21-37-62-12-56-51-139-74-159-12-9-13-19-6-44 5-18 9-43 9-58 0-47-31-129-61-164-30-33-32-34-59-20-38 20-72 62-101 128-23 54-25 55-76 66-72 14-136 45-165 80-24 28-27 28-96 23-67-4-75-7-102-39-32-36-41-98-18-121 22-22 84-15 105 12 14 18 30 25 71 28 46 5 52 3 52-14 0-42 19-58 65-58 25 0 45-4 45-10 0-30 48-128 79-163 47-52 85-67 168-67 78 0 125 24 162 83 49 80 68 287 36 393-22 74-23 74 48 74 39 0 75 6 97 18 32 16 35 21 35 62 0 45 0 45-50 47-27 1-61-4-75-12z"/>
  <path id="j" d="m4054 2983c-150-226-330-397-524-496-47-24-91-46-98-48-11-4-10-10 2-34 9-17 16-36 16-43s6-15 14-18 12-12 9-20c-16-43 146 17 264 97 125 85 250 201 345 319 20 25 75 103 122 175 85 128 106 183 67 170-10-3-24 1-31 10-7 8-21 15-31 15s-21 5-24 10c-16 25-40 0-131-137z"/>
  <path id="k" d="m2485 3100c-11-5-80-9-152-9-133-1-133-1-133-29 0-94 184-394 337-548 177-180 335-250 586-261 127-6 127-6 127 29 0 20 6 53 14 74 13 39 13 39-98 39-255 1-441 111-647 385-67 90-126 180-139 215-12 31-4 32 82 5 36-11 91-20 131-20 67 0 67 0 67 41 0 38-2 41-46 60-55 25-102 32-129 19z"/>
 </g>
 <g id="l" transform="translate(-1468 -1308)" fill="#341b08">
  <path id="m" d="m3082 3821c-24-10-48-24-53-32-10-16-12-151-3-198 10-46 36-40 67 17 46 84 75 233 45 231-7-1-32-9-56-18z"/>
 </g>
 <g id="n" transform="translate(-1468 -1308)" fill="#383c17">
  <path id="o" d="m3026 3778c-2-13-9-61-15-107s-22-107-35-137c-33-71-14-72 56-4 42 40 50 53 38 60-10 6-15 36-18 109-4 94-16 131-26 79z"/>
 </g>
 <g id="p" transform="translate(-1468 -1308)" fill="#22472c">
  <path id="q" d="m3790 4736c21-22 57-45 92-57 106-39 114-80 31-143-29-21-53-44-53-51 0-21 59-95 93-115 43-27 112-38 245-42 113-3 113-3 154 61 45 72 50 69-85 42-53-11-60-10-97 10-22 13-40 26-40 30 0 18 36 32 95 37 36 2 65 8 65 12 0 24-298 181-370 195-19 4-53 15-75 25s-51 21-65 25c-24 7-23 5 10-29z"/>
 </g>
 <g id="r" transform="translate(-1468 -1308)" fill="#22542a">
  <path id="s" d="m3470 4280c0-140 0-140 44-140 25 0 57 5 72 10 21 9 35 6 66-10 43-22 98-27 98-8 0 7-63 74-140 150-140 138-140 138-140-2z"/>
  <path id="t" d="m4273 3669c-5-30-13-61-17-70-5-11-1-18 12-21 14-4 22-18 27-47 5-31 11-41 21-37 57 22 160 47 218 53 69 8 69 8 22 54-62 61-152 109-219 116-53 5-53 5-64-48z"/>
  <path id="u" d="m4156 3691c-24-27-5-65 27-55 27 8 23 3 30 42 6 29 4 32-17 32-12 0-31-9-40-19z"/>
 </g>
 <g id="v" transform="translate(-1468 -1308)" fill="#235a2a">
  <path id="w" d="m3570 4188c0-5-4-7-9-3-5 3-12 2-15-3-5-9-47-9-63 1-7 4-12-20-16-71-5-77-5-77 71-155 49-49 113-101 176-140 54-34 106-72 116-84 10-13 23-52 30-88s16-65 20-65 15 11 24 26c16 23 16 33 2 130-9 57-16 152-16 209 0 104 0 104-82 163-46 32-85 55-86 50-2-5-15-2-29 7-29 19-123 36-123 23z"/>
  <path id="x" d="m3968 3570c-48-50-88-97-88-104 0-17 22-26 61-26 37 0 89-21 133-55 34-26 34-26 70 6 41 36 44 55 16 101-25 41-25 48-2 48 25 0 62-28 72-56 9-23 10-23 47-8 21 9 43 20 49 25s15 5 19 1c5-4 4 0-1 8-4 8-9 20-11 25-19 81-30 108-37 90-5-15-9-17-15-6-7 11-11 10-20-6-14-28-60-45-112-41-42 3-45 5-59 46-8 23-19 42-24 42s-49-41-98-90z"/>
  <path id="y" d="m2905 3261c-5-5-46-14-90-20-150-19-184-30-224-72-20-21-56-47-81-58s-43-21-40-21 37-12 75-25c39-14 75-26 80-27 6-2 9 20 8 55-2 57-2 57 47 57 27 0 52 5 55 10 3 6-3 10-14 10-12 0-21 5-21 11 0 19 68 39 132 39 70 0 92 9 86 34-2 12-6 14-13 7z"/>
 </g>
 <g transform="translate(-1468 -1308)" fill="#26672b">
  <path id="z" d="m3566 3776c-26-40-68-75-99-82-34-7-44 0-27 21 11 13 8 15-23 15-32 0-41-7-81-59-35-45-46-68-46-95 0-35 1-36 40-36 26 0 59 11 93 29 28 16 77 37 106 46 54 18 151 94 151 119 0 9-54 46-91 64-3 1-14-8-23-22z"/>
  <path id="aa" d="m3053 3444c-18-13-52-33-76-44-43-19-45-21-49-72-4-39-12-57-31-74-58-49 16-38 83 13 24 18 50 31 57 28 8-3 18 7 25 23 7 15 27 48 46 75 31 43 32 47 13 47-11 0-24 7-28 15-7 12-14 10-40-11z"/>
  <path id="ab" d="m3810 3236c0-18 6-25 23-28 63-9-15-68-90-68-43 0-57 12-28 24 24 9 18 26-9 26-22 0-26-7-37-57-10-49-9-68 5-120 9-34 16-80 16-102 0-42 9-49 44-35 51 19 165 238 166 316 0 58-8 68-51 68-35 0-39-3-39-24z"/>
  <path id="ac" d="m3007 3205c-15-14-45-29-67-35-48-13-226-5-245 10-8 7-19 9-24 6-5-4-16 0-23 7-7 8-21 12-31 9-21-5-44-55-28-60 6-2 8-16 4-33-3-18-1-29 5-29s9-7 5-16c-4-10 0-20 10-26 23-12 21-28-3-28-12 0-17-5-14-14 18-46 152-49 279-6 49 16 103 30 121 30 54 0 95 11 85 24-13 17-33 84-40 137-6 47-6 47-34 24z"/>
  <path id="ad" d="m3125 2913c-24-8-55-12-77-9-30 5-38 3-43-13-10-32-32-46-50-31-9 7-14 19-11 27s-2 13-14 13c-23 0-26-32-11-108 10-52 31-68 93-77 42-6 50-11 72-48 29-51 138-157 185-182 52-26 120-16 214 30 59 30 77 44 77 60 0 18-5 20-39 17-58-6-104 14-149 62-65 70-105 206-59 198 13-2 18 2 15 15-2 14-14 19-51 21-50 3-58-3-30-23 21-16 9-35-23-35s-54 42-36 71c7 10 12 21 12 24 0 9-33 3-75-12z"/>
 </g>
 <g id="ae" transform="translate(-1468 -1308)" fill="#4c3d3a">
  <path id="af" d="m3520 4792c0-29 230-306 258-310 18-3 22 1 22 21 0 24 50 78 82 89 17 7 15 9-62 46-52 25-74 43-110 91-25 33-50 62-57 65-6 3-39 8-72 12-57 6-61 5-61-14z"/>
  <path id="ag" d="m2730 4693c-47-20-47-21-22-39 30-21 28-57-6-96-29-34-72-93-72-100 0-1 47-4 105-5 104-2 104-2 94 25-6 15-21 71-34 126-14 54-26 100-27 101-2 1-19-4-38-12z"/>
  <path id="ah" d="m3990 4261c0-27 137-151 168-151 25 0 52 21 52 41 0 6 13 33 29 59 29 47 29 47-83 54-61 4-124 9-139 11-22 4-27 2-27-14z"/>
 </g>
 <g id="ai" transform="translate(-1468 -1308)" fill="#34654d">
  <path id="aj" d="m4144 4533c-12-2-32-15-44-28-21-22-22-28-11-49 18-32 81-66 123-66 61 0 142 20 162 39 18 18 17 20-40 65-55 43-63 46-114 45-30-1-65-4-76-6z"/>
 </g>
 <g id="ak" transform="translate(-1468 -1308)" fill="#39804b">
  <path id="al" d="m2950 4216c-4-12-9-57-11-101-4-71-2-80 15-83 10-2 32 6 48 18s59 34 96 48c50 20 68 33 70 48 3 18-8 26-60 48-35 14-82 30-106 35-40 8-44 7-52-13z"/>
  <path id="am" d="m4146 3804c-8-64-7-136 3-152 6-10 15-7 40 14 31 26 32 28 29 103-3 76-3 76-34 79-30 3-31 1-38-44z"/>
  <path id="an" d="m4465 3463c-127-17-295-102-295-149 0-29 17-34 57-17 18 7 54 13 80 13 46 1 51 3 130 80 45 44 77 79 70 79-7-1-25-4-42-6z"/>
  <path id="ao" d="m2338 2990c36-81 113-194 135-198 28-6 21 51-14 113-27 48-30 62-24 100 6 45 6 45-59 45-64 0-64 0-38-60z"/>
 </g>
 <g id="ap" transform="translate(-1468 -1308)" fill="#39884b">
  <path id="aq" d="m3137 4166c-3-7-37-26-76-40-38-15-75-34-81-41-7-8-16-12-21-9s-9-1-10-8-5-2-9 12c-5 16-7-1-6-50 0-41-3-95-8-119-8-44-8-44 48-38 31 3 81 17 112 31 64 30 106 33 128 10 14-14 16-14 16 0 0 9 15 23 33 32 17 9 33 17 34 18 2 2-6 20-17 41s-23 54-26 72c-5 25-17 41-48 62-61 41-63 42-69 27z"/>
  <path d="m2402 3043c-6-2-10-9-6-14 3-5 0-9-7-9-8 0-8-4-1-13 6-7 9-22 6-33-3-12 9-47 30-87 36-70 37-82 4-44-28 31 47-77 96-138 95-120 210-222 301-268 101-51 190-71 320-71 106-1 120 1 123 16s-4 18-32 18c-20 0-36 5-36 10 0 6-16 10-35 10-23 0-49 10-77 30-22 17-45 30-50 30s-39 20-76 44c-104 69-282 252-282 291 0 7-8 23-18 36-21 28-42 94-42 133 0 23-4 26-32 26-18 0-62 9-96 20-67 21-70 21-90 13z"/>
 </g>
 <g id="ar" transform="translate(-1468 -1308)" fill="#39904c">
  <path id="as" d="m3230 3977c-25-12-47-23-49-24s9-14 24-29c27-27 28-30 22-110-3-47-17-115-31-158-15-42-26-79-26-81 0-3 15-5 33-5 27 0 35 5 44 30 12 33 36 39 59 15 22-22 27-19 62 28 17 24 55 61 85 81 32 22 61 52 71 73 17 36 17 36-47 101-57 57-67 63-85 53-33-18-58-13-88 18-29 29-29 29-74 8z"/>
  <path id="at" d="m3802 3308c-16-91-16-126 0-110 7 7 20 12 31 12 10 0 15 5 12 10-3 6-2 10 4 10 25 0 20-44-13-126s-102-187-130-197c-8-3-15-31-19-69-7-75-29-140-61-183-24-30-158-109-242-141-38-14-48-15-76-3-43 18-163 132-194 185-22 38-30 43-73 49-52 7-91 34-91 64 0 10-3 33-6 50-6 27-1 36 35 72 47 47 52 69 16 69-20 0-25 5-25 25 0 33-15 32-126-6-91-31-100-31-224-13-25 3-42 3-38-1 4-5 4-13-1-19-9-12 26-134 46-158 7-7 17-27 23-42 15-41 53-88 140-173 68-67 196-163 218-163 5 0 28-13 50-30 29-21 54-30 79-30 28 0 34-3 23-10s-4-10 27-10c23 0 48-3 56-6 10-3 22 8 38 35 35 63 107 74 144 24 11-15 18-15 51-5 112 34 326 189 452 328 35 38 108 136 163 218 100 150 100 150 70 173-25 20-31 32-31 62 0 42 13 57 75 89 22 12 34 21 27 22-7 0-10 5-6 12 5 8 2 9-10 5-9-4-14-3-11 2s0 13-6 16c-6 4-27-9-48-29-45-43-60-45-103-7-51 44-87 58-164 63-70 5-70 5-82-64z"/>
 </g>
 <g transform="translate(-1468 -1308)" fill="#39974b">
  <path id="au" d="m3610 3715c-26-26-63-52-90-61-25-9-78-32-118-51-73-36-99-38-69-5 20 22 22 42 5 42-6 0-8 3-5 7 10 10-13 33-33 33-10 0-21-6-23-12-4-10-7-10-14-1-12 17-30 3-47-37-15-35-15-35-16-6 0 26-4 22-30-30-16-32-50-83-76-112-25-29-45-54-43-56s14-8 26-15c20-10 29-6 80 33 60 46 140 76 203 76 51 0 136-27 182-57 78-52 138-169 138-269 0-42 0-42 58-22 31 11 61 24 67 29 5 5 18 10 30 10 16 1 17 2 3 6-21 5-24 23-5 23 7 0 13 9 14 20s-3 20-9 20-4 10 5 24c12 17 13 26 4 35-8 8-7 11 6 11 24 0 21 13-5 25-21 9-24 22-39 152-8 79-17 144-20 146-4 4-99 64-125 80-6 3-30-14-54-38z"/>
  <path id="av" d="m3040 3059c-14-4-44-7-67-8-33-1-41-4-37-16 4-8 1-15-5-15s-11-14-11-31c0-31 1-31 35-26 20 3 33 2 31-2-6-9 113-2 131 8 9 5 3 20-20 52-28 39-35 44-57 38z"/>
  <path id="aw" d="m3230 2888c0-10 9-19 23-22 12-3 34-7 50-11 15-3 27-12 27-20s5-15 10-15c6 0 10 13 10 29 0 26-4 29-60 43-57 14-60 14-60-4z"/>
 </g>
 <g id="ax" transform="translate(-1468 -1308)" fill="#4f7062">
  <path id="ay" d="m3470 4674c0-144 0-144 24-144 13 0 26 5 28 10 2 7 30 5 82-6 82-17 146-12 146 10 0 10-163 221-199 257-3 4-23 9-43 12-38 6-38 6-38-139z"/>
  <path id="az" d="m2960 4769c-63-16-118-33-122-37-12-12 54-223 70-230 8-3 29 2 46 10 58 28 101 40 173 50s72 10 69 75c-3 60-7 69-45 114-23 27-50 49-59 49-9-1-69-14-132-31z"/>
 </g>
 <g id="ba" transform="translate(-1468 -1308)" fill="#517762">
  <path d="m3178 4644c-3-5-4-16-3-24 1-9-5-16-14-17-65-4-175-30-223-54-10-5-18-4-21 4-3 7-6 5-6-5-1-9-6-18-12-20s-3-20 10-50c19-46 19-46 98-63 43-10 114-30 158-46 44-15 81-26 83-24s-6 34-18 72c-12 37-24 100-27 138-6 70-16 105-25 89z"/>
  <path id="bb" d="m3709 4579c-12-7-12-9 1-10 10 0 9-3-5-8-10-4-46-2-80 5-74 16-135 18-135 3 0-5-4-7-10-4s-10-4-10-17c1-34 165-205 183-190 10 8 39 7 110-5 53-10 99-15 102-11 3 3-10 29-30 58-19 28-35 64-35 79-1 35-71 113-91 100z"/>
 </g>
 <g id="bc" transform="translate(-1468 -1308)" fill="#528062">
  <path id="bd" d="m3095 4439c-19-7-18-10 5-13 15-2 30-28 23-41-4-5-3-7 1-3 4 3 19 0 33-7 15-8 30-12 35-9 13 8 9 52-4 51-7 0-22 1-33 2-17 1-18 3-5 11 8 5 11 10 5 11-5 0-17 2-25 3-8 2-24 0-35-5z"/>
  <path d="m3625 4410c13-22-7-31-28-13-12 10 25-27 82-82s138-123 180-152c76-53 76-53 204-53 70 0 127 3 127 6s-15 17-32 32c-18 15-55 48-83 73-27 25-75 57-105 71-31 14-72 39-92 57-21 18-39 32-42 32-4-1-9-1-13 0-5 1-15 2-23 3-103 11-151 20-156 27-3 5-10 9-15 9-6 0-7-4-4-10z"/>
 </g>
 <g id="be" transform="translate(-1468 -1308)" fill="#6a8459">
  <path id="bf" d="m2470 4552c-157-104-152-87-68-217 39-61 72-112 74-114s21 13 42 35c59 61 90 84 112 84 15 0 20 7 20 24 0 22-5 25-41 28-83 6-78 50 23 190 15 21 10 26-28 34-24 4-46-6-134-64z"/>
  <path id="bg" d="m1996 4073c-127-197-222-462-244-680-8-83-8-83 90-83 97 0 97 0 97 53 0 28 4 74 10 100 21 91 74 242 92 262 9 11 21 34 25 50 11 50 54 135 83 164 14 15 35 45 46 66 11 22 26 44 33 48 11 7 18 47 8 47-5 0-139 27-174 35-19 5-29-5-66-62z"/>
  <path id="bh" d="m4626 4131c-19-4-33-17-45-41-16-35-16-35-144-38-121-2-127-4-127-23 0-12 8-23 20-26 13-3 24-19 30-43 5-20 27-59 47-85 20-27 42-63 48-81 7-22 30-45 75-76 36-24 84-69 108-99 23-30 47-59 52-66 18-22 11-51-17-73-26-20-26-23-15-66 7-24 12-58 12-74 0-30 0-30 156-30 143 0 155 1 150 18-2 9-7 49-11 87-9 89-55 268-94 368-63 157-177 358-203 356-7-1-26-4-42-8z"/>
  <path id="bi" d="m1752 3008c17-165 80-373 163-538 45-89 101-181 121-196 14-12 74-6 152 15 36 10 42 15 42 39 0 16-22 63-53 113-71 114-91 154-139 278-58 153-71 206-71 294-1 77-1 77-112 77s-111 0-103-82z"/>
  <path id="bj" d="m4790 3072c0-10 4-22 10-28 14-14-5-131-42-259-32-110-181-428-213-455-30-25-16-38 54-54 39-9 73-16 76-16 9 0 90 130 129 207 81 162 147 374 161 518 4 39 9 78 11 88 5 15-4 17-90 17s-96-2-96-18z"/>
  <path id="bk" d="m2393 2052c-63-97-63-97-30-126 48-43 182-129 267-171 164-82 368-145 516-160 38-4 77-9 87-11 16-5 17 6 17 130 0 129-1 136-20 136-13 0-20-7-20-20 0-26-23-26-131 0-230 56-393 130-491 222-17 15-34 28-39 28-11 0-59 49-59 60 0 6-8 10-17 10-12 0-41-37-80-98z"/>
  <path d="m4240 2121c-25-6-34-11-119-74-76-56-195-128-221-133-14-3-46-14-72-25-26-10-53-19-61-19s-28-7-45-16c-17-8-55-19-84-25-127-23-128-23-128-5 0 9-8 16-20 16-19 0-20-7-20-131 0-119 1-130 18-125 9 2 48 7 86 11 214 21 482 123 692 263 136 92 133 82 68 182-29 47-57 86-61 86-5 1-19-1-33-5z"/>
 </g>
 <g id="bl" transform="translate(-1468 -1308)" fill="#6b8959">
  <path d="m2615 4380c4-6-7-10-25-10s-29-4-25-10c3-5 2-10-3-10-13 0-104-90-100-100 16-42 55-109 64-110 6 0 24 18 38 39 15 22 39 48 53 58 77 55 118 87 121 95 2 4 10 8 18 8s14 8 14 19c0 13-10 20-31 25-50 10-131 7-124-4z"/>
  <path id="bm" d="m2200 4087c-8-7-24-30-35-52-11-21-32-51-46-66-29-29-72-114-83-164-4-16-16-39-25-50-39-43-136-415-109-415 6 0 8-7 4-15-5-13 13-15 120-15 125 0 125 0 124 38-2 68 12 156 31 198 10 22 19 49 19 60 0 10 9 33 20 49 11 17 20 37 20 46s6 22 14 28c8 7 17 23 20 36s19 38 36 56c16 18 35 46 41 62 7 17 26 43 41 57 19 19 30 41 34 72 6 44 6 44-52 57-33 8-75 17-94 22-46 12-62 11-80-4z"/>
  <path d="m4701 3518c-1-10-32-41-71-69-68-49-70-52-70-95 0-44 0-44 128-42 70 1 101 3 70 5-32 2-58 8-58 13 0 6 4 10 9 10s3 21-5 46c-7 26-11 50-8 55s0 9-5 9c-16 0-13 21 5 41 9 10 14 24 11 31-4 8-6 7-6-4z"/>
  <path id="bn" d="m1934 3081c4-5 2-11-2-13-11-4 3-148 21-218 18-68 88-252 118-311 13-24 43-75 68-114 24-38 44-76 44-82 0-7 4-13 9-13 4 0 8-8 8-19 0-17 3-17 76-3 76 15 76 15 70 53-6 36-27 77-88 175-14 21-33 53-44 69-21 34-74 161-74 178 0 7-6 24-14 38-7 14-16 43-20 65-4 21-14 58-22 82-8 23-14 61-14 82 0 40 0 40-71 40-40 0-68-4-65-9z"/>
  <path id="bo" d="m4603 2998c-12-102-57-246-109-351-38-75-97-172-124-202-10-11-21-41-25-67-8-53-18-47 122-74 76-15 94-16 107-5 9 8 54 89 99 180 86 173 138 323 157 456 5 39 14 83 18 100 12 43-17 55-137 55-97 0-97 0-108-92z"/>
  <path id="bp" d="m2461 2159c-34-56-38-68-16-49 10 8 15 9 15 2 0-14 52-67 63-64 4 1 10-5 13-13s10-13 14-10c5 3 15-3 22-12 49-67 294-175 480-213 32-6 65-18 73-26 8-9 15-11 15-6s15 9 33 8c17-2 31-7 30-13s5-10 15-9c20 3 31 51 31 139 1 51-1 57-19 57-15 0-20-7-20-24 0-23-3-24-37-20-21 3-47 10-58 14-11 5-49 16-84 25-125 31-297 115-410 200-19 14-41 25-50 25s-27 9-41 20-28 20-31 20-20-23-38-51z"/>
  <path id="bq" d="m4178 2195c-20-7-72-37-114-66-118-79-276-149-439-194-33-9-70-21-83-26-17-7-24-5-28 6-4 8-15 15-25 15-16 0-19-8-19-57 0-32 6-69 13-82 14-27 63-52 54-27-4 11 2 14 22 14 16-1 33 2 39 6 7 4 37 11 67 16 31 5 70 16 87 25 17 8 37 15 45 15s35 9 61 19c26 11 58 22 72 25 26 5 145 77 221 133 98 72 93 69 124 72 8 0 15 5 15 10 0 13-62 111-69 110-3 0-23-7-43-14z"/>
 </g>
 <g transform="translate(-1468 -1308)" fill="#ff2d22">
  <path id="br" d="m3125 5025c-143-20-234-42-363-87-297-102-594-301-787-527-550-645-605-1545-136-2242 177-264 410-467 702-614 668-335 1461-231 2036 266 298 258 521 654 595 1057 31 167 31 475 0 644-60 325-219 652-440 903-262 296-656 516-1050 586-153 27-418 34-557 14zm185-539c0-370 1-397 20-440 10-25 24-46 30-46s20 21 30 46c19 43 20 70 20 440 0 394 0 394 23 394 84 0 289-36 412-72 201-60 450-194 583-314 43-39 43-39-36-159-95-147-127-203-120-211 4-3 80 11 170 30 89 20 186 39 214 42 52 6 52 6 101-67 146-219 234-453 268-716 8-63 15-125 15-139 0-24 0-24-385-24-367 0-388-1-425-20-22-11-40-25-40-30s18-19 40-30c37-19 58-20 425-20 385 0 385 0 385-24 0-14-7-76-15-139-34-263-122-497-268-716-49-73-49-73-101-67-28 3-125 22-214 42-90 19-166 33-170 30-7-8 8-35 110-194 88-137 88-137 46-176-61-55-202-148-304-201-171-88-352-144-552-170-184-25-162-76-162 379 0 372-1 397-20 441-24 56-39 54-62-6-15-39-17-92-17-438-1-393-1-393-73-386-361 33-688 164-935 372-53 44-53 44-4 121 26 42 71 114 99 159 50 80 60 103 44 103-4 0-70-14-146-30-253-56-274-59-289-41-95 110-218 366-271 561-23 86-56 295-56 356 0 24 0 24 385 24 367 0 388 1 425 20 22 11 40 25 40 30s-18 19-40 30c-37 19-58 20-425 20-385 0-385 0-385 24 0 59 32 262 55 351 45 172 129 359 228 505 44 65 44 65 98 63 30-1 126-18 214-38 87-19 163-35 167-35 16 0 7 22-42 100-27 44-72 116-100 159-50 80-50 80 3 124 220 186 531 320 837 362 190 26 170 71 170-379z"/>
  <path id="bs" d="m3290 3451c-46-15-85-39-116-73-54-57-69-95-69-178s15-121 69-178c53-57 101-77 186-77s133 20 186 77c54 57 69 95 69 178 0 54-6 85-19 110-26 49-74 98-121 122-43 22-144 33-185 19z"/>
 </g>
 <g id="bt" transform="translate(-1468 -1308)" fill="#6b9259">
  <path d="m2722 4373c-12-2-20-8-18-11 4-6-20-26-121-98-12-9-34-33-48-55-22-30-26-46-21-71 4-21 1-39-10-56-14-21-22-23-69-20-37 2-51 0-45-8 14-16 0-56-30-85-14-14-32-39-39-56-6-16-25-44-41-62-17-18-33-43-36-56s-12-29-20-36c-8-6-14-19-14-28s-9-29-20-46c-11-16-20-39-20-49 0-11-9-38-19-60-19-42-32-119-36-213-2-53-2-53 56-53s58 0 58 53c-1 50 28 174 49 213 21 38 52 111 52 121 0 6 7 17 16 24 9 8 25 32 35 54 31 71 285 333 359 370 19 9 49 28 67 41 17 13 40 24 51 24 14 0 21 9 26 32 11 55 31 68 106 68 38 0 71-5 78-12 9-9 12-8 12 5 0 19-25 26-185 56-109 21-129 22-173 14z"/>
  <path id="bu" d="m4220 4035c0-8 26-54 57-102 39-60 56-96 54-114-2-23 2-27 38-33 21-3 60-15 85-25 25-11 48-16 51-11s1 11-5 15-8 11-5 16c8 12-27 84-69 142-19 26-33 54-30 62 13 32-50 65-121 65-42 0-55-4-55-15z"/>
  <path d="m4532 3373c-28-25-52-49-52-54s48-8 108-8c59 1 94 4 77 6-75 9-77 11-72 54 2 22 2 41-2 43-4 3-30-16-59-41z"/>
  <path id="bv" d="m2027 3078c5-7 11-31 12-53 5-69 7-79 18-100 6-11 14-39 18-63s13-56 21-70c8-15 14-32 14-39 0-17 53-144 74-178 11-16 30-48 44-69 58-92 82-138 77-146-3-5 0-12 5-15 7-5 5-11-6-20-13-9 4-8 64 4 74 14 82 18 82 39 0 22-23 54-93 126-20 21-40 49-43 62s-12 28-19 34c-8 6-17 24-20 40s-13 34-21 41c-8 6-14 19-14 29 0 9-9 29-20 43s-20 37-20 51c0 28-19 76-30 76-4 0-11 36-14 80-4 44-12 82-17 85-5 4-9 17-9 31 0 23-3 24-56 24-44 0-54-3-47-12z"/>
  <path id="bw" d="m4480 3063c0-95-52-254-125-385-30-54-55-101-55-105 0-31-254-278-338-330l-100-60c-52-32-66-37-167-68-49-15-99-31-110-36-41-17-75-14-75 6 0 8-9 15-20 15-19 0-20-7-20-98 0-63 4-104 13-114 13-18 75-30 79-16 2 5 19 13 38 18 179 44 352 117 481 201 48 32 90 55 93 52 3-4 6-1 6 5s14 13 30 17c29 6 40 28 20 40-5 3-14 24-20 46-9 34-8 45 5 66 16 23 21 25 73 21 32-3 64-8 72-12 12-5 16 2 18 31 1 20 11 46 21 58 93 102 209 370 232 532 6 43 15 86 21 97 7 13 7 21-3 27-8 5-1 9 22 12 19 2-17 5-78 5-113 2-113 2-113-25z"/>
  <path id="bx" d="m2486 2355c-3-9 3-24 14-35 25-25 25-46 1-93-26-51-32-69-22-63 5 3 19-3 32-13s31-18 40-18 30-10 45-22c100-78 301-173 424-201 30-7 60-17 66-22 7-5 26-10 43-11s31-5 31-9c0-11 52-10 69 1 8 5 15 38 18 93 6 85 6 85-47 91-57 7-183 34-215 47-11 4-69 31-130 61-94 45-169 96-292 199-19 16-70 12-77-5z"/>
 </g>
 <g id="by" transform="translate(-1468 -1308)" fill="#6c9959">
  <path id="bz" d="m3055 4310c10-11 23-20 29-20 7 0 44-16 85-35 40-19 75-35 77-35 13 0 1 39-13 45-27 11-186 65-191 65-3 0 3-9 13-20z"/>
  <path id="ca" d="m2870 4253c0-5-14-9-30-10-17-1-45-13-63-26-17-14-48-33-67-42-74-37-328-299-359-370-10-22-26-46-35-54-9-7-16-18-16-24 0-10-31-83-52-121-21-40-50-164-53-228-3-68-3-68 26-68 28 0 29 2 29 45 0 31 5 47 15 51 9 4 15 19 15 38 0 55 12 106 25 106 14 0 25 31 25 73 0 16 5 27 14 27 16 0 26 21 26 56 0 15 6 24 15 24 10 0 15 10 15 30 0 23 4 30 20 30 11 0 20 6 20 13 0 17 22 44 124 153 44 46 83 84 88 84 9 0 93 63 113 85s74 55 89 55c9 0 18 12 22 28 3 15 7 33 10 40 2 6-1 12-6 12-6 0-10-3-10-7z"/>
  <path id="cb" d="m4090 4020c0-17 9-40 20-52s20-29 20-37c0-12 11-16 44-16 60 0 100-30 104-77 3-32 6-36 40-42 21-3 38-1 40 4 2 6 11 10 19 10 23 0 12 27-46 116-28 44-51 83-50 87 2 23-40 36-113 37-78 0-78 0-78-30z"/>
  <path d="m2099 3073c-2-30 3-58 11-68 5-6 12-45 16-88 4-42 10-77 14-77 11 0 30-48 30-76 0-14 9-37 20-51s20-34 20-43c0-10 6-23 14-29 8-7 18-25 21-41s12-34 20-40c7-6 16-21 19-34s23-41 43-62c55-57 93-103 93-111-1-5 14-11 32-14 18-4 41-10 51-14s17-3 17 4c0 8 4 9 13 1 121-101 198-154 292-199 61-30 119-57 130-61 45-18 164-42 228-47 67-5 67-5 67 96 0 94-1 101-20 101-17 0-20-7-20-50 0-49-7-59-26-40-5 5-39 13-74 16-36 4-72 12-80 19s-58 31-110 54-112 53-132 66c-21 14-42 25-46 25-14 0-282 263-282 277 0 12-65 128-87 154-7 9-12 27-11 40s-20 60-49 106c-27 45-58 109-69 143-19 60-19 60-81 60-53 0-63-3-64-17z"/>
  <path id="cc" d="m4310 3070c0-16 7-20 35-20 35 0 35 0 35-58 0-32-4-62-9-68-13-14-71-156-71-175 0-9-9-24-20-34s-20-26-20-35-9-25-20-35-20-25-20-34c-1-20-30-56-53-64-9-4-21-17-26-29-11-27-75-93-113-116-16-9-28-20-28-26 0-13-32-35-52-36-10 0-23-9-30-20s-22-20-33-20-25-10-30-22c-7-16-22-25-50-29-21-4-41-12-43-18s-13-11-25-11-35-9-52-20c-17-12-47-20-71-20-22 0-44-4-50-9-5-5-19-12-31-16-20-6-23-3-23 24 0 25-4 31-21 31-20 0-21-4-17-80 2-57 8-84 18-91 17-11 99-5 127 10 10 5 59 21 108 36 101 31 115 36 167 68l100 60c84 52 338 299 338 330 0 4 25 51 55 105 62 111 89 182 111 292 8 41 20 85 26 98 10 19 9 25-2 32-10 6 0 10 30 13 25 2-19 4-97 5-137 2-143 1-143-18z"/>
 </g>
 <g transform="translate(-1468 -1308)" fill="#6d9f5a">
  <path id="cd" d="m2841 4223c-1-7-8-13-17-13-15 0-69-33-89-55-20-21-104-85-112-85-12 0-158-150-172-177-6-13-19-23-27-23s-12-4-9-10c3-5 2-10-4-10s-8-7-4-16c4-11 1-15-13-12-15 2-20-4-22-30-2-18-7-30-12-27-10 6-32-29-29-48 3-25-1-38-10-32-12 7-33-29-30-53 4-39-1-53-18-50-19 3-22-14-24-106-1-27-4-35-10-25-7 11-9 11-9-3 0-10-4-18-9-18s-8-27-8-60c2-60 2-60 129-60 121 0 128 1 128 20 0 17-7 20-45 20-43 0-45 1-45 29 0 16 6 31 13 34 15 6 37 91 37 143 0 22 7 40 20 51 11 10 20 29 20 43 0 49 12 71 40 77 17 3 40 22 60 49 18 23 39 45 46 48 8 3 14 19 14 36 0 24 4 30 21 30 13 0 48 25 86 62 55 55 67 62 97 60 34-3 34-3 38 105 4 113 2 126-11 104-7-11-10-11-14 0-4 10-6 10-6 2z"/>
  <path d="m3990 4025c0-14 4-25 8-25s21-27 37-60c29-56 55-75 70-50 4 6 23 17 43 26s31 18 25 21c-7 3-13 12-13 22 0 9-9 27-20 39s-19 27-18 34c2 9-16 14-64 16-67 3-68 3-68-23z"/>
  <path id="ce" d="m4263 3079c-20-20-16-27 15-31 34-4 40-39 19-101-8-23-21-62-28-87s-23-55-36-68-23-31-23-42c0-24-38-91-62-108-10-7-18-19-18-27 0-7-3-15-8-17-4-1-27-27-52-56-25-30-57-60-72-68-16-8-28-21-28-30 0-8-13-17-31-21-17-3-37-16-46-29-8-13-43-37-76-55-34-17-73-37-87-45-14-7-32-14-41-14s-31-7-49-17c-19-9-55-18-82-21-48-5-48-5-48 27 0 24-4 31-20 31-18 0-20-6-19-52 0-79 12-130 32-142 13-8 19-8 25 1 4 6 20 15 35 18 15 4 30 11 33 16s24 9 47 9c25 0 54 8 72 20 17 11 40 20 52 20s23 5 25 11 17 12 34 13c35 2 92 41 72 49-7 3-2 6 12 6 14 1 31 10 38 22 7 11 18 18 25 16 12-4 61 28 55 36-2 2 20 22 47 43 50 38 81 71 101 109 6 11 15 19 21 18s25 16 44 39c18 23 27 38 21 34-20-12-14 9 8 29 11 10 20 26 20 35s9 25 20 35 20 25 20 34c0 27 43 120 53 114 5-3 6 3 3 14-3 10 1 28 9 39s14 41 15 71c0 29 5 64 12 78 16 35 5 42-77 50-51 5-73 3-82-6z"/>
  <path id="cf" d="m2327 2813c-10-9 3-85 18-103 22-28 85-141 85-153 0-14 268-277 282-277 4 0 25-11 46-25 20-13 80-43 132-66s102-47 110-54 42-15 75-18c33-4 74-13 90-21 17-9 40-13 52-10 18 5 22 15 25 59 3 52 2 54-26 59-16 3-43 6-60 6-18 0-36 4-41 8-6 5-30 15-55 22s-52 19-60 26c-8 6-33 17-55 24s-42 16-45 19c-3 4-39 24-80 45-95 49-160 98-246 183-64 64-162 188-201 254-17 28-33 36-46 22z"/>
 </g>
 <g id="cg" transform="translate(-1468 -1308)" fill="#70a559">
  <path id="ch" d="m2862 4098c-2-58-13-73-31-41-13 25-38 10-121-71-57-56-70-65-70-47 0 28-10 27-43-8-30-32-35-51-12-51 19 0 20-19 1-26-7-3-28-25-46-48-20-27-43-46-60-49-28-6-40-28-40-77 0-14-9-33-20-43-13-11-20-29-20-51 0-52-22-138-37-142-50-15-49-14-30-28 20-15 22-37 5-54-19-19 9-42 53-42 21 0 49-4 63-10 25-9 26-8 26 26 0 19 9 52 20 74s20 48 20 60c0 44 82 189 152 269 65 75 151 151 169 151 15 0 30 108 26 186-2 66-3 69-5 22z"/>
  <path id="ci" d="m3965 4040c-16-26-2-334 16-345 4-3 28 9 52 26 42 29 45 34 51 91 6 64 17 84 51 99 16 7 14 8-10 4-28-4-32-1-60 55-16 33-34 61-40 62-5 1 15 4 45 8 55 7 55 7-22 8-44 1-80-2-83-8z"/>
  <path id="cj" d="m4195 2977c-51-76-70-113-60-115 11-3 11-9-3-40-46-100-98-176-175-253-67-68-100-92-173-128-137-68-206-93-227-85-7 2-30-2-51-11-38-16-38-16-31-78 4-34 9-65 11-69 2-3 17-3 33 2 15 4 34 4 42-1 7-4 18-4 24 0 5 5 28 14 50 21s45 16 50 20c6 4 26 10 46 14 21 4 42 13 49 21s16 13 20 10c5-3 11-1 14 4 4 5 26 19 50 31 24 11 52 32 61 46 9 13 20 22 25 19 12-8 50 17 50 32 0 7 13 19 28 27 16 8 45 35 66 60 20 25 45 53 54 63 9 9 17 20 17 24s8 16 18 26c32 33 66 93 61 107-3 8 5 25 19 37 13 13 29 44 36 69s19 63 27 85c8 23 14 55 14 72s7 38 15 47c8 8 15 17 15 19 0 7-28 18-68 27-33 8-33 8-107-103z"/>
  <path id="ck" d="m2805 2350c-6-10 46-71 56-65 5 4 9 2 9-3s19-14 43-21c23-7 49-18 57-25s35-19 60-26 50-17 55-21c6-4 30-9 55-11 25-3 52-8 61-12 27-12 49 20 49 70 0 44 0 44-72 44-97 0-185 15-286 49-46 15-85 25-87 21z"/>
 </g>
 <g transform="translate(-1468 -1308)" fill="#73b458">
  <path d="m2844 3935c-4-8-14-15-23-15-54 0-229-191-290-315-23-47-41-94-41-105 0-12-9-38-20-60s-20-59-20-82c0-44 0-44 63-70 62-27 62-27 126-9 66 18 86 37 57 53-21 12-20 46 2 83 10 17 28 56 40 87s34 69 49 85 37 45 47 65c22 40 66 69 66 43 0-9 9-15 24-15 21 0 25 6 31 51 4 27 5 53 2 55-3 3-24 8-46 11-56 8-65 22-58 93 5 59 2 74-9 45z"/>
  <path id="cl" d="m4180 2905c-7-9-19-14-26-11-8 3-19-5-25-17-21-39-102-140-174-216-113-120-268-234-392-291-49-22-68-40-42-40 5 0 7-5 4-10-10-17 47-11 105 10 176 65 265 117 352 204 86 85 110 119 168 235 34 69 60 151 47 151-2 0-10-7-17-15z"/>
 </g>
 <g id="cm" transform="translate(-1468 -1308)" fill="#73bb57">
  <path id="cn" d="m2943 3778c0-7-1-26-2-43-2-27-3-28-11-9-5 12-13 24-17 27-18 12-90-35-109-71-10-20-32-49-47-65s-37-54-49-85c-11-30-29-69-39-86-9-17-21-52-24-78-6-41-5-48 16-61s34-13 112 1c87 15 87 15 87 56 0 49 22 126 49 170 11 17 24 49 29 71 16 62 25 185 14 185-6 0-10-6-9-12z"/>
 </g>
 <g id="co" transform="translate(-1468 -1308)" fill="#37d39b">
  <path id="cp" d="m3575 2963c-27-23-30-32-27-73 3-39-1-52-22-76-26-29-26-29-47-5-11 14-23 38-26 54-5 26-9 28-36 23-16-3-45-6-63-6-42 0-42-7-3-90 46-97 94-140 157-140 80 0 144 170 116 309-8 37-11 38-49 4z"/>
 </g>
 <g id="cq" transform="translate(-1468 -1308)" fill="#73fbc2">
  <path d="m3530 2930c-14-10-44-24-68-31s-46-18-49-26c-3-7 5-34 18-60 22-43 28-48 62-51 48-4 73 16 87 69 12 43 3 119-14 119-6 0-22-9-36-20z"/>
 </g>
</svg>
