<svg id="a" class="img-fluid" width="1024" height="1024" version="1.1" viewBox="0 0 5120 5120" xmlns="http://www.w3.org/2000/svg">
 <g transform="translate(.12847 -1.2756)" fill="#411b1d">
  <path id="b" d="m42 5110c-12-5-27-21-32-35-14-36-13-739 0-787 11-38 29-52 180-136 23-12 18-13-48-8-94 6-118-3-132-51-8-27-10-306-8-946l3-909 28-23c26-23 26-25 8-35-11-6-25-27-31-48-13-47-13-326 0-373 36.194-67.509 83.382-54.002 145-47-45.194-27.532-135.19-40.916-141-87-12-30-14-147-12-810 3-728-5.2537-779.41 11.746-796.41 16-16 53.254-13.593 301.25-16.593 177-2 289 1 315 8 46 12 60 36 60 100 0 74 33 126 104 162 59 30 151 22 208-18 54-37 91-105 84-152-8-52 8-79 51-92 27-8 595-10 1990-8 1858 3 1953 4 1970 21 16 16 18 47 21 367 2 287 0 355-12 384-12 30-12 40 1 78 10 31 14 74 11 156-3 106-5 115-27 133-13 10-37 19-55 20-30 1-30 1 12 16 77 27 73-38 70 1057-3 807-5 976-17 989-11 14-11 20 0 34 12 13 14 168 14 919 0 853-1 904-18 921-16 16-44 18-275 21-274 3-340-4-350-40-6-24-15-23-27 4-6 12-21 25-35 29-41 11-382 10-423-2-43-12-48-21-67-124l-13-70-26 85c-41 133 66 121-1017 118-713-2-924-6-936-15-8-7-21-30-28-52-15-46-51-88-88-102-65-25-145 23-163 98-6 23-18 48-27 55-12 10-177 13-786 15-453 1-780-2-794-7zm1526-129c13-42 50-84 97-109 42-22 179-21 222 1 38 20 81 74 92 114l7 28 893 3c708 2 892 0 895-10 24-76 78-255 90-300 16-56 18-58 51-58 28 0 36 4 39 23 3 12 12 56 21 97s24 113 34 160l17 85 172 3c139 2 172 0 172-11 0-26 21-232 25-254 5-20 12-23 49-23h43l35 143 35 142 232 3 231 2-2-851-3-852-250-94-6-76 130 7 131 7v-1889l-52-17c-62-20-245-86-306-110-37-15-42-21-42-50 0-57 11-59 193-46 90 6 173 14 185 18 21 5 22 3 22-79v-85l-67-6c-38-4-92-7-120-7h-53v-34c0-41 6-46 95-75 39-12 87-30 108-38l37-16v-627h-3840v33c0 55-18 100-64 158-37 47-52 58-102 74-88 28-206 26-267-4-88-43-140-116-153-215l-7-46h-487v1477l72 31c72.375 34.021 337.6 107.34 338 158 12.999 77.48-360.28 34.811-410 32v299l35 19c32 17 35 22 35 66 0 39-5 52-27 73-15 14-31 25-35 25-5 0-8 399-8 886v886l180-7 180-8v36c0 29-6 39-32 56-18 11-49 36-67 55-24 25-44 36-64 36-17 0-63 21-113 51l-84 50v699h1457z"/>
  <path id="c" d="m4664.5 358.21c0 108.16-44.494 160.58-152.65 160.58s-164.54-52.426-164.54-160.58 56.392-157.49 164.54-157.49 152.65 49.341 152.65 157.49zm-53.476 0.46c0-54.428-44.122-98.55-98.55-98.55s-98.55 44.122-98.55 98.55 44.122 98.55 98.55 98.55 98.55-44.122 98.55-98.55z"/>
 </g>
 <g id="d" transform="translate(.12847 -1.2756)" fill="#b27539">
  <path id="e" d="m70 4670v-379l68-41c71-42 91-47 123-30 16 9 19 22 19 75 0 60-2 65-22 66-20 0-20 2 5 11 27 9 29 14 25 54-3 42-2 44 23 44 23 0 27 6 37 51 7 28 12 70 12 95 0 42-1 44-30 44s-30 2-30 44c0 25-4 48-10 51-5 3-10 17-10 31 0 19-5 24-27 25-17 0-22 3-13 6 8 3 18 11 22 16 4 6 29 10 57 8 40-2 51 1 51 13 0 16 13 21 78 31 32 5 42 11 42 26 0 17 8 19 63 19 35 0 68 5 75 12 6 6 15 8 19 4s0-12-10-17c-12-7-17-23-17-59v-50h65c58 0 65 2 65 19 0 11 5 23 10 26 6 3 10 15 10 26 0 10 5 19 10 19 6 0 10 9 10 20 0 14 7 20 21 20 19 0 19-1 5-22-9-12-16-37-16-55 0-31 2-33 35-33 19 0 46 5 60 12 24 11 26 16 23 60-2 26 1 48 6 48 4 0 21-11 37-24 36-31 117-43 159-24 16 7 30 17 30 21 0 5 10 7 22 5 19-2 24-12 31-55 8-50 10-53 37-53 19 0 31-6 35-19 9-31 105-46 105-16 0 8 12 17 28 21 64 14 62 12 62 73 0 42 5 64 18 79 18 21 19 21 50 1 18-10 45-19 61-19h29l-19 37c-10 21-19 43-19 50 0 10-82 13-409 13-263 0-412-4-416-10-3-5-19-10-36-10-16 0-29 5-29 10 0 6-112 10-315 10h-315z"/>
  <path id="f" d="m1954 5033c-3-10-10-28-15-41-10-24-5-29 41-34 17-2 30-14 42-39 16-34 21-37 72-43 78-10 92-4 100 47 4 23 10 37 14 31s51-15 105-19c72-5 97-10 97-20 0-17 50-27 110-23 35 2 46 7 48 22 2 10 15 29 28 41s24 30 24 39c0 26 17 19 24-10l7-27 82 7c45 3 94 6 110 6 25 0 27 3 27 40v40h-455c-425 0-456-1-461-17z"/>
  <path id="g" d="m2920 5039c0-6-10-19-22-28-17-14-22-29-22-67l-1-49h50c42 0 52 3 60 23 7 16 18 22 42 22 18 0 33 5 33 10 0 6 9 10 20 10s20-6 20-14c0-17 31-26 93-26 32 0 47 4 47 13 0 17 83 54 132 59 35 4 37 2 40-27 3-26 7-30 36-33 37-4 72 26 72 60 0 16 8 18 63 17 44-1 54-3 32-8-21-4-31-13-33-29-2-12-8-22-13-22-12 0-11-60 2-99 6-17 17-31 25-31 9 0 14-11 14-30 0-26-4-30-28-30-44 0-72-26-72-65 0-31 3-35 34-41 19-3 48-3 65 1 27 6 31 11 31 41 0 33 1 34 40 34s40 1 40 35v35h69c48 0 70 4 74 13 3 8-10 63-28 123l-33 109-441 3c-316 1-441-1-441-9z"/>
  <path d="m3996 5041c-4-5-9-37-13-71-5-56-4-62 15-67 28-7 36-32 17-53-17-19-20-63-5-91 9-15 22-19 69-19 51 0 61 3 75 25 9 13 16 41 16 62 0 66 9 83 41 83 22 0 29 5 29 20 0 21 15 27 25 10 3-5 15-10 26-10 10 0 28-5 38-12 18-11 18-12 0-32-11-11-19-28-19-38s-7-21-15-24c-16-7-22-84-6-84 5 0 11-9 14-19 4-15 17-21 60-26 70-9 81-3 73 44-9 50-35 261-35 289l-1 22h-199c-110 0-202-4-205-9z"/>
  <path id="h" d="m4525 5038c-12-36-33-144-29-150 3-5 13-8 22-8 10 0 23-9 30-20 8-14 23-20 47-20 29 0 37 5 45 25 9 24 40 36 40 15 0-5-7-10-15-10-12 0-15-12-14-57 1-32-2-84-6-117-9-66-2-76 52-76 31 0 32-1 35-52 3-47 6-53 27-56 45-7 71 6 71 36 0 36 38 62 55 38 7-9 15-16 19-16s13-6 20-13c15-14 10-77-6-77-6 0-8-18-6-40 3-30 0-40-11-40s-13-13-9-65c3-36 2-65-3-65-19 0 1-113 24-136 4-4 7-21 7-39 0-17 4-35 10-41 17-17 16-85-3-99-9-7-17-19-17-27 0-9-7-21-15-28s-15-27-15-45c0-27 5-36 30-47 30-13 40-28 19-28-8 0-10-18-5-59 4-33 3-61-2-63-5-1-13-37-16-78-7-74-7-76 18-90 14-7 26-21 26-31 0-22 5-25 58-34l42-7v1632h-260c-200 0-262-3-265-12z"/>
  <path id="i" d="m1610 4890v-40h50c45 0 50 2 50 23 0 24-47 57-81 57-16 0-19-7-19-40z"/>
  <path d="m1857 4903c-4-3-24-9-44-12-36-6-38-9-38-41s3-35 34-38c23-2 39 2 52 17 28 30 24 103-4 74z"/>
  <path id="j" d="m850 4708c0-18 4-38 8-43 11-17 61-35 92-35 28 0 30 3 30 35 0 29-6 39-32 55-18 11-48 20-65 20-31 0-33-2-33-32z"/>
  <path id="k" d="m428 4593c-24-4-28-9-28-38 0-39 20-55 69-55 35 0 51 22 51 69 0 29-3 31-32 30-18-1-45-4-60-6z"/>
  <path id="l" d="m4865.6 4150.9c0 42.63-34.559 77.189-77.189 77.189s-77.189-34.559-77.189-77.189 34.559-77.189 77.189-77.189 77.189 34.559 77.189 77.189z"/>
  <path id="m" d="m70 3736c0-396-6-367 71-343 27 8 42 19 46 35 3 14 13 22 25 22 18 0 20 5 16 45-4 34-2 45 8 45 9 0 14 12 14 35 0 28-5 38-24 46-19 9-25 22-30 62-5 31-3 54 3 60 15 15 14 77-1 77-7 1-2 10 11 20 22 19 23 25 17 80-5 40-3 60 4 60 5 0 10 16 10 35s-4 35-10 35c-5 0-10 7-10 15 0 11-13 15-52 15-33.559-0.6148-65.823 3.6059-98 12z"/>
  <path id="n" d="m4900 3361c0-52 8-61 56-61 42 0 44 1 44 29 0 52-8 61-56 61-42 0-44-1-44-29z"/>
  <path id="o" d="m70 3175v-95h120v50c0 43-3 50-20 50-11 0-20 6-20 13s-9 19-20 27-20 22-20 32c0 11-7 18-20 18-19 0-20-7-20-95z"/>
  <path id="p" d="m287 3233c-11-10-8-73 3-73 6 0 10-7 10-16 0-12 9-14 38-12l37 3 3 53 3 52h-44c-24 0-47-3-50-7z"/>
  <path id="q" d="m5010 3181c0-5-27-12-60-16l-60-7v-54c0-30-4-54-10-54-5 0-10-25-10-55v-55h65c55 0 65-3 65-17 0-15-8-17-50-15l-50 4v-51c0-28 5-51 10-51 6 0 10-9 10-19 0-11 7-26 15-35 8-8 15-25 15-38s4-28 8-34c5-5 6-50 4-101-4-85-6-92-25-95s-22-11-25-57c-2-30 2-59 7-64 6-6 11-40 12-77 0-36 5-81 12-100 11-31 16-35 51-38 24-2 42 2 47 10 5 7 9 241 9 521 0 500 0 507-20 507-11 0-20-4-20-9z"/>
  <path id="r" d="m123 2933c-7-2-13-20-13-39 0-27-4-34-20-34-20 0-20-5-18-302l3-303h90l-1 48c0 37 3 47 16 47 9 0 23 11 30 25s17 25 22 25c4 0 8 23 8 52 0 36-6 58-19 72-25 29-35 83-16 93 8 5 17 32 21 66 6 54 6 57-16 57-20 0-22 4-17 48 3 26 8 59 12 74s4 39 1 53c-5 20-12 25-39 24-17 0-38-3-44-6z"/>
  <path id="s" d="m140 2177c0-7-16-21-35-31l-35-19v-358l102 3c88 3 103 5 106 21 3 13-3 17-27 17-21 0-31 5-31 15 0 8 5 15 10 15 6 0 10 18 10 40s-4 40-9 40-11 14-13 30c-3 17-1 30 4 30 13 0 8 73-7 100-8 14-14 41-15 61 0 24-6 39-16 43-25 10-44 7-44-7z"/>
  <path id="t" d="m5005 2065c-6-61-8-65-32-65-31 0-52-25-53-62 0-14-5-28-12-30-12-4-3-79 22-178 6-25 12-56 13-70 2-23-1-24-40-21l-43 3v-46c0-24 5-48 10-51 6-3 10-35 10-71 0-35 4-64 10-64 15 0 31-72 19-86-6-7-9-34-7-61 3-41 6-48 26-51 12-2 45 4 72 13l50 17v444c0 428-1 444-19 444-16 0-20-10-26-65z"/>
  <path d="m103 1619-33-10v-1539h547l7 46c8 58 36 121 70 158 27 28 27 28 7 43-13 9-21 25-21 44v29h-69c-39 0-73-5-76-10-3-6-21-10-39-10-17 0-37-5-44-12-6-6-34-14-61-18l-50-6-6 37c-4 25-13 39-26 42-13 4-19 14-19 35 0 17-5 32-11 34-12 4-13 30-3 96 5 32 3 42-7 42-21 1-59 36-59 54 0 12-11 16-42 17-24 1-35 3-26 6 22 6 31 50 23 106-5 33-3 47 7 53 24 16 38 53 38 99 0 32-4 45-14 45-18 0-33 127-17 143 14 14 14 74 1 82-18 11-10 22 20 29 27 5 30 10 30 41 0 32 2 35 30 35s30 2 30 40c0 35 3 40 24 40 20 0 24 6 30 46 3 26 6 66 6 90v44h-48c-47 0-102 18-102 33 0 10-57 7-97-4zm144-139c-13-33-15-34-37-20-13 9-12 13 9 30 33 28 41 25 28-10z"/>
  <path id="u" d="m4935 1093c-94-11-97-13-92-41 27-133 60-172 153-180l54-4v232l-42-1c-24-1-56-4-73-6z"/>
  <path id="v" d="m4890 790c0-11-6-20-14-20-15 0-26-21-26-51 0-11-7-19-16-19-14 0-16-9-12-64l6-64-67-12c-36-7-73-18-81-25s-24-15-35-17c-26-4-30-31-9-62 18-28 61-35 82-14 9 9 12 7 12-11 0-25-17-45-45-55-14-4-21-16-23-43-6-86-69-137-160-130-84 6-152 72-152 148 0 32-4 39-19 39-11 0-23-9-26-20s-15-20-25-20c-22 0-35-36-27-76 3-19 1-24-10-20-8 3-19 6-24 6s-9 16-9 35v35h-63c-82 0-101-13-96-67 3-31 0-44-13-52-22-14-65-14-73-1s-75 13-75 0c0-6-27-10-60-10-48 0-62-4-72-19-12-19-32-18-54 3-6 6-21 18-33 26-11 8-21 20-21 26 0 15-23 24-61 24-26 0-29-4-29-30v-30h-130v34c0 30-4 34-31 40-74 15-79 11-79-49 0-41 4-56 18-64 9-6 12-11 6-11-5 0-19 7-30 15-10 8-31 15-46 15-24 0-28 4-28 29 0 29-14 41-51 41-10 0-19 6-19 13 0 25-39 47-85 47-41 0-45-2-45-24 0-14-4-28-10-31-5-3-10-16-10-29 0-21-7-24-82-34-46-7-101-12-124-12-22 0-44-4-50-9-5-5-33-16-62-25-53-15-53-15-62 8-6 16-20 26-44 30-20 4-36 11-36 16 0 6-17 10-39 10-27 0-43-6-52-19-14-20-27-24-66-22-15 1-23 7-23 19 0 27-20 42-57 42-22 0-33-5-33-14 0-11-13-13-60-9-41 4-60 2-60-6 0-6-13-11-30-11-20 0-30 5-30 15s-10 15-30 15c-23 0-30 4-30 20 0 29-65 29-73 0-4-17-14-20-61-20-41 0-56-4-56-14 0-9-16-15-46-19-66-7-124 2-124 20 0 12-14 14-85 8l-85-7-6 32c-4 17-14 34-23 38-9 3-19 10-22 15-8 11-139-2-139-14 0-16-30-10-52 10-16 16-35 20-94 20-58 0-74-3-74-15 0-7-4-14-10-14-16 0-12-18 16-59 16-25 27-59 31-95l6-56h3897v687l-27 12c-29 14-113 41-125 41-5 0-8-9-8-20z"/>
  <path id="w" d="m847 413c-4-3-7-18-7-32 0-25 4-27 47-29 25-1 55-4 65-8 15-4 18 0 18 23 0 16-5 34-12 41-13 13-100 17-111 5z"/>
  <path id="x" d="m3737 402c-10-10-17-35-17-54 0-38 12-48 55-48 44 0 55 10 55 50 0 21-3 45-6 54-9 22-67 21-87-2z"/>
 </g>
 <g id="y" transform="translate(.12847 -1.2756)" fill="#c68a49">
  <path id="z" d="m668 5044c-4-3-5-11-2-18s-4-20-14-29c-16-15-21-15-38-3-10 8-19 20-19 28 0 7-8 14-19 16-11 3-16 0-12-7 5-7-4-11-24-11-17 0-29-4-25-10 3-5 13-7 23-4 9 3 7-1-6-8-17-11-20-16-10-26 9-9 5-12-20-12-19 0-31 5-30 12 2 6-5 13-14 15-12 3-16-2-14-20 2-13 7-30 11-37 5-9 4-11-4-6-6 4-19 2-27-5-12-10-15-10-12 2 2 8-3 13-11 11-7-1-25 5-40 14l-26 17 25-28c14-16 19-25 13-21-7 4-13 2-13-3 0-8-7-7-20 1-11 7-15 15-9 19 7 4 5 8-4 12-11 4-15 0-12-14 2-10 7-24 10-29 3-6 0-10-7-11-7 0-4-4 7-9 15-7 16-9 4-9-23-1-45 25-27 32 7 2 1 4-14 3-14 0-24-4-21-8 2-5-1-8-7-8-13 0-45-30-33-31 4 0-2-4-14-9-13-5-23-18-23-28s-6-24-12-30c-10-10-8-14 10-18 12-4 22-10 22-15s5-9 10-9c6 0 9 5 8 11-2 6 3 14 10 16 24 9 11-16-20-38-17-13-29-18-25-12s-3 13-15 16c-18 5-16 1 11-26 28-29 29-34 16-48-14-14-14-17 5-34s25-12 22 16c-1 4 7 9 18 12s18 0 17-5c-3-15-46-58-57-58-6 0-10-11-10-24 0-19-4-22-24-19-18 4-23 10-20 26 4 21 4 21-5 2-7-14-10-15-10-5-1 13-2 13-11 0-8-12-10-12-10-1 0 8-3 11-7 8-3-4 1-15 9-24 8-10 14-28 13-40s2-20 6-17c4 2 11-1 14-7 4-5 13-8 21-5s14 0 14-6 3-9 6-5c3 3 20-10 37-30 25-28 28-36 16-44-8-5-21-9-30-9-24 0-29-11-17-34 11-20 10-20-7-6-17 13-18 13-10 0 22-39 38-50 54-38 13 10 14 10 4-1-8-9-9-21-3-37 8-19 5-26-10-34-27-15-50-12-50 5 0 8 5 15 10 15 6 0 10 5 10 10 0 6-7 10-16 10-8 0-12 5-9 10 9 14-18 12-34-2-8-7-11-8-8-3 3 6 2 17-4 25-6 11-9 11-10 3-6-55-4-58 56-95 56.066-31.999 106.71-63.548 154.75-85.847 39.101-21.678 66.254-45.153 80.254-55.153 24-17 22-18-90-12-64 3-122 3-131 0-10-4-16-17-15-33 1-21 6-26 21-25 11 1 14 0 8-3-7-3-13-12-13-19 0-8-9-19-20-25-15-8-17-15-11-33 9-24 11-31 11-48 0-8 5-8 15 1 8 7 15 9 15 4s-12-17-25-27l-25-18-1 33c-2 31-2 31-6 5-3-16 1-35 7-42 9-11 9-18-3-29-8-8-19-12-23-8-5 4 1-5 14-19 24-28 28-59 11-76-9-9-8-18 4-37 14-21 15-27 3-38-18-17 0-63 19-48 8 6 18 5 31-5 19-14 18-14-2-15-14 0-21-6-20-17 1-21-72-46-91-31-21 17-25-13-21-168 2-107 6-149 16-152 6-2 12-10 12-18 0-9 5-12 11-8 8 5 8 1 0-14-16-30-15-47 2-33 8 6 17 8 20 4 4-3 7-1 7 5 0 7 4 12 8 12s8-9 8-20c0-28-56-29-63 0-3 11-9 17-14 14-11-6-12-314-1-314 12 0 42-56 42-78 0-11 8-26 17-33 16-13 17-12 5 3-7 9-12 22-11 30 1 7-2 22-6 32-6 13-4 21 3 24 7 2 9 9 6 15-4 7 2 4 12-6 15-14 17-22 7-46-8-22-8-32 1-41 8-8 7-14-5-23-18-13-21-27-10-42 17-21 21-63 7-68-9-4-12 2-8 19 3 18 0 24-13 24-15 0-16-2-4-17 10-12 10-15 1-9s-10 2-1-18c14-30 4-76-17-76-9 0-14-6-11-12 2-7 10-12 16-10 6 1 11-5 11-13s-3-15-8-15c-4 0-7-15-7-33 0-26-3-31-20-29-19 4-19 3 2-18 13-11 23-25 23-31s6-7 13-3c8 5 7 2-2-10-10-12-16-14-21-5-14 22-30-2-30-44 0-36 5-45 30-62 19-13 34-34 41-58 5-21 13-35 18-33 13 8 9-19-5-32-8-7-15-8-19-2-3 6-1 10 6 10 10 0 10 3 1 12-6 6-15 9-19 5-9-10 18-57 33-57 12 0 44-48 44-65 0-3-9-5-20-5-22 0-26 10-10 26 7 7 6 11-4 11-8 0-13-4-10-9 3-4 0-8-6-8s-2-12 9-26c11-15 18-31 15-36s0-15 6-23c7-8 9-15 4-15s-9-18-10-41c-1-24 2-35 7-28 4 7 6 16 4 19-2 4 2 7 10 7s15-2 15-4c0-6-33-38-39-38-23-2-51-19-51-30 0-7-10-15-22-17s-23-9-26-16c-3-10 7-12 39-10 37 3 44 6 43 24 0 11 6 21 13 21s11-2 8-5c-12-12 28-31 66-31 73-1 113-2 139-6 14-2 43-4 65-4 35-1 20-9-115-60-85-33-176-68-202-80l-48-20v-75c0-68 2-75 20-73 11 1 22 7 24 14 3 7 10 13 16 13s9-4 6-9 0-14 8-20c15-12 16-28 3-47-4-7 1-18 11-25 15-12 15-12 6 1-9 11-9 18 1 27 11 10 13 8 11-10-6-47-18-77-29-70-6 3-7 1-3-5 4-7 2-12-4-12s-8-5-5-10c10-17-5-50-23-49-11 0-12 3-4 6 6 2 12 9 12 15 0 7-5 7-13-1-8-6-18-7-23-3-4 4-2-1 5-10 11-14 11-21 1-33s-9-16 5-21c17-7 17-8 0-20-17-13-17-14 0-20 12-5 22-1 30 10 9 11 15 13 20 7 3-6 0-14-8-17-9-3-13-13-10-25 5-19-8-25-47-19-9 1-3-11 16-32 17-18 34-40 36-48 6-18-19-39-47-40-19 0-19-1 2-22 19-19 20-23 7-33-13-9-13-14 5-36 11-15 17-29 14-33-3-3-4-6-1-6s13 11 21 24c14 21 15 25 1 30-8 3-12 2-9-4s-1-10-9-10c-20 0-21 24-2 39 10 9 16 9 21 1s12-7 23 2c14 10 15 10 5-2-17-18-17-33-1-24 7 4 4-2-6-14-11-12-15-22-10-22s-2-7-14-16c-12-8-20-20-17-25s-1-6-9-3c-9 3-16 1-16-5 0-21-20-11-21 12-1 17-2 18-6 4-3-11 9-33 30-57 42-46 40-75-5-85-27-6-30-10-24-37 3-17 6-34 6-39s12-9 26-9 23 4 20 8c-3 5 8 8 25 8 30 0 39-11 17-19-7-3-1-10 15-16 17-7 25-15 21-23-4-6-3-8 4-4 6 3 13 2 17-4s11-8 16-5 6-1 3-10c-4-10-14-15-25-12s-17 2-14-3c3-4-2-11-11-14-13-5-14-9-4-22 10-11 15-12 20-3 5 7 10 8 14 1 3-6-3-13-14-17-12-4-17-11-13-18s8-18 9-25c2-8 11-23 21-34s17-22 16-24c-2-2-1-3 1-1 2 1 13-7 25-17 12-11 21-15 22-10 0 5 5-4 10-20 10-36 5-43-18-25-10 7-15 9-11 5 4-5 3-15-3-23-9-10-8-18 5-31 9-10 13-22 9-27-5-4-2-4 6 0 11 6 13 4 8-8-4-11-2-14 9-10 8 3 14-1 14-8 0-10 2-11 13 0 10 10 8 14-6 22-9 6-15 14-12 20 4 5-4 9-17 10-22 0-22 1-3 8 21 9 38-6 28-23-4-5 1-7 11-3s19 7 22 7c2 0 1 6-2 14-6 15 33 29 42 15 6-11 44-12 44-1 0 4 13 15 29 24 23 12 28 13 25 3-8-19 27-64 50-65 12 0 16 5 12 16-3 9-2 12 4 9 7-4 9 7 6 28-5 42 0 50 26 36 14-8 23-8 31 0 6 6 16 11 21 11 6 0 3-5-7-11-9-6-15-15-12-20 4-5 12-6 18-3 7 4 9 3 4-1-8-10 21-45 37-45 6 0 31 13 56 30 24 16 69 35 99 41 36 7 49 14 40 19-11 7-10 10 5 16 20 8 52-8 49-24-1-6 23-18 54-28 47-15 62-26 99-73 25-31 47-66 50-78 4-15 13-23 28-22 11 0 15 3 9 6-7 2-13 12-13 21s-10 26-22 39-16 23-9 23c6 0 14-7 18-16 5-12 7-13 14-3 5 8 2 21-8 32-15 16-15 17-1 12 23-9 40-59 25-74-6-6-8-14-4-17 3-4 13 1 22 9 9 9 23 13 32 10 12-5 15-2 11 8-3 8 0 23 8 34 12 16 14 16 14 3 0-9-6-19-12-21-8-3-6-6 5-6 9-1 17 2 17 7 0 4 18 7 41 7 22 0 43 5 47 11s16 10 26 8c11-1 27 1 37 6 12 7 19 5 23-5 3-8 11-14 18-13 7 2 12-4 13-12 0-8 6-26 12-40 18-41 26-64 27-84 1-25 16-29 39-11 18 13 18 15 1 40-13 20-14 25-3 23 8-2 13 3 11 10-1 8 2 11 6 8 5-3 8-17 7-30-2-14 3-27 10-30 9-3 12 0 8 10-3 8-2 14 3 13s22-1 38 0c28 1 28 2 13 19-16 18-14 32 6 32 5 0 7-6 4-14-3-7 0-19 6-25 12-12 61-16 54-4s114 6 146-6c16-6 36-11 45-11 15 0 15 2 2 10-10 6-11 10-2 10 6 0 12 4 12 10 0 5-5 9-11 7-6-1-14 5-16 13-4 13-3 13 6 0 7-10 11-11 11-3 0 7 6 10 14 7s11-15 8-30c-3-17 0-24 12-24 9 0 16-7 16-15 0-21 13-19 28 6 8 12 9 18 3 14-6-3-11-1-11 4 0 6 9 12 20 12 11 1 25 3 30 4 6 1 17 3 26 4 10 1 14 7 10 16-3 8-1 15 4 15 15 0 12-21-6-41-9-10-22-15-30-12-10 4-12 0-8-11 4-10 1-16-7-17-8 0-3-5 11-10 20-8 27-6 38 8 7 10 15 17 17 16 14-8 16-1 4 15-13 16-12 16 4 2 17-12 20-12 29 4 9 17 11 17 23-1 17-24 77-31 69-8-5 13-9 13-23 3-13-10-13-9 2 8 9 11 15 23 12 26-3 2 2 5 10 5s15-7 15-14c0-9 5-11 13-6 21 13 42 9 52-12 6-11 20-20 30-20 11-1 19-6 18-11-1-6 4-11 12-11s11 5 8 11 7-1 23-15c24-21 33-23 52-15 26 13 29 24 6 22-9 0-19 5-21 12-5 12 19 17 65 13 12-1 22 3 22 9s-5 8-11 4c-8-4-8 0 0 15 13 23 33 29 28 9-1-8 6-12 18-10 16 2 17 1 5-7-8-5-18-7-22-5-4 3-8-4-8-15s5-23 10-26c6-4 8-10 5-14-6-10 44-5 53 5 4 4-1 4-10 1-10-4-18-2-18 3 0 6 10 10 21 10 16 0 20 5 16 20-7 29-1 25 17-10 9-19 10-28 3-23-7 4-6 0 2-10 21-26 76-22 99 7 10 14 31 28 46 32 14 3 29 10 32 15s10 7 15 3c5-3 7-10 4-15-4-5-1-9 4-9 6 0 11 6 11 12 0 7 7 2 16-10 15-22 17-23 42-5 15 9 45 20 67 23s39 10 38 16c-3 15 60 4 70-12 4-8 14-14 21-14 8 0 11-10 8-30-3-22 0-30 11-30 9 0 19 4 22 10 3 5 1 10-4 10-6 0-11 7-11 15s7 15 16 15c14 0 15 3 3 17-7 10-9 15-5 11 5-4 18 10 28 32 19 38 38 53 38 29 0-5 5-7 10-4 6 3 10 4 10 1s-13-12-28-20c-26-13-33-37-22-66 1-3 2-8 2-11-1-9 47 2 54 12 3 5 16 9 30 9 18 0 23 4 18 13-8 12 9 1 49-32 24-20 81-26 74-7-3 7-1 18 5 24 8 8 8 16-2 27-8 10-9 15-1 15 6 0 11-5 11-11 0-5 4-7 10-4s7-1 4-9c-4-11 0-16 15-16 12 0 21 5 21 11 0 5-4 7-10 4-5-3-10-2-10 3 0 15 50 24 65 12 9-8 15-8 20 0 3 5 12 10 18 10 7 0 6-4-3-10-13-8-12-10 3-10 9 0 17 5 17 10 0 6 9 10 21 10 11 0 30 5 41 11 12 7 23 7 27 2 3-5 15-15 26-21s14-12 7-12-11-4-7-9c3-6 14-8 25-6s20 0 20-4c0-15 65 3 82 23l17 21-6-22c-4-17-1-23 10-23 9 0 19-5 23-12s3-8-4-4-12 3-12-3c0-5 5-13 10-16 6-4 8-11 5-16-4-5 12-9 34-9s43 5 47 12c5 7 0 9-14 6-18-5-20-3-12 12 7 13 4 22-10 35-11 10-20 22-20 28 0 5 8 0 18-12l17-21 25 21c14 11 20 18 14 15s-11 1-11 9c0 9 4 11 11 6 10-8 66-24 91-26 6 0 19 8 29 17 23 21 26 21 50 3 10-8 16-20 13-28-4-12 0-13 21-6 15 5 40 11 55 14l28 6-21 26c-23 30-12 56 15 33 8-7 15-9 15-5s7 2 15-5 13-16 10-20 2-13 11-21c13-10 16-9 20 8 3 12 14 23 24 26 12 3 17 0 13-8-3-9 2-12 14-10 10 2 22 4 27 4 4 1 5 12 2 26-5 21-3 25 15 25s20-4 15-26c-6-23-5-25 16-19 33 11 33 11-4 43-23 22-41 29-60 27-17-2-27 1-25 8 1 7-6 11-15 9-9-1-19 2-23 8s-3 10 2 9c4-1 15-1 23 1 11 1 9 4-5 10-18 8-17 9 7 9 16 1 27 4 26 9-3 14 22 88 36 107 9 11 16 27 16 36s15 24 33 32c17 9 37 25 44 36 12 19 53 19 53 0 0-5 17-16 37-24 76-32 105-79 105-169 0-34 5-67 10-73 12-15 58-18 58-4 0 5 12 12 28 17 21 6 23 8 9 11-15 4-17 11-12 31 6 26 6 26-9 7-9-12-11-24-6-29 6-6 2-15-8-22-26-20-33-17-22 11 7 17 6 24-2 22-6-1-13 4-16 12s0 11 7 7c6-4 11-1 11 6 0 9 3 9 10-2 8-13 11-11 16 7 4 14 15 23 33 25 14 2 25 8 24 15-2 7 3 10 10 7 12-4 87 21 87 30 0 2-10 2-22-1-18-4-20-2-8 6 8 5 11 13 7 17-3 4-14 1-24-7-14-12-16-12-8 0 6 10 4 13-6 10-8-3-25 6-39 20-14 15-21 23-15 18 20-16 26-6 11 18-9 14-12 25-7 25s11-6 14-12c3-9 9-7 20 7 8 11 19 17 23 12 4-4 2-7-5-7s-9-5-6-11c11-17 44 19 38 42-4 14 0 19 13 19 11 0 15-4 9-8-9-6-11-27-5-42 1-3 4-18 6-35 4-22 2-27-6-19-6 6-12 20-13 32 0 11-4 19-8 16-4-2-5-14-2-27s1-18-4-11c-14 19-43 25-43 9 0-15 34-38 43-29 3 3 15 0 27-6 21-11 22-10 18 20-3 21 0 34 9 37 7 3 13 9 13 15 0 5-4 7-9 3-5-3-12-1-16 5-3 5-1 10 6 10s9 3 6 7c-4 3 7 14 23 24 30 19 41 41 18 36-7-1-12 6-10 15 2 13-4 18-23 18-16 0-25-6-25-16 0-13-3-14-13-5-8 6-16 9-18 6-3-2-6 6-6 18-2 17 0 19 7 7 6-9 10-10 10-3 0 6 14 14 30 18 17 4 30 11 30 15 0 5-7 7-15 3-10-3-15 0-13 8s-2 13-9 12c-7-2-10 4-7 12 4 8 10 15 16 15 5 0 16 7 25 15 17 18 34 16 41-5 3-7 0-10-7-6-6 4-11 1-11-7 0-15 34-16 47-2 5 4 2 5-4 1-7-4-13-3-13 3 0 5 5 11 12 13 6 2 9 12 5 21-7 19-57 24-57 5 0-6-3-8-7-4-5 4-8 13-8 19s-22 18-48 27c-79 28-81 40-5 40 36 0 80 3 97 6 29 6 32 10 26 33-7 26-25 44-34 35-3-3 1-9 9-14 8-6 11-10 6-10-19 0-77 53-74 68 1 10-1 24-6 32-7 12-6 13 5 2 19-18 24-15 25 17 1 26-1 28-13 15-13-13-33-11-33 2 0 3 5 2 10-1 6-3 10-1 10 4 0 6-8 11-17 11-16 1-16 2 2 16 19 14 17 15-20 10-120-15-192-16-204-2-13 15-5 20 183 87 169 61 156 52 147 98-1 2-12-4-25-12-24-16-36-13-36 7 0 6 5 4 10-4 8-13 10-12 10 3 0 9-5 17-11 17-5 0-7 5-4 11 5 7 13 5 24-5 9-8 21-12 27-8 13 9 26 42 16 41-32-5-35 3-9 26 15 14 27 29 27 32 0 4-3 3-7 0-3-4-11-3-17 3-16 12-41-4-31-21 6-10 10-8 17 7 8 18 8 18 5-1-3-25-18-23-37 6-8 13-10 20-4 16 17-10 26 21 14 44-13 22-25 26-16 4 3-8 1-15-4-15-6 0-10 7-10 16 0 8-4 12-10 9s-10-1-10 4c0 6 9 11 20 11 22 0 45 43 36 67-3 8 2 13 14 13 11 0 20 6 20 14s7 22 16 30c13 14 13 16 1 16-8 0-17-10-20-22-5-18-8-19-22-8s-14 15 0 36c8 13 12 30 9 38-4 11 0 16 12 16 14 0 16-2 6-9-11-7-10-9 3-15 9-3 13-10 10-16-3-5 1-10 10-10 13 0 14 4 5 20-7 14-7 20 0 20 5 0 10 8 10 18 0 14-2 15-10 2-7-11-10-11-10-2 0 8-5 10-12 6-9-6-9-3 1 9 7 9 11 24 7 32-3 8-1 15 4 15s9 8 10 18c0 9 3 42 6 72 5 53 5 54-11 32-9-13-14-30-11-38 3-9 1-12-4-9-17 10-11 50 10 73 24 26 26 40 3 21-15-13-15-12-4 10 10 18 10 25 1 31s-9 9 1 12c8 3 14 21 15 44 1 21 5 76 9 122 8 79 7 82-13 82-11 0-23-6-26-12-3-9-9-8-20 6-8 10-13 23-10 28s0 16-7 24c-10 12-9 13 4 8 19-7 17 16-3 42-14 18-14 18 6 1 21-17 49-24 40-9-3 5 4 15 15 22 24 18 28 120 4 140-13 10-15 9-15-11 0-19 2-21 10-9 7 11 10 7 10-18 0-20-4-31-10-27s-8 9-6 13-2 15-9 25c-8 11-16 14-19 8-4-6-13-8-21-4-11 3-15-2-15-18 0-12-3-19-7-15-12 11-14 54-3 61 5 3 7 0 4-8-7-19 29-17 36 1 3 8 10 13 14 12 5-1 13 4 17 12 7 10 9 10 9 1 0-7 5-13 10-13 13 0 13 83 1 96-5 5-11 20-13 34l-5 25-11-25c-6-14-11-20-12-15-1 6-3 18-5 28s5 23 16 30c23 14 25 29 3 20-12-4-15-2-12 8 3 8 10 15 16 15 7 1 17 2 22 3 13 1 13 38-1 46-6 4-8 13-5 21s3 14 0 14-10-14-16-31c-9-27-12-29-25-16-12 12-13 19-4 33 11 17 11 16 5-6-8-31-2-25 20 18 9 18 13 32 9 31-20-3-24 2-13 16 11 13 10 14-6 9-18-7-18-6 1 13 11 11 22 19 25 18 3-2 5 28 6 67l1 70-29-4c-22-4-31 0-39 16-10 20-10 21 5 2 14-18 20-15 17 6 0 4 5 5 13 2 14-5 29 30 18 41-4 3-7 16-7 28 0 16-5 21-20 20-25-3-75 16-75 28 0 15 30 10 36-6 10-24 37-19 31 6-4 15-3 19 4 12 20-20 49-3 49 30v30l-120-6c-154-9-157-12-158-128-1-79 6-132 23-171 5-13 3-18-8-18-12 0-15-15-15-81 0-65-3-84-16-91-23-13-22-78 2-85 14-3 17-12 14-36-2-18 1-57 8-87 6-30 14-68 17-84s14-31 24-33c15-4 19-15 19-44 0-37-2-39-30-39-29 0-30-2-30-44v-43l-54-6c-98-10-130-68-88-158 16-36 20-39 60-39 35 0 42-3 42-20 0-12 8-32 17-46 24-37 26-254 3-254-30 0-60 30-60 61 0 24-4 29-25 29-14 0-25 5-25 10 0 6-11 10-24 10s-26 7-30 15c-3 10-19 15-44 15-36 0-40-2-50-39-7-21-12-50-12-65 0-25 1-26 66-25 36 1 68-2 71-5 4-3-1-6-10-6-11 0-17-8-17-25 0-20-5-25-25-25-22 0-25-4-25-39 0-52 8-71 31-71 10 0 19-4 19-10 0-5-13-10-29-10-26 0-31-5-45-47-9-26-16-59-16-75 0-24 4-28 29-28 24 0 28-3 24-20-3-11-2-36 1-55 7-33 9-35 46-35 42 0 44-2 53-78 3-28 1-32-20-32-19 0-23-5-23-32 0-17 7-40 17-50 15-17 15-18 0-18-13 0-17-9-17-38 0-28-6-42-25-56-30-23-35-82-8-101 16-12 16-14 0-29-9-10-17-26-17-37 0-10-4-19-10-19-5 0-10-13-10-29 0-39-9-61-26-61-8 0-14-4-14-10 0-5-7-10-15-10s-15-4-15-10c0-5-9-10-20-10s-20 6-20 14c0 7-7 19-15 26s-15 21-15 31c0 15-8 19-32 20-31 0-32 1-10 11 28 14 32 75 5 84-10 4-33 13-51 21s-47 13-65 11c-26-2-36-10-50-40-10-21-25-38-33-38-10 0-14-13-14-43 0-33 5-46 25-61 14-10 25-25 25-32 0-9 12-14 31-14 42 0 33-24-12-28-41-4-69-27-69-58 0-13-4-26-10-29s-10 1-10 9c0 10-9 16-24 16-17 0-26 7-30 25-4 14-13 25-21 25s-15 5-15 10c0 6-20 10-45 10h-45v-49c0-49 1-50 33-54l32-4-32-1c-19-1-33-7-33-14 0-10-2-10-8-1-10 16-132 29-132 14 0-6-4-11-9-11-12 0-20 59-9 66 4 3 8 23 8 45 0 29-5 41-17 45-10 3-26 10-35 15-22 11-69 11-87 0-21-14-26-94-7-110 23-19 21-51-4-51-17 0-20-7-20-40s-3-40-19-40c-11 0-23-9-26-20-9-27-25-25-25 3 0 16-9 28-27 36-16 8-36 17-45 22-10 5-27 9-38 9s-20 4-20 9-18 12-40 15-59 9-81 12l-42 6 5-46c4-34 2-46-7-46-27 0-45 13-45 31 0 33-89 23-91-10 0-10-2-11-6-3-8 20-71 15-85-8-15-24-52-26-92-5-37 20-82 19-90-1-3-9-6-29-6-45 0-31-14-38-27-15-4 8-23 16-42 18-48 4-53 28-7 28 36 0 36 0 36 45v45h-45c-44 0-45-1-45-33s-2-33-30-29c-27 4-30 8-30 38 0 33-1 34-42 34-74 0-88-8-88-46v-34h107l-6-33c-6-28-11-32-37-29-16 2-33 8-38 13-6 5-18 9-27 9s-20 7-23 16c-5 12-16 15-46 12-22-2-40 0-40 4 0 5-18 8-40 8s-40 5-40 10c0 6-16 10-35 10-31 0-35 3-35 26v26l-67-7c-75-8-101-20-105-50-2-16-12-21-50-23-29-2-48 1-48 7s7 11 15 11 15 5 15 10c0 6 6 10 14 10 11 0 14 18 14 80v80h-34c-22 0-37-6-40-15-4-8-11-15-16-15-19 0-37-34-38-71 0-28-6-39-25-49-14-7-30-27-36-45-6-17-23-36-37-43-35-16-42-15-42 8 0 16-7 20-34 20-19 0-38-4-41-10-10-17-25-11-25 10 0 16-7 20-35 20-22 0-35-5-35-13 0-9-10-12-30-9-16 2-30 8-30 13s-11 9-25 9c-15 0-25 6-25 14s-12 16-27 18c-20 2-29 10-33 28-4 16-14 26-28 28-30 5-28 22 3 22 16 0 25 6 25 15 0 8 5 15 10 15 6 0 10 15 10 34 0 38-15 46-84 46h-38l4-45c3-38 0-45-15-45-11 0-20-10-23-30-10-49-24-34-24 25v54l-37 7c-21 4-43 11-50 16-6 5-29 8-49 6-35-3-39-6-47-40-14-60-34-47-42 27l-7 65h-32c-18 0-37-5-43-11-17-17-33-1-33 32 0 26-3 29-33 29-38 0-77-31-77-60 0-13-7-20-20-20-11 0-20-4-20-10 0-5-7-10-15-10s-15-4-15-10c0-5-11-10-25-10-20 0-25-5-25-23 0-13-3-27-7-30-8-9-43 22-43 38 0 8-26 15-75 20-41 4-75 11-75 16s-24 10-52 11l-53 2 48 3 47 4v39c0 21-4 42-10 45-5 3-10 15-10 26 0 10-4 19-9 19-6 0-11 17-13 38-2 31-7 38-28 40-56 7-61 62-5 62 48 0 95 42 95 85 0 27 4 34 23 37 18 2 23 10 25 40 3 32 0 38-17 38-16 0-20 8-23 38-3 34-6 37-35 40-27 3-33 7-33 28 0 13 5 24 11 24 14 0 6 89-9 99-5 3-13 32-17 63-4 32-11 58-16 58s-9 11-9 24c0 14-4 28-10 31-5 3-10 19-10 34 0 24 5 30 30 35 27 5 30 9 30 46 0 29-4 40-15 40-8 0-15 5-15 10 0 6 9 10 19 10 30 0 51 28 51 66 0 32-2 34-35 34h-35v79c0 89-12 131-36 131-11 0-14 5-10 16 3 9 6 33 6 55 0 21 5 39 10 39 6 0 10-16 10-35 0-39 7-41 83-29 36 6 37 8 37 49 0 30-5 45-16 49-25 10-74 7-74-4 0-5-4-10-10-10-5 0-10 12-10 28 0 44-11 72-29 73-9 0-3 5 13 11 27 10 28 13 24 59-5 48-4 49 21 49 36 0 51 17 51 57 0 23-5 33-15 33-8 0-15 6-15 14 0 16-21 26-56 26-17 0-24 5-24 20 0 11 7 23 15 26 10 4 15 20 15 45 0 35-3 39-25 39h-25l20 20c11 11 26 20 33 20 8 0 22 9 32 20s24 20 32 20 13 12 13 35c0 19-4 35-10 35-5 0-10 20-10 45 0 41-2 45-24 45-14 0-28 5-31 10-3 6-15 10-26 10-16 0-19 7-19 39 0 22-6 46-14 53-7 8-15 43-18 81l-4 67h31c37 0 55 16 55 47 0 13 5 23 11 23s9 17 7 42c-3 40-5 43-39 49-19 3-45 15-57 27l-22 22h100v34c0 18-7 39-15 46-17 14-21 110-5 110 6 0 10 7 10 15s16 22 35 31c30 14 35 21 35 51v34l-47-1c-100-4-100-4-106 38-9 50 1 82 24 82 11 0 19 7 19 15s11 17 24 21c13 3 26 14 29 25s14 19 26 19c14 0 21 6 21 20 0 12 9 22 24 26 17 4 26 14 28 32 3 24 8 27 46 30 37 3 42 6 42 28 0 17 8 27 25 34 26 10 31 30 19 89-6 27-11 31-37 31-17 0-46-5-64-12-28-10-33-17-33-45 0-38-3-39-29-16-16 13-19 25-14 63 5 42 3 48-16 53-16 4-21 13-21 40 0 20-4 39-10 42-17 10-12 72 6 79 22 8 24 8 24-7 0-26 45-57 83-57h37v45c0 35-4 45-17 45-22 0-14 6 20 14l27 6-6-54c-6-48-4-55 14-60 11-4 22-19 26-36 4-25 10-30 34-30 15 0 40 6 55 13 21 9 27 19 27 45s-5 35-20 39c-14 4-20 14-20 33 0 16-3 35-6 44-5 13 1 16 30 16 31 0 36 3 36 24 0 49 8 55 60 49 46-5 48-4 64 27 9 18 16 48 16 67 0 32-1 33-40 33-38 0-40 2-40 30 0 29-2 30-46 30-38 0-45 3-42 18 2 10 14 18 31 20 24 3 27 7 27 43v39h60c45 0 62 4 66 15 11 27 34 17 34-15 0-20 5-30 15-30 9 0 15-9 15-24s7-26 20-29c32-8 25-37-9-37-28 0-36-5-68-44-7-8-13-33-13-56 0-37 2-40 28-40 38 0 106 20 114 34 4 6 8 23 8 39 0 24 4 27 35 27 19 0 35-4 35-10 0-11 49-14 74-4 10 4 16 18 16 40 0 33 1 34 40 34 28 0 45 6 57 20 11 12 21 16 28 10 14-12 194-17 223-7 19 7 22 5 22-17 0-23 4-26 34-26 49 0 66 9 66 35 0 19 6 24 32 27 24 2 36 10 46 31 10 20 20 27 43 27 16 0 29 4 29 9s11 4 25-2c18-9 25-20 25-42 1-45 31-75 74-75 23 0 39 6 42 15 5 11 16 13 48 9 48-7 86 8 87 34 0 13 3 11 9-5 5-13 14-23 20-23 5 0 10-13 10-30 0-16 5-30 10-30 6 0 10-9 10-20 0-25 42-27 88-4 26 12 32 22 32 47 0 71 4 74 93 81 45 4 99 9 119 12 31 5 39 2 45-13 3-10 11-21 17-25 16-11 76-10 76 2 0 5 11 20 25 34s25 21 25 16c0-6 27-10 60-10 53 0 60 2 60 20 0 11 7 20 15 20 9 0 15-9 15-25 0-22 4-25 39-25 22 0 43-4 46-10 10-16 83-12 109 6 35 22 289 29 307 8 9-11 8-14-4-14-15 0-27-28-27-66 0-20-4-21-45-16l-45 5v-47c0-40 3-46 25-52 14-3 25-12 25-20 0-9 12-14 34-14 34 0 46 13 46 48 0 14 9 16 54 14 48-3 55-1 61 17 3 12 10 21 15 21 19 0 40-13 40-25 0-7 7-15 15-19 8-3 15-12 15-21 0-11 11-15 45-15 41 0 45-2 45-25 0-38 33-65 80-65 44 0 48 9 34 79-6 30-8 31-61 31-49 0-53 1-39 16 10 9 16 33 16 62 0 44 3 48 36 65 47 23 54 22 54-11 0-41 48-92 88-92 22 0 32 6 37 19 5 16 17 21 58 23 45 3 52 6 55 26 3 18 10 22 43 22 29 0 39 4 39 16 0 14 3 14 15 4 24-20 18-30-17-30-18 0-38-4-45-8-16-10-33-57-33-94 0-29 1-30 40-26 38 3 40 2 40-24s2-28 45-28c25 0 45 5 45 10 0 6 7 10 16 10 12 0 14 9 12 38-3 35-5 37-40 40s-38 6-38 33c0 26 3 29 34 29 19 0 37 6 39 13 4 7 6 6 6-4 1-20 21-29 62-29 28 0 29 2 29 44 0 31-5 46-16 50-12 5-14 10-5 20 13 15 5 27-15 19-8-3-14-1-14 5 0 12 24 22 51 22 16 0 17 3 7 19-7 11-17 17-23 15-5-3-2 1 7 9 10 8 15 17 11 21s0 4 9 1c9-4 19-1 24 6 4 8 3 10-4 5-7-4-12-2-12 3 0 6 5 11 11 11 5 0 8 4 4 9-3 5-1 12 5 16 5 3 10 16 9 28 0 12-3 16-6 10-6-17-29-16-58 3-13 9-29 13-35 9-5-3-13 0-16 9s-12 12-21 9c-10-4-14-2-9 5 3 6 1 14-5 18-7 4-9 3-6-3 9-15-29-23-42-10-8 8-10 3-5-21 6-29 4-32-19-32-14 0-28 4-32 9-7 12-67-7-78-26-10-17-28-17-24 0 1 6-6 11-15 9-9-1-20 3-24 9-4 7-3 9 3 6 6-4 10 8 10 28 0 31-2 33-14 17-8-9-11-11-7-3 4 9 2 12-7 9-8-3-19-31-26-64-7-32-20-95-29-139-25-125-29-130-48-60-35 123-68 215-77 215-5 0-9-4-9-10 0-5-5-10-11-10-5 0-7 5-3 12s3 8-5 4c-9-6-9-11 0-22 6-8 9-23 6-34-4-17-2-18 14-9 24 12 36-10 20-38-10-17-10-17-11 0 0 18-34 24-45 7-4-6 1-7 12-3 10 3 14 2 10-3-4-4-22-9-40-9-25-1-37 6-55 32-24 35-36 40-49 21-4-7-16-19-26-27-15-12-17-12-11 4 5 13 4 16-4 11-7-4-12-3-12 3 0 5-3 16-6 25-4 12 0 16 16 16 19 0 20 3 10 15-16 19-4 35 26 35 14 0 27 7 31 15 3 10 16 15 32 14 14-1 36-1 49-1 20 2 21 4 10 22-12 19-24 20-191 20-110 0-186-4-199-11-14-8-23-8-31 0-17 17-45 13-57-9-9-16-15-18-30-10-28 15-50 12-50-6 0-10-6-14-14-11-10 4-12 0-8-15 5-19 6-19 21 6 17 27 26 32 36 17 3-5-4-12-15-16-11-3-20-12-20-20 0-7-10-12-25-11-14 0-25 5-25 10 0 4-7 6-14 3-10-4-13-1-9 9 3 7 10 14 15 14 6 0 8 9 5 20-4 17-2 20 14 15 11-4 19-2 19 4 0 7-26 11-66 11-65 0-66 0-62-25 4-19 1-25-13-25-11 0-19-4-19-9s-9-7-21-4c-14 4-19 12-16 24 3 11 2 17-3 14-4-2-15 4-25 15-14 15-31 20-72 20-50 0-53-2-53-25 0-22-2-24-26-15-16 7-23 7-19 0 3-5-2-9-12-8s-35-2-57-6c-40-9-61 4-51 32 3 9-22 12-105 12-61 0-110-4-110-9s9-7 20-4c12 3 20 0 20-6 0-7-5-9-12-5-7 5-8 3-3-6 14-22 12-61-3-78-7-10-10-11-6-3 5 11 2 13-17 8l-24-6 23 16c12 8 22 24 22 35 0 15-6 18-27 14-16-2-31-5-35-5-4-1-5-8-2-16 5-11 2-13-10-9-9 3-13 10-10 15 9 15-8 10-29-8-19-17-20-17-8 5 6 12 16 22 20 22 11 0 8 26-3 37-4 4-6 1-4-7 1-8-3-14-9-12-7 1-13-7-13-17s-8-22-17-26c-14-5-15-3-6 6 12 12 7 39-9 39-5 0-6-6-2-12 6-10 4-10-7 0-19 18-31 15-20-6 7-13 6-19-2-19-7 0-20-4-29-8-11-4-18-3-18 4 0 6-11 11-25 11-17 0-29 7-35 23-8 19-9 17-9-15-1-30-4-36-17-31-12 5-13 7-2 14 9 6 6 8-9 6-21-1-21-8 1-36 13-17 17-43 5-35-5 3-9-1-9-8 0-9-3-9-8-2-4 6-20 10-35 9s-30 2-33 7-2 8 3 7c4-1 17 2 27 6 19 8 19 9 0 16-10 3-25 1-33-5-11-8-13-8-8 0 8 13-16 35-56 52-23 10-27 10-21 0s5-10-7-1c-13 11-21 5-47-32-18-25-43-51-57-57s-24-17-21-24c3-8-1-11-10-7-11 4-14 1-12-10 2-9-1-16-7-16-5-1-10 7-10 16 0 14-10 18-44 21-52 3-83 19-132 64-51 47-79 69-79 62 0-4-6-2-12 3-17 13-61 9-66-6-3-9-8-9-17-1-10 9-13 3-13-26 0-44-14-61-32-38-22 25-21 52 1 67 26 19 11 29-27 17-16-4-23-9-17-9 14-1 13-27-1-49-5-8-2-20 8-30 20-23 6-46-22-38-17 6-19 3-15-13 6-23 33-50 33-33 0 6-6 12-12 15-7 2 8 6 35 8 32 3 47 0 47-8 0-15-31-25-76-25-36 0-42-6-23-25 9-9 7-10-10-6-11 3-21 8-22 12-3 26-9 43-24 63-11 15-15 17-12 6 4-11-1-21-13-28-28-15-32 28-6 59 12 13 15 21 7 16-11-6-13-4-8 8 3 10 2 17-3 17-6 0-10-5-10-11 0-5-4-7-10-4-5 3-10 15-10 27 0 19-1 20-25 4-25-16-70-22-61-8 2 4-4 9-15 9-21 2-26-12-8-23 7-4 2-11-13-18-30-16-83-4-114 25-24 23-33 46-13 33 10-6 29 12 29 29 0 4-21 7-46 7-28 0-43-4-39-10 3-6-1-13-9-16-9-3-13-10-10-15s-1-9-10-9c-8 0-16-4-18-9-1-4-12 1-23 11-16 16-17 18-2 13 10-4 17-2 17 4s-4 11-10 11c-5 0-9 6-7 13 1 9-22 13-83 15-47 1-89 0-92-4zm162-24c-6-11-8-25-5-30 3-6-1-10-9-10-24 0-29 20-10 40 25 25 37 25 24 0zm1736-12c26 5 26 4 8-17-20-23-30-28-18-9 5 8 2 9-10 5-10-4-22-7-27-7s-9-4-9-10c0-5 7-7 15-4 10 4 15 0 15-14 0-32-19-36-30-7-12 31-6 45 18 45 12 0 13 3 4 12-7 7-12 17-12 23 0 5 5 3 10-6 6-11 18-15 36-11zm918-12c-3-9-13-16-21-16s-11-5-7-12 3-8-4-4-12 16-12 27c0 16 5 19 20 14 13-4 20-2 20 6 0 7 2 10 5 7s3-13-1-22zm-2891-10c6-15-1-26-16-26-6 0-7 3-4 7 4 3 2 12-4 20-9 10-8 13 4 13 8 0 17-6 20-14zm137 3c0-9 4-8 14 0 11 9 13 5 12-19-1-20-6-30-17-30-19 0-55 37-46 47 4 3 7 1 7-5 0-7 4-12 10-12 5 0 7 7 4 15-4 8-1 15 5 15s11-5 11-11zm2200-14c-7-8-9-22-6-31 5-14 9-14 24-3 15 13 16 12 4-3-17-22-48-16-44 8 4 19 20 44 29 44 3 0 0-7-7-15zm1213-47c6-17-5-44-18-43-5 0-16 4-22 8-9 5-13 2-14-10 0-11-3-13-6-5-2 6-9 10-14 6-5-3-9 0-9 6 0 10 57 50 71 50 4 0 9-6 12-12zm-3425-18c23-1 25-2 12-13-9-7-14-20-12-30 3-14-3-17-32-15-27 2-36 7-36 21 0 11 9 21 19 24 11 3 18 10 17 16-2 7-1 9 1 5 3-5 17-8 31-8zm172-6c0-12-6-16-26-13-4 0-10-5-15-12-4-8-11-11-14-7-8 8 38 58 47 52 5-3 8-12 8-20zm785-14c3-5-3-10-14-10-12 0-21 5-21 10 0 6 6 10 14 10s18-4 21-10zm2420-58c-2-3 0-11 6-19 10-11 14-10 25 4 7 10 13 14 13 8 1-5-9-21-20-35s-17-18-13-10c6 12 5 13-7 5-19-14-55-12-51 3 1 7-3 12-8 12-6 0-3 11 7 23 11 15 24 22 36 19 10-2 15-7 12-10zm-436-18c-11-13-10-15 5-12 13 2 20-4 22-18 2-12-2-21-10-21s-12 6-8 15c4 11 1 14-10 9-9-3-15-1-14 6 2 15 16 37 23 37 3 0 0-7-8-16zm-3392-100c2-6-4-19-12-29-10-13-14-15-13-5 2 8-2 14-9 15-19 0-28 15-9 15 9 0 15 4 12 9-4 5 2 8 11 7 9-2 18-7 20-12zm3331-5c10-14 9-17-9-22-15-4-19-2-15 9s2 12-13 4c-11-5-22-15-24-22-4-9-6-8-6 2-1 12 52 57 54 47 0-1 6-9 13-18zm-3275-106c-1-16-4-37-7-48-2-11-5-24-5-28-1-5-5-5-11-2-5 3-10 2-10-4 0-5 6-11 13-14 6-3 2-4-10-4-34 2-35 23-3 54 16 15 26 31 24 35-6 9 2 38 9 38 2 0 2-12 0-27zm327-33c0-22-2-40-4-40s-6 18-8 40 0 40 4 40c5 0 8-18 8-40zm-170-20c-9-16-15-18-30-10-11 6-20 13-20 16s3 3 8 1c4-3 16-1 27 4 11 4 21 8 23 8 1 1-2-8-8-19zm90-50c0-14-30-32-43-27-8 3-16 14-19 24-4 16 0 18 29 15 18-2 33-8 33-12zm109-50c3-3 12-15 19-27 11-21 10-23-13-23s-25 3-24 48c1 26 4 38 6 27 3-11 8-22 12-25zm-496-968c-12-2-24-13-27-25-3-14-18-26-39-32-31-10-33-9-33 12 0 17 3 20 13 12 9-8 19-4 37 14 14 14 23 27 20 30-3 2 8 2 23-2 24-5 25-6 6-9zm167-291c0-11-5-23-11-26-6-4-9 0-7 11 2 12-2 18-10 16-8-1-11 2-7 8 11 17 35 11 35-9zm4612-119c-10-3-10-7-1-18 18-22 2-16-20 8-25 26-18 42 12 26 14-7 17-13 9-16zm-32-63c0-5-4-7-10-4s-7-1-4-9c3-9 11-13 18-9 6 3 7 2 3-2-17-19-37-13-37 11 0 15 6 24 15 24 8 0 15-5 15-11zm-4757-135c-4-11-8-10-21 2-13 13-13 17-1 24 16 10 30-6 22-26zm4796-3c2-1-2-7-8-14-6-8-8-17-4-21s0-4-10 0c-9 3-17 14-17 24 0 17 5 18 39 11zm0-85c-9-8-10-8-5 1 3 6 0 14-6 16-10 4-9 8 2 16 19 13 28-16 9-33zm-4782-94c-12-13-14-21-6-29 7-7 6-12-5-16-24-9-27 21-4 43 27 25 37 26 15 2zm-23-146c-3-7 7-28 22-45 23-27 25-35 13-43-11-7-11-11-1-15 9-3 6-12-12-28-14-13-22-26-18-30 4-5-3-6-15-3s-24 1-27-6c-2-6-5-1-5 11-1 12 4 25 9 28 6 4 8 24 6 45-4 32-2 38 10 33s14 2 10 36c-2 23 0 39 4 36 5-3 7-12 4-19zm4854-27c-2-6-8-10-13-10s-11 4-13 10 4 11 13 11 15-5 13-11zm-20-138c-13-22-38-24-30-2 3 9 10 19 16 23 17 11 26-2 14-21zm-4875-78c-5-12-3-14 8-8s11 5 2-5c-6-7-16-9-22-6-16 10-13 36 4 36 9 0 12-6 8-17zm4877-349c0-3-10-9-22-14-23-9-23-9 3-9 16-1 26-7 26-16 0-8-5-15-10-15s-4-6 2-13c14-18 2-30-16-15-10 8-17 8-25 0-9-9-9-12 1-12 8 0 11-6 7-17-4-9-1-20 6-25 10-6 10-8 1-8-7 0-13-5-13-11s7-8 18-4c14 5 15 4 5-6-18-18-35 1-37 38-1 15-5 34-10 42-6 10-5 12 2 7 7-4 12-2 12 3 0 6 7 11 15 11s15 7 15 15c0 18-16 20-23 3-3-7-6-3-6 10-1 12 6 25 14 28 8 4 12 10 9 15s2 6 10 3c9-3 16-8 16-10zm15-215c-4-5-14-13-25-19-13-7-19-6-24 5-3 8 0 17 6 21 7 4 8 3 4-4s-3-12 2-12c6 0 13 7 16 16 3 8 10 12 16 9 6-4 8-11 5-16zm-111-151c-5-7 3-9 22-5 26 5 27 4 10-9-14-10-23-11-33-3-15 13-18 43-3 34 6-4 7-11 4-17zm-4719-14c19 7 27-5 14-21-14-16-5-17 22-3 34 18 20 3-17-19-38-23-45-25-43-13 4 23-3 34-17 28-8-3-12-2-9 3s1 12-5 16c-17 11-11 23 13 27 12 2 23-3 25-10 2-8 10-11 17-8zm4771-35c-7-44-19-53-35-26-13 20-13 21 2 8 15-12 17-11 17 3 0 9-4 16-10 16-17 0-11 18 8 23 9 3 18 5 20 6 2 0 1-13-2-30zm-4636-10c0-18-4-28-10-24s-8 10-5 15c3 4-2 11-11 14-18 7-10 26 12 26 9 0 14-11 14-31zm4340-49c0-10 7-23 16-28 11-6 13-11 5-16-6-4-11-18-11-32 0-20-5-24-28-24-26 0-28 3-24 30 2 16-1 43-6 60-11 29-10 30 19 30 22 0 29-5 29-20zm-4350-26c0-7-9-12-19-11-10 0-17 6-14 12 5 16 33 15 33-1zm-60-45c13-9 12-10-2-5-12 3-15 1-11-9 3-8 8-13 12-10 4 2 8-2 8-10s-9-15-19-15-18 7-18 15-5 15-10 15c-6 0-5 6 2 15 16 17 19 18 38 4zm-57-103c5-11-11-26-27-26-1 0-2 9-2 20 0 23 21 27 29 6zm267-216c0-5-10-10-21-10-12 0-29-8-38-19-14-16-18-16-29-5-10 12-10 14 3 14 9 0 18 7 21 15 7 17 64 21 64 5zm-68-394c13-19 9-46-8-46-9 0-18 9-21 20-4 14-14 20-34 20-29 0-40 14-16 23 18 7 71-4 79-17zm4311-207c-17-17-36-28-42-25-15 10-3 29 14 22 7-2 21 4 31 15 9 10 20 19 23 19s-8-14-26-31zm-4468-19c-3-6 1-13 9-16 9-3 13-10 10-16-3-5-14-2-25 8-15 13-17 19-7 26 17 10 20 10 13-2zm1015-5c0-8-7-15-15-15-7 0-19-8-24-17-9-15-10-12-11 15 0 28 3 32 25 32 16 0 25-6 25-15zm3542-10c2 3 5-1 5-8s-9-14-19-14c-12-1-18 5-18 19 0 16 3 18 13 9 8-6 16-9 19-6zm-992-101c0-7-7-15-16-18-10-4-13-2-8 6s2 9-9 5c-22-8-22 1 0 25 13 14 18 16 25 6 4-7 8-18 8-24zm-3253-39c0-14-25-30-34-21-3 3 24 36 31 36 1 0 3-7 3-15zm3626-35c-2-9-14-17-26-18s-31-3-42-5c-12-1-20 4-20 13 0 8 6 14 13 13 6-2 12 1 12 5 0 5 15 8 33 8 25-1 33-5 30-16zm-2948-26c-8-9-13-20-10-25 4-5 2-9-4-9-5 0-11 5-13 12-5 14 23 47 35 41 4-2 0-11-8-19zm1882 12c-1-6 4-10 11-11 6 0 11-4 10-10-2-5-8-9-15-9-7 1-11-3-10-8 1-6-10-11-24-12-25-1-26 0-12 21 8 12 12 27 9 32-4 5 2 9 13 8 11 0 19-6 18-11zm283-31c5 3 10-2 10-13 0-20-25-36-41-27-5 4-8 17-7 30 2 18 5 21 15 14 7-6 17-8 23-4zm780-29c10-13 10-16-5-16-11 0-15-5-11-15 3-9 0-15-10-15-12 0-15 7-12 25 3 14 2 25-2 25s-7 7-7 14c0 17 25 7 47-18zm-2152-2c-3-30-52-62-64-42-5 7-3 8 6 3 10-6 12-4 6 11-4 10-4 15 0 12 10-11 44 11 44 27 0 8 2 15 5 15s4-12 3-26zm1602 0c0-20-7-17-20 6-9 16-8 18 5 14 8-4 15-12 15-20zm-1270-40c0-8-4-14-9-14s-16-3-25-6-16-1-16 6c0 6 4 9 8 6 4-2 14-1 22 4 12 7 12 11-1 27s-13 17 4 4c9-7 17-20 17-27zm-807-37c2-6-1-17-8-24-10-9-13-7-11 13 1 26 11 32 19 11zm867-18c0-18-18-9-23 12-4 16-3 18 9 8 8-6 14-15 14-20z"/>
  <path id="aa" d="m176 2486c5-13 2-15-12-10-16 6-17 5-6-7 15-16 16-33 1-23-8 4-8 0 0-15 7-11 14-21 17-21s2 5-1 10c-3 6-1 10 5 10s8 5 5 10c-4 6-2 17 4 24 8 10 7 17-4 26-13 11-14 10-9-4z"/>
  <path id="ab" d="m2713 5035c-10-10-9-16 4-27 14-11 15-11 11 2-3 9 4 20 16 27 20 12 20 12 1 12-11 0-25-6-32-14z"/>
  <path d="m1303 5022c-9-6-7-11 7-20 20-12 36-1 25 18-7 12-16 12-32 2z"/>
  <path id="ac" d="m2040 5001c0-11 5-23 12-27s8-3 4 4c-5 8 2 12 21 12h28l-29 15c-36 19-36 19-36-4z"/>
  <path id="ad" d="m4542 4997c-14-6-21-16-17-25 3-7 5-18 5-23 0-6 6-7 13-3 7 5 6 0-3-11-14-17-14-18 7-7 12 7 29 19 37 28 13 13 20 14 31 4 8-7 15-8 15-4 0 14-40 35-52 28-6-4-8-3-4 4 10 16-6 21-32 9z"/>
  <path id="ae" d="m1050 4989c0-5 4-8 8-5 5 3 8-3 8-12-1-9 4-18 9-20 6-1 10 9 11 23 1 18-4 25-17 25-11 0-19-5-19-11z"/>
  <path id="af" d="m4680 4955 20-35h-21c-16 0-20 5-16 20 6 24-20 28-29 5-4-8-11-12-17-8s-8 0-5-8 1-25-3-38c-8-19-12-21-24-11-17 14-20 40-5 40 6 0 10 5 10 12 0 6-8 4-20-7-18-16-52-15-49 2 1 4 1 15 0 23-2 30-19-8-41-97-13-51-28-93-33-93s-17 10-27 22l-17 22-5-38c-5-46 3-51 78-43 33 3 63 1 77-6 19-11 22-19 19-69-3-49 0-58 20-72 12-9 41-16 63-16s49-7 59-15c11-8 30-15 43-15s23-4 23-10c0-5-7-10-15-10-12 0-15-19-15-109 0-94 2-110 18-117 14-6 11-8-13-13-27-6-30-10-33-52-2-35 2-49 18-64 20-18 29-8 9 12-7 7-6 12 5 16 10 4 21-1 28-12s18-17 27-13c11 4 13 1 8-14-7-19-7-19 8 0 12 16 15 17 15 4 0-21-56-42-67-25-4 7-9 3-13-13-4-18-14-26-33-28-24-3-27-7-27-42 0-43 26-70 67-70 20 0 23-5 23-35 0-26 4-35 18-36 9-1 1-5-18-9-19-3-56-4-82-2-34 3-48 1-48-7 0-9-11-11-40-6-22 4-53 4-70 0-28-6-30-10-30-49 0-36 4-45 25-54 14-7 32-12 40-12 21 0 19-6-15-38-21-21-30-39-30-61 0-27 4-32 29-37l29-6-5-114-6-114h58v-70l1-70h-76v-90h50c28 0 50 3 50 8 0 4 20 6 45 4 28-3 45 0 45 7 0 6 6 11 14 11 7 0 72 22 142 49l129 48 3 82c3 84 1 89-42 95-8 1-19 6-23 11-4 4-2 5 5 1 6-4 12-2 12 3 0 6-6 11-12 12-7 0-1 5 15 11 15 5 27 14 27 20s-7 8-14 5c-11-4-13-1-9 11 5 13 3 14-7 5-7-6-19-9-26-6-10 4-13 0-8-13 5-18 5-18-9-2-8 10-18 14-22 10s-3 2 2 13c6 11 8 27 5 35-2 8 8 2 23-15 26-29 27-29 20-5-4 14-10 27-14 30-3 3-13 14-21 25-14 18-14 19 2 7 15-12 17-8 14 45-1 32-6 65-11 73-8 13-6 13 8 1 11-9 17-10 17-2 0 6 5 11 11 11 8 0 8-5-1-15-10-12-8-16 11-24 13-5 25-8 26-7 5 4-22 56-29 56-4 0-12 9-18 20-7 14-7 20 0 20 5 0 10-7 10-15 0-24 24-17 36 9 7 16 8 28 2 34s-6 17 1 30c14 26 14 45 1 37-6-4-7-12-4-18 4-7 3-8-2-4-5 5-9 14-9 20 0 17-29 15-37-3-5-12-7-12-7 3-1 10-5 16-10 12-5-3-13 0-17 6-4 8-3 9 4 5s12-3 12 3c0 5 9 13 21 16 15 5 17 10 9 20-8 9-7 17 5 28 19 20 19 24-3 29-17 5-18 12-14 87 2 29 17 18 17-12 0-15 6-22 20-22 41-1 48 74 10 107-14 12-25 27-25 33 0 13-45 14-57 1-4-5 3-6 17-3 24 6 24 6 5-9-11-8-19-17-17-19 1-3-1-4-5-2-5 1-8 7-8 12-1 6-7 21-14 35-11 23-11 24 3 6 15-18 15-16 11 24-3 32-1 40 8 31 17-17 57-14 57 5 0 10 6 14 14 11 13-5 31 31 21 42-3 2-5-1-5-8s-5-9-12-5c-7 5-9 2-4-7 4-8-1-3-12 11-19 23-21 46-2 35 4-3 7 3 6 12-2 10-11 18-22 18-15 0-18-6-16-27 2-16 0-28-5-29-4 0-15-2-23-4-10-1-16 5-16 16s6 19 13 19 13 7 13 15 5 15 11 15c5 0 8 4 5 9s0 8 7 7c14-1 17 18 2 20-35 5-37 7-10 13 17 4 36 3 43-2 8-7 12-4 12 10 0 10 6 25 13 32 10 12 9 13-7 7-19-6-19-6-3 12 9 10 17 25 17 33 0 12-2 11-11-1-8-11-9-8-4 14 6 27 5 28-11 15-11-9-15-9-10-1 4 6 2 12-4 12-7 0-9 18-5 52 4 40 1 54-13 65-9 8-11 12-4 8 6-3 12-1 12 4 0 6-5 11-11 11-5 0-7 5-3 11 3 6-5 3-20-6-14-9-24-21-21-25 2-4-4-15-15-25s-20-23-20-28c0-6 7-2 15 9 14 18 15 18 11-9-4-21-1-27 8-24 8 3 18-5 25-19 6-15 7-24 1-24s-10 5-10 10c0 6-4 10-10 10-5 0-20 11-33 24-26 26-56 26-78 0-6-8-20-14-30-14-11 0-19-7-19-15s5-15 10-15c6 0 10-7 10-15s-4-15-10-15c-5 0-13-1-17-2-4-2-7 21-7 50-1 42 2 52 16 52 34 0 48 11 38 30-5 9-7 19-5 22 3 3-2 5-10 6s-22 3-30 4-15 7-15 15c0 7-4 13-9 13s-7-9-4-20c3-12-1-22-10-26-9-3-13-14-11-27 2-12 2-16-2-9-3 6-12 12-20 12-9 0-12-4-9-10 3-5 0-7-8-4-11 4-12 15-7 45 4 21 5 39 2 39s3 7 14 15c10 8 31 15 47 15 15 0 27 5 27 10 0 16 22 12 36-7 12-16 13-15 4 10-7 21-7 27 5 27 10 0 14 10 12 30-1 16-5 30-8 30-4 0-9 6-12 13-6 17 35 20 45 4 5-9 10-9 19 0 6 6 9 16 5 21-8 13-66 21-72 10-3-5-12-1-20 9-13 16-13 16-5-8 5-15 6-31 0-40s-9-10-9-2c0 7-7 10-15 7s-14-9-13-12c0-4 0-14-1-22-1-12-5-11-16 4-10 14-11 24-4 38 5 10 7 22 4 27s2 16 10 25c8 8 11 17 6 20-5 4-11 1-13-5s-14-2-30 10c-37 29-41 26-18-14zm26-130c-3-8 1-18 7-22 10-6 9-12-5-26-18-17-18-17-14 8 3 13 0 27-5 30-15 10-10 25 7 25 10 0 14-6 10-15zm296-332c-5-27-8-28-28-8-9 9-11 15-4 15 6 0 9 4 6 8-2 4 3 8 13 8 13 0 16-6 13-23zm28-394c0-5-7-9-15-9-9 0-12 6-9 15 6 15 24 11 24-6zm-60-239c0-3-4-11-9-19-7-11-12-11-31 2l-21 15 22 16c18 12 25 13 31 3 4-6 8-14 8-17zm-6-515c3-9 0-15-10-15-8 0-13 4-10 9 4 5 0 12-6 14-8 4-7 6 3 6 9 1 19-6 23-14z"/>
  <path id="ag" d="m1345 4931c-6-11 9-23 19-14 9 9 7 23-3 23-6 0-12-4-16-9z"/>
  <path id="ah" d="m4874 4863c-10-11-14-11-14-2 0 7-3 10-6 6-3-3-3-10 0-15 7-12 58 0 63 14 5 16-27 13-43-3z"/>
  <path id="ai" d="m850 4715c0-43 29-61 85-51 35 7 36 9 33 44l-3 37-57 3-58 3zm88-40c-8-8-47 8-52 21-4 12 0 11 25-2 17-8 29-17 27-19z"/>
  <path id="aj" d="m4840 4676c0-2 7-9 15-16 12-10 15-10 15 4 0 9-7 16-15 16s-15-2-15-4z"/>
  <path id="ak" d="m1316 4487.5c0 34.324-27.825 62.149-62.148 62.149s-62.148-27.825-62.148-62.149 27.825-62.148 62.148-62.148 62.148 27.825 62.148 62.148z"/>
  <path id="al" d="m4593 4533c-18-4-23-11-23-38 0-51 9-65 41-65 40 0 69 32 69 75 0 33-2 35-32 34-18-1-43-4-55-6z"/>
  <path id="am" d="m4470 4274v-55l53 3 52 3 3 38c4 51-11 67-64 67h-44z"/>
  <path id="an" d="m4634.2 4092.7c0 37.822-30.661 68.483-68.483 68.483s-68.483-30.661-68.483-68.483 30.661-68.483 68.483-68.483 68.483 30.661 68.483 68.483z"/>
  <path id="ao" d="m5012 4024c15-15 30-25 34-22 10 10-19 43-41 46-18 3-17 0 7-24z"/>
  <path id="ap" d="m662 3933 3-48 48-3 47-3v44c0 48-11 57-73 57-27 0-28-1-25-47z"/>
  <path id="aq" d="m4989 3688c-1-7-3-23-4-36-1-12 1-25 6-28 4-2 6-10 4-17-3-7-1-19 5-27 8-13 11-12 23 4 8 11 12 29 9 40-5 18-7 19-10 3-7-33-19-7-15 33 2 24 0 40-6 40s-12-6-12-12z"/>
  <path id="ar" d="m115 3651c-3-6-11-8-18-4-6 3 2-10 18-30 18-25 22-35 11-31-9 3-16 2-17-2 0-5-2-22-4-37-3-24-1-26 10-17 8 7 13 16 10 20s2 13 10 20c11 9 11 17 3 36-6 13-16 24-22 24s-4 4 4 10c8 5 12 12 8 15-3 4-9 1-13-4z"/>
  <path id="as" d="m136 3562c-2-4-1-14 5-22 7-12 9-12 9-1 0 8 6 11 16 7 14-5 15-4 4 9-14 17-26 19-34 7z"/>
  <path id="at" d="m627 2333c-4-3-7-26-7-50v-43h50c49 0 50 1 50 31 0 48-16 69-54 69-18 0-36-3-39-7z"/>
  <path d="m4996 2255c4-8 1-21-4-28-8-9-8-17 0-27 8-13 9-12 5 2-4 10 1 18 13 21 22 6 17 47-6 47-8 0-11-6-8-15z"/>
  <path id="au" d="m4975 1500c-6-10 1-14 20-11 6 1-1-7-14-17-14-12-20-22-13-26 6-3 13 0 16 6 3 7 3 3 0-9-6-26 11-32 20-7 10 26 7 51-8 63-10 8-16 9-21 1z"/>
  <path d="m4402 1243 3-48h100l3 38c3 32 0 38-23 47-14 6-40 10-56 10-30 0-30-1-27-47z"/>
  <path d="m4503 1153c-7-2-13-22-13-43 0-41 11-50 61-50 28 0 29 1 29 50 0 50 0 50-32 49-18 0-39-3-45-6z"/>
  <path id="av" d="m622 1101c-9-5-12-25-10-62l3-54 58-3 57-3v55c0 44-4 57-19 66-23 12-71 13-89 1z"/>
  <path id="aw" d="m4910 1080c0-5 9-10 19-10 11 0 23 5 26 10 4 6-5 10-19 10s-26-4-26-10z"/>
  <path id="ax" d="m4336 994c-21-53 5-93 60-94 25 0 33 5 38 23 11 40 6 75-10 81-31 12-82 6-88-10z"/>
  <path id="ay" d="m4920 959c0-5 9-9 20-9s20 4 20 8-9 8-20 9-20-2-20-8z"/>
  <path d="m1094 736c-3-13-4-38-2-57 3-30 7-34 36-37 46-5 62 12 62 63 0 46-9 55-61 55-22 0-30-6-35-24z"/>
  <path id="az" d="m1733 593c-8-3-13-23-13-48 0-34 5-47 19-55 28-14 70-12 87 4 21 22 18 83-5 96-20 10-66 12-88 3z"/>
  <path id="ba" d="m4083 103c11-10 45-14 51-5 2 4-9 9-27 10-17 2-28-1-24-5z"/>
 </g>
 <g id="bb" transform="translate(.12847 -1.2756)" fill="#d7a060">
  <path id="bc" d="m3073 4953c-7-2-13-13-13-24s-11-31-25-45c-27-27-25-44 5-44 22 0 35 16 20 25-6 4-5 13 2 25 15 24 28 17 21-11-7-24 17-45 30-26 6 9 7 8 5-2-3-12-17-23-46-38-2-1 1-10 7-21 8-16 7-22-7-28-31-13-41-12-54 4-10 12-10 14 0 8 17-10 15 2-4 21-8 9-13 24-11 34 3 10-2 24-10 31-12 10-14 9-13-3 4-27 0-38-17-42-14-4-12-5 5-6 21-1 33-21 11-21-5 0-8-4-5-8 2-4-4-9-15-9-16-2-18 1-10 11s7 17-4 26c-12 10-13 16-4 27 9 10 14 11 19 3 4-7 9-1 12 14 4 20 1 26-13 26-10 0-21 5-24 10-8 12-65-39-65-57 0-7-10-13-22-13-17 0-19-3-10-12 18-18 15-23-17-23-16 0-29 2-29 5 2 24-4 31-19 26-10-4-14-4-10 0s-5 13-19 21c-32 16-34 16-34 2 0-5 5-7 12-3 7 5 9 2 5-9-3-9-2-17 2-19s-3-14-17-28l-25-25 15 25c20 33 13 53-13 39-15-7-17-14-10-23 6-8 7-23 2-42-5-16-10-23-10-16-1 8-6 10-13 6-10-5-10-4-1 6s9 19-2 41c-8 15-12 36-8 46 3 10 3 15-2 11-4-4-16-3-27 3-15 8-26 6-45-6-13-9-27-14-31-11-3 3 0 6 7 6 8 0 11 7 7 15-3 8-2 14 2 14 23-4 72 2 72 9 0 4-20 7-45 6-29-1-51 4-60 13-19 19-19 4 0-21 11-14 12-23 4-33-12-13-10-14 31-17 8-1 16-11 18-24 3-20 0-22-24-16-17 4-25 3-21-3 3-5-1-10-9-10-9 0-13 6-10 14s2 11-3 8-12-1-16 5c-3 6 4 10 17 10 22 1 22 1 4 15-10 8-23 12-29 8-6-3-7-1-3 5 8 13-10 26-24 17-8-5-7-11 1-21 9-11 9-14-1-14-8 0-10-8-6-25 4-15 2-25-4-25s-8 6-4 13c4 6-2 4-13-6s-27-15-37-11c-19 7-22 24-3 24 8 1 7 5-4 13-9 7-15 20-13 30 1 11 0 16-3 13s-11 2-18 11c-11 14-14 15-33 1-12-8-19-18-15-22 4-3 8-13 9-22 2-13 0-13-14-2-13 11-15 10-10-10 5-19 4-21-8-11-17 14-19 39-2 39 6 0 8 3 5 7-4 3-1 13 5 21 17 20 18 39 3 39-7 0-11-6-8-13s-2-23-11-36c-9-12-16-30-16-40 0-13-8-18-27-18-20 0-24-3-14-9 8-5 9-11 3-15-6-3-13-2-17 4s-12 7-18 3c-7-3-4 3 7 15 21 24 31 78 16 87-6 4-25-4-43-16-17-12-33-23-35-24-1-1 1-16 4-33 4-18 10-29 15-27 4 3 6 12 3 20-4 9 1 13 14 12 20-1 20-2-1-28-12-14-26-24-32-21-5 3-4-1 3-10 11-14 10-18-5-26-25-13-50-1-48 24 1 21-16 27-31 11-11-11-26-8-19 3 3 6 1 10-6 10-8 0-7 5 2 17 8 10 9 14 2 10-6-4-18 1-25 10-16 22-44 28-54 12-5-8-3-9 6-4s11 4 6-3c-11-19-31-14-56 13-15 16-30 23-42 19-22-7-23 0-2 20 8 9 11 16 5 16-16 0-25-22-23-53 2-18-1-26-8-22-16 10-69-15-64-29 14-36-66-43-85-7-10 17-11 21-12 49 0 9-3 12-6 5-2-7-20-15-39-19-34-6-45-26-22-40 6-4 8-3 5 3-3 5 0 10 7 10 10 0 10-6 2-24-10-21-29-28-63-24-7 1-13-3-13-9 0-5-4-10-10-10-5 0-7 7-4 15 7 17-31 22-41 5-4-6-23-9-43-7-31 4-37 8-37 27 0 13-6 25-12 27-7 3-13 1-13-4s-16-17-35-27-32-23-29-27c6-10-31-19-66-16-13 1-36 15-50 31l-26 29-18-37c-16-35-14-62 4-51s59-7 57-25c-1-10-4-17-8-14-4 2-10-2-12-8-3-7-6-1-6 15-1 28-19 35-39 15-13-13-72-19-72-7 0 4 4 10 9 14 10 6 11 44 1 43-18-2-21 4-9 19 13 15 12 15-8 5-12-7-23-12-25-12-9 0-1 47 11 70 13 24 13 24-5 9-35-29-47-34-36-12 9 16 5 26-22 55-26 28-31 39-22 49 9 11 8 11-5 1-10-8-15-21-12-35 4-18 3-19-6-7-9 13-11 13-11-2 0-12-5-15-17-11-13 5-15 2-10-11 9-22-19-33-45-17-16 10-18 10-13 0 5-8 4-10-4-5-18 12-42 64-31 71s-8 55-22 55c-5 0-1-11 7-24 15-23 15-25-6-31-44-14-50-28-21-52 16-14 20-20 10-17-16 5-16 3-6-26 8-25 8-34-2-40s-9-9 1-13c9-3 10-6 2-6-18-1-24 15-26 64-1 27-5 44-12 42-13-5-14-60 0-69 6-5 6-8-1-8s-12-15-12-34c0-50-11-63-28-30-8 15-12 29-9 32s5-1 5-9c1-8 7 0 14 16 18 42 10 60-19 41-12-8-26-11-32-8-17 12-34 52-27 64 4 7 3 8-4 4s-12-1-12 8c0 8 6 17 13 19 6 3 2 6-11 6-22 1-22 0-8-33 15-35 15-47 1-78-4-11 1-33 14-58l21-41-30-6c-17-3-30-11-31-17 0-6-4-1-9 12-7 16-18 22-40 22-17 0-30-5-30-12 0-22-19 6-24 36-7 39-15 44-12 7 1-16 10-39 21-51 12-13 14-20 5-20-10 0-10-3-1-14s9-16 0-22c-8-5-9-3-4 6s4 11-3 6c-7-4-12-15-12-24 0-14-2-14-9-3-6 9-9-8-7-47 1-34-2-62-7-62-4 0-5-5-2-10 4-6 11-7 17-4 6 4 8 2 4-4-3-6-1-14 5-18 6-3 15 0 20 7 5 8 9 9 9 4 0-19-23-35-52-35-26 0-38-13-20-23 4-2 1-2-5-1-7 2-13-2-13-8 0-7-7-5-17 4s-24 13-30 11c-15-6-17-43-3-43 6 0 10 5 10 11 0 5 4 8 10 4 12-7 4-89-9-93-6-2 1-14 16-26 19-17 24-28 19-44-4-12-14-22-22-22-16 0-19-26-4-35 6-3 10-2 10 4 0 8 20 8 40 1 3-1 9-2 14-1s4-5-3-13-11-20-10-28c4-36-1-40-49-36-37 2-48 0-48-12 0-11 11-15 36-15s34-4 32-14c-2-8 9-26 23-41 28-30 25-40-11-34-13 2-24 1-23-3 4-22-3-33-18-33-16-1-16-2 1-15 16-12 17-18 8-27-7-7-13-9-13-5-1 4-2 10-3 15-4 20-20 32-44 31-24 0-25-1-7-8 11-5 29-18 39-30 15-16 22-18 33-10 7 7 11 20 8 30-5 14-2 17 9 13 9-3 16-10 16-16 0-5 5-6 10-3 6 3 10 1 10-4 0-6-8-11-19-11-21 0-44-23-34-34 4-4 0-4-10 0-10 3-17 1-17-5s-5-11-11-11c-5 0-8 4-5 9 4 5 0 12-6 14-10 4-10 7 0 15 16 11 0 26-35 34-17 5-20 2-16-11 3-9 14-25 23-36 25-29 31-52 14-52-8 0-13 6-10 14 7 16-20 18-30 1-5-7-3-8 7-3 11 7 12 6 2-6s-10-18-1-27 9-12 0-12c-7 0-11-6-10-12 2-7-7-14-19-16-27-4-28-13-8-52 9-17 13-30 11-30-3 0-1-12 4-26 7-17 7-32 0-44-7-13-7-21 0-25 6-4 8-11 5-16-4-5-2-9 4-9 5 0 13 5 16 10 4 6 12 7 18 4 8-5 8-3-1 7-15 16-16 29-1 29 5 0 7-4 4-10-9-15 7-12 32 5 16 12 22 12 26 2 3-7 6-4 6 7 1 13 6 17 21 13 10-3 21 0 23 6 1 5 9 8 16 6 7-3-4-14-26-25-21-12-37-26-35-33 1-7-3-11-10-10-31 4-39-2-36-23 2-13 8-22 14-21 23 4 9-24-16-34-25-9-26-8-22 14 2 13-1 23-7 23s-11-12-11-26c0-28-23-57-35-46-5 4-5 1-1-6 6-10 11-10 22-1 12 10 13 9 9-4-5-12 1-15 33-14 22 1 38 0 36-2-2-3 6-15 18-29l23-24-35 3c-19 2-37 7-40 11-4 4-16 1-28-8-17-12-20-19-12-29 6-7 9-18 8-23-2-6 6-18 17-27s14-14 8-10c-7 3-13 1-13-4 0-6 5-11 11-11 5 0 8-4 4-9-3-5-1-12 5-16 15-9 12-63-3-72-8-4-16-15-19-24-7-17-43-20-67-5-11 7-13 4-9-12 5-19 2-22-27-22-42 0-55-32-19-49 17-8 23-7 21 1-4 21 21 18 26-3 4-15 0-27-11-36-16-12-16-13 1-7 9 3 17 1 17-4 0-12 46-10 58 3 4 4 2 5-4 2-7-4-11 3-11 21 0 15 2 21 4 15 8-21 26-14 20 7-3 11-1 20 4 20 4 0 7-25 6-55s-5-55-9-55c-5 0-8-9-8-20s-4-20-10-20c-14 0-13-27 2-36 6-4 8-3 4 4-3 6-2 13 3 16s12-1 15-10 12-14 20-11c20 8 14-15-9-40-24-24-62-35-69-19-3 6-3 0 1-14 3-14 13-30 22-37 14-11 14-14 1-23-8-5-12-10-7-11 4-1 10-2 15-3 4-1 12-5 19-9 6-4 17-5 25-2 7 3 19-4 25-15 11-16 10-18-1-14-8 3-17 1-21-5-6-10 8-16 28-12 5 1 6-3 2-9-12-19-33-10-44 20-5 17-17 30-27 30s-14-5-10-16c3-8 2-12-4-9s-10 3-10-2c0-17 16-31 39-34 19-3 25-11 28-34 4-29 4-29-12-10-9 11-14 14-10 8 9-18-5-16-29 4-21 18-21 18 0-7 12-14 24-33 27-42 6-18 21-18 55 0 12 7 22 9 22 4s-12-14-26-21c-17-7-24-17-20-27 3-9-1-17-12-21-9-4-23-13-31-21-12-11-11-18 8-42 27-37 26-40-4-40-14 0-25-4-25-10 0-5-4-10-10-10-5 0-10 7-10 16 0 14-3 14-16 4-13-11-16-10-21 9-5 21-6 21-19-5-17-32-18-44-3-44 5 0 7 6 3 13-5 7-1 6 10-3 20-16 46-22 46-11 0 4 18 7 40 7 32-1 45-7 69-36 31-36 41-61 17-41-11 9-16 9-22 0-4-8-3-9 4-5s12 3 12-2c0-6-18-8-42-4-38 5-42 3-30-10 7-9 11-22 10-29-2-7 4-13 12-14 8 0 15-7 16-15 2-30 4-32 22-19 15 13 16 12 3-3-12-16-9-22 10-20 3 1 6-6 6-14s-5-14-10-14-16-8-23-17c-12-16-13-15-4 10 9 26-2 39-15 17-3-5-12-10-18-10-7 1-2 9 11 20 24 20 15 35-17 25-12-4-18-14-17-34 1-16 3-28 5-25 2 2 17-4 33-14 35-21 34-52-4-69-20-9-25-17-21-32 3-12 13-21 25-21 10 0 17-4 13-9-3-5 5-11 17-13 16-2 22-9 20-20-2-10 3-18 10-18 8 0 9-3 3-8-5-4-11-11-12-17-1-5-4-17-8-26-3-9 1-23 9-32 20-20 20-27 1-27-8 0-15-4-15-9s-7-12-16-15c-8-3-12-2-9 3s-3 12-14 16c-11 3-25 13-33 22-9 12-9 15-1 9 9-5 11-2 6 11-6 15-9 14-17-9-5-16-16-28-23-28s-13-4-13-10c0-5-13-10-29-10-17 0-33-4-36-10-4-6 7-10 27-10 18 0 82-2 142-5 102-4 138-12 108-22-6-3-10-9-6-14 3-5-8-12-25-15-33-7-48-4-43 9 1 5-2 5-8 2-8-5-6-13 4-24 20-22 20-31 1-31-8 0-15 5-15 12 0 6-3 8-6 5-4-4-1-13 6-22 7-8 9-15 5-15s-2-6 4-14c7-8 21-13 32-11 27 5 24-14-3-20-56-12-78-13-78-3 0 6-3 8-6 5-4-4 0-17 9-30 11-17 12-28 5-35-6-6-6-12 3-17 8-6 10-4 4 5s-4 11 5 5c11-7 10-10-1-19-23-18-21-41 6-66 14-13 25-29 25-37 0-17 17-17 23 0 3 6 4-3 2-20-2-18 0-33 5-33s7-7 4-15c-4-8-14-15-24-15s-25-11-34-25c-20-31-20-39 0-31 9 4 13 2 8-5-4-6 0-15 7-20 10-6 8-9-9-9-19 0-22-4-18-26 6-30-10-50-48-60-17-4-26-2-26 6 0 7 7 10 16 6 8-3 12-2 9 4s1 7 9 4c11-4 16 0 16 10 0 15-3 15-30 1-37-19-37-28-5-49 19-13 24-22 20-37-7-20-6-20 19-4 14 10 24 20 22 24-3 4 4 8 15 8 18 2 18 1 3-15-31-31-61-41-98-32-26 6-34 5-29-4 11-17 12-36 2-36-5 0-9-4-9-9 0-6 9-9 21-8 14 1 19 7 16 19-5 18 19 33 28 17 4-5 11-6 17-3 7 4 8 2 4-5-4-6-13-8-19-5-8 5-8 3 1-7 6-7 12-24 12-37s4-20 10-17c6 4 8 10 5 15s0 12 6 16c8 4 9 3 5-4s0-12 11-13c13 0 14-2 4-6-8-3-24-16-36-29s-30-24-40-24c-17 0-17-1 0-20 20-22 40-26 51-8 5 7 2 9-7 4-8-4-5 0 5 8 11 9 27 16 35 16 14 0 14-1 1-10-8-5-10-10-5-10 6 0 2-5-8-11-9-6-14-15-11-21 4-7 2-8-5-4-9 6-10 0-5-20 5-21 4-25-6-19-8 5-11 4-6-3 3-5 1-12-6-14-7-3-9-12-5-22 5-12 13-15 26-11 11 3 23 0 27-6 5-8 3-9-6-4-10 6-12 3-8-13 4-12 2-22-3-22s-9 7-9 16c0 10-5 14-16 10-8-3-13-2-10 2s-5 14-17 21c-18 11-20 11-9 0 18-19 15-29-8-29-17 0-19 4-14 28 4 15 3 23-2 19-13-12-14-40-2-54 7-9 7-13-1-13-7 0-9-5-5-12 5-8 11-6 20 6 7 10 15 13 18 7 4-5-3-15-14-21s-18-15-15-20-3-13-12-19c-10-6-14-11-10-11s2-6-5-14-16-12-20-9c-4 2-5-3-2-11 6-15-11-22-39-17-5 1-6-3-2-9 3-6 11-8 16-5 8 6 13-8 10-27 0-4 6-5 15-1 8 3 13 12 9 21-3 8 3 21 12 29 10 8 12 11 4 7-10-5-12-3-7 5 6 9 11 9 22 0 7-6 12-14 10-18-3-4 7-6 21-5 13 0 29 7 34 15 7 12 9 11 9-2 0-9 8-23 18-32 15-13 21-14 32-4 10 9 11 9 6-1-5-8 0-12 16-12 17 0 19-3 9-9-9-6-10-11-2-15 6-4 9-11 6-16-8-14 102-5 119 10 14 11 19 11 29 0 8-8 8-11 1-7s-14-2-17-14c-4-14-10-18-19-13-10 6-10 4 1-9 10-13 18-14 33-6 17 9 18 8 6-10-7-12-16-21-20-21-3 0-5-8-3-17 1-10 8-17 14-16 6 2 11-4 11-13 0-11 5-14 16-10 9 3 18 6 20 6 3 0 0 10-6 23-9 16-4 14 18-10 17-17 33-29 36-26 3 4 6-2 6-13 0-14 2-16 9-5 6 9 11 10 15 2 10-15 29-14 23 2-2 6 3 20 12 30 13 15 13 18 1 15-8-2-14 2-13 9 1 6-4 14-12 17s-14 0-12-7c1-7-5-12-13-12s-14 7-12 17c1 9-2 19-8 23s-7-1-3-12c6-16 5-17-13-3s-18 14-5-3c8-9 11-20 7-24-8-8-12-3-20 25-4 12-3 22 2 22 12 0 10 19-2 39-6 9-5 12 2 7 5-3 13-1 15 4 3 6 4 5 3-2-3-16 64-70 79-64 7 2 18 0 26-4 15-10 49 15 49 34 0 6-4 5-9-2-6-10-11-7-18 15-10 27-9 28 26 28 21 0 36 5 37 13 1 6 2 17 3 22 1 12 54 1 60-12 6-18 63-63 75-60 6 2 8 0 4-4-13-12 11-32 32-27 11 3 17 9 14 14s-1 9 5 9c5 0 12-4 16-10 3-5 13-6 23-3 15 6 16 5 2-12-8-10-13-21-12-24 11-19 25-30 34-25 5 3 15 1 22-5 17-14 25 2 20 42-1 15 2 27 7 27 6 0 10-10 9-22-4-39 0-48 15-42 8 4 15 1 15-5s-9-11-20-11-20-7-20-15c0-13 12-19 25-12 2 1 10-7 18-17 19-26 50-29 93-11 30 12 34 17 25 34-14 25-14 41 0 41 5 0 7-4 4-10-10-16 17-37 42-32 26 5 26 6 14 50-7 23-7 30 1 26 7-5 9-1 5 9s-2 17 5 17 8-13 5-37c-4-24-3-33 3-24 7 13 11 13 26 0 16-13 17-12 10 6-6 16-5 17 5 8 10-10 9-15-1-28-11-13-8-18 10-17 3 0 6-8 6-19 0-10-6-19-14-19-7 0-11-4-7-9 3-5-4-12-15-16-21-7-22-37-2-57 9-9 12-9 12 1 0 11 3 11 15 1 9-7 18-10 22-6 3 3 1 6-6 6s-11 6-8 14c3 7 1 18-5 24-15 15 7 42 33 42 11 0 19 7 19 17 0 22 6 14 14-19 4-20 2-28-6-28-7 0-19-9-25-19-10-15-9-20 2-25 10-4 15 1 15 14 0 11 7 20 15 20s15 6 15 14 7 16 15 20c8 3 14 2 14-2-4-28 1-34 18-21 11 10 14 10 9 1-4-7-1-12 9-12 9 0 14 3 11 8-2 4 13 6 35 4 32-3 39-1 40 14 0 14 3 12 9-6 4-14 13-38 20-55 7-16 12-34 11-38-1-5 3-6 9-2 5 3 10 1 10-6s3-9 7-6c3 4 12 2 19-4 9-7 14-6 20 3 4 7 4 10-1 6-4-4-16 2-26 13-9 11-21 21-26 22-16 4-13 38 5 43 9 3 25 10 35 15 22 12 22 5 0-21-14-16-20-17-32-7-14 11-14 10-2-5 7-10 22-18 33-18 10 0 16-5 13-10-10-17 23-23 39-7 11 11 12 17 3 26s-8 11 6 6c9-4 17-11 17-16 0-19 17-8 30 19 9 20 14 23 19 12 3-8 15-17 25-18 17-3 18-2 7 12-15 17-7 66 10 66 6 0 8 4 5 8-2 4 4 13 15 20 10 7 19 9 18 5-4-22 2-33 14-28 6 4 1-2-13-13-13-11-29-20-34-19s-12-6-14-15c-2-10 2-18 8-18s9 4 6 9c-4 5 2 8 11 7 13-2 18-11 17-31-1-27 0-27 12-10 8 11 14 13 14 6s5-9 10-6c8 5 8 11 0 20-8 10-5 17 12 29 26 19 64 21 74 4 4-6 3-9-2-5-5 3-17-1-27-8-15-11-16-14-2-25 13-11 15-10 12 1-2 8 1 4 7-8 5-13 14-23 20-23 5 0 6 3 3 7-4 3 1 12 11 20 9 8 12 12 5 9-6-4-14-2-17 3-4 5 5 8 19 6 19-2 23 1 15 10-7 9-6 16 5 25 10 9 15 9 15 1 0-6-6-11-12-11-9 0-9-3-2-8 6-4 13-15 17-24 3-10 13-18 21-18 13 0 14-4 4-25-13-28-29-24-23 6 3 13 0 19-8 16-7-2-11-15-9-28 2-20 1-21-8-9-8 10-10 11-8 2 2-8 6-12 9-10s13-3 22-10c14-12 21-11 47 2 30 14 31 14 25-4-9-28 22-15 32 13 11 35 12 48 2 41-5-3-6-10-3-16 4-7 2-8-5-4-6 4-9 11-6 16s1 11-5 15c-13 8-13 45 0 45 19 0-7 35-27 38-36 4-53 8-60 17-4 4-3 5 3 2 7-4 15 0 18 9 3 8 10 12 16 9 6-4 8-11 4-16-11-18 31-5 49 16 10 11 15 13 11 5-13-23-15-52-4-45 6 3 7-1 4-9-8-22 31-35 76-25 26 6 41 4 60-9 32-21 40-22 69 0 23 18 41 16 41-4 0-5-6-8-14-5-10 4-12 0-9-14 5-17 15-23 36-20 4 0 7-9 7-22s5-28 11-34c8-8 2-13-23-19-18-4-37-7-41-6-5 2-5-2-2-8 4-6 13-9 21-6s14 0 14-6c0-7 4-7 13 1 8 6 17 8 20 4 4-3 7 0 7 7s8 23 18 34c16 20 16 20-2 6s-19-13-13 11c4 14 4 29 0 33s-8 14-9 24c-2 14 0 14 11-3 24-34 35-45 46-45 6 0 5 9-2 22-9 19-9 21 2 11 16-16 41-16 74-1 20 9 26 18 22 35-2 13 0 23 5 23s6 6 2 12c-6 10-5 10 8 1 8-7 19-9 23-5 5 4 5 2 2-4-9-16 22-51 53-59 19-5 22-4 10 4-13 9-13 11 2 11 19 0 31-29 23-53-4-9 2-21 14-29s18-18 14-22 1-4 10 0c11 4 16 13 13 21s-6 16-6 18-9 1-20-2c-12-3-20 0-20 6 0 7 8 11 18 9 9-2 16 2 15 9-2 7 4 10 12 7 8-4 12-10 9-16-3-5 2-16 12-24 11-9 14-13 7-10-6 4-15-3-18-15-9-26 1-37 18-19 10 10 9 11-3 5-12-7-13-5-2 6s16 9 36-16l24-29 1 29c1 17 2 39 2 50 1 11 3 14 6 8 6-17 26-17 20 0-2 6 0 20 5 30 7 13 5 24-5 35-26 32-28 40-6 35 11-3 18-11 15-19-3-7-1-16 4-19 11-7 41 5 35 15-3 4 4 10 14 13 12 3 22-1 25-10 3-8 1-11-4-8-6 3-7-1-4-10 4-9 13-14 20-11 8 3 14 1 14-4 0-6 4-10 8-10s8 9 8 20-5 20-11 20c-17 0-15 38 3 51 14 11 15 11 5-1-7-8-13-18-13-23 0-9 48-3 88 10 13 4 14 3 3-5s-10-11 4-19c15-9 16-11 1-16-20-8-21-47-1-47 18 0 62 44 58 57-2 6 3 13 12 16 9 4 15 1 15-8 0-21 33-18 52 4 9 11 15 21 13 23-3 2 37 2 68-1 4-1 7-6 7-12 0-8-6-7-17 2-16 13-17 12-4-4 17-21 31-22 31-2 0 8 10 25 21 36l22 22 24-32c14-17 29-28 34-25 6 3 5 12-3 21-12 15-11 15 9 2l22-13-22-16c-17-11-21-23-19-50 2-19 8-39 14-45 8-7 9-4 4 9-4 13-2 17 8 13 21-8 28 4 11 23-13 14-12 16 5 16 10 0 17-3 14-7-7-12 8-39 18-33 13 8 29-17 20-31-14-21-9-31 16-29 14 0 28 6 30 12 6 20 29 13 35-10 5-18 8-19 21-9 14 12 14 16-1 45-12 22-18 26-21 15-3-15-29-28-56-29-4 0-5 10-1 22 4 13 8 37 10 53 2 17 4 33 4 38 1 4 6 7 12 7 5 0 7-6 3-12-14-23-12-49 3-43 8 3 16 5 19 5 2 0 1 8-2 18-4 12-3 13 3 4 12-16 76 6 81 28 3 11-2 10-17-4-21-19-21-19-21 1 0 25 34 37 50 18 15-18 60 4 60 28 0 11 9 21 20 24s17 10 13 16c-3 6-1 7 5 3 17-10 15-15-10-26-19-8-16-9 12-4 19 4 40 10 45 15 7 5 16 0 23-12 11-16 15-17 35-7 12 7 25 18 29 23 4 6 8-2 8-17 0-18-5-28-15-28-8 0-15 5-15 11 0 5-5 7-10 4-6-4-8-11-5-16 4-5 1-9-4-9-6 0-11-5-11-11 0-5 4-8 9-5 5 4 7-3 4-14-4-16 0-20 21-20 14 0 26-4 26-10 0-5-5-10-11-10-5 0-8-4-5-8 2-4 1-14-5-22-7-12-9-11-10 5-1 11-1 23-1 26 1 3-6 6-13 6-10 0-12-4-5-12 6-7 6-15-2-23-6-6-8-18-4-27 5-15 8-14 30 2 13 10 22 21 20 24-2 4 3 12 11 19 12 10 15 10 15 0 0-8 3-11 6-7 4 3 2 20-4 36-7 21-7 33-1 37 6 3 8 12 5 20s0 13 7 11c7-1 11 4 9 11-1 8 2 11 8 7 8-5 8-11 0-20-8-10-9-19-1-32 6-10 11-13 11-8 0 6 5 3 10-5 9-13 10-13 10 0 0 9-5 21-11 27-8 8-8 13 0 17 6 4 11 16 11 27s-4 17-10 14-7 1-4 9c3 9 1 16-5 16s-11 5-11 10c0 7 6 7 18 1 13-7 23-6 31 2 10 9 11 8 6-4-4-11 3-20 24-29 17-7 28-17 24-22-3-6 0-8 8-6 8 3 13 10 12 16-2 7 5 9 15 5 14-5 15-3 5 7-10 11-9 16 4 26 14 9 15 15 5 26-10 12-8 19 8 33 11 10 23 15 27 12 3-4 1-7-6-7s-10-8-8-17c3-10 8-35 12-55 5-30 3-37-9-32-14 5-33-13-23-22 10-10 67-13 67-4 0 6-4 10-10 10-11 0-13 33-4 78 4 21 13 31 30 35 13 2 21 0 18-4-6-10 49-5 81 7 14 5 17 4 10-4-5-5-19-12-30-14s-21-9-21-16c-1-6-2-17-3-23 0-5-6-7-13-3s-8 3-4-4c5-9 13-9 27-2 15 9 19 7 19-5 0-13-12-19-32-16-4 0-5-6-1-15 3-8-3-22-13-30-11-9-13-12-6-9 11 6 13-2 10-31-2-24 2-39 10-42 7-2 12 0 11 5-2 4 3 28 10 53 24 101.45 127 153 200 135 14-3 35-6 45-6 11 0 25-8 32-17 12-16 13-16 14 2 0 11-8 28-17 39-17 18-17 19 2 33 11 8 37 17 57 21 32 5 36 8 26 20-9 11-9 16 3 24 8 5 17 9 20 9 4 0 10 10 14 22 6 20 8 21 12 5 7-26 29-14 25 13-1 13 6 33 15 44 13 15 10 14-11-4-16-14-26-20-23-14 4 7-4 28-18 48l-24 36 24-2c13-1 21-6 19-10-3-5-10-5-16-2-7 5-8 2-4-5 6-9 12-9 25 3 10 9 21 13 24 9 11-10 8 12-3 25-7 8-7 9 1 3 6-5 17-8 23-5 6 2 16-8 23-22 11-24 10-26-7-21-29 7-24 0 10-18l31-16-15 36c-13 30-13 35 0 35 27 0 14 20-26 37-46 20-50 30-15 43 14 5 25 12 25 14 0 3-7 3-15 0-8-4-17 1-21 10-3 9-10 13-15 10s-9 0-9 6-4 8-10 5c-5-3-10-1-10 4 0 6-4 11-10 11-5 0-10-7-10-16 0-16-21-15-27 2-6 18 37 76 52 70 9-3 15 1 15 9s4 15 10 15c5 0 9 6 7 13-1 7 7 11 20 10 15-2 21 2 17 11-3 7-19 13-35 14-24 1-28-2-20-12 16-19-10-41-28-23-9 9-14 9-21-3-7-11-12-12-21-3-6 6-18 9-25 6-9-3-12 0-9 9 3 8-3 23-15 33-20 18-20 18 20 36 22 10 40 21 40 25 0 3-6 4-13 1-8-3-14 0-14 6 0 7-4 21-9 32-7 19-7 19 10 2 25-25 65-22 75 6 5 13 5 25-2 28-5 4-7 11-4 16s0 10-7 10-13-6-13-14c0-7 4-13 8-13s7-9 6-19c-1-20-17-19-17 1 0 6-8 20-17 30-14 16-15 21-4 27 20 13-9 21-31 9-15-7-17-5-9 14 4 13 6 30 4 38-4 12-3 12 5 1 6-8 21-11 38-9 16 3 23 3 17 1-7-3-13-9-13-14 0-6-6-7-12-3-7 4-5-1 4-11s29-20 45-21c18-2 23 0 14 5-10 6-10 10-1 16 6 4 9 14 6 22s-1 11 4 8c14-9 12 7-4 27-7 10-16 14-20 10-5-4-7 0-6 8 4 27 0 40-11 40-8 0-9-4 0-13 11-14 5-27-12-27-6 0-7 3-4 6 11 11-13 45-26 37-8-5-8-2 1 9 20 24 57 28 71 6 6-10 7-18 2-18s-4-13 2-30c12-32 27-40 27-14 0 9 5 12 12 8 8-5 9-2 5 9-3 10-2 17 4 17s7 5 4 11c-4 6-10 8-13 5-9-10-42 26-42 46 0 11-4 17-9 14-20-13-5 64 17 84 12 11 23 17 24 13 5-28 1-39-17-43-11-3-21-14-23-24-3-12 0-16 7-11 6 3 9 11 6 16-4 5 3 9 14 9 12 0 26 9 33 19 9 15 17 17 35 10 29-11 29-5 1 34-23 32-30 75-14 84 5 3 6 1 2-5-10-16-1-15 13 2 9 11 7 13-10 12-33-2-34 21-2 39 26 15 27 15 3 9-14-3-32-11-40-17s-12-7-7-2c4 4 0 17-10 27-9 11-11 18-5 18 7 0 12-6 13-12 0-7 5-2 10 11 9 24-4 46-22 36-3-3-6 8-7 24 0 25 2 27 31 23l32-4-30 32c-16 18-24 30-17 26 6-4 12-2 12 3 0 6 5 11 11 11s9-9 6-20c-4-15 0-20 13-20 11 0 22 5 25 10 4 6 1 9-7 8-7-2-12 4-11 12 2 10-5 16-19 17-24 2-38 14-42 35-1 8-10 28-21 44-14 23-15 26-2 16 21-18 43-6 26 14-9 11-9 14 1 14 9 0 8 6-4 19-17 19-17 19 6 14 17-3 20-2 9 5-18 12-23 40-10 48 6 4 6 11-1 19-8 9-8 15 0 20 6 3 7 11 4 17-4 6 1 6 14-1 31-17 34-28 12-44-31-22-16-45 26-41 20 1 39 6 42 10 4 4-3 4-15 1-13-3-26 0-30 5-3 6-1 8 5 4 6-3 13-2 16 3 4 5 2 12-4 16s-8 10-5 15c3 4-1 10-9 13-7 3-16 15-19 26-5 20-4 20 18 3 13-9 21-20 18-24-7-13 12-9 26 5 11 10 12 9 6-2-5-9-4-12 3-7 6 3 10 15 9 26-1 10-5 16-9 14-4-3-8-1-8 5s-10 15-21 22c-12 6-19 7-15 1 3-5-8-12-24-14-22-3-30 0-31 11 0 9-2 26-3 37-2 19 0 20 15 11 13-8 21-7 33 2 9 7 13 17 10 22s0 9 6 9 9 4 5 9c-3 5-7 23-9 39-2 22 0 29 10 25 17-6 18 9 2 26-9 10-9 12-1 7 6-3 14-2 18 4 3 6-5 11-19 11-14 1-30 2-35 3-13 1-26 16-15 16 5 0 10 12 11 27 1 19-1 22-8 12-8-13-13-6-10 14 0 4-3 7-8 7-6 0-9 8-9 18 0 9-2 29-6 43-4 15-3 29 2 33 6 4 8-2 5-14-9-33 41-22 58 14 10 20 9 20-5 2-8-10-20-15-26-11-8 5-6 13 6 26 9 11 14 22 11 26-4 3-7 0-7-7 0-14-14-5-16 11-1 5-2 13-3 18 0 6-12 9-25 8-14-1-24 3-23 8 1 6 9 9 17 8 19-2 25 43 9 63-7 9-5 14 9 18 24 8 23 47-2 75-11 12-14 21-8 21 7 0 12-5 12-12 0-6 3-9 6-5 13 13 11 73-4 102-14 29-14 29 3 15 10-8 23-15 29-15s19-5 30-11c18-11 18-12 1-38-23-35-7-33 29 4 16 17 33 30 38 30 4 0 8 5 8 11 0 8-4 8-14 0s-16-9-21-1c-3 5-18 10-33 11-26 0-26 1-5 11 12 6 21 19 20 29-1 13-4 15-14 7-9-7-13-7-13 1 0 14-27 14-35 0-4-6 1-16 10-23 16-12 16-13 1-19-9-4-16-1-16 5s-8 20-17 30c-18 20-27 52-12 42 5-3 6-11 2-17-4-7 0-6 10 2 18 14 23 26 8 17-5-3-11 1-15 9-3 9 1 15 11 15 12 0 13 3 4 13-11 14 1 24 49 41 8 3 4 5-10 5-14-1-28 0-32 1-11 3-26 7-35 9-4 0 2 8 14 16 15 10 20 21 16 33-6 15-5 15 10 3s17-12 11 2c-3 9-18 18-32 20-26 4-26 5-5 12 11 4 23 15 26 25 4 16 1 17-21 9-14-6-35-9-46-8-36 2-47-1-41-11 10-17-12-11-26 7-10 11-10 14-1 9 17-10 15 4-5 26-16 18-16 18 1 12 14-5 16-2 10 20-4 15-2 26 4 26 16 0 73 51 67 60-12 20-56-10-54-36 1-9-23-24-37-24-6 0-10 10-8 23 1 12 3 26 3 31 1 5 4 7 7 3 3-3 16 4 29 16 17 17 20 26 12 37-9 12-9 13 3 3 21-19 39-16 35 6-4 21 50 60 83 62 12 0 10 3-6 10-15 5-21 13-16 21 4 7 4 10-1 6-12-11-45 37-45 65 0 16 15 37 50 66s50 50 50 67c0 13-5 24-11 24s-8-9-4-20c4-12 2-20-5-20-8 0-11 14-8 38 2 30 0 38-14 38-9 0-14-5-12-11 3-5 0-3-8 6-7 9-18 14-25 12-7-3-9 3-6 16 3 12 10 21 15 21 7 0 7 5 0 13-8 10-5 13 15 15 18 1 24-2 20-12-4-11 4-9 29 6 31 18 45 32 27 26-5-2-8 0-8 4 0 3-10 17-23 30-12 14-19 29-15 33 5 5 0 4-9-3-14-11-16-10-14 5 2 10 9 18 17 19 34 2 39 5 39 19 0 8-4 15-10 15-5 0-10-7-10-16s-6-14-12-11c-7 2-12 10-10 17 1 6-7 14-18 17-14 4-20 12-18 27 1 11-1 26-5 33-4 6-2 15 4 19 8 4 9 3 5-4-10-17 26-3 42 16 11 14 12 14 12-1s2-16 14-5c16 16 9 41-10 34-8-3-14 0-14 7-1 7-8 0-16-16-14-26-16-26-39-11-25 17-60 74-45 74 5 0 8 12 7 26-2 21 3 27 20 29 13 1 20-3 17-9s2-2 10 8c14 17 16 18 16 3 0-9 5-17 11-17 5 0 7-6 4-12-4-7 0-5 8 4 8 10 17 15 20 12s4 2 2 13c-1 10 6 34 17 53l20 35-20-23c-19-21-21-21-31-5-9 17-10 17-16 1-7-19 2-41 14-34 4 3 8-2 8-10 0-10-7-8-24 8-14 13-22 30-20 40 3 10 1 16-4 12-5-3-9 0-9 6s-4 9-8 6c-5-3-9 1-9 9s5 15 10 15 4 7-3 16c-8 8-9 14-4 13 21-4 26 2 14 16-17 20-22 86-6 84 6-1 20-1 31 0 15 1 17 3 6 10-7 5-11 13-8 18s2 15-3 23-5 19 1 26c6 8 5 14-6 18-9 3-15 0-15-8s-6-16-12-19c-15-5-69 43-62 55 3 4-1 6-8 4-41-13-79-15-72-4 5 7 2 9-8 5-9-3-21 0-27 6-17 17-13 27 7 20 15-6 15-4-2 15-17 20-17 22-2 22 14 0 15 4 6 20s-8 19 6 13c14-5 15-3 5 15-15 28-14 32 7 33 11 0 12 2 4 6-7 3-18 1-25-4-13-10-23-10-47 0-8 3-33 8-55 9-27 2-39 7-37 16 1 8-2 11-8 7s-9-14-5-22c4-13-1-15-30-10-30 5-35 3-33-11 2-11-2-16-12-13-8 2-24 5-35 7-11 1-22 3-24 3-2 1 2 7 8 14 14 17 5 26-19 20-19-5-20-12-1-57 6-16 10-34 7-40-3-7-5-6-5 2-1 7-5 11-10 7-6-3-8 4-6 16 3 17 0 20-15 16-12-3-20 2-24 15-4 18-7 19-19 6-8-8-17-23-19-34-4-17-6-16-16 8-6 14-15 29-20 32-6 3-8 16-4 29 5 20 4 21-11 8-15-12-21-9-18 12 0 4-4 7-9 7-9 0-14-14-11-32 0-4-5-5-13-2-17 6-31-12-16-21 16-10 11-21-10-21-15 0-19 5-14 21 6 19 5 19-13-2-21-24-39-31-27-11 4 7 3 8-5 4-6-4-10-19-9-33 2-21-2-26-20-28-13-1-25 2-28 7-3 4-14 13-26 19-15 8-19 8-14 0 4-6 3-11-2-11s-12-14-16-32l-6-31-30 33c-32 36-36 45-20 55 6 4 10 3 9-2-4-21 2-33 16-33 18 0 18-1 4 39-11 30-13 31-68 31-35 0-65-6-77-15-10-8-31-15-46-15-23 0-28-5-28-24 0-28 16-43 23-24 4 10 6 10 6 0 1-8-8-16-19-19-27-7-25-21 3-25l22-3-22-19c-12-11-20-23-18-26 2-4-2-7-10-7s-15 6-15 14c0 7-6 16-14 19s-12 13-9 25c4 14 1 20-8 19-33-5-48 0-43 15 4 8 12 15 19 15s18 6 24 14c9 10 8 15-3 19-8 3-16 16-19 29-4 22-4 22-6-2 0-15 4-31 10-37 7-7 4-12-11-16-16-4-20-2-16 9 5 12 2 12-17 3-21-12-21-11-4 8 16 19 16 20 0 35-23 20-51 19-49-1 1-9-5-15-13-13-11 2-12 0-2-11 9-12 8-16-4-21-8-3-15-12-15-20s-9-18-20-21c-11-4-18-12-14-18 3-7-1-4-9 6-16 19-12 61 5 51 5-3 5-11 1-18s2-1 14 13c18 20 20 28 10 40-9 11-9 13 0 8 7-4 18 5 27 24 16 32 16 32-4 14s-21-18-45 5c-14 13-24 29-23 35 2 6 0 10-3 10s-13 6-22 14c-14 11-20 11-32 1-17-14-20-40-5-40 5 0 9 3 9 8-3 18 2 32 11 32 6 0 6-9 1-22-6-16-17-23-35-23-23-1-26 2-21 22s2 23-25 23c-37 0-39 12-5 30 14 7 23 15 20 18-2 3-12-1-21-9-16-13-17-11-10 16l7 29-34-37c-36-40-47-45-47-22 0 8-4 15-10 15-5 0-10-2-10-4 0-9 27-56 31-53 3 1 0-3-6-9-14-15-65-35-66-26-8 77-6 92 12 87 11-4 19-2 19 5 0 6-4 8-10 5-9-5-14 8-7 19 1 2-6 13-16 23-9 11-14 23-10 26 7 8-36 8-54 0zm-125-100c-13-16-21-10-23 16-1 16 2 17 16 8 14-8 15-14 7-24zm307-15c16-7 24-17 20-26-3-9 0-12 9-9 10 4 13 1 10-8-3-7-13-12-22-10s-23 4-30 4c-7 1-10 5-7 11 3 5 1 19-5 30-12 23-10 24 25 8zm-1048-12c3-6 3-8-2-4-4 4-14 3-20-2-9-7-16-6-24 4-9 11-7 14 14 14 14 0 28-6 32-12zm160-11c0-8-4-15-8-15-9 0-25-46-28-79-2-21-13-5-15 21-1 13 6 35 17 50 10 16 15 32 12 38-3 5 0 7 8 4 7-2 14-11 14-19zm258 15c-2-3 5-22 17-41l20-34-26 24c-14 14-24 27-21 29 3 3 0 10-5 17-7 8-5 12 5 12 8 0 12-3 10-7zm-375-61c-12-8-12-9 5-7 11 1 21-1 23-5 1-4 0-6-3-4-2 1-10-7-18-17-14-19-37-15-37 8 0 15 20 36 35 36 5 0 3-5-5-11zm-570-19c6-11 8-20 4-20-3 0-1-7 7-16 10-13 10-17-2-25-22-14-33-11-19 6 10 12 10 18 0 30-7 8-9 15-5 15s2 7-5 15c-8 10-9 15-2 15 6 0 16-9 22-20zm-1018-21c-1-13-7-28-12-33s-7 0-3 14c4 16 3 21-5 16-13-8-17 16-5 28 13 13 28-1 25-25zm1350-13c8-12 1-26-12-26-5 0-6 7-3 17 4 10 2 14-4 10s-16 0-22 7c-10 12-8 13 11 9 13-4 26-11 30-17zm-1076-8c5-8 2-9-12-4-15 6-14 2 6-19l25-27-30 13c-30 13-45 27-45 42 0 12 48 8 56-5zm1383-23c5 2 8-4 7-15s-14-27-30-35c-28-15-28-15-22 11 6 22 4 25-9 20-9-3-13-2-10 4s12 10 20 10 17 5 21 12 3 8-4 4-12-3-12 3c0 18 25 18 28-1 2-10 7-16 11-13zm1185-40c3-8 1-15-5-15s-7-5-3-11c4-7-2-9-17-7-13 1-24 10-25 18 0 9 1 10 3 3 7-21 22-14 16 7-6 24 22 28 31 5zm645-33c-7-11-21-23-31-25-12-4-16-1-11 6 4 7 8 18 10 26 2 19 26 32 36 22 5-5 3-18-4-29zm-3416 8c-3-11-10-17-17-14-6 3 4-7 22-23 18-15 32-34 32-40 0-7 4-13 9-13s12 6 14 13c4 9 8 9 15-2 12-17 5-41-13-41-15 0-25-22-25-56 0-13-3-24-7-24-15 0-43 34-43 52 0 13-4 17-12 12-7-4-4 2 6 14 19 22 19 22-7 22-15 0-27 5-27 11 0 5 4 8 9 5 12-8 41 3 41 15 0 5-11 9-25 9-22 0-25 4-23 33 2 25 9 33 28 38 14 4 26 7 27 8 0 0-1-8-4-19zm55-23c6 3 10 8 8 12-3 4 4 7 15 7 24 0 25-14 2-23-10-4-21-11-25-17-10-15-40 5-44 28-2 16-1 16 14 3 9-8 23-12 30-10zm248 16c-3-4 3-12 15-19 22-11 21-11-5-18-15-4-24-10-22-15 3-5-5-11-19-13-17-4-25-1-25 8 0 8 5 13 11 12 6-2 13 6 15 16 1 10 9 23 16 27 16 11 24 11 14 2zm2344-22c5-10 5-23-1-32-7-11-9-9-9 9 0 13-4 21-9 18-13-9-41 4-41 19 0 18 49 6 60-14zm-2780-15c6-10 7-15 1-12-5 4-12 2-15-3s-16-7-28-3c-13 3-19 1-15-5 5-8-1-7-17 0-23 11-23 13-8 28 22 22 67 19 82-5zm3628-24c-10-2-18-7-18-11s-7-8-15-8-15 4-15 9c0 12 43 27 55 20 6-4 2-8-7-10zm-3318 5c0-2-7-19-16-37-12-24-19-29-25-19-5 8-9 24-9 37 0 17 6 22 25 22 14 0 25-2 25-3zm2869-34c12 10 13 9 7-1-4-7-2-19 4-27 7-8 9-15 6-15-16 0-44 21-50 37-6 14-5 15 5 6 10-10 16-10 28 0zm-2505-24c-2-4 2-10 8-12 7-3 1-6-14-6-14-1-28-6-30-13-3-9-6-9-11-1-9 14 15 40 37 40 8 0 13-4 10-8zm3357-18c-12-12-21-19-21-17s-3 12-7 22-2 15 3 11c6-3 16-2 24 3 23 14 23 3 1-19zm-4011-6c-10-12-10-18-1-29 10-12 7-18-18-31-17-8-31-12-31-8 0 12 26 60 42 77 17 18 25 11 8-9zm73-112c-7-2-13-12-13-20 0-9 6-13 13-10 10 4 13-2 9-19-5-25-17-30-42-14-12 8-12 10 3 15 12 5 14 11 7 25-11 20-4 30 19 29 10 0 12-2 4-6zm-123-50c0-20-14-16-40 12l-23 24 32-12c17-6 31-17 31-24zm3951-33c6 0 7 6 3 13-4 6 1 5 11-5 19-18 13-38-13-38-12 0-17 9-18 28-1 15 1 21 3 15 3-7 9-13 14-13zm-3775-22c5-7 2-9-9-5-9 3-18-1-22-11-5-14-7-14-15-2-6 9-5 17 3 22 17 11 35 10 43-4zm3848-161c-12-37-47-50-58-21-7 18 11 47 24 39 5-3 11-1 15 5 11 18 26-1 19-23zm-3959-7c-4-6-1-17 5-25 11-13 8-21-3-12-2 1-10-3-18-10-11-9-18-6-32 13-10 13-13 24-7 24s13-7 16-15c4-8 11-12 16-9 6 4 5 10-3 15-12 8-11 11 1 19 20 13 33 13 25 0zm4157-37c-6-2-10-9-7-14 4-5 2-16-2-24-8-13-11-13-31 1-29 20-28 32 6 37 40 6 49 6 34 0zm-4309-22c4-1 7-5 7-11 0-5-13-10-30-10-21 0-28 4-24 14 3 8 13 13 22 11s20-4 25-4zm117-34c0-16-3-19-9-8-5 7-14 10-21 6-9-6-9-3 0 14 13 26 30 19 30-12zm-79-20c-14-16-19-30-15-43 4-10 4-16-1-12-4 4-14 3-20-2-9-8-11-4-7 16 2 14 11 28 18 31 8 3 11 10 7 16-3 6-1 7 6 3 6-4 14 0 17 9 4 9 9 13 12 10s-4-16-17-28zm206-52c0-18-30-12-33 7-1 10 4 14 15 11 10-2 18-10 18-18zm3998-78c8 2 16-6 20-19 10-32 45-69 59-61 6 3 5 0-1-8-17-18-16-30 1-23 10 4 13 0 11-13-1-10-8-17-13-16-6 2-9-4-6-12 4-9 0-15-10-15-15 0-21-12-17-34 1-4-1-17-5-28-5-16-12-18-40-15-35 5-42-1-23-20 8-8 6-15-8-24-11-7-18-19-16-28 3-11-6-20-24-27-25-9-29-8-30 8-1 10 3 18 9 18 5 0 7 7 4 16-4 12-1 14 14 9s20-2 20 12c0 15 2 16 10 3s10-13 10 2c0 9-12 23-27 30-16 7-28 20-28 27 0 8-15 19-34 23l-34 9 38 34c23 22 35 40 31 50-3 9 0 15 10 15s14 6 10 15c-3 10-1 15 7 14 6-1 20 1 30 4 9 4 24 9 33 12 8 3 12 10 9 16-4 6-13 8-20 5-7-2-15 4-18 16-4 15-3 18 5 10 6-6 16-8 23-5zm-107-18c-7-5-9-9-4-9s3-6-4-14c-14-18-57-3-57 20 0 10 4 11 14 3 10-9 13-8 13 3s7 14 26 10c19-3 22-7 12-13zm165-9c-3-11-9-20-14-20-11 0-11 3-3 24 9 23 23 20 17-4zm66-137c-10-11-14-11-20-1-10 17-2 28 17 21 11-4 12-8 3-20zm-4539-12c13-26 13-31-5-31-9 0-12 6-8 16 3 9 0 20-8 25-9 6-10 9-2 9 7 0 17-9 23-19zm4483-167c31 5 34-1 10-20-15-10-21-10-35 3-10 9-18 21-18 27s4 6 9-2c4-8 19-11 34-8zm-82-34c16 0 10-15-12-28-25-16-79-24-79-12 0 14 54 50 68 45 8-3 18-5 23-5zm-4335-239c-3-4 0-13 5-21 7-12 10-11 15 8 4 13 11 21 17 19 20-6 18-25-2-32-23-7-27-20-11-30 17-11-9-35-37-35-22 0-24 2-13 15 9 11 16 12 25 5 22-18 26 6 5 25-11 10-17 21-15 25 3 4-2 11-11 14-8 3-13 10-9 15 3 6 12 8 20 5 8-4 13-9 11-13zm4257-25c4-10 0-14-12-13-10 0-18 7-18 14 0 18 23 17 30-1zm-4359-167c-8-14-24-10-24 6 0 9 6 12 15 9 8-4 12-10 9-15zm4607-76c3 1 1-2-3-8-5-5-15-2-26 9-16 18-16 18 4 8 12-6 23-10 25-9zm-4530-30c0-5 2-16 4-25 3-14 0-15-16-5-23 14-25 37-4 37 8 0 15-3 16-7zm54-103c3-5 1-10-4-10-7 0-9-14-6-35l4-35-25 27c-25 27-25 27-4 38 11 6 17 14 14 18-4 4-2 7 4 7s14-4 17-10zm52-25c0-8-4-12-9-9-5 4-4-3 3-14 11-17 10-25-6-49-15-23-15-25-2-15 9 8 22 12 29 9 9-4 8-6-3-6-9-1-24-10-34-21-22-24-38-25-55-5-11 13-9 20 9 39 12 13 19 30 15 39-5 13 10 26 52 47 0 0 1-7 1-15zm-139-34c3-8-1-12-9-9-7 2-15 10-17 17-3 8 1 12 9 9 7-2 15-10 17-17zm40-34c-13-5-26-3-32 4-8 9-7 10 2 4 10-5 13-1 12 11-4 36 1 39 20 14s19-25-2-33zm10-249c-2-7-10-18-18-25-13-11-13-14 0-22 8-6 11-13 7-17s-10-4-13-1c-10 10-13 58-4 52 4-3 10 2 14 10 7 18 17 20 14 3zm69-56c-18-4-17-5 2-18 12-9 26-12 31-9 15 9 12-1-4-14-11-10-19-7-35 10-21 23-26 20-33-25-2-11-9-21-15-23-10-4-10 1 0 24 23 51 40 71 56 65 14-5 13-7-2-10zm242-140c7-14 6-18-9-19-16-1-19 8-11 35 2 7 11 0 20-16zm4078-140c-3 9-1 15 6 14s12-6 13-11c0-10-21-36-27-32-3 1 1-3 8-9 17-15 16-25-2-18-10 4-20-6-32-30-21-45-41-43-67 7-17 36-18 40-2 55 10 10 16 12 16 4 0-6 14-18 30-27 17-9 30-11 30-6 0 13-35 32-44 24-3-3-6 3-6 15 0 26 38 34 64 12 18-14 19-14 13 2zm-4258-48c4 3 8-1 8-9s-2-13-5-11c-2 3-15 1-28-4-18-7-22-6-17 5 3 8 9 12 14 9s9 3 10 13c0 11 3 13 6 5 2-6 8-10 12-8zm4056-324c3-5 1-10-5-10-7 0-9-7-6-17 4-9 1-20-6-25-23-14-26-9-15 27 10 35 21 43 32 25zm55-30c0-5 12-10 28-11 24 0 25-1 7-9-31-13-39-12-53 10-10 17-10 20 3 20 8 0 15-4 15-10zm90-101c0-4-7-9-15-13-8-3-15 0-15 7 0 8-3 8-9-2-7-10-13-11-27-2-16 9-16 10-3 11 9 0 19 7 23 15 5 13 9 13 26 3 11-7 20-16 20-19zm92-6c-23-4-23-5-7-30 10-14 12-22 6-19-6 4-11 2-11-3 0-12-22-10-31 2-4 5-1 20 5 33 8 17 19 23 36 23 24-2 24-2 2-6zm-133-54c-5-11-8-28-5-37 4-13 0-18-14-18-11 0-20 7-20 14 0 9-7 12-20 9-11-3-20-2-21 1 0 4-2 15-4 25-2 9 1 15 6 11 5-3 6-11 3-17-4-7 6 0 21 14 32 32 71 30 54-2zm-4289-32c-10-9-11-9-6 0 3 6 2 14-4 18-5 3-10 11-10 16 0 6 7 3 16-6 14-13 14-19 4-28zm4347 32c6-6 9-18 6-26-4-11-8-10-19 4-22 30-12 47 13 22zm63-44c-7-8-16-12-21-9-16 9-10 20 12 21 17 2 18-1 9-12zm-48-41c-3-26-7-33-13-22-9 15-1 58 10 58 4 0 5-16 3-36zm-4343-17c11-14 5-27-12-27-5 0-6 7-3 16 5 12 2 15-9 10-9-3-13-2-10 4 8 14 20 12 34-3zm4181-37c-7-4-9-13-6-19 4-6 12-8 18-5 7 4 8 2 4-5-4-6-12-9-17-5-6 3-13-3-16-15s-9-21-14-21c-4 0-1 20 8 45 8 25 19 42 25 39 6-4 6-9-2-14zm55-110c20 8 24 5 30-17 4-18 1-29-12-39-25-19-51-17-55 4-5 21 4 71 9 55 3-8 12-9 28-3zm-4179-46c-3-7 0-15 7-18 7-2 5-5-5-5-11-1-15-7-11-21 3-11 0-27-7-35-10-12-10-18-1-29s9-19 0-34c-11-18-14-18-31-3-10 8-18 23-18 31 0 9-5 21-10 26-7 7-1 9 21 6 24-4 30-2 24 8-5 8-4 11 2 7 7-4 10 9 8 36-1 32 2 44 12 44 8 0 12-6 9-13zm4025-59c-2-17-34-11-37 7-1 13 3 15 18 9 11-4 19-11 19-16zm-3961-101c0-16-2-16-24-8-13 5-14 9-5 20 13 16 29 9 29-12zm4038-34c-2-6-8-6-18 0-13 9-13 11 0 20 15 10 25 0 18-20zm-4038-10c0-5 10-10 22-10 15 0 19-3 12-10-6-6-18-8-27-5-18 7-31 35-17 35 6 0 10-4 10-10zm185-52c1-19-4-23-25-22-20 1-25 6-26 27-1 14 3 24 7 21 5-3 9 0 9 6 0 23 35-9 35-32zm-220 3c-3-2 2-13 12-23 15-17 15-19-3-39-10-11-26-25-36-30-14-8-16-4-14 26 2 20-1 38-5 41-13 8 11 30 32 30 10 0 16-2 14-5zm4185-75c-10-26 5-57 24-50 7 3 29-4 49-15 24-13 37-16 40-8 2 8 5 8 11-1 4-7-3-14-19-18-14-3-32-16-40-27s-17-18-21-14c-3 3 1 13 10 22s13 22 9 28c-4 7-9 4-14-9-5-14-8-15-9-4-2 8-2 20 0 25 1 6-4 4-11-2-8-8-17-9-24-3-16 13-57 0-51-16 3-8 0-11-10-7-19 7-18 15 6 36 11 9 20 12 20 7s7-7 15-4c8 4 12 11 9 16-4 5-7 25-9 43-1 23 2 32 11 28 9-3 10-12 4-27zm67 12c-8-13-13-14-19-5-12 18-10 23 11 23 15 0 17-3 8-18zm-327-8c12-7 12-10 1-10-7 0-11-6-7-15 4-12 2-13-13-3-11 6-17 18-14 25 6 15 13 16 33 3zm276-113c8 3 15-1 15-8 1-8 3-24 4-36 1-13-2-23-6-23-5 0-9-5-9-11 0-5 5-7 12-3 13 8 3-12-20-39-17-20-9-35 10-19 10 8 20 4 38-15l24-25-31-29c-20-17-40-26-53-24-12 2-20-1-20-10s8-12 20-10 18 0 14-6c-3-6-9-8-12-5s-11 1-17-4c-9-8-14-6-19 5-8 21 9 61 30 73 16 9 16 12 0 47-10 20-15 39-12 42 3 4 6 1 6-5s7-9 16-5c10 3 12 8 5 12-6 4-12 16-14 28-1 12-9 29-17 40-14 16-13 17 2 5 20-16 34 1 13 18-8 7-11 18-7 28 6 14 7 13 10-5 2-14 8-20 18-16zm-4308-13c10-20 9-22-17-26-21-3-28-1-24 9 3 7 9 13 14 13s9 8 9 17c0 19 3 17 18-13zm67-82c-3-26-2-41 1-34 8 16 25 16 18-1-3-8 2-20 11-27 22-18 18-30-9-28-14 1-22 6-20 10 3 4 1 16-4 25-17 33-24 75-11 67 8-5 10 1 7 19-3 15-1 24 4 21s6-27 3-52zm3859-8c-1-22 4-43 10-47 6-5 2-6-10-2-15 4-24 0-28-11-8-21 2-37 20-30 8 3 14-1 14-9 0-10-11-15-34-15-28 0-35 4-40 26-4 15-10 24-13 21-7-7-33 18-33 31s39 22 46 11c9-15 44-10 44 6 0 8-7 15-15 15s-15 5-15 11c0 5-5 7-12 3-7-5-8-2-3 7 19 33 27 38 48 30 18-7 22-16 21-47zm332 11c-1-19 1-35 4-35 4 0 11-10 17-23 8-16 7-25-3-35-8-7-14-9-14-5 0 5-9 9-20 10-19 2-19 0-5-28 9-17 11-29 5-29s-5-8 2-21c11-17 10-22-5-30-9-6-15-14-13-18 3-4-5-8-16-8-18-2-19 0-5 15 20 22 31 75 14 69-7-2-12-16-11-30s-5-28-12-31c-8-3-13 0-11 7 1 7-5 11-14 9-9-1-23 6-30 15-13 16-12 17 4 4 15-12 17-11 17 8 0 12 6 21 15 21 8 0 15 6 16 13 0 9 2 9 5 0 3-7 12-9 20-6 7 3 11 9 8 14-13 22-23 69-12 63 16-10 28 18 15 36-11 13-10 13 6 1 10-8 17-9 17-3s-4 14-10 17c-6 4-5 11 3 20 17 19 17 19 13-20zm-4231-6c1-13-4-19-14-17-18 4-22 29-7 40 13 9 19 2 21-23zm3949 12c3-5-1-12-10-15-22-9-24-8-24 9 0 16 25 21 34 6zm-3188-64c-5-36-36-45-36-11 0 9 5 12 12 8 7-5 9-2 5 9s-2 14 8 11c7-3 12-11 11-17zm-241-41c0-13-3-22-7-19-5 2-8-6-8-18 0-17 3-20 11-12 7 7 24 8 47 2 27-6 41-4 52 6 14 12 16 12 16-3 0-9 4-27 8-40 5-15 4-22-4-20-7 2-20-13-31-32-18-33-19-33-21-10 0 14-2 31-2 38-2 19-26 31-53 26-16-3-23 0-23 11 0 9-6 18-13 21-16 6-19 34-4 34 6 0 7 3 4 7-4 3 1 12 11 19 9 7 17 14 17 14zm3450 4c-4-6-12-8-18-4-7 3 3-6 21-21 17-14 32-34 32-43 0-15-2-15-11-2s-10 13-6 0c3-10 15-14 35-14 30 2 31 1 15-22-8-13-20-21-27-17-28 16-46 38-47 57 0 15-2 17-6 6-3-8-12-19-20-23-7-5-10-14-7-20 4-7 4-9-1-5-4 4-16 3-26-3-15-7-17-6-13 6 4 8 10 15 15 15s9 7 9 15 6 15 14 15c9 0 12 7 9 20-7 27 3 50 22 50 9 0 13-5 10-10zm-624-70c10 0 21-4 24-10 9-15-4-30-20-24-8 4-13 10-10 14s-4 10-15 13-19 2-18-2c0-3 0-14-1-25-1-15-4-16-15-6-15 12-11 40 8 52 6 4 15 3 20-2 6-6 18-10 27-10zm-3255-16c-3-23-13-26-18-6-3 11 0 19 7 19s12-6 11-13zm914 3c0 6 9 9 21 6 11-3 16-9 11-12s-12-13-15-21c-4-12-6-11-6 3-1 9-6 16-12 15-6-2-14 4-16 12-4 13-3 13 6 0 6-9 11-10 11-3zm-220-17c8-15 8-20-1-20-6 0-9-6-6-14 4-9 0-13-11-11-9 2-21 4-26 4-5 1-3 7 3 15s11 18 10 22c-5 30 16 32 31 4zm68-10c4 0 7-10 7-23 0-15-6-23-17-23-12 0-14 4-7 12 6 8 3 13-12 17-12 3-18 10-14 17 4 6 14 9 22 6s18-6 21-6zm562-20c0-6-7-10-16-10s-12-5-8-11c5-8 2-9-11-1-23 13-30 43-7 35 11-5 13-3 7 6-6 10-3 11 14 2 11-7 21-16 21-21zm206-5c-13-31-13-36 2-51s14-16-6-10c-18 6-21 4-15-11s4-16-9-6c-8 7-18 10-22 6s-4 0 0 10c3 9 11 17 18 18 6 0 3 3-6 7-15 6-15 9-2 26 14 20 14 20 14 0 1-13 5-9 15 14 8 17 17 32 20 32s-1-16-9-35zm1998 9c3-8 10-13 15-10s11 0 14-7c3-9-5-12-29-9-25 3-34 9-34 23 0 23 25 25 34 3zm-264-48c22-27-5-17-31 10-21 24-22 26-3 16 11-6 26-18 34-26zm-4-48c-14-24-34-30-55-18-10 5-21 6-25 3-3-3-6-1-6 5 0 7 9 12 19 12 11 0 22 3 24 8 3 4 16 7 30 7 20 0 22-3 13-17zm-1121 2c-3-5-21-10-38-9-27 0-29 2-12 9 28 12 57 12 50 0zm700-10c-7-12 32-19 43-8 6 6 16 8 23 6s-4-14-24-25c-38-23-49-19-59 24-4 15-2 20 8 16 8-3 12-9 9-13zm-545-5c0-8-6-15-13-15-8 0-14 7-14 15s6 15 14 15c7 0 13-7 13-15zm-1510-49c0-5-7-3-15 4s-12 17-9 22c7 10 24-9 24-26zm1934-8c6-4 7-8 1-8-5 1-19 7-30 16-17 13-18 16-5 24 11 7 16 5 19-8 2-9 8-20 15-24zm-894 12c0-5-9-14-20-20-16-8-20-8-18 2 5 23 38 39 38 18zm606-33c1-7-6-14-16-14-12-1-17 4-15 15 2 9 4 21 4 27 1 12 24-11 27-28z"/>
  <path d="m4706 3742c-5-8-1-21 10-33 10-11 19-25 20-32s7-23 13-37l11-25-5 27c-3 15-1 30 5 33 16 10 12 25-5 19-9-4-19 5-28 27-9 23-16 29-21 21z"/>
  <path id="bd" d="m1002 585c4-4 0-14-10-21-9-7-14-15-11-18s14 2 23 13c14 15 15 21 4 27-7 4-10 4-6-1z"/>
  <path id="be" d="m2686 4921c-12-19 6-41 30-37 14 3 22 1 20-3-3-4 1-16 8-26 13-18 14-18 25 2 19 37 4 56-41 50-31-4-38-2-34 9 6 16 0 19-8 5z"/>
  <path id="bf" d="m4308 4912c-14-9-23-23-21-29 5-14 52-18 54-5 0 4 2 15 4 24 5 26-8 29-37 10z"/>
  <path id="bg" d="m1002 4890c-10-17-10-20 5-20 9 0 13 3 10 7-4 3-2 12 4 20 6 7 7 13 3 13-5 0-15-9-22-20z"/>
  <path id="bh" d="m2874 4902c2-4 1-14-5-22-7-12-9-12-9 3 0 10-4 16-9 13-4-3-6-18-4-33 3-19 2-24-5-15-7 10-11 10-22-3-7-8-16-15-21-15-11 0-7 23 6 32 6 5 5 8-3 8-17 0-27-29-14-42 8-8 15-8 25 1 8 6 21 9 30 5 10-3 18 2 22 15 3 12 13 27 20 35 13 12 12 15-1 20-8 3-13 2-10-2z"/>
  <path id="bi" d="m2496 4865c9-14 19-24 21-21 6 6-20 46-30 46-4 0 0-11 9-25z"/>
  <path id="bj" d="m2662 4874c-11-12-10-14 3-14 15 0 15-1 1-16-19-19-21-38-3-31 6 2 11 10 9 16-1 7 2 10 8 6 16-10 24 25 9 40-12 11-16 11-27-1z"/>
  <path d="m4517 4869c6-6 9-17 6-24-4-13 33-32 43-22 6 5-43 57-53 57-4 0-2-5 4-11z"/>
  <path d="m1472 4848c-8-8-8-15-1-24 5-7 11-30 12-52 1-30 4-37 12-27 13 18 51 24 48 8-2-7-1-13 2-13 10 0 43 39 38 44-3 3-12-2-20-12-14-16-14-16-9 0 7 22-10 33-18 12-3-8-10-13-15-10-11 7-3 44 12 53 6 3 7 1 3-5-5-8-2-10 8-6 34 13 14 25-31 19-34-5-44-3-33 4 8 5 12 12 9 15s-11 0-17-6z"/>
  <path id="bk" d="m3711 4846c-10-11-9-24 2-58 8-24 19-43 23-42 35 3 77 19 81 30 3 8 16 14 29 14 17 0 24 6 24 19 0 26-13 33-42 22-17-7-18-10-5-10 9-1 17-5 17-10 0-13-28-22-35-11-4 6-17 10-31 10s-23 4-20 8c3 5-2 9-10 9-10 0-11-4-4-11 14-14 13-26-4-26-19 0-28 28-16 51 13 22 7 25-9 5z"/>
  <path id="bl" d="m4210 4834c0-8-6-11-16-7-11 4-15 2-13-6 3-7 7-11 11-9 3 2 16-6 29-17 21-19 22-19 16-1-4 10-2 25 4 32 6 8 10 14 8 15-32 6-39 5-39-7z"/>
  <path d="m4610 4814c0-8-4-13-8-10-5 3-9-1-9-9s3-13 5-10c3 3 12 0 19-7 11-9 17-9 24 3 6 9 4 18-6 25-8 6-12 14-8 17 3 4 1 7-5 7-7 0-12-7-12-16z"/>
  <path d="m1165 4796c-11-8-25-11-33-8-10 3-13-1-10-14 2-10 10-18 17-16 7 1 10-2 7-7-4-5-2-12 3-15 5-4 12 2 16 13 3 10 15 21 25 24 11 3 20 11 20 18 0 10-3 10-12 1-17-17-33-15-18 3 16 19 10 19-15 1z"/>
  <path id="bm" d="m1260 4786c0-9-4-16-9-16s-3-14 6-31c15-30 34-34 41-8 3 11 2 11-7-1-9-13-11-13-11 3 0 9-5 17-10 17-7 0-7 6 0 19s7 22 0 26c-5 3-10-1-10-9z"/>
  <path id="bn" d="m4246 4783c-5-12-9-13-21-3-8 7-15 11-16 9-11-55-8-59 25-34 17 13 21 12 32-3 15-21 28-11 20 16-9 26-33 35-40 15z"/>
  <path id="bo" d="m3983 4730c-2-46 12-62 21-25 5 20-7 65-17 65-1 0-3-18-4-40z"/>
  <path id="bp" d="m4656 4713c-15-15-23-29-17-31s9-7 6-12 3-7 12-6c12 2 20 15 24 39 3 21 5 37 4 37s-15-12-29-27z"/>
  <path id="bq" d="m369 4608c-5-17-6-39-2-34 3 3 12-2 20-12 8-9 12-11 8-4-6 12 11 16 45 13 13-2 13-1 0 8-8 6-23 11-33 11s-15 5-12 10c3 6-1 10-9 10-9 0-16-1-17-2z"/>
  <path id="br" d="m438 4498c-3-7-16-12-31-10-19 1-25-2-21-13 3-8 17-14 30-13 12 1 21 4 19 7-3 2 0 10 7 18 6 7 8 16 5 19-2 3-7-1-9-8z"/>
  <path id="bs" d="m4803 4463c-23-9-14-20 12-15 14 2 25 8 25 13 0 10-17 11-37 2z"/>
  <path id="bt" d="m303 4443c-7-3-13-9-13-15s7-8 15-4c8 3 27 1 42-5 26-10 26-9 10 9-17 19-31 22-54 15z"/>
  <path id="bu" d="m418 4433c-26-4-36-21-22-36 9-9 41 9 48 28 3 8 4 14 3 14-1-1-14-4-29-6z"/>
  <path id="bv" d="m4844 4417c0-10 5-15 13-12 7 3 20 8 28 11s15 1 15-5c0-10-14-15-32-12-5 0-8-3-8-9 0-14 13-12 36 4 15 12 16 17 7 27-20 20-59 18-59-4z"/>
  <path id="bw" d="m4824 4379c-4-7-3-9 3-6 6 4 13-2 16-13s13-20 22-20c16 0 16 2 3 22-18 27-34 33-44 17z"/>
  <path id="bx" d="m305 4350c3-6-1-10-10-10-15 0-15-2-1-15 17-18 40-20 30-3-5 8-3 8 7 2 8-5 24-9 36-9 23-1 23-1 3 20-19 21-77 34-65 15z"/>
  <path d="m4911 4293c1-16 18-48 19-38 1 6 3 18 5 28 2 9-3 17-11 17s-14-3-13-7z"/>
  <path id="by" d="m323 4266c0-8 6-12 13-9 9 3 12-2 9-18-3-13-1-19 4-13 19 19 16 49-5 52-13 2-21-3-21-12z"/>
  <path id="bz" d="m4880 4167c17-15 30-34 30-40 0-7 10-14 22-14 17-2 19 0 9 7-12 7-12 12-3 23 15 18 6 27-30 27-28 0-38 15-15 23 6 2 0 4-15 3l-28-1z"/>
  <path d="m4882 4073c-21-10-30-19-23-26 5-5 15-6 23-1 7 5 17 9 22 9s10 8 12 18c1 9 2 17 1 17s-17-8-35-17z"/>
  <path id="ca" d="m299 4016c8-20 6-27-14-40-22-15-24-15-20 4 2 11 0 20-6 20-5 0-8-13-7-28 1-16 7-28 13-28 14 1 70 56 56 56-6 0-11 6-11 14s-4 18-10 21c-7 4-7-2-1-19z"/>
  <path id="cb" d="m203 4002c-18-11-34-60-23-67 6-4 10 2 10 12 0 20 34 55 44 46 3-4 6-1 6 5 0 14-19 15-37 4z"/>
  <path d="m4890 3690c-7-30-7-39 1-51 13-21 23 16 10 38-6 10-11 16-11 13z"/>
  <path d="m4928 3633c-24-6-23-23 2-23h28c11 0 9 23-3 25-5 2-18 1-27-2z"/>
  <path id="cc" d="m4864 3588c-3-5-1-15 5-21s11-7 11-3c0 5 6 3 14-3 10-9 13-7 12 10-1 23-31 35-42 17z"/>
  <path id="cd" d="m4877 3527c4-18 3-19-6-7-7 10-11 11-11 3 0-7 10-17 21-24 15-8 19-8 15 0-4 6-3 11 3 11 14 0 3 27-14 33-9 4-11-1-8-16z"/>
  <path id="ce" d="m263 3308c2-7-3-19-12-26-14-11-14-11 2-6 12 5 16 2 12-9-5-11 0-13 19-10 27 6 33 17 16 28-6 4-7 11-4 17 4 7 2 8-4 4-7-4-12-2-12 3 0 6-5 11-11 11s-9-6-6-12z"/>
  <path d="m280 3199c0-11 4-17 10-14 6 4 7-1 3-11-5-14-3-15 17-4 18 10 20 14 9 21-8 5-9 9-4 9 11 0-16 20-27 20-5 0-8-9-8-21z"/>
  <path id="cf" d="m4913 3063c-16-6-17-29-1-39 7-5 8-3 4 5-5 7 0 18 10 26 19 14 11 18-13 8z"/>
  <path id="cg" d="m4845 2789c-4-6-4-13-1-16 3-4-1-16-9-29-12-19-12-24 0-34 8-7 13-16 10-20-3-5 0-12 5-15 8-5 9 6 5 34-5 37-4 41 15 41 11 0 20 4 20 9s-8 8-17 7c-11 0-17 6-17 17 2 19-2 22-11 6z"/>
  <path id="ch" d="m4866 2674c-7-18 0-34 16-34 5 0 8 7 5 14-4 10-1 13 7 10s17 0 22 7c4 8 3 10-4 5-7-4-12-2-12 3 0 17-27 13-34-5z"/>
  <path d="m4890 2297c0-7 9-18 20-25 22-14 25-9 10 19-12 21-30 26-30 6z"/>
  <path id="ci" d="m293 2253c-10-4-9-11 2-33 10-20 20-27 31-23 13 5 13 8 1 22-8 9-16 21-18 27s-10 9-16 7z"/>
  <path id="cj" d="m4836 2013c-22-11-25-17-15-24 11-6 10-9-4-14-10-4-16-16-15-30 2-22 28-25 28-2 0 5 9 2 20-8s17-23 14-29 4 0 15 13c12 12 18 27 15 32s0 9 6 9 8 5 4 12c-5 8-2 9 12 4 16-6 16-4-4 17-12 13-20 26-18 28 12 12-32 6-58-8zm27-40c-4-10-2-14 4-10 7 5 9-1 5-15l-5-22-9 23c-4 13-6 27-2 32 9 15 14 10 7-8z"/>
  <path d="m280 1979c-14-4-19-7-12-8s11-5 8-10c-4-5 3-7 14-4 23 6 34 19 23 26-5 2-19 1-33-4z"/>
  <path id="ck" d="m253 1924c1-20-2-28-11-26-8 1-11-2-7-8 3-6 11-8 16-4 5 3 16 1 23-5 9-8 13-7 13 4 0 8-4 15-9 15s-7 3-4 8c2 4-2 16-9 26-13 17-14 16-12-10z"/>
  <path id="cl" d="m320 1863c0-14 19-38 25-32 8 8-5 39-16 39-5 0-9-3-9-7z"/>
  <path id="cm" d="m207 1663c-12-11-7-19 13-20 11-1 20 4 20 13 0 14-21 19-33 7z"/>
  <path id="cn" d="m267 1482c1-8-4-21-13-29-13-13-13-17-2-24 9-6 16-1 21 16 5 14 13 23 18 19 5-3 9 0 9 5 0 6-6 11-14 11s-16 3-19 8c-2 4-2 1 0-6z"/>
  <path id="co" d="m4820 1450c0-5-7-10-15-10s-15-3-15-6c0-6 29-37 31-32 4 12 7 58 3 58-2 0-4-4-4-10z"/>
  <path id="cp" d="m335 1429c-4-5 1-19 11-30 17-19 17-20-3-25-13-4-20-11-16-20 3-8-2-16-10-20-10-3-13-12-9-22 5-15 4-16-14-2s-18 14-4-4c13-16 12-20-3-31-9-7-17-20-17-29 0-11-4-15-12-10-9 5-9 2 1-9 17-21 18-21 32 4 8 15 8 19 0 15-6-4-11-2-11 3 0 6 6 11 13 11 22 0 45 35 35 53-7 13-5 15 7 11 11-4 15 0 15 16 0 11 4 19 8 16 5-3 19 2 31 10 21 15 21 17 5 35-11 13-24 17-37 13-16-5-19-3-14 10 7 18 2 22-8 5z"/>
  <path d="m198 1383c6-2 10-9 7-13-3-5-1-11 5-15 5-3 10 3 10 14 0 14-6 21-17 20-11 0-13-3-5-6z"/>
  <path id="cq" d="m200 1270c-8-5-18-6-22-4-4 3-8 0-8-5 0-12 16-13 44-2 11 4 15 10 10 14-6 3-16 2-24-3z"/>
  <path id="cr" d="m4833 1214c-2-7-15-15-29-18-13-4-24-13-24-21 0-18 16-20 23-2 4 9 8 9 15-2 8-11 11-9 17 10 5 13 15 29 23 35 13 9 12 11-3 11-9 0-19-6-22-13z"/>
  <path id="cs" d="m233 978c0-7-3-23-7-35-4-13-3-23 2-23 18 0 34 29 27 50-7 22-22 27-22 8z"/>
  <path id="ct" d="m279 910c0-8-2-25-3-36-3-23 16-26 36-6 10 10 7 17-10 34-16 17-22 19-23 8z"/>
  <path id="cu" d="m4871 906c-16-19-11-29 8-17 7 5 12 14 9 21-3 9-8 7-17-4z"/>
  <path id="cv" d="m4765 590c-3-5-4-14-1-19s-1-11-9-15c-8-3-15-12-15-21 0-17 25-21 35-5 4 6 10 8 14 6 4-3 13-1 20 4 18 11 5 30-21 30-14 0-18 5-14 15 6 17 0 20-9 5z"/>
  <path id="cw" d="m497 433c-4-3-7-18-6-32l1-26 7 24c4 14 13 27 20 29 8 3 11 0 7-7-4-6-2-11 3-11 6 0 11 7 11 15 0 15-31 21-43 8z"/>
  <path id="cx" d="m380 384c0-9-5-12-12-8-8 4-10 3-5-2s14-9 20-9c7 0 12-6 12-12 0-7 4-13 10-13 8 0 10 14 6 50-2 17-31 11-31-6z"/>
  <path d="m714 385c-16-13-16-14-1-9 11 4 17 1 17-9 0-9 4-19 10-22 5-3 7 0 4 8s0 18 5 22c12 7 6 25-8 25-4 0-16-7-27-15z"/>
  <path id="cy" d="m956 354c-3-9 2-14 14-14 26 0 34 17 11 23-12 3-22-1-25-9z"/>
  <path id="cz" d="m1705 222c-21-15-15-37 10-37 22 0 23 2 9 12-9 6-13 16-9 22 7 13 4 14-10 3z"/>
  <path d="m2138 183c-34-9-12-33 29-33 12 0 13 3 4 13-6 8-8 17-4 20 7 7-2 7-29 0z"/>
  <path id="da" d="m3715 152c-9-25-5-28 29-24 48 6 55 29 11 34-23 3-36-1-40-10z"/>
 </g>
</svg>
