<svg id="a" class="img-fluid" width="402.75" height="102" version="1.1" viewBox="0 0 4027.5 1020" xmlns="http://www.w3.org/2000/svg">
 <g transform="translate(-215,-400)" fill="#3e0d1f">
  <path id="e" d="m290 1385v-35h3900v70h-3900z"/>
  <path d="m702 1123c-12-43-27-100-34-127-8-32-22-56-40-69-23-17-25-22-12-34 18-18 17-34-4-103-12-37-25-58-40-65-16-7-22-18-22-42v-33h250v35c0 29-4 35-21 35-15 0-19 5-15 18 3 9 15 52 27 95 13 46 25 73 29 65 4-7 20-66 36-131l28-117h111l35 120c18 66 37 120 40 120 7 0 40-127 40-154 0-9-8-16-20-16-16 0-20-7-20-35v-35h210v34c0 25-5 35-19 39-34 8-67 156-40 173 7 4 2 14-14 28-18 16-30 44-46 111-12 50-27 107-32 128l-10 38-67-3-66-3-30-102c-16-57-32-103-36-103-3 0-18 47-34 105l-29 105h-135z"/>
  <path id="f" d="m1250 1165c0-28 4-35 20-35 20 0 27-16 51-127 11-47 10-56-4-71-16-15-15-18 9-37 17-14 31-42 44-89 21-74 19-86-11-86-15 0-19-7-19-35v-35h360v35c0 27-4 35-18 35-29 0-30 6-15 78 11 51 22 73 44 93 26 23 28 28 14 39-17 14-19 58-6 110 5 19 12 47 15 61 3 15 15 29 26 32 15 4 20 13 20 36v31h-240v-31c0-23 5-32 21-36 15-4 19-12 17-32-3-25-6-26-75-29-71-3-73-2-79 24-5 19-2 29 10 36 9 5 16 22 16 38v30h-200zm290-225c0-20-33-160-37-156-5 4-43 145-43 159 0 4 18 7 40 7s40-4 40-10z"/>
  <path id="g" d="m1810 1169c0-22 5-32 20-36 18-5 20-14 20-96 0-70-4-95-17-109-15-17-15-19 0-36 13-14 17-38 17-95 0-70-2-77-20-77-16 0-20-7-20-35v-35h231l45 98c24 53 55 120 68 147l25 50v-112c1-107 0-113-19-113-16 0-20-7-20-35v-35h210v35c0 28-4 35-20 35-18 0-20 7-20 75 0 62 4 79 20 95l20 20-20 20c-18 18-20 33-20 145v125h-196l-58-132c-33-73-63-137-68-143-4-5-8 39-8 98 0 100 1 107 20 107 16 0 20 7 20 35v35h-210z"/>
  <path id="h" d="m2502 1168c2-25 9-34 28-38 24-6 25-10 28-85 2-67 0-83-18-107l-21-29 20-26c17-20 21-40 21-95v-69l-27 3c-26 3-28 7-33 58l-5 55-52 3-53 3v-191h490v190h-97l-9-57c-8-53-11-58-36-61l-28-3v71c0 61 3 74 23 94l23 23-23 21c-22 20-24 28-21 109 3 84 4 87 28 93 19 4 26 13 28 38l3 32h-272z"/>
  <path id="i" d="m2912 1168c2-25 9-34 28-38 24-6 25-10 28-88 3-76 1-84-22-106-24-25-24-25-3-39 15-10 21-27 25-70 6-79-2-107-33-107-22 0-25-4-25-35v-35h410v190h-110v-47c0-63-9-75-51-71l-34 3-3 68-3 67h101v120h-101l3 78 3 77 34-2c42-2 51-15 51-75v-48h110v190h-411z"/>
  <path d="m3360 1171c0-24 4-31 19-31 25 0 31-19 31-105 0-63-3-78-23-101l-23-27 23-23c21-21 24-32 21-92-3-61-5-67-25-70-19-3-23-10-23-39v-35l178 4c159 3 182 5 223 26 54 26 84 74 94 150 5 36 13 57 26 65 18 11 18 12 0 32-11 12-23 50-30 95-14 90-31 117-97 150-45 23-62 25-221 28l-173 4zm274-42c32-15 46-56 46-135 0-55-3-65-22-75l-21-11 23-18c20-15 22-23 18-80-4-51-9-67-28-82-13-10-33-18-44-16-19 3-21 11-24 88-2 68 0 87 13 96 14 10 14 12 0 18-12 4-15 25-15 109 0 124 3 129 54 106z"/>
  <path id="j" d="m250 1036c9.5693-27.062 26.738-67.273 32.384-96.78-21.733-21.009-40.379-41.157-67.384-59.22 31.668-6.1265 59.871-12.299 90.644-18.625l36.356-76.375 35.868 77.051c18.917 3.0622 78.488 13.471 102.13 17.949-24.911 20.184-60.437 39.263-83 58 8.7205 32.595 18.461 59.773 30.053 96.994-28.443-20.522-62.468-41.725-88.053-56.994-27.541 18.733-45.555 30.959-89 58zm3762.5-1.0281c9.5693-27.062 26.738-67.273 32.384-96.78-21.733-21.009-40.379-41.157-67.384-59.22 31.668-6.1265 59.871-12.299 90.644-18.625l36.356-76.375 35.868 77.051c18.917 3.0623 78.488 13.471 102.13 17.949-24.911 20.184-60.437 39.263-83 58 8.7205 32.595 18.46 59.773 30.053 96.994-28.443-20.522-62.468-41.725-88.053-56.994-27.541 18.733-45.555 30.959-89 58z"/>
  <path id="k" d="m280 435v-35h3920v70h-3920z"/>
 </g>
</svg>
