<svg id="a" class="img-fluid" width="257.1" height="207.14" version="1.1" viewBox="0 0 2571 2071.4" xmlns="http://www.w3.org/2000/svg">
 <g id="b" transform="translate(-1280 -1680)" fill="#3f0d1f">
  <path id="c" d="m1710 3660c0-104 17-149 93-242l43-53-26-36c-22-31-34-59-56-137-3-9-35 15-85 62-103 97-198 154-297 177-109 27-103 29-100-47l3-67 43-12c47-14 171-85 192-109 16-20 0-21-26-1-10 8-34 15-51 15-30 0-33-3-33-30 0-22 16-51 58-103 105-133 188-261 229-356l41-94-51-47c-29-26-56-48-60-49-5-1-33 56-61 127-79 195-229 442-268 442-16 0-18-11-18-84 0-82 1-85 50-172 27-49 50-93 50-97 0-8-5-16-68-109l-32-46v-372h62l-31-39c-30-37-31-43-31-135 0-88 2-96 19-96 13 0 53 41 116 120 99 123 331 369 392 416 34 25 33 24-21-60-123-190-246-439-305-614-45-134-45-132 37-132h67l33 93c18 50 41 110 52 132l19 40v-132l1-133h54c57 0 66 7 66 57 0 28 49 104 95 146 86 81 343 228 470 269 100 33 280 33 380 0 131-42 385-188 472-272 50-47 93-116 93-147 0-46 11-54 71-51l54 3-4 130c-2 72 0 127 3 124 4-4 28-62 54-130l48-124 67-3c81-4 81-5 36 130-59 175-186 432-306 617l-55 84 49-41c99-84 298-297 406-435 44-57 75-87 87-87 19 0 20 7 20 96 0 92-1 98-31 135l-31 39h62v372l-32 46c-63 93-68 101-68 109 0 4 23 48 50 97 49 87 50 90 50 172 0 73-2 84-17 84-48 0-233-321-302-523-9-27-19-49-22-50s-31 21-61 49l-56 50 40 95c40 94 121 218 230 356 42 52 58 81 58 103 0 27-3 30-31 30-32 0-58-15-149-88-50-40-48-38 15 23 77 73 180 140 247 160l43 12 3 62 3 61h-38c-106 0-236-67-364-188-49-46-80-69-83-60-22 78-34 106-56 137l-26 36 43 53c76 93 93 138 93 242v90h-170c-157 0-170-1-170-18 0-12 15-25 40-36 22-9 65-40 95-68 62-57 62-56-7-132l-43-47-35 18c-38 19-47 35-111 186l-42 97h-78c-52 0-79-4-79-11 0-12 83-191 138-299 16-30 42-63 58-73 126-78 152-98 176-133 36-52 76-198 86-311 6-74 5-90-5-81-7 6-13 25-13 42 0 18-10 52-22 76-34 67-86 92-204 98l-94 5v-42c0-48-8-51-40-16-13 14-28 25-34 25-5 0-41 21-79 48-85 58-80 55-147 81-77 29-96 27-193-21l-84-43 5 43c5 42 4 42-27 42-29 0-32 3-29 27s9 29 47 35c48 8 66 24 125 113 19 28 45 60 58 72l24 23 31-33c17-17 35-41 41-53s28-41 48-65c28-34 46-46 83-54 37-9 47-16 49-34 2-13-1-34-8-46-6-12-10-35-8-51 3-27 6-29 48-29h44l18 55c21 70 23 158 3 187-10 14-35 26-68 33-41 10-57 19-73 43l-20 30 48 49c41 42 48 55 48 89v39h-47c-30 0-64-8-89-22l-41-21-31 21c-41 30-113 30-154 0l-30-21-54 27c-34 17-65 26-86 24-31-3-33-6-36-43-2-35 2-46 43-90l47-50-17-31c-14-26-26-33-71-43-34-8-59-20-69-34-20-29-18-129 4-192l18-50h57c57 0 57 0 35-18-21-17-37-18-164-12-140 7-140 7-195-22-43-22-60-38-77-73-13-24-23-61-23-82 0-31-15-59-24-47-4 6 20 223 26 239 4 8 14 40 24 70 29 93 79 151 169 198 62 32 100 79 145 182 23 52 55 119 71 147 44 80 42 83-50 83h-78l-40-92c-22-51-46-107-53-125-6-18-27-44-46-58-32-24-35-25-58-10-14 9-42 37-62 62l-38 46 57 52c31 29 75 60 97 70 26 12 40 25 40 37 0 17-11 18-170 18h-170zm-70-577c0-8-9 0-50 45l-45 47 48-45c26-24 47-45 47-47zm1065-144c122-96 345-338 444-483 31-44 31-47 10-36-72 38-159 94-179 115-13 14-34 25-47 25s-42 8-66 19c-77 33-154 51-250 58-195 12-372-44-596-192-44-29-77-47-74-41 106 174 403 493 549 588l69 45 40-26c22-14 67-46 100-72zm-1245-397c-6-2-25-16-42-30l-31-26 34 51c31 47 35 50 42 30 5-14 4-23-3-25zm2275-42c5-8-9 0-32 18-30 24-40 37-36 52 5 17 9 15 32-18 15-20 31-44 36-52zm-1094-5c194-41 320-98 452-205 115-93 227-237 227-292 0-16-11-9-57 32-70 62-197 141-312 193-267 122-549 114-821-23-95-47-229-136-277-183-38-36-43-39-43-20 0 46 99 184 181 254 170 143 288 201 509 247 63 14 61 14 141-3z"/>
  <path d="m2450 3695c0-44 36-65 115-65s115 21 115 65v35h-230z"/>
 </g>
 <g id="d" transform="translate(-1280 -1680)" fill="#42222e">
  <path id="e" d="m2007 3739c-12-7-16-17-12-30 4-10 2-19-3-19s-13-21-18-47c-7-39-13-49-31-51-20-3-23-9-23-45 0-23 7-60 14-82 12-34 19-40 45-43 39-4 94 36 111 81 7 18 33 78 57 133 23 56 43 105 43 108 0 10-164 6-183-5z"/>
  <path id="f" d="m2940 3744c0-8 85-209 108-254 20-41 117-97 130-76 4 7 15 15 25 19 13 5 17 16 16 44-1 21 2 71 6 111 7 69 7 73-14 79-11 3-21 13-21 23 0 32-79 60-170 60-44 0-80-3-80-6z"/>
  <path id="g" d="m1412 2600c-37-60-43-76-40-115l3-45 31 17c72 41 104 66 104 81 0 19-43 132-50 132-3 0-24-32-48-70z"/>
  <path id="h" d="m3642 2612c-27-70-27-81-4-98 51-40 91-65 125-79l38-16-3 38c-3 26-18 57-45 93-22 30-49 70-59 88-10 17-21 32-24 32s-15-26-28-58z"/>
  <path id="i" d="m3586 2448c-15-57-3-78 45-78 27 0 26 53-3 80-28 26-34 25-42-2z"/>
  <path id="j" d="m1503 2453c-8-2-13-22-13-45 0-36 2-39 23-33 34 11 40 20 32 54-6 30-16 35-42 24z"/>
  <path id="k" d="m2348 2185c-3-4-12-7-20-8-35-6-77-31-82-50-3-12-6-41-6-64v-43h88l17 69c16 66 18 110 3 96z"/>
  <path id="l" d="m2770 2163c0-15 8-55 18-88l18-60 48-3 49-3-7 55c-3 30-9 61-12 69-5 14-52 39-71 39-4 0-16 4-25 9-15 8-18 5-18-18z"/>
  <path id="m" d="m1680 1850c0-165 1-170 21-170s20 5 18 170c-1 159-3 170-20 170-18 0-19-11-19-170z"/>
 </g>
 <g id="n" transform="translate(-1280 -1680)" fill="#363736">
  <path id="o" d="m2150 2420c-83-45-91-58-97-149-5-65-3-85 8-92 20-12 84-11 114 3 25 11 25 12 25 135 0 67-3 123-7 123-5-1-24-9-43-20z"/>
  <path id="p" d="m2930 2317c0-123 0-124 25-135 31-14 84-15 105-2 11 7 15 30 15 94 0 73-3 87-20 100-20 15-113 66-121 66-2 0-4-56-4-123z"/>
 </g>
 <g id="q" transform="translate(-1280 -1680)" fill="#432f37">
  <path id="r" d="m3020 3743c0-5 5-15 10-23 7-11 12-12 21-3 6 6 8 16 5 22-8 12-36 15-36 4z"/>
  <path id="s" d="m1968 3719c-21-11-66-45-99-77l-62-58 16-31c9-17 39-54 66-82 43-44 55-51 89-51 46 0 71 20 47 40-12 10-16 8-23-11l-9-23-12 22c-8 14-8 28-2 40 5 9 9 30 9 46 0 15 5 32 12 36s9 13 5 20c-5 8-1 18 10 26 15 11 16 16 5 29-8 10-9 15-1 15 6 0 11 17 11 40 0 46-8 48-62 19zm2-191c0-25-3-29-10-18-13 20-13 50 0 50 6 0 10-15 10-32z"/>
  <path id="t" d="m3113 3733c-17-6-17-53 0-53 7 0 18 5 25 12 9 9 13 5 18-19 4-19 14-33 25-36 22-6 26-27 5-27-24 0-28-18-11-44 9-14 12-27 7-30-6-3-7-20-2-41 4-19 4-35 0-35-5 0-13 19-18 43l-10 42-1-58c-1-44-4-56-13-51-7 4-5-2 6-14l19-21 28 20c29 20 82 82 114 132l18 28-44 45c-68 71-139 116-166 107z"/>
  <path id="u" d="m3030 3556c0-23 5-36 13-36 9 0 12 10 9 30-6 44-22 47-22 6z"/>
  <path id="v" d="m2544 3271c-50-13-54-18-54-87 0-35 2-64 4-64s18 6 36 14c30 12 38 11 74-5 40-18 41-18 50 1 5 11 15 20 23 20s13 13 13 38c0 29-7 45-28 65-29 28-57 32-118 18z"/>
  <path id="w" d="m2091 3192-33-17 7-59c3-33 9-64 11-68 3-4 21-8 40-8s34-5 34-11 17-9 43-7c40 3 42 5 45 38 2 19 8 38 14 41 6 4 8 21 4 42-11 61-92 85-165 49z"/>
  <path id="x" d="m2884 3173c-10-21-20-65-22-99-4-57-3-61 19-67 44-12 89-8 89 8 0 10 16 15 63 17l62 3 3 48c2 35-1 49-12 53-9 3-16 14-16 24 0 27-54 50-115 50-51 0-53-1-71-37z"/>
  <path d="m1842 3098c-6-13-13-52-16-88s-8-100-12-142c-6-68-5-78 11-84 10-4 30 1 47 11 20 11 41 15 64 12 32-5 34-4 34 24 0 33-7 37-26 12-12-17-14-17-30-1-15 15-16 22-5 59 7 23 26 55 42 71s29 33 29 37c0 17-37 40-70 43-31 3-35 6-38 36-4 38-14 41-30 10z"/>
  <path d="m3170 3026c0-8-6-16-12-19-9-3-3-12 14-26 31-25 63-100 54-128-4-14 6-30 38-61 24-23 46-42 49-42 6 0 0 183-8 242l-7 48h-64c-49 0-64-3-64-14z"/>
  <path d="m1450 2575c-11-26-20-59-20-73 1-26 1-26 15-8 8 11 18 34 21 53 3 18 10 33 15 33 12 0 11 27-1 35-6 3-19-15-30-40z"/>
  <path id="y" d="m3646 2612c-4-7-4-18 1-24 4-7 13-33 18-57 13-58 41-71 32-16-4 21-10 41-15 44s-13 19-19 36c-6 19-12 25-17 17z"/>
  <path d="m1381 2553c-5-10-30-38-55-63-44-43-59-80-33-80 6 0 34 10 61 23l48 22 2 58c2 58-6 71-23 40z"/>
  <path id="z" d="m3745 2520c-12-20 16-80 45-95 67-35 83 5 24 58-48 42-61 49-69 37z"/>
  <path id="aa" d="m1648 2392c-31-31-63-71-72-88-35-72-66-169-66-210 0-43 0-44 34-44h34l48 123c26 67 58 143 70 169 23 45 32 108 17 108-5 0-33-26-65-58z"/>
  <path id="ab" d="m3194 2383c6-48 13-64 43-95 75-77 85-30 17 79-25 40-50 73-56 73-7 0-8-19-4-57z"/>
  <path id="ac" d="m3420 2407c0-19 6-47 14-63 21-43 70-162 90-216 16-45 20-48 52-48 34 0 34 0 34 46 0 75-53 189-119 257-30 31-59 57-63 57s-8-15-8-33z"/>
  <path id="ad" d="m1878 2372c-20-31-49-79-63-107-15-27-33-57-41-65-7-9-23-38-35-64-12-27-33-70-48-95-41-72-141-320-141-351 0-6 34-10 79-10h79l4 182 3 183 40 65c21 36 71 101 110 145 70 78 71 81 67 128-2 26-7 47-11 47-3 0-23-26-43-58z"/>
  <path id="ae" d="m3322 2213c-9-4-7-13 11-36 13-18 37-57 54-87l30-55-4-178-3-177h85c62 0 85 3 85 13 0 18-96 263-124 317-12 25-42 82-65 128-24 45-46 82-49 81-4 0-13-3-20-6z"/>
  <path id="af" d="m3643 2203c-8-3-13-23-13-49 0-44 13-87 56-180 13-28 33-87 45-130 11-44 26-84 32-91 7-6 29-15 50-18l37-7v242l-72 91c-101 126-121 148-135 142z"/>
  <path id="ag" d="m1429 2153c-14-16-53-63-87-105l-62-78v-145c0-138 1-145 20-145 15 0 20 7 20 25s5 25 20 25c22 0 35 24 68 130 11 36 32 97 48 135 15 39 29 96 31 128 4 51 3 57-14 57-11 0-31-12-44-27z"/>
 </g>
 <g id="ah" transform="translate(-1280 -1680)" fill="#414041">
  <path id="ai" d="m3764 3675c-4-9-19-15-39-15-31 0-32-1-39-52-11-94-8-148 9-148 8 0 15-4 15-10 0-5 16-10 35-10 27 0 35-4 35-18 0-15 6-17 35-14l35 4v278h-40c-27 0-43-5-46-15z"/>
  <path id="aj" d="m1356 3604c-11-30-6-101 8-113 8-7 30-11 48-9l33 3 3 68 3 67h-44c-32 0-47-5-51-16z"/>
  <path id="ak" d="m3383 3358c-13-6-23-20-23-31s-7-44-16-72c-19-59-13-122 12-132 10-4 32 10 60 38 42 43 43 46 50 127l7 82-34-1c-19 0-44-5-56-11z"/>
  <path id="al" d="m1662 3285c3-74 4-75 53-125 27-27 55-50 61-50 23 0 26 87 7 163-10 40-22 75-28 79-5 4-30 8-54 8h-43z"/>
  <path id="am" d="m2070 3070c0-39 1-40 34-40 19 0 41-3 50-6 13-5 16 2 15 42-1 27-3 41-6 31s-11-16-18-14c-7 3-18 0-24-6-9-9-13-6-17 11-11 39-34 26-34-18z"/>
  <path id="an" d="m2950 3080c0-17 5-30 13-31 6 0 4-3-5-7-13-5-15-11-7-22s12-12 16-2c3 7 23 12 49 12 32 0 44 4 44 14 0 8-4 18-10 21-5 3-10 16-10 28-1 19-3 18-14-8-10-24-13-26-19-12-4 10-12 14-22 11-10-4-15 0-15 10 0 9-4 16-10 16-5 0-10-13-10-30z"/>
  <path id="ao" d="m2960 2917c0-7 81-59 86-54 7 6-40 44-63 52-13 3-23 4-23 2z"/>
  <path id="ap" d="m3036 2349c19-94 4-158-33-144-20 7-15-30 5-48 23-21 95-22 111-3 7 9 11 43 9 91l-3 77-49 36-48 36z"/>
  <path id="aq" d="m2052 2354c-28-22-33-32-31-63 1-20-1-43-5-52s-6-36-4-60c3-41 5-44 35-47 46-5 93 22 93 54 0 14-4 23-10 19-6-3-19-4-30 0-17 6-19 13-14 83 3 42 8 80 11 85 9 15-13 6-45-19z"/>
  <path id="ar" d="m3266 2315c4-16 2-30-4-34-14-8 63-101 84-101 8 0 14 3 14 6 0 10-70 125-86 141-13 14-14 13-8-12z"/>
  <path id="as" d="m1476 2059c-3-17-6-47-6-65 0-32 2-34 33-34 44 0 57 15 57 65 0 48-13 65-51 65-22 0-28-6-33-31z"/>
 </g>
 <g id="at" transform="translate(-1280 -1680)" fill="#484848">
  <path id="au" d="m1280 3586c0-91 4-167 9-170 4-3 38-8 75-12 57-6 66-4 66 10 0 9 5 16 10 16 6 0 10 8 10 18 0 14 7 17 40 14l40-4v51c0 53-29 111-56 111-18 0-24 25-17 80l6 50h-183zm140-30c0-40-12-52-30-31-15 19-5 65 15 65 10 0 15-11 15-34z"/>
  <path id="av" d="m1672 3703c3-42 6-49 30-57 15-5 29-8 32-5 2 2 6 28 8 57l5 52h-78z"/>
  <path id="aw" d="m3384 3728c3-13 6-36 6-51 0-26 3-28 33-25 31 3 32 5 35 51l3 47h-42c-38 0-41-2-35-22z"/>
  <path id="ax" d="m3555 3733c-4-10-9-57-12-105-6-84-5-88 15-88 35 0 46-76 15-108-19-19-43-96-43-139v-26l23 20c36 32 140 93 179 103 46 13 63 52 63 147 0 39 3 69 8 66 4-2 7 3 7 11s-5 18-10 21c-12 7-4 25 11 25 5 0 9-15 9-32 0-42 10-78 21-78 5 0 9 45 9 100v100h-144c-128 0-145-2-151-17zm200-173c0-17-35-73-42-66-3 2-2 35 2 72l8 67 15-29c9-16 16-36 17-44zm-4-83c-13-13-15 11-4 40 7 16 8 15 11-6 2-13-1-28-7-34z"/>
  <path id="ay" d="m1775 3416c-4-30-8-79-9-108-1-50 0-53 25-56 34-4 61 36 70 103 5 44 3 54-20 82-40 50-58 44-66-21z"/>
  <path id="az" d="m3268 3416-47-53 25-24c14-13 37-43 51-66 20-34 31-43 53-43 31 0 34 7 46 98 5 43 4 52-9 52-9 0-20 17-28 45-9 29-19 45-29 44-8 0-36-24-62-53z"/>
  <path id="ba" d="m1371 2776c-15-18-10-88 5-93 7-2 21 9 33 26 18 25 20 33 10 55-14 29-31 33-48 12z"/>
  <path id="bb" d="m2040 2345c-50-37-58-62-59-167l-1-58h50c47 0 50 1 50 26 0 19-4 25-15 20-22-8-30 20-15 49 7 14 10 39 7 59s-1 36 5 38c12 4 40 68 30 68-4 0-27-16-52-35z"/>
  <path id="bc" d="m3075 2328c48-83 25-181-32-145-9 6-13 1-13-16 0-30 37-57 77-57 50 0 57 11 48 77-4 32-9 70-10 85-2 32-21 55-64 81l-30 18z"/>
  <path id="bd" d="m3710 2260c0-22 79-112 91-104 5 3 9 27 9 53v48l-50 10c-44 9-50 8-50-7z"/>
 </g>
 <g id="be" transform="translate(-1280 -1680)" fill="#4f4e4e">
  <path d="m1365 3730c20-22 31-20 22 5-4 8-14 15-23 15-16 0-16-2 1-20z"/>
  <path id="bf" d="m1424 3647c2-56 0-122-4-147s-8-37-9-28c0 9-6 20-12 23-7 5-8-5-4-32 6-36 5-37-9-19-9 11-17 32-17 48-1 15-3 33-4 38-1 6-4 25-5 43-2 32-2 32-16-13-8-25-15-63-17-85-2-46-19-52-28-9l-5 29-8-33c-4-19-4-37 0-41 5-4 36-13 69-20 61-13 142-52 204-99l34-25-5 73c-4 51-10 75-21 81-18 11-31 61-22 88 3 11 16 21 28 23 15 2 23 11 25 29 3 24 8 27 55 32 65 8 84 30 84 101 0 40-1 43-4 13-5-46-29-45-26 1l3 31h-291zm76-134c0-19-3-21-22-14s-23 16-24 51l-1 42 23-29c13-15 23-38 24-50z"/>
  <path id="bg" d="m3387 3698c8-67 27-87 92-95 62-7 80 9 81 74 0 68-5 73-70 73h-59l-3-32c-2-18-7-33-13-33-5 0-11 15-13 33-2 17-7 32-12 32s-6-23-3-52z"/>
  <path id="bh" d="m3822 3713c5-52 28-56 28-4 0 31-4 41-16 41s-15-9-12-37z"/>
  <path id="bi" d="m3829 3568c0-35-3-81-8-103-7-38-7-36-14 34-4 40-13 82-21 92-12 17-14 13-19-43-9-89-47-190-47-125 0 38-17 34-23-5-2-18-4-34-3-35s26 4 56 12 65 15 78 15c21 0 22 3 22 110 0 67-4 110-10 110s-10-28-11-62z"/>
  <path id="bj" d="m3677 3521c-4-19-12-28-23-27-14 1-17-9-19-55-1-34-8-67-18-83-10-14-15-26-11-26 15 0 74 42 69 50-3 4 2 27 10 50 16 46 20 120 6 120-5 0-11-13-14-29z"/>
  <path id="bk" d="m3605 3518c-2-7-5-39-7-71-3-48-1-55 10-40 6 9 12 31 13 47 0 17 2 41 5 54 4 23-13 31-21 10z"/>
  <path d="m3726 3495c-18-28-20-35-7-35 5 0 14 14 20 30 12 36 9 38-13 5z"/>
  <path id="bl" d="m3316 3474c-11-16-15-29-9-33 5-3 16-27 23-52 9-31 18-45 27-42 14 6 16-25 3-67-6-21-8-22-14-8-5 9-14 14-22 11-10-4-17 2-21 16-3 11-11 21-18 21-9 0-4-18 16-57 16-32 29-66 29-75 0-10 6-18 13-18 14 0 47 90 47 127 0 11 11 25 25 31l26 12-6-53c-3-28-8-68-11-87l-6-35 44 43c39 37 45 49 47 90 2 46 1 48-34 60-19 8-35 20-35 27 0 8-9 19-20 25-15 8-20 21-20 50 0 38-1 40-32 40-24-1-38-8-52-26z"/>
  <path id="bm" d="m1740 3444c0-17-6-28-20-31-10-3-22-13-25-22-2-9-18-22-35-29-25-11-30-19-30-48 0-25-4-34-17-34-12 0 0-17 37-55 30-30 57-55 61-55 3 0 0 23-7 52-24 89-15 126 21 100 6-4 20-44 30-90 20-84 35-99 46-46 11 52 36 101 73 141l35 40-32 32c-19 17-36 28-40 25-4-4-7-36-7-70 0-61-9-82-30-69-8 5-8 11-1 19 6 7 9 28 7 47s0 40 6 46c6 7 8 19 5 27s-1 16 5 18c25 9-5 28-43 28-35 0-39-2-39-26z"/>
  <path id="bn" d="m2031 3131c-12-21-14-55-5-86 5-18 15-20 120-23l115-2-3 27c-4 36-43 45-53 13s-25-13-26 33c0 40-1 41-12 17-6-14-16-28-22-32-5-4-10-12-10-18 0-5-3-10-7-10h-19c-7 0-10 18-7 48 3 48 3 48-29 50-23 2-35-3-42-17z"/>
  <path id="bo" d="m2135 3e3c-14-6 3-9 53-9 42-1 72 3 72 9 0 12-97 12-125 0z"/>
  <path d="m3800 2928c-28-49-30-58-25-123 5-68 4-69-10-37-19 40-30 40-50 2-15-29-14-32 19-82 62-94 96-138 106-138 6 0 10 83 10 215 0 134-4 215-10 215-5 0-23-24-40-52z"/>
  <path id="bp" d="m1280 2766c0-118 4-207 9-211 10-5 44 37 95 116 18 27 21 40 13 48s-7 16 5 28c16 15 15 19-4 57-11 23-23 43-27 46-3 3-19 31-35 63-50 100-56 84-56-147z"/>
  <path id="bq" d="m1691 2427c0-10-5-16-10-13-5 4-53-40-106-96-112-119-140-153-150-188l-7-25 22 25 23 25-6-30c-2-16-17-61-32-100-15-38-36-99-47-135-34-109-47-134-62-121-17 14-26-5-26-55 0-35 1-35 38-32 35 3 37 5 40 43 3 36 7 42 43 59 43 21 69 59 69 101 0 18 5 25 19 25 28 0 51 38 51 82 0 21 14 71 30 113 17 42 30 88 30 103-1 19-10 3-32-53-18-44-34-73-35-64-3 14 7 45 78 222 22 54 49 100 56 93 3-2-3-18-11-35-9-17-21-43-27-58-10-27-9-26 20 7 34 39 45 67 38 101-3 16-5 18-6 6zm-176-425c-17-16-17-16-11 8 3 14 6 32 7 40 0 9 5 6 11-8 9-19 8-26-7-40z"/>
  <path id="br" d="m3450 2368c0-15 11-40 25-55l25-28-16 45c-22 58-34 71-34 38z"/>
  <path id="bs" d="m3480 2389c0-9 50-130 77-184 47-93 64-145 49-145-16 0-26-30-26-82 0-37 1-38 35-38 32 0 35-3 35-27 0-50 21-105 40-110 11-3 24-20 30-39 7-19 15-34 20-34 4 0 11-11 14-25 5-21 12-25 46-25 43 0 46 6 34 68-4 18-11 29-19 26-19-8-31 15-53 96-11 41-30 96-41 123-11 26-21 49-21 52s-10 24-20 47c-25 54-26 80-4 71 14-5 14-3 6 13-13 23-201 222-202 213z"/>
  <path d="m3110 2278c0-24 5-61 10-83 10-43-3-63-27-43-10 8-13 5-13-15 0-36 26-47 114-47h76v46c0 44-3 50-70 115-38 38-74 69-80 69-5 0-10-19-10-42z"/>
  <path id="bt" d="m1348 2262-68-15v-74c0-40 4-73 9-73 13 0 141 152 141 168 0 6-3 11-7 11-5-1-38-8-75-17z"/>
  <path id="bu" d="m3777 2223 4-38-20 23c-43 49-27 17 27-54l57-75 3 82c2 45 2 83 0 84-2 2-19 6-39 10l-35 7z"/>
  <path id="bv" d="m1953 2200c-18-7-23-17-23-44 0-40 11-46 81-46 45 0 49 2 49 24 0 19-4 22-25 18-22-4-25-1-25 27 0 33-14 38-57 21z"/>
 </g>
 <g id="bw" transform="translate(-1280 -1680)" fill="#5d4b52">
  <path id="bx" d="m2109 3424c-19-20-46-42-61-50-17-9-28-23-28-36 0-19 4-20 73-16 41 3 79 8 85 12 7 4 12 27 12 52 0 33-4 46-17 51-10 4-21 10-24 15-3 4-21-8-40-28z"/>
  <path d="m2580 3260c0-15 5-20 14-17 7 3 25-7 40-22 27-28 36-52 12-32-11 9-15 5-20-20-7-35 7-59 34-59 9 0 25-9 35-20 32-36 52-26 60 29 4 28 4 59 0 70-11 35-82 83-131 89-40 4-44 3-44-18z"/>
  <path id="by" d="m2448 3257c-10-8-18-22-18-31s-8-16-17-16c-10 0-26-7-37-15-16-12-18-22-12-78l7-65 90 47c49 25 89 49 89 53s-7 5-15 2c-26-11-20 60 8 79 12 8 19 18 15 22-14 15-93 16-110 2z"/>
  <path id="bz" d="m2885 3185c-9-36-21-68-26-71-15-9-31 6-21 19 5 7 12 28 16 47 5 28 4 31-4 13-7-18-18-23-45-23-33 0-35-2-35-33 0-24 8-41 30-62 17-16 30-39 30-52 0-19 5-23 30-23 17 0 39 6 50 12 15 10 22 10 32 0 18-18 39-15 31 5-6 14 1 16 59 10l66-6 7 60c7 60-2 89-30 89-6 0-20 9-30 20s-25 20-34 20-34 9-56 20-42 20-46 20c-3 0-14-29-24-65zm115-20c6-8 17-13 23-12 7 1 10-11 8-33-2-19-4-44-5-55-1-13-8-20-21-20-28 0-42 15-37 41 2 12-1 25-7 28-7 5-11-5-11-28 0-22 5-36 13-37 6 0 1-5-13-10-16-7-26-7-28 0-2 5-10 7-18 4s-14 0-14 6 7 11 15 11 15 6 15 14-7 16-15 20c-21 8-19 30 8 60 25 29 68 34 87 11zm65-78c0-26-20-25-23 2-3 16 1 22 10 19 7-3 13-12 13-21z"/>
  <path id="ca" d="m2173 3224c-22-9-33-21-33-35 0-11 4-18 9-15 8 5 34-5 70-28 7-5 9-11 4-15-15-9-23-90-11-98 7-4 8-1 4 8-4 8-1 6 7-3 8-10 26-18 40-18s29-5 32-10c4-7 13-7 26 0 15 9 19 22 19 65 0 54 0 54-24 43-38-17-51-5-71 61-10 34-23 61-29 60-6 0-26-7-43-15z"/>
  <path id="cb" d="m2274 3185c4-16 12-34 17-40 5-5 4 6-2 25-15 45-24 54-15 15z"/>
  <path id="cc" d="m1480 3165c0-8 6-15 13-15 25 0 173-159 222-238 28-45 53-81 58-82 4 0 7 33 7 74 0 72 0 74-51 140-28 37-60 71-72 75-12 5-33 21-46 35-21 22-33 26-78 26-40 0-53-4-53-15z"/>
  <path id="cd" d="m3438 3091c-76-86-89-113-86-172 2-29 8-54 14-56 7-2 42 39 78 92 37 52 70 95 74 95s30 21 57 45l50 45-73-2-73-1z"/>
  <path d="m2190 3e3c20-13 103-13 95 0-3 6-30 10-58 10-37 0-48-3-37-10z"/>
  <path id="ce" d="m1641 2721c-20-25-31-50-31-70 0-30 1-31 44-31 25 0 48 6 53 13s10-4 13-30l5-43 29 23c24 19 28 28 22 50-3 15-13 27-22 27-8 0-12 5-8 11 3 6 1 29-6 50-11 33-18 39-41 39-20 0-36-11-58-39z"/>
  <path id="cf" d="m3360 2651c-16-32-12-48 20-71l30-21v55c0 49-2 56-20 56-10 0-24-9-30-19z"/>
  <path d="m3122 2505c3-25 2-45-3-45s-9-12-8-27c0-21 15-42 60-82 33-29 62-51 65-48s1 31-5 64c-8 40-24 77-54 121-23 34-46 62-51 62s-6-20-4-45z"/>
  <path id="cg" d="m1938 2463c-29-43-38-66-38-99 0-24 3-45 8-47 4-3 35 18 70 46 60 49 62 52 62 99 0 41-3 48-19 48-11 0-25 2-33 5s-28-17-50-52z"/>
  <path id="ch" d="m1293 2459c-15-15-17-49-3-49 5 0 27 7 49 16 27 11 38 20 34 30-5 13-9 13-29-1-29-19-32-19-36 1-2 12-5 13-15 3z"/>
  <path id="ci" d="m1473 2442c-48-24-53-29-53-59 0-31 2-33 28-27 60 15 72 23 72 49 0 14 5 25 10 25 6 0 10 9 10 20 0 24-1 24-67-8z"/>
  <path id="cj" d="m3590 2456c0-8 4-17 9-21 5-3 12-18 16-34 5-23 14-31 46-39l39-10v34c0 32-4 37-47 56-27 12-51 24-55 26-5 2-8-3-8-12z"/>
  <path id="ck" d="m1628 2285c-35-88-40-119-12-81 22 30 55 127 52 150-2 13-17-12-40-69z"/>
  <path id="cl" d="m1620 2340c-6-11-16-19-23-17-7 1-11-3-10-10 2-10-22-55-54-98-5-6-9-15-10-20-1-6-14-44-29-85-39-110-55-178-48-206 8-31 28-31 42 1 15 32 15 48 2 40-10-6-14 19-10 65 3 41 58 165 70 162 8-2 10 3 7 13-4 8 2 23 12 32 22 21 37 50 56 104 15 42 12 52-5 19z"/>
  <path id="cm" d="m3470 2327c0-31 33-110 61-146l21-26-7 25c-8 27-65 162-71 169-2 2-4-7-4-22z"/>
  <path id="cn" d="m3502 2330c3-8 22-54 42-102 36-86 50-150 23-100-29 52-37-34-11-111 20-58 48-65 60-14l7 32 8-30c5-17 5-31 0-33s-3-23 6-48c10-30 21-44 33-44 24 0 23 35-5 145-28 107-54 171-95 232-17 25-27 50-24 56 4 7 3 9-1 4-5-4-17 1-28 10-16 14-19 15-15 3z"/>
  <path id="co" d="m1804 2245c-14-25-23-49-20-52 12-12 79 64 73 81-10 26-25 18-53-29z"/>
  <path id="cp" d="m1450 2179c-22-28-40-55-40-60 0-15 15-10 30 11 10 14 16 16 22 7 5-8 8-7 8 6 0 9 4 17 8 17 9 0 32 44 32 60 0 22-22 7-60-41z"/>
  <path id="cq" d="m3643 2168c7-22 12-27 15-16 2 11 9 15 19 11 13-5 14-3 4 15-7 12-20 22-31 22-17 0-18-3-7-32z"/>
  <path id="cr" d="m2195 2119c-55-27-106-57-112-66-7-9-13-36-13-60v-43h54c36 0 60 5 70 16 15 14 16 10 16-41v-56l38 3c36 3 38 5 59 68 27 78 30 140 8 140-8 0-15-7-15-15s-7-15-15-15c-19 0-19 12 0 73 8 26 13 47 12 47s-47-23-102-51z"/>
  <path d="m2835 2154c19-45 32-109 23-115-10-6 26-67 62-106 22-25 33-26 104-17l46 7v44c0 83-5 88-224 196-16 8-18 7-11-9z"/>
  <path id="cs" d="m3690 2142c0-5 9-17 20-27 23-21 27-4 4 19-17 18-24 20-24 8z"/>
  <path id="ct" d="m1555 2099c-6-17-9-19-16-8-9 15-11 7-13-58-1-27 3-33 20-33 26 0 34 17 34 70 0 44-15 61-25 29z"/>
  <path id="cu" d="m3670 2088c0-26 18-68 30-68 7 0 8 5 3 13-4 6-8 17-9 24-1 6-7 19-13 30-9 16-10 16-11 1z"/>
  <path id="cv" d="m1412 1993c-5-16-13-36-17-45-5-13-2-18 9-18 9 0 16 3 16 8 0 4 4 24 9 45 10 43-2 50-17 10z"/>
  <path id="cw" d="m3800 1948c5-18 14-53 21-78 13-43 13-44 17-15 5 36-13 98-32 114-12 10-13 7-6-21z"/>
  <path id="cx" d="m2408 1814c-32-17-48-43-48-78 0-57-3-56 190-56 199 0 190-3 190 74 0 70-14 76-171 76-99-1-141-5-161-16z"/>
  <path id="cy" d="m1340 1779c-9-15-15-18-25-9-9 8-14 6-19-6-10-26-7-84 5-84 5 0 8 4 5 8-3 5 4 21 15 38 20 31 27 17 8-18-16-29 0-37 22-9 11 14 19 39 19 62 0 43-13 51-30 18z"/>
  <path id="cz" d="m3794 1760c3-8 7-30 11-47 5-24 12-33 26-33 15 0 19 7 19 38 0 46-8 58-37 58-16 0-22-5-19-16z"/>
  <path id="da" d="m3764 1738c3-13 6-31 6-40 0-10 6-18 14-18 11 0 12 8 4 40-6 22-15 40-20 40-6 0-8-10-4-22z"/>
 </g>
 <g id="db" transform="translate(-1280 -1680)" fill="#555455">
  <path id="dc" d="m1421 3683c-1-70 12-113 24-82 10 26 1 142-11 146-8 3-12-19-13-64z"/>
  <path id="dd" d="m1544 3708c3-24 5-47 5-51 1-5 6-5 12-2 7 5 9-7 7-36-3-39-28-71-28-35 0 9-4 16-10 16-5 0-10-11-10-25 0-31-18-33-30-2-5 12-9 16-9 9-1-7 4-23 11-35 6-12 15-47 19-77 5-30 15-59 23-66 9-6 19-32 22-58 6-43 12-51 67-92 39-30 57-39 52-28-4 11-9 37-13 58-4 34-3 38 12 33 9-4 14-3 11 2-9 16 15 23 32 9 14-11 15-10 10 7-8 23 1 39 26 48 10 4 17 17 17 32 0 21 4 25 18 21 9-3 23-2 31 3 22 14-26 71-59 71-26 0-27 2-34 72-7 79-18 101-38 76-18-21-63-31-76-15-10 12-9 78 3 97 4 6-9 10-34 10h-41z"/>
  <path id="de" d="m2790 3726c0-26 16-36 61-36 34 0 35 2 13 35-23 35-74 35-74 1z"/>
  <path d="m3500 3735c0-8 4-15 9-15 17 0 23-42 11-66-11-19-18-22-43-17l-30 6 8-79c4-43 9-82 12-86 2-5 17-8 33-8 23 0 27-3 23-20-3-11-12-20-19-20-8 0-19-9-26-20s-18-20-25-20-13-7-13-15-4-15-10-15c-19 0-10-17 18-30 15-8 28-15 30-16s-5-20-14-42c-9-23-14-46-12-51 1-6 26 8 55 30 38 30 56 53 67 85 8 24 13 44 10 44-2 0 5 9 16 20s20 34 21 53c1 47 7 75 23 100 11 16 13 38 7 82-6 52-8 56-14 32-4-16-5-38-2-49 8-24-2-68-16-68-6 0-9 21-8 50 3 64-7 74-15 15-9-56-26-59-26-5 0 29 5 43 20 52 24 15 26 28 5 28-8 0-12 6-9 14 4 11 12 13 32 5 25-9 26-8 7 6-11 8-25 19-32 25-20 16-93 13-93-5z"/>
  <path d="m3678 3673c5-85 5-88 21-78 6 3 11 39 11 81 0 64-2 74-18 74-15 0-17-9-14-77z"/>
  <path id="df" d="m1282 3466c2-30 8-51 16-54 10-3 12 5 6 34-11 63-24 75-22 20z"/>
  <path id="dg" d="m3826 3454c-10-27-7-44 9-44 10 0 15 10 15 30 0 32-14 40-24 14z"/>
  <path id="dh" d="m1460 3387c0-22 32-51 44-40 7 7-25 63-36 63-4 0-8-10-8-23z"/>
  <path id="di" d="m2722 3144c-2-51-9-54-43-16-35 39-39 39-39 7 0-18 5-25 19-25 10 0 24-7 31-14 6-8 28-24 47-36l36-21-7 47c-3 26-6 57-6 70 0 17-6 24-18 24-15 0-19-8-20-36z"/>
  <path d="m2456 3136c-9-15-12-27-6-31 10-6 115 44 107 51-3 3-14 1-24-4-12-7-25-7-34-1-21 13-25 11-43-15z"/>
  <path id="dj" d="m3070 3125c7-8 8-15 3-15-6 0-8-11-5-25 3-18-1-30-14-40-18-13-17-14 11-20 17-4 35-8 42-10 15-5 23 18 23 64 0 43-14 61-48 61-21 0-22-2-12-15z"/>
  <path id="dk" d="m2012 3118c-13-13-16-66-6-91 4-12 11-13 35-5 33 11 32 9 19 43-8 20-6 29 10 45 20 20 20 20-13 20-18 0-38-5-45-12z"/>
  <path id="dl" d="m3740 2819c-18-35-19-45-10-75 7-20 18-38 25-40 8-3 11-16 9-33-3-18 1-33 13-42 15-12 16-12 10 4-3 9-2 17 4 17s8 4 4 9c-3 5-1 12 5 16 17 11 12 151-6 169-23 24-32 20-54-25z"/>
  <path d="m2e3 2703c-134-104-310-263-310-279 0-8-4-13-8-10-4 2-8-3-9-12s-29-84-62-166c-34-82-61-151-61-153s14-3 31-3c41 0 75 37 134 147 68 126 220 355 303 456 40 48 71 87 70 87-2-1-41-31-88-67z"/>
  <path id="dm" d="m3121 2670c97-121 226-315 295-445 52-99 115-176 152-187 19-5 22-3 18 9-3 8-9 27-12 41-13 58-85 244-114 295-6 10-8 22-5 27 8 13-222 215-404 354-8 6 24-36 70-94z"/>
  <path d="m1933 2253-78-78 3-77c4-77 4-78 30-78 37 0 162 85 162 110 0 16-5 18-35 13-24-4-35-2-35 6 0 7-4 9-10 6-5-3-10-4-10 0 0 3 11 10 24 15 18 7 26 19 31 52 3 24 9 58 12 76 3 19 1 32-5 32s-46-35-89-77z"/>
  <path id="dn" d="m3108 2301c2-15 9-28 16-28 19 0 17 36-3 46-15 8-17 6-13-18z"/>
  <path d="m1422 2279c-19-7-49-56-39-65 2-2 19 12 37 31 37 38 37 47 2 34z"/>
  <path d="m3552 2209c3-8 21-52 41-99 44-108 52-140 34-140-7 0-18 12-24 28-10 25-11 24-12-21-1-35 8-68 29-114 17-35 30-68 30-73s18-26 40-46c22-21 40-43 40-51s12-13 34-13h34l-10 40c-6 22-14 40-18 40-5 0-16 24-26 52-14 42-19 49-24 33-7-19-8-19-18 5-6 14-26 75-46 135-36 115-81 221-99 232-6 4-8 0-5-8z"/>
  <path id="do" d="m3238 2163c0-10-1-23-1-28 0-6-15-11-34-12-18-1-33 2-33 8 0 5-5 9-11 9-5 0-7-4-4-10 8-12 3-13-29 0-24 9-26 7-26-15 0-14 4-25 9-25s30-16 55-35c33-25 56-35 82-35h37l-7 53c-3 28-6 64-6 80 0 30-29 39-32 10z"/>
  <path id="dp" d="m2957 2083c22-55 34-75 40-70 2 3-3 19-12 36-9 18-13 36-10 41s-3 14-14 20c-20 10-20 9-4-27z"/>
  <path id="dq" d="m2154 2094c-3-10-10-29-15-42-14-34-12-47 6-32 8 7 17 28 21 46 7 38-2 59-12 28z"/>
  <path id="dr" d="m2064 2047c-54-34-74-72-74-142 0-33 2-35 35-35 19 0 35 5 35 10 0 6 27 10 60 10 85 0 116 18 124 72 3 24 8 59 11 78 5 33 5 34-7 10-16-32-31-42-40-27-6 9-8 9-8-1 0-7-4-11-8-8-5 3-16-4-25-15-19-21-37-25-37-8 0 8-5 8-15-1-8-7-15-8-15-2 0 5 7 26 15 45 24 59 21 60-51 14z"/>
  <path id="ds" d="m2800 2045c0-20 15-79 32-131l33-96 174 14 28-41c24-35 33-40 66-41h37v44c0 25-4 47-9 50s-12 36-16 73c-4 36-9 72-12 79-5 14-122 88-129 81-2-2 5-25 16-51 27-63 27-90 0-57-14 16-20 19-20 8 0-8-6-20-13-26-17-14-45 9-73 58-40 70-42 73-48 62-4-6-4-15-1-21 3-5-1-10-10-10s-19 9-22 20c-9 35-33 24-33-15z"/>
  <path id="dt" d="m1520 1997c0-7-8-24-17-37l-17-24-6 24c-5 21-7 18-19-21-18-62-41-112-47-106-4 3-15-3-27-13-11-11-24-17-28-14-8 5-12-8-22-66-2-14-8-33-12-42-6-15-2-18 24-18 27 0 34 6 53 45 12 25 30 47 39 50s20 17 23 30 16 35 29 48c51 54 79 157 42 157-8 0-15-6-15-13z"/>
 </g>
 <g id="du" transform="translate(-1280 -1680)" fill="#5b5a5a">
  <path d="m1730 3715c0-24-5-35-15-35-24 0-34-32-25-80 13-74 16-150 5-147-5 1-10 11-11 22-3 62-7 65-16 15-5-30-6-74-3-98 6-37 9-42 29-38 44 8 66 37 66 84 0 43 0 43 22 28 40-28 39-17-2 57-32 59-40 85-41 128-1 31 2 65 5 77 5 13 3 22-3 22s-11-16-11-35z"/>
  <path id="dv" d="m2268 3728c-18-27-68-125-68-133 0-3 21-5 48-4 45 0 48 2 80 51 17 28 32 63 32 79 0 27-3 29-39 29-29 0-42-6-53-22z"/>
  <path id="dw" d="m2760 3725c0-14 16-45 35-71 19-25 35-50 35-55 0-12 61-11 80 0 22 15-26 111-62 123-16 6-28 14-28 19s-13 9-30 9c-25 0-30-4-30-25z"/>
  <path id="dx" d="m3390 3645c0-38-9-65-40-122-37-67-39-73-20-73 11 0 20 5 20 10 0 6 5 10 10 10 6 0 10-12 10-26 0-22 4-25 28-22l27 3 3 129c1 72 0 127-4 123s-13-2-21 4c-10 9-13 2-13-36z"/>
  <path id="dy" d="m3460 3499c0-23-7-47-15-55-8-9-15-24-15-35 0-14-7-19-27-19-24-1-25-2-10-11 9-5 17-17 17-24 0-8 3-15 8-15 4 0 17-3 30-6 16-5 22-2 22 10 0 10 5 14 11 11 5-4 15 7 22 24 7 19 18 31 29 31 15 0 18 9 18 65 0 36-3 65-6 65s-14-10-25-22l-19-23-6 23c-11 39-34 26-34-19z"/>
  <path id="dz" d="m3752 3448c-14-14-16-48-3-48 8 0 23 51 17 57-1 2-8-3-14-9z"/>
  <path id="ea" d="m1370 3428c0-16 5-28 10-28 13 0 13 20 0 40-8 12-10 9-10-12z"/>
  <path id="eb" d="m3287 3362c-5-18-13-30-18-26-14 8-10-8 6-30 21-27 27-16 23 40-3 48-3 48-11 16z"/>
  <path id="ec" d="m1830 3325c0-36 13-47 24-19 5 14-9 54-19 54-3 0-5-16-5-35z"/>
  <path d="m2624 3164c-10-30-9-36 7-44 10-6 25-10 34-10 14 0 14 3-2 33-9 17-17 35-18 39-1 21-12 12-21-18z"/>
  <path id="ed" d="m1282 2885 1-110 9 80c5 43 13 82 19 86 6 3 2 15-10 30l-20 24z"/>
  <path id="ee" d="m3832 2978c-6-9-6-39 0-88 5-41 8-135 6-208-2-72 0-132 5-132 4 0 7 99 7 220s-2 220-4 220-8-6-14-12z"/>
  <path id="ef" d="m1328 2880c2-22 0-52-5-67-6-18-5-44 3-73l11-45 7 45c10 63 16 80 27 80 5 0 9-13 9-30 0-29 13-40 25-20 6 10-64 150-75 150-3 0-4-18-2-40z"/>
  <path id="eg" d="m3771 2876c-21-41-22-47-8-61 9-8 19-37 22-63 10-72 11-72 18-2 4 36 3 89-1 118l-7 52z"/>
  <path id="eh" d="m3689 2272c5-9 23-30 39-45l29-28-11 35c-7 25-19 39-38 45-25 9-27 8-19-7z"/>
  <path id="ei" d="m1624 2153c-22-22-48-42-57-46-9-3-17-16-17-27 0-12-7-34-15-50l-16-30h31c27 0 36 9 76 70 31 48 44 79 42 97l-3 26z"/>
  <path d="m3480 2139c0-47 63-139 96-139 22 0 24 3 19 23-11 36-41 80-79 115l-36 34z"/>
  <path id="ej" d="m2097 2069c-9-6-15-14-12-19 9-14-22-99-47-129l-21-26 7 25c4 14 11 44 15 67 7 39 6 41-13 33-24-8-46-45-46-75 0-11-10-25-22-30-25-11-37-66-20-88 5-7 6-21 1-32-4-11-8-37-8-57-1-35 1-38 34-44 19-3 46-3 59 0 14 3 28 2 31-4 3-5 29-10 56-10 50 0 51 1 66 40 13 33 21 40 44 40 24 0 29 6 48 62 33 97 26 148-13 96-16-22-17-21-12 40 2 34 2 62 0 62s-10-15-18-34c-16-38-71-75-88-58-6 6-22 7-39 2-16-5-29-6-29-3 0 2 14 35 30 73 38 87 38 93-3 69z"/>
  <path id="ek" d="m3086 2018c4-7 13-35 19-63 11-47 13-50 46-53 28-2 36 2 46 23 10 23 8 27-20 49-76 55-107 71-91 44z"/>
  <path id="el" d="m2906 1910c4-25 7-52 7-60s3-17 7-20 16-34 26-70l19-65 43-3c41-3 42-2 42 27 0 67 38 87 55 29 9-29 15-33 48-36l38-3-3 53c-3 50-5 53-30 56-17 2-28 9-28 18 0 8-9 25-21 37-19 20-20 21-13 2 4-11 16-32 26-47 10-14 18-31 18-37 0-20-16-12-31 15-17 32-65 74-85 74-9 0-12-4-9-10 3-5-3-10-13-10-11 0-38 21-61 48l-42 47z"/>
  <path id="em" d="m1490 1920c0-6-11-22-25-36s-28-36-31-49-14-27-23-30c-14-4-71-101-71-120 0-3 16-5 35-5 25 0 37 5 42 18 3 9 14 24 24 32 32 27 69 111 69 156 0 24-4 44-10 44-5 0-10-5-10-10z"/>
  <path id="en" d="m3670 1784c0-55 36-104 77-104 31 0 31 1 20 30-6 17-31 49-54 71l-43 41z"/>
 </g>
 <g id="eo" transform="translate(-1280 -1680)" fill="#616160">
  <path id="ep" d="m1800 3724c-12-30-13-64-2-64 4 1 29 21 55 45l49 45h-46c-41 0-48-3-56-26z"/>
  <path id="eq" d="m2329 3740c-3-20-4-25-12-37-6-9 4-14 32-19 31-5 42-12 50-33 24-62 32-65 150-66 96 0 113 3 138 21 15 12 29 32 31 46 3 23 9 26 54 32 46 6 49 8 35 24-8 9-12 23-10 30 3 9-12 12-56 12-34 0-61-4-61-10 0-5-12-10-27-10-16 0-36-7-46-15-18-13-16-14 15-17l33-3-32-18c-18-9-44-17-58-17s-40 8-58 17l-32 18 33 3c31 3 33 4 15 17-10 8-30 15-45 15-16 0-28 5-28 10 0 6-27 10-60 10s-61-4-61-10z"/>
  <path id="er" d="m3266 3715c37-33 74-46 74-26 0 5-4 21-10 35-8 23-15 26-56 26h-47z"/>
  <path id="es" d="m1693 3665c-11-21-6-92 7-100 10-6 17 65 10 96-6 23-7 23-17 4z"/>
  <path id="et" d="m3399 3575c-1-55-1-104 0-108s-6-10-14-13c-8-4-15-18-15-34 0-28 23-50 68-64 18-6 22-4 22 16 0 13 5 30 10 38 7 11 10 7 10-17 0-38 10-42 28-13 7 12 17 18 22 15s17 14 28 37c10 24 26 49 35 57 10 7 17 21 17 30 0 14-2 14-10 1-5-8-11-12-13-10-12 13-37 85-37 107s-2 24-16 12c-10-8-13-21-9-36 10-40-6-153-21-153-9 0-14 11-13 33 1 17 0 60-1 95-2 56-5 65-26 73-13 4-24 15-24 23 0 9-8 14-20 13-18-1-20-9-21-102z"/>
  <path id="eu" d="m2840 3623c0-53 16-90 44-97 24-7 76-8 76-2 0 5-43 98-53 114-7 9-12 9-24-4-15-15-17-14-29 8-13 22-13 21-14-19z"/>
  <path id="ev" d="m2195 3585c-17-38-31-73-33-77s16-8 40-8c40 0 44 2 66 43 25 47 32 126 8 95-17-23-44-23-48-1-2 10-16-12-33-52z"/>
  <path id="ew" d="m1585 3618c-12-34-21-128-13-141 4-9 9-27 10-42 2-24 4-25 15-9 9 12 11 37 8 73-3 31-6 73-7 94-2 39-6 45-13 25z"/>
  <path d="m1648 3543c-1-27-1-59 0-72s-6-29-14-36c-18-12-16-56 3-62 6-2 13 6 16 19 3 20 5 19 12-9 10-43 25-42 25 2 0 21 5 35 13 35s7 3-3 10c-8 5-15 22-16 37-1 50-16 123-25 123-5 0-10-21-11-47z"/>
  <path id="ex" d="m2272 3438c-22-29-42-79-42-108s13-40 24-21c3 5 30 15 58 21 29 7 56 18 60 24 12 17 9 71-4 84-16 16-83 15-96 0z"/>
  <path id="ey" d="m2740 3408c1-46 17-63 77-77 29-7 57-19 64-27 37-44 39 25 3 90l-26 46h-118z"/>
  <path id="ez" d="m2455 3130c-24-27-13-36 26-19 20 8 27 15 18 17-8 3-17 9-20 14s-14-1-24-12z"/>
  <path d="m1343 2837c-1-48-1-49 18-28 23 25 23 27 2 55-18 22-18 22-20-27z"/>
  <path id="fa" d="m3762 2858c-14-14-16-38-3-38 10 0 26 39 19 46-2 2-10-2-16-8z"/>
  <path id="fb" d="m3326 2385c15-27 30-54 34-60 4-5 37-64 73-130 83-154 147-296 187-418l33-97h48c55 0 61 11 29 53-12 14-32 52-46 84-29 65-54 121-78 173-9 19-30 53-46 75-48 63-165 237-183 270-9 17-30 46-47 65l-31 35z"/>
  <path id="fc" d="m1770 2358c-17-24-57-84-88-133-66-105-107-161-139-193-13-13-23-34-23-47s-4-26-9-30c-5-3-19-34-31-69-11-34-30-72-41-84-10-12-20-25-20-29 0-5-6-7-13-6-6 2-13-7-13-19-1-13-7-24-13-26-5-2-8-8-4-13 3-5 0-9-5-9-6 0-11-4-11-10s26-10 59-10h58l33 97c50 152 193 451 270 563 18 27 32 60 25 60-2 0-18-19-35-42z"/>
  <path id="fd" d="m2525 2215c-11-2-46-7-77-10-57-6-58-7-57-38 0-18-2-60-6-94l-8-63h32c31 0 95 38 114 67 4 7 17 13 27 13 11 0 20 5 20 10 0 21 30 9 44-17 20-39 70-73 107-73h31l-5 48c-3 26-11 68-18 94-10 38-17 48-38 52-41 8-144 14-166 11z"/>
  <path d="m1979 1992c-133-89-193-164-203-254l-7-58h210c197 0 210 1 216 19 3 10 15 21 25 24 17 4 20 14 20 54-1 44-2 46-15 29-19-25-28-15-27 26l1 33-14-25c-8-14-24-53-36-87-13-35-26-63-30-63-14 0-50 44-55 67-8 30-18 29-43-6-15-21-27-28-41-24-25 7-20 29 16 85 30 47 30 52 0 44-31-8-41 7-19 25 14 12 16 12 9 0-6-9-5-12 5-9 8 3 17 22 21 44 3 21 14 56 22 77 9 20 13 37 9 37-5 0-33-17-64-38z"/>
  <path d="m3089 2011c6-10 14-44 19-75 7-46 7-56-4-52-18 7-8-18 28-72 16-23 28-50 26-59-2-12-11-4-31 25-15 23-32 42-38 42-5 0-7 6-4 13 4 6-1 3-10-8-11-14-18-16-23-8-5 7-13 9-21 4-7-5-10-14-7-20 4-6 3-11-2-11-15 0-22-54-9-63 8-6 7-7-3-4-8 2-23 32-34 68-10 35-23 66-27 67-5 2-9 9-9 15 0 7-8 21-16 32-15 19-16 18-12-17 3-27 0-38-9-38-7 0-13 7-13 15s-7 15-15 15c-22 0-19-52 6-111 12-27 25-49 30-49s9-9 9-20c0-19 7-20 221-20h220l-7 58c-8 67-52 138-120 192-56 45-62 46-72 20-8-22-9-22-30 11-14 22-17 36-10 40s3 11-10 18c-29 16-34 14-23-8z"/>
 </g>
 <g id="fe" transform="translate(-1280 -1680)" fill="#6c6769">
  <path id="ff" d="m2872 3560c2-35 8-47 24-54 18-8 21-16 17-47-3-21-2-54 1-73 6-31 11-36 33-36 15 0 37-10 50-22 32-30 163-41 163-14 0 9-22 28-51 44-76 40-96 60-133 132-18 36-37 65-42 65s-15 4-21 8c-7 5-13 5-13 0-1-4-7 3-15 17-15 24-15 24-13-20z"/>
  <path id="fg" d="m2138 3465c-26-53-26-55-6-55 11 0 22-8 25-20 3-11 14-20 25-20 17 0 19 7 16 72-4 93-22 100-60 23z"/>
  <path id="fh" d="m2716 3467c-19-14-19-16 8-61 28-48 32-51 55-37 9 6 10 11 2 15-20 13-11 26 19 26 17 0 33-7 39-17 8-15 10-11 11 20v37h-46c-31 0-51 5-58 15-10 14-14 14-30 2z"/>
  <path d="m2313 3453c-7-2-13-14-13-24 0-12 5-17 10-14 6 4 18 1 26-6 13-10 13-15-1-35-15-23-14-24 10-24 18 0 31 11 50 40 29 46 31 56 9 64-18 7-73 7-91-1z"/>
  <path id="fi" d="m2024 3362c-88-49-93-72-14-72 60 0 100 17 100 42 0 13-8 18-30 18s-28 4-24 15c7 18 6 18-32-3z"/>
  <path id="fj" d="m2406 3232c-93-49-147-100-94-90 18 3 25 1 21-8-2-7-11-15-18-18-8-3-11-13-8-25 8-31-5-73-20-64-8 4-7 1 2-10 14-18 16-18 77 25 40 29 41 30 33 71-8 44 7 66 44 67 15 0 21 11 18 32 0 4 5 5 13 2s17 0 22 7c5 8 3 10-7 4-8-5-11-5-7-1 5 7 52 13 131 19 9 1 17 9 17 19 0 16-9 18-67 17-61 0-78-6-157-47z"/>
  <path id="fk" d="m2670 3226c0-3 14-18 30-34 24-25 30-39 30-75 0-39 5-49 33-73 49-41 89-54 169-54 63 0 69 2 53 13-11 9-15 19-10 27 6 10 1 12-23 7-18-4-32-3-32 2 0 9-31 8-48-3-8-5-12 0-12 15 0 13-14 38-32 56l-32 33h27c20 0 27 5 27 20 0 11-6 20-14 20s-34 11-57 25c-37 21-109 35-109 21z"/>
  <path id="fl" d="m2029 3149c-24-16-59-40-76-52-25-17-33-29-33-53 0-17 8-38 18-46 15-14 23-12 77 13 33 15 53 28 44 29-28 0-32 31-8 57 13 12 29 23 37 23 9 0 12 6 8 16-3 8-2 13 2 11 4-3 16 4 26 14 19 19 19 19-16 19-23 0-50-11-79-31z"/>
  <path id="fm" d="m3524 3165c-38-17-77-63-69-83 6-17-46-94-79-116-27-17-36-56-13-56 7 0 23 17 34 38 12 20 48 65 81 100 45 48 65 62 88 62 30 1 93 44 82 56-14 13-94 13-124-1z"/>
  <path id="fn" d="m1632 3071c80-86 118-107 64-36-28 37-33 55-13 55 6 0-5 16-25 35-29 27-46 35-74 35h-36z"/>
  <path d="m3081 3109c18-26 20-34 10-56-7-14-10-26-9-27 2-1 23-11 48-23l46-21 12 26c22 47 15 75-29 105-22 15-53 27-70 27h-30z"/>
  <path id="fo" d="m3625 3100c-10-11-13-20-8-20 13 0 38 29 31 35-3 3-13-4-23-15z"/>
  <path id="fp" d="m2252 2998c5-15 28-18 29-3 0 6-7 12-17 13-10 3-15-1-12-10z"/>
  <path id="fq" d="m1600 2917c0-18 16-64 35-103 19-38 35-76 35-85 0-20-31-49-53-49-9 0-21-9-27-20s-21-20-34-20h-23l34-92c19-51 37-95 39-97s35 27 74 65c45 44 70 76 70 90 0 13 6 24 14 26 27 6-126 318-156 318-5 0-8-15-8-33zm95-237c-44-46-63-38-24 11 22 28 35 37 42 30 8-8 2-20-18-41z"/>
  <path id="fr" d="m3479 2897c-34-49-119-232-119-257 0-6 5-8 10-5 6 4 10-6 10-23 0-22 15-43 71-96 38-38 73-65 76-62 4 3 16 37 28 74 13 37 26 75 30 85 5 11 3 17-7 17-13 0-108 118-108 134 0 4 11 25 26 47 25 40 45 139 28 139-5 0-25-24-45-53z"/>
  <path id="fs" d="m2972 2718c-20-20-15-83 8-103 11-10 20-24 20-32s11-13 29-13c28 0 29-2 41-79 11-67 17-81 37-90 32-15 33-14 33 9 0 13 5 18 15 13 13-4 15 2 9 38-4 24-11 53-17 64-8 17-156 205-161 205-1 0-7-5-14-12z"/>
  <path id="ft" d="m2075 2648c-83-102-115-151-110-168 3-9-1-38-9-65s-13-52-10-56c5-8 134 71 134 83 0 3-8 9-17 11-14 4-13 5 3 6 23 1 39 32 64 124 7 26 17 50 21 53 5 3 9 21 9 40 0 52-27 43-85-28zm-70-212c-4-19-14-41-23-48-13-11-14-10-9 14 20 78 45 105 32 34z"/>
  <path id="fu" d="m1390 2405c-49-20-55-26-58-55-3-28-1-30 15-22 10 6 20 10 23 9 12-2 101 27 106 34 3 5-3 6-12 2-14-5-16-2-12 21 3 14 3 28-1 30-3 2-31-7-61-19z"/>
  <path id="fv" d="m3655 2413c4-10 8-25 9-33 1-17 48-38 87-39 14-1 31-7 38-13 10-11 12-7 9 20-3 31-8 36-62 58-72 29-91 31-81 7z"/>
  <path id="fw" d="m2372 2177c-17-18-23-41-28-108-7-85-6-86 17-92 51-14 78-7 114 28 29 30 35 43 35 78-1 35-3 39-13 27-20-25-87-72-87-61 0 6 7 30 15 54 20 60 17 92-10 95-12 1-32-9-43-21z"/>
  <path id="fx" d="m2690 2169c1-19 7-52 15-74 21-57 19-59-19-30-18 14-44 48-57 75-24 51-49 66-49 29 0-12-8-23-20-26-11-3-20-9-20-15 0-16 32-58 45-58 7 0 36-22 63-50 39-39 57-50 81-50 29 0 31 3 31 35 0 19 5 35 10 35 12 0 13 119 2 138-5 7-25 15-45 19-37 6-37 5-37-28z"/>
  <path id="fy" d="m2207 1769c-3-12-10-18-15-15-8 5-52-54-52-70 0-2 18-4 39-4 43 0 51 10 51 65 0 39-15 55-23 24z"/>
  <path id="fz" d="m2698 1778c15-15 16-48 1-48-6 0-9-10-7-22 3-20 10-23 56-26 60-4 63 2 32 66-19 38-24 42-57 42-29 0-34-3-25-12z"/>
  <path id="ga" d="m2912 1735c3-49 4-50 38-53s34-3 15 13c-11 9-14 14-7 10 22-11 13 13-19 47l-30 33z"/>
  <path id="gb" d="m2346 1738c-13-49-8-59 27-56 22 2 31 7 28 18-2 8-3 25-3 38 0 16-6 22-23 22-15 0-25-8-29-22z"/>
 </g>
 <g id="gc" transform="translate(-1280 -1680)" fill="#797979">
  <path id="gd" d="m2415 3734c-6-9-23-16-38-16-31 0-37-24-9-44 16-12 15-13-6-14-46 0-62-17-62-65 0-25 4-45 10-45 5 0 7 6 4 14-11 27 13 25 77-9 35-19 69-34 75-35 7 0 26 14 44 30 18 17 42 30 55 30s37-13 55-30c18-16 37-30 44-30 6 0 35 14 65 30 60 33 97 39 87 15-3-9 0-15 9-15 20 0 20 59-1 88-10 15-25 22-47 22-24 0-28 3-19 12 18 18 15 51-3 44-9-3-24 3-35 14-12 12-33 20-55 20-31 0-35-3-35-25 0-18 5-25 19-25 10 0 25-7 32-16 11-14 10-20-14-40-33-28-82-38-142-30-25 4-47 6-49 4-6-4-41 43-50 66-5 15-4 17 8 7 10-8 16-9 21-1 3 5 15 10 26 10 14 0 19 7 19 25 0 22-4 25-38 25-23 0-41-6-47-16z"/>
  <path id="ge" d="m2860 3556c0-19 5-38 10-41 6-3 15-26 21-51 15-57 38-58 61-3 19 45 15 69-13 69-10 0-28 14-41 30-28 39-38 38-38-4z"/>
  <path id="gf" d="m2225 3551c-4-14-13-18-27-16-30 6-38-12-32-70 8-73-3-93-67-117-29-11-74-21-98-23-35-1-49-7-68-31-12-16-23-33-23-38 0-18 148 11 215 44 22 10 48 20 59 22 14 2 23 24 42 98 13 52 24 105 24 117 0 29-17 38-25 14z"/>
  <path id="gg" d="m2346 3481c-21-23-22-65-1-57 8 3 22 3 31-1 12-4 8-12-20-35-42-34-45-48-13-48 16 0 31 14 55 54 17 30 32 56 32 59s-15 14-34 25c-33 19-35 19-50 3z"/>
  <path d="m2738 3481c-16-9-28-19-28-23s12-32 26-63c22-45 31-55 51-55 24 0 25 1 11 23-8 12-25 26-36 32-34 15-26 25 18 25 49 0 54 24 12 56-25 19-29 19-54 5z"/>
  <path id="gh" d="m2970 3362c0-10 17-34 38-54 38-37 47-40 176-54l49-6-22 31c-30 41-56 54-113 55-34 1-53 7-70 24-29 27-58 29-58 4z"/>
  <path id="gi" d="m1280 3214v-139l43-57c36-50 47-58 75-58 30 0 32 2 32 35 0 34 1 35 40 35 38 0 40 1 40 31 0 22-12 46-37 76-26 32-30 41-14 32 19-12 24-12 35 4 8 10 26 17 45 17 17 0 31 4 31 9 0 30-180 134-252 147l-38 6z"/>
  <path d="m3774 3336c-75-24-214-113-214-137 0-5 11-9 24-9 35 0 56-10 56-27 0-13 4-13 27 2 26 18 26 17-5-21-22-26-32-49-32-71 0-31 2-33 35-33 34 0 35-1 35-40 0-38 1-40 33-40 27 0 38 8 74 58l43 57v138c0 154 4 148-76 123z"/>
  <path id="gj" d="m3255 3081c-3-5-31-7-63-5-46 4-54 2-40-7 14-11 14-15 2-35-13-19-13-24 1-38 21-20 45-21 45-1 0 11 12 15 50 15 53 0 58 6 44 58-6 22-28 30-39 13z"/>
  <path id="gk" d="m1898 3069c-24-14-23-49 0-49 11 0 27-9 37-20 14-15 21-17 32-9 18 15 16 29-4 46-10 8-13 13-8 10 6-2 18 4 28 15 16 17 15 18-25 18-24 0-51-5-60-11z"/>
  <path id="gl" d="m2770 3047c0-8 20-25 45-37s47-26 51-31c7-12 105-11 124 1 13 8 12 11-5 24-13 10-44 15-92 16-58 0-74 3-82 18-6 9-11 13-11 8s-7-3-15 4c-12 10-15 10-15-3z"/>
  <path id="gm" d="m3296 2782c-4-6-2-21 4-33 16-28 7-33-31-20-18 6-41 11-53 11-17 0-13-7 24-40 25-21 48-39 51-40 14 0 30 85 21 109-5 16-11 20-16 13z"/>
  <path id="gn" d="m2136 2719c-27-32-35-55-13-43 9 6 9 5 1-7-7-8-21-45-33-84-23-76-36-103-47-93-3 4 6 41 20 83 14 41 26 78 26 81 0 19-39-47-48-81-28-107-34-134-27-144 25-41 155 52 155 112 0 10 8 27 19 38 21 23 31 62 31 125 0 42-1 44-29 44-20 0-37-9-55-31z"/>
  <path id="go" d="m2900 2719c0-42 19-105 47-154 13-22 28-52 34-67 10-27 124-106 135-95 9 9-30 202-45 224-21 30-33 29-21-2 7-20 6-25-5-25-8 0-15 5-15 12 0 6-10 22-21 35-18 19-20 25-9 38 20 24-23 65-67 65-30 0-33-3-33-31z"/>
  <path d="m1855 2728c-39-14-38-13-30-37 9-29 24-26 70 14 38 32 39 34 15 34-14 0-38-5-55-11z"/>
  <path id="gp" d="m2363 2189c-26-8-34-17-42-47-19-71-31-137-30-172 1-19-2-56-6-82l-8-48h34c69 0 112 24 146 81 18 30 37 54 43 53 5-1 39-2 75-2l65-2 31-50c22-37 37-50 54-50 12 0 28-7 35-15s28-15 46-15h34l-1 93c-2 97-30 235-52 249-6 4-24 8-39 8-22 0-28-5-28-20 0-11 7-23 15-26 17-7 21-74 5-74-5 0-10-16-10-36v-36l-51 51c-28 28-57 51-64 51-8 0-19 9-25 20-11 20-50 28-50 10s-20-11-20 8c-1 9-13-5-27-33-23-44-76-105-90-105-3 0-3 23 0 51 7 60 2 59-18-2l-15-44 6 45c4 25 7 52 8 62 1 9 7 22 13 30 15 18 20 50 8 54-5 1-24-2-42-7z"/>
  <path id="gq" d="m2500 1873c-76-5-100-21-100-70 0-38 1-38 38-19 28 14 95 16 108 3 11-11 44-8 44 3 0 13 87 13 95 0 14-22 26-8 23 28-3 33-6 37-33 40-16 2-34 8-39 13-6 5-24 8-40 7-17-1-60-3-96-5z"/>
 </g>
 <g id="gr" transform="translate(-1280 -1680)" fill="#80807f">
  <path id="gs" d="m1462 3202c-11-23-10-29 5-39 24-18 46-16 39 3-3 9-6 27-6 40 0 32-22 30-38-4z"/>
  <path id="gt" d="m3626 3174c-9-33-3-39 23-22 26 16 28 48 2 48-12 0-21-9-25-26z"/>
  <path id="gu" d="m3665 3144c-25-25-45-54-45-64s-4-22-10-25c-5-3-10-28-10-56v-49h35c24 0 39 6 47 20 7 11 20 20 28 20 19 0 41 35 35 53-3 7 8 32 25 56 34 47 33 65-2 35l-22-19 17 27c9 15 17 30 17 33 0 16-20-1-59-50-24-30-48-55-52-55-18 0-8 30 26 74 45 59 27 59-30 0z"/>
  <path id="gv" d="m1357 3162c3-12 9-25 14-28s9-10 9-16-11-1-25 12-25 20-25 15c0-13 51-76 58-71 4 2 7-12 7-32 0-30 4-37 25-42 16-4 26-14 28-29 5-36 38-61 78-61 36 0 36 0 31 38-8 61-41 138-79 184-44 52-61 44-24-12 14-22 26-44 26-50 0-22-20-7-74 53-37 41-53 54-49 39z"/>
  <path id="gw" d="m2136 2721c-20-22-20-31-1-31 22 0 18-22-10-64-35-51-33-100 3-64 19 19 14 2-15-51-16-27-25-52-21-56 3-4 21 1 38 10 26 13 31 21 27 41-2 15 0 24 8 24 22 0 36 54 33 125-3 59-6 69-25 76-15 5-26 3-37-10zm50-42c-7-44-28-83-39-72-4 3-2 11 3 18 5 6 10 27 12 46 2 29 12 48 27 49 2 0 1-19-3-41z"/>
  <path id="gx" d="m2864 2684c-5-34-3-54 8-73 9-14 18-38 22-53 3-16 12-28 19-28 8 0 24-12 38-26 27-29 78-58 86-50 3 3-2 21-11 40s-16 38-16 44c0 5-7 15-15 22-9 7-13 15-11 18 3 3-3 17-12 31-21 30-43 101-36 113 3 4-11 8-30 8-34 0-35-1-42-46z"/>
  <path id="gy" d="m3e3 2575c0-8 5-15 10-15 6 0 10 7 10 15s-4 15-10 15c-5 0-10-7-10-15z"/>
  <path id="gz" d="m3060 2462c0-21 7-36 22-46 37-26 49-21 36 14-9 29-11 29-24 13-7-10-14-16-14-13-1 3-4 16-6 29-7 37-14 38-14 3z"/>
  <path id="ha" d="m3240 2125c5-68 3-74-12-69-33 10-20-29 24-73 30-30 50-43 70-43 27 0 28 2 28 54 0 38-7 67-22 93-27 47-77 113-86 113-4 0-5-34-2-75z"/>
  <path id="hb" d="m1848 2158c-55-75-68-107-68-173 0-36 5-67 11-71 15-9 139 116 139 140 0 16-3 17-12 8-23-23-28-12-28 58 0 39-4 70-9 70s-20-15-33-32z"/>
  <path id="hc" d="m2607 1868c-8-29 10-49 42-46 15 2 26-2 26-10 0-17 74-84 86-77 23 15 8 71-30 113-33 36-44 42-79 42-32 0-41-4-45-22z"/>
  <path d="m2280 1741c-5-11-10-29-10-40 0-18 6-21 45-21h45v40c0 39-1 40-35 40-24 0-37-6-45-19z"/>
 </g>
 <g id="hd" transform="translate(-1280 -1680)" fill="#8a8b8a">
  <path d="m1468 3211c-7-45 7-61 52-61 21 0 42-4 45-10 12-19 25-10 25 18 0 33-30 65-63 67-12 1-29 5-38 9-13 6-18 0-21-23z"/>
  <path id="he" d="m3639 3236c-2-3-16-6-30-8s-33-11-43-20c-19-20-23-83-4-72 7 5 26 7 42 6 16-2 37 5 47 14 20 18 26 54 9 54-5 0-7 7-4 15 6 14-7 21-17 11z"/>
  <path id="hf" d="m3747 3094c-20-31-37-61-37-65 0-5-5-9-11-9s-8 7-5 15c20 50 20 48-2 36-12-7-22-20-22-30s-9-29-20-42l-19-24-1 22c0 12 5 25 10 28 6 3 10 19 10 35s5 32 10 35c6 3 10 13 10 20 0 24-29 5-66-43-30-40-35-53-32-92l3-45 52-3c54-3 93 10 93 31 0 7 7 25 15 40s12 33 9 40c-2 7 9 32 26 55 32 44 35 52 22 52-4 0-24-25-45-56z"/>
  <path d="m1470 3110c0-6 4-18 9-28 6-9 13-35 17-57s9-32 11-23 15 18 29 20l25 3-31 41c-30 41-60 63-60 44z"/>
  <path id="hg" d="m1391 3036c12-65 23-76 73-75 22 0 35 3 29 6-7 2-13 13-13 23 0 22-45 92-53 83-4-3-1-15 5-27 11-20 10-20-8-6-10 8-24 22-31 30-9 12-9 4-2-34z"/>
  <path id="hh" d="m2191 2776c-65-66-74-90-25-67l27 12-7-43c-7-43-31-101-63-152-13-21-15-30-5-33 6-3 10-9 6-14-9-16 8-10 82 28l72 37v43c1 24 6 52 12 62 15 30 12 67-9 105-11 18-21 46-23 60-3 26-5 25-67-38z"/>
  <path d="m2870 2803c0-16-7-41-15-57-18-34-18-75-1-141 11-40 18-51 37-54 13-1 28-8 32-15 13-18-3 77-16 99-7 11-11 31-9 44l4 23 12-24c7-13 23-57 35-96 12-40 26-72 30-72 13 0 6 72-10 101-17 31-40 102-34 108 3 2 17-1 31-8 15-6 29-9 32-6 7 6-108 125-120 125-4 0-8-12-8-27z"/>
  <path id="hi" d="m2463 2006c-10-13-31-46-47-72-28-47-30-48-36-24l-6 25-14-25c-13-25-29-40-42-40-4 0 2 25 13 57 23 68 23 73 4 73-8 0-15 5-15 10 0 6-6 10-13 10s-25-37-41-87c-16-49-31-94-33-100-7-19 33-16 62 3s33 5 10-36c-8-14-14-47-14-75 0-50 0-50 15-22 18 34 28 35 20 2-6-22-3-25 18-25 18 0 27 8 35 31 6 17 28 47 48 66 23 21 30 31 18 27-20-7-20-7-1 14 21 24 42 29 48 10 3-7 11-9 24-3 10 4 27 7 37 6 14-2 17 6 17 38 0 30-4 41-15 41-20 0-19 12 5 38 30 32 26 61-8 60-15-1-37 4-49 11-18 9-24 7-40-13z"/>
  <path id="hj" d="m2612 2008c-21-11-22-16-18-86 3-50 10-80 21-91 14-15 16-14 21 7 4 12 11 22 17 22 14 0 81-79 82-99 1-9 8-29 16-46 12-26 20-30 62-33 46-3 47-2 47 25 0 15-9 43-20 61-22 36-26 52-8 34 7-7 27-12 46-12 38 0 39-13-11 138-17 50-35 92-41 92s-20-7-30-15c-18-14-18-16-2-58 9-23 16-52 16-62-1-18-4-16-26 9-21 23-28 26-35 15s-14-8-34 15c-14 16-25 34-25 41 0 11-42 56-51 54-2 0-14-5-27-11z"/>
 </g>
 <g id="hk" transform="translate(-1280 -1680)" fill="#989a98">
  <path id="hl" d="m3560 3011c-29-44-41-111-20-111 6 0 10-6 10-14 0-10 18-17 57-22 50-6 58-4 74 15 9 11 24 21 33 21 13 0 66 75 66 94 0 3-11 4-25 0-27-7-33 4-13 24 10 10 10 15-2 22-11 7-20 3-32-13-10-12-18-27-18-34 0-26-72-45-85-22-4 5 0 18 9 28 23 25 21 57-4 57-14 0-32-16-50-45z"/>
  <path d="m1490 3038c0-7 9-32 20-55 22-49 19-53-14-18-13 14-28 25-34 25s-19 11-30 25c-26 33-32 32-32-10 0-38 27-99 67-152 19-26 31-33 58-33 29 0 34 4 37 28 2 19 9 28 26 30 34 5 30 61-10 123-26 39-38 49-60 49-16 0-28-5-28-12z"/>
  <path id="hm" d="m2259 2707c6-8 8-17 5-20-4-3-10-27-15-52-5-29-17-54-31-65-48-39 14-43 115-9 67 24 67 24 67 61 0 38 0 38-40 38-38 0-40 2-40 30s-3 30-36 30c-29 0-34-3-25-13z"/>
  <path id="hn" d="m2821 2683 4-38h-40c-38 0-40-2-43-32-3-28 0-33 25-39 15-3 47-14 70-25 60-27 93-25 92 4 0 12-4 31-9 42-8 19-9 19-9 1-1-32-19-5-23 34-2 19-7 38-13 42-7 5-6 14 3 28 11 19 10 20-24 20-36 0-36 0-33-37z"/>
  <path id="ho" d="m2923 2668c3-9 11-35 17-57 11-40 30-65 30-38 0 25-22 81-38 97-13 13-14 13-9-2z"/>
  <path d="m2180 2645c-6-16-14-43-17-59-9-45 14-23 27 25 14 50 7 75-10 34z"/>
  <path id="hp" d="m2617 2009c-9-6-27-7-38-4-25 8-64-33-73-78-10-52-7-99 7-94 6 2 11 11 9 20-1 8 2 18 8 22s10-4 10-19c0-21 5-26 25-26 14 0 25 5 25 12 0 9 3 9 12 0 25-25 31-11 25 69-3 50-2 79 5 77 5-2 20-30 33-63 14-33 34-72 45-87s22-42 24-60 4-37 5-42c0-5 4-6 8-3 3 4 15 0 25-10 17-15 18-15 18 1 0 22-64 187-86 223-21 34-55 73-63 73-3 0-14-5-24-11z"/>
  <path id="hq" d="m2463 1990c-21-8-93-142-93-173 0-7-4-17-9-22-6-6-13-30-17-55-7-41-6-44 9-31 10 7 17 10 17 5s9 5 20 21c21 32 26 50 11 40-14-8 4 49 23 77 9 12 16 32 16 45 0 12 5 25 10 28 6 4 8 10 5 15s-1 11 5 15c9 6 34 46 28 44-2 0-13-4-25-9z"/>
  <path id="hr" d="m2348 1888c-22-22-38-23-38-3 0 48-72-36-104-120-14-39-26-74-26-78s26-7 58-7h59l25 63c44 107 50 125 46 144-3 18-4 18-20 1z"/>
  <path id="hs" d="m2772 1855c3-27 18-78 34-112l29-62 75 1c41 0 67 2 58 5-10 2-18 9-18 15s-12 36-26 68c-17 37-31 57-42 56-9 0-21 8-26 20-6 11-20 29-31 40-17 17-18 17-12 2 3-10 3-18 0-18-4 0-15 8-26 18-19 17-20 16-15-33z"/>
 </g>
 <g id="ht" transform="translate(-1280 -1680)" fill="#a1a2a1">
  <path id="hu" d="m2245 3586c-14-24-36-86-49-137-19-73-28-95-42-97-11-2-37-12-59-22-37-18-105-38-149-44-19-2-66-52-66-70 0-15 134 5 161 25 15 10 34 19 42 19s20 7 27 15c6 8 38 17 71 21l59 7v39c0 22 6 54 14 71 28 64 47 217 26 217-5 0-21-20-35-44z"/>
  <path d="m3088 3303c-27-7-22-29 11-52 21-15 45-21 85-21 58 0 68 8 40 31-12 10-117 53-119 48 0-1-8-3-17-6z"/>
  <path id="hv" d="m1384 3068c2-7 7-27 10-45 5-28 2-32-19-35-23-3-22-7 51-133 68-119 104-161 104-121 0 12 10 16 40 16 24 0 43 5 46 13s18 11 46 9c22-3 39 0 36 4-2 5-26 52-51 104-56 112-65 125-94 132-30 8-30-10 2-57 15-20 23-40 20-43-3-4-10-1-14 7-6 10-10 9-15-5-6-15-10-14-36 11-37 35-39 22-4-28 14-21 24-41 21-43-9-9-55 60-92 138-32 68-62 113-51 76z"/>
  <path id="hw" d="m3711 3032c-19-35-13-48 11-24 16 16 19 25 11 33s-14 6-22-9z"/>
  <path id="hx" d="m3522 2957c-18-29-32-58-32-65s-11-30-24-51c-14-21-22-42-19-45 4-3 26-6 49-6 34 0 44 4 49 21 10 30 29 9 45-51 7-27 19-50 25-50s21 21 34 48c13 26 45 84 72 128 27 45 49 85 49 89 0 13-45-7-61-28-17-21-17-21-12 5 4 23 2 26-16 21-12-3-31-17-44-32-12-15-31-30-40-34-15-6-17-3-12 13s3 19-12 13c-17-6-17-5 0 14 21 24 22 49 1 57-9 3-17 6-18 6s-16-24-34-53zm134-43c-10-14-20-23-23-21-2 3 3 17 13 31 9 15 19 24 22 22 2-3-3-17-12-32z"/>
  <path id="hy" d="m2850 2755c-6-17-20-27-40-31-21-5-30-12-30-25 0-15-7-19-35-19-33 0-35-2-35-33 0-38 21-61 65-71 29-7 29-7 12 12-12 13-15 22-8 27 6 3 16-5 23-19 8-20 19-26 43-26 17 0 34 3 37 6 5 5-2 35-22 90-6 15-3 24 11 32 10 7 19 19 19 26 0 8 5 16 12 18 19 7 1 38-22 38-13 0-24-10-30-25z"/>
  <path id="hz" d="m2274 2709c-3-6-1-15 7-19 9-6 10-12 2-22-19-24-27-80-12-89 42-26 79 22 79 102 0 38-1 39-34 39-19 0-38-5-42-11z"/>
  <path id="ia" d="m2016 2132c-128-86-246-196-228-214 9-9 26 2 79 53 38 36 110 91 161 123 74 47 92 63 92 82 0 13-1 24-2 24-2 0-48-31-102-68z"/>
  <path id="ib" d="m3050 2148c0-17 16-32 63-60 34-20 90-61 124-92 41-38 70-56 87-56 14 0 26 5 26 10 0 6-6 10-13 10s-33 20-57 45c-25 25-63 58-85 73-22 14-60 41-84 59-52 39-61 41-61 11z"/>
  <path id="ic" d="m2362 1913c-1-7-11-21-22-31s-24-41-29-68-13-57-16-66c-15-39 5-14 40 48 26 48 35 76 32 98-2 17-5 26-5 19z"/>
  <path id="id" d="m2755 1903c3-10 9-29 12-43 2-14 16-38 30-55l25-30-7 40c-3 22-16 55-28 72-23 35-44 44-32 16z"/>
  <path id="ie" d="m2715 1859c8-23 15-48 15-56 0-7 11-26 25-41 20-21 25-23 25-10 0 32-52 148-66 148-11 0-11-7 1-41z"/>
  <path id="if" d="m2400 1861c0-5-6-16-13-23-28-30-52-118-27-103 19 12 59 135 45 135-3 0-5-4-5-9z"/>
  <path id="ig" d="m2275 1830c-4-6-18-15-31-20-42-16-53-90-14-90 21 0 44 26 58 66 10 33 1 67-13 44z"/>
  <path id="ih" d="m2836 1823c-13-13 35-103 55-103 14 0 26 64 17 85-8 18-59 31-72 18z"/>
 </g>
 <g id="ii" transform="translate(-1280 -1680)" fill="#b4b5b4">
  <path id="ij" d="m2307 3688c-36-48-44-68-52-121-4-26-11-49-15-52-5-3-6-14-3-25s1-26-4-33c-20-24-41-105-31-115 6-6-12-12-50-16-40-4-65-13-77-26-17-18-16-19 34-26 45-6 49-9 41-25-6-10-10-31-10-48v-30l45 16c42 14 45 17 45 52 0 20 8 48 17 61 18 25 23 39 27 75 1 11 5 27 9 35 3 8 11 34 17 58 8 31 16 42 30 42 25 0 25 8-1 36-20 21-20 23-4 48 21 32 45 39 95 31 42-7 52 3 25 25-8 7-15 18-15 25 0 14-58 45-84 45-8 0-26-15-39-32z"/>
  <path id="ik" d="m2713 3685c-19-19-33-40-31-47 3-7 25-12 56-13 47 0 52 2 52 23 0 15 6 22 20 22 25 0 26 12 2 33-29 26-61 20-99-18z"/>
  <path d="m2830 3568c0-46 7-105 15-132 8-26 12-53 9-58s2-20 10-33c9-14 14-25 10-25s-1-7 7-16c7-9 15-34 18-57 5-37 10-43 46-55 22-8 47-17 55-20 16-6 29-8 97-18 36-5 44-3 50 12 9 27 23 34 66 34 39 0 44 8 27 41-8 13-22 19-48 19-21 0-48 9-62 20s-32 20-40 20c-9 0-34 18-55 40-22 22-49 40-61 40-18 0-24 11-39 68-21 75-80 202-95 202-6 0-10-35-10-82z"/>
  <path id="il" d="m3524 3176c-33-30-56-57-52-61 11-11 113 29 111 43-2 7 1 12 7 12 5 0 14 9 20 20 8 15 6 21-9 29-15 9-28 1-77-43z"/>
  <path id="im" d="m1533 3213c-21-8-15-24 23-59 27-26 44-34 72-34l37 1-53 49c-54 51-57 52-79 43z"/>
  <path id="in" d="m3541 2878c-17-23-31-46-31-50 0-5-12-7-27-6-21 2-30-3-41-25-17-34-11-62 22-102 31-38 50-24 45 32l-4 38 52-3c29-2 53 0 54 5 7 50 5 72-6 77-8 3-11 13-8 26 4 14 1 20-8 18s-13 4-11 15c4 26-3 21-37-25z"/>
  <path d="m2249 2827c-24-18-30-69-11-84 43-32 102 3 102 61 0 35-1 36-37 36-21 0-45-6-54-13z"/>
  <path d="m2790 2810c0-20-5-30-15-30-11 0-15-12-15-50 0-47-11-63-25-40-3 6-22 10-41 10-29 0-34-4-34-22 0-22-4-23-55-20-53 4-55 3-55-21s4-25 72-32c40-4 90-14 112-21 64-23 71-18 36 26-29 37-30 40-11 40 14 0 25-11 35-35 8-19 20-35 27-35 11 0 10 11-7 85-5 23-4 27 6 19 9-9 17-6 34 10 12 11 25 29 29 39 3 9 10 17 16 17 13 0 6 56-9 75-8 9-29 15-56 15-42 0-44-1-44-30z"/>
  <path id="io" d="m1517 2814c-26-74-26-76 0-138 41-98 60-100 130-13 28 34 52 69 54 77 6 32-12 57-50 68-50 16-61 15-61-2 0-27-20-27-43 0-22 25-24 26-30 8z"/>
  <path id="ip" d="m2303 2636c-12-24-19-46-16-50 14-13 34-5 45 19 6 14 17 25 25 25 11 0 11-4 3-21-15-28-8-33 35-25 34 7 35 8 35 51v45h-52c-52-1-53-1-75-44z"/>
  <path id="iq" d="m2475 2530c-22-5-68-17-102-26l-63-16v-221l73 8c66 8 253 9 372 3l50-3 9 99c11 117 12 116-98 142-88 20-188 26-241 14z"/>
  <path d="m2170 2237c0-8-12-19-26-26-14-6-49-30-77-54-94-76-98-97-10-44 32 19 77 44 101 56 35 18 42 26 42 51 0 20-5 30-15 30-8 0-15-6-15-13z"/>
  <path id="ir" d="m2990 2186c0-16 18-32 69-64 37-23 74-42 82-42 19 0-105 116-131 123-16 4-20 0-20-17z"/>
 </g>
 <g id="is" transform="translate(-1280 -1680)" fill="#bdbebd">
  <path id="it" d="m2736 3678c-22-31-20-35 13-41 16-4 38-19 51-36l21-31-27-35c-23-30-24-36-10-41 9-3 23-21 32-40 13-27 22-34 45-34h28l-14 48c-8 26-15 73-15 106 0 80-28 126-75 126-24 0-39-7-49-22z"/>
  <path id="iu" d="m2350 3676c0-8 4-17 9-20 11-7 33 18 24 27-12 12-33 7-33-7z"/>
  <path id="iv" d="m2272 3507c-6-23-10-45-9-48s-4-13-12-22c-12-15-10-17 13-17 19 0 32 8 44 30 11 19 26 30 44 32l26 3-21 26c-12 15-34 29-48 33-25 5-28 2-37-37z"/>
  <path id="iw" d="m2494 3438c-11-12-32-41-47-63-40-61-70-92-94-100-27-8-28-17-7-50 21-32 67-33 123-3 35 18 41 27 41 53 0 17-5 36-12 43-9 9-9 12 0 12 13 0 25 54 20 99l-3 33z"/>
  <path id="ix" d="m2613 3350c2-112-7-97 95-152 59-32 62-33 62-15 0 8 11 24 25 37 34 32 31 48-8 55-33 7-69 44-129 134-40 60-46 52-45-59z"/>
  <path id="iy" d="m2220 3335c0-9 5-15 11-13s11 8 11 13-5 11-11 13-11-4-11-13z"/>
  <path id="iz" d="m2165 3310c-4-6-23-7-44-4-24 4-41 2-45-5-4-6-14-11-23-11-8 0-27-8-41-19-15-10-46-21-70-24s-46-8-49-11c-14-14 10-35 46-41 31-5 41-11 41-26 0-16 7-19 40-19 23 0 54 7 70 15 17 9 30 11 30 6s12-5 29 2c17 6 28 14 25 18-2 4 7 30 22 58 14 28 22 56 19 61-8 13-42 13-50 0z"/>
  <path id="ja" d="m2770 2836c0-14-4-28-10-31-5-3-10-28-10-54 0-43 3-49 24-53s24-1 22 24c-2 33 9 37 24 8 6-11 16-20 22-20 7 0 7 4-1 13-7 10-7 17 0 24 8 8 6 18-6 37-15 22-15 26-2 26 8 0 20-7 27-15 17-20 24-12 11 12-5 10-12 26-15 36-4 12-16 17-46 17-36 0-40-3-40-24z"/>
  <path d="m3493 2812c-28-22-41-71-22-83 11-6 11-11 2-20s-3-23 25-60c51-69 74-67 108 9 29 65 32 89 14 132-14 33-27 38-36 15-9-21-39-19-55 5-13 19-15 19-36 2z"/>
  <path id="jb" d="m2249 2807c-24-18-33-53-14-61 8-3 15-11 15-19 0-7 11-23 24-34 18-16 27-18 36-10 10 10 11 5 6-21-3-18-2-31 3-28s26 8 46 11c32 4 35 2 24-11-10-12-9-18 4-31 14-15 24-15 80-5 36 7 76 12 91 12 16 0 25 4 21 10-3 6 3 10 15 10 13 0 20 5 18 13-3 7-29 13-71 15-67 3-67 3-67 32 0 17-4 30-9 30s-6 20-3 45l5 45h-52c-28 0-51-4-51-10 0-5-9-10-20-10s-20 7-20 15c0 19-57 20-81 2zm61-3c0-11-45-42-54-37-5 3 2 14 15 24 24 19 39 24 39 13z"/>
  <path id="jc" d="m1568 2763c-30-35-36-55-26-85 12-34 32-32 33 3 0 14 6 24 15 25 39 3 41 5 38 37-4 38-35 49-60 20z"/>
  <path id="jd" d="m1340 2385c-38-13-49-35-27-54 18-15 37-7 61 25 24 33 10 45-34 29z"/>
  <path d="m3740 2390c0-5 12-23 28-40 20-23 33-28 50-24 39 11 27 40-25 58-55 19-53 19-53 6z"/>
  <path d="m2940 2217c0-29 5-35 55-59 33-16 57-23 61-16 8 13-31 54-67 68-16 7-29 19-29 26 0 8-4 14-10 14-5 0-10-15-10-33z"/>
 </g>
 <g id="je" transform="translate(-1280 -1680)" fill="#c5c6c5">
  <path id="jf" d="m2230 3401c-12-23-13-81-2-81 10 0 43 36 65 73l17 27h-34c-25 0-38-6-46-19z"/>
  <path id="jg" d="m2480 3379c0-6-7-17-15-25-19-20-19-54 1-68 13-10 9-15-28-34l-42-23-18 24c-16 22-21 23-58 14-33-9-41-16-46-42-7-39 10-85 33-85 10 0 32 9 49 19 17 11 64 36 103 56 62 32 72 41 67 59-4 11-11 42-17 69-6 26-15 47-20 47s-9-5-9-11z"/>
  <path d="m2090 3209c-17-14-21-22-12-26 6-2 12-11 12-19 0-18 4-18 40 1 29 15 32 40 6 57-15 11-18 10-46-13z"/>
  <path id="jh" d="m2288 2859c-11-6-18-22-18-41 0-25 3-29 12-20 20 20 28 13 21-20-5-27-4-30 11-25 9 4 26 1 37-6 17-10 23-9 39 11 10 12 25 22 34 22 15 0 15-3 1-30-8-16-15-35-15-41 0-7-7-21-17-31-15-17-15-18 7-18 12 0 29 8 36 18 11 15 12 13 8-18l-6-35 252-2v26c1 22 3 24 13 11 7-9 30-15 60-16 47 0 48 0 41 25-4 14-6 36-5 49 0 15-3 21-11 16s-9 2-5 24c6 28 3 34-23 47-41 21-120 20-120-1 0-14-10-16-71-12-39 3-76 11-82 17-15 15-94 14-100-1-3-7-6 4-6 25-1 36-2 37-38 37-21 0-46-5-55-11z"/>
  <path id="ji" d="m2778 2348c-2-34-7-43-20-42-23 2-24-32-2-40 9-3 36-6 60-6 43 0 44 0 44 34 0 25-5 35-20 39-14 3-20 14-20 31 0 19-5 26-19 26-16 0-20-8-23-42z"/>
  <path id="jj" d="m1298 2373c-12-3-18-14-18-34 0-32 18-37 57-16 21 12 22 14 7 35-8 12-18 21-22 21-4-1-15-3-24-6z"/>
  <path d="m3810 2369c0-5-7-9-15-9-22 0-19-27 4-40 35-18 51-12 51 19 0 20-6 30-20 34-11 3-20 1-20-4z"/>
 </g>
 <g id="jk" transform="translate(-1280 -1680)" fill="#d8d9d8">
  <path id="jl" d="m2457 3725c17-23 24-24 106-25 74 0 90 3 107 20 11 11 20 22 20 25s-56 5-125 5h-126z"/>
  <path d="m2765 3502-29-34 27-24c16-13 35-24 42-24 8 0 26-18 39-39 29-46 44-57 58-43s-7 83-37 118c-14 16-25 34-25 40 0 7-10 18-22 26-21 13-25 12-53-20z"/>
  <path d="m2265 3458c-26-42-35-67-33-91l3-32 39 43c22 23 46 42 55 42 8 0 27 12 42 26l28 27-22 17c-12 9-34 19-49 22-24 4-31-1-63-54z"/>
  <path id="jm" d="m2284 3255c-4-8-2-21 4-28 6-6 12-23 14-37 6-45 88-35 96 13 2 9-1 17-6 17s-14 11-20 25c-9 20-19 25-47 25-23 0-38-6-41-15z"/>
  <path id="jn" d="m2756 3241c-15-15-26-34-24-42 5-21 55-49 88-49 25 0 30 5 35 33 4 18 2 45-4 60-15 38-58 37-95-2z"/>
  <path id="jo" d="m1880 3215c-23-61-41-137-38-162 6-56 77-36 208 61 34 25 66 46 70 46s8 11 8 25c0 29-27 33-68 10-34-20-50-18-50 3 0 14-13 21-51 30-67 16-68 16-79-13z"/>
  <path id="jp" d="m3162 3229c-35-7-47-15-47-30 0-13-15-12-63 7-53 20-80 13-59-15 33-49 226-171 268-171 30 0 33 52 8 135-12 41-25 75-28 76-33 4-51 4-79-2z"/>
  <path id="jq" d="m2478 3030c-104-68-248-205-248-236 0-32 7-30 59 11 24 19 48 35 52 35 5 0 9-20 9-45v-45l46 23c44 21 46 21 59 3 8-11 21-16 30-13 8 4 15 3 15-1s37-7 82-7c71 0 83 3 86 18 5 23 29 22 70-3l33-21 20 23c10 13 17 31 15 41-6 24 4 21 46-13 35-29 37-30 47-11 9 16-1 31-78 104-82 77-232 187-256 187-5 0-45-23-87-50z"/>
  <path id="jr" d="m2138 3003c-37-9-20-38 30-50 43-10 50-9 85 13 21 14 35 29 32 34-6 10-114 12-147 3z"/>
  <path id="js" d="m2901 3003-53-4 23-25c23-25 51-29 122-18 20 4 37 12 37 19 0 12-54 38-69 33-3-1-30-3-60-5z"/>
  <path id="jt" d="m2019 2951c-14-11-39-45-55-76-28-55-29-56-10-71 26-19 56-18 56 2 0 8 9 37 21 64 11 26 19 60 17 75l-3 27z"/>
  <path id="ju" d="m3063 2955-23-12 25-23c14-13 33-46 43-72 15-42 20-48 45-48 40 0 43 22 11 80-36 66-70 91-101 75z"/>
  <path d="m2785 2426c1-39 3-81 4-94s10-27 24-33c17-7 14-8-17-4-29 5-37 3-34-7 5-15 76-24 90-10 5 5 6 51 2 104l-7 95-32 10-33 10z"/>
 </g>
 <g id="jv" transform="translate(-1280 -1680)" fill="#e1e2e2">
  <path id="jw" d="m2519 3463c-37-41-51-108-36-168l12-48 71-1 72-1 11 50c8 34 8 61 1 84-5 19-7 37-5 40 10 9-59 71-80 71-12 0-32-12-46-27z"/>
  <path id="jx" d="m2028 2959c-10-5-15-16-11-24 3-8-1-25-9-38-9-13-12-32-8-47 6-24 7-24 27 15 12 22 30 49 42 59 20 18 20 20 3 32-20 16-22 16-44 3z"/>
  <path d="m2290 2481c-15-4-25-14-24-24 0-9 1-60 2-112l2-95h38c56 0 82 10 82 31 0 13-7 19-24 19-24 0-25 0-22 95 3 103 3 102-54 86z"/>
 </g>
 <g id="jy" transform="translate(-1280 -1680)" fill="#f8f8f7">
  <path id="jz" d="m2086 2984c-58-21-71-34-52-52 14-15 19-14 66 13 14 8 38 15 54 15 28 0 29 0 11 20-21 23-27 23-79 4z"/>
  <path id="ka" d="m2982 2989c-35-13-27-35 13-35 18 0 42-8 53-17 33-30 79-14 52 18-18 22-92 43-118 34z"/>
  <path id="kb" d="m2223 2456-52-25-3-121c-2-67 0-124 3-126s38 10 78 27c215 90 449 85 667-16 85-39 109-37 69 5-22 23-26 36-25 76 1 27 1 73 1 102l-1 53-52 24c-73 34-88 33-90-7-2-41-1-62 5-115 6-49 7-49-77-27-89 24-281 21-367-6-35-11-68-20-72-20s-7 40-6 89c1 84-3 111-19 111-4 0-30-11-59-24z"/>
 </g>
</svg>
