<svg id="a" class="img-fluid" width="257.19" height="207.49" version="1.1" viewBox="0 0 2571.9 2074.9" xmlns="http://www.w3.org/2000/svg">
 <g id="b" transform="translate(-1279,-1676)" fill="#38091b">
  <path id="c" d="m1940 3604c-24-61-9-104 35-104 41 0 65 33 65 90v40h-45c-40 0-47-3-55-26z"/>
  <path id="d" d="m1891 2031c-10-7-11-24-5-82l9-74 36-3c32-3 37 0 43 23 4 15 4 53 0 86-6 58-7 59-38 59-17 0-37-4-45-9z"/>
  <path id="e" d="m2053 1913c-16-6-17-69-2-79 28-17 138-16 188 2 47 17 51 20 51 51v33l-112-1c-62 0-119-3-125-6z"/>
 </g>
 <g transform="translate(-1279,-1676)" fill="#411525">
  <path id="f" d="m1600 3727c0-13 4-27 9-32 19-20 131-382 131-424 0-3-53-4-117-3-68 2-130-1-145-7-24-9-28-16-28-51 0-33 4-42 25-52 19-8 25-19 25-41s13-43 46-79c42-45 96-145 129-239l14-39h-29c-29 0-30-2-30-47 0-44-6-55-73-138-48-60-94-104-137-132-35-23-81-56-102-73-38-31-38-31-38-105 0-66 2-75 18-75 10 0 35 18 56 39 21 22 58 54 82 71l44 31v-25c0-20-14-36-60-70-33-24-78-53-100-63-38-17-39-20-40-65 0-28 5-48 13-51 9-4 9-6 0-6-9-1-13-19-13-57v-57l33 6c18 3 104 36 192 75 208 91 205 90 205 57 0-14 6-28 14-31 11-4 13-26 11-106-4-100-4-101-39-137-30-30-36-44-36-79v-42h88c55 0 92 4 100 12 9 9 15 9 24 0 8-8 49-12 119-12h108l-1 38c0 22 7 52 16 68 10 16 14 20 10 9-3-11-9-42-12-68l-5-48 144 3c135 3 144 4 147 23 2 11 10 44 18 73l15 52h54c52 0 54-1 65-35 11-32 15-35 51-35 38 0 39 1 39 35 0 40 24 49 33 13 3-13 14-45 24-73l19-50 81-3c71-2 82-1 86 15 4 17 5 17 6 1 1-15 11-18 67-18h67l-6 42c-3 24-9 54-12 68l-6 25 15-25c8-14 18-44 22-67l6-43h102c95 0 104 2 125 24 12 13 26 40 32 60 7 24 20 41 39 51 52 27 64 56 56 139-5 59-4 75 9 86 8 7 15 23 15 37 0 31-2 31 213-63 93-41 179-74 193-74 23 0 24 3 24 59 0 48-3 60-17 64-17 4-17 5 0 6 13 1 17 10 17 46 0 29-4 45-12 45-25 0-198 125-198 143 0 9 6 17 14 17 16 0 98-63 135-104 14-14 33-26 43-26 16 0 18 9 17 78v77l-52 40c-29 22-64 45-78 51-41 18-92 68-158 154-54 71-61 85-61 125 0 43-1 45-30 45-16 0-30 2-30 4s20 49 44 104c41 96 78 154 125 196 13 12 21 31 21 51 0 24 6 35 25 43 34 16 36 74 3 96-25 18-209 23-250 7l-24-9 17 66c9 37 25 96 34 132 21 81 63 206 81 242 28 55 24 58-92 58h-107l5-45c7-57-6-59-18-2l-9 42-63 3c-59 3-62 2-62-20 0-13 9-43 20-67s20-53 20-65c1-11 7-43 14-71 10-37 10-54 2-67-17-28-21-22-22 40-1 84-19 125-85 192l-59 60h-170v-57c0-55 0-56-20-38-11 10-28 35-37 57l-17 38-255-2-254-3-11-32c-6-18-21-43-33-55l-23-22v114h-171l-55-51c-47-45-54-57-54-90 0-28-4-39-15-39-12 0-15-14-15-66 0-56-2-65-14-55-10 9-12 21-5 51 5 21 8 56 7 77 0 21 9 60 20 87 36 80 33 87-40 84l-63-3-9-42c-12-57-25-55-18 2l5 45h-107c-104 0-106 0-106-23zm1025-51c28-13 84-52 125-87l75-64-45-5c-44-5-45-6-48-45-3-40-2-40 45-55 41-13 51-21 68-57 19-42 21-43 66-43 41 0 48-3 58-27 13-34 62-231 90-364 14-70 33-122 70-193 42-80 54-116 71-208 11-61 20-115 20-119s-18-1-39 8c-33 13-40 21-45 52-3 21-17 54-31 74-23 35-23 37-5 37 16 0 20 7 20 35 0 29-5 37-26 45-34 13-114 13-154-1-32-12-32-13-27-60 4-29 2-49-3-49-6 0-10 7-10 15 0 29-150 13-158-17-10-41-22-14-22 51 0 59-4 74-25 99-14 17-25 35-25 41s-17 11-40 11h-40v-58c0-46 4-63 20-77 11-10 20-31 20-48 0-29 0-30-46-24-28 3-54 13-67 26l-21 21 22 23c17 18 22 35 22 80v57h-37c-34-1-41-6-67-47-18-28-31-64-34-94-4-47-6-48-31-43-14 3-35 9-46 14s-37 11-57 15c-27 4-38 11-38 23 0 30-21 42-72 42-48 0-48 0-48-34 0-31-4-36-36-46-41-14-70-54-79-111-6-32-12-40-41-49-20-7-38-9-41-6s4 54 16 113c16 80 35 134 71 209 28 55 56 129 65 165 53 237 88 376 101 403 14 29 19 31 58 28 42-4 44-2 62 34 15 31 28 41 66 54 46 14 48 17 48 52 0 40-19 58-62 58-21 1-20 4 17 37 91 81 168 129 210 132 6 0 33-10 60-23zm-490-103c-4-43-14-91-22-108-9-16-24-47-35-67-29-59-48-48-53 31-2 25-6 63-10 84-6 33-5 37 14 37 12 0 21 5 21 10 0 10 78 90 87 90 3 0 2-35-2-77zm935 4c37-47 48-82 43-130-4-34-2-47 7-47 7 0 1-9-13-20s-28-20-32-20c-3 0-21 33-40 73-24 51-35 93-40 146l-7 74 33-27c18-15 40-37 49-49zm-1060 9c0-6-9-22-19-35-21-27-34-11-21 25 8 21 40 29 40 10zm-31-328c32-28 37-48 25-108-10-46-30-48-73-6-29 28-40 49-49 94-7 31-15 68-18 80-7 24-7 24 38-5 25-15 59-40 77-55zm1277 2c-17-64-29-87-61-120-21-22-42-40-47-40-9 0-28 67-28 103 0 32 33 64 109 109 25 15 46 28 47 28l-20-80zm-1507-131c60-29 125-91 167-161 33-54 35-60 20-77-20-22-83-159-102-220-7-25-14-66-15-91l-1-45-46 100 22 5c48 13 26 140-50 292-43 86-53 113-43 124 6 7 9 32 7 54s-3 40-3 40c1 0 21-9 44-21zm1673-24c-3-35 0-46 12-51 15-6 15-8 2-23-21-24-96-188-112-246-24-86-17-145 17-145 17 0 17-3-4-52l-22-53-6 65c-7 68-61 210-104 274l-23 34 23 43c36 68 83 118 149 160 34 21 63 39 66 39s4-20 2-45zm96-716c-3-36-5-39-20-27-11 9-17 33-20 75l-4 62 23-35c18-25 23-45 21-75zm-1866 37c-3-53-7-65-22-69-31-8-31 59-1 101 13 17 24 32 25 32 0 0 0-29-2-64zm1098-11c52-8 131-26 175-39l80-23-4-62c-2-37 2-67 8-75 7-8 42-17 81-21l70-7v-86l-74-7-73-7-13-37c-6-20-10-50-8-66 3-27 7-30 46-33 23-2 42-8 42-14 0-8-42-9-142-5-79 4-185 7-236 7h-92l33 48 34 47 111 3 112 3v82l-135-5c-121-4-137-7-158-26l-23-21-29 24c-22 18-42 24-77 25-47 0-48 0-48-32 0-22 13-52 39-89l39-56-157-6c-216-9-343-8-361 3-25 16-4 22 74 21l76-1v36c0 19-7 49-16 65-15 30-16 31-85 27l-69-3v95h35c19 0 35 5 35 10 0 6 15 10 34 10 47 0 58 18 54 91l-3 61 85 25c177 52 365 65 540 38zm-970-134c0-13-59-61-76-61-18 0-128-38-179-61-22-11-32-14-21-7 10 7 32 23 50 35 48 34 106 64 161 84 59 21 65 22 65 10zm1656-19c88-36 147-72 119-72-72 1-205 61-205 92 0 13 14 10 86-20zm-1498-283c1-16 3-33 3-37 4-24-2-45-10-36-13 13-18 93-6 98 5 2 10 5 10 5 1 1 2-13 3-30zm277-110c-46-19-68-20-123-5-9 2-19 5-22 5-3 1 2 6 10 11s53 10 100 9h85zm51-146c-11-11-17 4-9 23 7 18 8 18 11 1 2-10 1-21-2-24z"/>
  <path id="g" d="m2487 3447c-37-10-38-12-35-51l3-41 123-2 122-3v34c0 29-5 36-36 51-45 21-128 27-177 12z"/>
  <path id="h" d="m2310 3332c0-30 7-44 33-68 78-72 67-68 217-71l138-2 58 48c53 42 59 51 62 89 3 42 3 42-30 42-21 0-52-12-83-33-48-31-54-32-142-31-84 1-95 3-140 32-29 19-63 32-81 32-30 0-32-2-32-38z"/>
  <path id="i" d="m2457 3160c-14-11-35-36-47-55-17-27-28-35-50-35-16 0-41-11-57-24-26-23-27-28-28-115 0-107 4-112 85-109l55 3 3 43c3 37 1 42-17 42-12 0-21 4-21 9 0 23 14 41 32 41 26 0 88 38 88 54 0 15 52 66 67 66 6 0 25-17 42-37 54-65 64-73 91-73 14 0 31-5 38-12 15-15 16-48 2-48s-12-64 2-78c7-7 28-12 48-12 52 0 70 24 70 91 0 105-31 159-90 159-18 0-31 9-43 29-9 16-31 41-48 55-27 23-39 26-113 26-68 0-88-4-109-20z"/>
  <path id="j" d="m2685 2294c-33-61-45-95-43-117 3-30 6-32 45-35l42-3 32 68c17 37 35 76 40 85 5 10 9 34 9 53 0 34-1 35-39 35-39 0-40-1-86-86z"/>
 </g>
 <g id="k" transform="translate(-1279,-1676)" fill="#422730">
  <path d="m1680 3735c0-4 6-18 14-33s25-61 39-102 39-113 55-160 35-109 41-138c7-28 16-52 20-52s13-24 20-52c13-58 40-98 65-98 9 0 16-7 16-16s5-12 12-8c6 4 8 3 5-4-10-15 3-42 20-42 10 0 14 7 10 19-3 13 0 18 8 15 13-5 35 63 35 110 0 14 6 37 12 52 10 22 10 28 1 31-7 3-33 21-57 41-25 21-70 50-101 66-34 18-64 43-77 64-19 31-20 38-9 69 11 29 11 36-3 46-8 7-29 30-46 52-26 33-30 45-25 75 5 32 3 39-19 53-26 18-36 21-36 12z"/>
  <path id="l" d="m3042 3705c63-50 110-111 124-164 10-36 13-40 13-18 1 29-19 76-48 113-25 32-110 104-123 104-6 0 9-16 34-35z"/>
  <path id="m" d="m3411 3721c-19-15-22-23-17-49 9-37-11-79-53-115-26-21-29-29-24-64 8-59-15-94-86-131-33-18-78-48-100-66-23-19-46-36-53-39-11-3-11-11 0-39 6-19 12-43 12-53 0-11 8-45 17-77 13-42 22-58 35-58 10 0 18 5 18 10 0 6 18 26 40 46s40 45 40 55c0 11 6 19 13 19 8 0 25 45 46 118 50 181 111 373 132 414 28 55 23 62-20 29z"/>
  <path id="n" d="m2055 3692c-23-20-47-46-55-57s12 4 45 34 62 56 64 58 0 3-5 3c-5-1-27-18-49-38z"/>
  <path id="o" d="m2103 3677c-29-23-68-65-88-92-30-42-35-57-32-90 2-22 7-48 11-57 6-13 3-17-11-15-17 1-20 9-20 68-1 40 5 78 13 95 14 27 14 27-4 11-10-9-26-17-35-17-11 0-18-13-23-45-8-59 3-115 29-142 18-20 31-23 94-23h74l6 30c3 17 11 30 18 30 15 0 22 27 30 125 3 39 8 91 11 118 7 60-4 61-73 4z"/>
  <path id="p" d="m2957 3658c11-150 22-212 37-224 9-6 16-18 16-27 0-40 11-47 71-47 93 0 129 37 102 107-6 16-8 15-13-6-10-43-25-34-22 13 5 54-22 110-81 167-40 39-94 79-109 79-3 0-4-28-1-62z"/>
  <path d="m1780 3620c6-11 16-20 22-20s3 9-7 20-20 20-22 20 1-9 7-20z"/>
  <path d="m1700 3153c0-27 10-49 39-87 21-28 60-85 86-126 55-86 59-90 103-90 31 0 32 1 32 44 0 50-50 146-108 211-27 29-123 85-146 85-3 0-6-16-6-37z"/>
  <path id="q" d="m3272 2985c-14-30-22-64-22-100v-55h33c43 0 49 6 70 66 30 91 22 134-27 134-28 0-35-6-54-45z"/>
  <path id="r" d="m2293 2648c-12-13-24-36-27-53-5-26-2-32 21-42 15-7 35-13 45-13 9 0 26-10 38-22l20-22v22c0 15 6 22 20 22 17 0 20 7 20 49 0 62-17 81-74 81-31 0-48-6-63-22z"/>
  <path d="m2260 2535c0-16 22-30 39-23 5 1-2 11-15 21-21 16-24 16-24 2z"/>
  <path id="s" d="m2410 2314c0-29 6-43 27-60l26-21-32-19c-28-16-32-24-29-54l3-35 51 1c40 1 67 11 132 48 45 25 86 46 91 46 19 0 41 45 41 82v38h-46c-31 0-54-7-72-21l-26-20-16 21c-13 18-31 23-83 27l-67 6z"/>
  <path id="t" d="m3220 2169c0-5 5-30 11-55 15-59 43-61 47-4 2 30-1 40-13 40-8 0-15 7-15 15s-7 15-15 15-15-5-15-11z"/>
  <path id="u" d="m3285 2160c10-11 20-20 22-20 1 0 3 9 3 20 0 14-7 20-22 20-20 0-21-1-3-20z"/>
  <path id="v" d="m2613 2133c-34-3-43-8-43-23 0-10-4-22-10-25-5-3-10-14-10-24 0-31 47-33 81-4 26 22 42 26 134 31 75 3 105 2 105-7 0-7-34-11-109-11-106 0-110-1-130-26-39-49-21-60 28-18 28 24 42 27 137 32l105 5-6 72-120 1c-66 0-139-1-162-3z"/>
  <path id="w" d="m3214 1906c-3-9-3-27 0-40 5-21 2-25-24-31-17-4-30-11-30-17 0-12 47-58 59-58 10 0 31 78 31 113 0 32-27 57-36 33z"/>
  <path id="x" d="m2520 1863c0-5-27-7-59-5l-60 4-12-42c-8-27-9-44-3-48s13-15 17-24c9-25 127-27 127-2 0 14 3 14 15 4 8-7 15-18 15-26 0-20 39-37 74-31 109 18 118 29 84 99-10 21-18 44-18 52 0 16-29 23-78 17-26-3-32-7-26-20 14-34 16-51 6-51-6 0-16 16-22 35s-15 35-20 35-15 3-24 6-16 2-16-3z"/>
  <path d="m2241 1797c-38-76-39-97-7-97 13 0 26-5 28-12 2-6 12-9 21-5 13 5 17 18 17 52 0 25 7 59 15 76 18 35 13 49-19 49-19 0-30-13-55-63z"/>
  <path d="m2835 1850c-3-5-1-18 5-29 5-11 10-47 10-80v-60l40 2c37 1 39 3 33 27-3 14-17 51-30 82-24 55-46 77-58 58z"/>
  <path d="m2114 1813c3-21 8-60 12-88l7-49 14 54c7 29 23 68 34 87l21 33h-94z"/>
  <path id="y" d="m2944 1825c15-23 46-107 46-127 0-5-4-8-8-8s-16 25-27 56c-10 30-23 58-29 61-6 4-6-1-1-13 4-10 10-40 12-66 6-48 6-48 44-48h38l6 53c4 29 5 66 3 82-3 28-6 30-52 33l-49 3z"/>
  <path id="z" d="m2172 1731c-14-44-10-63 9-44 6 6 9 28 7 49l-3 39z"/>
  <path id="aa" d="m2324 1720c-6-20-7-37-2-39 15-5 20 6 16 41l-4 33z"/>
 </g>
 <g id="ab" transform="translate(-1279,-1676)" fill="#463139">
  <path d="m1920 3723c-7-16-18-45-26-65l-13-38h53c46 0 55 3 74 30 13 17 22 44 22 65v35h-48c-43 0-50-3-62-27z"/>
  <path id="ac" d="m3100 3736c0-21 28-82 45-100 20-19 95-22 95-4 0 7-10 36-22 65l-22 53h-48c-34 0-48-4-48-14z"/>
  <path d="m2149 3713c-1-5 0-23 1-42 3-51-11-186-20-201-7-11-11-11-24-1-14 12-16 10-16-12 0-32-9-57-21-57-5 0-9 9-9 20s-4 20-10 20c-5 0-10-6-10-14 0-17-45-27-59-13-8 8-11 1-11-21v-32h70c44 0 70 4 70 11 0 6 9 24 21 40 21 29 28 70 43 242 6 56 4 67-9 67-8 0-15-3-16-7z"/>
  <path d="m2971 3555c-1-91 24-165 56-165 14 0 18 8 17 37 0 33-3 38-21 36-19-2-22 4-28 55-11 107-23 125-24 37z"/>
  <path id="ad" d="m1824 3389c4-13 11-55 16-94 4-38 11-86 15-105 9-40 82-123 103-115 7 2 11 1 7-4-8-15 6-41 22-41 11 0 13 6 9 23-4 12-9 42-12 67-2 25-11 68-19 97-8 28-15 58-15 67 0 26 16 18 34-16 15-33 16-33 16-7 0 18-11 37-35 58-40 35-59 40-51 14 11-36 36-165 36-186s-1-21-17 3c-10 14-18 28-19 33-1 4-2 8-4 10-3 3-18 76-22 102-1 6 2 22 5 36 6 23 1 30-35 54l-41 27z"/>
  <path id="ae" d="m3257 3348c-13-29-20-53-31-118-7-44-39-133-44-121-5 15 17 185 29 217 6 18 4 21-11 17-34-9-70-58-85-117-17-65-19-96-6-96 5 0 9 10 9 23 0 12 8 45 17 72 9 28 19 56 21 64 3 10 8 11 15 4s5-32-5-79c-8-38-16-80-18-94s-7-28-12-31c-4-4-11-27-13-53-7-55 9-61 33-14 9 17 38 55 64 82l48 51 6 113c2 61 3 112 2 112-2 0-11-15-19-32z"/>
  <path id="af" d="m1633 3162c48-52 55-66 37-77-6-3 7-29 28-58 59-81 69-100 86-157 19-65 20-60-2-60-17 0-18-4-6-62 7-34 11-65 8-70-8-12-48-10-63 5-16 14-15 12 19-70 18-43 27-53 46-53 13 0 24-4 24-10 0-5 9-10 20-10 15 0 20 7 20 28 0 29 19 96 44 154 9 21 16 49 16 63s6 25 13 25c6 1 25 21 40 46 32 49 26 74-18 74-18 0-21-4-17-25 8-44-20-20-67 56-24 39-64 97-88 129-48 64-50 70-27 70 34 0 0 19-54 30-31 6-68 14-82 17-22 5-19 0 23-45z"/>
  <path id="ag" d="m3440 3191c-70-19-158-70-201-117-33-36-85-119-68-108 9 5 10 2 4-12-28-69-28-68-4-106 13-20 30-37 37-38 6 0 12-11 12-24 0-32 16-73 35-92 8-9 15-29 15-45s4-29 8-29 6-29 4-65l-4-65h30c28 0 32 5 71 97s45 121 19 95c-18-18-46-15-52 6-3 9 1 41 8 70 13 47 13 52-2 52-13 0-17 9-17 42 0 24-5 43-12 45-7 3-13-2-13-10s-7-17-15-21c-23-8-18 41 9 93 18 34 24 40 29 26 4-9 5-21 1-26-3-5 6-9 19-9 32 0 121 117 105 137-14 17 9 52 56 83 64 44 39 51-74 21z"/>
  <path id="ah" d="m2010 3155c0-14 5-25 10-25 6 0 10 11 10 25s-4 25-10 25c-5 0-10-11-10-25z"/>
  <path id="ai" d="m1797 3144c-9-9 12-56 37-84 13-14 33-42 45-62 25-42 29-44 56-24 18 13 18 14-3 47-31 51-123 134-135 123z"/>
  <path id="aj" d="m1591 2439c-6-18-11-54-11-80 0-56 10-60 75-33 31 12 36 19 31 37-3 12-6 41-6 65v42h-39c-35 0-40-3-50-31z"/>
  <path id="ak" d="m2080 2380c-42-13-96-39-85-41 6 0 26 0 46 1 25 1 38-4 42-14 4-9 13-16 22-16 11 0 15 11 15 40 0 42-1 43-40 30z"/>
  <path id="al" d="m2407 2373c-14-4-17-13-15-46 3-41 4-42 43-45 32-2 36 0 23 8-10 6-18 16-18 22 0 15 72 0 86-18 17-22 24-17 24 19 0 28-5 36-35 50-35 16-71 20-108 10z"/>
  <path id="am" d="m2267 2143c-12-11-8-88 5-101 12-12 173-17 202-6 14 5 14 8-1 30-14 22-14 24 4 24 10 0 25-6 32-12 10-11 12-6 9 22-3 34-4 35-43 34-22-1-59-6-82-11-36-9-42-8-46 8-4 14-14 19-39 19-19 0-38-3-41-7z"/>
  <path id="an" d="m1890 1900c-8-16-8-34 1-75 12-55 12-55 50-55 33 0 38 4 48 31 6 18 11 34 11 36s-19 3-42 1l-43-3v37c0 45-10 56-25 28z"/>
  <path id="ao" d="m2488 1863c-39-4-46-11-27-30 7-7 6-20-4-44l-15-34-10 27c-6 14-15 29-20 32-14 9-32-18-38-56-9-50 22-63 126-55 66 5 80 4 80-8 0-11 12-15 43-15 24 0 47 4 53 9 5 5 23 11 39 13 21 2 29 8 26 18-5 24-9 44-10 53-2 14-21 7-21-7 0-21-19-30-34-17-10 9-15 8-20-4-3-9-10-13-16-10-5 3-10 1-10-5 0-8-6-8-20 0-11 6-20 15-20 21s-9 23-21 37c-12 16-18 34-15 48 4 14 0 24-10 28-9 3-16 5-17 4s-19-3-39-5zm12-73c0-32-14-40-24-15-6 18 2 45 15 45 5 0 9-13 9-30z"/>
  <path id="ap" d="m2088 1825c-9-19-9-28 0-37 7-7 12-22 12-35 0-18 6-23 24-23 22 0 24 5 28 55 2 39-1 56-10 60-27 10-43 4-54-20z"/>
  <path id="aq" d="m2250 1818c-52-85-48-138 11-138 27 0 29 2 29 42 0 39-1 40-18 25-25-23-41-21-35 3 3 11 14 20 24 20 11 0 20 7 20 18 1 9 3 27 4 40 3 32-12 27-35-10z"/>
  <path id="ar" d="m2865 1808c30-52 31-69 5-91-30-26-24-37 20-37 39 0 40 1 34 28-15 62-58 142-78 142-3 0 6-19 19-42z"/>
  <path id="as" d="m2962 1841c-11-7-11-9 2-14 9-4 16-1 17 6 0 7 5 0 11-15 8-24 12-26 24-14 24 24 17 46-13 46-16 0-34-4-41-9z"/>
  <path id="at" d="m2778 1765c3-66 6-75 23-75 16 0 19 7 19 40 0 42-23 110-37 110-4 0-7-34-5-75z"/>
 </g>
 <g id="au" transform="translate(-1279,-1676)" fill="#4f3841">
  <path id="av" d="m2206 3668c-4-46-10-98-13-117-3-20-2-32 4-30 24 10 121 139 136 182l16 47h-136z"/>
  <path id="aw" d="m2361 3719c-7-16-11-32-9-34 2-3 21 7 41 20 20 14 41 25 46 25 6 0 11 5 11 10 0 6-17 10-38 10-32 0-39-4-51-31z"/>
  <path id="ax" d="m2670 3746c0-4 107-66 114-66 2 0-4 16-12 35-15 32-20 35-59 35-24 0-43-2-43-4z"/>
  <path id="ay" d="m2786 3728c16-52 24-67 73-124 28-32 51-62 51-66 0-5 6-8 13-8 10 0 11 18 5 78-3 42-7 92-7 110l-1 32h-71c-68 0-70-1-63-22z"/>
  <path d="m2956 3684c14-78 23-91 20-29-2 35-8 61-15 63-9 3-10-6-5-34z"/>
  <path id="az" d="m1967 3667c-3-8-19-13-41-12-34 1-36-1-44-40-5-22-5-44-1-49s5-15 2-22c-9-23 37-16 58 9 10 12 18 27 19 33 0 7 7 14 15 18 9 3 15 19 15 41 0 35-13 47-23 22z"/>
  <path id="ba" d="m2512 3526c-19-9-22-18-20-51l3-40 64-3c45-2 67 1 72 10 13 19 11 72-3 86-15 15-85 14-116-2z"/>
  <path id="bb" d="m2377 3231c-23-24-28-36-25-67 3-38 4-39 44-42 35-3 45 2 72 29 40 41 41 65 3 74-16 3-35 13-42 21-16 19-20 18-52-15z"/>
  <path d="m2690 3241c-20-16-35-18-97-14l-73 6v-32c0-30 1-31 44-31 27 0 46 5 49 13 2 7 26-9 61-41 52-49 59-53 99-50 41 3 42 4 45 41 3 31-2 41-24 60-14 12-37 32-49 45-27 26-24 26-55 3z"/>
  <path id="bc" d="m1550 2989c-7-11-14-45-17-75l-6-55 108 6 3 49c5 79-3 96-43 96-25 0-37-6-45-21z"/>
  <path id="bd" d="m3507 2963c-4-3-7-26-7-50v-44l43 3 42 3 3 48 3 47h-39c-21 0-42-3-45-7z"/>
  <path d="m3265 2725c-3-8-7-22-10-30-2-8 2-30 10-49 9-21 15-68 15-113 0-146 23-163 58-45 13 42 28 87 34 99 6 11 8 27 6 34s-18-14-34-46c-22-46-30-55-32-38-2 12 8 43 22 69 17 32 22 52 16 58s-10 23-10 38-4 28-10 28c-5 0-10-15-10-34 0-45-20-58-21-14-1 18-1 39 0 46 3 17-29 15-34-3z"/>
  <path id="be" d="m2338 2716c-12-8-18-27-18-50 0-33 2-36 24-30 25 6 56-17 56-42 0-8 7-14 15-14 9 0 15-9 15-24 0-14 5-28 11-32 9-5 10 1 5 22-4 16-7 54-6 84 1 72-14 100-54 100-17 0-39-7-48-14z"/>
  <path id="bf" d="m2673 2693c7-44 16-98 23-130 3-15 12-23 24-23 14 0 20-7 20-21 0-20 4-21 48-15 26 3 80 9 120 12 39 4 72 9 72 12s-8 11-17 18c-17 12-16 13 7 15 44 2 64-2 84-19 23-21 55-89 56-119 0-28 28-37 92-28l51 7-6 52c-5 36-13 55-27 65-11 7-20 21-20 29 0 9-12 33-26 54-24 35-31 38-72 38-42 0-44-1-26-15 16-12 17-14 2-15-9 0-18-4-20-8-1-5-45-7-96-4-84 4-94 7-102 26-22 57-98 106-164 106-27 0-28-2-23-37zm180-158c-32-22-87-32-81-14 3 8 20 17 39 20 59 11 65 10 42-6z"/>
  <path id="bg" d="m2124 2685c-4-9-19-15-38-15-50-1-114-35-137-75-12-19-27-35-34-35-15 0-35-72-35-124 0-31 3-36 23-36 13 0 28-5 34-11 8-8 21-8 46 0 29 10 36 18 42 49 12 66 32 91 95 119l59 27-42 46h21c11 0 24-4 27-10 3-5 13-10 21-10 21 0 19 76-2 84-29 11-75 6-80-9z"/>
  <path id="bh" d="m1710 2687c0-1 16-41 36-87 20-47 44-109 53-139 20-64 36-75 45-30 13 64 6 129-20 194-29 72-49 77-38 9 3-24 3-44 0-44s-20 23-37 50c-26 43-39 58-39 47z"/>
  <path id="bi" d="m2465 2593c-5-20-1-32 19-52 22-22 37-26 101-29 62-4 75-2 75 11 0 37-12 47-55 47-24 0-46 4-50 9-6 10-63 41-75 41-5 0-11-12-15-27z"/>
  <path id="bj" d="m1712 2579c6-16 12-28 14-26 5 5-13 57-20 57-3 0 0-14 6-31z"/>
  <path id="bk" d="m3445 2423 2-78 52-28c29-16 55-27 58-24s2 42-2 86c-6 66-10 81-26 86-10 4-19 13-19 21 0 9-11 14-34 14h-34z"/>
  <path id="bl" d="m1620 2433c0-15 2-16 10-3 12 19 16 13 25-39 5-29 4-41-3-37-6 3-13 2-17-4-13-21-27-9-23 20 4 25 1 30-17 30-19 0-22-6-24-55-1-30 0-55 2-55 3 0 30 12 62 26 48 22 56 29 51 48-3 11-6 36-6 54 0 29-3 32-30 32-22 0-30-5-30-17z"/>
  <path id="bm" d="m3010 2340c0-38 4-50 15-50 8 0 15 7 15 15 0 19 31 35 72 36 18 0 26 3 18 6-8 2-24 8-35 12-11 5-33 14-48 20s-30 11-32 11c-3 0-5-22-5-50z"/>
  <path d="m1378 2309c-37-30-38-32-38-100 0-38 2-69 5-69 12 0 85 51 85 59 0 5 11 12 25 15 28 7 38 35 33 87-3 31-6 34-38 36-27 2-44-5-72-28z"/>
  <path id="bn" d="m3690 2257c0-52 1-55 44-85 24-18 47-32 50-32s6 31 6 68c0 79-15 102-68 102-32 0-32 0-32-53z"/>
  <path id="bo" d="m1843 2184c-13-14-23-32-23-41 0-11 6-8 21 11 20 26 49 35 49 16 0-5-9-15-20-22-23-14-29-88-8-88 6 0 3-7-8-15-18-14-17-14 11-15h31l2 90c2 81 1 90-15 89-10-1-28-12-40-25z"/>
  <path id="bp" d="m3226 2187c-3-13-2-46 3-73 4-28 7-61 6-72-1-19 4-22 33-22h35l-24 27c-13 14-18 23-12 19 10-5 11 1 7 26-4 18-11 37-15 43-11 11-12 45-2 45 3 0 16-8 27-17 12-10 15-11 9-3-7 8-13 22-13 32 0 28-46 24-54-5z"/>
  <path id="bq" d="m1811 1790-33-28 27-14c23-12 24-16 11-27-30-25-7-41 61-41h65l-36 40c-20 23-39 54-43 70-3 17-8 30-12 30-3-1-21-14-40-30z"/>
  <path d="m1900 1777c0-15 27-43 34-36 3 2-4 15-15 28-13 16-19 18-19 8z"/>
 </g>
 <g id="br" transform="translate(-1279,-1676)" fill="#444544">
  <path id="bs" d="m3080 3689c0-19 70-99 86-99 21 0 17 60-5 88-20 23-81 32-81 11z"/>
  <path id="bt" d="m2727 2333c-4-3-7-18-7-32l1-26 14 25c8 14 14 28 15 33 0 9-14 9-23 0z"/>
  <path id="bu" d="m2771 2326c-7-8-14-22-16-32-2-11-13-38-24-61-24-48-26-67-8-81 33-27 404-45 448-22 15 9 19 22 19 65 0 42-3 55-15 55-8 0-15-7-15-15s-9-15-21-15c-17 0-20 5-17 33s0 32-24 35-28 0-28-22c0-14-4-27-9-30-14-9-34 22-28 43 3 12-1 22-11 26s-208 33-238 35c-1 0-7-6-13-14z"/>
  <path id="bv" d="m2139 2313c-44-4-45-5-41-32 3-21-2-33-18-44-19-13-22-22-17-53 4-21 11-42 17-48 7-7 57-11 130-10 113 0 120 1 154 28 29 22 36 34 36 61 0 96-51 115-261 98z"/>
  <path id="bw" d="m2366 1728c-12-45-8-48 49-48 48 0 55 2 55 20 0 11-6 20-14 20-7 0-19 7-26 15-19 23-57 19-64-7z"/>
 </g>
 <g id="bx" transform="translate(-1279,-1676)" fill="#494647">
  <path id="by" d="m1774 3705c-8-59 0-89 32-110 14-9 27-15 28-13s11 40 22 86l20 82h-95z"/>
  <path d="m1999 3738c-1-7-1-18 0-25 1-6-3-14-9-18-20-12-10-25 21-25 32 0 99 46 99 68 0 8-18 12-55 12s-55-4-56-12z"/>
  <path id="bz" d="m2996 3742c68-58 114-92 114-82 0 7 9 2 19-11 23-28 19-38-6-18-10 7-7 1 6-13 13-15 30-50 37-77 17-66 4-114-36-138-31-18-38-37-19-49 16-10 136 57 150 84 10 17 10 35 0 85-7 34-15 77-18 95-4 25-10 32-28 32-29 0-51 21-70 66l-14 34h-72c-40 0-69-4-63-8z"/>
  <path id="ca" d="m3250 3745c0-2 4-14 10-27 5-13 14-42 20-65 9-35 15-43 33-43 44 0 56 33 41 109-6 30-9 31-55 31-27 0-49-2-49-5z"/>
  <path id="cb" d="m2971 3518c-1-44 28-118 46-118 7 0 13 7 13 15s-6 14-12 13c-8-2-19 23-29 62-15 58-17 61-18 28z"/>
  <path id="cc" d="m3267 3367c-4-10-7-28-6-40 0-21 1-21 10 2 5 14 8 32 7 40-3 13-5 13-11-2z"/>
  <path id="cd" d="m1663 3138c4-10 10-25 13-33 9-23-20-28-55-11-45 24-47 20-7-24 19-22 49-65 66-97s37-69 45-83c7-14 23-48 36-77 12-29 26-50 30-48 13 9 38-24 50-65 7-22 15-40 19-40 5 0 64 120 88 182 2 4-3 5-11 2-10-3-18 3-22 18-11 36-134 225-151 232-11 4-10-1 5-23 50-70 103-200 108-264 4-40 1-67-5-71-6-3-13 2-16 11-3 10-17 61-31 113-19 66-39 113-68 155-22 33-51 76-64 95-29 42-38 51-30 28z"/>
  <path id="ce" d="m3396 3048c-64-90-81-124-90-178-10-62-36-140-48-140-7 0-9 21-5 68 7 73 50 178 116 282 15 24 15 24-3 10-17-13-78-104-139-207-24-40-30-45-38-30-7 12-3 29 15 62 21 40 22 50 13 76l-12 30-21-26c-11-14-26-41-33-61-12-33-11-38 14-73 14-21 41-72 58-112 18-41 36-80 40-86 14-22 27-14 27 17 0 50 22 85 51 82 4-1 28 45 54 101 55 120 104 197 142 226 33 24 15 28-28 5-38-19-63-12-54 16 3 11 5 20 3 20s-30-37-62-82z"/>
  <path id="cf" d="m3552 3066c-42-48-66-85-59-92 3-3 13 8 21 24 9 17 30 41 47 55 17 13 30 30 27 37-2 7-16-2-36-24z"/>
  <path d="m1551 3085c0-12 69-88 75-82 2 2-14 24-35 48-22 24-40 40-40 34z"/>
  <path id="cg" d="m1967 3068c-2-7 3-26 11-43 13-24 17-27 20-12 9 41-19 89-31 55z"/>
  <path id="ch" d="m1902 2996c-9-20-6-31 19-70 16-26 29-52 29-58s9-3 21 8c24 22 20 51-17 107-28 43-37 46-52 13z"/>
  <path id="ci" d="m3327 2734c-4-4-7-14-7-23 0-11 3-12 11-4 6 6 10 16 7 23-2 6-7 8-11 4z"/>
  <path id="cj" d="m2322 2350c3-40 10-75 15-79 6-3 15-16 22-29 15-28 6-41-45-73-35-21-42-45-28-96 6-21 12-23 73-21l66 1-59 6c-64 6-92 29-68 53 10 10 14 8 19-11 6-22 9-23 67-16 33 3 67 10 75 15 10 6 27-2 55-26 45-39 66-43 73-14 3 11 10 20 15 20s7 4 4 9c-6 10 90 21 186 21 52 0 70-4 74-15 12-29 34-16 34 19 0 30-4 34-31 40-17 3-54 6-81 6-59 0-68 15-43 71 28 61 11 56-19-6-25-52-35-63-49-49-6 6 65 146 84 168 14 15 23-2 10-18-16-19 0-27 22-11 13 10 17 24 15 52-3 34-6 38-32 41-56 7-136-42-136-83 0-18 4-21 25-17 21 3 25 0 25-18 0-16-10-26-37-36-38-15-83-69-83-99 0-12-8-15-32-13-43 4-40 18 8 45 21 13 35 23 29 23-5 0-26-10-45-21-19-12-47-25-62-30-50-14-38 8 25 45 98 57 94 54 77 66-21 14-30 12-30-5 0-27-36-14-92 34-31 27-36 41-13 41 8 0 15 5 15 10 0 6-7 10-14 10-8 0-21 12-28 28-10 21-21 28-52 30l-39 3z"/>
  <path id="ck" d="m2012 2283c-6-10-8-31-5-47 5-25 3-28-11-23-10 4-20 7-22 7s-4 7-4 15-7 15-15 15c-12 0-15-13-15-55 0-50 2-56 26-65 14-6 70-10 125-10 78 0 99 3 99 14 0 16-21 26-56 26-30 0-48 37-28 58 21 20 17 25-15 19-28-6-30-4-33 26-3 37-31 49-46 20z"/>
  <path id="cl" d="m2450 2063c8-3 24-13 35-22 20-16 20-16 1 7-11 12-26 22-35 21-14 0-14-1-1-6z"/>
  <path d="m1360 1934c-11-25-20-61-20-80 0-32 2-34 35-34s38 4 55 43c11 23 20 59 20 80 0 36-1 37-35 37-33 0-37-4-55-46z"/>
  <path id="cm" d="m3410 1911c0-66 13-81 67-81h46l-6 51c-4 29-9 54-11 57-3 2-25 7-51 9l-45 6z"/>
  <path id="cn" d="m2087 1823c-8-16-19-50-26-77-14-56-7-66 45-66 29 0 32 3 37 37 4 22 2 39-3 41-6 2-10 14-10 27s-4 27-10 30c-15 10-12 23 8 28 13 4 12 5-5 6-15 1-27-8-36-26z"/>
  <path id="co" d="m2997 1843c-4-4-4-22-1-40 4-19 2-39-5-47-6-7-8-27-5-45 6-29 9-31 50-31 24 0 44 2 44 5 0 20-25 116-36 138-14 26-33 34-47 20z"/>
  <path id="cp" d="m3140 1789v-40l43 3c36 3 42 6 45 27 5 30-20 51-60 51-26 0-28-3-28-41z"/>
  <path id="cq" d="m1928 1803c-18-3-28-10-28-22 0-27 21-41 62-41 35 0 38 2 28 20-6 10-9 25-8 32 3 13-14 17-54 11z"/>
  <path id="cr" d="m2370 1740c0-6 10-15 23-20 19-8 20-9 3-9-22-1-15-12 12-19 9-3 90-7 180-9 151-4 162-3 162 14 0 32-15 45-45 37-18-5-30-2-36 7-6 11-12 6-21-18-15-39-25-42-37-9-13 32-26 35-100 23-47-7-69-7-82 1-23 15-59 16-59 2z"/>
  <path id="cs" d="m2787 1724c-16-16-7-44 14-44 15 0 20 5 17 22-3 22-19 33-31 22z"/>
 </g>
 <g id="ct" transform="translate(-1279,-1676)" fill="#58454c">
  <path id="cu" d="m2408 3738c16-8 28-8 45 0 19 9 17 11-23 11s-42-2-22-11z"/>
  <path d="m2825 3684c3-46 26-84 52-84 17 0 17 15-2 30-9 7-20 32-26 56-15 57-28 56-24-2z"/>
  <path id="cv" d="m3298 3668c-14-10-16-22-12-50 4-21 12-38 20-38 15 0 54 52 54 73 0 26-18 29-26 5l-8-23-5 23c-5 20-8 21-23 10z"/>
  <path id="cw" d="m1958 3648c-4-10-13-15-22-12s-19-3-26-17c-11-19-10-21 6-15 17 7 17 6-1-14s-18-20 7-20c34 0 50 22 46 62-2 24-5 28-10 16z"/>
  <path id="cx" d="m2973 3575c0-33 2-45 4-27s2 45 0 60-4 0-4-33z"/>
  <path id="cy" d="m2595 3511c-3-5-1-12 5-16 7-4 7-12 0-26-18-33 4-59 50-59h40v41c0 22-6 47-14 55-16 16-72 19-81 5z"/>
  <path id="cz" d="m2410 3469c0-55 19-73 70-64l40 7v98h-110z"/>
  <path id="da" d="m3027 3432c-5-7-13-10-18-7-12 8-12-12 1-36 6-11 21-19 35-19 27 0 34 15 11 23-8 3-16 16-18 29-2 16-5 19-11 10z"/>
  <path id="db" d="m2704 3219c8-11 25-28 38-36 15-11 11-4-11 20-39 41-49 47-27 16z"/>
  <path d="m2620 3191c0-31 7-46 38-77 21-22 43-46 48-55s25-19 45-22c32-5 38-2 48 19 6 13 15 24 21 24 7 0 10 15 8 38-2 30-7 38-26 40-17 3-22-1-20-14 6-34-22-25-74 24-73 68-88 72-88 23z"/>
  <path id="dc" d="m2441 3185c-18-19-36-35-41-35-16 0-22 21-10 35 10 13 8 15-16 15-35 0-47-8-63-37-34-65 7-135 72-124 46 8 107 85 107 135 0 48-11 51-49 11z"/>
  <path id="dd" d="m3670 3166c0-19 4-46 10-60 8-22 16-26 51-26h42l-6 50c-8 66-11 70-58 70-38 0-39-1-39-34z"/>
  <path id="de" d="m2974 3135c-11-43 6-196 22-202 9-3 14-21 14-53 0-59 18-80 67-80h36l-6 51c-4 28-10 65-16 82-5 18-17 72-26 122-9 49-19 93-21 97-3 4-18 8-34 8-23 0-31-5-36-25z"/>
  <path id="df" d="m3577 3093c-4-3-7-19-7-35 0-23-4-28-25-28-50 0-87-116-51-162 18-24 126-26 126-3 0 8 5 15 10 15 6 0 10 20 10 45s5 45 10 45c15 0 12 92-4 113-13 17-56 23-69 10zm-17-167c0-16-18-31-27-22-8 8 5 36 17 36 5 0 10-6 10-14z"/>
  <path id="dg" d="m1510 3045c0-9-9-15-24-15-20 0-26-9-40-49-9-28-16-68-16-90 0-40 1-41 35-41 32 0 35 3 52 50 13 36 22 49 32 45 9-4 23 4 33 17l18 23 6-22c3-13 10-20 15-17 16 9 10 55-12 85-17 24-28 29-60 29-28 0-39-4-39-15z"/>
  <path id="dh" d="m1901 3004c-11-13-11-21-2-41 14-31 31-20 34 22 2 32-12 41-32 19z"/>
  <path id="di" d="m2647 2774c-4-4-7-16-7-26s-7-18-15-18c-24 0-19-60 7-87 18-20 19-23 5-23-9 0-17-4-17-10s-30-10-70-10c-56 0-70-3-70-15 0-8 6-15 14-15 7 0 19-7 26-15 8-9 30-15 57-15s42-4 38-10 5-10 19-10c18 0 27 6 28 18 5 64 3 76-18 102-24 28-33 80-14 80 6 0 10-5 10-11s12-25 26-42c24-29 26-36 20-97-4-46-3-61 4-50 9 13 12 13 25-4 20-26 142-36 151-13 10 28-4 37-34 21-15-7-35-14-45-14-16 0-18 5-12 41 7 39 6 40-14 27-18-11-22-10-35 7-8 12-12 31-9 46s0 36-7 49c-11 20-10 21 10 10 30-16 34-8 24 42-9 41-11 43-49 46-23 2-44 0-48-4z"/>
  <path id="dj" d="m2387 2738c-3-19 1-42 9-54 9-16 11-36 5-73-8-48-7-51 14-51 18 0 22 6 22 34 0 32 48 125 66 126 4 0 7-12 7-27 0-22 2-25 10-13 5 8 10 32 10 53v37h-138z"/>
  <path id="dk" d="m3325 2727c-4-10-5-21-1-24 10-10 18 4 13 24-4 17-4 17-12 0z"/>
  <path d="m3281 2693c0-13-6-23-13-23-9 0-9-3 0-12 16-16 24-5 19 29-3 21-4 23-6 6z"/>
  <path id="dl" d="m3371 2623c-23-38-41-77-41-85 0-9-5-20-10-23-6-4-8-14-5-24 3-9-2-26-10-37-18-24-19-54-1-54 7 0 16 14 19 33s26 82 51 142 44 110 42 113c-2 2-23-27-45-65z"/>
  <path id="dm" d="m3330 2650c0-11 4-20 9-20 11 0 22 26 14 34-12 12-23 5-23-14z"/>
  <path id="dn" d="m1629 2528c-34-46-68-88-75-94-8-6-14-18-14-26 0-22-22-39-35-28-8 7-33-5-78-36-37-26-67-50-67-55 0-16 20-20 26-5 15 38 24 11 18-51l-7-66 44 32c92 66 92 66 81 87-7 14-6 30 3 58 16 45 29 61 44 52 7-4 3-21-11-47-18-34-19-42-7-50 20-12 32-11 55 6 11 8 14 15 7 15-17 0-16 26 3 77 18 45 28 53 38 28 7-19 26-19 26 0 0 8 9 42 21 75 21 62 22 101 2 107-6 2-39-33-74-79zm-177-265c-10-28-10-28-11 12-1 28 2 36 10 28s8-19 1-40z"/>
  <path d="m3412 2582c-7-21-6-35 6-58 8-16 20-49 27-73 14-58 37-68 31-14-3 21-2 30 0 21 3-9 14-20 25-23 18-6 20-13 24-95 2-35 12-50 36-50 29 0 33 25 10 63-24 40-26 47-8 47 24 0 50-59 44-100-5-37-3-39 47-72 28-18 61-39 74-46 21-12 22-11 14 5-5 10-12 35-16 56-5 29-4 37 7 37 20 0 27-22 27-81v-49h40c40 0 40 0 40 39 0 35-6 45-57 91-31 29-69 57-83 63s-35 20-47 31c-13 11-23 14-23 8 0-22-21-12-38 18-9 16-23 30-29 30-7 0-13 8-13 18 0 19-98 153-117 159-6 2-15-9-21-25z"/>
  <path id="do" d="m3215 2470c31-32 30-35-8-21-21 8-26 6-30-10-4-14-14-19-36-19-45 0-38-12 27-43 80-38 83-37 81 26-2 83-8 97-37 97h-26z"/>
  <path id="dp" d="m1925 2444c-11-8-25-12-32-10-19 8-17-43 3-65 14-16 18-15 69 10 61 29 69 41 28 38-22-2-29 3-31 21-4 26-10 27-37 6z"/>
  <path id="dq" d="m2540 2351c0-6-12-11-27-11-24-1-26-2-12-13 23-17 41-56 35-73-3-8 1-14 8-14 16 0 128 73 146 95 11 13 8 15-16 15-16 0-53 3-81 6-37 5-53 3-53-5z"/>
  <path id="dr" d="m1862 2249c-37-33-34-49 9-49 24 0 29 4 29 24 0 13 3 31 6 40 9 24-7 19-44-15z"/>
  <path d="m1483 2190c-32-19-41-30-25-30 8 1 70 50 62 50-3 0-20-9-37-20z"/>
  <path id="ds" d="m3649 2180c13-11 27-20 32-20 18 0 8 10-23 25l-33 16z"/>
  <path id="dt" d="m3400 2121c0-16 4-41 10-55 9-25 8-26-26-26s-35-1-29-28c3-15 8-56 10-90s7-66 10-72c3-5 24-10 47-10 34 0 39 3 35 18-15 48-18 67-9 53 5-7 15-10 21-7 6 4 11 0 11-8 0-9 9-16 20-16 20 0 50-45 50-75 0-11 11-15 45-15 42 0 45 2 45 28 0 32-34 170-56 229-14 39-20 43-95 72-45 17-83 31-85 31s-4-13-4-29z"/>
  <path d="m1616 2110c-27-11-53-25-57-32-19-29-49-149-49-192v-46h40c27 0 43 5 46 15 4 9 19 15 39 15 27 0 34 5 38 23 3 16 5 13 6-10 1-32 3-33 41-33 22 0 40 3 41 8 0 4 2 30 3 57 2 28 7 71 11 98 6 40 5 47-10 47-9 0-25-5-36-10-17-10-19-7-19 35 0 40-2 45-22 45-13-1-45-10-72-20z"/>
  <path id="du" d="m1660 1710c0-29 1-30 49-30 28 0 53 5 56 10 4 6-9 10-30 10-28 0-38 5-42 20-8 32-33 24-33-10z"/>
  <path id="dv" d="m2267 1703c-12-11-8-23 8-23 8 0 15 7 15 15 0 16-12 20-23 8z"/>
 </g>
 <g id="dw" transform="translate(-1279,-1676)" fill="#535252">
  <path id="dx" d="m3331 3650c-5-17-17-33-26-36-16-7-21-44-6-44 14 0 61 64 61 83 0 29-18 27-29-3z"/>
  <path id="dy" d="m1770 3655c0-25 19-55 35-55 13 0 13 5 2 32-14 35-37 49-37 23z"/>
  <path id="dz" d="m3027 3353c14-32 27-59 28-61s77 53 105 75c11 9-37 27-75 28-22 1-50 4-62 9l-22 7z"/>
  <path id="ea" d="m2340 2381c0-27-4-31-25-31-14 0-42-7-61-15-47-20-44-50 6-51 47-1 82-13 97-33 16-23 28-6 15 23-6 13-14 45-18 71-8 56 7 55 31-2 14-33 16-35 28-18 8 9 26 18 40 18 22 0 27 4 27 23 0 30-6 33-79 40l-61 7z"/>
  <path id="eb" d="m2750 2379c0-5 5-7 10-4 13 8 24-20 15-42-7-20-4-29 8-25 4 1 7-2 7-7s20-9 45-8c31 0 45 5 45 14 0 17-18 37-42 46-10 3-18 13-18 22 0 11-10 15-35 15-19 0-35-5-35-11z"/>
  <path id="ec" d="m2995 2340c-3-5-19-10-36-10-22 0-29-5-29-20 0-14 11-22 38-29 50-14 59-14 66 5 13 34 7 64-13 64-11 0-23-4-26-10z"/>
  <path id="ed" d="m2485 2167c-41-15-40-14-20-37 12-13 31-20 56-20 35 0 37-2 33-25-4-21-1-25 21-25s30 9 26 33c0 4 6 7 15 7 14 0 14 2 0 22-11 16-13 25-4 35 8 10 2 13-30 13-22 0-46 2-54 4-7 2-26-1-43-7z"/>
  <path id="ee" d="m3364 1944c5-25 2-43-9-60-15-23-15-24 13-24 16 0 31 2 34 5 8 8-25 115-36 115-4 0-5-16-2-36z"/>
  <path id="ef" d="m3412 1960c0-8 4-26 8-40 6-20 8-21 8-5 0 11-3 29-8 40-5 12-8 14-8 5z"/>
  <path id="eg" d="m3440 1949c0-31 20-65 30-49 5 8 9 3 12-14 6-29-18-38-28-11-11 27-24 16-24-18 0-57 34-76 109-61 27 6 31 11 31 40 0 39-17 82-42 107-17 17-18 17-18-8 0-24-2-25-15-11-8 8-15 22-15 30 0 9-8 16-20 16-14 0-20-7-20-21z"/>
 </g>
 <g transform="translate(-1279,-1676)" fill="#5d4e53">
  <path id="eh" d="m2299 3570c-50-52-59-66-59-97v-36l23 20c37 34 65 45 86 33 11-5 22-15 24-22 3-7 6 26 6 75 1 57-3 87-10 87-6 0-38-27-70-60z"/>
  <path id="ei" d="m2756 3623c-3-3-6-42-6-87 0-69 2-77 14-61 10 14 21 17 51 12l37-6-6 41c-4 23-12 48-18 55-19 24-65 53-72 46z"/>
  <path id="ej" d="m2603 3489c2-24 9-45 16-47 6-2 11-10 11-18 0-21 60-18 76 4 16 20 18 78 4 87-5 3-32 9-60 12l-51 6zm57-38c0-6-4-11-10-11-12 0-31 35-23 43 7 8 33-18 33-32z"/>
  <path id="ek" d="m3667 3364c-15-15-6-75 17-116 20-37 29-43 60-46l36-3v43c0 24-7 61-14 83-13 36-17 40-53 43-21 2-42 0-46-4z"/>
  <path id="el" d="m2480 3217c-20-11-24-19-22-46 3-23-2-37-15-47-17-13-17-13 0-14 11 0 30 9 44 20 18 14 41 20 79 20 29 0 59 3 68 6 20 8 21 60 2 67-18 7-56-3-56-14 0-5-7-9-15-9s-15 7-15 15c0 19-36 19-70 2z"/>
  <path id="em" d="m1377 3183c-4-3-7-30-7-60v-53h33c44 1 67 21 67 58 0 51-9 62-49 62-21 0-41-3-44-7z"/>
  <path id="en" d="m3567 3153c-12-12-7-21 15-26l22-6-24-26-23-25h39c22 0 44-4 50-10 5-5 35-12 67-16l57-7v52c0 45-2 51-21 51-15 0-19-5-15-15 3-8 1-15-5-15s-13 8-16 19c-3 12-17 21-41 25-49 8-97 8-105-1z"/>
  <path id="eo" d="m2071 3096c-6-25-11-62-11-83 0-22-4-43-8-48-23-26-39-126-26-159 12-31 137-12 167 25 20 24 23 79 5 97-7 7-23 12-36 12-22 0-24 3-17 33 4 17 9 62 12 100l5 67h-40c-39 0-40-1-51-44z"/>
  <path id="ep" d="m1475 3060c-16-31-18-73-6-105 7-16 9-14 16 15 6 28 9 31 12 14 2-12-3-39-11-59-9-21-16-48-16-61 0-22 4-24 49-24 62 0 81 7 81 31 0 13-7 19-21 19-15 0-19 5-15 18 15 50 17 72 7 89s-10 17-11 0c0-11-6-17-12-14-12 4-13 35-2 47 8 8 39-16 51-41 12-23 13-23 13-2 0 34-11 53-31 53-14 0-19 7-19 25 0 22-4 25-35 25-28 0-37-5-50-30z"/>
  <path id="eq" d="m3522 3030c-12-16-22-37-22-46 0-16 1-16 18-1 25 23 32 21 32-8 0-22 4-25 28-23 22 2 28-1 31-22l3-25-22 20-23 20 8-25c5-14 8-33 7-42-1-14 7-18 34-18 19 0 34 5 34 10 0 6 14 10 30 10 28 0 30 3 30 35 0 19-5 46-12 60-12 26-48 42-68 30-7-4-16 6-23 24-16 42-55 43-85 1z"/>
  <path id="er" d="m3010 2958c0-4-15-8-33-8-43 0-57-15-57-62 0-28 7-44 27-62 32-30 103-44 139-27 27 12 30 45 11 121-12 43-14 45-49 45-21 0-38-3-38-7zm56-75c3-16 7-34 10-40 5-17-1-16-20 3-18 17-22 64-6 64 5 0 12-12 16-27z"/>
  <path id="es" d="m2366 2754c-3-9-6-30-6-47 0-23 3-28 11-20 9 9 17 6 30-12 11-13 19-28 19-35 0-18 25-6 28 14 2 11-4 19-15 22-15 4-18 12-15 35 2 16 10 29 18 29s14 7 14 15c0 22-76 21-84-1z"/>
  <path id="et" d="m2640 2714c0-3 14-23 32-45 32-40 56-40 43 0-7 22-25 29-25 10 0-5-4-7-10-4-5 3-10 15-10 26 0 10-7 19-15 19s-15-3-15-6z"/>
  <path id="eu" d="m2710 2711c0-11 29-35 35-29 10 9-7 38-21 38-8 0-14-4-14-9z"/>
  <path d="m2400 2595c0-28-12-32-30-10-16 20-30 19-30-1 0-28 40-84 60-84 54 0 64 30 29 86-25 41-29 42-29 9z"/>
  <path id="ev" d="m2684 2556c-8-44 0-56 35-56 21 0 30 6 35 23 3 12 1 24-5 26s-19 12-27 22c-23 27-30 24-38-15z"/>
  <path id="ew" d="m3514 2444c3-9 6-24 6-35 0-16 5-18 26-13 18 5 29 1 39-12 14-18 14-18 15 7 0 31-38 69-69 69-17 0-22-4-17-16z"/>
  <path id="ex" d="m1884 2405c-7-17 24-58 37-49 16 10 9 43-11 54-16 9-22 8-26-5z"/>
  <path id="ey" d="m3223 2392c-9-14-13-15-24-4-7 6-22 12-33 12-21-1-21-1-1-16 11-8 28-21 38-29 28-24 47-19 47 14 0 36-12 46-27 23z"/>
  <path d="m1332 2267c-36-37-42-49-42-85 0-41 1-42 33-42 38 0 82 31 74 51-4 10-6 9-6-3-1-10-5-18-11-18-16 0-11 88 6 115 27 42-6 31-54-18z"/>
  <path id="ez" d="m1408 2280c-3-16-1-30 4-30 4 0 8 14 8 30 0 17-2 30-4 30s-6-13-8-30z"/>
  <path id="fa" d="m3230 2231c0-43 3-51 18-51 10 0 29-11 42-25 25-27 60-34 60-11 0 17-47 76-88 111l-32 27z"/>
  <path id="fb" d="m3318 2255c6-11 21-29 34-40 22-19 22-19-2 10-40 48-43 51-32 30z"/>
  <path d="m1820 2209c-21-23-30-44-30-66 0-42 11-42 44 2 15 19 36 35 47 35 14 0 19 7 19 25 0 14-4 25-9 25s-16 3-25 6c-10 4-27-6-46-27z"/>
  <path id="fc" d="m1691 2136c-22-8-38-22-46-43-7-17-11-33-9-35 6-7-26-108-35-108-4 0-15-18-24-40-16-41-37-54-37-22 0 10 12 51 26 92 30 87 38 120 31 120-12 0-97-42-102-50-15-25-45-161-45-207s3-53 20-53c11 0 20-4 20-10 0-5 16-10 35-10 28 0 38 5 47 25 10 22 17 25 69 25 32 0 61 5 64 10 3 6 17 10 31 10 21 0 24 5 24 34 0 40-15 56-25 26-12-37-26-22-20 21 9 59 21 86 45 99 26 14 26 36-1 51-17 9-20 17-14 45 7 38 1 40-54 20zm-32-147c-16-65-26-86-34-79-9 8-6 30 11 91 27 91 35 110 42 90 2-7-6-53-19-102z"/>
  <path id="fd" d="m3393 2110c-3-17-14-37-25-44-16-12-18-21-12-65 4-28 11-51 16-51s7 13 3 30c-5 23-3 30 9 30 16 0 18-6 37-92 8-37 17-58 26-58 10 0 11 5 3 19-15 29-12 48 3 26 13-16 14-15 20 21 4 24 1 55-7 79-8 22-20 61-26 88-14 54-37 63-47 17z"/>
  <path d="m3463 2101c8-23 13-28 15-16 2 10-3 25-12 33-14 15-15 13-3-17z"/>
  <path id="fe" d="m3530 2085c0-9 7-29 15-44 13-27 49-155 59-213 7-41 14-48 52-48 34 0 34 0 35 48 0 41 2 44 11 25 9-18 20-23 50-23 37 0 38 1 38 36 0 20-10 54-22 75-18 33-27 39-55 39-30 0-33-3-34-32 0-28-2-30-9-13-5 11-9 34-9 50-1 43-24 71-78 95-55 24-53 24-53 5z"/>
  <path id="ff" d="m3481 2050c0-8 6-33 14-55 17-47 21-99 5-75-9 13-10 13-10 0 1-8 7-24 15-34 15-19 15-19 16 5 0 19 3 16 14-16l14-40-3 59c-2 41-8 63-19 71-10 7-17 17-17 22 0 6-7 26-15 44-8 19-14 27-14 19z"/>
 </g>
 <g id="fg" transform="translate(-1279,-1676)" fill="#5d5b5c">
  <path id="fh" d="m2770 3577c0-25 3-48 8-50 9-6 9 80-1 89-4 4-7-13-7-39z"/>
  <path id="fi" d="m2806 3548c4-29 15-50 33-65 30-27 61-30 61-7 0 17-78 114-92 114-4 0-5-19-2-42z"/>
  <path id="fj" d="m2087 3399c-10-6-34-9-53-7-29 3-34 1-34-17 0-29 30-55 62-55 21 0 29 8 42 40 22 56 20 60-17 39z"/>
  <path id="fk" d="m2121 3028c-7-24-17-52-21-63-8-18-9-18-10 5s-2 23-10 5c-12-27-12-47-1-41 5 3 11-1 15-9 3-8 18-15 34-15 15 0 33-5 40-12 9-9 12-5 12 19 0 18-4 35-10 38-5 3-10 31-10 61 0 67-21 73-39 12z"/>
  <path id="fl" d="m3078 2870c4-41-2-46-45-41-30 4-10-46 33-81 35-30 54-38 84-38h39l-44 86c-25 48-45 93-45 100 0 8-6 14-13 14-9 0-11-12-9-40z"/>
  <path d="m2420 2872c0-5-9-19-20-32-21-24-25-70-10-105 5-11 9-14 9-7 1 22 93 11 109-13 11-17 12-11 8 45-9 92-23 120-63 120-18 0-33-4-33-8z"/>
  <path id="fm" d="m3413 2583c-8-21-6-36 8-63 16-34 35-107 31-122-1-4 5-5 13-2 9 4 13 15 10 28-21 102-39 172-45 179-4 5-12-4-17-20z"/>
  <path id="fn" d="m2430 2565c0-13-11-25-31-34-36-16-26-34 17-29 32 3 43 33 25 65-10 17-10 17-11-2z"/>
  <path id="fo" d="m1686 2558c-2-7-9-32-16-54-16-55-18-86-4-91 7-2 15 13 19 34s15 55 26 77c10 22 19 41 19 43 0 10-41 1-44-9z"/>
  <path id="fp" d="m2684 2535c-8-21 4-35 32-35 18 0 24 5 24 21s-5 20-20 16c-11-3-18-1-14 4 3 5 0 9-6 9s-13-7-16-15z"/>
  <path id="fq" d="m2345 2446c-45-7-103-20-130-29-28-9-68-21-90-26-38-10-41-13-40-43 1-18 7-43 14-56 10-19 18-22 44-17 18 3 48 7 67 8 19 2 44 8 56 14 35 20 74 24 74 8 0-8 5-17 11-21 9-5 10 9 5 50l-7 56 26-10c38-15 65-12 65 6 0 8 5 12 10 9 6-3 10-16 10-29 0-16 10-27 35-39 38-18 90-23 80-8-3 6 7 6 27 0 37-10 64-4 93 20 52 45 82 44 98-1 4-10 13-18 22-18 8 0 15-4 15-9 0-11 46-22 108-26 31-2 41 0 31 7-10 6-4 7 17 3 32-6 46 9 57 62 5 24 10 22-153 67-133 37-384 47-545 22zm-110-96c-14-16-21-17-32-8s-11 13-1 19c7 5 22 9 32 9 18 0 18-1 1-20z"/>
  <path id="fr" d="m3077 2293c-16-15-6-39 18-41 28-2 38 9 29 32-6 16-35 22-47 9z"/>
  <path id="fs" d="m3767 2221c-5-36-4-68 1-73 12-12 69-27 76-20 14 14 5 90-12 105-26 24-29 22-24-18 3-21 0-35-7-35-11 0-18 23-23 75-2 19-6 7-11-34z"/>
  <path d="m3388 2116c3-27-1-37-17-48-20-12-20-13 5-39 15-16 31-50 40-89 16-68 11-88-13-52l-15 22-39-35c-22-19-44-35-49-35-6 0-10-16-10-35 0-24-5-35-15-35-11 0-15-12-15-45v-45h175c149 0 175 2 175 15 0 9 9 15 25 15 14 0 25-4 25-10 0-5 18-10 40-10s40 4 40 9 23 11 50 15c47 6 50 8 50 35 0 40-40 141-56 141-14 0-19 14-29 76-6 36-11 44-46 59-30 14-42 16-51 7-21-21-45-13-53 16-4 15-10 21-12 15-3-7 4-28 15-45 11-18 18-38 16-43-3-6 5-37 16-70 11-32 20-67 20-77 0-42-21-1-56 110-50 158-51 162-69 162-14 0-13-4 1-37 40-93 77-243 60-243-7 0-16 13-21 29-36 110-101 271-111 275-9 3-8-5 1-32 29-79 75-233 75-248 0-11-6-15-20-11-11 3-20 0-20-6-1-29-50 48-64 100-9 32-23 73-31 91-16 34-7 72 16 72 6 0 9 12 7 28-2 18-9 28-24 30-18 3-20-1-16-32zm372-248c0-5-4-8-9-8-8 0-41 71-41 88 1 9 50-70 50-80z"/>
  <path id="ft" d="m1587 2097c-8-7-22-37-31-67-30-111-71-216-74-192-2 12 4 48 13 80 10 31 19 65 20 75 2 9 7 22 10 27 3 6-5 10-19 10s-26 4-26 9-45-9-100-32l-100-41v-58c0-43 4-60 15-64 11-5 12-11 5-24-6-10-10-41-10-69 0-50 0-51 31-51 20 0 37 8 49 23 15 18 21 20 31 9 8-7 39-12 76-12 56 0 63-2 63-20 0-19 6-20 98-19 68 0 90 3 75 9-38 15-27 45 37 103l60 54-26 24c-22 21-25 29-20 74 6 54-2 43-25-33-11-37-16-42-35-38-15 4-24 1-28-11-8-19-22-8-28 22-4 18-6 17-18-7-7-16-19-28-26-28-10 0-10 10 2 48 37 121 52 182 44 187-9 6-12-1-50-110-36-103-69-179-76-173-2 3 3 39 12 79 10 41 17 80 15 87-1 6 3 12 9 12 5 0 10 8 10 18 0 9 11 36 24 59 25 43 22 62-7 40zm-186-203c-12-26-24-45-26-42-3 3 4 27 15 53s23 45 26 42-4-27-15-53z"/>
 </g>
 <g id="fu" transform="translate(-1279,-1676)" fill="#64555b">
  <path id="fv" d="m1280 3530c0-99 2-110 18-110 10 0 24 6 31 13 7 6-1-17-18-53-20-41-31-81-31-107 0-41 1-43 30-43s30-1 30-50c0-27 4-50 9-50 6 0 6-12 0-32-15-53-11-135 6-142 8-3 15-17 15-31 0-18 5-25 19-25 15 0 21-8 23-32 3-30 6-33 41-36 20-2 37-7 37-13 0-5 20-9 45-9 39 0 50 5 85 40 26 26 40 49 40 65 0 37-35 101-87 156-43 46-44 48-23 59s21 12 3 25c-10 8-30 15-45 15h-27l2 121c1 105-1 123-16 134-14 10-16 18-7 39 5 15 10 43 10 62 0 32-2 34-33 34-21 0-36 7-45 20-7 11-18 20-26 20-7 0-21 9-31 20s-26 20-37 20c-16 0-18-10-18-110zm154-386c8-20 8-29-1-21-3 4-12-1-19-11-12-15-13-15-14 9 0 39 22 54 34 23zm81-134c-15-29-13-50 4-50 5 0 12 16 15 35 12 64 65 29 73-49 5-43 4-45-28-59-29-12-34-12-37 0s-8 11-23-3c-19-18-20-17-13 24 8 52-7 55-25 6-21-57-26-30-6 33 22 71 47 122 52 106 2-6-3-26-12-43z"/>
  <path id="fw" d="m2328 3594c-28-28-38-47-38-71 0-25 4-31 15-27 9 4 15 19 15 38 0 17 7 40 15 50 14 19 15 18 15-14 0-24 3-31 11-23 6 6 9 27 7 48l-3 38z"/>
  <path id="fx" d="m3790 3610c0-16-7-20-30-20-20 0-30-5-30-15s-11-15-35-15c-32 0-35-3-35-28 0-15 4-41 9-59 8-29 7-32-16-38l-26-6 8-107c4-59 8-116 9-127 2-25-17-45-43-45-34 0-33-19 1-22 17-2 34-10 36-18 4-12 3-13-10-3-12 11-22 7-56-23-25-21-42-44-42-57 0-16 3-18 12-9 29 29 68-1 52-42-7-18 0-20 25-7 20 11 34 4 50-26 15-29 14-33-5-33-9 0-18 9-21 20-8 31-23 24-23-11v-30l-25 28c-25 29-34 18-14-19 9-17 8-19-8-14-10 3-24 1-32-4-21-12 2-60 28-60 10 0 24-7 31-15s28-15 48-15h35l-6 55c-5 50-4 55 14 55 12 0 19 7 19 19 0 14 10 20 40 25l40 6v54c0 73-10 116-26 116-8 0-14 5-14 10 0 6 9 10 20 10 15 0 20 7 20 25 0 21 5 25 30 25h30v63c0 45-7 77-25 115-14 30-25 55-25 57 0 1 11 0 25-3l25-4v212h-30c-23 0-30-4-30-20zm-54-315c16-47 18-73 5-59-20 21-51 86-45 95 11 18 26 4 40-36zm-12-133c3-5 8-28 12-52 8-48-9-50-19-3-3 16-9 36-12 46-7 17 9 25 19 9zm-34-63c0-11-4-17-10-14-5 3-10 13-10 21s5 14 10 14c6 0 10-9 10-21zm-61-84c0-20 0-20-14-1-8 11-15 29-15 40 0 20 0 20 15 0 8-10 14-28 14-39z"/>
  <path id="fy" d="m2521 3541c-8-5-38-7-68-4l-53 6v-52c0-48 2-51 25-51 20 0 25-5 25-24 0-15 7-26 19-29s18 0 15 7 12 16 37 23c45 12 98 2 134-24 18-14 16-15-30-9-49 6-50 6-21-9 31-16 74-19 94-7 17 11 32 67 32 119 0 39-2 43-24 43-14 0-28 5-31 10-8 12-135 13-154 1zm77-44c18-21-2-39-38-35-40 4-48 19-18 34 32 16 44 16 56 1zm70-15c12 3 14-6 6-27-8-20-31-19-42 3-13 24-4 46 13 32 7-6 17-9 23-8zm-178-29c0-26-15-30-36-9s-17 31 11 31c19 0 25-5 25-22z"/>
  <path d="m2230 3489c-22-28-40-57-40-65 0-24 38-15 58 14 18 25 38 102 27 102-2 0-23-23-45-51z"/>
  <path id="fz" d="m2270 3425c-7-8-8-15-2-15 5 0 15 7 22 15s8 15 2 15c-5 0-15-7-22-15z"/>
  <path id="ga" d="m2617 3212c6-25-32-40-82-31-40 7-65-3-65-25 0-7-13-22-30-34-16-13-30-31-30-42 0-29 8-25 54 25 41 43 45 45 98 45 62 0 101-24 135-81 13-21 25-29 46-29 19 0 38-10 57-30 15-16 31-30 34-30 8 0 8 108 0 138-4 13-14 22-26 22-11 0-18-5-16-12 2-6-4-20-14-30s-18-25-18-33-7-15-15-15-15 6-15 14-18 36-40 62c-25 31-38 55-34 66 3 10-2 21-15 27-27 15-30 14-24-7z"/>
  <path id="gb" d="m2285 3091c-5-32 1-111 9-111 2 0 22 18 45 39l43 40-27 25c-15 14-24 30-20 35 4 7-4 11-19 11-20 0-25-6-31-39z"/>
  <path id="gc" d="m2082 3038c-1-10-9-18-17-18-11 0-15-12-15-50 0-27-4-50-9-50s-12-14-16-31-24-63-45-103c-21-39-41-81-45-93-6-21-3-23 34-23 39 0 41 2 51 40 9 34 17 43 50 56 34 14 40 21 40 45 0 31-9 36-28 17-30-30-44 51-16 91 15 21 18 22 26 7 6-10 19-16 31-14 12 1 28-1 35-5 8-6 12-1 12 17 0 14-4 26-10 26-5 0-10 23-10 50 0 29-4 50-11 50s-10-23-7-65c3-56 1-65-14-65s-16 4-8 26c6 14 10 37 9 52-1 28-2 26-15-23-7-27-9-25-14 25-4 30-7 47-8 38z"/>
  <path id="gd" d="m3064 2918c22-31 21-85-1-91-14-4-13-5 4-6 18-1 22 6 28 49 8 56 2 70-26 70-19 0-19-1-5-22z"/>
  <path d="m3020 2810c0-16 7-20 33-20h32l-25 20c-32 25-40 25-40 0z"/>
  <path id="ge" d="m2680 2761c0-5 7-11 15-15 8-3 15-14 15-24 0-21 18-42 38-42 7 0 21-8 30-17 16-16 17-14 20 21 5 52-27 86-80 86-21 0-38-4-38-9z"/>
  <path id="gf" d="m2912 2688c-7-7-12-34-12-60 0-48 0-48 33-48 17 0 39 5 47 10 12 8 11 10-7 10-39 0-35 19 7 31 39 12 46 22 34 53-7 19-84 22-102 4z"/>
  <path id="gg" d="m1698 2603c-3-4-8-21-12-36-6-26-4-28 16-25 18 2 22 9 20 28-3 27-17 46-24 33z"/>
  <path d="m1539 2424c-13-14-37-33-52-41-28-14-28-15-11-34 25-27 38-24 57 15 10 21 25 36 38 38 12 2 26 13 30 26 7 19 5 22-15 22-12 0-33-12-47-26z"/>
  <path id="gh" d="m3540 2425c0-8 6-15 13-15s27-20 45-45c20-28 39-45 52-45 34 0 23 30-27 77-48 43-83 55-83 28z"/>
  <path id="gi" d="m1754 2329c-21-11-54-87-54-126 0-20 3-21 33-12 17 5 45 23 60 40 23 25 27 36 21 62-11 52-18 56-60 36z"/>
  <path id="gj" d="m3327 2333c-18-31-16-71 4-97 19-24 73-56 94-56 12 0 4 54-15 95-23 52-68 83-83 58z"/>
  <path id="gk" d="m3740 2292c11-22 20-60 20-84-1-40-2-42-15-24-8 11-15 15-15 9 0-15 34-43 53-43 13 0 14 5 6 32-5 18-9 47-9 64 0 21-9 39-30 59l-30 29z"/>
  <path id="gl" d="m1362 2290c-6-11-11-37-10-57l1-38 4 35c3 19 14 45 25 58 16 16 18 22 7 22-8 0-20-9-27-20z"/>
  <path d="m1409 2288c-1-24-2-35-14-87-7-32 2-40 23-19 14 14 16 128 2 128-5 0-10-10-11-22z"/>
  <path d="m1298 2233c-12-13-18-36-18-66 0-47 0-47 28-41 44 11 62 23 62 44s-15 27-25 10c-13-21-24-8-27 31-3 40-3 41-20 22z"/>
  <path d="m1805 2191c-28-41-30-76-5-76 10 0 17 14 21 42 3 23 11 48 18 57 8 9 9 16 4 16-6 0-23-18-38-39z"/>
  <path d="m1641 2084c-7-17-8-31-2-37 5-5 12 3 16 23 9 40 2 48-14 14z"/>
  <path id="gm" d="m1540 1973c-15-43-15-46-2-51 7-2 32 60 32 82 0 20-18 1-30-31z"/>
 </g>
 <g id="gn" transform="translate(-1279,-1676)" fill="#606061">
  <path id="go" d="m2057 3729c-15-12-35-22-45-23-16-3-62-59-62-77 0-5 10-9 23-9 13 1 50 27 92 65 60 56 66 65 45 65-14 0-37-10-53-21z"/>
  <path id="gp" d="m1698 2935c55-110 85-146 105-126 18 18-34 107-101 172l-54 54z"/>
  <path id="gq" d="m1631 2985c0-5 8-26 19-45s19-30 19-25c0 6-8 26-19 45s-19 31-19 25z"/>
  <path id="gr" d="m2272 2425c-11-13-23-18-87-30-11-2-26-14-33-26-12-19-11-24 9-45 37-39 81-33 122 19 47 59 49 63 31 81-19 19-25 19-42 1z"/>
  <path d="m2422 2429c-18-3-35-9-38-11-10-11 10-39 32-44 13-3 28-12 35-20 13-16 69-19 69-4 0 6-7 10-16 10s-14 7-12 18c3 14 14 17 63 17 46 1 61 4 63 16 4 21-84 35-105 18-9-8-21-9-36-2-12 5-37 6-55 2z"/>
  <path id="gs" d="m2652 2400c-10-40-5-49 15-29 6 6 19 9 29 6 16-4 15-5-3-6-13 0-23-5-23-10s-10-12-22-16c-22-7-22-8 5-12 17-3 36 2 45 10 10 8 27 18 40 22 19 5 21 9 11 21-6 8-8 14-3 14 10 1-66 40-77 40-3 0-11-18-17-40z"/>
  <path d="m2802 2413c-10-4-8-11 9-29 38-40 67-24 35 19-14 17-21 19-44 10z"/>
  <path id="gt" d="m2905 2362c4-9 8-24 9-32 4-21 35-25 42-6 3 9 12 16 19 16 8 0 17 5 20 10 4 6 3 10-2 9-18-3-34 1-30 9 3 4-11 8-30 9-29 1-34-1-28-15z"/>
  <path id="gu" d="m2007 2281c-3-11 1-22 9-25 16-6 47 22 39 35-11 16-43 9-48-10z"/>
  <path id="gv" d="m3650 2017c0-22 7-36 21-45 18-12 20-11 17 7-2 11 0 20 5 21 27 1 31-1 17-10-10-6-11-10-2-10 6 0 12-7 12-15 0-9 11-38 25-65s34-73 45-101l21-52-21 6c-11 3-20 1-20-5 0-5-4-6-10-3-13 8-13-21 0-46 8-14 21-19 50-19h40v285l-72 30c-39 17-84 36-100 43-28 12-28 12-28-21z"/>
  <path id="gw" d="m1320 1950c15-10 14-10-22-14-10-1-14-35-16-128l-3-128h38c51 0 83 34 83 86-1 31-3 36-11 22-5-10-16-18-24-18s-21-10-29-22c-16-22-16-22-16-1 0 11 6 36 14 54 14 36 11 59-10 71-7 5-10 17-7 29l6 21 24-44 6 22c8 29-8 60-31 60-15 0-15-2-2-10z"/>
  <path id="gx" d="m3313 1848c-22-13-36-32-43-57-5-21-19-46-30-56s-20-27-20-37c0-16 6-19 38-16 33 3 37 6 37 31-1 18 4 27 15 27 12 0 15 8 12 34-3 25 2 40 17 55 21 21 28 42 14 40-5 0-23-10-40-21z"/>
 </g>
 <g id="gy" transform="translate(-1279,-1676)" fill="#696667">
  <path id="gz" d="m2005 3660c-4-6-14-9-23-6-12 4-29-12-58-52-38-53-61-112-43-112 4 0 10-18 14-39 5-31 15-45 45-65 23-15 46-23 59-19 29 7 26 19-9 40-32 19-55 75-44 109 13 40 48 104 65 120 11 10 19 21 19 26 0 11-18 10-25-2z"/>
  <path id="ha" d="m2628 3563c-33-5-41-43-9-43 11 0 23-4 26-10 3-5 17-10 31-10 13 0 24-6 24-12 0-28-22-88-31-88-6 0-7-4-4-10 10-17 51-11 70 10 11 12 19 42 22 82 5 61 4 64-21 76-27 12-54 13-108 5z"/>
  <path d="m2380 3487c0-86 14-107 73-107 28 0 35 3 31 15-4 10 0 15 12 16 16 0 15 2-4 10-32 12-53 35-58 63-4 23-2 24 37 19 70-10 154 32 103 51-9 3-56 6-105 6h-89z"/>
  <path d="m2870 3500c0-5-7-10-16-10-12 0-10-6 9-30 14-16 28-39 32-50 7-23 55-29 55-7 0 18-59 107-71 107-5 0-9-4-9-10z"/>
  <path id="hb" d="m3626 3458c-15-56-1-98 32-98 9 0 13 7 9 20-3 11-1 18 3 15 5-3 11 1 14 7 3 10 9 8 19-4 8-10 17-18 21-18 11 0 6 41-9 70-13 24-22 30-49 30-26 0-35-5-40-22z"/>
  <path id="hc" d="m2841 3421c12-17 27-31 31-31 14 0-11 39-33 51-20 10-20 9 2-20z"/>
  <path id="hd" d="m2710 3310c-56-49-46-51 22-5 29 19 54 32 57 29 4-3-18-27-47-53l-54-48 32-31c17-18 35-32 40-32s10 17 12 37c2 30 9 41 31 51 23 11 27 19 27 53 0 39 0 39-37 39-30-1-48-10-83-40z"/>
  <path id="he" d="m1280 3220c0-73 2-80 20-80 16 0 20-7 20-30 0-27 3-30 30-30 33 0 43 15 56 86l7 39-22-25-21-25 5 50c3 28 8 57 11 66 6 21-35 34-42 14-3-7-12-16-21-19-12-5-14-1-10 14s0 20-14 20c-17 0-19-8-19-80z"/>
  <path id="hf" d="m3342 3257c-23-64-19-67 48-44s80 47 25 47c-24 0-35 5-35 15 0 28-26 15-38-18z"/>
  <path id="hg" d="m3825 3253c6-34 5-36-8-20-8 9-25 17-38 17-23 0-24-3-20-42 3-39 2-41-13-29-24 20-28 9-15-43 11-43 13-46 45-46s34 2 34 35c0 28 4 35 20 35 18 0 20 7 20 65 0 52-3 65-15 65-13 0-15-8-10-37z"/>
  <path id="hh" d="m2077 3118c-53-230-55-258-17-208 12 15 21 50 25 90 13 136 45 151 45 22 0-80 2-91 24-111l23-22 7 75c4 47 3 83-4 95-5 11-10 35-10 54 0 21-7 41-20 52-11 10-20 29-20 42s-6 23-14 23c-9 0-22-37-39-112z"/>
  <path d="m3639 3216c9-11 3-19-34-40-53-32-57-46-12-46 35 0 57-15 57-38 0-9-7-11-20-7-42 13-10-63 33-78 24-9 25-97 1-97-9 0-18 9-21 20s-9 20-14 20c-12 0-12 1 6-66 17-66 14-77-11-39-13 20-19 23-26 13s-12-9-24 7c-8 11-20 19-26 17-16-4-37 30-38 62 0 33 43 96 66 96 8 0 14 10 14 25 0 36-14 31-54-18-37-46-97-166-89-179 2-5 16-8 31-8 19-1 36-12 57-40 25-33 36-39 66-40 23 0 39 5 42 14 3 8 21 18 40 21 29 6 36 13 47 46 8 24 19 39 30 39 27 0 40 22 40 67 0 36-3 43-20 43-11 0-20-6-20-14 0-7-9-16-20-19-23-6-34 10-57 86-23 74-23 77-1 77 15 0 18 5 13 23-12 44-29 67-48 67-15 0-17-3-8-14z"/>
  <path id="hi" d="m1443 3184c-16-36-9-44 37-44 35 0 38 2 32 23-6 23-29 46-47 47-5 0-15-12-22-26z"/>
  <path d="m3003 3165c-7-8-13-26-13-40 0-16-6-25-15-25-10 0-15-10-15-34 0-19-5-36-11-38-8-3-9-23-4-66 4-40 11-60 18-55 5 3 24 7 40 9 16 1 33 7 37 13 5 9 10 8 20-4 17-21 43-20 36 3-3 9-10 40-15 67-20 103-44 185-55 185-6-1-17-7-23-15zm36-121c8-67 3-93-17-80-12 7-25 128-16 150 11 30 24 3 33-70z"/>
  <path d="m2630 3156c0-12 40-46 55-46 3 0-4 14-17 30-23 32-38 38-38 16z"/>
  <path id="hj" d="m1462 3098c-7-13-23-57-36-98-16-49-25-66-25-48-1 15-8 31-17 36-12 7-15 19-12 41 4 27 2 31-19 31s-23-4-23-57c0-76 21-137 49-141 17-3 21-10 21-41 0-35 3-39 31-45 57-11 79-7 104 22 30 34 32 52 5 45-14-4-20-1-18 8 2 7-3 13-10 14-7 0-17 6-21 14-7 11-11 10-19-4-16-30-32-6-32 48 1 55 17 127 38 164 14 26 15 33 4 33-5 0-14-10-20-22z"/>
  <path id="hk" d="m1540 3070c0-17 8-29 27-37 39-19 41-7 5 30l-32 32z"/>
  <path id="hl" d="m1630 2961c0-21-10-47-26-68l-25-33h38c57 0 68 11 54 51-7 19-18 45-26 59l-14 25z"/>
  <path id="hm" d="m2402 2946c-25-12-41-54-25-65 5-3 9-17 9-31 0-76 4-100 20-100 11 0 15 6 11 19-2 10 0 25 5 32 8 11 8 10 4-4-3-10-2-16 3-13s12 20 15 38l7 33 17-37c24-55 42-49 42 15 0 28-5 69-11 90-9 33-13 37-42 36-18-1-42-7-55-13z"/>
  <path d="m2635 2940c-6-9-13-57-31-197-3-23-1-50 5-60 9-16 10-15 11 10 0 29 14 36 24 12 9-24 26-17 26 9 0 34 15 40 50 23l29-15v99c0 75-3 102-15 114-17 17-89 21-99 5z"/>
  <path id="hn" d="m2141 2841c-8-5-20-7-28-4s-23-4-34-16c-11-11-31-24-45-27-26-7-43-30-50-70-8-41 40-31 98 21 28 25 56 45 64 45 9 0 14 11 14 30 0 34 0 33-19 21z"/>
  <path id="ho" d="m2398 2519c-7-4-17-5-23-2-5 3-5 1 1-6 14-15 66-11 71 6 5 13-30 14-49 2z"/>
  <path d="m1726 2316c-54-25-64-40-65-103l-1-42 31 9c40 12 36 7 58 71 11 29 26 58 35 64 9 7 13 15 9 18-9 9-11 9-67-17z"/>
  <path id="hp" d="m3360 2303c0-8 11-39 25-69 17-38 30-54 44-54 11 0 26-3 35-6 20-8 22 26 5 77-16 46-21 50-68 59-32 6-41 4-41-7z"/>
  <path id="hq" d="m3315 2280c-4-7 2-22 14-34l22-21-3 29c-3 31-21 45-33 26z"/>
  <path id="hr" d="m3709 2247c-5-35-1-42 38-78 23-21 49-39 57-39s21-3 30-6c12-4 16 0 16 16 0 19-4 22-26 17-20-3-28 0-31 14-4 15-9 16-24 8-21-11-28 0-46 71l-10 35z"/>
  <path id="hs" d="m1396 2205c-7-35-20-45-30-22-3 9-9 7-19-5-20-25-37-22-38 5-1 20-2 20-6 2-3-11-9-24-14-29-5-6-9-16-9-23 0-18 43-7 98 24 34 20 42 30 42 54 0 40-16 36-24-6z"/>
  <path id="ht" d="m1410 2141c-14-10-45-26-70-35-39-14-41-15-10-10 31 6 120 50 120 60 0 9-16 3-40-15z"/>
  <path id="hu" d="m3730 2125c15-18 84-38 108-32 11 3 8 5-8 6-14 1-36 7-50 14s-34 16-44 20c-16 6-17 5-6-8z"/>
  <path id="hv" d="m1496 2057c-43-20-49-27-53-57-2-19-10-44-18-57-9-13-18-41-21-64-3-22-7-48-9-57s-4-22-4-28c-1-6-11-22-23-35-13-14-31-37-41-52l-17-27h130c117 0 130 2 132 18 5 55 2 182-4 182-5 0-8-9-8-21 0-31-39-111-51-103-6 3-9 15-6 25 7 26-5 24-33-6-21-22-48-26-35-4 4 5 2 9-4 9-11 0-6 45 14 116 9 30 29 67 50 90 19 21 35 42 35 48 0 5 7 18 17 28 21 24 9 23-51-5z"/>
  <path id="hw" d="m3590 2059c0-24 34-65 65-80l34-16-2 36c-2 31-7 38-41 53-44 21-56 22-56 7z"/>
  <path id="hx" d="m3561 1798c1-13-2-31-6-42-5-12-2-28 8-45 15-25 18-26 137-29l121-3-23 40c-12 22-25 35-29 30-3-5-17 0-32 11l-27 21v-30c0-17-3-31-6-31-10 0-33 31-52 70l-16 35-6-45-5-45-23 43c-24 46-45 55-41 20z"/>
 </g>
 <g id="hy" transform="translate(-1279,-1676)" fill="#777">
  <path id="hz" d="m3486 3721c-17-32-76-205-76-222 0-6 14-9 32-7 31 3 34 6 42 51 5 29 13 47 22 47s14 11 14 30c0 20 5 30 15 30 8 0 15 9 15 19s7 21 15 25c8 3 15 17 15 31 0 23-4 25-40 25-33 0-42-4-54-29z"/>
  <path id="ia" d="m2493 3718c-18-6-58-31-90-57l-57-46 3-60c1-33 7-66 13-73 13-15 14-14-42-33-35-12-49-24-63-52-18-36-37-49-37-24 0 6 7 24 14 40 13 23 13 27 0 27-8 0-14 8-14 18-1 15-2 15-16-3-25-32-75-134-90-184-20-66-18-114 6-136 13-12 20-31 20-54 0-20 4-42 9-49 4-7 5-33 1-58-6-36-3-50 11-68 18-23 18-24-1-49-11-14-20-28-20-32s24-5 53-1c28 4 73 7 100 6 48-1 61 11 30 29-19 10-21 47-10 159 6 55 5 62-11 62-25 0-50-32-58-74-8-47-39-50-48-5-16 82 0 194 37 257 21 36 29 39 47 17 7-8 28-15 46-15 33 0 34-1 34-39 0-22 4-42 8-45 5-3 23 9 41 26l32 31-51 44c-53 47-68 77-24 48 21-14 28-14 34-4 7 10 12 10 26-2 23-19 239-20 273-1 35 21 89 22 96 3 4-9-1-21-11-28-16-11-13-13 22-13 22 0 45 5 51 11 7 7 17 0 33-25 55-90 68-296 19-296-11 0-19 7-19 15s-10 44-21 80c-20 59-24 65-49 65-27 0-27-1-19-42 35-192 36-199 9-223-11-10-20-22-20-27 0-10 187-11 194 0 3 5-4 16-15 25-24 21-24 32 0 49 19 13 22 53 5 79-4 8-3 9 4 5 8-5 12 3 12 26 0 54 19 110 36 104 19-7 18 30-2 113-24 96-104 243-104 191 0-5-7-10-14-10-13 0-13-4 0-35 22-53-6-46-31 8-17 35-28 44-65 57-57 18-55 17-41 34 6 7 13 39 14 71 3 55 2 58-37 92-83 72-171 97-253 71zm155-110c7-7 12-27 12-45 0-22 5-33 13-31 6 1 23-2 35-6 21-7 23-12 17-44-3-22-18-48-35-64-15-14-26-28-24-31 3-2-37-3-88-2-58 1-94 7-96 14-2 6 3 11 12 11 8 0 17 4 20 9 4 5-10 4-29-2-49-15-75 9-75 70v43h50c43 0 50 3 50 20 0 14-7 20-23 20-33 0-40 10-20 32 13 14 31 18 93 18 46 0 81-5 88-12z"/>
  <path id="ib" d="m3691 3592c2-23 0-44-4-48s-7-17-7-30-8-24-20-27c-15-4-20-13-20-39 0-18 5-40 11-48 9-13 10-13 8 0-1 8-1 24 0 34 1 19 2 19 21-2 21-23 50-91 50-121 0-9 12-38 25-66 32-64 34-125 5-125-12 0-20 7-20 17 0 9-3 14-6 11s1-30 10-59c24-90 28-135 11-149-8-7-21-10-28-7-9 3-18-10-26-39-10-32-18-44-32-44-11 0-19-7-19-16 0-13-3-14-14-5-11 10-17 8-25-6-9-17-11-17-25 2-8 11-12 24-9 29 4 5 1 6-5 2-6-3-22 8-36 26s-26 27-26 20c0-10-8-12-28-7-28 6-30 4-60-74-18-44-32-85-32-91s14-8 40-4c33 6 40 4 40-10 0-10-5-26-10-37-9-16-4-28 32-69 24-28 52-50 62-50 17 0 18 6 13 50-7 59 4 59 23-1 8-22 20-43 27-46s13-19 14-37c1-56 23-100 59-118 18-9 38-22 43-27 36-36 36 27 0 119-15 39-33 70-40 70-8 0-13 12-13 30 0 43 31 40 53-5 15-30 21-35 53-35h36l-4 50c-2 42 0 50 15 50 16 0 17 19 17 260 0 245-1 262-20 288-39 53-149 322-132 322 9 0 108-207 118-244 3-14 12-26 20-26 11 0 14 20 14 93v93l-45 44c-52 51-57 70-16 70 22 0 30 5 33 24 5 26-3 29-95 43l-39 5z"/>
  <path id="ic" d="m1338 3609c-21-12-24-39-4-39 7 0 19-7 26-15 11-14 6-23-33-63l-47-48v-104c0-63 4-100 9-95 5 6 32 61 60 123 44 98 91 180 91 158 0-14-74-194-116-282l-44-93v-225c0-215 1-226 19-226 21 0 31-19 31-61 0-27 3-29 35-29 27 0 38 5 43 20 7 18 18 21 82 25 51 2 76 8 82 18 4 9 26 18 48 22 26 4 40 12 40 22 0 13 8 14 40 9 22-3 40-2 40 3 0 17-60 168-75 187-13 17-14 17-15 2 0-9-10-20-22-24-13-4-37-17-54-30s-38-24-47-24-22-9-29-20c-15-24-28-26-28-4 0 14-3 14-15 4-9-7-18-11-20-8-3 3-6 39-7 82-1 73-13 93-20 33-4-39-19-35-34 10-17 49-17 68 1 121 17 47 13 64-10 55-24-9-19 78 9 139 12 29 29 75 36 101s18 46 24 44c12-4 26-85 15-89-4-2-5-33-2-70 4-51 10-68 20-68 9 0 13-6 10-14-4-10 6-15 36-19 60-8 64 5 12 37-46 30-55 43-32 51 9 4 12 41 12 137v132l-25 6c-16 4-26 14-28 28-2 12-7 22-12 22s-10 15-12 33c-3 29-6 32-38 34-19 2-43-2-52-8z"/>
  <path id="id" d="m1903 3529c-7-7-13-9-13-3-1 5-7-6-15-24-17-39-7-75 26-92 33-18 44 0 31 52-6 24-13 51-14 61-2 15-5 16-15 6z"/>
  <path id="ie" d="m1957 3385c5-8 24-26 43-40 63-47 99-21 39 29-34 29-96 37-82 11z"/>
  <path id="if" d="m3640 3325c-6-14-10-35-10-46 0-10-7-19-15-19-23 0-18-14 15-38 38-29 45-28 47 6 1 15 5 42 9 61 5 24 3 32-5 27-6-4-11-1-11 8 0 27-20 28-30 1z"/>
  <path id="ig" d="m2470 3041c0-6-13-18-30-28-23-13-30-24-30-48 0-43 14-62 34-46 13 11 17 7 27-33 7-27 17-46 25-46 11 0 14 19 14 83 0 95-7 127-26 127-8 0-14-4-14-9z"/>
  <path id="ih" d="m2620 2940c0-79 3-100 14-100 8 0 18 16 23 38 8 30 13 37 31 35 20-3 22 2 22 40 0 34-6 48-25 65-14 12-34 22-45 22-19 0-20-7-20-100z"/>
  <path id="ii" d="m2714 2793c4-30 15-56 31-73 14-14 25-31 25-38 0-6 12-24 26-39s30-38 35-50c9-25 10-25 116-27 70-1 73 0 73 22 0 19-4 21-24 16-50-12-81 19-53 54 7 9 4 12-11 12-13 0-29 14-44 38-30 49-67 81-102 89-16 3-31 14-33 25-3 10-14 18-26 18-18 0-19-4-13-47z"/>
  <path id="ij" d="m3e3 2814c0-9 30-49 67-88l68-71-30-3c-57-5-62-12-23-30 41-20 76-59 87-98 7-27 55-63 67-51 12 11-23 187-46 234-13 27-25 40-34 37-7-3-37 15-66 40-55 47-90 59-90 30z"/>
  <path id="ik" d="m2370 2801c0-5-11-11-24-15-13-3-45-28-72-56-34-34-57-50-76-50-14 0-33-3-42-6-18-7-22-34-5-34 5 0 8 4 4 9-8 14 9 21 25 10 12-7 12-11 2-17-10-7-10-11 3-22 9-7 14-19 11-27-7-17 32-33 80-33 30 0 34 3 29 19-4 13 3 26 25 44 17 14 28 32 25 39-3 8 5 20 19 28 14 7 23 16 21 21-3 4 1 14 9 22s14 28 14 46c-1 26-5 31-25 31-12 0-23-4-23-9z"/>
  <path id="il" d="m2152 2591c7-11 16-17 20-14 10 5-10 33-23 33-5 0-4-9 3-19z"/>
  <path id="im" d="m3040 2594c0-8 12-31 26-50 21-27 33-34 60-34 19 0 34 4 34 8 0 5-16 27-36 50-37 44-84 58-84 26z"/>
  <path id="in" d="m2200 2540c0-5 18-10 41-10 24 0 38 4 34 10-3 6-22 10-41 10s-34-4-34-10z"/>
  <path id="io" d="m2860 2540c-11-7-3-10 30-10 25 0 52 5 60 10 11 7 3 10-30 10-25 0-52-5-60-10z"/>
  <path id="ip" d="m1630 2532c0-4-20-30-45-59-25-28-45-54-45-57s11-6 24-6c17 0 30 10 44 33 18 30 37 97 27 97-3 0-5-3-5-8z"/>
  <path id="iq" d="m3501 2489c12-54 38-82 71-77 25 3 24 5-27 62l-54 60z"/>
  <path id="ir" d="m3363 2296c7-41 22-66 42-66 8 0 10 10 7 28-6 36 4 25 22-24 14-38 15-38 15-9 1 17 4 39 7 50 4 17-2 23-33 34-21 8-44 16-52 19-11 4-13-2-8-32z"/>
  <path id="is" d="m2837 2143c-13-12-7-23 11-23 11 0 18-8 20-24 2-24 1-24-104-28-116-3-124-7-124-69v-36l73-7c39-4 88-11 107-15 19-5 99-12 178-16 125-6 142-5 142 9 0 9-6 16-14 16-10 0-16 13-18 37-2 20-8 38-14 40-13 4-39-19-47-39-3-9-8-10-16-3-8 8-8 19 1 42 10 27 17 32 54 35 35 2 45-1 53-17s10-13 10 22c1 53-11 57-129 48-83-7-89-6-102 14-12 20-66 30-81 14z"/>
  <path id="it" d="m2090 2106c-36-13-54-46-26-46 13 0 46-46 46-65 0-13-27-3-43 15-9 11-23 20-31 20-7 0-16-9-19-20s-10-20-16-20c-20 0-24 30-7 49 27 29 19 41-25 41h-42l6-52c5-40 14-59 36-82l30-30 168 13c92 7 206 16 253 19l85 7 3 31c2 19-5 40-17 56-19 24-24 25-97 20-74-5-79-4-98 20-18 22-32 27-96 31-50 4-87 2-110-7z"/>
  <path id="iu" d="m1853 2045c-24-26-33-47-38-90-5-40-4-60 5-68 10-9 14-9 17 1 3 8 18 29 34 47 23 25 29 42 29 76 0 67-11 74-47 34z"/>
  <path id="iv" d="m3239 2068c0-2-3-25-6-52-4-43-1-52 23-77 15-16 36-29 47-29 17 0 19 5 12 48-4 26-11 54-16 63-7 14-58 54-60 47z"/>
  <path id="iw" d="m3215 1710-29-30h32c29 0 32 3 32 30 0 17-1 30-3 30s-16-13-32-30z"/>
 </g>
 <g id="ix" transform="translate(-1279,-1676)" fill="#8d8d8d">
  <path id="iy" d="m1540 3730c0-36 28-126 63-201 19-41 37-82 40-91 5-14 18-18 52-18 54 0 54-10-5 171-50 153-54 159-107 159-36 0-43-3-43-20z"/>
  <path id="iz" d="m3538 3729c-10-10-18-26-18-34 0-18-12-19-28-3-17 17-26 3-13-20 15-29 14-52-3-52-10 0-17-16-22-46-5-33-12-48-25-51-11-3-19-13-19-22s-3-26-6-38c-6-21-3-23 40-23 35 0 46 4 46 16 0 9 8 28 18 42 10 15 25 43 32 62s18 41 23 47c5 7 12 42 15 78 5 71-6 82-40 44z"/>
  <path id="ja" d="m3713 3708c2-24 8-50 11-58 7-17-34-40-71-40-18 0-23-6-23-25s-5-25-21-25c-20 0-21-3-14-67 10-107 13-113 47-113 24 0 27 3 20 16-14 25-3 53 24 60 13 3 24 7 24 8 0 0-4 16-9 34-6 20-6 32 0 32 5 0 9-4 9-10 0-5 7-7 15-4 18 7 20 37 4 65-9 18-8 19 8 11 10-5 33-12 51-15 24-5 32-3 32 8 0 8 7 15 15 15 10 0 15 10 15 30 0 19-5 30-14 30-8 0-22 20-32 45-16 43-19 45-57 45h-40z"/>
  <path id="jb" d="m2474 3652c-34-5-56-36-52-74 2-25 8-34 24-36 18-2 23 4 28 32 4 19 11 36 17 38s9 13 7 23c-2 14-10 19-24 17z"/>
  <path id="jc" d="m1298 3643c-25-6-22-25 5-51 41-38 90-19 80 31-4 23-10 27-37 26-17-1-39-3-48-6z"/>
  <path id="jd" d="m1407 3581c-9-16-17-36-17-44 0-18 37-30 43-13 3 6 4-5 3-24-1-29 3-35 19-35 15 0 21-8 23-32s8-33 22-33c24 0 30 19 30 96 0 50-3 64-15 64-9 0-15 9-15 25 0 22-4 25-38 25-31 0-41-5-55-29z"/>
  <path id="je" d="m2860 3343c-8-4-29-17-46-30-17-12-36-23-43-23s-11-10-9-22c2-19 10-24 45-26 34-3 44 1 53 17 7 14 21 21 40 21h29l-20 35c-22 36-24 37-49 28z"/>
  <path id="jf" d="m2275 3120c-11-13-20-41-23-75-4-46-2-55 12-55 9 0 16 6 16 14s4 16 10 18c7 2 50 100 50 115 0 12-51-1-65-17z"/>
  <path id="jg" d="m2620 3031c0-31 5-53 15-61 13-11 15-8 15 15s2 26 15 15c8-7 15-27 15-44 0-20 8-38 21-50 17-14 20-24 15-51-9-46 7-81 41-88 34-8 71-40 101-89 25-41 59-50 82-23 7 8 18 15 25 15s15-7 19-15c3-8 16-15 29-15 32 0 88-19 110-38 16-14 17-12 17 24 0 48-5 55-57 82-59 30-138 39-161 19-17-15-19-15-34 11-9 15-18 38-20 52l-3 25 78-4c42-2 77 1 77 5 0 5-14 18-30 30-25 17-43 21-100 19-49-2-68 1-63 9 4 6-3 3-15-8-18-15-24-16-37-6-13 11-13 14 1 27 13 14 13 17-1 32-18 21-19 38-2 44 21 7-12 37-42 37-30 1-49 14-74 53-26 40-37 33-37-22z"/>
  <path id="jh" d="m2880 3010c0-5-6-10-14-10-11 0-12-8-6-36 10-44 16-50 34-35 11 9 17 9 28-1 33-31 41-16 32 55-5 34-8 37-40 37-19 0-34-4-34-10z"/>
  <path id="ji" d="m2398 2993c-13-3-18-15-18-41 0-42 16-73 28-56 4 6 15 13 24 17 12 4 17 17 16 46 0 42-6 46-50 34z"/>
  <path id="jj" d="m3820 2927c0-13 7-32 15-43 13-18 14-16 15 24 0 31-4 42-15 42-9 0-15-9-15-23z"/>
  <path id="jk" d="m1280 2898c0-32 3-39 10-28 13 20 13 70 0 70-5 0-10-19-10-42z"/>
  <path id="jl" d="m2384 2863c-9-15-16-16-68-4-35 8-73 10-99 5-23-4-45-8-49-8-4-1-17-9-28-18-11-10-25-18-31-18s-9-6-6-12c3-9 24-12 71-10 61 2 66 1 66-18 0-12-5-30-11-42-10-18-17-19-77-14-58 5-72 3-107-17-34-20-40-30-43-60-4-41 1-43 51-22 20 8 52 15 72 15 23 0 34 4 32 13-2 14 5 13 50-5 32-12 33-11 89 45 31 32 67 60 78 63 31 8 43 33 38 82-4 45-11 52-28 25z"/>
  <path id="jm" d="m1293 2813c-18-7-18-160-1-165 10-4 10-13 0-45-7-22-12-77-12-122 0-79 1-82 22-79 16 2 29 23 57 94 31 79 38 89 50 77 12-13 10-23-9-72-27-65-49-101-61-101-4 0-20-12-34-26-19-19-25-34-23-57l3-30 34 29c18 16 70 54 114 84 104 71 254 248 237 279-5 11-10 31-10 45 0 35-16 41-49 17-22-16-31-18-34-9-6 13-13 6-37-32-8-13-11-12-23 4-13 18-14 18-31-5s-17-24-31-5c-8 11-15 28-15 39 0 42-34 5-62-68-12-30-12-30-15-5-8 57-14 70-32 70-16 0-18 6-13 45 4 44 1 49-25 38z"/>
  <path d="m3825 2789c-4-6-4-31-1-57 6-43 5-45-9-28-22 28-30 12-30-55 1-32-1-59-3-59-1 0-19 36-39 80s-40 80-44 80c-5 0-9-20-9-45 0-52-12-57-37-15-16 28-33 40-33 23 0-5 7-33 15-63s12-56 10-58c-4-4-35 64-35 77 0 3-9 17-20 31-16 20-20 22-20 8 0-23-26-23-39-1-17 32-20 9-7-54 10-52 10-63-1-65-17-4 81-125 128-158l32-23-5 49c-3 27-9 57-13 67-14 34 10 16 27-21l17-37-5 53c-5 43-3 52 10 52 9 0 16 8 16 20 0 11 5 20 10 20 6 0 10-15 10-32 0-18 14-68 31-110 24-59 36-78 50-78 18 0 19 11 19 205 0 189-5 227-25 194z"/>
  <path id="jn" d="m3002 2588c2-14 11-24 24-26 12-2 32-14 45-28 31-33 42-30 34 9-10 46-33 67-72 67-30 0-34-3-31-22z"/>
  <path d="m1690 2303c-77-27-130-58-130-74 0-11 4-19 8-19s6-16 4-35-2-35 0-35c20 0 137 49 127 52-12 4-11 14 4 55 23 68 23 69-13 56z"/>
  <path id="jo" d="m3418 2294c-5-5 17-71 27-82 8-8 55 12 55 24 0 8 5 14 10 14 23 0 8 22-25 36-37 15-58 18-67 8z"/>
  <path d="m1726 2274c-9-24-7-34 8-34 13 0 26 20 26 41 0 15-27 10-34-7z"/>
  <path id="jp" d="m1964 2143c-27-19-37-78-26-152 12-85 29-103 82-94 46 7 50 10 50 34 0 16-19 25-35 17-2-2-22 15-45 37-41 40-51 65-26 65 10 0 12-7 9-22-5-21-4-21 16 5 16 19 32 27 54 27 47 0 77 10 77 26 0 8-10 14-24 14-18 0-25 6-28 23-3 19-10 22-48 25-25 1-50-1-56-5z"/>
  <path id="jq" d="m3650 2107c0-11 20-22 118-63l32-14v35c0 43-20 55-94 55-39 0-56-4-56-13z"/>
 </g>
 <g id="jr" transform="translate(-1279,-1676)" fill="#909290">
  <path id="js" d="m2488 3653c-21-8-38-21-38-28 0-14 52-25 121-25 33 0 51 5 64 20 18 20 18 21-1 35-24 18-36 19-52 3-10-10-17-10-32 0-11 6-21 12-22 11-2 0-20-7-40-16z"/>
  <path id="jt" d="m2228 3323c-54-65-73-144-66-280 3-54 11-109 18-123l13-25 10 23c7 16 17 22 36 20 22-3 26 1 26 22 0 20-6 26-27 28-28 3-28 4-28 76 0 107 35 210 64 187 6-5 34-12 62-16 46-6 52-4 56 13 7 26-9 42-40 42-13 0-37 11-54 25-35 30-50 31-70 8z"/>
  <path id="ju" d="m2396 3305c25-19 40-19 24 0-7 8-20 15-28 15-13 0-12-3 4-15z"/>
  <path id="jv" d="m2873 3293c3-16 15-55 26-87 29-81 28-106-4-106-23 0-25-4-25-44 0-24-5-46-11-48-8-3-6-14 5-37 14-26 20-30 32-20 8 6 14 19 15 28s4 5 8-8c4-14 12-26 19-29 45-15 40 248-7 336-11 20-40 42-56 42-4 0-5-12-2-27z"/>
  <path id="jw" d="m2350 2900c0-13 7-20 20-20 23 0 23 0 10-34-6-17-6-35 0-52 9-22 13-24 25-14 17 14 19 47 5 84-7 19-6 29 6 41 14 13 11 15-25 15-34 0-41-3-41-20z"/>
  <path d="m2714 2847c-3-9-2-28 3-43 8-25 9-26 31-7l23 18-25 24c-22 21-26 22-32 8z"/>
  <path id="jx" d="m2831 2841c-8-5-12-18-8-32 3-13 8-34 11-47s15-39 26-58c18-29 26-33 48-28 15 4 34 13 44 21 11 10 18 11 23 4 10-17 35-13 36 7 0 10 3 12 6 5 5-14 123-19 123-5 0 4-26 33-58 65-49 48-65 58-111 67-66 12-121 13-140 1z"/>
  <path id="jy" d="m2100 2811c-16-9-51-37-79-63-28-25-58-48-68-50-23-4-44-67-46-133-2-48-1-50 26-53 18-2 27 1 27 11 0 8 11 30 24 50 16 23 21 37 13 40-13 4 68 107 84 107 5 0 9-7 9-16 0-10 6-14 15-10 8 3 15 2 15-2s23-8 51-9l51-1-6 30c-3 17-6 37-6 44 0 8-10 14-25 14-21 0-25 5-25 28 0 33-17 37-60 13z"/>
  <path id="jz" d="m1280 2690c0-94 1-100 20-100 22 0 42 37 42 78 1 31-8 38-28 21-16-13-17-10-11 44 6 47 5 57-8 57-12 0-15-18-15-100z"/>
  <path d="m2510 2687c0-13-9-32-20-42-13-12-20-29-18-44 3-25 5-26 88-29 76-2 86 0 97 17s9 24-12 49c-14 17-25 37-25 46 0 10-8 16-21 16-19 0-21-5-17-40 3-33 0-40-14-40-15 0-18 9-18 45 0 38-3 45-20 45-14 0-20-7-20-23z"/>
  <path id="ka" d="m3527 2664c-13-14 7-57 41-90 21-20 36-45 38-61l3-28-22 25c-12 14-32 39-44 55-12 17-24 27-27 24s10-24 30-47c38-45 92-87 100-79 7 7-17 87-35 115-8 13-21 38-30 55-16 31-40 45-54 31z"/>
  <path id="kb" d="m3790 2640c0-34 25-90 40-90s12 58-5 90c-20 39-35 38-35 0z"/>
  <path id="kc" d="m3170 2616c0-10-8-16-21-16-23 0-23 0 6-47 11-18 28-33 37-33 24 0 33 42 16 76-15 31-38 43-38 20z"/>
  <path id="kd" d="m3760 2602c0-26 10-52 20-52 5 0 5 14 0 31-12 40-20 49-20 21z"/>
  <path id="ke" d="m1542 2590c-34-14-91-150-64-150 12 0 42 34 42 47 0 5 9 18 20 28s20 14 20 10 9 0 20 10 20 23 20 28c0 6-7 2-15-9-10-13-14-15-15-5 0 8 7 23 17 33 15 17 15 18-3 17-10 0-29-4-42-9z"/>
  <path d="m3716 2438c4-13 7-29 7-36 0-20 81-82 106-82 17 0 21 6 21 31s-6 32-33 44c-18 7-39 25-47 39-9 17-22 26-37 26-21 0-23-3-17-22z"/>
  <path id="kf" d="m3470 2264c0-8-4-13-9-10-20 12-29-19-16-51 11-26 21-33 52-38 21-3 46-10 55-16 26-13 28-12 28 21 0 18-7 34-19 41-10 7-16 20-14 29 3 10-5 20-22 28-35 16-55 15-55-4z"/>
 </g>
 <g id="kg" transform="translate(-1279,-1676)" fill="#999a99">
  <path id="kh" d="m1340 3737c0-7-9-30-20-52-28-56-27-79 5-73 22 5 25 2 19-14-5-17-2-19 23-16 26 3 28 1 25-29-4-41 9-42 43-2 26 32 40 35 29 5-3-9-12-16-19-16-8 0-11-8-8-20 7-25 12-25 29-2 19 24 18 92-1 92-8 0-15 9-15 20 0 13-7 20-19 20-18 0-19 3-9 32 11 32 11 32 26 10 8-12 20-22 27-22 32 0 74-52 96-118 27-81 50-118 97-154 38-30 82-37 82-14 0 37-20 66-45 66-15 0-28 7-32 18-3 9-23 53-43 97-35 76-56 145-51 173 1 9-28 12-119 12s-120-3-120-13z"/>
  <path id="ki" d="m3547 3703c-3-27-16-68-28-93-13-25-22-48-21-51 1-4-10-19-23-33-13-15-22-33-19-41 7-18-17-20-33-4-12 12-28-31-57-149-24-98-23-102 27-102 23 0 52 3 65 6 27 8 31 44 4 44-15 0-17 7-14 41 3 29 10 43 22 46 10 3 23 16 29 29s15 24 20 24c16 0 51 66 51 95 0 55 22 105 57 126 40 25 63 56 63 86 0 22-4 23-69 23h-68z"/>
  <path id="kj" d="m2837 3299c-21-28-26-30-45-18-31 20-52-3-52-57 0-32 5-46 19-53 10-6 24-24 31-41 7-16 16-30 21-30 4 0 15-24 23-53 15-52 46-94 59-80 4 3 7 29 8 57l1 51 16-52c10-28 20-55 25-59 4-4 7 42 7 102 0 139-25 230-70 254-15 8-23 4-43-21z"/>
  <path id="kk" d="m2226 3283c-29-45-44-98-48-173-4-97 2-156 18-176 8-10 13-14 10-9-2 6 0 17 5 25 8 13 12 12 24-4 21-28 32-12 44 62 10 63 26 89 96 162 18 19 22 32 18 55-7 34-18 45-51 45-13 0-39 12-57 26l-34 25z"/>
  <path id="kl" d="m1470 3254c0-29 3-35 16-30 9 3 27 9 40 12 31 8 32 40 2 48-49 13-58 8-58-30z"/>
  <path id="km" d="m2468 3042c-3-9-1-26 3-37s8-71 8-133c1-85 5-119 17-137 17-27 22-77 10-117l-8-28h64c36 0 67 3 71 6 3 4 0 21-7 38-7 18-10 44-5 64 6 29 4 32-18 32-19 0-25-7-30-32-7-32-7-32-14-8-16 56-12 63 31 56 55-9 60 6 60 163v131h-29c-27 0-28-2-35-62-6-62-21-95-30-67-2 8-7 39-11 70-5 47-10 58-31 68-34 15-41 14-46-7z"/>
  <path id="kn" d="m2434 3005c-4-9-19-15-35-15-28 0-29-1-29-55 0-48 2-54 18-48 29 11 41 28 31 44-15 23-10 39 11 39 15 0 20 7 20 25 0 28-8 33-16 10z"/>
  <path id="ko" d="m2199 2835c-3-2-19-5-37-7-18-1-32-7-32-13 0-12-64-65-79-65-10 0-74-75-106-125-18-27-28-85-15-85 3 0 21 14 40 31s53 39 75 50l40 19h-30l-30 1 34 29c19 16 37 29 40 28 32-3 54 5 58 22 8 29 21 25 25-7 2-22 9-29 30-31 40-5 70 47 61 103-3 22-11 43-17 47-12 9-50 11-57 3z"/>
  <path id="kp" d="m2965 2784c7-28 12-56 14-81 1-6 14-11 29-11 42 1 87-29 106-72 9-20 26-46 38-56 14-12 18-14 13-4-6 10-1 9 13-3 20-19 21-18 24 15 4 48-62 154-102 163-16 4-35 3-41-1-8-4-9-3-5 4 5 8-5 12-31 12-35 0-39 2-38 27 0 14-6 28-14 31-11 4-12-2-6-24z"/>
  <path d="m3715 2680c4-25 3-40-3-40s-12-10-14-22c-3-19-7-15-26 24-23 47-63 92-49 56 3-9 9-32 12-52 4-19 13-40 21-47 8-6 14-22 14-34 0-13 19-60 42-105 35-66 50-85 77-96 49-21 61-18 61 14 0 31-49 152-62 152-4 0-8 13-8 29 0 29-54 161-65 161-4 0-4-18 0-40z"/>
  <path id="kq" d="m1590 2689c0-5-13-15-30-20-24-9-32-19-40-52-5-23-17-64-26-90-19-56-14-69 11-31 9 14 37 45 61 68 40 38 44 47 44 89 0 26-4 47-10 47-5 0-10-5-10-11z"/>
  <path id="kr" d="m1280 2498c0-19 2-20 10-8 13 19 13 30 0 30-5 0-10-10-10-22z"/>
  <path id="ks" d="m1305 2468c-33-67-34-128-2-147 12-7 19-11 16-7-8 8 31 50 53 59 8 3 22 20 31 39l16 33-32 5c-28 4-32 10-35 38-5 46-18 40-47-20z"/>
  <path id="kt" d="m1579 2252c-15-9-39-26-55-36-16-11-54-36-84-56-30-21-79-45-107-54-58-19-68-39-34-68 18-16 27-13 155 44 112 50 139 67 160 97 35 50 35 75-1 68-26-5-26-4-8 9 27 20 5 17-26-4z"/>
  <path id="ku" d="m3508 2263c-32-8-19-42 35-95 58-57 99-78 152-78 42 0 75-15 75-34 0-17 33-31 38-17 2 6 12 11 23 11 14 0 19 7 19 25 0 19-5 25-21 25-25 0-105 36-139 62-28 21-77 53-130 84-19 11-43 19-52 17z"/>
 </g>
 <g id="kv" transform="translate(-1279,-1676)" fill="#9fa19f">
  <path id="kw" d="m1280 3680c0-67 1-70 24-70 19 0 29 10 46 45 12 25 23 56 25 70 2 24 0 25-46 25h-49z"/>
  <path id="kx" d="m3690 3731c0-30 11-51 26-51 8 0 21-18 30-40s20-40 24-40c9 0-1 49-19 93-6 15-7 27-2 27s14-14 20-32 18-43 27-55c12-19 18-21 34-13 17 9 20 21 20 70v60h-80c-72 0-80-2-80-19z"/>
  <path d="m1382 3682c-13-35-21-68-19-75 7-19 48 84 45 112-2 21-8 13-26-37z"/>
  <path id="ky" d="m1470 3698c0-29 6-41 30-58 22-16 35-38 51-91 11-38 32-84 45-101 90-124 103-158 59-158-20 0-25-5-25-24s6-24 38-30c20-3 57-6 81-6 40 0 43 2 37 23-4 12-14 50-23 84-9 38-22 65-32 68-49 17-101 87-130 177-22 67-64 118-96 118-8 0-19 8-24 18-8 14-10 10-11-20z"/>
  <path id="kz" d="m2597 3643c-14-14-25-15-71-6-31 5-60 7-65 4-12-8-31-90-22-95 20-13 143-27 186-21 60 8 75 19 75 55 0 55-69 97-103 63z"/>
  <path id="la" d="m3460 3411c0-5-9-11-20-14-15-4-20-14-20-41s-6-40-25-52c-26-17-32-38-15-49 6-3 41-8 78-11 37-2 97-6 135-9 65-5 67-4 67 18 0 14-14 37-36 56-33 31-39 32-98 29l-63-3 5 43c2 23 2 42-2 42-3 0-6-4-6-9z"/>
  <path id="lb" d="m2325 3399c-12-19 16-57 69-92 51-34 52-34 170-34l119-1 60 39c33 22 56 39 52 39-5 0-4 5 3 12 11 11 17 48 8 48-2 0-39-16-82-37-70-32-88-36-160-36-81-1-106 6-196 54-25 14-39 16-43 8z"/>
  <path id="lc" d="m2017 2689c-33-33-49-69-29-69 4 0 22 13 40 28 25 21 33 34 30 53-3 24-4 24-41-12z"/>
  <path id="ld" d="m1396 2702c-10-17-67-179-75-215-17-72 28-112 76-68 22 21 81 163 90 219 8 44-10 41-33-5l-19-38-3 29c-2 16-10 39-18 51s-11 25-7 28c3 4 4 7 0 7-3 0-8-4-11-8z"/>
  <path id="le" d="m1301 2645c-16-28-21-52-20-103v-67l20 45c47 105 47 204 0 125z"/>
  <path id="lf" d="m3735 2633c3-21 9-49 12-63 5-24 5-25-10-5-21 25-21 17-2-29 8-20 20-36 27-36 6 0 9-3 5-6-3-3 8-19 25-36 52-51 49-36-30 169-21 53-37 56-27 6z"/>
  <path id="lg" d="m3805 2618c4-29 14-69 23-88l16-35 4 47c2 33-3 59-18 87-11 23-23 41-26 41s-3-24 1-52z"/>
  <path d="m3666 2586c13-63 50-152 80-191 12-16 16-17 23-6 12 18 5 39-44 134-23 45-44 92-47 105-4 12-10 22-16 22s-4-25 4-64z"/>
  <path id="lh" d="m1543 2226c-14-22-10-46 9-46 10 0 18-5 18-12 0-6 11-1 25 12s24 28 22 34c-5 16-66 26-74 12z"/>
  <path id="li" d="m2880 2148c0-5-7-8-15-8s-15-4-15-10c0-5 4-10 10-10 5 0 21-12 35-26 18-18 33-24 48-20 12 3 32 6 45 6 25 0 28 14 10 52-11 23-18 25-65 24-29 0-53-4-53-8z"/>
 </g>
 <g id="lj" transform="translate(-1279,-1676)" fill="#aaabab">
  <path id="lk" d="m1406 3742c-10-16-46-118-46-129 0-16 32-17 48-1 9 9 12 6 12-14 0-22 3-25 27-20 22 4 25 2 20-12-4-10-7-20-7-22s-6-4-14-4c-9 0-12-7-9-20 5-19 33-29 33-11 0 5 6 11 13 14 18 7 15-51-7-146-16-71-13-122 7-126 46-8 188-11 184-5-3 5 15 7 39 5 55-4 71 21 33 52-13 11-24 25-24 32 0 12-41 77-90 144-13 18-32 60-41 93-14 49-28 71-75 119-53 54-90 72-103 51z"/>
  <path id="ll" d="m3655 3729c-4-11-25-34-48-50-45-32-65-72-66-129-1-35-18-68-56-107s-55-67-55-89c0-13-13-33-31-47s-29-29-25-36c13-20 67-12 98 14 38 32 81 30 121-5 50-44 65-44 71-2 9 57 1 123-14 132-10 6-14 25-13 52 0 24-4 49-9 56-17 21 7 14 27-8 21-24 45-26 45-5 0 8-4 15-8 15-10 0-35 50-28 57 2 3 13 0 24-6 28-15 32-14 32 9 0 15 7 20 29 20 28 0 29 1 21 33-16 60-22 77-30 77-5 0-12 9-15 20-9 28-61 28-70-1z"/>
  <path id="lm" d="m2426 3005c-11-8-29-15-41-15-24 0-45-35-45-75 0-29 12-37 43-30 20 5 24 12 23 43s3 38 22 40c16 3 22 10 22 28 0 28 1 28-24 9z"/>
  <path id="ln" d="m2704 2993c23-25 28-39 24-67-2-19-1-34 2-34 3 1 13-2 24-7 32-14 46 28 26 79-7 19-17 26-36 26-15 0-37 8-48 17-12 10-8 3 8-14z"/>
  <path id="lo" d="m3411 2954c-41-47-53-84-27-84 7 0 22 17 31 38 10 20 24 49 32 65 19 38 11 34-36-19z"/>
  <path id="lp" d="m2524 2915c-9-34 6-47 47-43 30 3 34 6 34 33s-3 30-37 33c-33 3-38 0-44-23z"/>
  <path id="lq" d="m2508 2769c-2-22-1-42 2-45s10-24 15-47c9-35 15-43 38-45 19-2 29 2 33 15 3 10 15 39 25 65 20 48 20 48-8 97-1 2-14-4-29-14-25-16-28-16-36-1-17 30-36 18-40-25z"/>
  <path id="lr" d="m2048 2716c-10-7-18-17-18-22 0-4-12-20-27-36-35-36-23-47 19-16 18 13 45 30 61 38 34 17 37 50 5 50-13 0-31-7-40-14z"/>
  <path id="ls" d="m3032 2723c-33-6-22-24 32-51 68-34 85-26 40 21-20 20-39 36-43 36-3-1-16-4-29-6z"/>
  <path id="lt" d="m2430 2381c0-25 90-74 128-69 25 4 25 5 7 13-11 4-27 13-35 20-22 18-100 46-100 36z"/>
  <path id="lu" d="m2440 2272c0-37 6-42 43-35 34 7 31 18-11 44l-32 21z"/>
  <path id="lv" d="m2578 2217c-58-32-75-57-38-57 10 0 23-7 28-16 6-10 14-14 22-9 18 11 70 97 64 106-7 13-13 11-76-24z"/>
  <path id="lw" d="m3541 2224-33-15 23-27c40-46 42-48 34-32-6 12-5 13 6 3 7-7 21-13 31-13 26 0 22 32-7 60-13 12-22 27-19 31 6 11 7 11-35-7z"/>
  <path id="lx" d="m1536 2208c3-4-2-18-10-30-21-29-20-38 3-38 10 0 34 14 52 31 28 26 31 32 17 40-19 11-69 8-62-3z"/>
  <path id="ly" d="m2324 2176c-11-8-31-14-44-15-14 0-47-3-75-5-27-3-56-5-62-5-8-1-13-15-13-35 0-38 0-38 77-37 35 0 46-4 59-24 11-17 26-25 45-25 39 0 45 16 12 32-39 18-40 43-4 64 20 12 31 26 31 41 0 27 0 27-26 9z"/>
  <path id="lz" d="m1932 2084c-2-33 1-45 10-41 7 2 12 11 10 21-2 9 4 16 13 16 8 0 15 5 15 11 0 7 8 18 18 25 15 12 12 13-23 14h-40z"/>
  <path id="ma" d="m1280 2054c0-29 3-34 23-34 13 0 32 7 43 16 10 8 13 13 7 9-8-3-13 0-13 8s-13 20-30 26c-30 10-30 9-30-25z"/>
  <path id="mb" d="m3782 2058c2-18 11-24 36-26 29-3 32-1 32 22s-4 26-36 26c-31 0-35-3-32-22z"/>
  <path id="mc" d="m2670 2038c0-24 3-29 9-19s33 16 76 19c90 6 81 26-13 30l-72 3z"/>
 </g>
 <g transform="translate(-1279,-1676)" fill="#bcbdbc">
  <path id="md" d="m2545 3112c-27-5-75-52-75-73 0-10 9-20 20-24 15-5 21-19 26-66 7-64 20-82 40-55 11 16 13 16 22-1 17-28 32-4 39 61 4 35 10 56 18 56 7 0 15 11 17 25 8 41-55 87-107 77z"/>
  <path id="me" d="m2558 2762c-24-3-28-8-28-34 0-27 3-30 23-24 12 3 27 6 33 6 16 0 24 38 10 47-6 5-23 7-38 5z"/>
  <path d="m3004 2726c-18-14-17-15 18-30 21-9 44-16 52-16 23 0 7 40-21 51-30 11-26 12-49-5z"/>
  <path id="mf" d="m2060 2708c-25-23-25-23-3-26 27-4 86 25 78 38-11 17-51 11-75-12z"/>
  <path id="mg" d="m2081 2599c-19-8-21-12-11-24 14-17 47-19 85-5 23 9 25 13 15 25-14 17-53 19-89 4z"/>
  <path id="mh" d="m2673 2359c-35-17-60-35-57-41 8-13 55-1 79 22 11 10 30 21 43 25 12 3 20 11 17 16-9 13-13 12-82-22z"/>
  <path id="mi" d="m2345 2288c7-24 16-50 20-59 4-11-2-23-19-37-14-11-26-25-26-31s-9-11-20-11c-13 0-20-7-20-20 0-11 3-20 7-20 17 0 114 74 110 84-3 6-13 39-23 74-10 34-24 62-30 62-9 0-9-11 1-42z"/>
  <path id="mj" d="m1946 2303c-8-30-10-156-2-185 8-27 9-27 38-12 33 17 58 13 58-11 0-19 7-19 60 0 23 8 53 15 66 15s24 4 24 9c0 21-33 31-101 33-115 1-119 4-119 87 0 67-13 101-24 64z"/>
  <path d="m2723 2218c-22-44-28-67-21-75 15-19 148-18 148 1 0 14-29 26-66 26-33 0-43 17-32 62 5 22 7 42 5 45-2 2-18-25-34-59z"/>
  <path id="mk" d="m2516 2181c-33-20-33-29 1-42 44-17 78-8 78 20 0 33-42 45-79 22z"/>
  <path id="ml" d="m2860 2141c0-24 39-39 51-20 10 17-8 39-32 39-12 0-19-7-19-19z"/>
  <path d="m2941 2141c-25-19-24-21 27-48 19-10 22-9 22 8 0 10 7 19 15 19 24 0 18 27-7 34-31 8-30 8-57-13z"/>
  <path id="mm" d="m2556 2078c-16-23-13-38 9-38 16 0 46 40 39 52-9 15-33 8-48-14z"/>
  <path id="mn" d="m2633 2044c-10-15-30-40-46-56-32-35-43-30-83 34-14 21-29 38-34 38-14 0-13-33 1-47s3-33-17-33c-9 0-14-7-12-17 3-16 22-18 211-21 173-2 207 0 207 12 0 17-24 23-118 32-40 4-72 11-72 15 0 5 9 17 21 28 25 23 18 41-16 41-15 0-31-10-42-26z"/>
 </g>
 <g id="mo" transform="translate(-1279,-1676)" fill="#d4d7d5">
  <path id="mp" d="m2989 2594c-10-13-10-17 2-25 38-24 77-1 47 29-16 16-33 15-49-4z"/>
  <path id="mq" d="m2164 2539c-46-11-90-50-81-73 8-19 37-21 37-3 0 8 11 24 24 36 20 19 32 22 58 17 18-3 53-9 78-12l45-6-30 26c-32 27-61 30-131 15z"/>
  <path id="mr" d="m2847 2531c-22-14-25-20-14-29 9-8 23-7 52 3 71 25 98 15 129-47 6-13 20-24 30-26 16-3 18 0 12 25-10 37-33 61-75 79-46 19-101 17-134-5z"/>
  <path id="ms" d="m3160 2245c0-82-11-97-67-93-15 1-52 1-80 0-49-2-53-4-53-26 0-37 23-49 79-42 27 3 56 3 66 0 24-9 53-79 47-111l-5-25-91 8c-107 10-134 11-324 13-102 1-141 4-136 12 3 6-5 4-19-6-14-9-27-12-30-8-13 21-485-5-513-28-6-5-27-10-47-11-34-3-35-4-19-19 15-15 48-15 337-6 226 8 399 7 590 0 149-6 272-9 274-7 19 18 31 335 15 397-12 50-24 27-24-48z"/>
  <path id="mt" d="m1939 2205c-4-63-2-105 4-111 2-2 12-2 21 2 18 7 20 25 6 68-31 100-28 96-31 41z"/>
  <path id="mu" d="m2757 2153c-15-15-4-20 51-26 31-4 67-10 80-13 25-7 31 13 10 34-13 13-130 17-141 5z"/>
  <path id="mv" d="m2231 2139c-30-12-18-26 24-30 36-4 71 14 61 30-9 13-52 13-85 0z"/>
  <path id="mw" d="m2073 2128c-26-8-33-17-33-36 0-23 2-24 48-20 49 5 104 34 98 53-4 14-74 16-113 3z"/>
 </g>
</svg>
