<svg id="a" class="img-fluid" width="257.25" height="207.15" version="1.1" viewBox="0 0 2572.5 2071.5" xmlns="http://www.w3.org/2000/svg">
 <g id="b" transform="translate(-1278.8 -1679.5)" fill="#3f0d1f">
  <path id="c" d="m2e3 3715c0-22 6-38 18-44 14-9 12-10-14-11-17 0-46-3-63-6-26-6-31-11-31-35 0-28-2-29-48-29-69 0-190-33-264-72-82-44-190-146-250-237-41-63-48-81-48-123 0-34 4-50 15-54 8-4 15-19 15-34 0-36 22-44 95-35l55 7v-40c0-39 2-42 38-51 20-6 61-11 90-11 28 0 52-3 52-8 0-4-22-43-50-87-37-59-54-100-67-157l-16-78h-39c-22 0-51-6-66-14-15-7-39-16-54-20-27-6-27-5 23 71 42 65 50 83 47 118-3 38-5 40-38 43-19 2-54 1-77-3l-43-6v-329h39c33 0 40-4 43-22 2-17 11-24 30-26 35-4 35-15 1-38-16-9-47-33-70-53l-43-35v-88c0-109 9-112 101-32 173 151 347 242 819 428 74 30 178 71 230 92 53 21 113 38 135 38 23 0 78-15 130-36 50-20 153-61 230-92 130-51 197-79 365-151 178-76 341-174 448-270 40-36 82-65 92-65 18 0 20 7 20 88v88l-42 35c-24 20-55 44-70 53-35 23-35 34 0 38 19 2 28 9 30 25 3 19 10 23 43 23h39v330h-160v-40c0-33 10-56 51-116 50-74 50-75 22-68-15 4-40 13-55 20-15 8-45 14-68 14-33 0-40 3-40 19 0 42-43 154-85 222-25 40-45 77-45 81s26 8 59 8c32 0 72 5 90 11 28 10 31 15 31 50v39h150v29c0 16 6 31 15 35 10 4 15 20 15 50 0 58-51 147-135 236-34 36-65 73-68 83-4 9-14 17-24 17-10 1-43 14-73 30-30 17-60 30-66 30s-17 6-23 14c-7 8-45 16-103 20-95 7-118 16-118 46 0 18-33 29-94 31-17 0-25 3-18 6 7 2 12 22 12 44v39h-221l3-32c2-25 8-34 26-36 14-2 22-10 22-22 0-14-11-22-42-30-24-6-53-15-65-20-21-9-23-7-23 21 0 41-33 86-77 104-50 21-306 21-356 0-43-18-77-63-77-103v-30l-37 13c-21 8-50 16-65 20-33 6-38 40-8 48 15 4 20 14 20 36v31h-220zm683-82c16-8 26-17 23-20s-17 2-30 11c-37 24-129 21-215-7-39-13-71-22-71-21 0 6 87 52 105 56 40 7 161-5 188-19zm-491-114c73-24 198-91 223-119 12-13 32-20 59-21l41-1-33-8c-38-9-104-51-135-86-12-14-40-30-64-36-23-5-48-16-54-24s-18-14-25-14c-9 0-14-12-14-37 0-36-3-40-62-72-54-29-62-31-70-17-12 21-57 21-176-3-54-11-116-22-139-26-43-7-43-7-43 25 0 54-15 70-65 70-42 0-44 1-47 33l-3 32h-63c-34 0-62 3-62 6s35 41 78 85c133 136 279 192 469 179l103-7v31c0 37 3 37 82 10zm830-6 3-28 101 3c195 6 336-49 468-183l79-80-62-3-61-3v-34c0-34 0-34-52-37l-53-3-6-88-79 7c-43 3-97 13-120 21-57 20-144 20-164-1-14-14-21-12-76 18-55 31-60 36-60 68 0 37 1 36-83 77-25 11-71 40-101 63-31 23-73 48-93 56l-38 13 36 1c20 0 42 7 49 16 32 38 243 142 292 144 11 0 18-9 20-27zm-399-263c4 0 32-20 63-45 30-25 64-45 74-45 31 0 60-36 60-74 0-19-4-38-10-41-5-3-10-1-10 4 0 6-18 11-40 11h-40l-1-67c0-38-6-84-12-103-10-29-17-34-37-32-50 7-176 6-197-2-35-13-56 32-63 128l-5 81-37 3c-23 2-38-1-38-8 0-6-4-8-10-5-16 10-12 67 7 87 9 10 26 18 39 18 12 0 47 20 78 45 76 62 111 76 145 59 14-8 29-14 34-14zm-403-260c0-5 23-10 50-10h50v-90l-27 17c-16 9-36 23-45 31-13 11-35 12-95 7l-78-6 60 29c64 33 85 38 85 22zm769-19 54-28-76-6c-42-3-91-13-109-21-37-19-36-19-44 22l-6 32h46c32 0 48 5 52 15 8 21 20 18 83-14zm-982-59c-10-10-17-35-17-56 0-20-7-48-16-62-9-13-20-50-23-82l-7-57-21 40c-11 22-28 62-37 89-16 48-16 48 11 92 25 39 32 43 73 47 25 2 47 4 49 5s-3-6-12-16zm1222-36c27-48 25-71-8-148-24-56-41-62-41-14 0 18-10 53-23 77-17 32-22 55-19 87 4 40 6 42 36 42 27 0 35-6 55-44z"/>
  <path id="d" d="m1430 3640c-58-16-115-29-127-29-21-1-23-6-23-57v-57l65 6c81 8 164 32 238 68 53 27 57 32 57 64v35l-52-1c-29 0-100-13-158-29z"/>
  <path id="e" d="m3490 3635c0-29 6-39 31-54 50-31 178-69 257-77l72-7v122l-57 6c-32 4-89 16-128 26-38 10-93 19-122 19h-53z"/>
  <path id="f" d="m2415 2543c-66-7-194-51-283-98-194-103-308-204-365-322l-30-64 22-157c12-86 25-172 28-189l5-33h68c56 0 70 4 86 21 27 30 118 91 192 128 83 42 218 87 334 110 87 18 100 19 159 5 35-8 84-19 109-24 139-27 377-144 444-219 16-17 30-21 86-21h68l6 33c3 17 15 103 27 190l21 157-31 66c-75 156-310 323-554 394-93 27-117 30-228 28-68-1-142-3-164-5zm285-117c83-18 258-100 354-166 88-61 181-155 202-205 12-30 13-49 2-128-6-50-13-94-14-95-1-2-22 9-46 26-112 77-314 159-458 186-104 20-258 20-351 1-155-33-354-115-456-188-24-17-45-28-46-26-2 2-9 46-15 98-11 89-10 95 12 140 28 54 115 140 205 200 85 58 262 140 336 156 79 18 195 18 275 1z"/>
  <path id="g" d="m1280 1760v-80h70c60 0 70 2 70 18 0 25-101 142-122 142-16 0-18-10-18-80z"/>
  <path id="h" d="m3762 1776c-71-87-70-96 18-96h70v80c0 71-2 80-18 80-11 0-41-28-70-64z"/>
 </g>
 <g id="i" transform="translate(-1278.8 -1679.5)" fill="#4b2e38">
  <path id="j" d="m2915 3708c-68-13-75-21-75-85 0-49 2-54 18-48 9 4 49 15 87 25 57 14 71 21 73 38 3 17-2 22-19 22h-22l21 23c12 13 22 26 22 30 0 9-43 7-105-5z"/>
  <path id="k" d="m2172 3680c-4-12-11-21-15-21-38 4-48 0-45-21 2-18 13-24 62-34 33-7 85-24 117-39 71-34 91-29 87 22-2 29-7 37-20 35-9-1-19 2-23 8-3 5-17 10-30 10-18 0-24 6-27 28-3 25-7 27-51 30-41 3-48 0-55-18z"/>
  <path id="l" d="m3120 3665c0-31 3-35 35-41 24-4 35-12 35-24 0-22 35-37 109-46l61-7v40c0 39 0 39-79 76-51 24-95 37-120 37-40 0-41-1-41-35z"/>
  <path id="m" d="m1850 3664c-62-28-70-37-70-81 0-39 3-39 99-17 58 13 68 18 64 33s3 20 31 25c38 7 39 9 30 44-5 19-13 22-53 21-27 0-69-11-101-25z"/>
  <path id="n" d="m2381 2958c8-105 13-118 51-118h31l-7 81c-8 86-25 119-61 119-19 0-20-4-14-82z"/>
  <path id="o" d="m1783 2978c-23-31-63-108-63-122 0-9-5-16-11-16-7 0-9-14-6-37 3-21 8-58 11-83 7-58 25-100 42-100 22 0 27 20 9 40-23 26-13 55 14 40 55-29 55 10 1 60-48 44-51 71-11 108 24 23 71 99 71 117 0 11-48 5-57-7z"/>
  <path id="p" d="m3306 2943c28-50 83-112 98-113 15 0-4 64-32 105-33 49-41 55-70 55h-23z"/>
  <path id="q" d="m1556 2889c-18-21-26-42-26-70 0-39 0-39 39-39 34 0 42 5 60 34 12 18 21 50 21 70 0 34-2 36-34 36-26 0-41-7-60-31z"/>
  <path id="r" d="m3352 2765c-36-35-41-43-29-53 8-7 22-9 31-6 12 5 19 0 23-15 3-11 12-21 19-21 11 0 14 17 14 70 0 39-3 69-7 68-5 0-27-20-51-43z"/>
  <path id="s" d="m1488 2705c-42-39-48-50-48-85 0-40 0-40 38-40 51 0 82 33 103 111l16 59h-31c-23 0-43-12-78-45z"/>
  <path d="m1691 2665c0-16 4-37 9-45 8-12 10-11 9 5-1 11-5 31-9 45-8 24-8 24-9-5z"/>
  <path id="t" d="m3445 2647c-4-14-5-37-3-52l3-27 27 21c34 27 41 26 35-5-3-16-1-22 5-16 5 5 8 29 6 53-3 41-5 44-35 47-27 3-33-1-38-21z"/>
  <path id="u" d="m2344 1948c-34-11-44-35-44-106v-35l51 5c28 3 55 12 60 19 12 19 11 99-1 99-5 0-10 7-10 15 0 17-11 17-56 3z"/>
  <path id="v" d="m2736 1953c-3-3-6-15-6-25s-4-18-10-18c-5 0-10-16-10-35 0-29 5-37 26-45 39-15 81-12 88 6 11 29 6 72-11 92-19 21-65 36-77 25z"/>
 </g>
 <g transform="translate(-1278.8 -1679.5)" fill="#4e343e">
  <path d="m3070 3743c0-5 6-15 13-22 10-10 9-14-5-22-11-6-18-22-18-39 0-27 2-28 53-32 63-5 72-2 50 20-16 16-16 17 1 20 9 2 23-2 31-8 13-11 15-7 15 23 0 19-6 39-13 45-17 15-127 28-127 15z"/>
  <path id="w" d="m2970 3725c-8-9-21-13-36-9-14 4-24 2-24-4s-3-18-7-28c-5-14-2-16 15-12 19 5 21 3 16-20l-5-27 24 26c13 15 34 32 46 38 27 15 28 51 2 51-10 0-24-7-31-15z"/>
  <path id="x" d="m2120 3710c0-11 7-23 15-26 22-9 18-24-6-24-14 0-19-5-17-17 2-9 6-16 11-15 4 1 22 2 41 2 25 0 35 5 39 20 5 21 31 27 42 10 4-6 2-17-4-24-7-8-10-20-9-27 4-19 97-68 131-69 24 0 27 3 27 34 0 29-4 34-31 40-32 6-59 27-59 45 0 6-13 11-30 11-19 0-30 5-30 14 0 21-41 48-55 36-6-5-16-5-25 0-24 16-40 11-40-10zm220-122c0-9 0-9-30-1-11 3-20 9-20 13 0 10 50-2 50-12z"/>
  <path d="m2778 3648c19-19 14-30-9-18-26 15-28 13-31-40-3-42-1-45 24-48 26-3 107 31 109 46 7 42 2 57-21 63-14 4-38 7-54 8-23 1-27-2-18-11z"/>
  <path id="y" d="m1748 3616c-11-8-18-27-18-48v-35l58 13c31 8 86 14 121 14 61 0 63 1 48 18-10 10-17 24-17 30 0 7-1 12-2 12-6 0-94-28-111-35-26-11-11 20 16 33 19 9 14 11-28 11-27 0-58-6-67-13z"/>
  <path id="z" d="m3190 3610c0-19 3-21 12-12s9 15 0 24-12 7-12-12z"/>
  <path id="aa" d="m3313 3606c24-18 21-26-9-26-16 0-24-5-22-12 3-8 27-14 58-16 30-2 60-8 67-14 10-8 13-3 13 24 0 41-27 58-88 58-33-1-35-2-19-14z"/>
  <path id="ab" d="m3690 3527c0-30 16-37 86-37 46 0 54 3 54 19 0 20-14 26-92 36-46 6-48 6-48-18z"/>
  <path id="ac" d="m2230 3417c0-40-5-37 111-52 36-5 48-11 52-27 5-17 11-19 44-15 115 16 141 42 83 85-16 12-30 18-30 12 0-15-21-12-42 7-13 12-44 17-118 21l-100 5z"/>
  <path id="ad" d="m2684 3429c-12-13-26-18-39-15-30 8-58-15-53-43 7-47 158-71 158-25 0 7 11 16 25 20 20 5 25 12 25 39 0 30-3 33-37 39-55 9-58 8-79-15z"/>
  <path id="ae" d="m2428 3084c-34-18-52-50-42-72 4-9 8-21 9-27 0-5 6-9 13-7 8 1 12-12 12-38 0-38 2-40 30-40s30 2 30 40c0 32 4 40 19 40 23 0 44 46 39 86-3 26-7 29-43 31-22 1-52-5-67-13z"/>
  <path id="af" d="m2603 3094c-30-13-3-114 30-114 12 0 17-8 17-29 0-16 7-34 15-41s15-28 15-46c0-29 3-34 25-34 19 0 26 7 34 38 6 20 11 65 11 100 0 34 4 62 9 62 14 0 20-28 22-100 1-36 7-74 13-85s11-21 12-23c0-1 17 13 37 32 26 25 53 38 92 46 64 13 78 40 21 40-21 0-36 6-40 15-3 8-15 15-26 15s-20 4-20 9c0 10-56 41-73 41-5 0-23 16-40 35-27 30-40 35-87 40-30 2-61 2-67-1z"/>
  <path id="ag" d="m2256 2985c-3-8-12-15-19-15-8 0-19-11-25-25-10-22-8-27 14-42 14-10 41-30 59-45 55-47 65-36 65 73v69h-44c-30 0-46-5-50-15z"/>
  <path id="ah" d="m3318 2978c7-7 12-29 12-51 0-47 21-46 26 0 4 32-16 63-39 63-8 0-7-4 1-12z"/>
  <path id="ai" d="m1734 2893c-10-21-35-65-55-98-48-81-69-138-68-183 0-34 1-35 10-12l10 24 23-29c43-53 71-11 47 71-5 17-5 37 0 45 8 14 8 14 24-36 8-26 28-17 23 10-3 14-1 28 3 31 14 8 10 47-6 68-9 12-11 26-6 40 9 25 23 106 18 106-2 0-12-17-23-37z"/>
  <path d="m3382 2863c5-32 5-67 1-78-8-19-9-34-5-97 3-39 28-35 36 4 4 21 10 28 16 22s6-30-2-67c-8-39-9-60-2-67 17-17 41-1 48 31 6 30 26 41 26 14 0-8 5-15 10-15 28 0-7 103-65 195-20 31-41 70-47 86-17 48-26 33-16-28z"/>
  <path id="aj" d="m2010 2891c-12-23-14-111-2-111 4 0 13 9 19 20 7 10 31 24 53 31s40 18 40 25c0 20-47 28-78 15l-27-11 56 50h-25c-15 0-30-8-36-19z"/>
  <path id="ak" d="m3088 2897c30-17 18-27-24-20-29 5-34 3-34-13 0-12 15-27 37-39 29-15 46-36 70-85 18-36 32-73 33-82 0-13 8-18 29-18 26 0 31 6 55 65 37 92 35 108-14 130-23 10-44 23-48 29-14 23-62 46-94 46-32-1-32-1-10-13z"/>
  <path d="m1488 2816c-17-21-28-47-28-65 0-29 3-31 36-31 23 0 47 9 70 26 28 22 34 33 34 63-1 29-3 33-11 19-14-25-32-23-24 2 5 17 2 20-22 20-20 0-36-10-55-34z"/>
  <path id="al" d="m1885 2831c-40-23-42-51-10-127 23-54 31-64 52-64 19 0 28 9 43 43 19 41 26 119 14 151-8 21-60 20-99-3z"/>
  <path id="am" d="m2096 2811c-17-19-17-19 3-14 12 3 21 12 21 19 0 18-4 18-24-5z"/>
  <path id="an" d="m3510 2782c0-4 4-12 9-17 5-6 19-41 30-79 17-54 20-83 15-132l-7-64 34 1c19 0 28 3 22 6-21 8-15 33 8 33 18 0 19 2 9 15-21 25 2 42 35 27 36-16 35-17 35 33 0 35-8 59-35 100-19 30-42 55-50 55s-15 7-15 15c0 11-12 15-45 15-25 0-45-4-45-8z"/>
  <path id="ao" d="m3320 2735c-7-8-10-22-6-30 8-21 49-1 44 22-4 23-23 27-38 8z"/>
  <path id="ap" d="m1512 2637c-39-40-40-55-6-63 18-5 22-9 13-15-10-6-10-11 1-24 10-12 10-19 2-27-19-19-14-25 17-20l29 4-1 89c-1 57-5 89-12 89-6 0-25-15-43-33z"/>
  <path id="aq" d="m2388 1962c-14-3-18-13-18-45 0-31 3-38 10-27 6 9 10 10 10 3 0-20-12-43-20-38-5 3-11 1-15-5-13-21-27-10-20 17 5 23 4 25-9 14-11-9-16-30-16-62v-49h44c48 0 56 9 56 64 0 18 4 36 9 41 5 6 12 29 16 52 7 44 5 46-47 35z"/>
  <path d="m2701 1923c0-26 8-75 17-108l17-60h100l-1 55c-3 127-4 128-38 136-17 4-41 8-53 10-12 1-27 5-32 9-7 4-11-10-10-42zm86-22c11-30 2-64-11-42-4 6-11 9-16 6s-12 0-16 6c-4 8-3 9 4 5 8-5 12 3 12 23 0 39 12 40 27 2z"/>
 </g>
 <g id="ar" transform="translate(-1278.8 -1679.5)" fill="#434242">
  <path id="as" d="m3800 2712c0-7 41-72 46-72 2 0 4 15 4 34 0 28-4 34-25 38-14 3-25 3-25 0z"/>
  <path d="m1280 2679c0-27 2-30 16-19 8 8 20 22 25 32 8 15 6 18-16 18-21 0-25-4-25-31z"/>
  <path id="at" d="m1410 2508c-19-5-56-8-82-6l-48 3v-267l57 50c32 27 93 72 137 101l79 51-49 1c-111 3-140 25-77 58 41 22 37 25-17 9z"/>
  <path id="au" d="m3727 2488c23-26 8-37-65-44-34-4-59-11-56-15 3-5 33-28 67-51s88-64 120-91l57-49v267h-70c-66 1-68 0-53-17z"/>
  <path id="av" d="m3822 1710-23-30h26c21 0 25 5 25 30 0 17-1 30-3 30s-13-13-25-30z"/>
 </g>
 <g id="aw" transform="translate(-1278.8 -1679.5)" fill="#503d46">
  <path id="ax" d="m1797 3743c-4-3-7-37-7-74v-68l-37-3c-35-3-38-6-41-37s-2-33 20-27c21 6 109 20 196 32 18 3 30 9 28 13-3 4-19 6-36 3-37-5-39 5-4 19 15 5 25 12 22 15-7 7-57-13-73-30-15-14-94-30-104-21-7 8 16 22 107 62 81 36 104 41 96 18-5-12 2-15 34-15 22 0 47-3 56-6 24-9 18 57-8 78l-21 18h23c13 0 22 6 22 15 0 13-21 15-133 15-74 0-137-3-140-7z"/>
  <path id="ay" d="m2110 3727c0-13 5-28 12-35 14-14 42-16 33-2-9 15 8 12 31-5 10-8 26-15 34-15 16 0 50-34 50-49 0-5 15-13 33-16 40-9 57-22 57-46s11-24 60 1c40 21 52 40 25 40-9 0-15 9-15 24 0 35-11 38-49 15-44-26-50-18-18 24l26 34-28 27c-24 23-35 26-99 26-56 0-72-3-72-14 0-25-19-28-37-6-23 27-43 25-43-3z"/>
  <path id="az" d="m2778 3739c-10-5-18-17-18-24 0-8-5-15-10-15-15 0 52-88 70-93 23-5 60 15 58 31-2 8 4 18 12 22 33 18 110 50 120 50 5 0 10 9 10 20 0 26-18 25-46-1-23-22-44-19-44 7 0 11-15 14-67 14-38 0-76-5-85-11z"/>
  <path id="ba" d="m3076 3729c15-16 16-22 5-28-16-10-6-31 14-31 17 0 26 25 14 37-6 6 1 8 20 5 17-2 36-11 42-18 10-12 8-13-7-8-48 18 8-16 114-69 95-46 110-56 78-53-21 3-67 19-102 35l-64 30v-23c0-36 18-44 115-52 50-3 96-11 103-17 9-7 12-2 12 22 0 21-5 31-15 31-8 0-15 5-15 12 0 6-8 20-17 30-11 13-16 32-14 58 4 54-13 60-170 60h-132z"/>
  <path id="bb" d="m1554 3655-22-24 39 4c22 2 39 2 39-1 0-2-26-17-57-33-67-33-146-57-221-67-51-7-52-7-52-41 0-35 0-35 38-30 20 3 75 11 122 17 47 5 99 15 115 22 48 18 95 57 95 79 0 10 5 19 10 19 6 0 10 18 10 40v40h-47c-38 0-52-5-69-25z"/>
  <path id="bc" d="m2710 3635c-17-45-12-69 17-82 15-7 34-13 42-12 12 0 12 2 3 6-10 4-10 10 3 29 18 28 15 35-25 64l-30 21z"/>
  <path id="bd" d="m3570 3566c0-38 12-46 71-46 32 0 39 3 39 20 0 11-2 20-5 20-2 0-27 9-55 20l-50 20z"/>
  <path id="be" d="m3730 3505c0-23 46-45 93-45 24 0 27 4 27 35v34l-60-2c-53-2-60-4-60-22z"/>
  <path id="bf" d="m2860 3498c-41-12-76-26-78-30s-17-8-32-8c-17 0-40-10-56-25-28-26-26-47 4-29 9 5 31 7 47 4l30-7-38-7c-29-6-35-11-27-21 14-16-6-25-42-18-48 9-37-13 28-58 73-49 169-106 197-115 9-4 17-13 17-20 0-8 7-14 15-14 19 0 21 100 3 118-16 16-108 16-108 0 0-6-2-9-5-6s-2 19 1 36c5 24 12 32 28 32 49 0 64 11 71 51l7 39h188v31c0 49-23 63-104 66-49 2-95-5-146-19z"/>
  <path id="bg" d="m2300 3456c0-32 2-34 46-40 26-3 61-6 78-6 18 0 37-5 44-12s12-9 12-4c0 25-112 95-152 96-25 0-28-4-28-34z"/>
  <path d="m2270 3379c0-17 8-34 22-43 22-16 22-16-8-16-58 0-90-64-62-125 13-30 19-31 35-6 6 10 31 23 55 29 26 7 56 25 75 45 18 18 48 42 68 53 45 24 47 47 3 42-24-2-33 1-33 11 0 16-33 26-107 34-47 4-48 4-48-24z"/>
  <path d="m2502 3295c-18-8-57-35-88-60s-66-45-78-45c-24 0-56-28-56-48 0-8 23-12 70-12 64 0 73 3 95 26 14 15 25 31 25 35 0 5 14 22 31 39 25 23 41 30 73 30 38 0 44-4 76-51 19-27 47-56 62-64 30-17 138-20 138-5 0 17-39 50-60 50-10 0-44 20-74 45-30 24-66 47-81 51-14 3-28 10-31 15-8 13-65 10-102-6z"/>
  <path id="bh" d="m2330 3052c0-48 10-60 26-31l12 22 13-24c7-13 14-28 14-34 1-5 6-9 12-8 12 3 25-100 12-105-19-7 6-32 32-32 54 0 69 28 69 132 0 90 0 91-19 72-10-10-17-22-15-26 2-3-5-4-16-1-18 5-20 0-20-41 0-29-4-45-10-41-5 3-10 17-10 30s-5 27-10 30c-17 10 7 43 45 61 19 9 35 20 35 25s-38 9-85 9h-85z"/>
  <path id="bi" d="m2680 3074c0-3 11-15 25-26 22-17 24-22 11-32-17-13-33-66-19-66 4 0 19 18 33 40s27 40 30 40c3-1 14-15 26-33 11-18 26-31 33-29 6 1 14-5 17-13 4-8 14-15 25-15 10 0 23-8 28-17 9-15 10-12 11 15 0 51-14 70-47 64-23-4-26-2-15 9 36 38-9 69-100 69-32 0-58-3-58-6z"/>
  <path id="bj" d="m2562 2980v-90h38c29 0 39-4 43-20s14-20 46-20c23 0 41 5 41 11 0 5-4 7-10 4-6-4-10 8-10 28 0 19-6 40-14 47-8 6-16 26-18 43-2 23-8 32-20 31-10-1-16 2-13 6s-2 13-11 20c-12 11-12 15-2 21 8 6-3 9-28 9h-42z"/>
  <path id="bk" d="m3502 2973-72-4 2-32c1-17 23-65 48-107 37-62 49-74 67-72 17 2 21-1 17-13-4-9 1-24 11-35 23-26 39-26 25 0-22 42 2 18 36-36 22-34 34-64 31-75-3-12 3-25 16-34 32-22 37-19 37 25 0 22 5 40 10 40 6 0 10 16 10 35s-4 35-10 35c-5 0-10 13-10 29 0 22-10 37-40 61-26 20-40 40-40 55 0 12-6 28-14 34-9 8-12 25-8 56 4 43 3 45-19 43-13-1-57-4-97-5z"/>
  <path id="bl" d="m1538 2953c-9-10-21-48-29-85-9-51-17-68-29-68-24 0-90-72-90-98 0-13-7-25-15-28-10-4-15-20-15-45 0-38 1-39 35-39 25 0 35-4 35-16 0-11 5-14 18-9 44 18 52 17 62-9 6-16 17-26 29-26 26 0 30 8 24 46-4 24-9 31-23 27-10-3-21 0-24 6-8 12 30 35 44 26 6-3 10 0 10 7s3 24 6 38c6 22 0 19-43-22-49-48-63-57-63-38 0 13 91 100 105 100 10 0 47 59 107 166 40 73 33 84-57 84-56 0-75-4-87-17zm63-107c-21-34-98-102-106-94-2 2 24 34 57 71 66 71 84 80 49 23z"/>
  <path id="bm" d="m1947 2875c-45-44-52-104-8-62 11 10 13 10 7 0-4-7-2-13 3-13 18 0 12-48-10-92l-21-42-18 22c-28 34-32 26-10-18 17-33 26-40 49-40 31 0 41 14 41 59 0 16 12 50 26 77 29 55 41 109 21 98-7-4-4 2 6 13 24 28 22 33-16 33-25 0-43-9-70-35z"/>
  <path id="bn" d="m2777 2861c-10-50 1-71 38-71 20 0 35 6 39 15 4 10-1 15-14 15-22 0-24 7-10 30 11 18-5 40-30 40-11 0-20-10-23-29z"/>
  <path d="m3110 2880c0-6 7-13 15-16 8-4 15-11 15-17 0-7-4-7-12 1-33 33-57-10-26-48 21-26 20-27 36 21 17 51 15 69-8 69-11 0-20-5-20-10z"/>
  <path id="bo" d="m3055 2859c-9-28-2-33 13-9 6 11 8 21 3 25-5 3-13-4-16-16z"/>
  <path id="bp" d="m3150 2709c0-60 7-69 53-69 22 0 53 45 37 55-4 3-10-5-13-16-7-25-27-16-27 11 0 10-11 32-25 47l-24 28z"/>
  <path id="bq" d="m3559 2650c9-35 23-62 38-73 30-23 33 1 3 28-11 10-20 22-20 27s9 4 20-2c31-16 24-1-18 39l-38 37z"/>
  <path id="br" d="m3420 2601c0-24 13-33 35-25 15 6 14 8-1 25-22 24-34 24-34 0z"/>
  <path id="bs" d="m3564 2556c-10-26-1-31 41-25 32 4 36 7 20 13-11 4-28 12-38 17-13 7-19 5-23-5z"/>
  <path d="m2319 1940c-19-5-60-18-91-30-51-19-56-23-62-58-9-57-7-97 6-110 19-19 86-15 91 6 3 10 5 6 6-10 1-25 5-28 36-28 23 0 35 5 35 14 0 7 14 16 30 20 27 5 30 9 30 45 0 43-15 63-24 33-4-10-13-19-20-19-21 0-27 51-12 102 8 25 13 45 13 44-1-1-18-5-38-9z"/>
  <path id="bt" d="m2795 1883c9-75 13-83 39-83 18 0 25-9 35-40 11-38 14-40 50-40h39l7 65c9 86-4 106-86 134-92 31-93 31-84-36z"/>
 </g>
 <g id="bu" transform="translate(-1278.8 -1679.5)" fill="#474847">
  <path id="bv" d="m1413 2442c-9-6-8-10 5-18 12-8 27-7 52 2 23 8 28 13 15 13-11 1-29 4-40 6-11 3-25 2-32-3z"/>
  <path id="bw" d="m2680 2431c-5-11-10-39-10-63s-5-49-11-55c-20-20-7-192 17-238l21-40 76-3 77-3v48c0 26 3 92 7 146 5 86 4 97-10 97-10 0-17 8-17 19s-4 22-9 25-12 18-15 32c-10 40-30 54-75 54-30 0-43-5-51-19z"/>
  <path id="bx" d="m3660 2441-25-7 31-17c34-17 44-14 44 15 0 19-9 21-50 9z"/>
  <path d="m2326 2192c-7-81-3-105 22-134 20-24 74-23 95 0 19 21 24 117 7 127-5 3-10 17-10 30 0 46-9 55-60 55h-47z"/>
 </g>
 <g id="by" transform="translate(-1278.8 -1679.5)" fill="#51454a">
  <path d="m1440 3720c0-28 2-30 39-30 56 0 101 18 101 41 0 17-8 19-70 19h-70z"/>
  <path id="bz" d="m1768 3737c-25-9-28-16-28-54 0-33-7-50-30-76-28-33-41-87-21-87 22 0 62 21 56 29-6 10 46 51 64 51 6 0 11 6 11 13 0 28 167 110 223 109 18 0 27 4 27 15 0 12-8 13-42 8-24-4-60-16-80-26-47-24-128-37-128-20 0 6 16 17 35 25s35 17 35 20c0 10-94 4-122-7z"/>
  <path id="ca" d="m3235 3740c3-5 11-10 16-10 16 0 82-30 77-35-2-2-27-1-56 4-29 4-52 6-52 4s14-12 32-23c17-10 63-50 102-88 90-88 106-94 105-44-1 44-27 93-57 107-22 10-32 55-12 55 6 0 10 9 10 20 0 18-7 20-86 20-54 0-83-4-79-10z"/>
  <path d="m3560 3730c0-26 36-40 101-40 48 0 49 1 49 30v30h-75c-69 0-75-2-75-20z"/>
  <path id="cb" d="m3460 3651c0-48 27-97 72-130 42-31 44-32 128-25 88 7 117 17 81 29-12 3-19 10-16 15 2 4-8 10-23 13s-36 9-46 13c-14 5-17 4-12-4 4-7 2-12-6-12-20 0-41 17-35 27 3 5-9 15-28 21-30 11-71 46-49 41 24-4 44 2 44 15 0 16-30 26-77 26-30 0-33-3-33-29z"/>
  <path id="cc" d="m1893 3580c-72-8-88-26-20-22 98 5 102 6 86 17-8 6-36 8-66 5z"/>
  <path id="cd" d="m3823 3508c1-7-6-12-15-10-12 2-18-4-18-18 0-16 6-20 30-20 27 0 30 3 30 30 0 20-5 30-15 30-8 0-14-6-12-12z"/>
  <path id="ce" d="m2500 3371 24-19-62 4c-38 3-62 0-62-6 0-5 11-10 24-10 14 0 28-5 31-10 4-7 12-7 25 0 10 5 28 10 39 10 14 0 21 6 21 19 0 19-19 31-48 31-13 0-11-5 8-19z"/>
  <path id="cf" d="m2206 3267c-25-18-19-120 7-125 15-3 18 0 12 17-5 15-3 19 8 16 8-4 18 4 25 20 6 14 8 25 3 25s-11 7-15 15c-3 8 0 14 6 12 5-1 12 6 13 16 4 21-32 24-59 4z"/>
  <path id="cg" d="m2279 3275c-9-8 2-55 12-55s11 17 0 43c-3 10-9 15-12 12z"/>
  <path id="ch" d="m2470 3088c0-18 5-25 18-24 11 0 15-4 13-14-3-8-8-46-11-85-5-64-7-68-18-45l-12 25 1-25c1-14 1-32 0-40-2-29-19 11-26 62-4 26-11 51-16 54-6 3-8-4-5-18 3-12 7-43 11-67 5-40 4-43-15-38-20 5-20 4-3-25 24-40 35-43 92-24 60 19 103 20 156 1 22-8 45-15 51-15 15 0 33 43 39 93l5 42-11-35c-16-52-29-60-29-18 0 43-16 59-22 23-3-13-1-26 4-29 5-2 3-3-4-2-8 2-14 19-14 42-2 59-4 61-19 29-14-30-14-30-13 22 1 29-5 59-12 68-13 15-5 20 28 16 6-1 12 7 12 19 0 17-6 20-39 20-21 0-66 3-100 6-60 7-61 7-61-18zm153-68c9-11 12-20 6-20-7 0-9-11-7-25 3-14 1-28-4-31-4-3-6-10-3-15 4-5-1-9-10-9-11 0-15 6-11 18 9 31 10 77 3 90-13 20 7 14 26-8z"/>
  <path d="m1688 2973c-9-2-21-17-27-34-9-25-8-29 9-29 16 0 60 47 60 64 0 7-15 6-42-1z"/>
  <path id="ci" d="m3422 2935c17-34 28-45 46-45 13 0 20 4 17 10s-1 10 6 10 5 8-7 21c-15 17-16 22-4 29s10 9-5 8c-11-1-32 1-47 5l-28 7z"/>
  <path id="cj" d="m2310 2873c0-10-6-13-17-9-14 6-14 4 2-14s17-23 5-30c-11-7-7-10 17-10 33 0 42 11 35 46-5 26-42 41-42 17z"/>
  <path id="ck" d="m3577 2760c11-14 37-51 57-82s41-60 47-63c6-4 8-18 5-31-5-20-1-24 34-34 34-9 130-5 130 5 0 2-30 46-66 99-55 81-69 96-92 96-20 0-23-3-14-12 17-17 15-28-5-28-14-1-12-6 10-25l28-25h-25c-15 0-27 7-30 18-3 10-27 38-53 62-26 25-38 34-26 20z"/>
  <path id="cl" d="m1350 2663c-36-54-67-104-68-112-3-11 9-13 64-9 86 7 127 24 118 50-3 10 0 25 6 33 7 8 10 21 7 29s-1 17 6 20c8 3 8 5-2 5-7 1-29-13-48-30-42-36-57-31-17 6 21 19 25 28 16 32-10 4-6 13 14 34 21 22 24 29 12 29-9 0-22 2-30 5s-36-30-78-92z"/>
  <path id="cm" d="m1617 2663c-9-8-9-110-1-140s34-29 112 3c44 19 62 32 62 45 0 17-4 16-36-6-42-28-95-33-118-10-11 12-14 30-11 65 4 51 3 55-8 43z"/>
  <path id="cn" d="m3567 2617c6-27 49-62 55-44 3 6-10 24-27 39-31 27-32 27-28 5z"/>
  <path d="m3276 2604c-3-9-6-18-6-20 0-9 70-34 95-34 24 0 24 1-14 35-42 38-65 44-75 19z"/>
  <path id="co" d="m1280 1918v-103l41-48c57-67 65-54 49 75-14 119-35 172-68 176-22 3-22 1-22-100z"/>
  <path id="cp" d="m3776 1891c-29-158-17-188 43-112 29 36 31 44 31 120v81h-29c-28 0-29-1-45-89z"/>
  <path id="cq" d="m1487 1933c-9-8-9-70-1-101 6-19 12-23 43-20l36 3 3 63 3 62h-39c-21 0-42-3-45-7z"/>
  <path id="cr" d="m2834 1899c3-17 6-40 6-50 0-13 7-19 24-19 23 0 24 3 19 38-7 43-19 62-40 62-12 0-14-7-9-31z"/>
  <path id="cs" d="m1280 1712c0-28 3-32 27-32h26l-24 28c-13 15-25 29-26 31-2 2-3-10-3-27z"/>
 </g>
 <g id="ct" transform="translate(-1278.8 -1679.5)" fill="#4d4e4d">
  <path d="m2656 2458c-2-7-7-59-10-115-6-98-5-103 14-103 13 0 20 7 20 19 0 11 5 23 10 26 6 3 10 28 10 56s5 49 11 49c5 0 7 5 4 10-11 18 24 23 40 6 9-9 14-16 11-16s3-16 14-36c11-19 18-40 14-45-3-6 3-13 15-16s21-13 21-22c0-14-2-14-10-1s-10 12-10-2c0-10 5-18 10-18 17 0 11-21-12-39-19-16-18-49 1-37 10 7 8-55-2-71-5-8-4-13 2-13s11-7 11-16c0-13-9-15-50-12-45 3-50 1-50-18 0-16 10-24 39-32 75-23 121-13 121 25 0 16 7 27 20 30 26 7 26 50 1 128-14 41-18 73-14 111 5 46 3 54-16 66-11 7-21 20-21 29 0 19-54 44-116 54-21 4-47 9-57 12-9 2-19-2-21-9z"/>
  <path id="cu" d="m2345 2442c-95-34-130-55-134-82-1-14-6-27-10-30-17-13-45-133-49-212l-4-88h35c19 0 40-7 47-15 22-27 145-16 198 18 6 5 12 19 12 33s6 24 14 24c18 0 24 25 32 148 4 67 3 102-3 102s-13 27-17 60c-7 60-7 60-39 60-18-1-54-9-82-18zm56-214c1-7 0-22 0-34-1-11 5-27 13-34 21-17 20-53-2-74-18-15-20-15-37 5-22 23-24 91-4 115 8 10 8 14 0 14-6 0-11 5-11 10 0 15 40 12 41-2z"/>
 </g>
 <g id="cv" transform="translate(-1278.8 -1679.5)" fill="#5c464d">
  <path id="cw" d="m3030 3510c0-5-8-11-17-13-10-3-3-5 15-6 33-1 46-20 15-22-10-1-4-5 12-9 28-7 27-8-12-9-24 0-43-5-43-10 0-12 125-22 202-14l68 6v33c0 18-4 35-8 38-15 9-232 14-232 6z"/>
  <path id="cx" d="m2487 3428c-5-34-2-46 11-56 9-7 16-18 14-23-1-6 11-7 31-4 19 4 51 2 72-4 31-8 40-7 54 6 14 15 13 16-12 11-46-9-41 11 8 35 80 38 85 41 85 59 0 25-10 23-50-12-46-38-60-38-60 2v32l-33-32c-18-18-37-32-42-32s-23 14-41 31l-31 30z"/>
  <path d="m2303 3056c-15-7-21-17-17-28 7-24-24-24-42 0-11 14-13 15-14 1 0-8-13-28-30-44-35-33-42-80-11-70 11 3 22 1 26-5 10-16 23-12 30 10 3 11 13 20 21 20s17 7 20 15c4 8 18 15 34 15 25 0 28 4 35 46 5 34 10 44 21 40 8-3 14-1 14 4 0 13-59 11-87-4z"/>
  <path id="cy" d="m2876 3015c-3-8-15-15-27-15-21 0-22-1-4-20 10-11 15-20 12-20s5-11 19-25c31-31 104-37 104-8 0 13-84 103-96 103-1 0-4-7-8-15z"/>
  <path id="cz" d="m2772 2848c-7-24-15-49-18-55-8-17 122-17 176-1 56 18 56 48 1 48-22 0-43-4-46-10-3-5-21-10-39-10-25 0-35 5-39 20-3 11-1 23 4 26 12 7 2 24-15 24-6 0-17-19-24-42z"/>
  <path d="m3126 2861c10-10 21-17 23-15s10-4 17-14c12-15 13-14 14 16 0 30-2 32-37 32-36 0-36 0-17-19z"/>
  <path id="da" d="m3100 2833c0-32 44-112 63-113 18 0 23 15 7 25-5 3-7 12-3 21 3 8-1 20-10 27-8 7-17 21-19 32-4 26-38 33-38 8z"/>
 </g>
 <g id="db" transform="translate(-1278.8 -1679.5)" fill="#584a50">
  <path id="dc" d="m2797 3743c-4-3-7-15-7-25 0-16 3-17 21-7 16 8 20 8 14-1-5-8-1-11 11-8 11 2 20 13 22 26 3 18-1 22-26 22-16 0-32-3-35-7z"/>
  <path id="dd" d="m2291 3614c14-17 39-18 39-1 0 6-11 13-25 13-21 2-24-1-14-12z"/>
  <path id="de" d="m2210 3538c0-9-16-12-55-10-31 2-61-1-68-6s-47-10-90-11c-114-2-127-6-127-46 0-39 14-45 116-45 61 0 72-3 76-18 6-20 60-32 141-32h40l-7-64c-6-61-5-64 14-59 11 3 18 9 15 13s3 14 13 21c12 9 14 9 6 1-6-7-9-24-6-38 3-18 11-24 31-24 37 0 71 26 52 39-7 5-10 14-6 21s2 16-5 20c-26 16-2 40 40 40 22 0 40 5 40 10 0 6-24 10-54 10-36 0-58 5-67 16-11 13-9 15 12 10 67-14 114-17 103-6-5 5-43 14-83 19-91 12-102 21-25 21l59 1-48 40 44-7c32-5 55-17 84-45 55-52 70-51 61 4-9 53-26 73-26 29 0-38-15-41-49-8-28 26-197 116-218 116-7 0-13-6-13-12z"/>
  <path id="df" d="m2815 3509c-44-22-85-45-93-51-24-21 7-33 83-33 95 0 105-11 18-20-85-8-114-15-108-25 2-4 30-3 62 2s69 6 83 2c23-6 24-7 5-14-11-5-52-9-92-9-82-1-109-18-36-23 37-2 47-7 44-18-2-8-4-22-5-30 0-8-8-18-16-21-11-5-6-12 20-28 42-25 44-25 64-6 17 18 38 19 53 4 7-7 12 5 17 40 5 41 10 51 26 51 37 0 50 11 50 46 0 24-5 34-15 34-8 0-15 9-15 20 0 16-7 20-32 20-18 0-50-4-71-9-20-5-39-6-42-1-2 4 20 12 50 19l55 12v40c0 25-5 39-13 39-7 0-48-18-92-41z"/>
  <path id="dg" d="m3580 3504c0-23 2-24 89-24 94 0 120 11 85 37-13 9-44 13-96 12-75-2-78-3-78-25z"/>
  <path id="dh" d="m1463 3073c-20-4-23-11-23-49 0-44 0-44 35-44 33 0 46-12 26-24-5-4-12-30-16-59-4-31-15-59-26-70-13-12-19-32-19-63v-45l45 37c38 32 46 46 56 93 11 54 30 81 74 106 16 10 16 11-3 12-37 3-102 24-102 33 0 5 6 14 13 19 6 6 26 22 42 35l30 25-55-1c-30 0-65-3-77-5z"/>
  <path id="di" d="m3580 3040c37-33 42-41 30-50-13-8-13-10 1-10 9 0 31 3 48 6 28 6 31 10 31 44s-3 38-31 44c-17 3-52 6-78 6l-46-1z"/>
  <path id="dj" d="m3560 2932c0-6 5-14 10-17 6-3 10-11 10-18 0-8-3-8-12 1-7 7-17 12-22 12-6 0 7-17 27-38 21-21 34-41 31-45-9-9 9-9 30-1 22 8 21 67-1 87-23 20-73 33-73 19z"/>
  <path id="dk" d="m1860 2894c-29-46-23-109 20-199 30-63 32-65 68-65h37l1 65c1 73-10 73-36 3-8-23-20-43-26-45-13-4-44 67-44 102 0 13 10 31 23 40 15 12 18 19 10 22s-13 25-13 59c0 30-4 54-9 54s-19-16-31-36z"/>
  <path id="dl" d="m1993 2900c-3-11-9-20-14-20s-9-7-9-15c0-19 9-19 31 1 11 10 19 12 24 5 3-6-1-14-9-17-18-7-22-34-5-34 5 0 7-4 4-10-3-5-1-10 4-10 12 0 12 1 15 49 1 18 9 39 19 46 26 19 21 25-19 25-27 0-37-5-41-20z"/>
  <path d="m2070 2859c0-20 4-21 46-15 26 3 59 6 73 7l26 1-30 13c-16 8-49 14-72 15-37 0-43-3-43-21z"/>
  <path id="dm" d="m3001 2864c22-26 52-33 66-15 17 23 7 31-39 31-36 0-39-2-27-16z"/>
  <path d="m3124 2865c24-18 39-20 34-2-3 6-15 13-29 15-23 2-23 2-5-13z"/>
  <path id="dn" d="m2320 2854c0-8-4-12-10-9-5 3-7 0-4-8s-2-17-11-21c-29-11-5-26 41-26h44l-20 40c-21 41-40 52-40 24z"/>
  <path d="m3100 2828c0-13 7-33 15-44 15-18 15-17 12 20-3 43-27 64-27 24z"/>
  <path id="do" d="m2121 2829c-13-5-22-12-19-15 9-8 138 8 132 17-7 12-83 10-113-2z"/>
  <path id="dp" d="m2980 2826c8-8 26-17 40-21 25-8 25-8 6 14-11 11-28 21-40 21-18 0-18-2-6-14z"/>
  <path id="dq" d="m3230 2806c0-7 9-16 21-19 16-4 18-9 10-24-5-10-17-39-27-65-9-27-20-48-23-48-17 0-31 27-31 57 0 22-6 36-19 43-29 15-32 13-21-16 6-14 10-38 10-54 0-29 15-40 53-40 17 0 28 13 46 53 12 28 25 69 28 90 5 35 4 37-21 37-15 0-26-6-26-14z"/>
  <path id="dr" d="m2533 2773c-16-6-17-47-3-74 8-13 21-19 45-19 19 0 35 4 35 9s14 11 30 15c21 4 30 11 30 25 0 29-98 60-137 44z"/>
  <path id="ds" d="m2720 2711c0-10 13-52 30-92 16-41 30-75 30-76 0-2 18-3 40-3 37 0 40 2 40 28 0 40-31 120-49 125-9 3-33 12-53 21-36 16-38 15-38-3z"/>
  <path id="dt" d="m1830 2652c0-5-16-27-35-49-19-23-35-46-35-51 0-17 95 25 98 43 5 24-7 65-18 65-6 0-10-4-10-8z"/>
  <path id="du" d="m3560 2025v-55h80v110h-80z"/>
  <path id="dv" d="m2284 1930c-21-8-28-29-49-137-7-35-16-41-32-20-10 11-9 37 2 100 4 25 2 28-18 22-12-4-25-10-30-14-9-9-27-114-27-163v-38h90c121 0 168 15 176 56 3 17 4 42 2 54-4 30-28 39-28 10 0-12-4-18-10-15-5 3-10 2-10-4s-7-8-15-5c-9 4-18-2-24-17-9-23-10-22-10 9-1 17-6 32-12 32-12 0-3 93 13 123 5 9 7 17 6 16-2 0-13-4-24-9z"/>
  <path id="dw" d="m2795 1883c12-89 12-97-8-101-12-2-20 4-24 17-10 41-33 24-33-24 0-38 4-47 23-54 13-5 29-16 36-25 11-13 35-16 127-16 85 0 114 3 114 13 0 6-5 49-11 94l-12 82-44 17c-24 9-45 15-47 13s1-20 7-39c13-39 11-110-3-110-5 0-14 19-21 43-6 23-20 59-30 80-10 22-16 43-13 48s-2 9-11 9c-13 0-15-7-10-44 4-25 3-46-3-50-6-3-13 17-17 49-3 30-11 55-17 55-7 0-8-19-3-57z"/>
  <path id="dx" d="m3567 1913c-4-3-7-44-7-90v-83h34c40 0 42 4 52 108l7 72h-40c-22 0-43-3-46-7z"/>
 </g>
 <g id="dy" transform="translate(-1278.8 -1679.5)" fill="#565655">
  <path id="dz" d="m2427 2463c-27-4-28-5-12-23 10-11 18-41 20-77 3-33 9-57 15-55 5 1 9-1 9-5-4-25 3-43 16-43 11 0 15 12 15 44 0 80-13 166-24 165-6-1-24-4-39-6z"/>
  <path d="m2805 2407c8-13 12-27 8-31s6-18 22-31c25-20 27-26 15-34-9-7-19-6-27 1-20 16-15-4 7-32 11-14 20-32 20-40s9-42 20-74c19-57 19-87 0-56-7 11-11 3-16-27-6-40-25-60-45-47-5 3-9-5-9-18 0-21 7-26 60-37 33-8 80-11 104-9 40 5 45 3 50-18 5-20 13-24 41-24h35v57c0 31-6 79-14 107-40 142-44 166-29 175 35 19 7 46-107 103-63 32-123 58-133 58-16 0-16-2-2-23z"/>
  <path d="m2171 2364c-66-33-91-50-91-64 0-10 5-22 11-25 6-4 7-14 4-24-4-9-10-34-15-56s-16-69-24-105-15-80-16-97v-33h81c101 0 209 27 209 51 0 13-10 19-31 21-19 2-36 11-43 23-6 11-15 23-20 27-6 3-2 26 8 53 28 72 11 65-25-11-18-38-34-63-37-56-2 7 6 33 18 58 11 26 19 49 16 51-3 3-10-7-16-22s-13-26-15-23c-7 6 24 119 36 134 6 7 8 18 4 24-3 5-2 10 3 10s12 16 15 36 14 45 23 55c26 29 4 23-95-27z"/>
 </g>
 <g id="ea" transform="translate(-1278.8 -1679.5)" fill="#5d5356">
  <path id="eb" d="m1390 3716v-36h54c40 0 55 4 60 16 10 26 7 32-14 27-14-4-20-1-18 8 2 10-10 15-39 17l-43 3z"/>
  <path id="ec" d="m1705 3695c5-44 4-56-9-61-8-3-23-25-32-48-16-39-20-41-51-38-19 3-54-3-79-13-24-9-65-17-92-16-26 0-68-6-94-14-27-8-48-11-49-7-3 18-17-47-18-80-1-38-1-38 41-38 28 0 61 11 105 35 73 40 73 40 73 20 0-22 16-19 63 13 23 16 68 41 99 56 32 16 56 31 54 35-5 8 71 91 99 108 18 11 17 12-12 12-44 1-44 31 0 51 50 23 38 35-37 38l-68 3z"/>
  <path id="ed" d="m3352 3732c-15-14-18-22-10-30 15-15 1-45-18-38-31 12-1-16 32-30 43-18 44-18 44 10 0 17 9 27 30 36 24 10 30 19 30 41 0 28-2 29-43 29-28 0-52-7-65-18z"/>
  <path id="ee" d="m3670 3735c11-13 9-15-13-15-20 0-24-4-20-20 4-17 14-20 54-20h49v35c0 34-1 35-41 35-36 0-40-2-29-15z"/>
  <path id="ef" d="m2401 3651c-16-12-20-21-12-25 6-4 11-18 11-32 0-29 10-30 90-7 72 20 78 39 15 48-24 4-50 13-56 21-15 18-19 17-48-5z"/>
  <path id="eg" d="m2662 3640c-19-31-14-47 20-64 42-22 43-21 56 21 8 27 8 40 0 50-16 20-61 16-76-7z"/>
  <path id="eh" d="m2150 3558c0-7-3-23-6-34-4-15 0-23 13-28 113-38 150-45 138-26-3 6 0 10 7 11 7 0-3 8-23 17-20 10-34 23-31 30 4 12-18 23-70 36-20 4-28 2-28-6z"/>
  <path id="ei" d="m2908 3553c-10-2-18-13-18-23 0-11-12-22-31-29-42-14-30-27 23-24 85 4 198 16 198 21 0 16-42 31-87 32-40 0-53 4-53 15 0 15-2 16-32 8z"/>
  <path id="ej" d="m1885 3518c-44-5-93-16-110-25-16-8-40-21-52-27-16-8-23-20-23-42 0-27 4-32 31-38 17-3 60-6 95-6 48 0 64 3 64 14 0 8 15 17 34 20 46 9 58 45 15 44-46-2-46 11 0 18 35 6 41 10 41 30 0 13-3 23-7 23-5-1-44-6-88-11z"/>
  <path d="m3582 3508c2-12 19-33 38-46 32-22 42-24 110-19 85 7 110 14 110 31 0 20-71 39-152 41-43 1-81 4-84 8-14 14-25 6-22-15z"/>
  <path id="ek" d="m3203 3493c-21-8-15-25 6-18 11 3 22 1 26-5s-4-10-20-10c-22 0-26-4-23-22 3-25 32-32 181-44l77-7v37c0 34-3 38-46 56-44 19-168 27-201 13z"/>
  <path d="m2950 3452c-49-5-71-13-65-22 3-6 16-10 28-11 17-1 14-3-11-12-46-14-35-32 19-29 36 2 41 1 25-9-10-6-34-9-56-5-38 6-61-6-40-19 20-12 130 6 130 21 0 10 14 14 53 14 83 0 99 7 95 44l-3 31h-75c-41 0-86-1-100-3z"/>
  <path id="el" d="m2140 3368c0-38 0-38 40-38 22 0 40-3 40-7 0-10 49-33 69-33 12 0 11 3-2 18-23 26-21 35 4 20 17-10 23-10 26 0 3 7 25 12 59 12 30 0 54 5 54 10 0 6-24 10-54 10-35 0-58 5-66 15-10 13-9 15 10 15 13 0 21 3 18 6s-49 6-102 7l-96 2z"/>
  <path id="em" d="m2634 3348c-6-10-7-10 98-12 65-1 88 2 88 12 0 9-23 12-90 11-50-1-93-6-96-11z"/>
  <path id="en" d="m2525 3121c-22-4-31-13-33-30-2-15 0-21 7-16 6 3 25 0 41-9 18-9 30-10 30-4 0 7 19 9 50 6 47-5 50-4 50 19 0 38-61 52-145 34z"/>
  <path id="eo" d="m1445 3072c-47-4-75-30-75-69 0-52 11-73 36-73 24 0 33-23 14-35-5-3-10-16-10-29 0-14-10-28-25-36-31-17-33-47-2-52 17-2 21-9 19-30-2-24 1-28 21-28 28 0 46 18 52 51 3 12 9 26 15 29 19 12 41 60 27 60-6 0 9 21 33 46 26 27 36 42 23 35-12-6-25-16-28-21-3-6-11-10-18-10-8 0-8 3 1 12 21 21 15 47-10 41-15-3-19-2-11 4 19 13 5 52-16 46-13-3-18 1-17 19 1 13 7 26 15 29 23 9 0 15-44 11z"/>
  <path id="ep" d="m3655 3045c3-19-1-25-16-25-10 0-19-7-19-15s-6-15-12-15c-7 0-2-9 12-20 15-12 41-20 66-20 45 0 54 12 54 76 0 34-13 44-59 44-24 0-28-4-26-25z"/>
  <path id="eq" d="m3606 2878c18-20 18-21 1-15-12 5-16 3-11-4 4-7 8-21 9-33 1-11 3-24 4-27 0-3 25-26 54-51 38-33 58-44 68-38 11 7 11 12 1 22-26 26-13 38 38 38 41 0 50 3 50 18 0 21-48 44-110 51-36 5-46 10-48 27-3 20-27 34-61 34-11 0-9-5 5-22z"/>
  <path id="er" d="m2287 2816c-34-12-32-37 4-47 34-9 91 15 83 34-7 19-51 25-87 13z"/>
  <path d="m2453 2745c-135-50-133-48-132-103 0-26-3-68-6-94l-7-48h41c23 0 41 5 41 10 0 6 11 10 24 10 17 0 27 9 36 30 15 37 30 39 30 4 0-23 3-25 37-22 30 2 38 8 43 28 6 24 6 24 13-7 6-30 10-33 42-33 33 0 35 2 35 35 0 41 12 45 28 10 7-15 20-25 32-25 11 0 20-4 20-10 0-5 18-10 40-10 37 0 40 2 40 28 0 15-13 59-28 97-28 67-31 71-82 92-46 18-55 19-67 7-20-20-36-17-30 5 3 11-1 22-9 25-9 3-14-6-16-32-3-36-3-36-16-14-10 18-11 26-1 38 18 22-4 18-108-21z"/>
  <path id="es" d="m3504 2622c6-43 4-54-13-71-13-13-27-18-43-14l-23 6 24-27c31-33 49-33 61 0 14 35 13 141-1 150-9 5-10-7-5-44z"/>
  <path d="m3276 2644c-11-29-6-65 10-71 9-3 20 0 24 7 7 11 11 11 24 0 9-7 19-10 23-6 3 3 2 6-3 6s-20 18-34 40c-27 44-35 48-44 24z"/>
  <path id="et" d="m3754 2581c19-21 19-21-3-21-12 0-19-4-16-10 3-5 31-10 61-10 40 0 54 4 54 14 0 18-13 27-43 30-12 2-33 6-47 11-25 8-25 8-6-14z"/>
  <path id="eu" d="m1419 2262c-25-20-67-55-93-77l-46-39v-78c0-42 5-80 10-83 24-15 50-119 54-220 2-31 15-45 42-45 15 0 24 6 24 15 0 8 3 15 8 15 4 0 8 58 8 130 1 72-2 130-6 130-11 0-22 28-30 78-6 39-5 42 16 42 17 0 24 7 27 28 3 22 4 20 6-10 1-37 2-38 41-38h40v80c0 73-2 80-20 80-11 0-20 7-20 15 0 22-10 19-61-23z"/>
  <path id="ev" d="m3610 2131c0-81-4-131-10-131-5 0-10 7-10 15s-9 15-20 15c-17 0-20-7-20-53 0-51-1-53-32-62-33-10-33-10-36-82l-3-73h30c24 0 32-5 37-26 6-22 11-25 43-22l36 3v68c0 46 4 70 14 76s12 26 9 75c-4 64-3 66 19 66h24l-3 128-3 127-37 3-38 3zm2-288c-7-74-21-87-22-22 0 31 3 59 7 62 15 16 20 4 15-40z"/>
  <path id="ew" d="m3700 2065v-155h48l-14-52c-22-85-17-148 13-148 18 0 64 53 52 60-4 3-1 46 9 95 14 74 18 83 20 52 2-21-1-59-6-83-10-44-9-45 9-28 17 15 19 33 19 178v161l-34 27c-24 19-36 24-39 15-3-6-6-2-6 11-1 18-7 22-36 22h-35z"/>
  <path d="m1488 1998c-4-99 2-219 13-260 9-36 12-38 51-38h41l-6 75c-4 42-11 84-16 94-6 10-6 23 0 32 10 16 12 119 3 143-4 11-19 16-45 16h-39zm52-117c0-31-19-54-21-27-1 9-2 22-3 29-3 16 3 27 15 27 5 0 9-13 9-29z"/>
  <path id="ex" d="m2141 1875c-43-20-52-28-45-43 10-22 10-46 0-104l-7-48h68l7 63c9 79 24 137 36 137 6 0 10 5 10 10 0 15-9 13-69-15z"/>
 </g>
 <g id="ey" transform="translate(-1278.8 -1679.5)" fill="#5d585a">
  <path id="ez" d="m1333 3743c-8-2-13-22-13-45v-41l70 5c78 6 75 5 84 34 6 18 3 20-26 17-27-3-30-2-15 7 9 6 17 15 17 20 0 10-95 13-117 3z"/>
  <path id="fa" d="m1634 3718c3-17 11-37 17-45 19-22 77-16 105 11l26 23-26 7c-14 3-26 13-26 21 0 11-13 15-51 15h-51z"/>
  <path id="fb" d="m3423 3736c7-16-26-32-56-27-16 2-17-1-8-18 17-31 13-44-10-38-26 7-13-9 22-27 31-16 65-76 47-87-8-5-3-11 17-19 17-6 56-24 87-41 32-16 59-29 62-27 2 2 8-1 13-6s2-6-7-1c-12 6-12 5-3-5 20-21 43-4 43 32 0 29-7 37-56 68-30 19-67 43-82 52-15 10-33 21-39 24-25 12-15 42 15 46 19 2 28 9 30 26 2 12 10 22 18 22s14 9 14 20c0 18-7 20-56 20-45 0-55-3-51-14z"/>
  <path id="fc" d="m3698 3738c19-19 14-31-13-26-20 4-25 1-25-16 0-32 49-50 116-41l54 6v39c0 45-9 50-88 50-44 0-53-3-44-12z"/>
  <path d="m2680 3638c1-35 3-40 13-28 7 8 18 15 26 15 27 0 22 24-8 40l-31 16z"/>
  <path d="m1628 3582c-27-21-48-45-48-56 0-12 5-16 15-13 24 10 27-11 3-27-32-23-20-20 41 10 29 14 51 28 48 31-8 8 22 65 42 80 14 10 11 12-19 12-24-1-49-12-82-37z"/>
  <path id="fd" d="m2956 3567c-30-9-41-19-47-40l-7-27h61c34 0 89-5 122-11s84-12 113-14c48-3 52-2 52 20 0 20-6 23-52 27-28 3-67 1-86-4-36-10-76-3-55 10 7 4 10 18 6 30-6 25-42 28-107 9z"/>
  <path id="fe" d="m1280 3485c0-55 14-63 67-38 30 14 34 18 18 21-11 2-28 11-37 20-10 8-18 11-18 7 0-5-6-3-12 3-10 10-10 15 2 22 13 8 12 10-2 10-15 0-18-9-18-45z"/>
  <path d="m1675 3457c-55-29-60-35-63-69-4-44-5-44 110-26 63 10 78 16 78 30 0 12-11 19-35 24-35 6-35 7-13 18 13 7 33 19 46 27 68 43-42 40-123-4z"/>
  <path id="ff" d="m3763 3483c-25-3-33-9-33-24 0-18 6-20 58-17 50 3 57 6 60 26 4 23-4 25-85 15z"/>
  <path id="fg" d="m2950 3453c-51-7-73-14-64-22 11-10 124-2 124 9 0 10-29 16-60 13z"/>
  <path id="fh" d="m3140 3450c-11-7 0-10 38-10 33 0 51 4 47 10-8 13-65 13-85 0z"/>
  <path id="fi" d="m2973 3413c-18-2-33-8-33-12s16-5 35-3 35 8 35 13-1 8-2 7c-2 0-18-3-35-5z"/>
  <path id="fj" d="m2150 3378c0-28 1-28 58-26 56 2 56 2 10 5-30 3-48 9-48 17s10 11 31 8c23-3 30-1 27 8-2 7-21 13-41 14-34 1-37-1-37-26z"/>
  <path id="fk" d="m2823 3363c-59-8-36-36 28-35 22 1 37-3 34-7-7-13-45-21-45-10 0 5-5 9-12 9-8 0-6-6 4-17 26-25 82-6 86 30 2 17-1 27-10 27-7 0-22 2-33 4s-35 1-52-1z"/>
  <path id="fl" d="m3692 3036c11-8 15-20 11-34-6-26-16-27-49-5-17 11-28 13-32 6-4-6-23-18-42-26l-35-15 25-10c18-8 20-11 8-11-19-1-24-16-9-25 5-3 52-3 105 1l96 6v52c0 60-12 75-59 75-32-1-34-2-19-14z"/>
  <path id="fm" d="m1357 3023c-11-10-8-73 3-73 6 0 10-7 10-15 0-12 14-15 69-15 82 0 101 6 101 31 0 10 6 19 13 20 6 0 0 5-15 11-16 5-28 16-28 24 0 11-13 6-46-16-25-18-47-30-48-28-11 12-16 48-7 48 6 0 11 5 11 10 0 11-53 14-63 3z"/>
  <path id="fn" d="m2390 2869c0-13 42-59 55-59 7 0 36 7 64 17 48 15 56 15 126-2 80-19 98-16 71 10-9 9-16 24-16 33 0 12-3 13-8 5-6-10-22-10-67-3-42 7-62 6-73-2-10-9-16-8-23 3-5 8-9 9-9 3 0-7-8-14-17-18-10-3-23-9-30-12-6-3-13 3-15 12-2 11-13 18-30 18-16 1-28-1-28-5z"/>
  <path d="m2533 2743c-1-16-2-60-3-100 0-40-5-75-10-78-6-3-10 5-10 19 0 13-6 27-12 29-10 4-10 8 0 15 11 7 11 10-2 15-9 4-22-2-31-16-16-21-16-21-11 18 5 37 5 39-9 21-8-11-15-31-15-45-1-14-7-37-15-51-26-46-21-50 65-50 73 0 80 2 80 20 0 11 7 20 15 20s15-4 15-10c0-5 11-10 24-10s26-4 28-9 22-12 45-16l42-7 6 45c4 25 4 64 0 86-8 50 0 53 19 6 17-39 42-49 30-12-24 81-41 98-72 78-11-6-10-19 3-71 9-34 14-65 11-67-7-7-20 29-35 92-14 57-16 60-31 50-8-5-8-11 1-21 9-11 7-14-15-14-17 0-26-5-26-16 0-8 4-13 9-10s12-1 15-10c9-22 8-24-9-24-11 0-15-11-15-37-1-32-2-35-11-19-6 10-9 32-6 50 2 17-1 60-8 96l-13 65-1-57c-1-32-5-58-11-58-5 0-10 17-10 38s-6 46-12 55c-12 16-13 14-15-10zm40-124c-17-17-37-1-22 17 8 10 15 12 23 4 7-7 7-13-1-21z"/>
  <path d="m3700 2740c-13-8-13-11 1-26 9-9 24-14 34-12 16 3 16 4-1 25-14 17-23 20-34 13z"/>
  <path id="fo" d="m2781 2687c17-32 19-33 19-10 0 12-7 23-15 27-13 5-14 2-4-17z"/>
  <path id="fp" d="m2063 2303-41-27-7-79c-8-89-3-100 46-95 27 2 34 8 40 33 10 40 18 195 10 195-3 0-25-12-48-27z"/>
  <path id="fq" d="m3025 2321c4-7 0-17-9-24-13-10-14-19-6-47 5-19 12-61 15-92 4-31 13-62 21-69 8-6 14-20 14-29 0-37 12-50 46-50 33 0 34 1 34 42 0 67-33 222-50 235-31 24-73 45-65 34z"/>
  <path id="fr" d="m3646 2294c-10-25-7-62 5-70 9-5 10-47 4-158-5-83-9-170-9-193-1-33-5-43-18-43-11 0-18-12-23-40-10-59-33-62-26-2 1 6-5 12-12 12-26 0-30 34-8 49 18 11 21 24 21 77v64h-32c-18 0-39-4-46-9-16-10-31-117-32-223v-78h268l36 45c21 25 33 45 28 45s-15-7-22-15c-10-13-15-13-21-3-5 7-3 16 4 20 9 6 9 8 0 8-7 0-11 6-8 13 2 6 11 39 20 71 12 43 19 56 26 45 7-12 12 19 9 69-1 7-41 4-50-5-2-2 2-9 10-14 12-9 12-10-2-5-10 3-18 1-18-4 0-6-4-10-10-10-5 0-10 19-10 42 0 38 1 40 14 23 13-18 15-17 25 20 6 22 11 49 12 60 1 17 2 16 9-5 8-24 8-24 9 6 1 17 4 46 7 63 5 24 3 31-10 31-9 0-16 6-16 13 0 8-21 31-47 53-83 68-80 66-87 48zm103-191c1-23-3-45-9-48-6-4-10 20-9 67 1 78 16 62 18-19zm-209-243c-6-4-16-23-20-41l-8-34-1 42c-1 30 4 45 17 52 20 11 32-7 12-19z"/>
  <path id="fs" d="m1433 2271c-28-23-33-34-33-72 0-32-3-40-10-29-5 8-10 26-11 40-2 24-2 24-6 3-3-14-14-25-29-29-22-6-23-8-11-23 8-9 18-41 22-71 7-62 23-110 36-110 14 0 10-26-5-39-11-9-15-9-19 1s-6 10-6 0c-1-7 6-20 14-28 17-18 21-69 4-58-15 9 0-58 15-68 8-6 8-8-1-8-6 0-14-8-16-17-4-17-5-17-6 0s-2 17-17 3c-14-14-13-19 12-51 21-28 33-35 61-35 47 0 66 21 61 70-3 32 0 40 13 40 14 0 17 15 17 116 1 117 5 141 22 114 12-19 13-66 2-88-12-22 12-182 33-222 13-26 21-30 55-30h40l-5 98c-3 53-13 125-22 160-14 58-17 62-44 62-29 0-29 1-29 60 0 57-1 60-25 60-20 0-25 5-25 25 0 16-6 25-15 25-8 0-15-7-15-15s-4-15-10-15c-5 0-9 33-8 75 0 42-1 77-3 79s-19-8-36-23zm17-31c0-16-4-30-10-30-11 0-14 43-3 53 11 12 13 8 13-23z"/>
  <path id="ft" d="m1281 1868c-1-44 2-58 13-58s13 9 9 38c-11 71-22 80-22 20z"/>
  <path id="fu" d="m2976 1864c-3-8-2-36 4-62 5-26 11-64 15-85 5-34 8-37 40-37 39 0 41 6 28 108-5 49-9 55-43 72-33 17-39 17-44 4z"/>
  <path id="fv" d="m2098 1853c-30-12-38-20-38-42 0-14-3-50-6-78l-7-53h36c20 0 39 5 43 11 6 10 16 180 11 178-1 0-19-7-39-16z"/>
  <path d="m2745 1779c-3-9-5-34-3-55l3-39 58-3c36-2 57 1 53 7-3 5-2 11 4 13s6 8 0 18c-8 12-12 12-18 2-6-9-14-6-32 13-12 13-27 22-32 19-4-3-12 5-17 18-8 19-10 20-16 7z"/>
  <path id="fw" d="m2360 1745c0-9-6-15-12-13-7 1-23-3-35-10-15-8-23-9-23-2 0 19-17 10-28-15l-12-25h130v40c0 22-4 40-10 40-5 0-10-7-10-15z"/>
 </g>
 <g transform="translate(-1278.8 -1679.5)" fill="#646364">
  <path id="fx" d="m1280 3685v-65h44c25 0 67 5 95 12 49 11 51 13 51 46 0 31-2 34-22 28-51-14-98-18-98-9 0 5 21 19 48 30l47 21-82 1-83 1z"/>
  <path id="fy" d="m3715 3735c17-8 42-16 58-20 15-3 27-9 27-14 0-13-63-20-78-8-7 5-15 7-19 3-3-3-1-6 5-6 7 0 12-9 12-20 0-25 35-40 91-40h39v120l-82-1c-79 0-81-1-53-14z"/>
  <path id="fz" d="m1708 3693c-14-3-18-15-18-54 0-27 2-49 4-49s25 9 50 20c49 21 62 40 21 32-19-3-25 0-25 13 0 10 8 24 18 31 16 12 15 13-8 13-14-1-33-3-42-6z"/>
  <path id="ga" d="m3190 3511c0-19 51-41 95-41 37 0 45 3 45 19 0 14-10 20-37 25-55 9-103 7-103-3z"/>
  <path id="gb" d="m1280 3452c0-50 1-52 28-51 15 0 21 3 15 6-21 8-15 23 12 33 14 5 25 14 25 19 0 6-7 8-16 4-8-3-25 4-40 17l-24 23z"/>
  <path id="gc" d="m3814 3479c-4-7-21-9-40-6-30 5-34 3-34-17 0-18 8-25 39-34 64-20 71-17 71 28 0 40-19 55-36 29z"/>
  <path id="gd" d="m3195 3450c3-5 13-10 21-10s12 5 9 10c-3 6-13 10-21 10s-12-4-9-10z"/>
  <path id="ge" d="m1987 3373c-4-3-7-21-7-40v-33h54c75 0 86 6 86 46v34h-63c-35 0-67-3-70-7z"/>
  <path id="gf" d="m2701 3181c-1-25 7-43 26-63 23-24 35-28 80-28 51 0 53 1 49 24-5 27-24 66-32 66-3 0-2-4 1-10 10-15-52-12-85 5-15 8-30 20-33 27s-6-3-6-21z"/>
  <path id="gg" d="m2406 3178c-15-17-27-19-67-16-55 6-56 5-64-42l-6-33 73 7c82 7 98 19 98 73 0 38-7 40-34 11z"/>
  <path id="gh" d="m1478 3075c-2-2-30-5-62-6l-57-2 2-38c2-21 0-41-4-45s-7-22-7-40c0-38 33-64 80-64 27 0 35 8 31 33 0 4 10 7 23 7 37 0 56 10 56 30 0 10 6 21 13 23 7 3 5 6-6 6-10 1-29-6-43-15-23-16-26-15-44 1s-20 16-26 1c-8-20-34-21-34-1 0 8-5 15-12 15-19 0 46 59 82 74 18 7 28 16 23 19-6 4-12 4-15 2z"/>
  <path id="gi" d="m3695 3035c22-19 39-40 38-45-2-6 4-10 12-10 11 0 15 12 15 45v45h-52l-53-1z"/>
  <path d="m3620 3001c0-5 12-19 28-30l27-20-35-1c-19-1-29-4-22-7 6-2 12-11 12-18 0-17 23-25 71-25 34 0 39 3 39 23 0 16-15 31-54 55-58 34-66 37-66 23z"/>
  <path id="gj" d="m2533 2742c-1-15-2-69-2-119-1-90-15-128-24-60-4 31-4 31-5-5l-2-38h88c48 0 108-7 135-15 26-8 47-10 47-5 0 6 25 10 55 10 54 0 55 0 55 29 0 39-9 61-25 61-7 0-21 20-32 45-10 25-24 45-31 45s-11-4-8-8c2-4 14-31 25-60 26-64 11-69-16-6-23 53-39 43-24-13 13-46 13-53 3-53s-42 98-42 128c0 12-5 22-11 22-11 0-10-21 6-97 5-27 3-32-9-27-11 4-16 0-16-15 0-14-5-19-15-15-8 4-15 12-15 19 0 15-41 8-52-9-9-13-19 31-17 69 5 55-1 95-12 95-8 0-10-15-5-49 7-54 1-81-20-81-15 0-16 5-14 102 1 63-13 105-17 50z"/>
  <path id="gk" d="m2441 2673c-6-21-11-47-11-58-1-11-8-31-16-45l-15-25 6 25c13 57 17 110 9 110-13 0-52-129-47-151 7-25 65-26 89-1 17 16 17 17-4 20-22 3-23 21-5 72 8 24 15 90 9 90-3 0-10-17-15-37z"/>
  <path id="gl" d="m2320 2693c-23-9-30-24-30-73 0-34 5-50 20-63 28-23 36-16 54 47 19 64 19 69 5 61-6-4-13 2-16 14-6 22-8 23-33 14z"/>
  <path id="gm" d="m2440 2445c6-8 9-19 5-26-11-16 16-89 32-89 9 0 13 17 13 65v65h-31c-26 0-30-2-19-15z"/>
  <path id="gn" d="m2647 2433c-4-3-7-46-7-95 0-79 2-88 19-88 16 0 18 9 20 68 1 37 3 79 5 95 2 20-1 27-14 27-9 0-20-3-23-7z"/>
  <path id="go" d="m2119 2336c-36-25-36-25-41-111-6-89-11-106-28-89-6 6-5 37 4 86l13 77-29-15c-47-24-171-146-157-155 8-5 14-56 18-156 7-174 9-177 104-120 31 19 90 49 132 68 61 28 75 38 75 56 0 19-4 22-28 17-28-6-29-4-25 28l4 33-20-25-21-25v33c0 42-16 34-24-13-4-19-11-35-17-35-5 0-7 10-4 23 3 12 10 42 16 67s13 56 16 70c2 14 12 47 20 73 13 43 13 50-1 72-16 24-16 26 9 35 14 5 25 14 25 20 0 14 0 13-41-14z"/>
  <path d="m3007 2293c-15-14-7-65 40-233 8-31 13-67 11-80-3-20-8-12-23 35-18 57-19 58-23 27-3-26-6-31-17-22-9 8-16 7-27-3-7-8-26-13-41-13-22 1-27-3-27-21s9-25 43-34c23-7 49-18 57-25 9-7 33-21 55-30s59-29 83-46c27-19 52-28 70-26l27 3 2 144c2 104 6 147 15 153s-7 28-59 78c-39 38-84 75-100 84l-29 14 23-111c25-126 28-161 13-137-5 8-10 25-10 36 0 12-6 27-14 33-8 7-18 38-21 69-10 90-16 112-29 112-7 0-16-3-19-7z"/>
  <path id="gp" d="m3670 2221c0-17 4-32 8-35 4-2 6 11 4 30-5 42-12 45-12 5z"/>
  <path id="gq" d="m1346 2201c-28-29-28-29-7-43 11-7 21-20 21-28 1-9 6-5 15 10 8 16 11 38 7 58l-7 33z"/>
  <path id="gr" d="m3709 2128c3-83 5-96 12-68 9 36 1 170-10 170-3 0-4-46-2-102z"/>
  <path id="gs" d="m3750 2162c0-80 10-97 29-46 7 18 17 34 22 34 18 0 8 27-21 55l-30 29z"/>
  <path id="gt" d="m2650 2111c0-61 17-81 71-81 21 0 39 3 39 6s-13 19-29 35-32 42-36 59c-5 21-13 30-26 30-16 0-19-7-19-49z"/>
  <path id="gu" d="m2436 2126c-3-13-19-38-36-56-16-18-30-34-30-36s20-4 45-4c52 0 65 16 65 79 0 34-3 41-19 41-12 0-21-9-25-24z"/>
  <path id="gv" d="m3673 2123c-8-3-13-23-13-49 0-24-4-44-9-44s-9 6-8 13c1 34-5 80-10 70-2-7-11-13-19-13s-14-7-14-15-4-15-10-15c-5 0-9-17-9-37 2-31 3-33 6-10 7 44 23 31 24-20 0-27 2-63 4-82 1-19 0-57-4-85-5-34-3-59 6-76 11-22 13-22 13-5 0 11 5 27 11 35 8 11 9 6 5-23-3-27-1-37 9-37 7 0 16 8 19 18 9 27 10 108 2 120-4 7-4 12 1 12 4 0 9 56 11 125 1 69 1 125 0 124-2 0-9-3-15-6z"/>
  <path id="gw" d="m3580 1922c0-22-5-32-15-32-8 0-15-6-15-14s-6-16-12-18c-8-3-15-33-18-76-5-69-4-72 17-72 23 0 26 5 43 92 13 64 16 136 6 145-3 4-6-8-6-25z"/>
  <path id="gx" d="m3356 1893c-3-21-6-53-6-71 0-32 1-33 38-30l37 3 3 68 3 67h-34c-32 0-35-3-41-37z"/>
  <path id="gy" d="m3496 1875c-3-9-5-51-5-93l2-77 8 89c9 89 7 112-5 81z"/>
  <path id="gz" d="m1485 1843c3-16 2-22-1-16-4 10-9 9-21-3-11-11-14-27-10-55 6-42-8-53-23-16l-9 22v-22c-2-46 17-73 49-73 16 0 30 5 30 10 0 6 9 10 20 10 23 0 24 12 11 73-6 23-12 54-16 70-3 15-12 27-20 27-11 0-14-7-10-27z"/>
  <path id="ha" d="m1650 1751c-5-11-10-31-10-45 0-25 3-26 55-26h55v33c0 42-15 57-57 57-22 0-36-6-43-19z"/>
 </g>
 <g id="hb" transform="translate(-1278.8 -1679.5)" fill="#6a6969">
  <path id="hc" d="m2755 2801c-8-20 13-31 62-31 23 0 45-5 48-10 9-14 35 14 35 37 0 16-9 18-70 18-51 0-71-4-75-14z"/>
  <path id="hd" d="m2580 2735c0-24 5-47 11-51 9-5 10 4 5 31-5 25-4 40 4 45s7 9-4 13c-13 5-16-2-16-38z"/>
  <path id="he" d="m2797 2651c13-31 30-68 39-83 14-26 14-28-5-28-11 0-23 5-27 11-4 8-9 7-15-2-8-11-12-11-23 4-19 25-26 21-26-16 0-33 1-34 90-63l90-30v31c0 16-7 39-15 49-17 23-20 56-5 56 14 0 12 67-2 77-7 4-38 17-69 29l-56 21z"/>
  <path id="hf" d="m2290 2682c-77-29-82-35-88-91-2-29 0-62 6-74s13-31 15-42c4-22 0-23 112 11 44 13 107 26 140 30s54 9 48 11c-7 3-13 18-13 34s-4 29-10 29c-5 0-10-9-10-19 0-15-9-20-46-23l-46-3 7 30c27 122 12 141-24 30-25-78-44-100-34-40 4 27 2 35-8 33-20-5-22 28-5 64 23 46 24 45-44 20z"/>
  <path d="m2620 2539c-10-17-7-19 36-19 52 0 53 0 6 23-30 15-33 14-42-4z"/>
  <path id="hg" d="m2505 2473c-16-2-41-6-54-9-22-5-22-6-7-23 10-11 16-35 16-64 0-40 3-47 20-47 15 0 20 7 20 26 0 34 24 26 28-9 3-23 8-27 38-27 33 0 34 1 34 38 0 20 4 44 9 51 8 12 12 10 22-12 17-38 34-34 48 13 6 22 17 40 24 41 7 0 3 4-8 8-25 10-150 20-190 14z"/>
  <path id="hh" d="m1445 2133c-11-124-1-241 20-257 10-7 21-33 25-57 5-24 12-55 16-68 5-18 4-23-7-19-8 2-21 24-29 49-19 59-27 24-10-48l11-53h45c49 0 56 13 29 53-29 44-44 290-21 340 6 12 4 17-7 17-13 0-17 14-20 68-3 56-3 51-5-30-3-129-22-131-22-3 0 52-4 95-9 95s-12-39-16-87z"/>
  <path id="hi" d="m1883 2148c-22-27-53-98-43-98 6 0 10-40 9-108-1-114 7-182 22-182 5 0 34 20 65 45 71 58 210 128 338 170 67 22 102 38 104 49 5 21-16 20-102-5-88-25-296-125-314-151-24-33-32-9-31 90 1 55 4 86 8 72 7-27 15-21 25 23 5 23 3 27-14 27-11 0-20 6-21 13-1 6-2 23-2 37-2 27-28 38-44 18z"/>
  <path id="hj" d="m3208 2103c-1-26-2-60-1-75 1-16-2-28-6-28-3 0-4-32-1-71s2-73-2-75-22 9-40 24c-18 16-53 39-78 50-25 12-52 26-60 31-15 9-112 45-207 76-29 9-57 14-63 10-28-17-3-34 90-64 120-38 299-126 357-175 74-64 85-47 84 123-1 71 3 107 11 112 18 12-33 103-60 107-20 3-22-1-24-45z"/>
  <path id="hk" d="m1603 1943c1-10 6-24 11-32 5-7 12-61 17-120 4-58 8-107 8-108 2-8 51-1 51 7 0 6-5 10-10 10-7 0-7 8 1 22l12 22 17-22c10-12 21-22 24-22 13 0 5 78-9 90-8 6-21 35-29 64-9 29-25 65-37 79-24 31-60 37-56 10z"/>
  <path d="m3405 1948c-2-7-6-38-7-68l-3-55-37-3c-29-2-38-8-38-21 0-10-3-39-6-65-6-42-5-46 14-46 12 0 28 10 36 22l16 22v-54h160v30c0 34-7 37-27 13-13-16-14-5-8 85 3 57 8 109 12 117 3 9-1 15-11 15-9 0-16 5-16 10 0 15-80 12-85-2z"/>
  <path id="hl" d="m1538 1883c5-59 10-63 11-10 1 26-3 47-7 47s-6-17-4-37z"/>
  <path d="m3031 1783c5-38 8-76 8-85 1-16 13-18 113-18h112l-35 36c-36 39-174 134-193 134-9 0-10-18-5-67z"/>
  <path id="hm" d="m3630 1819c0-2-9-29-20-59-27-74-26-80 15-80 28 0 36 4 40 23 6 29 8 48 6 72-1 17-3 18-11 5-6-8-15-33-21-55-16-56-23-25-9 36 7 27 9 53 6 56-3 4-6 4-6 2z"/>
  <path id="hn" d="m1600 1718c0-15 5-30 10-33 13-8 13 25 0 45-8 12-10 9-10-12z"/>
 </g>
 <g transform="translate(-1278.8 -1679.5)" fill="#6f6d6f">
  <path id="ho" d="m3376 3689c12-13 24-32 27-42 6-15 3-17-16-12-17 5-13-2 17-30 22-19 53-42 68-49 27-14 28-14 28 15 0 16-10 49-22 73-18 34-30 45-53 49-16 3-39 9-50 13-19 7-19 7 1-17z"/>
  <path id="hp" d="m1805 3655c-44-19-81-35-83-35s0 9 3 20c5 16 2 20-15 20-44 0-60-18-60-65 0-51 4-54 36-24 13 12 67 43 121 70 115 55 113 64-2 14z"/>
  <path id="hq" d="m2452 3679c-18-5-35-16-39-25-14-37 58-62 109-36 17 8 59 17 94 20 53 4 64 8 64 22 0 13-10 20-37 23-61 8-155 6-191-4z"/>
  <path d="m2060 3557c0-14 6-27 13-30 30-11-7-19-50-11-26 5-72 8-100 6-45-3-53-7-53-24 0-14 5-18 18-14 9 2 28 8 41 11 18 5 22 4 16-6-8-12 28-11 235 11 59 6 62 7 33 15-18 4-33 13-33 20s12 10 33 8c28-2 26-1-13 12-25 9-66 18-92 21-46 6-48 5-48-19z"/>
  <path id="hr" d="m2580 3530c0-35 13-38 54-11 28 18 28 19 8 30-11 6-30 11-41 11-17 0-21-6-21-30z"/>
  <path d="m3010 3526c0-15 24-25 82-36 28-5 35-3 28 5-6 7-7 14-4 18 3 3-14 3-38 0-40-4-42-3-24 11 19 15 18 16-12 16-21 0-32-5-32-14z"/>
  <path d="m1915 3449c-17-4-48-10-70-15l-40-7 30-7c28-7 27-8-12-9-24 0-43-5-43-10 0-11 74-21 184-23l91-1-65-7c-36-4-84-11-108-15-42-8-43-9-40-44 3-34 5-36 43-39 21-2 57 2 80 8 22 6 92 13 155 14 63 2 126 8 139 13 21 9 22 11 7 25-12 12-13 18-3 21 6 3-12 6-40 6-39 1-53 5-53 15 0 8 6 16 13 19 6 2-6 8-28 11-72 13-71 20 5 26 41 3 68 9 60 12-22 10-270 15-305 7zm165-109c-20-13-73-13-65 0 3 6 23 10 43 10 28 0 33-3 22-10z"/>
  <path id="hs" d="m3027 3452c-76-4-64-22 15-22 83 0 66-12-24-17-40-2-74-6-76-8-3-3 0-11 7-19 13-15-4-26-40-26-10 0-19-4-19-10 0-19-2-25-11-36-6-7 25-16 102-28 107-17 159-16 159 4 0 6 11 10 25 10 22 0 25 4 25 35 0 27-4 35-18 35-30 0-33 12-7 26 23 12 64 9 75-6 6-8 148-30 238-37l62-5v33c0 30-5 37-42 57-40 20-108 31-108 16 0-4 8-13 18-21 15-13 12-14-30-9-111 13-144 19-153 27-10 7-70 8-198 1z"/>
  <path id="ht" d="m2398 3149c-4-12-38-20-91-23-25-1-47-29-33-43 3-3 37-8 76-11l70-5v47c0 42-13 62-22 35z"/>
  <path id="hu" d="m1340 3056c0-25-4-48-10-51-5-3-10-21-10-39 0-36 16-46 70-46 22 1 23 2 7 11-15 9-16 13-6 26 10 12 10 16 0 23-10 6-10 9-1 15 6 4 9 17 6 30-5 19-1 25 22 34l27 10h-30c-49-2-55 0-55 16 0 8-4 15-10 15-5 0-10-20-10-44z"/>
  <path id="hv" d="m3713 3052c9-10 19-37 21-60 4-39 2-42-17-36-16 5-19 3-13-11 5-15 3-16-16-10-28 10-115 11-125 2-4-4 10-24 30-45 21-21 34-41 31-45-15-15 20-37 60-37 23 0 47-5 54-12 9-9 12-4 12 23 0 19-5 40-12 47-9 9-5 12 19 12 30 0 31 1 38 60 6 48 4 63-9 75-9 9-16 25-16 36 0 15-7 19-37 19-34 0-35-1-20-18z"/>
  <path id="hw" d="m2836 2665c-8-21 1-36 18-29 7 3 16-1 19-9 4-10-2-17-16-21-17-4-19-8-9-18 14-14 16-32 2-23-11 7 1-30 22-68 7-12 12-26 13-32 0-22 145-49 145-27 0 4 20 6 45 4l45-4v43c0 24 3 53 6 65 5 18-9 26-123 72-70 28-135 54-144 57-10 4-19 0-23-10z"/>
  <path id="hx" d="m2125 2618c-133-55-145-62-127-80 7-7 12-30 12-51v-39l40 4c39 3 40 3 40-29 0-18 4-33 10-33 5 0 43 17 85 37 58 29 74 42 73 58 0 11 0 25 2 30 5 20 0 35-12 33-15-3-18 32-5 50 5 6 6 12 1 12s-4 4 3 8c15 9 21 44 8 47-5 2-64-19-130-47z"/>
  <path id="hy" d="m2726 2599c9-29 14-62 11-75-3-16 2-24 16-28 28-7 39 2 27 22-6 9-19 41-28 71-24 73-47 81-26 10z"/>
  <path id="hz" d="m2373 2568c-6-7-13-25-17-40-5-23-3-28 13-28 13 0 20 9 24 33 6 36-5 54-20 35z"/>
  <path d="m2576 2438c-3-13-6-38-6-57 0-30 2-33 25-29 23 5 26 1 31-33 5-29 11-39 25-39 17 0 19 8 19 68 0 80-17 112-59 112-21 0-30-6-35-22z"/>
  <path id="ia" d="m2540 2381c0-17 5-31 10-31 6 0 10 11 10 24 0 14-4 28-10 31-6 4-10-7-10-24z"/>
  <path id="ib" d="m3550 2342c0-16 4-42 9-58s12-48 15-71c5-34 3-43-9-43-8 0-15-7-15-15s-8-15-19-15c-15 0-19-10-24-66-2-36-10-71-16-77s-11-31-11-54c0-41 1-43 20-33 11 6 20 17 20 24 0 8 7 16 15 20 12 4 15-6 15-64 0-40 4-70 10-70s10-10 11-22c1-16 4-12 10 12 8 33 10 83 7 155-3 60 2 87 14 83 7-3 15-15 18-29 8-31 20 59 20 149 0 40 4 61 10 57 6-3 10-27 10-53 0-73 12-152 22-152s2 219-7 229c-3 2 0 10 6 17 11 13-17 37-93 83l-38 23z"/>
  <path id="ic" d="m1485 2313-40-29 4-70 3-69 32 100 7-105c8-135 7-132 28-85l18 40 7-71c4-38 4-77 1-86-4-10 1-17 15-21 15-4 21-1 19 11-3 29 1 42 11 42 6 0 10-6 10-13s11-29 25-48 33-56 41-84c17-56 44-95 68-95 9 0 22-11 28-25 7-16 19-25 35-25 29 0 29 1-1 204-19 137-21 164-9 185 12 24 11 26-7 29-33 6-59-16-65-56-18-109-76-111-91-3-6 45-9 51-30 51-19 0-24 5-24 25 0 16-6 25-15 25-17 0-22 65-5 75 16 10 13 95-4 95-8 0-16 7-18 16-2 13-10 10-43-13z"/>
  <path id="id" d="m3346 2060c10-10 3-92-22-243-5-31-3-36 10-31 23 9 20-18-4-49-34-43-27-57 30-57h50l2 38c1 20 2 46 3 57s4 26 9 33c4 7 6 22 5 35-1 12 1 48 6 80 6 46 4 61-8 75-8 9-17 28-19 42-2 20-9 26-38 28-26 3-32 0-24-8zm43-234c-9-8-10-5-5 14 3 14 7 34 7 45 1 11 4 5 6-14 3-19-1-39-8-45z"/>
  <path id="ie" d="m2019 1809c-73-47-141-108-133-121 3-4 47-8 98-8h94l5 33c16 88 18 125 9 131-5 3-38-13-73-35z"/>
  <path id="if" d="m1505 1816c-5-11-2-43 6-75l15-56 47-3c33-2 47 1 47 10 0 24-35 98-47 98-6 0-14 8-17 18-3 9-3-4 0-30 7-60-11-64-26-5-16 62-17 64-25 43z"/>
  <path d="m3616 1805c-9-9-16-26-16-38-1-12-7-33-15-47-14-25-14-25-15 15-1 22-4 34-7 28-2-7-11-13-19-13-9 0-14-11-14-35 0-35 1-35 43-35h42l13 66c7 37 11 69 8 71-2 2-11-3-20-12z"/>
  <path d="m2350 1715c0-14-11-19-37-16-7 1-13-3-13-9 0-5 16-10 35-10 31 0 35 3 35 25 0 14-4 25-10 25-5 0-10-7-10-15z"/>
 </g>
 <g id="ig" transform="translate(-1278.8 -1679.5)" fill="#767676">
  <path id="ih" d="m1503 3728c-53-20-71-48-33-48 11 0 20-4 20-10 0-22 131-2 156 23 20 20 22 2 4-33-11-22-20-59-20-85v-45l25 16c15 9 25 26 25 39s11 30 26 40c18 11 24 23 21 36-3 10-2 17 3 14 4-3 19 4 31 15l24 19-22-6c-13-3-23-9-23-13 0-12-48 1-61 16-6 8-8 14-4 14s2 7-5 15c-18 21-103 17-167-7z"/>
  <path id="ii" d="m2317 3708c39-38 44-41 60-27 37 31 76 39 187 39s175-13 191-40c10-16 45-12 39 4-4 9 6 20 25 31 17 8 31 20 31 25 0 6-108 10-287 10h-288z"/>
  <path id="ij" d="m3488 3743c-47-12 6-73 63-73 35 0 99 22 99 35 0 28-105 53-162 38z"/>
  <path id="ik" d="m3412 3672c13-13 23-27 22-30-2-14 29-52 42-52 17 0 20 85 3 96-6 3-29 7-50 8l-39 2z"/>
  <path id="il" d="m2643 3673c-15-6-18-53-3-53 6 0 10-7 10-15 0-22 27-18 44 7 34 48 3 83-51 61z"/>
  <path id="im" d="m1550 3509c-14-4-37-11-52-14-32-6-58-49-58-95 0-41 23-39 74 8 22 20 55 48 71 60l30 24-38-22c-61-36-64-6-3 31 32 19 20 24-24 8z"/>
  <path d="m1796 3504c-79-19-172-65-236-116l-53-42 34-9c19-5 62-6 96-2 53 5 63 10 63 25 0 11 8 24 18 29 21 13 9 13-40 2-23-5-36-5-32 0 10 17 119 66 174 79 65 14 83 22 82 35-2 15-42 15-106-1z"/>
  <path id="in" d="m3188 3508c7-7 40-18 75-25 70-14 153-46 212-81l40-23-50 5-50 6 30-16c16-9 35-23 43-30 15-16 118-19 126-5 9 14-88 87-159 121-72 34-171 60-234 60-35 0-42-3-33-12z"/>
  <path d="m3725 3480c3-6-3-10-14-10-37 0-23-35 33-89 37-34 63-51 80-51 25 0 26 3 26 54 0 54 0 55-37 67-21 6-42 15-48 19-19 13-46 20-40 10z"/>
  <path id="io" d="m1910 3434c-23-13-21-14 35-13 33 1 51 3 40 6s-24 9-29 14c-12 11-15 11-46-7z"/>
  <path id="ip" d="m3130 3424c-14-8-31-12-37-9-8 2-13-4-13-16 0-19 6-20 112-17 78 2 113 7 116 16 2 7-5 12-18 12-12 0-19 4-16 9 6 9-52 21-94 20-14-1-36-7-50-15z"/>
  <path id="iq" d="m1860 3403c0-10 24-13 85-13 47 0 85 4 85 9s-38 11-85 13c-63 2-85 0-85-9z"/>
  <path id="ir" d="m2985 3412c-11-2-24-7-28-12-10-9 53-40 83-40 17 0 21 5 18 27-3 27-23 34-73 25z"/>
  <path id="is" d="m1968 3353c-34-3-48-8-48-19 0-8 5-12 10-9 6 4 43 12 83 20 70 12 53 15-45 8z"/>
  <path id="it" d="m3115 3345c45-11 47-13 17-14-19-1-31-5-27-11 7-11-5-13-42-10-34 2-31-37 3-50 33-13 104-13 104 0 0 6 25 10 55 10h55v35c0 46-24 55-133 54l-82-1z"/>
  <path id="iu" d="m1987 3320c-32-4-60-10-64-13-11-12 7-37 27-37 11 0 20-4 20-10 0-13 58-13 96 0 16 5 48 14 72 20 29 7 42 16 42 28 0 15-10 18-67 19-38 0-94-3-126-7z"/>
  <path id="iv" d="m2862 3273c25-27 48-57 50-68 3-17 12-20 61-23l57-3v34c0 43-15 57-60 57-26 0-43 7-59 24-19 20-28 23-47 16-15-6-24-6-24 0s-5 10-12 10 9-21 34-47z"/>
  <path id="iw" d="m2123 3263c-8-2-13-22-13-44v-39h55c52 0 55 1 55 24 0 14 5 28 10 31 6 3 10 13 10 21 0 10-13 14-52 13-29 0-59-3-65-6z"/>
  <path id="ix" d="m3770 3085c0-8-9-15-19-15-13 0-18-6-16-17 2-10 4-26 4-35 1-9 8-24 17-32 14-15 14-16-1-16-9 0-13-4-10-10 11-18 43-10 49 13 8 29 8 91 0 111s-24 21-24 1z"/>
  <path id="iy" d="m1307 2993c-4-3-7-21-7-40 0-23 5-33 15-33 8 0 15-4 15-10 0-5 18-10 40-10 41 0 57 22 24 34-10 4-14 12-10 22 5 12 1 14-17 8-22-7-22-6-3 15l19 21h-35c-19 0-38-3-41-7z"/>
  <path d="m2202 2649c-13-5-38-25-57-45-28-30-40-35-72-34-58 3-63 1-63-20 0-11 6-20 13-20 8-1 6-5-4-13-12-9-18-38-23-105-4-50-5-92-3-92 3 0 44 23 91 51 59 35 86 57 86 70 0 25-17 24-30-2-21-38-20-14 1 42 29 76 59 141 77 162 17 19 16 19-16 6zm-123-98c15-10 4-38-25-62-15-13-16-12-9 11 5 14 9 33 9 43 0 19 5 21 25 8z"/>
  <path id="iz" d="m2937 2613c3-21 11-45 18-53 19-24 46-100 35-100-5 0-14 9-20 20s-15 18-21 15c-5-4-7-11-4-16 8-12-11-12-35 1-13 7-19 6-23-5-4-10 19-27 76-58 46-24 111-62 145-85l62-41v28c0 16-11 54-25 85s-25 65-25 76-4 20-10 20c-5 0-16 16-24 35s-20 35-25 35c-6 0-2-15 9-32 21-35 26-68 10-68-5 0-17 17-25 37-9 20-27 51-40 69-14 18-21 34-17 37 4 2 2 2-5 1-7-2-15 1-18 6-3 6-15 14-25 20-17 9-18 7-13-27z"/>
  <path id="ja" d="m2236 2518c-9-18-24-43-32-55-20-28-6-30 38-7 21 11 27 19 20 26s-8 17-2 28c5 9 5 22 1 29-6 9-13 2-25-21z"/>
  <path id="jb" d="m1714 2441c-45-21-113-57-152-80-64-37-70-44-63-64 5-12 14-21 20-20 14 4 15-24 1-32-5-3-10-28-10-55s-4-52-10-55c-13-8-13-45 0-45 6 0 10 5 10 10 0 6 6 10 14 10 16 0 32-152 18-176-9-16 2-122 19-189 9-34 12-37 21-21 6 10 7 36 3 60-12 74-16 232-6 257 10 24 10 24 12-6 4-62 7-77 16-84 5-3 12-14 16-24 7-19 22-22 32-7 3 6 15 10 26 10 15 0 19-7 19-33 0-18 6-56 13-84 11-40 11-50 1-46-16 6-26 29-31 66-1 16-8 36-14 45-8 13-9 5-5-33 4-27 15-62 26-77s23-41 26-58c6-27 10-30 45-30 32 0 39 3 39 20 0 27-31 90-42 84-9-6-21 22-35 82-7 32-6 46 6 64 14 21 14 23 1 15-12-7-13-6-4 6 15 20 6 109-12 109-16 0-19 61-5 106 5 16 12 50 16 77 5 41 9 47 29 47 21 0 25 8 40 83 18 92 19 107 9 107-5 0-44-18-89-39z"/>
  <path id="jc" d="m3330 2442c0-21 5-64 11-95 10-49 15-57 34-57 13 0 25-7 29-15 3-9 19-15 41-15h35v49c0 104-4 109-117 157l-33 14z"/>
  <path d="m2488 2423c-23-26-30-78-42-293-3-59-8-66-52-74-53-10-83-27-77-42 5-14 48-12 127 6 58 13 179 12 258-4 62-12 69-11 84 5 15 17 13 19-40 34-31 9-57 19-57 23-1 4-3 43-4 87-3 78-37 241-54 258-14 14-48-14-59-47-8-26-10-28-11-8-1 28-29 72-46 72-6 0-19-8-27-17z"/>
  <path d="m3514 2329c4-35 10-76 13-91 5-24 2-27-28-30l-34-3 3-72c3-67 1-73-17-73-10 0-22-6-24-12-3-7-6-2-6 12-1 35-19 50-59 50-30 0-33-2-27-22 4-13 16-32 26-44 11-11 19-29 19-40s5-25 12-32c14-14 12-112-4-195-6-32-8-61-4-64 12-12 29 15 31 49 2 18 5 40 8 48 4 8 7 37 9 64 2 30 8 51 17 54 10 3 12-5 6-37-4-27-3-41 4-41 6 0 11 6 11 14s11 24 24 37 22 29 19 36-1 19 5 26c13 15 34 126 26 138-3 5 4 9 15 9s21 8 24 18c3 14 6 12 17-10 16-33 30-36 30-7 0 20-18 109-42 205-9 39-18 47-72 72-5 3-6-22-2-59z"/>
  <path d="m1836 2062c-13-27-9-72 20-219 13-67 24-18 24 107 0 104-3 129-15 134-10 3-20-4-29-22z"/>
  <path id="jd" d="m3566 2079c-4-9-6-41-4-70 3-53 4-53 16-25 9 20 10 41 4 70s-11 36-16 25z"/>
  <path id="je" d="m3257 2073c-10-9-8-236 2-252 9-14 10-13 35 129 13 75 13 87 0 107-15 24-26 28-37 16z"/>
  <path id="jf" d="m3575 1870c-4-6-10-8-14-6-4 3-8-12-9-32-2-20-12-56-22-80-26-58-25-72 4-72 22 0 25 6 36 68 20 113 22 149 5 122z"/>
 </g>
 <g id="jg" transform="translate(-1278.8 -1679.5)" fill="#858686">
  <path id="jh" d="m1645 3730c-11-4-30-10-42-15-24-8-31-29-13-40 5-3 7-12 4-19-4-10 2-12 20-9 16 3 26 1 26-6 0-6-4-11-9-11s-11-10-13-22c-4-26-85-87-204-153-82-45-104-53-104-35 0 5 25 21 55 35 30 13 55 27 55 29 0 8-77-21-111-41-26-16-29-22-29-70 0-52 0-53 30-53 20 0 38 9 52 25 25 28 38 32 38 10 0-32 46-15 95 36 28 28 40 46 28 40s-25-16-28-21c-13-21-25-9-13 13 7 12 11 25 10 30-2 7 13 10 22 5 2-2 14 6 26 17s43 31 68 45c35 19 48 32 52 55 9 39 38 95 50 95 18 0 10 15-12 25-13 6-23 15-23 22 0 17-8 21-30 13z"/>
  <path d="m3457 3733c-4-3-2-12 5-20 9-11 7-15-10-20-25-6-27-14-10-31 7-7 14-27 15-45 4-53 5-55 32-69 14-7 39-24 54-38 16-14 34-25 40-25s11-10 12-22c1-19-1-21-14-11-9 7 6-11 34-40 31-33 58-52 72-52 13 0 23 5 23 10 0 6 9 10 20 10s20 5 20 10c0 6 8 10 17 10 26 0-43 67-76 73-44 9-172 108-187 145-13 32-13 32 12 26 19-5 23-3 19 9-5 12 1 13 37 6 24-4 76-8 116-9 105 0 95 23-27 66-28 9-43 9-72-1-32-12-40-11-68 6-33 20-53 24-64 12z"/>
  <path id="ji" d="m1451 3708c-13-4-19-13-15-23 4-11 0-15-16-15-11 0-18-4-15-10 3-5 37-10 75-10 53 0 69 4 74 16 10 27 7 32-16 26-13-3-19-1-15 5 9 14-44 22-72 11z"/>
  <path id="jj" d="m2633 3672c-13-2-24-13-28-29-3-14-5-26-3-27 2 0 18-9 36-19 32-18 34-18 47 0 7 10 9 20 4 21-5 2-9 13-9 23 0 14-4 18-12 13-10-6-10-5-1 7 14 17 10 18-34 11z"/>
  <path id="jk" d="m3030 3412c-6-2-8-8-4-13 3-5-2-9-11-9-31 0-8-25 28-31 43-7 47-4 47 32 0 22-4 27-25 25-14 0-29-3-35-4z"/>
  <path id="jl" d="m1506 3337c-33-42-32-47 1-47 47 0 113 32 113 55 0 17-8 20-44 23-40 2-47-1-70-31z"/>
  <path id="jm" d="m3558 3363c-67-10 1-83 77-83h38l-35 42c-38 46-40 47-80 41z"/>
  <path d="m1810 3296v-44h110c102 1 110 2 110 20 0 12-4 16-11 12-6-3-15-1-19 7-5 8-30 13-63 13-56 1-85 10-43 14 13 1 34 6 47 11 19 8 6 10-53 10l-78 1z"/>
  <path id="jn" d="m3216 3332c-3-6 4-13 17-18 16-6 6-9-41-11-43-3-60-8-56-15 5-7 0-9-14-6-15 4-22 2-22-7 0-24 19-27 126-20l105 7-3 37c-3 36-3 36-55 39-28 2-54-1-57-6z"/>
  <path id="jo" d="m2474 3262c-16-16-34-38-41-49-11-19-9-21 25-27 20-3 70-6 110-6 67 0 75-2 98-27 13-16 32-45 42-65 13-30 22-38 44-38 15 0 30-4 33-10 11-17 35-11 35 9 0 11 9 21 21 24 35 9 20 41-21 45-42 4-56 16-127 105l-54 67h-68c-61 0-71-3-97-28z"/>
  <path id="jp" d="m3764 3005c-3-8-3-19 1-25 3-5-1-10-11-10-13 0-14-3-4-15s10-15 0-15-10-3-1-14c10-12 7-15-16-18l-28-3 44-32c25-19 56-33 73-33h28v68c0 64-2 70-30 90-34 26-48 28-56 7z"/>
  <path id="jq" d="m1287 2983c-4-3-7-38-7-76v-70l72 8c40 3 80 11 89 16 22 11 32 49 13 49-8 0-15-1-16-2-2-2-14 5-27 14s-30 14-37 11c-8-3-14 0-14 6s-8 11-17 11c-17 1-17 1 0 14 9 7 17 16 17 20 0 8-65 8-73-1z"/>
  <path id="jr" d="m3079 2572-27-3 22-39c14-27 28-40 42-40 12 0 27-7 34-15s25-15 40-15c27 0 28-3 35-61 6-50 11-62 30-69s23-18 29-76c9-86 37-154 65-154 11 0 23 4 26 10 10 16 55 12 55-5 0-8-9-15-20-15-18 0-20-7-20-55 0-42 5-61 20-77l20-22 1 40c0 33 2 36 9 17 14-34 34-29 27 7-5 21-3 28 7 24 7-3 19 2 26 11 7 8 9 15 6 15-4 0-2 9 4 20s7 20 1 20c-11 0-20 80-9 86 4 3 9-12 9-33 1-23 3-29 6-16 3 16 12 23 26 23 24 0 24 8 12 120-11 105-13 108-66 136-28 14-53 23-56 20-3-2 1-29 7-59 7-30 10-61 7-68-5-14-7-10-22 36-2 8-11 15-19 15-10 0-13-6-10-15 4-8 1-15-5-15s-11 6-11 14-7 16-15 20c-8 3-15 15-15 27s-5 40-12 62c-10 33-19 43-57 59-122 53-178 73-202 70z"/>
  <path id="js" d="m1844 2500c-46-20-50-28-60-100-4-32-11-50-20-50-8 0-14-7-14-15s-5-15-11-15-8 7-5 16c4 11 1 14-12 12s-20-21-30-78c-19-113-31-237-25-260 7-27 21-25 26 3 2 12 5 1 6-25 2-71 33-59 44 17 4 22 15 46 26 55 29 23 71 115 71 157 0 74 11 113 32 113 24 0 41 45 34 90-4 19-6 50-6 68 1 37-1 37-56 12z"/>
  <path d="m1997 2493c-4-3-7-22-7-40 0-19-7-48-16-64-8-17-14-46-12-65l3-36 40 37c22 20 34 34 28 30-16-8-6 50 14 81 12 19 12 22-1 27-9 4-13 13-10 22 4 10 0 15-13 15-11 0-23-3-26-7z"/>
  <path id="jt" d="m1657 2361c-4-29-6-56-2-59 11-12 16 8 13 59l-3 54z"/>
  <path id="ju" d="m1584 2371c-38-27-40-30-35-72l5-44 8 44c12 67 18 73 14 14-3-49-1-53 19-53 27 0 33 13 41 86 4 33 3 54-3 54s-28-13-49-29z"/>
  <path id="jv" d="m3560 2342c5-15 11-36 13-47 3-11 5-1 6 21 1 28-4 44-13 47-12 5-13 0-6-21z"/>
  <path id="jw" d="m2559 2140c-1-16-2-34-3-40-1-5 4-10 9-10 6 1 9 17 7 36-2 23 1 34 7 29 6-3 11-1 11 4 0 6-7 11-15 11-10 0-16-11-16-30z"/>
  <path id="jx" d="m1630 2070c0-11 5-20 10-20 6 0 10 9 10 20s-4 20-10 20c-5 0-10-9-10-20z"/>
 </g>
 <g id="jy" transform="translate(-1278.8 -1679.5)" fill="#8b8c8b">
  <path id="jz" d="m3476 3572c-13-22 58-62 93-53l25 7-28 22c-16 12-34 22-42 22-7 0-19 3-27 6s-18 1-21-4z"/>
  <path id="ka" d="m1568 3535c-16-13-28-31-28-39 0-11 10-9 44 10 30 17 43 30 39 40-7 20-24 17-55-11z"/>
  <path id="kb" d="m1496 3488c5-8 2-9-10-5-10 4-15 3-11-3 3-6 0-10-7-10-18-1-53-28-46-36 9-8 98 33 98 44 0 6-7 13-16 16-10 4-13 2-8-6z"/>
  <path id="kc" d="m1375 3430c-3-5-4-10-1-10s-14-18-36-40l-42-40h34c19 0 51 5 72 10 29 8 35 14 31 30-3 12-14 20-25 20-14 0-18 5-15 15 7 17-9 30-18 15z"/>
  <path id="kd" d="m3720 3420c0-5-9-10-20-10s-20-5-20-11-7-8-16-5c-11 4-14 1-12-11 3-19 39-29 137-40 62-7 62-1 5 50-40 36-74 48-74 27z"/>
  <path id="ke" d="m1838 3410c-18-5-24-14-26-42-3-40 3-37-189-98-93-29-103-35-103-56 0-15 6-24 15-24s18-7 21-15c9-23 48-17 194 29 74 24 137 39 138 35 4-10 56-12 101-3 21 4 31 12 31 25 0 22-68 35-136 25-35-4-44-3-44 9 0 8 7 15 15 15s15 4 15 10c0 5 18 13 40 16 37 6 40 9 40 39 0 32-2 33-44 37-25 1-55 1-68-2z"/>
  <path id="kf" d="m2030 3379c0-31 1-31 36-26 20 3 56 14 81 23 37 15 42 19 27 25-11 4-47 8-81 8l-63 1z"/>
  <path id="kg" d="m3158 3283c-29-3-38-9-38-22 0-21 26-31 88-31 40 0 42 1 42 30 0 32 0 32-92 23z"/>
  <path id="kh" d="m3656 3275c-3-9-6-31-6-50 0-30 3-33 41-39 23-4 44-5 46-2 7 7-31 68-55 90-18 15-20 15-26 1z"/>
  <path id="ki" d="m3430 3236c0-39 10-48 66-64s84-15 84 3c0 8 7 15 15 15 9 0 15 9 15 24 0 18-9 27-43 40-23 9-64 16-90 16-47 0-47 0-47-34z"/>
  <path id="kj" d="m2700 3135c0-8-7-15-15-15-10 0-15-10-15-29 0-29 18-41 65-41 16 0 20 6 20 25-1 14-7 31-13 37-7 7-12 18-12 25s-7 13-15 13-15-7-15-15z"/>
  <path d="m1300 3120c-19-14-21-24-18-102l3-87 46 29c41 25 46 32 44 62-2 18-6 42-11 52-5 15 0 25 22 42l29 24-47-2c-26-1-57-9-68-18z"/>
  <path d="m3765 3028c1-37 6-46 35-65 18-13 37-23 41-23 14 0 11 104-3 118-7 7-26 12-43 12-30 0-31-1-30-42z"/>
  <path id="kk" d="m1960 2549c-41-17-80-36-86-42-26-27-59-169-67-287l-5-65 12 50c8 33 18 51 29 53 12 3 17-3 17-22 0-14 3-26 6-26s31 23 61 50c30 28 59 50 64 50 6 0 8 4 5 9s3 30 15 55c11 25 17 51 14 57-4 6 3 33 15 61 20 47 21 53 6 63-9 7-13 15-9 18 10 10 5 9-77-24zm-87-160c-6-23-23-36-23-17 0 30 13 59 20 48 4-7 5-21 3-31z"/>
  <path id="kl" d="m3107 2568c14-24 13-48-2-48-8 0-15 5-15 10 0 6-5 10-10 10-7 0-7-7 0-21 6-11 10-33 8-48-1-15 10-57 25-92 22-51 42-77 97-127l70-63v50c0 66 15 65 29-1 10-44 9-53-3-60-13-7-11-16 12-55 15-25 30-44 33-42 17 11 39-27 39-66 0-30 6-47 21-61l21-19-7 63c-5 43-4 62 4 62 6 0 11-7 11-15s5-15 10-15c16 0 12 76-16 252l-27 167-54 22c-29 12-56 19-59 16s-1-22 6-44c6-21 22-94 36-162 21-106 23-127 11-138-11-11-14-11-14-1 0 34-26 192-45 276-19 79-25 93-44 98-26 7-47-3-39-17 4-5 2-9-3-9-12 0-63 55-57 62 3 2-6 10-21 16-20 10-24 10-17 0zm170-169c7-59-12-40-21 21-5 33-4 42 4 34 6-6 14-31 17-55zm107-8c4-27 11-51 17-53 11-4 31-78 20-78-4 0-4-25-1-55s2-55-2-55-8 1-8 3c0 1-11 67-25 145-29 163-28 155-16 148 4-3 11-28 15-55z"/>
  <path id="km" d="m1791 2473c-11-10-23-34-26-53-8-53-26-152-31-180-11-55-25-174-22-188 6-30 69 157 93 275 14 65 28 128 31 141 8 27-14 30-45 5z"/>
  <path id="kn" d="m1738 2448c-9-8-22-52-32-113-9-55-21-116-27-136-14-55-12-169 4-169 8 0 13 24 15 78 2 42 9 109 17 147 7 39 11 74 8 78s0 14 6 21c9 11 33 106 27 106-1 0-9-6-18-12z"/>
  <path d="m1682 2423c-20-19-36-94-47-228-3-38-8-87-11-107-5-30-3-38 10-38 9 0 16 6 16 13 0 39 31 262 43 315 9 34 14 62 12 62-1 0-12-8-23-17z"/>
  <path id="ko" d="m3440 2367c19-80 48-110 34-36-4 24-8 54-8 66-1 12-10 26-22 32l-21 9z"/>
  <path id="kp" d="m1553 2349c-14-18-20-42-28-102-9-78 18-53 33 29 13 75 12 94-5 73z"/>
  <path id="kq" d="m1592 2306c-20-33-26-71-23-128 3-72 46 4 57 102 8 69-4 78-34 26z"/>
  <path id="kr" d="m3500 2335c1-28 29-138 37-146 6-6 14-5 21 3 17 21-2 97-32 126-14 15-26 22-26 17z"/>
  <path id="ks" d="m3576 2273c18-83 29-97 19-23-7 49-20 90-29 90-2 0 3-30 10-67z"/>
  <path id="kt" d="m2467 1976c-32-7-59-15-61-17s-13-52-25-111c-11-58-25-118-31-133-5-14-10-28-10-31 0-2 118-3 263-2 144 1 245 3 224 5-27 3-41 10-47 26-10 23-37 144-47 209-5 33-10 39-42 48-61 17-163 20-224 6z"/>
 </g>
 <g transform="translate(-1278.8 -1679.5)" fill="#9c9c9c">
  <path id="ku" d="m2724 3735c25-19 50-19 66 0 11 13 6 15-36 15-45-1-48-2-30-15z"/>
  <path id="kv" d="m2040 3564c14-15 30-34 37-41 6-7 33-13 59-13h47l-24 19c-13 10-35 22-48 26-18 5-20 9-10 16 10 6 7 9-11 9-14 0-36 3-50 7l-25 6z"/>
  <path d="m3520 3535c0-8 5-15 10-15 21 0 26-2 45-19 37-32 76-52 95-49 26 4 16 16-52 61-60 39-98 47-98 22z"/>
  <path id="kw" d="m1537 3518c2-5-1-9-6-9-6-1-15-2-20-3-5 0-13-5-18-10s-2-6 6-1c10 6 12 4 7-4-5-7-14-10-20-8-7 3-13-1-13-9 0-23 48-14 80 15 33 30 34 39 3 37-13 0-22-4-19-8z"/>
  <path id="kx" d="m3647 3377c81-83 157-197 151-226-2-11-14-16-35-16h-32l20-22c14-14 19-28 14-42-5-16-1-23 20-31 14-5 28-17 31-25 4-8 12-15 20-15 19 0 21 259 2 278-9 9-9 12 0 12 7 0 12 14 12 35 0 30-4 35-27 41-16 3-49 12-74 20s-54 12-63 8c-12-5-28 4-52 27-18 18-41 34-50 35s20-34 63-79z"/>
  <path d="m1766 3404c-50-7-92-17-94-23s-14-11-28-11c-13 0-48-11-79-24-30-14-55-22-55-18 0 11-71-62-91-95-11-18-18-37-14-43 7-11 67-13 103-4 23 7 30 30 10 36-14 5 175 111 229 129 28 9 38 9 41 0 2-6 15-11 28-11 28 0 31-17 7-37-16-13-16-13 4-4 12 6 38 14 59 17 20 3 47 9 58 14 12 4 46 11 76 15 68 9 76 13 53 31-15 12-16 15-3 23 22 15-197 18-304 5zm154-24c0-5-8-10-17-10-10 0-29-3-43-7-22-6-24-5-11 10 14 18 71 24 71 7z"/>
  <path id="ky" d="m3058 3395c-6-11-15-23-20-26s5-9 24-12c90-18 224-51 233-59 5-4-12-8-39-8-40 0-47-3-42-16s1-15-19-12c-20 4-25 1-25-16 0-15 12-26 40-38 22-9 40-23 40-31 0-16 40-22 208-33l104-7-4 29c-2 23-10 30-40 39-47 13-72 35-40 35 15 0 22 6 22 18 0 14-18 24-70 41-54 17-70 27-70 41 0 11-9 20-22 23-20 4-19 4 5 6 39 2 35 29-5 35-18 3-86 7-152 8-109 3-119 2-128-17z"/>
  <path id="kz" d="m1355 3374c-22-8-48-18-57-21-13-4-18-16-18-44 0-32 4-39 19-39 11 0 33 11 49 25 17 14 35 25 41 25s11 16 11 35-1 35-2 35c-2-1-21-8-43-16z"/>
  <path id="la" d="m3422 3369c2-15 20-35 50-54 26-16 78-49 115-73 49-31 74-42 90-37 16 4 21 10 16 18-4 7-6 19-5 28 4 25-27 48-148 109-19 10-54 21-78 25-42 7-44 6-40-16z"/>
  <path id="lb" d="m2183 3328c-46-10-57-32-23-43 11-3 20-12 20-18 0-8-18-11-57-8-68 4-83-10-83-77v-44l38 4c20 3 44 8 53 12 12 5 18 1 22-13 4-16 13-21 41-21h37l-7 51c-7 50-6 52 33 88 39 37 39 38 22 59-19 24-31 25-96 10zm27-101c0-8-14-14-35-15-34-3-48 11-22 21 24 10 57 7 57-6z"/>
  <path d="m1818 3267c-34-9-38-14-38-44 0-32 1-33 43-33 23 0 63 8 90 17 37 13 47 22 47 39 0 18-4 21-22 16-14-3-19-2-14 6 9 15-53 14-106-1z"/>
  <path id="lc" d="m2950 3256c0-9 6-16 14-16 7 0 19-6 25-14 10-12 7-15-14-18l-26-3 21-22c15-16 32-23 60-23 58 0 70 8 70 46 0 40-17 51-94 60-48 6-56 4-56-10z"/>
  <path d="m2416 3180c-14-26-26-55-26-65 0-17-5-17-105-2-15 3-6-75 10-92 12-12 17-12 39 3 14 9 26 21 26 26s15 6 33 3c20-3 55 3 92 16 33 12 67 21 76 21 10 0 24 6 31 13 7 8 30 17 51 21 36 7 37 8 37 53v46l-46-7c-26-3-53-6-60-6-10 0-14-13-14-40 0-28-4-40-14-40-8 0-18 5-21 10-3 6-15 10-26 10-15 0-19 7-19 34 0 25-5 35-19 39-15 3-25-6-45-43z"/>
  <path id="ld" d="m1298 3103c-24-6-26-83-3-83 8 0 15 5 15 10 0 6 6 10 13 9 6-1 20 1 30 6 13 6 15 10 6 21-8 10-16 11-31 3-10-6-24-8-31-6s3 11 21 21c17 9 32 19 32 21 0 6-27 5-52-2z"/>
  <path id="le" d="m2215 3060c-11-18-183-97-229-105-37-6-38-6-34 19 6 30-19 37-29 9-4-10-17-29-30-42s-23-34-23-47c0-12-3-29-6-38-5-13 2-16 40-16 39 0 46 3 46 19 0 15 15 24 69 40 38 12 76 21 84 21 9 0 19 9 22 20 6 18 12 20 53 15 37-4 52-2 69 14l23 19-24 42c-16 28-26 38-31 30z"/>
  <path id="lf" d="m1884 2515c-16-12-17-16-5-24 8-5 12-18 8-30-8-30 8-17 23 19 16 39 3 57-26 35z"/>
  <path id="lg" d="m3207 2514c-3-3 3-20 14-37 27-45 24-58-6-22-21 26-24 27-25 10 0-11 7-33 15-49 19-35 19-40 0-32-10 3-15-1-15-12-1-15-2-15-15 2-20 27-30 13-17-23 9-26 8-31-5-31-14 0-14-2 1-19 10-10 26-21 37-24 18-5 19-2 14 24-5 22-3 29 7 27 17-4 38-53 38-88 0-18 14-43 40-71 37-41 39-43 40-19 0 37-31 241-41 269-22 56-17-7 5-76 12-36-9-27-21 10-10 28-24 101-25 124 0 27-27 51-41 37z"/>
  <path id="lh" d="m1911 2445c-27-30-29-35-12-35 12 0 26 12 35 32 22 43 15 44-23 3z"/>
  <path id="li" d="m1774 2455c-11-27 2-37 14-11 7 16 8 26 1 26-5 0-12-7-15-15z"/>
  <path id="lj" d="m3338 2434c-2-11 2-41 9-69 7-27 13-63 14-80 0-16 9-52 19-80 17-46 19-47 19-19 1 17-8 79-19 139-19 106-34 146-42 109z"/>
  <path id="lk" d="m1762 2397c-1-7-4-34-7-62-4-32-3-45 3-35 14 22 23 98 14 104-5 3-9 0-10-7z"/>
  <path id="ll" d="m1711 2364c-14-50-25-213-11-169 26 84 43 186 32 197-7 7-14-1-21-28z"/>
  <path id="lm" d="m3390 2364c0-4 4-23 10-43 5-20 12-48 15-63 9-47 28-33 20 15-12 83-17 97-31 97-8 0-14-3-14-6z"/>
  <path id="ln" d="m3560 2342c5-15 14-53 20-85 6-31 15-55 20-52 17 10-15 151-35 159-10 4-12-1-5-22z"/>
  <path d="m1934 2315c-18-38-12-58 10-34 17 18 30 69 17 69-6 0-18-16-27-35z"/>
  <path id="lo" d="m1834 2306c-15-17-23-45-28-90-4-36-9-73-13-82-11-30 14-10 57 45 34 43 43 62 45 102 4 45 2 49-18 49-12 0-31-11-43-24z"/>
  <path id="lp" d="m3475 2211c3-41 8-77 10-80 13-12 13 11-1 79l-14 75z"/>
  <path d="m1742 2243c-7-12-12-34-11-50l1-28 14 34c18 41 15 78-4 44z"/>
 </g>
 <g id="lq" transform="translate(-1278.8 -1679.5)" fill="#a3a6a4">
  <path id="lr" d="m3052 3583c-18-2-30-8-27-12 2-5-9-14-25-21-24-10-28-15-19-26 14-17 49-18 69-1 34 29 63 67 49 65-8 0-29-3-47-5z"/>
  <path id="ls" d="m3571 3504c13-16 62-44 77-44 5 0 9 7 9 15s-2 13-4 11c-3-2-13 4-24 15-10 10-31 19-45 19-23 0-25-2-13-16z"/>
  <path id="lt" d="m1380 3380c-19-11-28-20-20-20 9-1 7-5-7-10-14-6-20-15-17-27 4-12-5-26-25-41-31-22-31-23-31-117 0-52 3-95 8-95 13 0 72 40 72 49 0 5-7 11-15 15-8 3-15 14-15 24 0 23 87 157 124 191 30 29 34 46 7 31-26-13-31-13-31 5 0 19-7 18-50-5z"/>
  <path id="lu" d="m3275 3390c4-6-14-10-46-10-33 0-49-4-43-9 13-14 89-33 152-38 43-4 52-2 52 11 0 10 9 16 25 16 31 0 33 25 3 34-39 10-150 7-143-4z"/>
  <path d="m1750 3246c-29-10-36-18-38-44-3-27 1-34 23-42 36-14 118-13 150 2 20 9 25 18 25 49v38l-35-15c-51-21-77-17-35 6l35 19h-45c-25 0-61-6-80-13z"/>
  <path d="m3505 3235c39-14 72-25 75-25 2 0 0-4-6-10s-27-4-59 6c-28 9-59 18-70 20-11 1-31 6-44 10-18 5-23 4-19-7 3-8 18-18 34-23s38-12 49-17c11-4 31-10 45-13 14-2-11-3-55-1s-69 1-55-2c14-2 29-9 35-14 5-5 22-9 37-9s28-4 28-10 26-10 58-10c49 1 55 2 40 14-24 18-23 46 2 46 13 0 20 7 20 20 0 16-7 20-32 20-18 1-51 7-73 15s-49 15-60 14c-11 0 12-11 50-24z"/>
  <path id="lv" d="m2918 3243c12-2 32-2 45 0 12 2 2 4-23 4s-35-2-22-4z"/>
  <path d="m2445 3189c0-44 20-52 55-22 28 24 25 42-7 49-16 3-33 7-38 9-6 1-10-14-10-36z"/>
  <path id="lw" d="m3055 3216c18-13 18-14-3-20-12-4-29-3-39 2s-37 13-59 17l-42 6-4-43c-5-47 3-58 45-58 15 0 53-9 84-20 32-11 77-20 101-20h43l-3 37c-3 32-8 38-38 48-27 9-36 18-38 38-3 23-8 27-35 27-29 0-29-1-12-14z"/>
  <path id="lx" d="m2046 3202c-55-32-66-45-66-80v-34l68 5c66 4 162 32 162 47 0 4-7 11-16 14-11 4-14 13-11 27 5 19 3 20-36 14-23-4-50-12-61-17-17-9-18-7-12 16 8 31 9 30-28 8z"/>
  <path d="m3787 3128c-9-16-13-27-8-24 4 3 17-1 27-9 32-24 46-18 42 16-4 47-38 56-61 17z"/>
  <path id="ly" d="m2600 3105c0-8 6-15 14-15 7 0 19-7 26-15s25-15 41-15c21 0 27 4 23 15-4 9 0 15 10 15 9 0 16 7 16 15 0 12-14 15-65 15s-65-3-65-15z"/>
  <path id="lz" d="m2796 3084c-14-37-7-54 24-54 23 0 30 5 30 19 0 11 3 26 6 35 5 12-1 16-24 16-18 0-32-6-36-16z"/>
  <path d="m2885 3034c-25-59-14-68 89-72 54-2 86 1 86 7s-28 25-62 42c-35 17-71 38-80 46-15 14-18 12-33-23z"/>
  <path id="ma" d="m3818 3025c2-14 11-25 18-25 19 0 18 36-2 44-22 8-22 9-16-19z"/>
  <path id="mb" d="m2103 2986c-12-13-19-27-16-30 4-3-4-6-16-6-37 0-18-25 22-28 45-4 86 23 87 56 0 19-4 22-21 17-12-4-24-2-28 4-5 7-15 3-28-13z"/>
  <path id="mc" d="m3180 2969c0-18-5-21-30-17-34 5-38-7-18-63 17-51 31-59 92-59 51 0 56 2 56 23 0 27-70 137-87 137-7 0-13-10-13-21z"/>
  <path id="md" d="m1953 2919c-30-9-38-19-34-41 0-5-8-8-20-8-36 0-15-25 24-28 53-5 77 12 77 53 0 38 0 38-47 24z"/>
  <path d="m2023 2502c-32-50-94-194-86-202 2-3 10 4 16 15 25 42 109 226 105 230-2 2-18-17-35-43z"/>
  <path id="me" d="m3084 2513c7-16 27-59 45-96s34-79 35-92c1-32 26-43 26-12-1 25-31 97-74 175-30 54-55 73-32 25z"/>
  <path id="mf" d="m1912 2445c-52-57-92-185-58-185 19 0 46 44 46 74 0 31 28 105 48 129 28 33-5 17-36-18z"/>
  <path id="mg" d="m3225 2383c4-21 9-49 10-63s9-39 16-56c12-27 17-30 38-22 19 6 22 11 13 20-7 7-12 21-12 32 0 12-11 45-25 74-29 62-51 70-40 15z"/>
 </g>
 <g id="mh" transform="translate(-1278.8 -1679.5)" fill="#b3b5b3">
  <path id="mi" d="m1554 3696c-15-12-17-18-8-33 10-15 22-17 70-14 33 2 73 11 89 20l30 16-50 3c-27 2-54 7-59 13-15 13-49 11-72-5z"/>
  <path id="mj" d="m3505 3700c-4-6-14-10-23-9-10 1-28 1-41 0-23-1-23-2-7-20 11-12 37-21 74-26 31-3 65-8 75-11 13-4 17 1 17 23 0 24-6 31-33 41-41 15-54 15-62 2z"/>
  <path id="mk" d="m1751 3389c-79-15-291-135-309-173l-12-26h60c62 0 85-14 57-35-32-24-19-35 40-34 44 1 59-2 70-17 12-16 11-20-2-30-14-11-14-12 1-18 25-9 102-7 122 4 20 12 152 70 158 70 2 0 4-16 4-35 0-35 0-35 43-33 37 3 42 0 45-19 4-25 6-26 40-17 18 5 22 13 22 45 0 43-5 48-48 51-31 2-31 3-12 20 11 10 23 18 28 18 4 0 12 15 17 32 10 35 15 36 140 51 38 5 93 55 70 63-8 4-26 3-39 0-14-3-36-1-50 6-31 13-91 2-224-43-84-27-106-43-95-64 4-5 3-7-2-3-4 4-14 1-22-7-17-17-51-19-87-5-38 14-32 27 17 34 23 4 53 13 66 20l23 13-22 6c-13 3-75-11-152-35-87-28-132-38-139-31s23 21 93 43c121 38 177 59 162 59-6 1-33-6-59-14-27-8-51-12-53-10-5 5 66 35 82 35 6 0 28 5 49 11 42 11 49 34 12 43-14 4-24 12-22 18 3 16-19 18-72 7z"/>
  <path id="ml" d="m3335 3375 30-14-90-2 28-15c15-8 27-18 27-23s14-11 31-15c21-4 29-10 26-20-5-13 38-31 99-42 12-2 46-15 76-29 53-25 135-35 123-15-3 6 0 10 7 10 19 1-23 31-129 96-51 31-98 63-104 70-8 10-34 14-83 13-68-1-70-1-41-14z"/>
  <path d="m3753 3353c-16-6-17-55-1-71 7-7 29-12 50-12 33 0 38 3 38 24 0 17-11 30-36 45-19 12-36 21-37 20-1 0-8-3-14-6z"/>
  <path id="mm" d="m2885 3330c4-7-1-13-14-17-28-7-27-14 7-45 21-19 42-27 90-32 85-8 106-20 98-56-5-26-2-30 32-41 43-13 64-29 39-29-16 0-82 22-124 42-12 6-31 8-42 5-11-2-29 1-40 9-18 13-20 12-26-16-9-41 0-50 49-50 47 0 73-15 78-45 5-29 45-32 70-5 15 16 30 21 57 19 64-3 71-1 71 27 0 14 3 24 8 22 4-2 36-18 72-37 50-26 81-35 135-39l70-5-24 26c-39 43-24 56 71 59l83 3-37 17c-37 17-126 32-255 44-40 3-71 10-68 15 9 13-37 38-117 65-40 14-82 29-93 34s-51 14-90 20c-38 7-78 14-89 17-12 3-16 1-11-7z"/>
  <path id="mn" d="m3275 3261c-3-5-2-12 2-14 16-10 131-37 154-37l24 1-25 14c-14 8-44 17-68 21-23 3-45 10-48 15-7 12-31 11-39 0z"/>
  <path id="mo" d="m2480 3206c-6-6-10-6-10 0 0 5-7-4-15-20-8-15-15-30-15-32s35-4 78-4h78l-1 28c0 25-3 27-53 32-29 3-57 1-62-4z"/>
  <path id="mp" d="m2645 3192c3-23-2-30-26-41-22-10-29-19-27-34 3-25 43-36 101-29 33 4 37 7 37 31 0 16-10 37-25 51-14 13-25 29-25 37 0 7-9 13-19 13-16 0-19-6-16-28z"/>
  <path id="mq" d="m2131 3147c-19-7-36-17-38-22-5-15 98-35 120-24 19 11 23 49 5 49-7 0-22 2-33 5-11 2-35-1-54-8z"/>
  <path id="mr" d="m2135 2975c-16-13-36-24-42-25-7 0-13-7-13-15 0-31 124-10 156 27 19 21 18 23-15 33-17 5-21 4-16-5 6-9 3-9-13-1-26 14-22 15-57-14z"/>
  <path id="ms" d="m2881 2991c-10-6-4-15 22-35 29-22 50-29 111-33 42-3 73-9 71-13s9-18 26-31 37-31 46-41c9-9 22-14 29-11 18 7 19 46 2 40-8-2-17 12-23 37-9 37-15 42-66 62-60 23-196 38-218 25z"/>
  <path d="m2190 2822c0-10 15-33 33-50l34-33 59 23 58 22-49 13c-28 7-63 20-78 28-38 20-57 19-57-3z"/>
 </g>
 <g id="mt" transform="translate(-1278.8 -1679.5)" fill="#dcdedd">
  <path d="m1520 3689c-102-23-188-39-212-39-26 0-28-3-28-39v-39l42 5c24 3 88 21 143 39 55 19 111 34 124 34h24l-23 25c-13 14-26 24-29 24-3-1-22-5-41-10z"/>
  <path id="mu" d="m3555 3690c-3-5-1-10 4-10 6 0 11-4 11-10 0-5-12-10-27-10-21 0-24-3-15-12 8-8 40-12 88-11 66 2 77-1 81-16 3-14 18-20 56-25 94-11 97-10 97 28 0 39 2 38-173 56-55 6-103 12-107 15-5 3-11 1-15-5z"/>
  <path id="mv" d="m2508 3654c-50-15-57-24-34-43 17-14 163-4 184 12 10 8 9 14-4 28-21 23-78 24-146 3z"/>
  <path id="mw" d="m1775 3345c-45-11-130-47-254-108-25-12-47-28-49-34-6-20 48-16 94 6 21 10 73 29 114 41 117 34 212 73 199 81-6 4-8 12-5 18 9 14-33 13-99-4z"/>
  <path id="mx" d="m3274 3345c11-8 29-15 40-15 16 0 18-2 7-9s-8-13 14-27c32-21 116-25 122-6 3 7-4 12-17 12-12 0-18 4-15 10 3 5-7 15-22 21s-36 15-45 20c-10 5-37 9-60 9-40-1-42-2-24-15z"/>
  <path d="m3727 3351-38-6 38-36c46-43 87-69 108-69 11 0 15 11 15 38 0 34-4 40-37 57-47 24-41 23-86 16zm73-36c14-16 10-18-14-9-9 3-16 10-16 15 0 14 16 11 30-6z"/>
  <path id="my" d="m1313 3322c-28-24-33-35-33-71v-43l49 36c27 20 53 36 58 36s19 14 31 30l23 30h-28c-15 0-37 2-48 5-13 3-32-6-52-23z"/>
  <path id="mz" d="m2123 3293c-23-2-47-11-55-20-12-15-8-16 42-10 30 4 70 7 88 7 22 0 32 5 32 15 0 15-13 16-107 8z"/>
  <path id="na" d="m2900 3291c0-12 37-21 94-21 40 0 46 2 37 14-13 15-131 22-131 7z"/>
  <path id="nb" d="m1851 3191c-7-5-51-12-97-16-58-5-84-11-84-20 0-30 207 2 218 33 4 14-17 16-37 3z"/>
  <path d="m2645 3181c7-24-35-38-51-17-6 9-34 15-75 17-58 3-65 1-74-19-5-12-15-22-21-22-21 0-24-29-4-40 26-14 40-12 40 5s21 20 37 4c12-12 135-21 128-9-7 11 26 23 57 21l28-2-27 40c-28 43-49 55-38 22z"/>
  <path id="nc" d="m3230 3192c0-13 66-36 105-38 17 0 63-4 103-9 62-6 72-5 72 8 0 16-19 19-160 32-36 3-77 8-92 11-16 3-28 1-28-4z"/>
  <path id="nd" d="m1838 3132c-48-21-90-41-94-45s-16-7-26-7c-12 0-18-7-18-21 0-20 3-21 108-15 59 3 122 8 139 12 29 6 32 10 28 34-4 23 1 30 30 46 19 10 35 22 35 26 0 5-26 8-57 8-44-1-79-10-145-38z"/>
  <path d="m3106 3157c6-17 57-47 81-48 14 0 13-2-6-10-23-9-24-11-7-27 22-23 246-32 246-10-1 15-122 75-190 95-61 17-131 17-124 0z"/>
  <path id="ne" d="m2900 3131c0-14 22-32 74-60 70-39 105-49 119-34 4 3-2 13-14 21-13 9-19 21-16 33s-2 20-14 24c-10 4-19 11-19 17 0 7-17 8-49 4-30-4-52-2-56 4-10 17-25 11-25-9z"/>
  <path id="nf" d="m2080 3128c-32-16-42-30-30-42 6-6 10-20 10-33 0-31 11-29 98 18 59 33 71 44 58 51-27 15-109 19-136 6z"/>
  <path id="ng" d="m2294 3085c-8-20 4-35 27-35 14 0 19 7 19 25s-5 25-20 25c-11 0-23-7-26-15z"/>
  <path id="nh" d="m2790 3075c0-22 4-26 23-23 14 2 22 10 22 23s-8 21-22 23c-19 3-23-1-23-23z"/>
  <path id="ni" d="m2245 2993c-11-2-29-8-40-13-42-18-89-30-118-30-59 0-109-22-119-53-10-27-14-29-54-25-40 3-45 1-55-25-10-23-9-31 3-43 21-21 56-10 104 33 58 52 106 73 166 73 48 0 57 4 96 41 46 44 48 47 17 42z"/>
  <path id="nj" d="m2910 2952c41-38 50-41 100-42 34 0 66-7 85-18 43-26 65-18 62 21l-2 32-80 6c-44 3-100 11-124 18-23 7-46 10-49 7s-12-1-21 5c-9 7 4-7 29-29z"/>
  <path id="nk" d="m1430 2898c-14-6-38-12-55-14-93-10-95-12-95-65 0-42 3-49 20-49 11 0 42 16 69 35 26 19 53 35 58 35 8 0 19 16 41 63 4 10-8 8-38-5z"/>
  <path id="nl" d="m3670 2897c0-8 16-34 36-60 26-33 49-50 82-61 25-9 49-16 54-16 4 0 8 24 8 53l-1 52-47 23c-53 25-132 30-132 9z"/>
  <path id="nm" d="m3168 2863c-26-7-11-31 33-53 59-31 79-27 79 14 0 31-3 34-37 40-41 6-49 6-75-1z"/>
  <path id="nn" d="m2170 2826c0-27 12-46 30-46 10 0 23-7 30-15s16-12 21-9c16 10 9 40-14 62-26 25-67 29-67 8z"/>
  <path id="no" d="m2919 2830c-14-4-38-15-53-25l-27-18 20-20c19-20 21-20 39-4 10 9 31 17 45 17 15 0 27 4 27 9 0 24 73-59 79-90 5-25 13-35 29-37 18-3 22 1 22 23 0 68-71 156-125 154-16 0-42-4-56-9z"/>
  <path id="np" d="m2078 2793c-30-32-48-72-48-109 0-21 4-25 23-22 16 2 23 11 25 33 2 17 15 42 30 58 14 15 21 27 15 27-7 0-13 9-15 21-3 19-4 19-30-8z"/>
 </g>
 <g id="nq" transform="translate(-1278.8 -1679.5)" fill="#e7ebe7">
  <path id="nr" d="m1490 3665c-19-7-46-14-60-15-24-1-60-21-60-34 0-11 92-6 154 9 91 23 90 23 76 40-15 18-63 18-110 0z"/>
  <path id="ns" d="m3588 3652c-4-15 6-21 63-36 72-18 89-16 89 13 0 30-22 41-86 41-51 0-62-3-66-18z"/>
  <path d="m3380 3287c0-8 26-21 63-32 34-10 85-29 114-42 36-17 66-23 95-21l43 3-70 34c-133 64-245 90-245 58z"/>
  <path id="nt" d="m1650 3276c-66-19-94-32-109-50-20-24 10-21 104 13 111 40 115 68 5 37z"/>
  <path id="nu" d="m3440 3167c0-16 31-24 121-33 48-4 52-3 36 10-10 8-42 17-70 21-29 3-60 9-69 11-11 3-18 0-18-9z"/>
  <path id="nv" d="m1620 3167c-3-3-21-7-40-10-47-7-71-17-64-28 7-12 121-11 129 1 3 6 20 10 36 10 46 0 30 24-17 28-22 2-42 1-44-1z"/>
  <path id="nw" d="m3166 3092c-7-13 10-26 53-41 46-15 51-14 51 8 0 13-9 20-27 24-16 3-38 8-49 12-12 4-24 2-28-3z"/>
  <path d="m1645 3065c-25-21-28-26-15-35 8-5 41-10 73-10 54 0 57 1 57 24 0 18-7 25-27 30-16 4-35 9-43 11-8 3-28-6-45-20z"/>
  <path d="m1837 3082c-11-2-17-11-15-20 3-14 14-17 57-15 52 3 70 8 60 17-9 9-84 22-102 18z"/>
  <path d="m1387 2865c-56-29-107-71-107-88 0-18 2-18 90 4 31 8 120 71 95 68-22-3-27 2-15 16 10 13 9 15-11 15-13 0-36-7-52-15z"/>
 </g>
 <g id="nx" transform="translate(-1278.8 -1679.5)" fill="#f4f8f4">
  <path d="m1733 3066c-72-13-86-23-47-31 16-4 36-9 45-11 24-6 122 15 130 28 19 30-18 34-128 14z"/>
  <path id="ny" d="m3240 3063c0-17 9-21 53-27 28-3 92-6 142-6h89l-21 21c-19 19-36 22-142 27-116 5-121 4-121-15z"/>
  <path id="nz" d="m2124 2830c-26-10-54-48-54-72 0-23 8-23 45 2 17 11 41 20 55 20s35 3 48 6l23 7-22 23c-23 25-57 30-95 14z"/>
  <path id="oa" d="m2920 2819c-23-9-23-11-7-20 9-6 39-16 65-24 26-7 57-16 69-20 19-6 21-4 16 16-14 51-80 73-143 48z"/>
 </g>
</svg>
