<svg id="a" class="img-fluid" width="257.6" height="207.1" version="1.1" viewBox="0 0 2576 2071" xmlns="http://www.w3.org/2000/svg">
 <g id="b" transform="translate(-1277,-1680)" fill="#3e0d20">
  <path id="c" d="m1741 3709c-78-49-215-119-235-119-9 0-16 12-18 33-3 29-6 32-40 35-32 3-38 7-38 27 0 30-5 33-74 41l-56 7v-30c0-17 3-51 6-77 7-45 8-47 50-58l44-12v-96h44c67 0 188 43 308 109 89 49 108 56 112 42 3-9 14-59 25-111s29-129 41-170c46-158 51-177 57-250 5-64 4-73-8-64-8 6-38 19-68 29-46 15-74 16-192 10-77-4-163-13-191-21-57-15-73-9-89 33-8 21-15 23-75 23h-67l7-77c3-42 6-94 6-116v-40l45 5c30 4 45 2 45-6 0-6 14-25 32-41l32-30-43-3-44-3 5-64c3-37 16-86 32-120 14-32 25-59 24-60-2-1-21-8-43-16-38-14-40-17-43-60l-3-45 48-12c26-7 58-21 71-30l23-18-35-37c-34-36-52-85-44-123 2-13 19-21 69-30 59-11 169-50 169-60 0-2-34-43-75-91-78-90-175-262-175-308 0-23 3-25 53-25h52l34 72c90 187 288 365 576 518 83 43 182 92 220 109 39 16 111 47 160 68 84 37 93 39 120 27 17-8 98-43 180-80 161-71 352-168 425-217 184-122 345-287 406-415l39-81h53c47-1 52 1 52 22 0 47-98 220-175 309-41 48-75 90-75 92 0 10 110 49 169 60 50 9 67 17 69 30 8 38-10 89-45 127l-35 39 53 25c30 14 62 25 72 25 15 0 18 7 15 47-3 45-5 48-43 62-22 8-41 15-43 16-1 1 10 28 25 61 20 44 27 75 27 124l1 65-66 6 26 30c14 17 25 35 25 40s21 9 46 9h46l-4 60c-1 33 0 60 5 60 4 0 7 23 7 50v50h-59c-78 0-91-6-91-41 0-32-10-36-43-15-16 10-74 16-202 20-175 6-182 6-237-18l-58-24v42c0 45 7 78 74 346 26 102 49 195 51 207 5 21 9 20 100-32 123-69 256-117 316-113l44 3 3 53 3 52h39c21 0 41 4 44 9s9 41 12 80l7 72-39-3c-36-3-39-6-42-35l-3-32-57 2c-50 2-58-1-67-20-5-13-13-23-17-23-5 0-8-7-8-15s-2-15-5-15c-12 0-246 129-266 146-12 11-50 14-152 14-156 0-148 6-122-90 22-83 18-130-20-242-101-292-107-316-104-396l4-77-40 3c-32 3-54-4-110-37-60-35-78-41-127-41h-58v-33c0-28 5-36 35-50 44-21 120-22 158-3l27 15v-37c0-20 4-43 8-50 5-8-9-30-42-64l-50-52-189 1-190 2-83 83c-70 70-83 88-84 118-4 75-4 75 55 24 68-57 123-68 204-38 47 17 51 20 51 51v33h-60c-61 0-109 17-172 61-15 11-43 19-67 19h-41v79c0 82-13 130-109 401-34 95-38 149-16 230 26 96 33 90-117 90h-133zm109-769c12-7 11-12-5-30-18-20-20-20-26-3-17 41-3 55 31 33zm1466-6c-3-9-6-23-6-32 0-12-6-10-25 8-24 22-24 25-8 31 31 13 46 10 39-7zm-1370-121c-14-15-26-31-26-35 0-5-10-8-22-8-20 1-17 6 22 40 50 44 66 46 26 3zm-180 14c7-6-55-113-76-132-25-22-26-83-4-170 9-33 19-82 24-110 10-63 18-82 47-121 30-40 29-74-3-97-25-19-25-18-69 18-25 20-45 42-45 48 0 7-9 18-20 25-15 9-20 23-20 52 0 30-7 48-30 74-18 20-26 37-20 41 22 14 10 83-25 142-19 32-35 60-35 63s24 5 52 5h53l3 40c2 28-5 55-23 89l-26 49 107-6c58-3 108-8 110-10zm1814 7c0-3-10-20-22-37-16-22-22-46-23-82v-50h53c28 0 52-3 52-6s-16-31-35-63c-35-59-47-127-25-141 7-4-4-23-25-46-47-52-48-97-5-123 33-19 32-36-3-36-26 0-105-35-129-57-15-13-19-13-42 4-32 23-33 52-1 99 14 20 29 53 34 73 60 238 65 295 30 327-17 15-54 75-77 126-2 4 14 9 35 11 65 6 183 7 183 1zm-1461-114c7-41 16-79 21-85 16-19 0-25-62-25-59 0-73 11-38 30 25 13 29 80 5 80-21 0-19 9 17 62 38 55 39 53 57-62zm970 2c-31-5-26-69 6-84 42-19 28-28-41-28-64 0-66 1-60 23 4 12 11 51 17 86 18 120 16 118 59 59 34-47 36-53 19-56zm-1219-17c0-43-1-45-30-45h-30l21 38c29 51 30 52 35 52 2 0 4-20 4-45zm1426 3c17-33 18-33-13-42-22-7-23-4-23 39 0 51 11 52 36 3zm-1390-202c-3-17-8-52-11-78-4-34-12-51-26-59-12-6-22-9-23-7-54 74-56 87-25 151 21 44 22 44 55 34 31-9 34-13 30-41zm1421-68c-4-14-16-37-27-51-31-39-57-19-65 47-3 28-8 63-11 77-4 22 0 27 28 36 32 9 33 9 57-37 16-31 22-56 18-72z"/>
  <path id="d" d="m1290 3398c0-47 16-58 99-71l70-11 3-46 3-45 53-3c65-4 134 18 190 59 36 26 42 36 42 66v35l-42-5c-24-3-57-9-75-12-28-6-32-4-35 16-3 26 16 22-220 44l-88 8z"/>
  <path id="e" d="m3727 3424c-3-3-47-7-99-7-86-2-94-4-103-24-8-20-17-23-67-23h-58v-34c0-26 7-40 30-59 42-36 119-59 182-55l53 3 3 48c3 46 4 47 38 47 18 0 34-4 34-10 0-5 25-10 55-10h55v34c0 18-3 48-6 65-6 30-8 31-59 31-28 0-54-3-58-6z"/>
  <path d="m2436 2234c-207-41-401-160-492-301-56-88-85-152-91-204l-6-49h98l17 48c65 183 280 353 509 403 88 19 91 19 183 0 156-32 331-135 422-248 44-56 104-165 104-190 0-9 17-13 50-13h50v38c0 77-107 254-202 337-55 47-169 114-233 138-157 56-274 68-409 41z"/>
  <path id="f" d="m2445 1864c-128-27-275-115-275-165 0-17 8-19 60-19 49 0 71 6 122 34 88 48 169 70 237 63 65-6 154-37 206-72 29-20 48-25 100-25 57 0 65 2 65 19 0 27-73 89-144 122-68 31-193 59-258 58-24 0-74-7-113-15z"/>
 </g>
 <g id="g" transform="translate(-1277,-1680)" fill="#472b35">
  <path d="m2380 3727c0-13 5-38 11-56 10-28 15-31 51-31h39l-3 53-3 52-47 3c-45 3-48 1-48-21z"/>
  <path id="h" d="m2654 3726c-3-13-4-38-2-57 3-31 6-34 39-37s38 0 48 29c6 18 11 45 11 60 0 28-2 29-45 29-39 0-45-3-51-24z"/>
  <path id="i" d="m3730 3685c0-24 6-37 19-45 24-12 71-13 90-1s6 41-19 41c-12 0-18 5-15 10 3 6 16 10 28 10 18 0 19 2 7 10-8 5-36 10-62 10h-48z"/>
  <path id="j" d="m1292 3628c-7-7-12-36-12-65v-53h53c62 0 77 11 77 58 0 26-4 33-17 31-25-4-73 10-73 21 0 5 12 11 28 13 23 3 22 4-8 6-20 0-41-4-48-11z"/>
  <path id="k" d="m3805 3610c-3-5-17-10-31-10-21 0-24-4-24-39 0-43 10-51 66-51h34v55c0 48-3 55-19 55-11 0-23-4-26-10z"/>
  <path id="l" d="m1800 3514c-26-22-31-33-28-63 3-33 6-36 37-39 48-5 91 38 91 90 0 37-1 38-34 38-23 0-45-9-66-26z"/>
  <path d="m3117 3358c-65-179-97-274-97-284 0-17 49-74 64-74 9 0 17 32 24 94 7 52 21 140 32 196 24 121 23 110 6 110-8 0-21-19-29-42z"/>
  <path id="m" d="m1280 3345v-45h130v30c0 22-5 30-17 30-10 0-31 7-47 15-52 27-66 21-66-30z"/>
  <path d="m1974 3373c10-32 36-186 48-280 8-61 16-93 24-93 15 0 64 57 64 73 0 13-95 291-105 307-11 18-37 12-31-7z"/>
  <path id="n" d="m3165 3273c-31-108-48-293-26-293 6 0 11-7 11-15 0-12 8-10 38 9 46 31 115 56 153 56 26 0 29 3 29 33 0 32 0 32 45 29l45-4v40c0 35-5 45-40 73-27 22-40 41-40 57 0 15-14 38-36 58-29 28-43 34-80 34-24 0-44 5-44 10 0 6-6 10-13 10-8 0-24-38-42-97z"/>
  <path d="m1781 3314c-21-17-31-35-31-53 0-20-11-36-40-60-38-30-40-35-40-86v-55h33c18 0 38 5 45 12 9 9 12 7 12-10 0-14 6-22 16-22 29 0 138-43 170-67 17-13 35-23 41-23 14 0 16 151 4 220-6 30-18 81-28 113l-18 57h-67c-57 0-71-4-97-26z"/>
  <path id="o" d="m1280 2895c0-115 1-125 19-125 24 0 117 93 113 114-3 12 4 16 27 16 26 0 31 4 31 25 0 14-2 25-5 25-2 0-28-11-57-24-89-39-88-39-88-4 0 17 9 46 21 64l21 34h-82z"/>
  <path id="p" d="m3780 3016c0-2 7-20 15-39 22-54 20-78-7-74-13 1-33 8-45 15-24 13-37 3-27-21 3-8-6-28-20-45-15-16-26-34-26-40 0-16 41-62 51-56 5 3 12-2 15-10 9-24 64-21 64 3 0 14 6 17 25 13l25-4v262h-35c-19 0-35-2-35-4z"/>
  <path id="q" d="m2075 2979c-17-17-60-51-97-75-47-30-68-50-68-64 0-11 5-20 10-20 6 0 10-13 10-30 0-36 19-39 46-7 64 75 139 198 132 218-2 6-17-4-33-22z"/>
  <path id="r" d="m3025 2990c20-68 115-200 144-200 10 0 24-7 31-15 18-21 30-9 30 31 0 24-5 34-15 34-14 0-20 13-15 35 1 5-1 7-5 3-7-6-15-1-50 30-7 6-18 12-23 12s-30 21-57 48c-39 39-46 43-40 22z"/>
  <path id="s" d="m1572 2983c-21-4-42-37-42-67 0-8 15-13 40-14l40-2-2 45c-1 25-5 44-8 44-3-1-15-4-28-6z"/>
  <path d="m1772 2964c2-21 12-33 37-45 19-9 40-24 47-33 8-11 14-13 19-6 3 5 25 20 47 31s36 24 32 28c-16 14-98 41-143 47-42 6-42 6-39-22z"/>
  <path id="t" d="m3242 2968c-34-12-62-24-62-29 0-4 20-21 45-38 37-25 47-28 51-16 4 8 13 15 21 15 27 0 73 40 73 64 0 18-6 22-33 23-18 0-61-8-95-19z"/>
  <path id="u" d="m3416 2965c-32-49-10-80 48-69 30 5 36 11 36 31 0 62-53 86-84 38z"/>
  <path id="v" d="m3522 2946 2-46h43c36 0 43 3 43 20 0 11 5 20 10 20 6 0 10 3 10 8 0 12-35 30-74 37l-36 7z"/>
  <path id="w" d="m1633 2940c0-25 2-35 4-22 2 12 2 32 0 45-2 12-4 2-4-23z"/>
  <path id="x" d="m2109 2918c-7-13-27-41-44-63-49-61-70-96-54-90 21 8 130 175 115 175-3 0-11-10-17-22z"/>
  <path id="y" d="m3016 2910c17-34 101-150 110-150 8 0 3 8-48 78-29 39-59 79-66 89s-5 2 4-17z"/>
  <path id="z" d="m1650 2847c0-14 12-39 26-56 21-25 33-31 66-31h41l-6 45c-2 26-7 48-10 51s-30 8-61 11c-55 6-56 5-56-20z"/>
  <path id="aa" d="m2185 2838c-18-76-10-98 62-170 38-37 74-68 81-68 20 0 15 74-7 94-12 11-21 38-25 78-10 85-19 98-65 98-35 0-39-3-46-32z"/>
  <path d="m3384 2863c-23-4-34-29-34-75 0-25 4-28 33-28 42 0 97 48 97 84 0 24-4 26-37 25-21-1-48-4-59-6z"/>
  <path id="ab" d="m2508 2763-58-4v-139h44c39 0 45 3 56 30 13 32 30 32 30 0 0-24 29-40 69-40h31v68c0 40-5 73-12 80-12 12-38 12-160 5z"/>
  <path id="ac" d="m2800 2681c-11-22-14-74-3-84 3-4 26 11 49 33 24 22 49 40 56 40 8 1 5 7-6 15-29 22-83 19-96-4z"/>
  <path id="ad" d="m2137 2674c-4-4-7-27-7-51 0-36 3-43 20-43 10 0 24 9 30 19 6 12 23 21 43 23l32 3-50 25c-27 13-53 25-56 27s-8 0-12-3z"/>
  <path d="m2961 2666c-7-8-24-17-38-21-43-10-87-45-73-59 8-8 13-7 20 4 8 13 10 13 10-1 0-17 46-46 56-36s-6 46-24 50c-16 4-16 4 1 12 25 11 47-1 47-26 0-15 4-19 16-15 9 3 34 6 55 6h40l-3 38c-3 34-6 37-35 40-18 2-33 7-33 13 0 14-26 11-39-5z"/>
  <path id="ae" d="m2350 2620v-50h34c19 0 41-3 50-6 22-8 21 25-1 71-14 30-22 35-50 35-33 0-33 0-33-50z"/>
  <path id="af" d="m2700 2651c-5-11-10-36-10-56v-36l43 3 42 3 3 53 3 52h-35c-25 0-38-6-46-19z"/>
  <path id="ag" d="m3287 2663c-16-15-7-35 14-30 12 3 18 3 15 0-11-11 37-53 60-53 32 0 38 43 9 70-21 19-84 28-98 13z"/>
  <path id="ah" d="m3419 2657c9-12 12-32 8-64-6-44-5-45 4-14 13 43 8 83-11 89-13 5-13 3-1-11z"/>
  <path id="ai" d="m3300 2575c27-29 37-27 20 4-6 12-18 21-27 21-13 0-12-5 7-25z"/>
  <path d="m3003 2553c9-2 25-2 35 0 9 3 1 5-18 5s-27-2-17-5z"/>
  <path id="aj" d="m2243 2542c-15-10-83-109-83-122 0-14 11-13 71 12 109 44 129 77 64 104-40 16-37 16-52 6z"/>
  <path id="ak" d="m2838 2540c-49-14-51-20-21-52 37-40 163-97 163-73 0 13-84 121-98 126-9 3-29 3-44-1z"/>
  <path d="m1820 2493c-38-7-50-22-50-59 0-42 45-114 71-114 10 0 34 7 52 16 31 15 35 21 36 58 1 22 3 55 4 71 2 29 1 30-43 31-25 1-56 0-70-3z"/>
  <path id="al" d="m3200 2438c4-29 5-60 3-69-3-10 3-19 14-22 10-3 30-14 46-24 27-18 27-18 52 12 32 40 32 85-1 124-22 27-33 31-73 31h-47z"/>
  <path id="am" d="m1962 2450c0-19 2-27 5-17 2 9 2 25 0 35-3 9-5 1-5-18z"/>
  <path id="an" d="m3364 2325c-9-14-20-23-24-20-15 10-28-21-28-68v-47h38c33 0 43 6 74 44 27 32 36 53 36 80 0 35-1 36-40 36-31 0-43-5-56-25z"/>
  <path id="ao" d="m1770 2331c0-6 9-20 19-30 11-11 21-30 24-43 4-21 4-21 6 4 0 16-9 38-24 54-14 15-25 22-25 15z"/>
  <path d="m1965 2326c-106-28-125-41-125-90 0-28 1-28 23-13 12 9 57 37 100 63 100 59 100 65 2 40z"/>
  <path d="m3140 2316c8-10 44-38 80-62 68-45 79-43 66 10-6 24-56 49-126 62-33 7-34 6-20-10z"/>
  <path id="ap" d="m2814 2018c3-29 8-78 12-108 8-71 33-100 86-100 36 0 38 1 38 33 0 18-6 39-12 45-11 11-24 58-45 155-5 24-10 27-45 27h-40z"/>
  <path id="aq" d="m1586 1932c-50-62-136-213-136-241 0-7 29-11 85-11 50 0 85 4 85 10s9 10 20 10c22 0 40 28 40 61 0 13 9 42 21 66 17 36 20 53 14 108l-7 65h-33c-28 0-40-9-89-68z"/>
  <path id="ar" d="m3421 1906c3-69 8-89 25-108 12-13 34-44 49-70l27-48h168l-26 58c-37 83-72 140-123 200-40 46-49 52-84 52h-39z"/>
  <path id="as" d="m3133 1934c21-27 56-86 79-131 34-69 44-83 64-83 17 0 24 6 24 19 0 11 5 23 10 26 23 14 10 80-25 127-45 61-68 75-135 84l-54 7z"/>
  <path id="at" d="m1868 1928c-39-63-47-108-26-153 19-42 45-31 77 33 17 31 39 71 50 87 32 47 28 55-33 55-45 0-56-4-68-22z"/>
  <path id="au" d="m3590 1935c0-4 6-16 14-24 8-9 33-50 55-91s41-70 41-65c0 6-19 44-41 85-39 73-69 114-69 95z"/>
  <path id="av" d="m3090 1925c0-4 13-24 29-44 15-20 40-58 54-86 14-27 26-46 27-42 0 15-43 92-76 136-19 24-34 41-34 36z"/>
  <path id="aw" d="m1983 1857c-32-48-55-98-49-105 3-3 6-1 6 4 0 6 16 36 35 69 38 62 44 85 8 32z"/>
 </g>
 <g id="ax" transform="translate(-1277,-1680)" fill="#584e52">
  <path d="m1915 3730c-14-15-16-29-11-65 6-38 11-45 30-45 20 0 26 8 35 48 7 26 14 55 17 65 8 25-47 23-71-3z"/>
  <path id="ay" d="m3146 3728c4-13 10-39 13-58 5-28 11-36 32-38 20-2 28 2 33 20 17 64-2 98-54 98-28 0-31-2-24-22z"/>
  <path d="m2850 3661c-6-22-17-47-26-55-9-10-14-29-12-48 3-32 5-33 49-36l46-3 22 61c12 33 21 73 19 88-3 24-8 27-45 30-41 3-42 2-53-37z"/>
  <path id="az" d="m1743 3471c-16-14-23-30-23-55 0-35 1-36 41-36 57 0 79 14 79 52 0 24-3 28-13 19-21-17-29 0-10 21 15 17 14 18-18 18-19-1-44-9-56-19z"/>
  <path id="ba" d="m1966 3404c17-56 16-55 32-45 17 10-9 85-31 89-14 3-14-2-1-44z"/>
  <path id="bb" d="m3140 3426c-15-41-16-61-1-61 8 0 19 19 26 43 11 35 11 42-1 42-8 0-19-11-24-24z"/>
  <path d="m1900 3400c0-5-9-10-20-10-10 0-35-7-55-15-19-8-50-21-69-29-37-16-286-251-286-270 0-6-9-19-20-29-11-9-20-29-20-43 0-22 3-25 23-20 12 3 55 13 95 23 86 20 91 16 84-56-4-48-4-48 29-54 19-4 49-3 67 1l34 7-42 53-42 52 27 10c62 24 177 1 241-47 42-32 54-29 54 12 0 39-2 40-29 23-10-6-26-8-35-5-16 6-16 10 4 42 12 19 19 43 17 52-4 15-5 14-6-3-2-44-67-76-95-45-16 17-14 22 39 92 31 41 60 76 65 77 12 4 13 42 2 42-4 0-23-24-42-52-39-60-108-138-122-138-5 0 6 19 25 43 50 62 54 74 18 48-50-36-50-16 0 37 119 126 111 114 98 166-7 27-17 46-25 46s-14-4-14-10zm-75-120c-16-16-34-30-39-30-12 1 49 60 61 60 4 0-6-13-22-30zm53-17c-24-27-74-77-111-112-57-55-67-61-67-41 0 29 172 200 202 200 18 0 14-7-24-47z"/>
  <path id="bc" d="m3196 3388c-3-13-6-36-6-52 0-25 3-28 27-23 24 4 39-7 121-89 52-52 92-97 90-100-12-11-51 15-115 76-90 87-111 98-45 25 30-33 58-69 64-79 10-18 8-18-26 2-20 12-36 19-36 16s16-24 35-47c48-56 44-70-6-22-49 48-119 147-119 170 0 9-4 13-10 10-24-15-8-47 83-156 43-52 42-79-3-79-16 0-32 5-35 10-12 19-26 11-15-9 14-28 13-31-14-31-14 0-32 10-40 22-15 22-16 20-16-30 0-28 4-52 10-52 5 0 30 13 54 29 25 15 66 34 91 41 47 13 140 9 155-6 6-6-6-27-30-54-21-25-39-48-40-51 0-10 70-19 102-12 30 6 30 7 24 53-8 60 0 80 30 80 16 0 24 6 24 17 0 14 3 14 23-4 29-27 97-63 119-63 14 0 18 8 18 40 0 33-7 47-35 75-19 19-41 35-50 35-8 0-15 4-15 10 0 5-20 28-45 51s-45 49-45 58c0 18-45 51-110 83-70 34-149 66-178 72-25 6-30 4-36-16zm120-103c20-19 31-35 23-34-13 0-78 69-66 69 3 0 22-16 43-35zm142-344c3-8-1-12-9-9-7 2-15 10-17 17-3 8 1 12 9 9 7-2 15-10 17-17z"/>
  <path id="bd" d="m1525 2968c-116-33-133-68-33-68 54 0 78 7 78 25 0 6 9 20 20 30 20 18 26 36 13 34-5 0-39-10-78-21z"/>
  <path id="be" d="m1740 2990c0-3 11-27 25-54s25-44 25-38c0 14 28 5 52-16 14-12 20-12 33-2 23 19 18 36-15 60-16 12-30 18-30 14 0-3-7-1-15 6s-12 17-8 23c3 6 1 7-5 3-7-4-12-16-12-27 0-18-3-17-25 8-13 15-24 26-25 23z"/>
  <path id="bf" d="m3362 2967c-12-13-22-34-22-48 0-21 4-18 26 19 30 50 28 63-4 29z"/>
  <path id="bg" d="m3560 2953c1-40 24-53 94-53 37 0 66-4 66-10 0-5-15-27-34-47-42-48-87-119-79-127 3-3 13-1 23 4 39 21 100 37 106 28 5-8 1-35-12-79-7-24 81-139 106-139 19 0 20 7 20 126v125l-32 41c-18 22-44 44-57 49-19 8-21 12-11 24s5 18-33 34c-98 42-157 51-157 24zm180-139c0-6 7-17 15-24 18-15 20-31 3-25-21 9-60 73-52 86 5 9 11 7 21-6 7-11 13-24 13-31z"/>
  <path id="bh" d="m2180 2950c0-5-7-10-15-10-9 0-15-9-15-21 0-19 2-20 16-8 15 12 16 9 9-39-7-51-6-52 18-52 14 0 27 6 30 13 3 9 8 8 22-3s19-12 22-2c3 6 12 12 21 12 11 0 4 13-23 42-37 38-38 40-8 20 36-25 43-27 43-9 0 25-55 67-88 67-18 0-32-4-32-10z"/>
  <path id="bi" d="m2873 2933c-13-8-23-22-23-30 0-13 4-13 26 1 14 10 30 16 36 14 7-3-5-14-25-27-20-12-37-26-37-31 0-13 29-32 39-26 5 4 12 2 16-4 3-5 18-10 32-10 25 0 25 2 20 45-7 46-1 54 22 33 11-11 12-8 6 12-4 14-13 28-19 32-19 13-70 8-93-9z"/>
  <path id="bj" d="m1382 2911c-8-4-13-11-12-15s-19-29-44-56l-46-49v-251h25c35 0 109 94 100 128-18 73-18 82 1 82 11-1 37-7 59-15s46-15 52-15c17 0-35 84-82 133-21 22-34 45-31 53 6 16-2 18-22 5z"/>
  <path id="bk" d="m3134 2892c8-15 21-42 28-60s18-30 25-28c7 3 10-1 7-8s4-20 15-30c18-16 23-17 50-5 17 8 31 19 31 26 0 15-74 78-128 108l-42 24z"/>
  <path id="bl" d="m1280 2868v-32l23 22c19 19 20 24 7 32-25 16-30 12-30-22z"/>
  <path id="bm" d="m1898 2847c-50-41-73-77-48-77 19 0 38-25 43-56l4-29 2 29c1 23 4 26 15 17s19-4 40 24c15 19 22 35 15 35-8 0-10 11-6 34 5 29 3 34-10 29s-13-3-4 15c17 31 9 28-51-21z"/>
  <path id="bn" d="m3820 2871c15-29 30-35 30-13 0 11-7 23-16 26-24 9-26 8-14-13z"/>
  <path id="bo" d="m3624 2838c-4-7-14-24-22-38-14-24-13-24 3-5 20 24 37 55 31 55-3 0-8-6-12-12z"/>
  <path id="bp" d="m1988 2745c-25-34-22-43 3-11 12 15 20 29 18 31-2 1-12-7-21-20z"/>
  <path d="m2432 2760c-41-5-89-11-108-15-21-3-34-2-34 5 0 5-7 10-16 10-8 0-13-4-9-9 3-6-3-14-12-20-16-9-14-14 22-52 27-28 36-43 27-46-24-9 37-63 70-63 25 0 27 2 18 19-21 41-9 56 13 16 28-50 63-64 113-46 27 10 66 11 150 6l113-7 26 28c14 15 24 32 22 38-8 20 12 44 32 39 17-4 81 21 81 33 0 3-4 3-9 0s-20 5-32 19c-19 20-34 25-75 25-28 0-68 7-87 15-39 16-174 18-305 5zm204-31c4-7 7-29 8-49 1-33-1-37-16-29-10 5-18 18-18 28s-7 24-15 31-12 16-9 21c8 13 42 11 50-2zm-91-9c3-5 2-10-3-10s-15-13-22-30c-17-42-35-37-37 10-1 38 1 40 27 40 16 0 32-4 35-10zm194-132c-11-19-14-20-17-6-2 9 2 27 9 40 11 19 14 20 17 6 2-9-2-27-9-40z"/>
  <path id="bq" d="m2975 2703c-3-16-14-36-23-46-15-17-15-17 3-11 16 7 18 3 12-34-3-23-4-42-2-42 10 0 68 29 58 30-7 0-10 7-7 15 8 20 24 9 24-16 0-12 7-19 20-19 17 0 20 7 20 44 0 38-5 48-35 75-44 38-61 39-70 4z"/>
  <path id="br" d="m1451 2699c13-8 88-14 78-5-2 2-24 6-48 9-29 4-40 2-30-4z"/>
  <path id="bs" d="m2080 2692c-15-12-24-33-27-65l-6-47h60c60 0 60 0 55 27-3 17 1 30 12 38 15 11 15 13 1 19-8 3-15 15-15 26 0 26-48 28-80 2z"/>
  <path id="bt" d="m3633 2701c-24-4-46-10-49-14-14-13 61-6 86 8 27 16 25 16-37 6z"/>
  <path id="bu" d="m1785 2530c-18-36-19-129-1-152 21-28 29-21 22 21-6 42 11 68 39 58 8-4 17-1 21 4 3 6 18 8 32 4 28-7 42 7 42 41 0 26-17 34-70 34-21 0-42 5-45 10-11 17-24 11-40-20z"/>
  <path id="bv" d="m2093 2553c9-2 25-2 35 0 9 3 1 5-18 5s-27-2-17-5z"/>
  <path id="bw" d="m2980 2550c-12-8-12-10 5-10 11 0 27 5 35 10 12 8 12 10-5 10-11 0-27-5-35-10z"/>
  <path id="bx" d="m3188 2498c19-41 26-47 45-43 30 8 68-33 77-82l6-38 22 35c24 39 30 113 11 153-11 23-16 25-98 24h-87z"/>
  <path id="by" d="m2294 2531c4-6 2-20-4-31-18-34-3-39 50-17 51 21 57 37 14 37-14 0-35 5-46 11-14 8-18 8-14 0z"/>
  <path id="bz" d="m3440 2472c0-4-12-21-27-38-28-30-86-140-62-117 10 10 15 9 25-4 10-15 14-15 28-4 19 16 35 6 19-10-6-6-8-19-6-30 7-27 65-25 103 3 29 21 30 25 30 102 0 78-1 81-27 94-30 13-83 16-83 4z"/>
  <path d="m1615 2460c-4-6-3-40 1-77 6-56 12-72 41-104 30-33 42-39 75-39h40l-4 45c-2 25 0 45 4 45s0 12-8 28c-7 15-14 30-14 33s-15 23-34 43c-35 36-86 50-101 26z"/>
  <path id="ca" d="m2282 2105c-77-39-91-50-97-75-4-19-13-30-24-30-14 0-22-19-39-97-26-118-29-183-7-183 8 0 15-9 15-20 0-16 7-20 31-20 23 0 44 11 75 40 24 22 64 50 89 62 40 20 46 27 61 77 10 32 19 106 22 174 5 141 8 139-126 72z"/>
  <path id="cb" d="m2730 2038c0-56 5-130 11-165 11-63 12-64 61-89 27-14 69-43 93-65 30-28 51-39 74-39 30 0 31 2 31 40 0 29 4 40 15 40 8 0 15-4 15-10 0-5 18-10 39-10 33 0 40-4 45-25s12-25 41-25h35v48c-1 26-9 61-18 78-31 55-77 114-89 114-7 0-13 6-13 13 0 8-11 24-25 37-18 17-31 21-54 17-27-6-31-3-41 28-9 28-24 40-90 74-43 23-90 41-104 41h-26zm133-25c3-16 9-43 15-60 6-18 9-33 6-33-7 0-44 89-44 106 0 25 18 15 23-13zm52-171c-7-7-55 39-55 52 0 5 13-3 30-19 16-16 28-31 25-33z"/>
  <path id="cc" d="m3345 2025c-6-57-8-63-22-50-8 8-23 15-34 15s-22 7-25 15c-7 17-84 22-84 5 0-5-20-10-45-10s-45-4-45-8c0-16 46-52 67-52 28 0 67-33 104-87 23-33 28-48 20-56-6-6-11-20-11-30 0-17-2-18-17-6-15 13-15 11-9-25 5-28 4-41-6-47-7-5 60-9 155-9 92 0 167 3 167 7 0 11-61 116-80 138-9 11-20 28-23 38-6 15-3 16 13 7 32-17 33-12 6 36-14 26-26 49-26 51 0 8 44-10 58-23 17-17 32-18 32-2 0 20-148 158-169 158-16 0-20-11-26-65z"/>
  <path id="cd" d="m1614 2028c-50-52-107-125-123-155-18-36-5-27 17 11 11 19 50 68 86 110 73 84 83 100 20 34z"/>
  <path id="ce" d="m1659 2013c-86-89-125-142-169-230-43-87-47-103-26-103 8 0 18 14 21 32 13 56 56 121 126 191 38 38 69 66 69 62 0-3-9-24-21-46-21-42-17-68 5-36 7 9 16 17 19 17 11 0-13-54-33-75-14-16-58-93-78-137-2-5 66-8 151-8h155l5 29c3 16 9 41 13 56 4 18 3 26-3 22s-15 4-21 17c-22 48 61 150 87 107 4-6 23 8 45 35 21 25 36 47 35 49-2 1-41 6-86 10-58 5-83 4-83-4 0-6-8-11-18-11-11 0-30-9-43-21l-24-21-3 26c-2 14-8 26-13 26s-9 16-9 35c0 55-34 47-101-22zm-20-265c-12-21-13-21-17-4-2 10 2 22 9 27 20 12 22 4 8-23z"/>
  <path id="cf" d="m2002 1884c-41-56-62-104-62-144 0-28 2-30 38-30h39l22 83c37 141 24 174-37 91z"/>
  <path id="cg" d="m1561 1807c-25-39-61-110-61-118 0-5 7-9 15-9s15 7 15 16c0 8 11 40 25 71 27 57 29 78 6 40z"/>
  <path id="ch" d="m3560 1807c0-4 9-26 21-49 11-22 18-49 16-59-4-14 0-19 14-19 10 0 19 6 19 13 0 13-69 127-70 114z"/>
  <path id="ci" d="m2790 1744c25-14 55-35 67-46 13-12 25-19 28-16 7 6-48 49-92 72-51 26-53 18-3-10z"/>
  <path id="cj" d="m2296 1729c-27-16-46-32-44-35 3-2 29 11 58 31 64 43 53 47-14 4z"/>
 </g>
 <g id="ck" transform="translate(-1277,-1680)" fill="#535253">
  <path d="m2440 2860-35-19 90-2-50-20c-27-11-57-18-67-16-14 4-18-1-18-19 0-23 3-24 63-24 34 0 84 7 111 15s65 15 85 15 43 5 51 10c13 9 12 12-4 25-18 14-18 15-2 15 11 0 16 6 14 18-5 26-188 28-238 2z"/>
  <path id="cl" d="m2112 2324c-91-47-186-100-211-117-86-58-210-160-205-168 2-4 11-6 19-2 25 9 17-24-14-59-35-41-65-98-56-106 4-4 12 2 19 13 20 35 79 91 83 78 2-7 0-21-6-32-8-14-8-20 1-23 10-4 10-10 0-32-24-54 17-57 44-4 9 17 29 43 45 59 31 31 50 40 29 14-7-9-11-18-8-21s17 9 31 26c28 33 43 39 33 14-5-13-2-14 11-8 10 4 35 9 55 10 29 1 49 12 91 50 29 27 95 71 145 99 87 47 92 51 92 82 0 32-2 33-38 33-21 0-43-5-50-12-9-9-12-7-12 10 0 14-8 26-21 31-20 7-16 12 39 47 54 34 61 43 61 72 1 17-2 32-5 32s-80-39-172-86z"/>
  <path id="cm" d="m2946 2353c-11-12-6-81 7-86 6-3 2-6-10-6-17-1-23-7-23-25 0-22-3-23-45-18l-45 5v-37c0-24 5-36 14-36 22 0 162-88 216-137 43-39 57-45 100-48 37-2 50 1 50 11 0 26 16 14 45-31 28-45 47-56 25-15-6 12-10 24-7 26 7 7 31-20 56-60 18-28 71-75 71-62 0 2-7 20-16 41-14 34-14 37 0 32 20-8 20 12 1 37-32 42-15 48 31 11 25-20 47-36 49-34 2 3-16 31-41 63-24 33-44 64-44 68 0 24 51-9 109-70 35-37 55-53 43-37-38 55-179 179-290 253-79 54-288 163-296 155z"/>
  <path id="cn" d="m3415 2150c-19-12-24-20-14-20 9 0 24 9 34 20 23 25 18 25-20 0z"/>
  <path id="co" d="m3478 2139c-20-10-39-23-42-27-3-5 30-46 74-92 44-45 80-86 80-91s7-9 15-9c17 0 22 75 5 85-5 3-10 15-10 27 0 22-28 86-45 104-20 20-41 21-77 3z"/>
  <path id="cp" d="m1582 2128c-41-51-81-208-52-208 6 0 10 4 10 9s37 47 81 92l81 83-22 18c-26 21-83 24-98 6z"/>
  <path id="cq" d="m2075 1968-40-43 43 40c39 36 47 45 39 45-2 0-21-19-42-42z"/>
  <path d="m3050 1965c19-19 36-35 39-35s-10 16-29 35-36 35-39 35 10-16 29-35z"/>
  <path id="cr" d="m2482 1805c-99-22-240-93-227-115 3-5 148-9 323-9h317l-30 25c-45 39-143 83-221 99-81 17-81 17-162 0z"/>
 </g>
 <g id="cs" transform="translate(-1277,-1680)" fill="#5b5a5b">
  <path id="ct" d="m1677 3244c-26-20-47-41-47-47 0-5 21 10 48 33 26 24 49 45 51 47s2 3-1 3c-2 0-26-16-51-36z"/>
  <path id="cu" d="m1692 3203c-57-45-83-76-44-53 23 13 119 100 111 100-3 0-34-21-67-47z"/>
  <path id="cv" d="m1718 3095c-60-57-86-89-82-99 5-14 9-13 31 4 14 11 39 22 57 25 23 5 32 12 32 26 0 10-6 19-13 19-19 0-16 14 8 36 20 18 64 74 57 74-2-1-42-39-90-85z"/>
  <path id="cw" d="m3377 3114 48-57-34 8c-29 6-33 5-28-10 4-9 7-19 7-21s8-4 18-4c9 0 35-9 56-21 35-19 39-19 50-3 10 13 25 16 74 12 55-4 62-2 62 14 0 10-18 31-40 46-21 15-39 32-40 37 0 6-12 16-27 22l-26 13 23-25c29-31 20-44-14-21-39 25-43 19-11-14 16-16 24-30 17-30-6 0-14 5-17 10-3 6-17 7-31 4-20-5-34 3-76 45-28 28-53 51-55 51-3 0 17-25 44-56z"/>
  <path id="cx" d="m1628 3066c-29-23-37-46-15-46 12 0 53 58 45 65-1 2-15-7-30-19z"/>
  <path id="cy" d="m2795 2874-40-35 34 16c18 9 47 25 65 36 30 18 30 19 6 19-14 0-42-15-65-36z"/>
  <path id="cz" d="m2270 2895c0-2 24-16 53-30l52-26-35 31c-29 26-70 40-70 25z"/>
  <path id="da" d="m2825 2845c-49-42-92-52-133-31s-122 12-122-14c0-12 13-21 43-28 61-16 172-25 216-17 33 5 39 10 47 43s31 45 28 15c-2-17 4-16 22 1 19 19 19 50 0 43-8-3-20 1-26 9-18 21-31 17-75-21z"/>
  <path id="db" d="m2240 2860c0-5-7-10-15-10-10 0-15-9-14-27 2-24 2-25 6-5 2 12 8 22 13 22 13 0 30-34 30-58 0-25 25-32 123-32 70 0 77 2 77 20 0 15-7 20-29 20-36 0-87 22-126 55-30 25-65 33-65 15z"/>
  <path d="m2620 2850c38-12 109-12 90 0-8 5-37 9-65 9-40-1-45-3-25-9z"/>
  <path d="m3730 2695c0-21-48-133-67-156-20-24-16-39 12-39 38 0 95-27 95-44 0-9-9-16-20-16-31 0-36-28-10-55 13-13 28-35 34-47 8-16 22-24 44-26l32-3v125c0 75-4 127-10 131s-33 38-60 77c-28 40-50 63-50 53z"/>
  <path id="dc" d="m1361 2648c-19-27-45-57-58-67-22-18-23-25-23-130v-111h35c26 0 42 8 63 30 16 17 34 30 41 30 6 0 11 7 11 15s-14 17-35 21-35 12-35 21c0 17 59 43 100 43h31l-27 46c-15 25-37 69-48 98l-22 53z"/>
  <path id="dd" d="m1473 2473c9-2 25-2 35 0 9 3 1 5-18 5s-27-2-17-5z"/>
  <path id="de" d="m2890 2356c0-13 9-35 21-50 11-14 16-26 9-26-6 0-15-11-20-25s-16-25-25-25c-8 0-15-9-15-19 0-13 15-27 45-42 25-12 45-25 45-29 0-3 10-7 22-7 18-2 20 0 8 7-8 5-11 10-7 10 5 0 1 7-7 16-9 8-16 27-16 41 0 23 3 25 30 20 27-6 30-4 30 18 0 17-6 25-17 25-14 0-15 2-4 9s10 11-4 19c-24 13-11 31 18 26 12-3-3 9-33 25-67 37-80 38-80 7z"/>
  <path id="df" d="m2034 2282c-158-87-158-87-150-101 6-9 17-6 43 9 19 11 39 18 44 15 5-4 9-1 9 5s5 8 10 5c6-3 10 1 10 10s4 14 9 11c4-3 20 7 34 23s46 39 71 52c25 12 46 26 46 31 0 11 9 15-126-60z"/>
  <path id="dg" d="m2143 2298c-30-22-40-35-33-43s3-18-11-31c-44-40-40-54 6-22 37 26 46 37 42 56-3 18 2 26 19 34 13 6 24 17 24 25 0 17 2 18-47-19z"/>
  <path d="m3126 2244c19-29 102-74 136-74 19 0 15 5-22 31-46 31-115 69-125 69-3 0 2-12 11-26z"/>
  <path id="dh" d="m1495 2170c-3-5-15-10-25-10s-32-11-48-25c-24-20-41-25-86-25h-56v-240h25c13 0 34 11 47 24s44 36 70 50l47 26-30-65c-29-64-35-98-23-129 11-27 21-18 64 57 67 118 100 185 106 215 6 34 35 62 64 62 46 0 36 15-29 44-60 27-115 34-126 16z"/>
  <path id="di" d="m3507 2154c-26-14-29-34-6-34 6 0 17-7 25-15 9-8 12-15 8-15s0-8 9-18c9-9 19-33 22-52s11-40 16-47c6-7 8-16 6-20-3-5 8-29 25-53 16-25 43-71 59-103 17-32 35-57 42-54 7 2 13 22 15 45 3 41-25 110-69 174-39 54-14 52 58-7 44-36 62-45 94-45h39v188l-31 6c-17 3-43 6-57 6s-34 8-45 18c-13 11-38 18-74 19-30 0-60 6-66 12-15 15-36 13-70-5z"/>
  <path id="dj" d="m2382 2120c0-19 2-27 5-17 2 9 2 25 0 35-3 9-5 1-5-18z"/>
  <path d="m2720 2065c0-78 2-85 20-85s20 7 20 66c0 62 1 64 17 48 14-13 18-14 22-3 2 8 9 17 15 21s-5 14-26 23c-66 27-68 25-68-70z"/>
  <path id="dk" d="m2303 2117c-47-23-55-37-20-37 40 0 65 11 70 31 7 28-3 29-50 6z"/>
  <path id="dl" d="m3007 2098c-8-25 5-47 39-67 27-16 34-17 34-6 0 8-6 15-12 15-9 0-9 3-2 8 6 4 4 13-8 24-10 10-20 13-23 7-9-14-25-1-18 16 3 8 3 15 0 15s-7-6-10-12z"/>
  <path id="dm" d="m2e3 2090c-8-5-11-12-7-16s13-2 19 4c15 15 7 24-12 12z"/>
  <path id="dn" d="m3235 2069c11-55 16-69 25-69 25 0 13 54-19 89-11 13-12 10-6-20z"/>
  <path id="do" d="m1956 2061c-21-23-6-36 20-16 14 10 16 17 8 25-7 7-15 5-28-9z"/>
  <path id="dp" d="m1859 2039c-1-13-1-27 0-31 0-5-3-8-9-8-5 0-10-8-9-17 0-11 3-13 6-5 2 6 8 10 13 7 4-3 15 6 23 19 15 22 15 25-3 41-19 17-20 17-21-6z"/>
  <path id="dq" d="m3468 2010c39-43 55-69 32-55-21 13 2-21 26-38 64-47 17 31-63 103-36 33-36 33 5-10z"/>
  <path id="dr" d="m2597 1777c-2-7-1-22 4-33 10-29 7-30-41-26-38 4-41 7-37 28 2 13 1 24-4 24-12 0-29-35-29-60 0-12-4-18-10-15-5 3-10 1-10-4 0-7 35-11 94-11 91 0 129 11 86 25-12 4-20 14-19 23 3 34-1 50-15 55-8 3-17 1-19-6z"/>
 </g>
 <g id="ds" transform="translate(-1277,-1680)" fill="#645559">
  <path d="m1550 3721c0-24-6-31-43-45-23-9-53-16-65-16-27 0-30-26-4-32 15-4 18-12 14-37l-4-31h51c90 0 221 79 221 134 0 44-21 56-99 56h-71z"/>
  <path id="dt" d="m2060 3735c0-8-7-15-16-15-27 0-13-111 23-191 30-66 31-66 78-72 80-11 95-9 95 13 0 13 7 20 20 20 11 0 20 7 20 15 0 10 10 15 29 15 29 0 79 21 90 38 3 5 47 15 96 23 103 16 214 9 227-15 11-20 65-46 95-46 16 0 27-7 30-20 3-11 14-20 24-20 11 0 19-4 19-10 0-5 20-10 44-10 39 0 45 3 56 30 10 23 19 30 40 30 23 0 30 7 49 51 26 63 29 159 6 159-8 0-15 5-15 10 0 7-175 10-505 10-442 0-505-2-505-15zm390-47c0-29-17-21-29 13-15 43-14 45 9 24 11-10 20-26 20-37zm270 43c0-4-5-23-11-40-8-22-15-29-22-22s-6 20 3 40c11 29 30 42 30 22zm191-76c-3-31-35-105-45-105-21 0-26 12-11 27 8 7 19 32 25 54s16 39 21 37c6-2 10-8 10-13z"/>
  <path id="du" d="m3446 3714c-3-9-6-28-6-43 0-27 30-55 93-88 21-11 87-5 87 8 0 5 9 9 20 9 16 0 20 7 20 33 0 29-4 35-37 46-21 8-56 22-77 32-49 23-92 25-100 3z"/>
  <path d="m3770 3647c0-8 9-17 21-20 37-10 10-27-43-27-39 0-49-3-45-14 3-8 9-30 12-49 5-28 3-37-11-45-15-9-16-13-5-26 16-19 45-20 106-4 44 12 45 13 45 51 0 36-2 39-23 34-12-4-29-2-36 3-21 12 4 40 36 40 21 0 24 4 21 33s-6 32-40 35c-28 2-38-1-38-11z"/>
  <path id="dv" d="m1633 3566c-54-27-82-47-82-58-1-12 7-18 22-18 21-1 21-1-5-18-23-13-28-24-28-54 0-31 4-39 24-44 13-3 32-5 42-4 11 1 33 2 49 1l30-1-25-20c-21-16-22-20-7-20 10 0 27 5 39 11 37 20 30 1-11-27-27-19-41-37-41-51 0-34 39-29 86 10 21 19 50 40 63 46 20 11 23 18 18 52-5 36-3 40 48 79l53 41-10 42c-5 23-11 44-14 47-3 2-19-3-35-13-17-9-48-17-70-17-37 0-39 2-39 30 0 18-5 30-12 29s-50-20-95-43zm195-112c-42-39-79-57-78-36 1 11 113 93 119 86 3-3-15-25-41-50z"/>
  <path id="dw" d="m3423 3562 5-41-22 20c-16 16-32 20-67 17-28-2-51 2-58 10-24 25-39 12-50-39-13-60-2-82 62-123 19-13 27-27 27-47 0-23 7-31 34-43 18-8 37-19 41-25 4-7 14-9 23-7 10 4 30-5 46-19 21-18 25-25 13-25-9 0-22 9-29 20s-17 20-22 20c-6 0 5-16 24-35 39-41 75-46 84-12 9 32 9 32-27 45-19 7-44 23-57 37l-23 25h34c19 0 40-5 47-12 9-9 12-7 12 10 0 12 6 22 14 22 7 0 19 7 26 15 7 9 29 15 51 15 32 0 39 4 39 19 0 11-8 22-19 26-10 3-26 14-36 25-18 19-17 20 4 20 42 0 19 32-39 54-30 12-75 32-99 45l-44 23z"/>
  <path id="dx" d="m1565 3190c-16-16-37-33-48-36-11-4-31-19-45-35-20-25-31-29-73-29-37 0-49-4-49-15 0-8 7-15 15-15 9 0 18-8 22-17 14-41 73-83 73-53 0 5 12 21 27 35s23 25 18 25 28 38 75 85l85 85h-36c-26 0-43-8-64-30z"/>
  <path id="dy" d="m1750 2977c0-7 11-28 24-47s21-43 18-53c-4-17-11-18-50-13l-46 6 21-22c23-27 36-58 24-58-11 0-61 58-61 71 0 5-38 9-85 9-80 0-85-1-85-21 0-12 26-48 62-85 57-59 64-64 105-64 40 0 55-11 33-25-5-3-10-11-10-17 0-20 42 26 65 73 13 25 46 73 74 106 48 58 50 61 32 77-9 9-23 16-29 16-12 0-38 40-34 53 1 4-11 7-28 7-18 0-30-5-30-13z"/>
  <path d="m2116 2930c-20-34-36-66-36-71s11-9 25-9 25 4 25 9 12 23 26 40c17 20 24 40 22 57-5 46-23 38-62-26z"/>
  <path id="dz" d="m3320 2960c-19-17-42-30-51-30-35 0-29-31 15-83 24-29 60-80 80-114 35-59 39-63 73-63 32 0 44 9 105 73 37 39 75 80 84 89 28 29 7 38-86 38-77 0-89-2-94-18-4-10-19-28-36-40l-29-22 10 29c6 16 20 33 32 39 18 9 12 10-30 5-47-5-53-4-53 13 0 11 11 37 25 59 13 22 25 43 25 48 0 17-37 4-70-23z"/>
  <path id="ea" d="m1858 2810c-19-21-41-52-48-67-8-15-29-46-47-67-32-39-39-67-27-113 9-33 16-29 43 22 18 34 30 45 47 45s24 6 24 20c0 11-7 23-15 26-22 9-18 24 5 24 11 0 20-7 20-15 0-9 9-15 23-15 20 0 23 4 19 35-4 29-1 34 12 29 12-4 15-2 10 9-3 8-1 18 5 22 6 3 11 13 11 22 0 13-2 13-17 2-13-11-17-11-20-1-3 6-12 12-20 12-13 0-13 3 1 25 24 37 12 30-26-15z"/>
  <path id="eb" d="m3238 2796c-19-10-29-11-37-3-22 22-10-5 17-39 23-29 33-34 70-34 23 0 42 3 42 7 0 10-52 83-59 83-3 0-18-6-33-14z"/>
  <path d="m2830 2739c0-32 3-40 15-35 9 3 15 0 15-8 0-13 20-26 41-26 17 0 49 40 49 60 0 11-7 20-15 20s-14-5-12-12c1-6-6-14-16-16-13-3-22 5-30 27-7 19-18 31-29 31-14 0-18-8-18-41z"/>
  <path d="m2118 2732c-1-4-20-18-40-31-21-12-38-29-38-36 0-9-15-15-42-17-49-3-65-30-26-42 22-7 22-8-8-21-17-7-36-21-43-29-8-9-24-16-37-16-31 0-31-26 0-34 13-3 27-16 31-28 6-22 7-22 20 8 20 44 70 83 116 90 28 5 39 11 35 20-9 24 12 64 41 76 16 7 29 13 31 14s0 13-4 28c-6 24-28 36-36 18z"/>
  <path id="ec" d="m2980 2705c0-3 15-19 34-36 28-24 33-35 29-59-4-29-3-30 38-30 25 0 50-7 61-16 15-14 20-15 34-3s13 14-7 21c-18 7-20 11-10 18 8 4 20 6 28 3s13 2 13 15c0 23-18 32-64 32-23 0-39 8-58 30-20 23-35 30-62 30-20 0-36-2-36-5z"/>
  <path id="ed" d="m1670 2622c0-4-10-12-22-17-25-12-46-64-47-118-1-47-23-74-41-52-11 14-80 22-80 10 0-3 16-20 35-37 54-47 62-68 36-89-28-23-27-53 4-73 38-25 51-19 24 11l-24 26 27-19c15-10 28-24 28-30s10-20 23-32c28-27 107-32 107-7 0 10 11 15 35 15 34 0 35 1 35 42 0 27-8 51-23 72-29 39-37 58-47 121-17 105-42 185-56 185-8 0-14-3-14-8zm20-226c26-31 10-27-27 7-12 11-20 24-17 29 4 6 9 6 13 1 3-4 17-21 31-37zm3-53c17-16 27-23 23-16-3 6-2 14 3 18 6 3 8-4 6-16-3-13 1-29 7-36s8-17 4-21c-8-8-86 71-86 88 0 16 12 12 43-17z"/>
  <path id="ee" d="m3411 2538c-12-46-21-92-21-103s-11-44-25-72c-19-42-21-53-10-53 9 0 15-10 15-22 0-22 1-21 24 7 17 21 21 34 14 42-6 8 3 27 31 63 37 46 46 52 42 28-2-14 16-8 32 10 43 47-5 180-64 182-12 0-22-22-38-82z"/>
  <path id="ef" d="m1806 2571c-23-43-20-52 5-12 11 18 18 35 15 38-2 3-12-9-20-26z"/>
  <path id="eg" d="m1976 2491c-10-11-16-26-13-33 4-10 6-10 6 1 1 8 8 23 18 33 9 10 14 18 11 18s-13-9-22-19z"/>
  <path id="eh" d="m1480 2393c0-14 49-58 57-50 3 4 4 8 2 10-2 1-16 13-31 26-16 14-28 20-28 14z"/>
  <path d="m3442 2314c-82-85-89-109-38-118 19-4 36-11 38-17s26 0 58 15c30 14 63 26 72 26 34 0 48 12 48 41 0 21-9 34-34 51-28 20-32 27-24 42 8 14 7 21-3 27-28 18-46 7-117-67zm78 23c0-14-58-62-66-54-6 6 45 67 57 67 5 0 9-6 9-13z"/>
  <path id="ei" d="m1956 1814c-10-21-25-58-32-81-14-47-9-53 51-53 41 0 50 21 39 88l-7 47-10-37c-12-49-24-49-19 1 7 66-1 78-22 35z"/>
  <path id="ej" d="m3157 1785c3-65 2-68-11-41-11 23-14 25-19 11-4-9-7-30-7-46v-29l68 1c50 0 61 3 45 9-13 5-23 17-23 27s-13 45-28 78l-28 59z"/>
 </g>
 <g id="ek" transform="translate(-1277,-1680)" fill="#625f60">
  <path id="el" d="m1645 3732c-16-10-32-18-34-19s-1-10 3-19c6-15 8-15 24-2 10 10 24 13 37 8 19-7 19-7 0-18s-19-11 3-12c39 0 62 18 62 50 0 27-3 30-32 29-18 0-46-8-63-17z"/>
  <path id="em" d="m1917 3732c-17-19-23-62-9-62 4 0 13 9 20 20 7 12 24 25 37 30 14 5 25 14 25 20 0 17-56 11-73-8z"/>
  <path d="m2625 3738c-2-7-5-26-7-42-4-44-28-46-28-2 0 29-4 36-20 36-17 0-20-7-20-44 0-34 4-46 18-49 16-4 16-5 0-6-11-1-18-9-18-21 0-17 7-20 49-20 34 0 51 4 55 15 4 10-1 15-15 15-21 0-21 1 0 83 5 22 5 39 0 43-5 3-11-1-14-8z"/>
  <path id="en" d="m3149 3737c6-8 8-17 4-20-3-4-1-12 4-19 16-19 15-133-1-208-8-36-12-68-9-72 12-20 22-2 38 65 9 39 23 99 31 133 24 105 14 134-47 134-25 0-29-3-20-13zm53-47c3-16 1-30-3-30-5 0-15 14-24 30-15 28-14 30 4 30 13 0 20-9 23-30z"/>
  <path id="eo" d="m1948 3671c-7-12-18-21-25-21-16 0-17 11 7-100 27-126 29-130 46-130 10 0 13 6 10 18-21 67-35 210-22 231 4 7 6 15 3 18s-12-4-19-16z"/>
  <path id="ep" d="m3052 3610c-15-37-29-60-39-60-9 0-13 6-9 15 13 34-15 12-35-27-12-24-26-46-32-50-10-6-3-90 9-109 3-5 21-9 39-9 30 0 39 6 62 43 72 115 97 257 44 257-11 0-24-20-39-60z"/>
  <path id="eq" d="m3605 3645c27-13 27-14 8-15-13 0-23-5-23-11s-9-9-20-6c-16 4-20 0-20-18 0-27 17-35 77-35 40 0 44 2 33 15s-10 14 5 9c14-6 16-3 11 13-4 13-1 25 9 33 23 19 1 30-60 29l-50-1z"/>
  <path id="er" d="m2020 3588c0-25 12-68 31-110l32-68h43c44 0 44 0 44 35 0 28-5 37-24 44-16 7-32 30-51 75-23 55-32 66-52 66s-23-5-23-42z"/>
  <path id="es" d="m3700 3590c0-5 10-20 22-32 27-27 39-6 12 23-19 21-34 25-34 9z"/>
  <path id="et" d="m1753 3564c-7-3-13-16-13-28 0-19 6-23 28-23 15 0 36-3 47-7 21-6 84 39 71 51-8 9-117 14-133 7z"/>
  <path id="eu" d="m3240 3559c0-13 38-49 51-49 4 0 19 5 33 11 20 9 29 9 41-1 13-11 15-8 15 19v31h-70c-45 0-70-4-70-11z"/>
  <path d="m1868 3503c-17-34-10-44 12-18 6 8 10 22 8 32-3 14-7 11-20-14z"/>
  <path id="ev" d="m3228 3512c-4-15 0-22 15-26 28-7 29-5 8 23-18 23-18 23-23 3z"/>
  <path d="m1625 3425c-25-16-47-22-62-19-27 7-33-20-8-30 9-3 15-14 13-23-4-24 36-29 67-9 13 9 31 16 40 16 8 0 15 9 15 20s-6 20-14 20c-24 0-29 20-10 35 31 23 2 16-41-10z"/>
  <path id="ew" d="m3620 3415c0-17 5-25 18-25 10 0 22-4 28-8 5-5 28-5 52 0 37 8 43 13 40 31-3 20-10 22-70 25-67 3-68 3-68-23z"/>
  <path id="ex" d="m3675 3350-40-7h35c19-1 49 3 65 7 27 7 27 8 5 7-14 0-43-3-65-7z"/>
  <path id="ey" d="m1618 3277c-50-22-56-31-35-58 25-33 50-30 95 12 23 22 42 45 42 51 0 9-3 9-12 0-17-17-39-15-32 3 8 19 0 18-58-8z"/>
  <path id="ez" d="m3536 3161c23-22 44-47 48-56 3-10 12-15 20-12 9 4 22-6 34-24 11-17 23-32 28-32 4-1 9-10 9-20 1-12-21 4-64 47-37 36-71 66-76 66s-20 10-34 22c-16 14-13 8 7-13 17-19 32-38 32-42 0-13-23-7-44 11-20 16-20 16-6-2 8-10 48-41 90-69 61-41 84-52 128-55l53-5-21 40c-19 37-38 53-82 67-12 3-18 16-18 34 0 27-4 30-41 35-23 3-51 15-63 26-12 12-26 21-32 21-5 0 9-18 32-39z"/>
  <path id="fa" d="m1565 3155c-22-19-34-35-27-35s29 16 50 35c48 45 29 45-23 0z"/>
  <path id="fb" d="m1596 3124c-32-25-55-48-52-51 6-6 30 11 81 55 58 51 35 48-29-4z"/>
  <path id="fc" d="m1611 3096c-24-18-42-37-40-42s7-8 11-7c4 2 5-4 2-12-5-11 1-15 18-15 16 0 30 10 42 31 19 33 17 49-4 24-7-8-17-15-23-15s-1 10 10 23c20 22 37 48 31 46-2 0-23-15-47-33z"/>
  <path id="fd" d="m1742 2983c36-70 49-110 46-135-7-42 19-49 49-14 22 26 31 61 15 68-4 2-22 22-40 46-20 24-42 42-54 42-11 0-18-3-16-7z"/>
  <path id="fe" d="m3343 2968c-5-7-14-25-21-40-19-46 19-36 46 12 21 38 22 40 4 40-11 0-24-6-29-12z"/>
  <path d="m2061 2851c-17-21-31-44-31-50 0-14 39-24 76-19 27 3 29 6 27 42-3 37-17 66-33 66-5 0-22-18-39-39z"/>
  <path id="ff" d="m2993 2821c-8-42-7-48 6-45 9 2 37 6 63 9l48 6-27 40c-19 30-32 39-53 39-25 0-28-5-37-49z"/>
  <path d="m2906 2851c-11-4-15-10-9-14 5-3 10-20 11-37 2-61 36-71 46-12 11 70 3 81-48 63z"/>
  <path id="fg" d="m1750 2755c7-8 11-15 9-16-31-5-97-2-107 5-11 8-13 2-10-25 3-33 4-34 50-37 43-3 48-1 62 27 20 38 20 47 0 55-14 5-15 4-4-9z"/>
  <path id="fh" d="m2434 2573c20-24 60-30 85-14 11 7 10 11-7 20-30 16-52 14-52-6 0-14-3-14-22 3l-23 19z"/>
  <path d="m1348 2514c-46-39-57-54-38-54 15 0 100 69 100 81 0 17-18 9-62-27z"/>
  <path id="fi" d="m3494 2505c4-11 0-25-9-35-11-12-13-20-5-25 5-3 7-11 4-17-5-7 0-9 14-6 30 8 29-24-1-54-97-96-125-158-91-203 12-16 17-17 32-7 9 7 37 22 62 35 25 12 56 30 70 40 40 28-3 21-46-8-20-14-42-25-48-25-11 1 24 35 65 64 13 8 20 19 16 23-8 7-67-32-80-54-8-14-37-18-37-5 0 4 21 26 47 49 27 23 42 42 35 43-7 0-35-21-63-47-27-25-52-43-55-40-11 10 107 126 122 120 11-4 14 7 13 53-1 77-11 108-33 112-14 3-17 0-12-13z"/>
  <path id="fj" d="m1593 2465c-18-20-17-82 2-89 10-4 15 1 15 15 0 16 4 18 28 13 22-6 25-5 16 7-6 8-14 26-18 42-7 29-24 34-43 12z"/>
  <path id="fk" d="m2322 2424c-40-19-71-38-68-43s-1-12-10-15c-9-4-45-27-80-53-48-35-61-50-53-59 6-7 8-18 4-25-5-8 1-9 24-4 37 8 50-12 33-50s3-40 54-6c59 40 66 39 24-4-39-40-26-46 34-16 21 11 69 28 107 38 68 17 69 18 69 50 0 28-4 33-24 33-31 0-41 38-31 126 4 35 3 64-2 63-4 0-41-16-81-35z"/>
  <path id="fl" d="m1293 2443c-9-3-13-34-13-105v-101l76 6c68 6 78 10 107 40 18 18 43 41 56 50l25 16-29 23c-80 65-124 73-167 27-23-24-32-28-43-19s-12 17-4 32c12 23 9 37-8 31z"/>
  <path id="fm" d="m2762 2405c3-24 0-35-9-35-17 0-18-86-2-96 8-4 2-12-15-21-16-8-26-22-26-36 0-19 12-26 73-45 82-26 108-29 89-10-18 18-14 27 10 20 16-4 19-2 13 8s-3 12 11 8c15-4 20 0 21 15 3 33 17 38 56 17 42-23 57-26 39-8s-15 38 6 32c19-6 5 7-63 59-22 18-34 34-31 43 3 8 2 13-3 9-5-3-11-2-13 3-3 7-141 72-154 72-3 0-4-16-2-35z"/>
  <path id="fn" d="m3708 2428c-16-5-28-14-28-19 0-40 115-169 152-169 15 0 18 9 18 49s-3 50-20 54c-11 3-23 13-26 24-7 20-54 73-63 72-3 0-18-5-33-11z"/>
  <path id="fo" d="m3572 2300c14-22 24-19 15 5-4 8-11 15-17 15s-6-7 2-20z"/>
  <path id="fp" d="m1504 2278-29-31 33 23c17 13 32 27 32 32 0 13-5 10-36-24z"/>
  <path id="fq" d="m1583 2255c0-14 4-25 9-25s6 5 3 10c-3 6-1 10 4 10 6 0 11-6 11-14s23-33 50-56c28-23 50-37 50-31s12 11 26 11c23 0 25 3 22 37-3 33-7 38-38 46-19 5-44 16-55 25s-4 0 14-21c38-40 23-53-19-17-13 11-28 20-33 20-6 0-18 7-27 15-16 15-17 14-17-10z"/>
  <path id="fr" d="m3580 2183c-8-3-26-10-40-15-24-9-24-9 25-57 28-26 57-56 65-66 16-20 18-20-31-1-26 11-15-47 19-96 16-23 39-62 51-86 30-59 45-54 39 13l-5 55 26-22c14-13 27-26 29-31 5-11 58-37 77-37 12 0 15 13 15 68-1 58-2 65-14 50-7-10-18-18-23-18-10 0-89 59-171 126-29 24-31 29-19 42 13 13 19 13 47-1l31-16-3 32c-2 25-8 33-27 35-13 2-31 10-38 18-15 15-28 16-53 7z"/>
  <path d="m2680 2108c0-28 4-65 9-82s16-71 23-120l13-89 36-13 36-12-9 36c-21 85-38 211-36 261 1 46-1 56-18 62-46 18-54 12-54-43z"/>
  <path id="fs" d="m3760 2121c0-42 13-54 63-55 24-1 27 2 27 35 0 44-15 59-57 59-32 0-33-2-33-39z"/>
  <path id="ft" d="m2154 2031c-73-47-125-101-128-132-6-45-47-194-57-204-5-5-9 1-9 18 0 15-4 27-9 27-11 0-41-39-41-52 0-5 57-8 128-8h127l-1 43c-1 60-3 64-19 43-21-27-19-11 7 106 11 54 25 95 29 92 4-2 5-21 2-42-3-20-3-35-1-32 5 4 48 162 48 175 0 12-20 3-76-34z"/>
  <path id="fu" d="m2912 2028c20-85 26-103 27-85 1 14 21 27 21 13 0-5 29-122 37-150 4-14 1-17-9-14-19 8-39-24-27-43 5-8 9-26 9-41v-28h155c153 0 155 0 143 20-11 18-14 18-16 4-3-12-11-15-34-10-17 3-38 6-48 6-11 0-20 10-24 28-3 15-15 58-25 97-11 38-17 73-15 77 12 19-162 168-196 168-4 0-3-19 2-42zm138-152c11-44 20-86 20-95-1-30-18 11-35 84-8 39-18 79-21 90-5 14-3 17 5 10 6-6 20-46 31-89z"/>
  <path id="fv" d="m2346 1859c-9-34-15-63-13-65s18 2 36 9c25 9 31 16 27 32-3 11-6 35-6 53 0 54-25 38-44-29z"/>
  <path id="fw" d="m3370 1867c0-8 10-22 21-33l22-19-17 33c-18 34-26 40-26 19z"/>
  <path id="fx" d="m3340 1695c0-10 10-15 26-15 22 0 25 2 14 15-7 8-19 15-26 15-8 0-14-7-14-15z"/>
  <path id="fy" d="m1740 1690c0-5 11-10 25-10s25 5 25 10c0 6-11 10-25 10s-25-4-25-10z"/>
 </g>
 <g id="fz" transform="translate(-1277,-1680)" fill="#666">
  <path id="ga" d="m3155 3698c12-67 16-76 36-81 30-8 34 17 7 45-13 13-29 33-35 44-12 17-12 17-8-8z"/>
  <path d="m1948 3671c-7-12-18-21-25-21-15 0-18-26-4-34 18-11 40 6 46 36 9 37 0 46-17 19z"/>
  <path id="gb" d="m2016 3654c-3-9-6-33-6-55 0-35 3-39 24-39 20 0 23 4 19 23-4 22-4 22 10-2 22-36 28-11 10 42-16 48-44 64-57 31z"/>
  <path id="gc" d="m3390 3550c0-5-7-10-15-10-23 0-18-12 22-47 36-33 66-45 44-19-9 11-7 15 8 19 11 2 24 0 30-6 19-19 13 31-6 53-18 21-83 29-83 10z"/>
  <path d="m3320 2922c0-5-9-19-20-32-26-30-26-34 10-72 17-18 27-25 24-15-3 9-1 17 5 17 7 0 7 8 1 26-7 18-6 33 5 55 15 27 14 29-5 29-11 0-20-4-20-8z"/>
  <path id="gd" d="m2088 2885c-16-22-16-24 3-41 25-22 10-41-20-25-19 11-21 9-21-19 0-29 2-30 45-30h45l-2 53c-1 28 1 61 6 72 7 18 6 18-4 3-13-22-27-23-32-4-2 10-8 8-20-9z"/>
  <path id="ge" d="m1385 2539c-4-6-5-13-2-16 7-7 27 6 27 18s-17 12-25-2z"/>
  <path id="gf" d="m2463 2487c-51-22-91-44-90-50 1-5-18-25-43-45-25-19-46-41-48-48-2-8-30-32-63-55-32-22-59-42-59-45 0-7 129 64 165 92 39 29 45 30 45 4 0-11-19-41-41-65-45-48-42-57 6-25 35 23 46 25 40 8-3-7-1-19 4-27 8-12 12-13 25-1 9 7 20 10 24 6s-2-14-12-22c-18-13-17-14 16-14 46 0 68 22 68 66 0 30-3 34-25 34-30 0-33 16-5 25 11 4 23 20 28 38l8 32 7-27c6-23 13-28 37-28 25 0 30-4 30-24 0-39 59-103 107-115 23-6 50-11 60-11 15 0 16 2 3 10-13 9-7 14 13 11 4 0 7 4 7 9s3 9 8 9c22-4 52 2 52 11 0 5-13 25-30 43-16 19-30 40-30 47 0 6 16-7 35-30s35-39 35-35 6 2 14-4c11-10 16-8 24 5 11 20 18 18 97-31 52-31 65-31 35 0-13 14-29 25-36 25-6 0-22 9-35 20-21 17-22 19-5 20 29 0 3 25-76 71-38 22-66 44-63 50 4 5 5 9 3 9s-55 23-118 50c-63 28-116 49-120 49-3-1-46-19-97-42z"/>
  <path id="gg" d="m3645 2443c-37-19-75-53-75-67 0-5 12 2 28 16 15 14 43 35 62 47 41 24 29 28-15 4z"/>
  <path id="gh" d="m3675 2413c-17-9-40-25-52-36l-23-20 53-56c28-31 61-59 72-62s36-16 55-27c54-33 70-29 70 16 0 34-6 44-49 80-26 22-56 57-65 76-21 45-25 47-61 29z"/>
  <path id="gi" d="m1467 2394c-6-6 32-64 42-64 3 0 12 4 20 9 11 7 8 14-15 35-31 27-37 30-47 20z"/>
  <path id="gj" d="m1308 2287c-22-17-28-32-28-60 0-46 21-49 81-12 22 14 44 23 50 19 10-6 38 22 39 39 0 4-11 7-24 7-14 0-28 5-31 11-5 7-15 5-31-5-31-21-37-20-29 4 8 25 7 25-27-3z"/>
  <path id="gk" d="m3590 2307c0-2 14-16 31-33 18-17 28-22 24-12-6 14-55 55-55 45z"/>
  <path id="gl" d="m1515 2175c-3-8-7-22-10-30-5-18 6-20 23-3 9 9 12 7 12-9 0-12-7-29-16-37-9-9-11-16-4-16 12 0 24 9 70 52l29 26-46 16c-56 19-53 19-58 1z"/>
  <path id="gm" d="m2424 2158-41-9-7-102c-3-56-9-132-12-169-5-49-3-68 5-68 32 0 141 34 141 44 0 6-18 20-40 30-28 13-39 24-36 35 11 36 38 220 34 233-2 11-12 12-44 6z"/>
  <path id="gn" d="m1287 2143c-4-3-7-25-6-47 0-23 3-35 6-29 3 9 10 10 24 3 13-8 25-7 40 1 12 6 30 9 40 6 27-7 25 30-3 54-22 18-88 26-101 12z"/>
  <path id="go" d="m3740 2127c-14-7-26-22-28-33-3-18 2-20 43-20 46 1 47 1 41 31l-6 30 20-24 20-23v26c0 23-4 26-32 26-18 0-44-6-58-13z"/>
  <path id="gp" d="m1436 2005c-22-19-45-35-51-35-7 0-30-16-51-35s-42-35-46-35-8-13-8-30c0-21 5-30 16-30 26 0 104 42 104 56 0 6 7 14 15 18 20 7 19 4-15-61-24-44-30-68-30-114 0-50 3-59 18-59 13 0 25 17 41 54 12 30 21 60 20 68-4 17 8 51 42 122 35 72 37 96 8 96-11 0-17 5-14 10 13 20-11 8-49-25z"/>
  <path d="m3690 1820c6-12 8-29 5-39-3-11 2-37 11-60 13-33 21-41 41-41 25 0 26 2 20 53-9 83-21 107-57 107-28 0-30-2-20-20z"/>
 </g>
 <g id="gq" transform="translate(-1277,-1680)" fill="#6c6d6d">
  <path d="m1890 3421c0-5-10-11-22-13-18-2-24-11-26-37-3-29-1-33 15-26 10 4 30 10 46 13 27 4 34 22 21 56-7 17-34 22-34 7z"/>
  <path id="gr" d="m3288 3383c-45-7-32-30 27-52 73-27 84-26 55 4-17 19-20 25-8 25 8 0 15 7 15 15 0 15-26 17-89 8z"/>
  <path id="gs" d="m1774 3357c1-15-118-127-136-127-6 0-17 8-24 18-12 15-13 13-14-20 0-54 18-49 104 26 40 35 83 67 95 71 13 4 21 13 19 23-4 21-47 29-44 9z"/>
  <path id="gt" d="m2940 2970c0-46 3-60 15-60 8 0 22-11 31-25 13-20 14-32 5-75-6-28-11-53-11-55 0-11 65-4 96 11 39 19 41 25 15 48-16 14-24 15-40 6-23-12-45-5-36 11 4 5 17 9 31 9 24 0 32 14 15 25-21 12-70 97-77 130-4 25-11 35-25 35-17 0-19-8-19-60z"/>
  <path id="gu" d="m2170 2841c1-70 33-98 45-38 4 17 11 34 16 37 4 3-8 10-27 16-33 11-34 10-34-15z"/>
  <path id="gv" d="m2475 2435c-21-20-24-29-16-39 13-16-5-40-37-50-9-3-22-14-29-25-10-15-9-18 5-17 12 1 16-5 14-22-3-22-1-23 27-17 27 6 30 4 24-12-3-10-10-23-15-30-14-17 7-20 78-9 43 6 79 6 109-1 25-6 48-6 51-2 3 5 0 9-7 9-9 0-10 3-3 10 8 8-1 23-29 51-22 22-37 43-33 47s15-3 24-15c15-19 71-53 87-53 4 0 3 9 0 20-7 23-2 25 26 9 18-9 19-8 11 8-6 10-20 27-31 37-12 11-21 25-21 33 0 7-4 13-10 13-5 0-10-4-10-10 0-5-4-10-10-10-16 0-12 22 8 36 16 13 15 15-8 34-51 40-79 35-80-15 0-23-18-45-36-45-7 0-18 15-24 34-18 54-34 62-65 31z"/>
  <path d="m2735 2400c10-11 22-20 27-20s4 9-2 20-18 20-27 20c-14 0-14-2 2-20z"/>
  <path id="gw" d="m2475 2169c-38-9-40-11-43-49-1-22-10-79-20-127-9-49-16-95-14-103 6-31 67-53 124-47 33 4 80 1 123-9 115-24 132-27 116-16-7 5-11 14-8 19 4 6 2 25-3 44-11 40-29 165-34 229-3 45-4 45-50 54-25 5-49 6-53 2-4-3-2-26 5-50 6-24 14-73 18-110 7-63 6-66-15-66-12 0-29-6-37-14-12-13-18-13-42 0-15 7-34 14-43 14-15 0-15 7-2 83 22 130 26 157 22 156-2-1-22-5-44-10z"/>
  <path d="m3680 1976c0-10-6-13-16-9-17 6-16-21 4-70 7-16 12-36 12-46 0-17 42-71 55-71 3 0 5 20 5 45v45h40c22 0 40 3 40 6 0 8-77 76-111 97-25 17-29 17-29 3z"/>
  <path d="m1445 1971c-37-11-86-42-80-51 3-5-4-11-15-15-26-8-16-25 15-25 21 0 26-6 31-40 4-22 10-40 13-40 12 0 51 76 51 100 0 12 5 31 11 42 13 24 1 37-26 29z"/>
 </g>
 <g transform="translate(-1277,-1680)" fill="#727272">
  <path d="m2032 3718c-6-25-3-42 16-81 27-54 36-57 22-6-17 59-10 66 17 14 29-57 31-60 38-53 3 2-4 31-16 62-27 78-20 106 9 38 29-67 39-62 16 7-16 50-17 51-55 51-35 0-39-3-47-32z"/>
  <path d="m2325 3720c8-16 15-36 15-45 0-8 6-15 14-15 11 0 11 9 3 45-8 33-15 45-29 45-17 0-18-2-3-30z"/>
  <path id="gx" d="m2394 3685c12-37 27-65 35-65s11 6 6 17c-3 10-11 39-16 65-8 35-15 48-28 48-16 0-16-5 3-65z"/>
  <path id="gy" d="m2537 3718c12-97 33-107 49-23l10 55h-31c-30 0-31-2-28-32z"/>
  <path id="gz" d="m2720 3726c-4-13-14-42-20-65-8-30-16-41-30-41-13 0-20-7-20-20 0-17 7-20 44-20 31 0 46 5 50 16 9 22 8 23-14 17-24-6-24-9 0 63 23 69 23 74 10 74-6 0-15-11-20-24z"/>
  <path id="ha" d="m3380 3720c0-22 5-30 18-30 10 0 23-5 29-11 15-15 66-3 56 14-5 9-3 9 8 1 8-6 31-9 52-7 33 5 37 8 37 34v29h-200z"/>
  <path id="hb" d="m1840 3615c0-20-5-25-25-25s-25-5-25-24 7-25 34-30c18-4 42-3 52 0 16 6 17 5 7-7-17-18-16-29 2-29s18-3 4 77c-9 51-15 63-30 63-14 0-19-7-19-25z"/>
  <path id="hc" d="m2535 3620c-15-6-7-9 30-9s45 3 30 9c-11 5-24 9-30 9-5 0-19-4-30-9z"/>
  <path id="hd" d="m2405 3600c-27-7-25-8 18-9 26 0 47 4 47 9 0 11-21 11-65 0z"/>
  <path id="he" d="m1380 3581c0-28-26-44-65-39l-35 4v-42c0-72 48-89 170-60 49 11 55 15 58 41 3 21 0 26-11 22-9-3-32-9-51-13-33-6-36-4-36 17 0 13 4 39 9 57 9 30 8 32-15 32-17 0-24-6-24-19z"/>
  <path id="hf" d="m1680 3541c-15-4-26-15-28-29-5-30-50-60-98-64-36-3-39-6-42-35s0-33 20-33c13 0 30-6 37-12 11-10 13-10 7 0-4 7-2 12 5 12 23 0 199 144 199 163 0 9-66 7-100-2zm5-40c-3-5 3-11 12-13 13-3-1-16-46-46-35-23-68-42-73-42-23 0-1 29 50 67 62 45 66 47 57 34z"/>
  <path d="m3710 3470v-30h140v30c0 27-3 30-29 30-16 0-41-4-55-10-16-6-27-6-31 0-12 20-25 9-25-20z"/>
  <path id="hg" d="m1715 3420c-16-11-43-22-60-26-36-8-98-48-88-57 15-16 109-6 138 13 40 27 64 25 75-4 8-22 13-24 37-16 50 14 63 22 57 32-3 5 3 12 15 15 32 8 14 23-29 23-21 0-42 5-45 11-4 6-19 7-35 4-21-5-29-2-32 9-3 14-7 13-33-4z"/>
  <path id="hh" d="m3230 3385c0-8 10-19 21-26 25-13 89-18 89-7 0 5 8 8 18 8 11 0 18 8 19 20 2 18-4 20-73 20-58 0-74-3-74-15z"/>
  <path d="m1280 3165v-105h68c37 0 77-3 90-6 20-6 22-3 22 30 0 20-5 36-11 36-5 0-7 5-4 10 11 18 25 10 25-15 0-18 5-25 20-25 11 0 23 6 26 14s15 17 27 20c30 9 126 96 105 96-8 0-23 11-32 25-13 20-20 23-40 15-13-5-47-9-75-8-31 0-61-6-76-16-24-16-25-15-31 9-6 23-11 25-60 25h-54z"/>
  <path id="hi" d="m3500 3256c0-10-8-16-22-16-20 0-17-5 22-45 37-37 50-45 81-45 21 0 41 5 44 10 3 6 17 10 31 10 23 0 25 3 22 43l-3 42-55 1c-30 0-70 4-87 8-27 7-33 6-33-8z"/>
  <path d="m3720 3230c0-11-7-20-15-20-12 0-15-13-15-59 0-75 18-91 102-91h58v177l-37 7c-71 11-93 8-93-14z"/>
  <path id="hj" d="m2146 2984c-3-8-3-26 0-38 3-14-3-39-15-62-20-37-28-32-21 16 1 10-3 9-14-5-13-18-13-22 5-41 10-11 19-26 19-32 0-21-28-25-46-8-22 23-32 17-61-31l-25-42h164l-7 37c-4 20-9 48-12 62-6 32 30 82 53 73 20-7 35 16 27 42-13 42-55 60-67 29z"/>
  <path d="m2578 2904c-11-3-18-15-18-29 0-22 5-24 83-30 102-9 131-5 135 18 3 14-4 17-36 17-22 0-42 5-44 11-4 12-91 21-120 13z"/>
  <path id="hk" d="m3317 2842c-5-7-14-9-20-5-7 4 1-8 16-26 15-19 39-55 51-80 13-25 33-55 45-65 26-24 26-43 1-134-22-79-25-112-10-112 17 0 43 61 31 73-13 13-15 47-2 47 4 0 6 12 3 28-5 26-4 26 15 10 30-27 36-22 31 27-3 25-2 48 3 51 12 7 12 74 0 74-5 0-14-7-21-15-14-17-40-20-40-4 0 17-34 56-46 52-14-5-41 36-46 68-2 17-6 20-11 11z"/>
  <path id="hl" d="m2908 2822c-3-11 0-34 6-53 17-51 14-64-16-67-19-2-25-8-21-18 14-37 73 8 73 56 0 17-8 46-19 65-15 29-19 32-23 17z"/>
  <path d="m1738 2768 24-26-36-17c-29-14-39-15-51-5-13 11-15 8-15-17 0-17 8-37 18-46 17-16 20-15 44 11 26 28 48 64 48 79 0 4-13 17-28 27l-27 19z"/>
  <path d="m3331 2707c12-24 31-50 43-57l21-13-21 24c-12 13-29 39-38 57-9 17-19 32-21 32-3 0 5-19 16-43z"/>
  <path id="hm" d="m2840 2715c0-9 6-12 15-9 8 4 15 10 15 15s-7 9-15 9-15-7-15-15z"/>
  <path id="hn" d="m1590 2386c0-8-6-16-12-19-8-3 21-40 72-91 78-80 83-86 57-86-32 0-35-19-9-43 25-23 33-22 78 13 33 27 38 37 41 80 2 43-1 53-27 82-17 18-30 37-30 43 0 5-4 4-9-4-6-10-3-27 10-52 46-90 12-91-77-1-67 66-63 53 5-20 30-32 32-38 16-38-11 0-39 21-63 45-38 39-43 49-37 75 4 19 3 30-4 30-6 0-11-6-11-14z"/>
  <path id="ho" d="m3333 2311c-15-19-21-41-21-73 0-41 3-48 41-77 49-37 57-38 87-6 12 13 47 34 76 46 30 13 54 29 54 36 0 15-16 18-25 4-3-5-26-21-51-35-44-25-47-25-60-9-12 16-8 24 44 70 31 29 51 53 44 53s-35-20-61-45c-55-51-72-58-45-17 17 26 17 27-2 12-10-8-29-23-41-34-34-29-28-5 12 46 19 25 31 48 28 52-16 15-59 3-80-23z"/>
  <path id="hp" d="m2496 2164c-9-8-16-17-16-18 0-2-9-61-20-132-11-70-17-130-14-133s11 2 19 12c13 18 37 15 66-9 11-10 24-11 52-3 20 5 37 13 37 17s11 7 25 7 25-4 25-8c0-5 5-5 11-2 6 4 8 13 5 21-3 7-10 53-16 101-6 49-15 100-20 116-6 19-5 27 3 28 25 3-50 17-95 18-30 1-52-4-62-15z"/>
  <path id="hq" d="m2435 2088c-19-48-34-210-18-193 6 6 15 46 22 90 6 44 13 95 17 113 7 44-1 40-21-10z"/>
  <path d="m1360 1725c0-41 2-45 24-45 15 0 26 7 29 20 3 11 1 18-4 14-5-3-9 9-9 25 0 24-4 31-20 31-17 0-20-7-20-45z"/>
 </g>
 <g id="hr" transform="translate(-1277,-1680)" fill="#787878">
  <path id="hs" d="m1280 3725c0-19 6-25 23-27 32-2 40-1 60 7 13 5 17 2 17-14 0-19-6-21-50-21h-50v-41c0-36 2-40 23-37 15 2 21 9 19 22-3 17 3 18 80 15 73-3 92 0 156 25 72 29 101 50 88 63-4 4-20 2-36-4-35-13-38-8-8 16 21 17 20 18-43 20-37 1-82-5-108-14-53-18-51-18-51 0 0 12-13 15-60 15-57 0-60-1-60-25z"/>
  <path id="ht" d="m1706 3738c4-6-1-17-11-25-11-7-15-13-10-13s-6-14-25-31c-33-28-23-31 10-3 8 7 35 13 60 15 54 3 100 27 100 51 0 15-9 18-66 18-47 0-63-3-58-12z"/>
  <path id="hu" d="m2029 3708c-21-80-28-161-18-208 15-67 32-114 45-125 7-6 19-27 27-48 14-33 20-37 51-37 29 0 36 4 36 20 0 15 9 21 41 26 40 7 41 7 37 45-3 32 0 39 14 39 12 0 18 8 18 23 0 16 9 26 30 34 27 10 30 16 30 53 0 38-2 41-16 29-20-16-27-6-54 80-25 79-25 79 4 74 21-4 24-2 19 16-4 17-13 21-44 21h-38l29-81c17-44 35-89 40-100 9-16 7-19-8-19-21 0-44 45-77 148-10 28-21 52-26 52-8 0 1-27 60-177 20-50 20-53 3-53-18 0-45 58-89 188-14 41-16 42-59 42-42 0-43-1-55-42zm181-216c0-29-25-3-57 59-44 85-61 88-23 5 23-53 26-66 14-66-19 0-75 121-79 171-1 20-6 42-10 49-4 6-4 14 0 18 3 3 10 0 15-8 7-12 10-11 16 5 6 15 20-7 65-101 32-65 58-125 59-132zm-150 119c0-23 47-130 68-153 13-16 13-18 0-18-9 0-29 31-52 80-35 77-47 128-26 115 6-3 10-14 10-24z"/>
  <path id="hv" d="m2770 3684c-15-45-29-68-41-71-11-3-19-14-19-24 0-15 7-19 31-19 27 0 30 2 19 15-7 8-8 15-3 15 9 0 27 50 51 138 2 6-1 12-6 12-6 0-20-30-32-66z"/>
  <path id="hw" d="m2832 3713c-15-48-7-54 23-18 19 23 24 26 25 13 0-26 15-22 28 7 16 35 17 35-26 35-36 0-39-3-50-37z"/>
  <path id="hx" d="m2929 3683c-30-91-54-144-62-136-4 3-20 7-37 8-44 3-39-30 12-82 37-38 42-48 39-83-2-36 0-40 21-40 29-1 58-22 58-44 0-12 9-16 36-16 30 0 37 4 45 30 6 17 15 30 20 30 13 0 27 31 49 117 22 84 20 133-10 242l-11 42-46-3-45-3-17-55c-27-86-72-180-87-180-19 0-18 8 17 91 47 112 59 149 49 149-4 0-18-30-31-67zm101-11c-22-66-84-182-98-182-17 0-18-4 49 139 50 106 76 129 49 43zm16-78c-29-72-30-74-17-74 6 0 20 28 33 63 14 38 24 54 26 42 6-44-87-233-109-220-5 4-7 11-3 16 3 5 0 17-7 25-9 12-2 37 42 137 38 86 55 115 57 99 2-13-8-52-22-88z"/>
  <path id="hy" d="m3300 3736c0-19 48-56 65-50 7 3 19-3 26-14 21-28 46-38 84-34l35 4-23 19c-13 11-17 18-9 19 8 0 10 5 6 13-6 9-4 9 7 1 29-22 178-76 190-68 21 13 123 4 135-12 19-25 34-15 34 21 0 34-1 36-35 33-56-4-65 18-11 26 40 6 46 10 46 32s-4 24-50 24c-38 0-50-4-50-15 0-19-5-19-66 0-27 8-73 15-103 15-46 0-52-2-41-15s8-15-14-15c-15 0-36-5-46-10-13-7-21-7-25 0-3 5-15 10-25 10-13 0-17 5-14 15 5 12-5 15-55 15-46 0-61-3-61-14z"/>
  <path id="hz" d="m1825 3669c-16-11-52-31-78-45-33-17-47-30-43-39 3-8-3-19-14-25s-20-18-20-27c0-11-4-13-12-5-8 5-22 6-33 1-28-11-47-11-40 0 7 13-85-18-105-34-8-7-29-15-46-18-18-3-43-9-57-12-19-5-33 1-61 25l-36 32v-161l45-7c25-3 48-10 51-15 8-14-70-11-85 4-10 10-11-2-9-58 2-57 6-70 20-73 13-2 16 1 12 12-5 12 0 16 22 16 28-1 28-1 10-15-19-15-19-15 2-15 20 0 21-3 12-20-9-18-8-20 16-20 14 0 38 8 52 18 51 36 57 33 13-6-24-22-41-46-39-53 3-8-2-19-11-26-13-10-9-12 25-13 30 0 46 6 60 23 35 39 53 75 49 96-2 11 2 24 8 28 7 4 3 9-13 13-34 8-36 32-5 69l27 31h-51c-68 0-147 18-163 37-12 15-9 16 27 10 22-4 75-10 118-14 68-5 77-4 71 10-3 10 3 20 18 27 13 7 46 30 75 51 29 22 66 40 85 42 18 2 43 9 55 15 12 7 32 12 45 12 19 0 20 2 8 11-12 8-9 9 13 5 16-4 27-2 27 4s4 8 10 5c6-4 7 1 3 11-3 9-7 28-8 43-1 14-3 36-3 49-2 27-9 27-47 1z"/>
  <path id="ia" d="m2340 3681c0-23 24-71 35-71s10 8-2 40c-14 36-33 54-33 31z"/>
  <path id="ib" d="m3252 3626c-17-90-19-86 42-86 35 0 58-5 66-15 15-18 75-21 64-3-4 7-3 8 5 4 6-4 9-11 6-16-2-4 6-10 20-12 21-4 25-1 25 18 0 13-5 24-11 24-5 0-8 4-5 8 8 14-30 50-82 77-26 13-60 33-77 44-16 12-33 21-36 21s-11-29-17-64z"/>
  <path id="ic" d="m1698 3644c-38-20-36-28 2-9 17 9 30 18 30 20 0 7-1 6-32-11z"/>
  <path id="id" d="m2370 3590c0-5 11-10 25-10s25 5 25 10c0 6-11 10-25 10s-25-4-25-10z"/>
  <path id="ie" d="m1881 3545c5-22-22-64-65-102-25-22-46-43-46-47 0-3 11-13 24-21 20-13 31-14 72-4 27 7 52 16 55 21 7 11-20 140-33 153-6 7-9 7-7 0z"/>
  <path id="if" d="m3215 3457c-10-42-16-79-13-83 10-9 179-14 173-4-3 4 0 10 6 12s-11 19-38 38c-50 35-71 56-96 93-13 20-15 17-32-56z"/>
  <path id="ig" d="m3820 3479c0-8-22-9-75-4l-75 7v-36c0-31 3-36 24-36 14 0 28-5 31-10 4-6 23-7 48-3 38 6 41 5 29-10-16-19-95-37-163-37h-51l27-31c30-36 29-63-2-67-27-4-20-42 9-42 12 0 17 4 12 12-4 7-3 8 4 4 20-12 13-26-12-26-14 0-28-4-31-10-11-18-36-11-75 20-21 17-41 30-46 30-4 0-19 10-33 22s12-17 59-65c47-47 90-85 97-82 6 2 14-3 17-10 4-10 14-13 34-9 17 4 32 1 36-5 7-11 76-16 76-5 0 3-10 14-22 25-13 11-18 19-13 18 34-5 38 2 14 29-13 15-17 21-9 15 8-7 25-13 39-13h24l-21 23c-12 13-22 26-22 29s23 3 50 0l50-5v129l-41-4c-51-5-46 13 6 22l35 7v64c0 51-3 65-15 65-8 0-15-5-15-11z"/>
  <path id="ih" d="m3560 3329c0-17 27-45 35-37 3 3-3 16-14 29-16 19-20 20-21 8z"/>
  <path id="ii" d="m2858 3006c-37-42-63-60-115-81-61-25-79-27-181-26-141 2-204 23-277 91-37 35-61 49-92 55-43 7-43 7-43-23 0-17-3-38-7-48-3-10-2-15 3-12 10 6 36-17 28-25-2-2 3-10 12-17 11-10 18-10 22-3 5 7 30-3 72-28 36-22 75-42 88-46 31-8 233 7 227 17-8 12 35 20 58 10 12-5 18-10 12-11-5-1 15-5 45-9 52-7 59-5 124 31 56 32 75 38 103 33l33-6v152l-32-1c-27 0-42-10-80-53z"/>
  <path id="ij" d="m1507 2864c-17-17-2-42 66-112 42-44 67-77 60-79-16-6-17-50-2-92 10-29 13-31 28-17 10 9 23 16 29 16 7 0 12 14 12 33 0 18 5 38 12 45 10 10-7 32-77 102-49 49-86 93-82 96 4 4 7 2 7-5s5-9 11-6c6 4 8 9 6 12-9 8-63 14-70 7z"/>
  <path id="ik" d="m2480 2799c-59-18-142-21-200-8-11 3-15-6-17-38l-2-43 72 1c40 1 77 5 82 9 6 5 64 12 130 15 97 6 127 4 156-8 20-8 59-16 85-17 84-4 83-5 81 43-2 32-6 41-17 38-35-9-179 0-219 14-54 19-70 18-151-6z"/>
  <path id="il" d="m3061 2804c-12-9-34-17-49-18-24-3-27-7-30-48-3-38 0-46 21-55 30-14 107-1 119 21 5 9 16 16 24 16 11 0 7 12-16 44-38 56-42 59-69 40z"/>
  <path id="im" d="m3180 2812c0-6 11-24 25-40 26-31 32-70 15-103-9-17-7-19 17-19 28 0 97 21 109 32 3 3-1 20-10 36-12 24-24 31-60 36-33 5-52 15-71 37-14 17-25 26-25 21z"/>
  <path id="in" d="m2053 2780c-23-9-32-40-13-40 6 0 10-8 10-17 0-10 10-27 22-38 21-20 25-20 50-6 24 14 28 23 28 58 0 38-3 43-22 42-13-1-30 1-38 4s-25 2-37-3z"/>
  <path id="io" d="m1856 2745c-35-18-50-19-40-2 4 8 4 9-3 2-26-28-35-107-11-106 9 0 28-6 77-25 50-21 61-18 61 16 0 19-5 30-14 30-14 0-33 38-38 77-3 22-4 22-32 8z"/>
  <path d="m3453 2699c1-6-6-16-16-22-15-10-21-8-33 7-8 11-14 16-14 12 0-5 11-21 25-38 14-16 26-36 26-44 1-8 2-18 3-23 0-6 11-19 24-31 21-20 22-20 22-2 0 11 7 25 15 32 21 17 20 90 0 90-9 0-18 7-21 15-7 17-35 21-31 4z"/>
  <path id="ip" d="m1835 2590c11-5 27-9 35-9 13-1 13 0 0 9-8 5-24 9-35 9h-20z"/>
  <path id="iq" d="m2890 2590c-13-8-12-11 5-24 11-9 28-16 37-16 15 0 16 4 6 25-12 27-24 30-48 15z"/>
  <path id="ir" d="m3534 2422c-27-17-26-52 3-82 15-17 32-30 37-30 6 0 2 6-9 14-17 12-16 16 25 60l43 46h-44c-24 0-49-4-55-8z"/>
  <path id="is" d="m1328 2245-48-30v-160l21 33c22 33 33 39 44 22 3-6 20-17 36-26 29-15 31-14 65 15 19 17 42 31 52 31 9 0 30 11 47 24l29 24-54 10c-30 6-64 13-75 15-21 3-22 7-11 43 6 19 2 22-26 25-24 3-46-4-80-26z"/>
  <path id="it" d="m3590 2266c0-8-10-16-22-18-13-2-24-10-26-18-2-14 6-14 63-6l65 10-22 23c-24 26-58 31-58 9z"/>
  <path id="iu" d="m3696 2245c8-19 10-36 6-38-4-3-31-8-59-12-29-4-56-11-59-16s-11-7-17-3c-7 3-3-1 8-10 11-8 25-20 32-26 7-5 20-10 30-10 9 0 31-14 49-31l31-30 36 18c20 10 38 25 40 33 2 10 11 2 26-22 13-21 25-38 27-38s4 36 4 79v79l-47 28c-27 15-64 29-85 30l-36 2z"/>
  <path id="iv" d="m2472 2088c-25-149-25-151-11-146 13 4 29 65 44 166 5 33 3 42-8 42-10 0-18-19-25-62z"/>
  <path id="iw" d="m2625 2108c11-74 37-178 46-184 11-7 11 3-1 91-17 123-20 135-36 135-13 0-15-8-9-42z"/>
  <path id="ix" d="m2550 2020c0-34 3-40 21-40 15 0 19 4 15 16-3 9-6 27-6 40 0 15-6 24-15 24-11 0-15-11-15-40z"/>
  <path id="iy" d="m1385 1910c-22-4-55-15-72-24l-33-17v-189h55c52 0 55 1 55 25 0 13 9 48 20 77 10 29 19 72 18 96-1 23-2 41-3 41 0-1-18-5-40-9z"/>
  <path id="iz" d="m3706 1868c1-24 10-76 20-115l19-73h105v191l-42 19c-24 11-57 20-73 20-29 0-30-2-29-42z"/>
 </g>
 <g id="ja" transform="translate(-1277,-1680)" fill="#909190">
  <path id="jb" d="m1328 3733c-27-9-48-19-48-24 0-4 20-11 45-15 60-8 67-24 13-26l-43-1 39-4c28-3 44 1 60 15 11 11 31 23 44 27s22 14 22 26c0 16-7 19-42 18-24 0-64-7-90-16z"/>
  <path id="jc" d="m3672 3728c4-29 65-44 132-34 53 8 60 24 16 33-17 3-33 10-36 14-3 5-30 9-60 9-52 0-55-2-52-22z"/>
  <path id="jd" d="m2800 3606c-13-41-20-44-45-16-23 26-55 26-55 1 0-10 6-24 14-31 11-8 13-24 9-61l-6-49h42c36 0 41-3 41-23 0-13-7-32-15-43-8-10-15-36-15-56 0-37 1-38 35-38 26 0 39 6 51 25 9 14 25 25 35 25s23 9 29 19c12 24 13 34 1 27-5-4-4 7 2 24 11 29 9 32-41 83-29 29-49 57-45 61s0 4-10 0c-23-8-31 15-17 51 6 15 9 30 6 32-2 2-9-12-16-31z"/>
  <path id="je" d="m2465 3612c-49-8-92-19-94-24s-14-13-27-18c-13-6-29-21-34-35s-20-27-35-31c-18-4-25-13-25-30 0-19-5-24-25-24-28 0-33-24-14-63 6-13-2-8-21 13l-31 35 7-37c6-34 4-38-16-38-17 0-20-4-15-21 4-13 3-19-2-16-6 4-21 35-33 69-21 56-24 60-30 38-4-14-12-24-18-22-16 3-15-7 7-64 11-27 29-77 41-111 23-64 50-85 50-38 0 23 4 25 40 25h40v47c0 44 1 45 19 29 10-9 41-19 70-23l51-6v39c0 26-9 53-26 77-15 23-24 48-22 65 3 24 8 27 46 30 39 3 42 5 42 32 0 37 26 52 105 59 56 6 60 8 63 34 2 18-1 27-10 26-7-1-53-9-103-17z"/>
  <path id="jf" d="m3573 3513c-13-2-23-11-23-19s-7-14-15-14c-21 0-19-26 3-34 9-3 32-17 51-31s46-25 60-25c20 0 23 2 11 10-11 7-3 10 29 10 42 0 43 1 28 18-15 16-14 17 24 14 21-2 41-8 44-12 5-8 45-2 45 8 0 12-37 31-61 32-15 0-29 7-33 15-4 10-13 14-28 10-13-3-43 1-67 10-24 8-44 14-45 14 0-1-11-4-23-6z"/>
  <path id="jg" d="m3250 3472c0-15 36-42 56-42 16 0 15 4-10 25-30 26-46 31-46 17z"/>
  <path id="jh" d="m3025 3383c-19-53-41-83-32-45 3 15 1 22-9 22-17 0-33 30-26 50 4 12 2 13-9 2-8-7-12-27-10-47 1-20-4-44-13-57-9-12-16-37-16-55 0-28 4-33 23-33 23 0 23-2 16-59-3-32-10-64-13-70-4-6-4-36-1-66 11-84 44-67 45 21 0 17 22 98 49 178 46 139 48 148 34 176-8 17-16 30-17 30-2 0-11-21-21-47z"/>
  <path d="m3475 3363c42-46 108-84 121-71 2 3-7 19-21 38-19 25-22 37-14 47 9 11 0 13-48 13-33 0-65 6-73 12-8 7 7-11 35-39z"/>
  <path id="ji" d="m1464 3259c-24-8-39-38-27-50 5-5 25 2 46 14 33 20 35 24 19 33-10 7-26 8-38 3z"/>
  <path id="jj" d="m2147 3073c9-66 19-97 31-101 7-2 12 5 12 17 0 25 8 26 32 4 17-15 18-14 18 25 0 25-6 46-15 54-9 7-22 19-30 26-7 6-23 12-34 12-17 0-19-5-14-37z"/>
  <path d="m2699 2961c-19-15-35-17-116-13-66 3-93 1-93-7 0-6-16-11-36-11-41 0-74-15-74-34 0-21 37-26 194-25 176 1 209 12 214 72 3 36 2 37-31 37-19 0-45-8-58-19z"/>
  <path id="jk" d="m3600 2863c-8-2-27-24-42-49-15-24-35-47-45-51-25-10-57-52-61-81-2-17 3-25 18-29 24-6 25-16 5-33-16-13-21-60-6-60 4 0 14-20 21-45 10-37 17-45 36-45 20 0 24 5 24 30 0 17 5 30 10 30 6 0 10 16 10 35 0 24-5 35-15 35-27 0-16 31 15 41 35 13 41 44 9 52-26 7-20 31 28 104 19 28 32 57 28 62-6 11-10 12-35 4z"/>
  <path id="jl" d="m1990 2748c-26-36-20-58 17-58 26-1 27-2 10-14-17-14-17-15 5-21 13-4 26-13 30-19 5-7 11-6 20 5 7 9 23 23 36 31l23 16-22 21c-13 12-24 28-25 37-3 23-10 27-43 29-22 1-35-6-51-27z"/>
  <path id="jm" d="m3091 2741c-8-5-10-14-6-21 6-10 1-11-19-6-25 6-66-7-66-22 0-18 57-37 95-32 34 4 37 6 20 14s-15 10 17 15c36 6 37 7 25 31-13 26-43 36-66 21z"/>
  <path id="jn" d="m1630 2715c0-16-6-25-15-25-11 0-15-11-15-36 0-48 16-74 45-74 28 0 28 0 15 34-7 21-6 26 5 26 20 0 19 44-1 75-21 32-34 32-34 0z"/>
  <path id="jo" d="m1587 2543c-12-11-8-133 4-133 21 0 41 31 44 68 1 20 6 45 10 55 6 14 2 17-22 17-16 0-33-3-36-7z"/>
 </g>
 <g transform="translate(-1277,-1680)" fill="#969797">
  <path id="jp" d="m2546 3615c-3-9-19-15-41-15-36 0-36-1-33-37 3-35 5-38 38-41 30-2 37 2 53 29 21 37 23 79 3 79-8 0-16-7-20-15z"/>
  <path d="m2640 3601c0-11 5-23 10-26 6-3 10-17 10-31 0-13 5-24 10-24 15 0 11-73-5-94-19-25-19-83-1-93 8-4 16-19 18-33 2-21 9-26 41-28 32-3 37-7 37-28s4-24 40-24c35 0 42 4 52 28 9 21 12 23 15 10 3-10-14-43-36-74l-41-57v36c0 34-2 37-29 37-65 0-121-58-121-124 0-35 1-36 41-36 24 0 38-4 34-10-3-5-17-10-31-10-15 0-24-6-24-15 0-8-7-15-15-15s-15-7-15-15c0-7-7-18-16-23-23-13-10-47 18-50 51-4 61-2 82 16 36 33 50 38 37 14-6-12-19-26-29-31-14-9-12-10 13-10 48-1 107 32 157 87 41 46 46 49 51 31 9-34 26-12 24 31-1 37-4 40-29 40-18 0-31-7-35-17-6-16-65-74-70-69s22 56 30 56c4 0 7 5 7 11s27 47 60 91c44 57 60 88 60 111v31l-20-22c-28-30-36-28-15 4 14 21 16 39 11 80-4 31-2 55 4 59 5 3 10 11 10 18 0 6-16-5-36-24-29-27-34-29-24-11 6 13 9 26 7 29-5 4-17-7-42-42-12-16-16-17-23-7s-15 4-31-23c-12-21-24-35-27-32s6 23 20 44c27 39 33 63 16 63-5 0-10 14-10 30 0 22-5 30-18 30-15 0-17 6-14 35 6 47-5 44-18-5-6-22-15-40-19-40-5 0-4 18 1 41 10 37 9 43-13 64-13 13-43 26-66 30-39 6-43 5-43-14zm130-516c-13-14-26-23-28-20-3 3 5 16 18 30s26 23 28 20c3-3-5-16-18-30z"/>
  <path id="jq" d="m2322 3558c-5-7-13-23-16-36-4-12-11-20-14-18-4 2-6-13-4-35 3-24 0-39-7-39-10 0 9-40 46-96 8-14 13-27 10-30-2-3-15 11-27 31-23 37-40 43-21 7 18-33 13-37-13-13-14 13-30 36-36 52-14 34-35 39-27 7 6-20 4-20-19 5-25 27-45 38-27 15 6-7 13-22 15-33 3-11 9-29 14-39 6-15 4-17-7-11-12 8-12 6 0-8 7-9 26-17 42-17s29-5 29-11c0-21 62-99 79-99 10 0 24-15 34-35 14-30 21-35 52-35 35 0 35 1 35 43 0 24-8 56-20 75-19 31-19 32-1 32 16 0 20 11 26 66 6 56 4 68-12 86-14 16-17 33-15 79l4 59h-41c-42 0-50-7-29-28 6-6 8-15 4-19-10-10-48 36-40 48 8 14-2 11-14-3z"/>
  <path id="jr" d="m2118 3249c-4-71 10-119 34-119 16 0 18 9 18 63s-4 67-24 86l-25 23z"/>
  <path id="js" d="m2282 3025c2-38-1-66-7-68-18-7 15-34 68-57 41-18 57-20 82-13 16 6 44 11 60 12 17 1 32 6 33 11 2 6 12 10 23 10 12 0 19 7 19 20 0 16-7 20-34 20-35 0-95 39-149 99-22 23-37 31-64 31h-35z"/>
  <path id="jt" d="m1547 2760c33-64 26-73-52-60-32 5-61 8-63 6-6-6 34-93 69-149 34-55 32-73-6-83-37-9-31-27 19-59 24-15 49-38 54-50 9-20 4-28-44-69-30-26-54-51-54-57 0-5 30-9 67-9 66 0 66 0 48 20-27 29-28 53-4 79 12 12 23 40 26 62 3 21 10 39 14 39 5 0 9 5 9 11 0 5-5 7-11 4-7-5-9 6-7 31 2 22 8 38 14 37s18 16 28 38c17 38 17 40-3 65-26 33-26 40 0 47 18 5 20 11 15 34-11 42-84 113-118 113h-27z"/>
  <path id="ju" d="m1781 2689c-29-39-26-49 14-47 19 1 35 5 35 10 0 11 37 10 61-3 11-5 17-14 14-20-4-5-12-6-18-3-7 4-4-1 5-11 24-26 103-10 103 20 0 16-7 20-40 21-21 1-41 6-43 13-2 6-10 11-18 11s-32 8-54 19l-38 18z"/>
  <path id="jv" d="m3278 2696c-21-8-38-11-38-7 0 3-7-3-15-13-18-24-76-24-112-1-13 9-40 15-62 14l-38-3 32-33c21-22 41-33 60-33 15 0 45-5 67-12 33-10 44-9 76 6 20 10 60 20 89 23l52 6-27 33c-30 38-32 38-84 20z"/>
  <path id="jw" d="m3518 2633c-21-8-38-19-38-23 0-15 31-40 48-40 15-1 15-2-1-11-14-8-17-18-12-36 4-16 2-22-5-18-6 4-10-7-10-29 0-19 5-38 10-41 6-3 10-17 10-31 0-13 3-24 8-24 30 1 162 68 162 82 0 4-11 10-25 13s-36 7-49 10c-16 3-26 0-30-11-9-23-26-7-26 26 0 15-6 31-12 33-7 3-4 6 8 6 31 1 64 42 64 79 0 30-3 32-32 31-18 0-50-7-70-16z"/>
  <path id="jx" d="m1805 2569c-27-51-16-60 67-57 60 2 73 6 76 21 3 13-3 17-23 17-17 0-25 5-22 13 4 12-42 37-69 37-7 0-21-14-29-31z"/>
  <path id="jy" d="m3245 2585c-23-11-25-14-10-14 11 0 31 6 45 14 32 18 5 18-35 0z"/>
  <path id="jz" d="m1955 2580-20-9h20c11 0 27 4 35 9 13 9 13 10 0 9-8 0-24-4-35-9z"/>
  <path id="ka" d="m3145 2580c3-5 16-10 28-9 21 0 21 1 2 9-28 12-37 12-30 0z"/>
  <path id="kb" d="m1580 2265c7-8 17-15 22-15 6 0 5 7-2 15s-17 15-22 15c-6 0-5-7 2-15z"/>
 </g>
 <g id="kc" transform="translate(-1277,-1680)" fill="#9b9d9c">
  <path id="kd" d="m1404 3735c-17-8-36-20-43-29-11-13-9-16 11-21 28-7 180 37 186 53 5 17-115 14-154-3z"/>
  <path id="ke" d="m2536 3589c-19-38-42-44-33-9 4 15-3 19-34 22-21 2-36 2-34-1 3-2-14-13-36-24-42-21-47-40-11-45 25-4 30-37 7-46-12-4-13-11-5-32 6-15 8-29 6-31-3-3 7-16 22-29l27-23-27-1c-33 0-34-4-8-37 11-15 18-29 14-32-12-13-44 44-39 72 4 22 1 27-15 27-11 0-20 7-20 15 0 9-9 15-22 15-21-1-21-2-6-13 9-7 20-25 23-40 4-15 11-30 16-33 15-9 10-24-6-17-15 5-18-15-4-27 18-16 80-131 77-142-3-8-9-4-18 12-29 58-123 201-128 196-3-3 12-34 33-68 21-35 40-67 42-73 7-16-29 28-65 80-26 37-36 45-43 34s-16-7-40 21c-30 35-34 28-13-25 7-19 7-19-13-2s-33 14-33-9c0-7 12-26 26-43 32-39 11-41-28-4-30 28-38 20-13-13 8-10 15-39 15-64 1-60 36-120 78-134 32-11 52-31 52-51-1-5-7-2-14 8-7 9-25 17-39 17-35 0-27-21 25-76 42-44 81-51 71-13-3 11 0 19 7 19 9 0 7 7-5 20-28 31-7 24 32-11 54-47 52-24-3 33-27 29-40 45-29 37 11-7 30-26 42-40 38-44 133-105 142-91 4 7 15 10 24 6 14-5 17 0 17 24 0 26-5 32-37 42-64 21-101 70-53 70 16 0 20 7 20 34 0 53-11 96-25 96-19 0-26 27-9 34 8 3 14 12 14 21 0 10 10 15 30 15 28 0 30 2 30 38 0 33 30 136 44 150 11 10 39-75 44-130 4-47 8-58 22-58 32 0 45-27 32-64-7-18-12-42-12-55 0-12-13-36-30-54-22-23-30-42-30-68 0-20-3-51-6-68-5-24-3-31 10-31 9 0 16-5 16-10 0-6 11-3 25 6s25 24 25 33c0 13 2 13 9 2 13-20 30-5 23 21-4 18-2 20 13 14 14-5 31 5 67 41 70 69 59 36-12-37-60-61-76-97-22-49 44 40 67 56 58 40-5-8-3-16 5-21 10-7 10-12-2-26-13-15-12-16 11-10 30 9 155 133 164 164 7 19 4 22-24 22-30 0-81-29-107-60-11-13-12-13-7 3 3 9 1 23-4 30-8 10 2 32 39 87 28 41 62 86 75 101 14 15 24 37 24 55-1 24-2 26-11 11-5-9-7-22-4-27 4-6 2-9-3-8-5 2-19-8-31-22-21-23-21-23-11-2 11 22 2 52-16 55-5 1-8 11-6 22 2 16-2 15-22-10-14-16-32-45-41-62-9-18-20-33-25-33-14 0-12 12 5 34 16 21 19 37 8 35-22-4-23 3-4 27 35 44 23 52-14 9-36-42-46-42-19 1 12 17 14 28 7 35-13 13-24-1-38-51-11-38-32-40-27-2 2 14-3 22-12 22-27 0-27 20 0 45 15 14 22 25 15 25-6 0-11 7-11 15 0 9 6 12 15 9 9-4 15 0 15 10 0 9-4 16-10 16-15 0-25 51-11 59 12 8 5 41-9 41-5 0-11-8-13-17-3-12-5-9-6 8-1 36-16 45-81 52l-55 5zm202-457c-14-15-28-35-31-44-6-16-37-26-37-12 0 17 35 62 58 75 37 21 41 14 10-19z"/>
  <path id="kf" d="m2776 3511c-9-28-16-52-16-54s16-3 35-3c29 1 35 5 35 22 0 19-27 84-35 84-1 0-10-22-19-49z"/>
  <path id="kg" d="m1827 3454c-35-33-45-50-38-57 8-8 23 0 51 28 23 22 36 41 30 43-8 3-7 8 1 18 22 27 4 13-44-32z"/>
  <path id="kh" d="m3783 3435c32-28 67-33 67-10 0 17-39 35-73 35-21-1-21-2 6-25z"/>
  <path d="m1401 3295c-39-18-51-29-44-36 8-8 24-3 57 16 81 48 73 60-13 20z"/>
  <path d="m2958 3257c-28-33-32-44-18-40 26 7 62 48 58 68-2 12-13 4-40-28z"/>
  <path id="ki" d="m1462 3238c-38-24-33-44 6-23 50 27 55 32 39 38-7 3-28-4-45-15z"/>
  <path id="kj" d="m2890 3170c-12-16-19-30-16-30 2 0 14 14 26 30 12 17 19 30 16 30-2 0-14-13-26-30z"/>
  <path id="kk" d="m1501 2861c-12-8-12-13 2-35 20-29 129-136 140-136 23 0-1 46-55 106-35 37-57 64-49 59 10-5 12-4 7 3-9 14-26 15-45 3z"/>
  <path id="kl" d="m3580 2850c0-6-20-31-45-54-25-22-47-50-50-61-2-11-7-30-11-42-3-13-2-23 3-23 11 0 93 85 121 126 21 31 21 31 2 49-13 12-20 14-20 5z"/>
  <path d="m3626 2699c-28-4-54-5-59-2-6 3-7 1-3-5 4-7-3-14-17-17-31-8-69-59-61-80 4-9 12-14 18-11 6 2 29 11 51 20l40 17-44-41c-41-38-43-41-31-69 6-17 9-34 6-39-3-6 0-21 7-34 11-21 16-23 45-16 18 5 35 15 38 23 3 7 12 11 20 8s14 0 14 6-11 16-25 21c-30 11-31 23-6 58 22 32 66 118 75 150 8 24 9 24-68 11z"/>
  <path id="km" d="m1840 2690c0-6-7-10-16-8-10 2-19-3-22-11-3-10 3-12 27-6 17 3 36 3 43-1 19-12 39-14 32-3-9 16-64 40-64 29z"/>
  <path id="kn" d="m2015 2674c-10-8-26-14-34-14-9 0-21-11-27-23-10-23-10-24 50-19 34 2 62 5 63 6 2 1 6 16 9 33 5 27 3 31-18 31-13 0-33-7-43-14z"/>
  <path id="ko" d="m1540 2652c0-16 36-42 58-42 27 0 29 26 3 40-24 12-61 13-61 2z"/>
  <path id="kp" d="m3241 2584c-25-12-41-13-63-5-47 16-53 2-16-36 31-32 36-34 98-32 91 3 93 4 70 50-22 43-35 46-89 23z"/>
  <path id="kq" d="m1865 2582c-4-4-11-7-17-7-13 0-34-32-26-40 3-3 30-10 59-15 53-9 54-9 87 26 19 20 31 38 29 41-3 3-21 0-40-6-23-8-42-8-60-2-14 5-28 7-32 3z"/>
  <path id="kr" d="m1551 2498c-13-13-20-16-16-8 6 12 5 13-6 3-7-7-25-13-40-13s-30-4-34-9c-7-13 43-51 60-45 7 3 23 1 34-6 17-9 21-8 21 5 0 9 6 18 13 21 13 5 11 74-2 74-4 0-17-10-30-22z"/>
  <path id="ks" d="m3540 2343c0-6 7-17 17-24 9-8 22-29 30-46 11-27 19-33 43-33 28 0 29 2 18 21-7 11-29 30-48 41-19 12-41 28-47 36-7 9-13 11-13 5z"/>
 </g>
 <g id="kt" transform="translate(-1277,-1680)" fill="#a8aaa9">
  <path id="ku" d="m1395 3713c-46-10-49-13-29-28 17-13 16-14-24-15-31 0-42-4-39-12 3-9 24-12 67-10 73 2 81 7 54 27-18 14-18 14 4 15 14 0 22 5 20 13-5 13-23 17-53 10z"/>
  <path id="kv" d="m3705 3691c11-5 38-5 60-1 38 7 36 8-20 8-40 1-53-2-40-7z"/>
  <path id="kw" d="m3690 3660c0-6 34-10 80-10 44 0 80 4 80 9s-36 10-80 10c-47 0-80-3-80-9z"/>
  <path id="kx" d="m1537 3596c-50-22-53-36-7-36 33 0 63 22 59 42-4 14-10 13-52-6z"/>
  <path id="ky" d="m2666 3458c-11-17-12-33-6-58 4-19 8-29 9-22 1 6 10 21 21 32s15 20 9 20c-7 0-9 10-7 25 6 31-7 32-26 3z"/>
  <path id="kz" d="m1308 3447c-27-10-39-37-18-37 27 0 90 26 90 37 0 15-34 15-72 0z"/>
  <path id="la" d="m2627 3385c6-42 10-51 18-43 3 2-2 22-10 44l-15 39z"/>
  <path id="lb" d="m2356 3298c30-58 66-108 79-108 21 0 55 45 55 73 0 23-4 27-29 27-21 0-30-6-35-22-6-22-7-22-36 12-17 19-30 38-30 42s-5 8-10 8c-6 0-3-15 6-32z"/>
  <path id="lc" d="m2970 3273c-75-96-126-167-132-183-2-8-7-10-11-4-3 6 16 43 44 83 48 71 69 124 26 67-12-16-48-62-80-103-56-72-64-90-23-56 12 10-4-8-34-40-65-69-56-77 12-10 26 26 48 42 48 36s-7-16-16-24c-14-12-14-14 1-25 10-8 12-14 6-19-13-7-15-25-3-25 4 0 25 15 45 34 48 44 89 71 103 68 13-3 45 86 34 93-7 5 2 69 19 132 5 18 9 33 8 33s-22-26-47-57z"/>
  <path id="ld" d="m2839 3304c-7-9-18-24-24-34-5-10-16-28-24-41l-14-24 28 25c28 26 60 78 52 86-2 3-10-3-18-12z"/>
  <path id="le" d="m2136 3197c1-96 13-132 46-143 10-3 18-9 18-13 0-21 50-63 74-63 15 0 29-4 32-9 2-4 11-6 20-2 13 5 13 8-2 24-9 11-13 19-7 19 5 0 18-9 29-21 10-11 28-25 39-31s-1 12-26 38c-26 27-58 72-73 99-31 61-95 137-96 114 0-9 19-37 41-63 44-50 47-58 13-46-27 11-67 87-60 115 4 15-3 30-22 48l-28 27z"/>
  <path id="lf" d="m2640 3279c0-6 5-29 12-50 14-48 47-54 69-11 22 45 23 48 5 33-9-8-17-12-19-10-1 2-7 13-13 24-12 22-54 33-54 14z"/>
  <path id="lg" d="m2262 3254c-16-18 5-50 92-141 32-35 54-63 48-63-38 0 25-73 76-88 22-7 43-19 46-27 9-23 83-20 96 4 5 11 17 26 25 35 14 13 12 17-15 33-16 9-30 23-30 30s-10 13-22 13c-25 0-88 46-88 64 0 8-11 16-25 18-22 5-24 2-19-18 10-39-10-28-79 47-36 39-69 70-74 69-4-1-10 8-13 18-4 17-7 18-18 6z"/>
  <path id="lh" d="m2210 3253c0-18 74-123 87-123 7 0-8 28-33 63-54 74-54 73-54 60z"/>
  <path d="m2781 3181c-38-48-41-68-6-45 14 9 25 24 25 34s7 20 15 24c8 3 15 10 15 16 0 20-19 9-49-29z"/>
  <path d="m2687 3023c-4-3-7-15-7-26 0-19 1-20 20-2 11 10 20 22 20 27 0 10-24 11-33 1z"/>
 </g>
 <g id="li" transform="translate(-1277,-1680)" fill="#b0b1b1">
  <path id="lj" d="m1495 3741c-35-6-90-22-135-40-8-3 4-7 28-9 36-3 194 38 211 54 6 6-57 3-104-5z"/>
  <path id="lk" d="m1800 3741c0-11-45-23-113-30-4-1-6-5-5-10 3-11-98-91-113-91-5 0-9-9-9-20s2-20 5-20c22 0 305 164 305 176 0 2-16 4-35 4s-35-4-35-9z"/>
  <path id="ll" d="m3580 3736c25-24 143-54 185-47l38 6-39 19c-21 10-47 23-56 27-10 5-46 9-80 9-54 0-60-2-48-14z"/>
  <path id="lm" d="m3362 3698c3-21 22-34 171-113 37-20 60-25 95-23 37 3 43 5 27 12-132 56-245 124-226 135 7 4-7 8-29 9-37 2-41 0-38-20z"/>
  <path id="ln" d="m2549 3608c-2-60-19-139-43-202-16-41-23-78-20-92 5-18 2-24-10-24-9 0-16-5-16-12s-12-24-26-39c-24-25-25-29-12-55 8-16 21-49 28-73 8-25 26-52 42-64 35-26 35-35 1-43l-27-7 24-9c13-5 28-7 34-5 6 3 15 5 21 5 5 0 12 9 16 19 7 17 8 17 8 1 1-10 7-18 15-18s22-7 31-17c13-13 18-14 25-3 4 7 12 10 18 6 6-3 23 4 38 18 26 22 27 24 11 40-13 13-21 15-37 6-11-6-20-17-20-25s-4-15-9-15c-24 0-19 23 14 66 21 27 34 55 32 65-3 9 8 41 24 70 35 64 36 69 5 40l-24-23-7 32c-4 20-15 34-27 38-16 4-19 11-14 33 3 18-4 54-19 97-13 37-26 83-29 102-15 101-18 110-31 110-9 0-15-10-16-22zm38-345c18-27 13-81-10-113-14-20-15-20-31 14-20 42-20 76-1 102 8 10 15 33 16 49l2 30 4-29c3-16 12-40 20-53z"/>
  <path id="lo" d="m1671 3550c-54-26-61-33-51-45 21-25 46-17 97 30 57 52 43 57-46 15z"/>
  <path d="m3374 3571c4-5 40-35 82-66 73-55 77-57 121-50l45 7-22 23c-12 13-37 26-56 30-19 3-50 19-68 35-24 22-44 30-70 30-21 0-35-4-32-9z"/>
  <path id="lp" d="m1378 3467c-50-11-60-20-31-31 18-7 113 23 113 36 0 10-20 8-82-5z"/>
  <path id="lq" d="m2124 3287c9-28 14-56 20-111 5-48 17-66 45-66 9 0 12 8 8 27-10 54-43 133-61 150s-19 17-12 0z"/>
  <path id="lr" d="m2979 3258c-35-72-49-110-49-133 0-29 5-31 28-8 16 16 54 173 42 173-3 0-13-15-21-32z"/>
  <path id="ls" d="m1468 3164c-18-19-46-42-61-50-30-16-27-39 4-31 14 4 19 1 17-11-4-26 42-17 72 14 21 20 22 26 11 34-13 7-13 12-1 37 8 15 16 31 18 36 2 4-3 7-11 7-9 0-30-16-49-36z"/>
  <path id="lt" d="m3600 3194c0-3 9-18 21-32 18-23 19-27 5-30-27-6-18-30 25-72 42-40 79-52 79-25 0 14 13 19 65 27 15 3 3 13-42 37-35 19-74 49-88 67-22 29-65 47-65 28z"/>
 </g>
 <g id="lu" transform="translate(-1277,-1680)" fill="#e5e6e5">
  <path id="lv" d="m3300 3725c21-23 139-95 154-95 4 0 0 10-9 23-8 13-13 27-10 30 3 4 2 5-2 2-3-3-14 2-23 10-26 23-91 55-114 55-18 0-18-2 4-25z"/>
  <path id="lw" d="m1759 3714c-7-8-25-22-40-30-16-8-33-23-39-34-10-19-9-19 27-2 66 30 99 50 112 66 12 14 10 16-17 16-16 0-35-7-43-16z"/>
  <path id="lx" d="m2554 3386c-3-9-13-16-21-16-11 0-13-7-9-23 3-14-2-39-14-62-11-22-20-49-20-61 0-55 49-144 79-144 26 0 65 85 65 141 0 27-7 58-17 73s-16 38-15 52c4 33-38 67-48 40z"/>
  <path id="ly" d="m1481 3108c-8-12-19-18-31-15s-20-2-23-14c-10-39 29-40 66-1 31 32 32 38 14 45-7 3-19-4-26-15z"/>
  <path id="lz" d="m2521 2781c-27-18 1-30 70-30h70l-24 19c-26 21-91 27-116 11z"/>
  <path id="ma" d="m2260 2727c0-20 18-25 58-19 45 6 35 26-16 30-31 2-42-1-42-11z"/>
  <path id="mb" d="m2807 2719c23-23 63-19 63 7 0 10-12 14-42 14h-42z"/>
  <path id="mc" d="m2040 2534c-72-41-80-51-80-106 0-45 2-49 22-46 17 2 24 12 30 44 5 24 20 52 37 68 25 24 37 28 85 27 66 0 79 23 19 33-57 9-64 8-113-20z"/>
  <path id="md" d="m2982 2551c-19-12 4-27 53-34 46-8 72-36 81-90 5-31 11-37 30-37 22 0 24 4 24 44 0 39-4 48-32 69-69 51-124 69-156 48z"/>
 </g>
</svg>
