<svg id="a" class="img-fluid" width="257.47" height="207.15" version="1.1" viewBox="0 0 2574.7 2071.5" xmlns="http://www.w3.org/2000/svg">
 <g id="b" transform="translate(-1277,-1679)" fill="#3e0d20">
  <path d="m1650 3703c-25-57-67-222-76-303-10-92 1-143 41-181l34-34-24-25c-13-14-39-52-59-85-31-51-36-69-36-120 0-72 26-135 76-186 20-21 34-44 32-54-2-11-33-28-88-49-47-18-127-54-177-81l-93-49v-68c0-61 2-68 20-68 11 0 75 28 142 63 149 76 232 107 458 167 119 32 378 74 554 90 118 11 203 7 406-21 238-32 372-62 570-128 136-46 199-73 298-129 41-23 85-42 98-42 23 0 24 3 24 68v68l-82 44c-46 24-123 61-173 81-106 44-122 61-83 92 15 12 40 48 57 81 25 46 31 70 31 120 0 52-5 70-36 121-20 33-47 71-60 85l-23 26 29 27c46 44 56 92 42 206-13 102-42 215-72 287l-19 44h-146c-146 0-146 0-143-22 2-16 20-31 64-53 87-43 133-74 145-97 15-28 10-29-41-4-25 12-81 32-124 45-44 12-89 29-100 37s-29 14-40 14c-27 0-196 40-222 52-12 6-119 10-245 11-186 0-244-3-344-21-124-22-421-109-487-143-21-11-38-15-38-11 0 25 48 63 134 107 68 34 96 54 96 67 0 17-12 18-150 18h-149zm1140-98c36-7 53-13 39-14-15 0-53-13-85-28-54-25-70-27-179-27-111-1-124 1-175 27-30 15-68 27-85 28-28 1-27 2 10 11 111 27 343 28 475 3zm-551-28c-27-21-39-54-54-154-8-54-15-103-15-110s-6-10-13-7c-24 9-281-14-324-30-39-14-45-13-82 5-81 39-72 73 38 143 74 47 138 72 326 127 147 43 146 43 124 26zm881-59c140-45 184-65 253-115 82-60 83-84 5-124-35-18-41-18-71-5-34 16-180 36-258 36-69 0-94 28-103 113-8 78-20 114-48 144l-20 22 58-15c33-8 115-33 184-56zm-555-98c111 0 154 4 197 18l56 19 11-36c6-20 16-81 23-135l11-99 122 7c187 10 299-24 406-122 71-66 96-111 80-149-6-15-20-39-31-53l-20-25v30c0 49-38 65-147 62-70-2-94 2-116 16-14 9-33 17-42 17-14 0-34 8-75 32-8 4-25 12-37 17-12 6-43 26-69 46-45 34-51 36-108 33-34-2-69-8-78-12-16-7-18-2-18 52 0 45-5 66-20 85-20 26-23 26-145 26-97 0-128-4-140-15-21-21-38-92-32-131 6-32 5-33-16-18-13 9-44 15-78 15-51 0-63-4-115-43-129-93-180-113-334-127-116-10-150-20-150-47 0-22-25 0-40 36-9 24-9 35 5 61 40 78 133 152 241 192 50 18 81 22 209 22l150 1 8 60c5 33 15 92 23 132l15 72 56-20c45-15 84-19 198-19zm55-314c0-8-12-43-27-77l-27-62-28 59c-41 87-39 94 27 94 41 0 55-4 55-14zm121-206c21 0 39-3 39-7 0-5 3-18 6-30 6-21 3-23-32-23-22 0-56 3-76 6l-38 7 19 26c10 14 22 37 27 51l9 25 3-27c3-25 7-28 43-28zm-285 8c3-13 13-30 21-39 12-15 10-17-24-23-67-11-113-7-113 8 0 34 10 41 50 38 35-4 40-2 40 17 0 28 17 27 26-1zm-233-5c-16-48-53-81-95-88-24-3-80-13-126-22-61-12-86-13-94-5-19 19 10 42 51 42 55 0 148 27 205 59 62 35 67 36 59 14zm743-15c58-30 156-58 207-58 39 0 67-24 49-42-8-8-45-4-134 12-109 20-126 26-150 53s-45 72-30 65c4-2 30-15 58-30z"/>
  <path id="c" d="m2492 2583c-29-39-198-278-242-345-13-20-28-34-32-32-4 3-61 64-125 137-171 191-166 187-232 187h-41l-41-87c-22-49-61-145-87-215s-49-128-53-128c-3 0-54 50-114 110-107 109-131 125-176 118-20-2-28-15-46-68-19-58-22-87-22-267-1-234-9-220 100-177 358 143 969 236 1354 205 413-33 736-98 1e3 -200 125-49 115-62 115 164 0 151-4 209-17 258-21 77-28 87-65 87-43 0-57-10-169-125-56-58-105-105-108-105-4 0-21 42-39 93-18 50-56 146-85 212-51 116-54 120-86 123-72 7-77 3-245-185-65-73-122-133-126-133-5 0-66 82-136 183-161 231-157 227-210 227-37 0-46-5-72-37zm241-365c26-37 47-68 47-70s-96-3-214-3c-187 0-213 2-206 15 9 17 91 132 160 226l44 61 61-81c33-45 82-111 108-148zm-691-28 67-75-167-27c-92-15-168-26-169-24-4 3 92 248 108 279 11 20 13 19 53-28 23-27 71-83 108-125zm1262 18c31-78 54-143 52-145-2-3-40 2-83 11-43 8-116 20-163 26-47 7-86 12-86 13-5 6 211 245 217 241 4-2 33-68 63-146zm-1784-207c0-3-39-18-85-32-74-23-85-25-81-10 3 9 13 54 22 100l18 84 63-68c35-37 63-70 63-74zm2254-32 5-26-84 26c-47 14-85 28-85 31s28 36 62 74l63 69 17-74c9-41 19-86 22-100z"/>
  <path id="d" d="m2335 1920c-350-21-702-79-942-156-102-33-113-39-113-60v-24h148c93 1 169 6 207 15 76 19 95 19 95 0 0-12 15-15 71-15h72l-6 29c-7 34-16 31 188 56 329 40 671 41 1015 1 199-23 200-23 193-57l-5-29h71c56 0 71 3 71 15 0 19 19 19 95 0 38-9 114-14 208-15 142 0 147 1 147 20 0 30-49 69-87 70-17 0-35 4-38 10-3 5-19 10-35 10-15 0-76 11-134 25-344 81-862 126-1221 105z"/>
 </g>
 <g id="e" transform="translate(-1277,-1679)" fill="#3a292f">
  <path id="f" d="m2450 3654c-30-2-97-11-147-20l-93-16v-54c0-61 11-68 49-29 29 31 34 31 101-2 52-26 62-28 200-28s149 2 213 29c58 24 69 26 84 15 15-13 16-10 10 29-3 24-7 45-9 48-18 17-288 36-408 28z"/>
  <path id="g" d="m2150 3601c-21-6-28-18-42-71-9-36-16-108-17-160l-1-95 44-3 44-2 6 112c4 62 9 139 12 171 6 61 5 62-46 48z"/>
  <path id="h" d="m2943 3544c-3-9-3-61 0-115 4-61 2-99-3-99-19 0-10-16 20-38 22-16 37-21 56-16l27 7-6 116c-8 153-11 161-53 161-23 0-37-6-41-16z"/>
 </g>
 <g id="i" transform="translate(-1277,-1679)" fill="#422a32">
  <path id="j" d="m2030 3048c0-46 6-70 19-88l19-25 44 24c81 45 104 81 50 81-21 0-32 8-46 35-16 29-25 35-53 35h-33z"/>
  <path id="k" d="m2957 3093c-4-3-7-26-7-50 0-36 4-45 23-53 12-6 29-14 37-18 41-24 61-32 75-32 9 0 27-7 41-16 32-22 158-31 179-14 9 7 15 29 15 55v42l-52 7c-86 10-98 8-98-13 0-11-4-22-8-25-5-3-7 19-4 49l4 55h-31c-17 0-31 5-31 10 0 11-133 14-143 3z"/>
  <path id="l" d="m2361 3045c43-29 52-46 43-91-7-40-19-37-28 8-3 18-16 42-28 55-26 28-54 31-42 6 14-33 16-88 4-133-26-103-30-93 31-86 30 3 92 8 137 12 62 5 85 11 90 22 3 9 0 18-7 20-30 10-64 52-91 112-25 57-32 65-59 68-16 2-35 10-41 18-7 8-20 14-29 14s-1-10 20-25z"/>
  <path id="m" d="m2755 3050c-10-11-30-20-44-20-23 0-29-8-46-52-11-28-35-67-52-86-37-39-43-72-15-72 10 0 67-5 126-11s110-8 113-5-2 31-12 62c-17 54-17 116 0 157 11 25-17 22-43-6-12-13-25-37-28-55-9-44-21-40-26 8-4 42 9 62 57 88 15 9 16 11 4 12-9 0-24-9-34-20z"/>
  <path id="n" d="m1773 2978c-52-8-63-13-63-29 0-14-10-20-40-25-52-8-52-30-4-84 43-47 60-49 120-14 59 34 56 46-8 38-41-5-50-4-42 6 15 16 78 29 139 30 28 0 60 3 73 6 27 8 29 34 2 34-12 0-25 10-32 25-13 28-34 30-145 13z"/>
  <path id="o" d="m3371 2912c-9-17-8-23 6-31s7-11-32-11l-50-1 38-33c49-44 83-53 109-29 22 20 73 102 67 108-2 2-32 7-66 10-55 7-62 5-72-13z"/>
  <path id="p" d="m1754 2766c-23-10-33-23-38-46-3-18-4-35-2-37 7-7 116 30 116 38 0 4-4 11-10 14-5 3-10 15-10 26 0 22-13 23-56 5z"/>
  <path id="q" d="m3320 2761c0-11-4-23-10-26-5-3-10-10-10-14 0-9 111-43 118-36 5 5-17 74-26 79-4 2-22 7-39 11-29 6-33 4-33-14z"/>
 </g>
 <g transform="translate(-1277,-1679)" fill="#3f3035">
  <path id="r" d="m2435 3650c-53-4-65-8-50-15 11-5 24-13 28-19 6-8 10-7 14 2 2 6 11 12 20 12 12 0 13-8 8-42-3-24-9-51-11-60-4-13 4-18 40-23 60-9 96 0 96 24 0 10-7 21-15 25-10 3-15-1-15-14 0-10-4-21-9-24-11-7-21 27-21 72 0 20-4 31-10 27-5-3-10-19-10-35 0-34-9-60-21-60-10 0-12 44-3 89 6 26 11 31 35 31 16 0 29 5 29 10 0 6-8 9-17 8-10-1-49-4-88-8z"/>
  <path id="s" d="m2614 3652c4-7 13-12 20-12 9 0 16-18 20-45 10-63 21-63 21 1 0 44-3 54-17 54-9 0-24 3-34 7-12 4-15 3-10-5z"/>
  <path id="t" d="m2829 3615c-1-8-2-21-3-27-1-7 12-24 28-38 37-31 53-70 62-150 8-81 19-102 47-98 24 3 23-5 13 140-5 84 9 116 21 46 7-42 7-42 14-13 4 17 7 49 8 72 1 42 0 42-41 53-24 6-59 15-78 21-50 13-70 11-71-6z"/>
  <path id="u" d="m2080 3581c-15-4-26-15-28-29-2-13-10-22-22-22-26 0-40-48-47-162l-6-98h59c32 0 64 4 70 8 7 4 14 45 18 92 3 47 8 115 12 153 7 73 5 75-56 58z"/>
  <path d="m2159 3518c-1-29-2-69-4-88-11-165-13-155 18-158 17-2 27 1 27 10 0 7 7 58 15 112 8 55 15 117 15 138 0 37-1 38-35 38h-35z"/>
  <path id="v" d="m1868 3512c-96-34-118-76-118-222 0-72 12-77 108-48 37 12 73 22 80 24 20 6 25 30 17 99-5 53-10 65-24 65-16 0-17 7-13 50 2 28 3 50 1 49-2 0-25-8-51-17z"/>
  <path id="w" d="m3210 3500c0-23-4-30-20-30-18 0-20-7-20-76 0-47-4-73-10-69-5 3-10 23-10 44s-3 53-6 70c-6 27-11 31-38 31-48 0-56-15-56-106v-82l43-5c23-4 69-9 101-13s71-13 85-20c38-20 47-17 59 19l10 32 1-32c1-38 8-40 61-13 79 41 88 96 25 156-26 24-41 31-57 26-30-7-37-19-39-67-1-25-3-31-6-15-2 14-9 51-16 84-11 56-14 60-55 77-24 11-46 19-48 19s-4-13-4-30z"/>
  <path id="x" d="m1707 3420c-29-23-57-69-57-93 0-17 53-77 68-77 14 0 24 71 20 138l-3 54z"/>
  <path id="y" d="m3013 3335c0-33 2-45 4-27s2 45 0 60-4 0-4-33z"/>
  <path id="z" d="m2362 3281c-28-26-32-36-32-80 0-28 5-51 10-51 6 0 10-9 10-20 0-16 7-20 38-20 33 0 38 3 40 26 1 14 6 33 12 43 5 11 13 44 16 75l7 56h-34c-24 0-44-9-67-29z"/>
  <path id="aa" d="m2693 3275c-7-8-13-30-13-49 0-40 20-56 70-56h31l-3 58-3 57-35 2c-21 2-40-3-47-12z"/>
  <path id="ab" d="m1965 3222c-11-1-39-8-63-14-40-10-43-13-37-37 9-34 21-41 72-41 40 0 42 2 48 34 9 46 4 62-20 58z"/>
  <path id="ac" d="m2953 3223c-41-4-43-5-43-38 0-42 23-51 105-40 54 6 55 7 55 39 0 29-4 34-31 40-17 3-34 5-38 4-3-1-25-3-48-5z"/>
  <path id="ad" d="m2083 3085c-3-9 2-33 11-52 14-29 21-34 41-31 13 3 22 1 19-3-9-15 13-10 26 7 10 11 11 25 4 52-8 35-12 37-52 40-32 2-44-1-49-13z"/>
  <path id="ae" d="m1970 3066c0-9-9-16-19-16-11 0-23-4-26-10-3-5-15-10-26-10-10 0-19-4-19-10 0-5-15-10-34-10-28 0-35-4-40-26-4-15-6-27-4-28 2 0 13-7 25-13 29-17 33-16 33 2 0 23 16 18 28-10 10-21 18-25 56-25 44 0 132 24 150 40 5 5-1 21-12 37s-22 42-24 58c-3 27-7 30-45 33-34 2-43 0-43-12z"/>
  <path id="af" d="m3115 2993c-18-46-18-46 5-65 12-10 25-18 29-18 19 0 51 49 57 88l7 42h-40c-39 0-41-2-58-47z"/>
  <path id="ag" d="m1700 2960c0-11-7-20-15-20-18 0-21-50-3-68 20-20 40-15 33 10-6 17-4 20 9 15 12-5 16 0 16 18 0 27 9 32 28 13 9-9 12-5 12 20 0 31-2 32-40 32-33 0-40-3-40-20z"/>
  <path id="ah" d="m3330 2945c-7-14-11-26-9-28s20-13 40-25c34-21 37-21 43-5 6 14 9 15 16 4 12-21 40-5 40 24 0 18-5 25-20 25-11 0-20 7-20 15 0 11-11 15-38 15-31 0-41-5-52-25z"/>
 </g>
 <g id="ai" transform="translate(-1277,-1679)" fill="#433639">
  <path d="m2173 3607c-23-7-44-15-47-18-4-3-3-30 2-60l8-54 8 52c11 75 22 73 18-3-3-41 0-64 7-64 6 0 11 18 11 40 0 52 18 52 22 0 4-50 17-52 34-5 7 20 20 43 31 51 17 14 16 14-6 4-23-12-23-11-19 29 4 46 2 47-69 28z"/>
  <path id="aj" d="m2892 3581c4-43-6-51-32-28-8 6-5 1 7-13s27-38 35-55l13-30 3 48c3 46 14 61 25 33 3-8 9-46 13-85 3-39 11-71 15-71 11 0 11-5-5 108-8 56-9 95-4 98 14 9-3 21-41 29l-33 7z"/>
  <path id="ak" d="m2987 3583c-3-5 1-44 9-88 7-44 13-110 13-147l1-68h45c40 0 45 2 36 18-14 26-12 119 3 131 14 12 14 13 22-69 7-63 26-90 64-90h26l-4 128c-2 70-6 130-10 133-11 10-165 59-184 59-9 0-19-3-21-7z"/>
  <path id="al" d="m1998 3557c-58-18-68-24-68-44 0-16-6-23-19-23-22 0-27-11-37-82-7-53-1-59 26-26l18 22 6-40c4-24 2-52-5-69l-12-30-7 33c-4 18-11 36-14 40-11 11-26-21-26-56 0-33 1-33 33-27 57 12 67 16 67 31 0 8 9 14 19 14 15 0 22 11 30 50 6 28 11 59 11 69 0 37 22 81 40 81 14 0 20 9 22 33 2 19 8 31 16 30 6-2 12 2 12 7 0 15-36 10-112-13z"/>
  <path d="m2556 3565c-11-29-7-55 9-55s20 36 6 58c-7 11-10 10-15-3z"/>
  <path id="am" d="m3281 3453c4-27 11-73 16-104 5-32 6-67 1-79-12-32 2-42 48-38 32 2 39 6 37 23-2 11-5 52-7 90-6 102-13 120-52 138-19 10-38 17-43 17-4 0-4-21 0-47z"/>
  <path id="an" d="m2806 3462c-3-5-3-53 1-106l6-97 72 6-3 53c-6 92-24 147-49 150-11 2-24-1-27-6z"/>
  <path id="ao" d="m2262 3398c-25-143-25-138 14-138 19 0 36 6 39 13 2 6 6 51 10 100l6 87h-29c-29 0-30-2-40-62z"/>
  <path id="ap" d="m1716 3398c-3-13-7-42-10-65s-8-47-11-55c-4-9 9-20 35-32 23-10 43-16 46-14 2 3 6 38 8 79 3 41 8 82 11 92 6 14 1 17-34 17-34 0-41-4-45-22z"/>
  <path id="aq" d="m2046 3357c-10-44 1-60 47-71 26-6 27-5 27 39 0 47-14 61-23 23-5-18-9-19-21-9-8 7-16 22-19 34-2 16-5 12-11-16z"/>
  <path id="ar" d="m2720 3261c0-6-9-11-21-11-19 0-21-4-15-37 4-21 9-55 12-75 6-37 8-38 45-38 48 0 54 11 54 100v65l-37 3c-22 2-38-1-38-7zm28-40c-3-20-5-21-22-8-17 12-18 16-5 30 17 19 32 7 27-22z"/>
  <path id="as" d="m2412 3206c-7-18-10-41-6-50 4-11 1-16-10-16s-16 9-16 26c0 14-4 23-10 19-5-3-10 3-10 15 0 13-5 20-12 18-8-3-14-28-16-65-3-66 3-73 70-73 25 0 27 3 26 34-1 39 19 96 34 96 6 0 5 7-2 15-20 24-35 18-48-19z"/>
  <path d="m2087 3223c-4-3-7-21-7-39 0-34 16-44 74-44 21 0 27-4 22-16-3-9-6-18-6-20s-13-4-30-4c-23 0-30-4-30-20 0-13 5-18 15-14s18-3 25-21c17-44 11-52-17-20-16 18-24 22-20 12s7-22 7-27c0-4 10-10 22-13 15-4 38 6 76 34 30 21 61 39 69 39 16 0 16 9 1 43-10 21-20 27-46 27-30 0-32 1-18 16 9 8 16 27 16 42 0 27-1 27-74 29-40 2-76 0-79-4z"/>
  <path id="at" d="m3050 3196v-34l61-4c33-2 64-10 68-17 5-7 23-11 47-9 36 3 39 6 42 35 3 31 3 31-67 47-38 9-88 16-110 16-40 0-41-1-41-34z"/>
  <path id="au" d="m2836 3104c-9-24-7-34 7-34 7 0 28-11 47-24 42-28 60-17 60 39v35h-54c-40 0-55-4-60-16z"/>
  <path id="av" d="m1840 2990c0-5 5-10 10-10 6 0 20-16 31-35 13-22 29-35 42-35 19 0 19 1 4 18-10 10-17 31-17 45 0 24-4 27-35 27-19 0-35-4-35-10z"/>
  <path id="aw" d="m1925 2978c9-29 32-54 41-45 4 4 0 15-9 25-10 10-17 24-17 30 0 7-5 12-11 12s-8-9-4-22z"/>
  <path id="ax" d="m1680 2961c-5-11-10-33-10-50 0-24 4-31 20-31 13 0 18 5 14 15-4 9 0 15 10 15s16 8 16 21c0 15 5 19 15 15s15 1 15 14c0 28-65 28-80 1z"/>
 </g>
 <g id="ay" transform="translate(-1277,-1679)" fill="#483f42">
  <path id="az" d="m2105 3587-110-32 2-35c1-19 3-56 4-82 2-32-3-54-13-65-8-10-18-25-21-33s-6 3-6 25c-1 22 6 51 15 63 9 13 11 22 4 22-6 0-9 4-5 9 3 5 0 13-6 17-6 3-9 19-5 34 5 28 4 28-26 19-18-5-36-13-41-18s-15-57-23-116-17-111-20-116c-14-23-24-5-25 44 0 38-3 47-9 32-5-11-9-34-9-51-1-17-8-37-17-44-8-8-14-9-13-4 2 5-1 24-5 43-5 19-4 36 1 40 9 6 34 132 28 139-2 2-25-10-51-27-46-28-48-31-46-73 2-24-2-58-7-75-7-25-7-33 3-33 8 0 21 26 30 60 9 33 20 60 25 60 4 0 4-26 0-57-14-115-8-123 81-95 43 13 50 20 50 41 2 80 9 130 23 156 14 29 15 27 12-57-2-48-6-91-9-97-8-13 8-17 53-13l38 4 7 81c3 45 13 104 21 130 14 47 51 90 68 80 5-3 6-61 2-129-5-89-4-124 4-124 7 0 11 19 11 48 0 56 32 232 43 232 4 0 7-17 8-37v-38l17 33c9 18 21 31 28 28 6-2 16 6 23 20 14 32 5 31-134-9z"/>
  <path id="ba" d="m2917 3586c29-36 49-47 40-21-10 24 12 28 23 3 13-33 30-157 30-227v-61h30c17 0 30 5 30 10 0 6-6 10-14 10-18 0-24 32-32 158-5 76-4 102 5 102 21 0 61-32 61-49 1-9 7-27 14-40l13-24 8 29c17 60 15 74-13 85-31 12-203 59-215 59-5 0 4-15 20-34z"/>
  <path id="bb" d="m3165 3499c5-29 4-40-4-35-14 9-15-6-1-20 5-5 12-41 15-79l5-70-25 28c-29 33-35 34-35 4 0-36 29-55 100-66 85-14 83-15 65 12-8 13-19 59-25 102-17 127-19 134-50 150-46 24-53 20-45-26zm60-70c12-18 16-147 6-154-18-10-30 30-29 98 0 63 8 81 23 56z"/>
  <path d="m2778 3484c-23-12-28-21-28-52 0-70 8-82 52-82h39l-2 48c-1 47-16 102-28 102-3-1-18-8-33-16z"/>
  <path id="bc" d="m2270 3442c-8-33-28-162-30-194 0-5 14-8 30-8 30 0 30 1 30 55s0 55 30 55c36 0 50 23 50 79 0 38-2 41-27 41-16 0-38 3-50 6-19 5-23 0-33-34zm24-34c-2-13-5-43-7-67-1-26-8-46-15-49-10-3-12 5-7 34 3 22 8 54 11 72 3 17 9 32 13 32 5 0 7-10 5-22z"/>
  <path id="bd" d="m3331 3438c5-24 11-60 15-80 7-39 23-52 25-20 3 64 15 74 23 17 5-30 12-45 22-45 14 0 14 12-2 72-3 9 0 19 6 23 11 7-72 75-90 75-4 0-4-19 1-42z"/>
  <path id="be" d="m2833 3333c-9-3-13-27-13-69v-64l33 1c36 0 85 17 55 18-13 1-18 10-19 34-1 36-16 92-18 66-1-9-7-19-15-22-9-4-12 2-10 19 1 13 2 24 1 23-1 0-8-3-14-6z"/>
  <path d="m2650 3274c0-35 6-54 25-76 29-35 33-89 11-162-14-46-14-47 7-40 20 6 72 46 89 69 4 6 8 31 8 58 0 35-4 47-15 47-8 0-15-6-15-14 0-24-22-30-37-11-28 40-5 133 26 102 8-8 11-5 11 12 0 45-17 61-65 61h-45z"/>
  <path id="bf" d="m1967 3223c-9-2-14-9-11-14 3-6-2-17-12-24-14-11-15-14-5-15 8 0 12-3 8-6-10-11-47 7-47 23 0 12-7 14-32 9-50-10-120-55-114-73 3-8 6-19 6-24s23-9 50-9c28 0 50 5 50 10 0 6 18 10 39 10 22 0 46 7 54 15 10 9 46 17 102 21 84 7 117 20 76 31-34 9-5 33 40 33 30 0 37-3 33-15-4-9 0-15 10-15 9 0 16 8 16 19 0 15-10 19-52 25-59 7-183 6-211-1z"/>
  <path d="m2973 3223c-13-2-23-9-23-15 0-5 7-7 16-4 9 4 22 2 28-3s20-11 31-14c17-4 16-5-5-6s-67-20-50-21c43-1 182-24 205-34 61-27 143-46 194-46 43 0 52 3 49 17-4 21-85 77-141 96-42 14-43 14-43-6 1-11-5-22-13-25s-11 0-7 7 0 11-12 11c-11 0-25 7-32 15-10 13-9 15 11 16 14 1 7 5-19 11-49 11-61 6-42-17 11-13 8-15-15-15-22 0-26 4-22 20 5 18 1 20-41 19-26-1-57-4-69-6z"/>
  <path id="bg" d="m2350 3088c0-26 8-39 34-60 37-30 66-36 66-15 0 6-6 32-13 57-11 42-14 45-49 48-37 3-38 2-38-30z"/>
  <path id="bh" d="m2890 3110c0-5-11-10-25-10-16 0-25-6-25-15 0-8 5-15 11-15s34-18 62-40c69-55 104-53 126 8 23 64 11 76-78 80-44 2-71-1-71-8zm30-26c0-3-6-12-14-19-10-10-16-11-25-2-18 18-13 27 14 27 14 0 25-3 25-6zm90-22c0-5-7-17-15-28-14-19-14-19-15 2 0 11 3 24 7 27 9 10 23 9 23-1z"/>
  <path id="bi" d="m2188 3033c-16-8-28-19-28-25s-9-3-20 7c-17 15-20 16-20 3 0-37 79-22 94 18 3 8 4 14 3 13s-14-8-29-16z"/>
  <path d="m3179 3038c-1-2-2-21-4-42-1-22-7-42-13-44-7-2-12-13-12-25 0-20 0-20 25 3 14 13 25 32 25 42s5 18 10 18c18 0 10-49-10-63-27-19-15-27 42-27 41 0 48 3 48 20 0 13 7 20 20 20 16 0 20 7 20 34 0 62-5 66-81 66-38 0-69-1-70-2zm97-103c-14-21-46-35-46-20 0 17 26 55 39 57 23 5 25-9 7-37z"/>
  <path id="bj" d="m1810 2990c0-29 4-40 15-40 8 0 15 7 15 15 0 21 16 19 39-4 19-19 20-19 27 12l7 32 26-60 1 43v42h-130z"/>
  <path id="bk" d="m1666 2981c-3-4-17-6-31-3-22 4-25 1-25-22 0-30 35-106 49-106 5 0 7 10 3 23-5 21-4 21 15 5 32-29 60-19 31 10-15 15 5 62 27 62 8 0 15 9 15 20 0 17-7 20-39 20-22 0-42-4-45-9z"/>
  <path id="bl" d="m3347 2983c-4-3-7-21-7-40 0-34 16-45 26-18 4 8 10 15 15 15s9-7 9-15c0-9 9-15 21-15 15 0 19-4 15-16-5-13-2-15 16-10 13 3 31 6 41 6s22 12 28 27c8 22 6 30-12 50-19 19-32 23-84 23-34 0-65-3-68-7z"/>
  <path id="bm" d="m2892 1768 3-53 38-3 37-3v49c0 43-3 50-22 56-54 14-59 10-56-46z"/>
  <path id="bn" d="m2010 1793c-43-5-60-26-60-75v-38h43c40 0 43 2 55 40 14 45 16 81 5 78-5 0-24-3-43-5z"/>
 </g>
 <g id="bo" transform="translate(-1277,-1679)" fill="#474747">
  <path id="bp" d="m3590 3470c0-28-3-30-36-30h-37l7-56c9-78-17-132-79-165-25-13-45-27-45-31s13-14 29-22c35-19 71-61 108-126 56-100 108-42 68 75-4 11 9-4 30-33 20-30 41-67 47-83 7-21 16-29 34-29 21 0 24-5 24-34 0-58 7-66 61-66h49v350h-25c-23 0-25 3-25 48 0 50-12 72-41 72-13 0-19 12-24 43-10 67-15 77-37 77-11 0-22 8-25 20-4 16-14 20-44 20-37 0-39-2-39-30z"/>
  <path id="bq" d="m1565 3330c-3-11-10-20-15-20-25 0-41-145-18-168 9-9 9-15 0-24-7-7-12-36-12-65 0-49 2-53 24-53 18 0 33 14 64 65 23 35 59 77 81 92s40 31 41 34c0 4-13 12-30 19-44 18-87 67-95 106-7 38-30 46-40 14z"/>
  <path id="br" d="m1280 3016c0-109 1-116 20-116 14 0 20 7 20 24 0 12 5 37 11 55 9 25 16 31 40 31 26 0 29 3 29 35s-2 35-29 35c-23 0-30 5-33 23-2 16-11 23-30 25l-28 3z"/>
  <path id="bs" d="m1410 2813c0-40-47-158-77-193-26-30-33-47-33-79v-41l96 52c53 28 135 66 183 84l86 32 7 43c9 49-3 69-38 69-18 0-24-6-25-22-1-17-2-19-6-5-2 9-12 17-21 17-10 0-23 9-30 20-8 13-23 20-42 20-17 0-30 5-30 10 0 6-16 10-35 10-26 0-35-4-35-17z"/>
  <path id="bt" d="m3692 2662c-7-5-15-24-18-43-5-34-5-34 71-74 99-52 95-51 95-22 0 40-20 86-41 92-10 4-22 17-25 31-5 19-13 24-38 24-17 0-37-4-44-8z"/>
 </g>
 <g id="bu" transform="translate(-1277,-1679)" fill="#5a3f4b">
  <path id="bv" d="m2421 3260c-1-64 10-81 35-56 8 9 24 16 34 16 20 0 30 19 30 60 0 29-18 40-71 40-26 0-27-2-28-60z"/>
  <path id="bw" d="m2620 3271c0-42 3-51 18-51 10 0 23-5 30-12 9-9 12-3 13 28 1 21 1 43 0 48s8 6 19 3c16-4 20-1 18 11-2 13-16 18-51 20l-47 3z"/>
  <path id="bx" d="m2240 3249c0-12-8-23-20-26-11-3-17-9-15-14 3-4-4-17-16-28-30-27-16-41 42-41h49v65c0 58-2 65-20 65-14 0-20-7-20-21z"/>
  <path id="by" d="m2830 3200c0-48 14-60 76-60 58 0 93 23 53 35l-22 7 48 38h-47c-27 0-48 4-48 9s-13 9-30 9c-28-1-30-4-30-38z"/>
  <path id="bz" d="m2608 2888c-33-35-48-35-87-2-29 24-45 22-20-3 6-6 17-22 23-35 10-19 20-23 61-25 28-1 44 0 38 3-18 8-16 30 3 60 23 34 14 35-18 2z"/>
  <path id="ca" d="m2354 2870c-8-46-34-56-34-12l-1 27-19-35c-25-46-25-50 8-50 41 0 51 12 58 63 8 57-3 63-12 7z"/>
  <path id="cb" d="m2765 2863c9-51 21-63 60-63h33l-21 40c-21 38-22 38-25 14-5-35-26-25-30 14-2 18-8 32-14 32s-8-14-3-37z"/>
  <path id="cc" d="m2474 2746c-3-7-4-35-2-62 3-49 3-49 41-52l37-3v45c0 25 5 46 10 46 6 0 10 9 10 20 0 17-7 20-45 20-30 0-48-5-51-14z"/>
  <path id="cd" d="m2348 2743c-11-3-19-23-27-67-20-114-13-136 45-136 27 0 32 4 38 31 3 17 6 65 6 105 0 79-3 83-62 67z"/>
  <path id="ce" d="m2235 2732c-2-2-25-6-52-10l-48-7v-40c0-34 3-40 23-43 19-3 22-9 22-48 0-44 0-44 35-44 39 0 55 20 55 69 0 17 4 31 8 31 9 0 32 59 32 83 0 12-9 15-36 14-20-1-37-3-39-5z"/>
  <path id="cf" d="m2900 2719c0-5-12-9-26-9-27 0-27 0-22-64 3-35 9-69 12-75 4-6 27-11 52-11 37 0 44 3 44 20 0 13 7 20 20 20 18 0 20 7 20 55 0 36-4 57-12 59-34 11-88 14-88 5z"/>
  <path id="cg" d="m2736 2702c-11-17-18-92-12-117 6-22 12-25 51-25 51 0 50-1 39 98-7 51-7 52-40 52-18 0-35-4-38-8z"/>
  <path id="ch" d="m3020 2681c0-51 16-71 55-71 35 0 35 0 35 45 0 40-3 45-22 45-13 0-33 3-45 6-20 6-23 3-23-25z"/>
  <path id="ci" d="m3367 1718-15-38 166 1c188 1 187 2-35 53l-101 23z"/>
  <path id="cj" d="m1610 1727c-47-12-85-26-85-32s49-11 123-13 122 1 122 7c0 5-4 21-10 35-12 32-33 32-150 3z"/>
 </g>
 <g id="ck" transform="translate(-1277,-1679)" fill="#4c4d4d">
  <path id="cl" d="m1522 3555c-11-14-26-25-34-25-32 0-68-27-79-57-6-18-14-33-18-33s-14-12-22-27c-8-16-31-58-51-94l-38-66 2-124c1-68 3-103 5-76 4 44 23 59 23 17 0-14 9-20 33-23l32-4-32-1c-37-2-49-28-59-130l-7-65 33 6c18 4 41 7 51 7 13 0 21 13 30 55 9 40 17 55 29 55 10 0 24 16 34 38 9 20 30 53 46 72l29 35 1-27c0-16 5-28 10-28 6 0 10 4 10 9s15 24 34 41c19 18 36 44 39 59 3 14 7 35 10 47s-3 34-14 50c-10 16-19 25-20 19-4-66-8-87-19-100-20-24-34-3-26 39 4 19 14 43 23 51 26 27 57 265 37 296-3 5-20 9-39 9-24 0-39-7-53-25z"/>
  <path id="cm" d="m3510 3476c0-14 4-36 9-49 8-19 15-23 35-20 22 5 25 1 31-41l7-45 24 17c24 18 33 65 14 77-6 4-8 10-5 15s-3 18-15 30c-11 11-20 25-20 30 0 6-18 10-40 10-36 0-40-3-40-24z"/>
  <path id="cn" d="m3700 3373c1-28 28-107 38-111 9-3 11 4 6 25-5 23-4 26 7 15 14-13 21-102 7-102-4 0-8 9-8 19 0 11-4 22-9 25s-6-8-2-27c4-17 8-36 9-42 1-14 22-19 22-5 0 7 7 5 16-5 13-12 14-19 5-28s-14-8-21 3c-5 8-10 11-10 5 0-14 15-36 26-38 5-1 8-5 7-8s4-6 12-6c17 0 26 34 19 71-4 23-2 27 11 23 12-5 15 2 15 38s-3 45-18 45c-12 0-21 15-32 53-15 51-16 52-58 55-23 2-42 0-42-5z"/>
  <path id="co" d="m3590 3195c0-9-9-19-21-22-15-4-19-11-15-27 3-11 6-24 6-28 0-12 30-9 30 2 0 6 7 10 16 10 11 0 14 9 12 37-3 36-28 61-28 28z"/>
  <path d="m3792 2965c6-96-15-83-25 15-2 20-5 7-5-27l-2-63h72l-7 43c-12 80-17 97-27 97-6 0-9-24-6-65z"/>
  <path id="cp" d="m1416 2843c-6-22-7-157-1-151 2 2 11 29 20 59l15 54-4-50c-3-41-2-47 8-32 7 9 16 14 19 10 4-3 7 6 7 20 0 31 15 34 42 10 19-17 19-16 16 22-2 33-7 41-25 43-13 2-23 10-23 18 0 22-67 19-74-3z"/>
  <path id="cq" d="m3575 2790c-5-21-13-30-26-30-17 0-19-7-19-59v-59l38-13c20-6 58-22 84-35 56-28 76-31 58-9-10 12-10 15 0 15 7 0 10 6 7 14s0 17 8 19c7 3 16-4 21-16 6-18 8-13 11 22 6 58-21 131-48 131-12 0-21 9-25 25-5 22-11 25-54 25-46 0-49-2-55-30z"/>
  <path id="cr" d="m3770 2645c0-20 6-48 14-63s16-36 18-47c3-22 16-35 36-35 8 0 12 21 12 74 0 96-4 106-46 106-32 0-34-2-34-35z"/>
  <path id="cs" d="m2518 2453-46-68 9-64c5-36 16-75 24-88 8-12 15-34 15-48 0-23 3-25 50-25 38 0 50 4 50 15 0 8 8 15 19 15 10 0 21 8 23 18 5 16 13 18 63 14l58-5-34 49c-18 27-60 85-94 129-33 45-67 91-75 104-15 23-16 23-62-46z"/>
  <path id="ct" d="m3018 2176c-51-55-64-77-55-84 6-6 45-14 85-17l72-8v92c0 116-11 118-102 17z"/>
  <path id="cu" d="m3722 2197c-12-18-60-72-107-122s-85-91-85-92c0-4 169-53 184-53 9 0 19 7 22 15 4 9 19 15 41 15 31 0 35 2 30 23-3 12-15 69-27 127s-24 108-28 112-17-7-30-25z"/>
  <path id="cv" d="m1370 2214c0-4-14-74-31-156s-28-152-26-154c11-11 48-3 162 36 66 23 122 43 124 46 3 2-4 11-15 18-10 8-59 59-109 115-82 92-105 113-105 95z"/>
  <path id="cw" d="m2053 2213c-14-5-17-80-7-121 7-24 1-23 110-6l36 5-59 62c-64 68-63 67-80 60z"/>
 </g>
 <g id="cx" transform="translate(-1277,-1679)" fill="#514b4e">
  <path id="cy" d="m1770 3730c0-20 1-20 30-5 17 9 30 18 30 20 0 3-13 5-30 5-23 0-30-4-30-20z"/>
  <path id="cz" d="m1910 3527c-22-11-25-17-22-56l3-44 18 27c10 15 22 26 26 24 6-3 34 40 35 55 0 10-31 7-60-6z"/>
  <path id="da" d="m3160 3531c0-13 36-51 49-51 5 0 12-10 16-22 7-20 9-17 14 17 7 44 3 49-46 60-21 4-33 3-33-4z"/>
  <path id="db" d="m2282 3481c-8-23-7-32 4-42 7-6 12-15 9-19-2-4-5-32-6-62-2-57-20-95-39-83-7 4-8-10-4-49 6-48 4-56-10-56-11 0-16-9-16-30 0-19 5-30 14-30 7 0 16-9 19-20 4-15 14-20 39-20 19 0 49-11 70-25 44-30 43-30 45-6 1 11-5 22-13 25-23 9-16 26 11 26 15 0 25 6 25 15s-6 12-15 9c-8-4-21-1-29 5-7 6-16 8-19 4-4-3-7 3-7 15 0 25-18 30-26 7-4-8-15-15-26-15-14 0-18 5-14 15 3 9 11 44 17 80 8 41 18 66 28 69 33 13 71 37 71 47 0 5 8 9 18 9 29 0 41 14 47 55l7 40-82 24c-44 13-83 28-86 33-10 16-22 8-32-21zm68-54c0-7-7-22-15-33-14-18-14-18-15 7 0 14 3 29 7 32 11 11 23 8 23-6z"/>
  <path id="dc" d="m2790 3491c-19-10-59-24-87-32-39-9-53-17-53-30 0-32 23-69 46-75 12-3 25-12 28-20s14-14 25-14 23-4 26-10c3-5 22-10 41-10 32 0 34 2 30 28-11 67-10 107 3 104 10-2 12 5 7 25-12 47-26 54-66 34zm20-88c0-13-4-23-9-23-10 0-21 35-21 70l1 25 14-25c8-14 14-35 15-47z"/>
  <path id="dd" d="m1786 3471c-3-5-11-42-17-82-6-41-15-91-19-112-7-35-6-39 17-48 33-12 39-11 25 3-18 18-13 103 13 226 5 21-8 31-19 13z"/>
  <path d="m3342 3425c-1-16 3-63 7-103s4-75-1-78c-13-8-26 30-39 116-7 47-14 80-16 73-2-6 0-40 5-76 9-71 2-113-14-85-7 12-15 13-34 6-25-9-25-9 15-28 52-25 96-25 145 0 39 20 62 43 38 38-7-2-14 7-16 19s-10 27-19 34c-13 11-15 9-13-16 3-48 1-65-10-65-5 0-10 9-10 20 0 19-12 79-30 145l-8 30z"/>
  <path id="de" d="m1931 3348c-1-15-5-38-10-52-12-29-5-33 50-28 39 4 39 4 39 48 0 55-18 58-26 4-8-46-21-52-30-12-3 15-9 36-14 47-8 18-9 17-9-7z"/>
  <path d="m2148 3330c-8-53-4-60 28-60 17 0 24 6 24 19 0 12-7 18-17 17-13-1-19 9-23 34l-6 35z"/>
  <path id="df" d="m3071 3328c-1-21-6-28-20-28-11 0-21 6-24 13-3 8-7 6-12-6-10-25-3-29 42-25l38 3-12 35c-11 33-12 34-12 8z"/>
  <path id="dg" d="m1705 3312c-6-25-12-32-24-28-9 4-6-3 8-14 33-28 38-25 33 18-5 55-9 61-17 24z"/>
  <path id="dh" d="m2100 3320c0-11 0-23-1-27 0-4 4-9 10-11s11 10 11 27-4 31-10 31c-5 0-10-9-10-20z"/>
  <path id="di" d="m2397 3302c-17-18-23-52-10-52 3 0 16 8 27 17 12 10 16 12 10 5-14-16-4-74 14-80 10-3 18 52 14 89-1 4 7 5 18 2 18-5 18-8 5-38-12-30-12-33 2-28 8 3 32 0 54-7 32-11 44-11 63 0 14 7 36 10 49 8 23-4 25-3 16 19-13 35-11 53 6 53 8 0 15 7 15 15 0 11-12 15-50 15-43 0-52-3-60-22-6-16-9-18-9-7-1 23-22 29-90 29-43 0-62-5-74-18z"/>
  <path id="dj" d="m2827 3263c-12-11-8-68 5-81 7-7 21-12 32-12 16 0 17 3 8 12-15 15-16 32-2 23 6-3 10 4 10 15 0 16-5 20-15 16s-15 1-15 14c0 20-11 26-23 13z"/>
  <path id="dk" d="m1843 3146c-23-28-53-35-53-11s-24 17-65-18c-23-20-36-38-31-45 12-20 93-15 115 7 11 11 37 21 58 23 27 2 39 8 41 21 2 10-3 17-12 17-8 0-19 7-24 16-8 14-12 13-29-10z"/>
  <path id="dl" d="m2870 3139c-100-13-105-15-125-59-10-22-16-43-13-46s21 4 39 15c19 12 49 21 67 21 17 0 32 5 32 10 0 6 28 10 64 10 72 0 92-14 82-55-7-29 10-34 19-6 3 11 13 25 22 33 15 12 16 9 11-29-4-24-3-43 0-43s18 15 33 33c31 36 37 25 14-30-20-47-19-50 10-69 25-16 27-16 50 6 13 12 25 34 27 49 3 23 7 26 45 26 52 0 61-15 33-62-11-19-20-36-20-38 0-3 21-3 48-1 39 3 49 8 60 30 10 19 21 26 43 26s29 5 29 20c0 14-11 22-42 30-50 13-55 15-173 70-66 31-107 44-153 48-34 3-65 9-68 13-6 10-43 10-134-2zm310-142c0-20-30-57-46-57-18 0-18 15 2 45 17 26 44 34 44 12z"/>
  <path id="dm" d="m2020 3121c0-4-16-11-36-14s-43-12-51-19c-17-13-151-68-169-68-6 0-25-7-42-16-39-19-43-48-6-50 14-1 33-9 43-18 22-20 42-21 35-1-5 11 1 15 20 15 21 0 26 5 26 25 0 22 4 25 38 25s40-4 53-32c11-26 21-34 44-35 26-2 27-1 9 6-24 11-40 59-25 74 7 7 17-2 31-27 22-37 48-51 35-18-24 57-28 72-23 78 12 11 28-7 45-47 10-27 21-39 35-39 19 0 19 1-1 29-12 16-21 44-21 63l1 33 25-42c17-27 33-43 46-43 19 0 19 0-1 26-26 33-19 44 25 44 20 0 42 6 49 14 12 12 11 16-10 30-26 17-175 23-175 7z"/>
  <path id="dn" d="m3390 3123c0-7-15-10-40-7-34 3-40 1-40-16 0-25 29-40 79-40 51 0 60 15 27 48-14 15-26 21-26 15z"/>
  <path id="do" d="m1590 2809c0-20 3-39 8-43 4-4 12-24 18-44l12-37 7 34c8 34 8 34 18 10l9-24 11 23c9 21 5 28-36 70l-47 47z"/>
  <path id="dp" d="m3475 2778c-23-21-25-27-18-63 7-32 16-43 43-57 33-15 35-15 38 3 4 25-17 127-28 134-5 3-20-5-35-17z"/>
  <path d="m2444 2752-40-3-12-113c-7-62-12-130-12-150 0-37 0-37 38-34 35 3 38 5 46 46 7 33 13 42 30 42 28 0 44 27 51 87 5 34 2 56-9 78l-16 30v-38c0-25-4-36-11-31-6 3-9 19-7 35 3 16 1 29-3 29s-9 6-11 13c-2 8-17 11-44 9z"/>
  <path id="dq" d="m2582 2672c5-76 9-93 34-130 16-22 34-41 40-42 7 0 14-9 17-20 4-15 14-20 41-20 20 0 36 5 36 10 0 6 13 10 29 10 17 0 33-4 36-10 3-5 21-10 40-10s37-4 40-10c3-5 19-10 35-10 23 0 31-5 36-25 5-21 12-25 40-25h34v70c0 65 10 90 24 55 3-10 19-15 46-15 38 0 40-2 40-29 0-44 14-45 56-6 24 23 46 35 65 35 21 0 29 5 30 18 1 9 9-8 19-38 16-52 19-55 54-58l36-3-1 58c0 32-6 78-12 103-11 40-17 47-52 59-22 7-64 14-92 15-31 0-53 6-53 12 0 12-87 34-107 27-7-3-13-17-13-32-1-25-1-25-15-7-8 11-15 27-15 37 0 12-12 19-46 24-53 8-60 4-45-23 13-24 14-62 3-62-5 0-15 19-22 43-7 23-16 46-20 50s-33 10-66 12c-32 2-97 9-144 14-145 18-134 25-128-77zm201-39c3-29 1-42-6-40-19 3-27 20-20 47 12 53 18 52 26-7zm137-17c7-20 6-26-5-26-18 0-22 7-30 55-7 38-6 39 9 18 9-11 20-33 26-47z"/>
  <path d="m2270 2705c-16-40-35-47-28-10 4 21 1 25-18 25-17 0-24-7-29-30-4-16-10-30-15-30-16 0-21 19-10 40 6 11 7 20 2 20-30 0-237-43-242-50-3-5-23-10-45-12-32-2-40-8-46-28-7-25-7-25-8-2-1 19-5 22-23 17-13-4-31-9-41-12-25-7-37-45-44-140l-6-83h36c35 0 37 2 48 44 10 42 12 43 47 41 51-3 47-1 85-40s47-34 47 26c0 32 4 35 70 43l45 5-3-65-4-64h35c27 0 37 5 42 20 5 14 15 20 37 20 21 0 31 6 35 20 4 16 14 20 43 20 41 0 41 0 56 70 8 39 8 38 19 128l8 62h-40c-36 0-41-3-53-35zm-30-73c0-16-7-37-15-48-14-18-14-18-15 6 0 35 11 70 21 70 5 0 9-13 9-28z"/>
  <path d="m3410 2603c0-10 7-37 16-60 14-36 21-43 44-43 24 0 28-5 38-51 7-28 12-59 12-70 0-17 8-19 75-19h75v54c0 29-3 67-6 83-6 32-23 41-181 97-65 23-73 24-73 9z"/>
  <path id="dr" d="m1605 2580c-11-5-46-19-77-31l-58-23v-58c0-58 0-58 30-58 28 0 30-2 30-40 0-39 1-40 35-40 19 0 35 2 35 4s9 48 20 101c21 101 25 155 13 154-5 0-17-4-28-9z"/>
  <path id="ds" d="m1313 2443-33-17v-108c0-107 0-108 24-108 20 0 26 8 40 58 16 59 22 193 9 191-5 0-23-8-40-16z"/>
  <path id="dt" d="m3770 2395c0-82 11-105 50-105h30v68c0 71 1 70-67 99-10 4-13-12-13-62z"/>
  <path id="du" d="m3540 1907c0-12 3-39 6-59 5-31 11-38 30-38 16 0 24-7 26-22 2-19 10-24 43-26 22-2 44-8 50-13 5-5 23-9 40-9 19 0 39-8 50-20 10-11 29-20 42-20 21 0 23 4 23 59v59l-97 37c-98 37-120 44-180 64-30 9-33 8-33-12z"/>
  <path id="dv" d="m1495 1900c-11-4-64-25-117-45l-98-37v-65c0-48 3-64 13-61 6 3 60 20 119 39l108 34v73c0 39-1 72-2 71-2 0-12-4-23-9z"/>
  <path id="dw" d="m2808 1822c-15-3-16-11-11-50 13-99-2-92 203-92h180v43c0 23-4 47-8 53-8 14-325 54-364 46zm132-63c0-11-4-17-10-14-5 3-10 15-10 26s5 17 10 14c6-3 10-15 10-26z"/>
  <path id="dx" d="m2122 1806c-73-10-85-14-98-36-7-14-13-37-14-51 0-35 16-39 176-39h132l6 31c3 17 6 49 6 70v39l-62-1c-35-1-101-7-146-13z"/>
  <path id="dy" d="m1905 1781c-39-6-40-7-43-47-3-39-1-42 29-48 17-3 44-6 60-6 24 0 29 4 29 24 0 13 9 35 20 49s20 28 20 31c0 7-59 6-115-3z"/>
 </g>
 <g transform="translate(-1277,-1679)" fill="#555">
  <path id="dz" d="m1475 3733c-4-10-13-40-20-68-24-95-67-200-91-226-13-14-24-35-24-48 0-12-13-36-30-53-24-24-30-38-30-73 0-82 22-65 100 83 19 34 37 62 41 62s12 15 18 33c11 30 47 57 79 57 8 0 23 11 34 25 27 34 38 23 38-36 0-27 4-49 8-49 13 0 42 96 42 136 0 19-4 34-10 34-5 0-7 6-4 14s12 12 20 9c10-4 22 12 39 51 14 31 25 59 25 61 0 3-31 5-69 5-68 0-68 0-79-32l-10-33-1 33c-1 30-4 32-35 32-23 0-36-6-41-17z"/>
  <path id="ea" d="m3800 3681c0-76 10-111 31-111 17 0 19 8 19 80 0 79 0 80-25 80-23 0-25-3-25-49z"/>
  <path id="eb" d="m3550 3642c0-11-12-22-31-29-31-12-32-14-26-56 10-71 24-100 47-94 11 3 17 1 14-4s2-12 10-15 18-14 21-25c4-11 11-16 17-13 6 4 14 0 19-7 6-9 8 1 4 29-7 50 6 55 23 10 10-27 14-30 22-18 14 21 26 0 34-59 8-60 26-89 26-43 0 50 22 35 40-26 10-37 20-52 32-52 9 0 20-4 23-10 14-22 25-8 25 32 0 30-7 49-23 67-13 15-29 45-36 68-6 24-20 47-30 53-12 6-30 42-46 90-20 60-31 80-44 80-10 0-26 9-36 20-24 26-85 28-85 2z"/>
  <path id="ec" d="m3103 3479c3-10 9-49 13-88 4-46 11-71 19-71 9 0 8 19-4 79-9 44-20 83-25 88s-7 1-3-8z"/>
  <path d="m2001 3404c-13-69-14-97-2-89 10 6 27 133 19 141-3 2-10-21-17-52z"/>
  <path id="ed" d="m3178 3305c-3-23 1-36 10-40 21-8 86-6 78 3-4 4-18 7-29 7-16 0-25 9-32 33-12 42-22 41-27-3z"/>
  <path id="ee" d="m3590 3191c0-21-5-31-15-31-17 0-19-27-5-64 12-33 36-33 44-1 4 16 13 25 27 25h20l-20 29c-12 16-21 33-21 39 0 5-7 15-15 22-13 11-15 8-15-19z"/>
  <path d="m2766 3178c-3-18-8-50-11-71l-6-37 38 14c21 8 55 17 76 21 55 9 50 35-7 35-43 0-45 1-48 32-4 47-35 51-42 6z"/>
  <path id="ef" d="m1511 3172c-7-17-19-37-27-43-21-17-17-29 11-29 22 0 25-3 19-25-3-14-3-50 1-80 5-44 10-55 25-55 12 0 19 9 22 28 3 15 9 35 13 45 5 12 2 17-10 17-15 0-17 6-11 43 4 23 9 52 13 65 3 15 1 22-9 22-8 0-19 10-25 22-9 20-10 20-22-10z"/>
  <path id="eg" d="m2307 3133c-14-13-7-31 14-36 13-4 18-10 14-17-8-13 11-30 33-30 8 0 10 5 5 13-8 13-9 18-11 55-2 16-8 22-25 22-13 0-27-3-30-7z"/>
  <path id="eh" d="m3730 3035-2-40-12 29c-11 23-14 25-19 11-4-9-7-32-7-51 0-33 1-34 40-34 37 0 40 2 40 28-1 15-9 43-20 62l-19 35z"/>
  <path id="ei" d="m1411 3013c-9-15-12-15-19-5-11 16-21-3-29-52-6-37-21-75-24-58-1 6-3 17-4 22-1 6-3 17-4 25-2 22-19 18-25-5-3-11-9-29-12-41-5-18-2-20 33-17 30 2 39 7 41 25 2 16 11 23 35 25 31 3 32 5 35 51 3 48-9 61-27 30z"/>
  <path id="ej" d="m3618 2869c-10-5-18-17-18-24 0-10-11-15-35-15-34 0-35-1-35-41 0-31-4-42-18-46-31-8-13-85 24-102 37-16 46-14 34 8-5 11-10 33-10 50 0 24 4 31 19 31 13 0 21 9 26 30 9 42 38 39 54-5 12-34 31-47 31-22 1 6 6 2 13-11 28-49 36 17 14 103-12 47-15 50-48 52-19 2-42-2-51-8z"/>
  <path id="ek" d="m1442 2848c-7-7-11-32-11-57l1-46 8 38c10 52 20 58 21 11 1-24 3-30 6-16 6 32 33 24 52-15 11-23 21-31 34-27 14 5 17-1 17-38 0-24-5-49-12-56-9-9-9-12 3-12 16 0 62 46 72 73 5 12 1 17-13 17-17 0-20 7-20 50 0 49-1 50-30 50-19 0-33 7-40 20-12 23-68 28-88 8z"/>
  <path id="el" d="m1340 2691c0-5-12-11-27-13l-28-3-3-92c-1-51 1-93 5-93 17 1 43 28 43 45 0 9 15 34 33 56 19 21 38 54 44 74l11 35h-39c-21 0-39-4-39-9z"/>
  <path id="em" d="m3730 2656c0-21 26-66 40-71 10-3 23-19 29-35 14-42 34-39 26 3-20 96-26 107-62 107-18 0-33-2-33-4z"/>
  <path d="m3817 2620c3-10 11-25 19-31 11-9 14-6 14 20 0 24-4 31-19 31-14 0-18-5-14-20z"/>
  <path d="m1858 2389c-46-97-140-351-134-364 3-10 24-8 97 7 52 11 96 24 100 29 3 6 28 9 55 8 27-2 74 1 104 6 44 7 50 10 30 15-31 7-53 75-29 90 17 11 19 9-81 125-41 49-84 99-96 113l-20 25z"/>
  <path id="en" d="m2500 2430c0-6-9-21-21-33-42-45-183-253-183-272-1-19 4-20 79-15 128 7 292 6 394-4l93-8-37 58c-48 75-74 104-90 98-7-3-19 3-26 13-8 11-22 22-31 26-10 3-16 14-13 25 2 10-5 25-16 33-10 7-19 20-19 28 0 25-12 3-16-28-2-16-4-33-5-38-4-22 3-31 20-26 20 5 21 1 6-45-5-16-14-22-29-20s-21-2-20-14c1-11-5-18-17-18-14 0-19 7-19 25 0 14-7 37-16 51-10 14-16 43-16 71 1 26-3 52-9 59-7 8-7 14 1 19 13 8 13 25 0 25-5 0-10-5-10-10z"/>
  <path id="eo" d="m3152 2330c-59-70-86-110-76-110 14 0 16-10 12-70-3-62-2-70 14-70 10 0 18-5 18-11 0-17 140-6 151 12 6 10 9 7 9-12 0-21 7-28 38-37 52-15 102-24 102-20 0 12-130 340-151 381l-25 48z"/>
  <path id="ep" d="m3650 2002c0-12 0-25 1-28 0-4-4-10-11-14-11-7 109-57 161-67l27-5-12 54c-10 41-17 53-32 53-10 1-18 6-16 13 3 15-14 16-23 2-4-6-10-8-14-5-5 2-13-7-20-21-13-29-34-28-39 2-6 29-22 42-22 16z"/>
  <path id="eq" d="m1397 1975c-3-11-8-30-12-42-5-18-2-20 15-16 21 6 24 24 11 58l-8 20z"/>
  <path id="er" d="m1320 1955c-15-39-12-55 10-55 15 0 19 6 18 24-1 14-6 22-10 20-4-3-8-1-8 5 0 5 5 11 12 13 9 3 9 6 0 12-8 4-16-2-22-19z"/>
  <path id="es" d="m3122 1783c2-5 10-21 18-37 11-22 12-30 3-33-7-3-9-11-6-19 4-10 23-14 68-14h63l7 41c4 22 4 43 1 46-15 16-161 30-154 16z"/>
 </g>
 <g id="et" transform="translate(-1277,-1679)" fill="#5f5f5f">
  <path d="m1280 3660c0-82 2-90 19-90 20 0 25 16 47 143l6 37h-72z"/>
  <path id="eu" d="m1570 3728c0-13 4-30 10-38 8-13 9-13 14 0 13 43 14 44 15 24 1-12-6-41-14-64s-15-49-15-56c0-8 7-14 15-14 11 0 15-12 15-47 1-38 3-44 11-30 24 40 46 148 41 197l-5 50h-43c-39 0-44-3-44-22z"/>
  <path id="ev" d="m3420 3746c0-2 11-28 24-57 13-30 34-90 46-134s26-84 31-89c17-18 22 4 12 54-9 46-8 52 9 61 14 8 24 7 35-3 14-11 15-9 8 22l-7 35 20-19c12-10 24-27 27-37 8-24 22-24 27-1 2 9 17-20 32-66 17-50 35-86 47-92 10-6 24-30 31-54 11-37 67-116 83-116 3 0 5 14 5 32 0 30-36 98-52 98-5 0-8 12-8 28 0 15-14 77-30 137-17 61-35 131-42 158l-11 47h-144c-79 0-143-2-143-4z"/>
  <path id="ew" d="m3790 3717c0-31 14-57 32-57 4 0 8 9 8 21 0 11 5 17 10 14 6-4 10 7 10 24 0 28-3 31-30 31s-30-3-30-33z"/>
  <path id="ex" d="m1376 3555c-14-52-26-101-26-109s-13-40-30-71-30-71-30-88v-31l40 42c22 23 40 51 40 64 0 12 11 33 24 47 29 30 76 160 76 208 0 31-2 33-34 33h-33z"/>
  <path id="ey" d="m2658 3453c-42-5-48-19-22-58 13-20 25-25 55-25 36 0 39-2 39-27 0-43 14-55 68-61 53-5 52-5 43 52 0 4-7 6-15 3s-20 1-27 9-18 13-26 10-16 1-19 8c-3 8-16 17-28 20s-28 17-34 30c-9 21-8 27 6 35 9 6 13 10 7 9-5-1-27-3-47-5z"/>
  <path id="ez" d="m2444 3428c-5-13-7-26-6-31 1-4-11-10-27-13-16-4-32-12-35-20s-12-14-19-14c-8 0-20-6-27-14-6-8-18-12-26-9-9 3-14-2-14-16 0-19 6-21 50-21 45 0 50 3 56 25 5 20 12 25 38 25 40 0 76 38 76 80 0 27-3 30-29 30-22 0-32-6-37-22z"/>
  <path id="fa" d="m1487 3125c-39-38-77-102-77-131 0-14 7-16 37-11 20 4 40 12 45 19 5 9 8 6 8-9 0-16-6-23-19-23-11 0-23-6-28-12-16-25-33-84-33-114 0-27-4-32-27-36-16-3-36-8-45-12-15-7-17 0-20 55-3 67-18 85-36 44-13-29-17-155-4-155 4 0 6-35 4-77-2-76-2-77 12-45 20 44 28 40 20-10-9-53 8-44 31 16 11 28 22 43 33 42 16-1 41 57 58 139 4 17 9 24 11 17 4-10 8-10 19-1s16 6 25-14c14-31 37-41 55-26 12 9 14 3 14-35 0-40 3-46 20-46 19 0 21 5 18 68s-5 67-28 70c-30 5-49 29-50 65 0 18 5 27 16 27 13 0 14 7 8 43-5 23-7 67-6 97 2 34-2 62-10 73-13 17-16 16-51-18z"/>
  <path id="fb" d="m3584 3125c-9-22-11-42-5-57 10-27 4-48-13-48-10 0-11-8-2-35 6-19 17-35 23-35 15 0 18-87 3-92-5-1-11-19-12-38-3-29 0-35 17-35 11 0 25 11 31 24 20 40 42 46 54 16 6-15 10-33 10-41 0-16 38-129 52-158 8-14 12-15 18-6 5 8 12 2 21-19 20-44 33-38 26 12l-5 42 17-33c33-64 42 4 13 98-13 41-25 58-45 68-15 7-27 17-27 23 0 5-13 9-29 9-28 0-29 2-33 58-2 31-2 59-1 62 2 2 13-1 23-8 36-22 52-15 48 21-2 26-7 32-24 30s-23 5-28 30c-9 44-70 133-96 140-17 4-24-1-36-28zm80-135c15-5 26-17 25-27 0-11-3-13-6-5-2 6-18 12-34 12-28 0-37 9-22 23 8 9 7 9 37-3z"/>
  <path d="m1765 2631c-90-29-92-33-94-138l-1-63h67l17 79c10 43 24 87 31 97 13 18 14 17 15-8 0-21 5-28 20-28 14 0 21 9 26 34 3 19 4 39 3 44-2 5-40-2-84-17z"/>
  <path id="fc" d="m3364 2576c9-79 13-86 52-86h34v55c0 58-6 65-64 79l-29 7z"/>
  <path id="fd" d="m2056 2604c-3-9-6-40-6-70v-54h34c38 0 46 12 46 71 0 43-6 48-26 22-12-16-13-15-14 15 0 34-23 45-34 16z"/>
  <path d="m2317 2613c-4-3-7-35-7-70v-63h39c39 0 40 1 46 44 8 52 4 78-12 84-8 2-13-5-13-18 0-19-2-21-15-10-9 7-14 19-11 27 5 13-15 18-27 6z"/>
  <path id="fe" d="m3040 2588c-1-30-2-31-14-15-19 25-26 21-26-15 0-61 10-78 41-78 17 0 32-6 35-15 4-9 19-15 40-15h34v70c0 63-2 70-20 70-16 0-20-7-20-32 0-38-11-29-25 20-14 50-45 57-45 10z"/>
  <path id="ff" d="m1460 2415v-95h34c22 0 36 6 40 16 8 21 8 104-1 145l-7 34-24-80-1 38c-1 30-5 37-21 37-19 0-20-7-20-95z"/>
  <path d="m1374 2473-41-23-6-77c-6-79 2-108 25-85 7 7 17 8 29 2 15-9 19-2 29 58 7 37 10 85 8 107l-3 41z"/>
  <path id="fg" d="m3700 2473c0-16 4-44 9-63s12-56 16-83c6-42 8-46 25-37 23 12 36-2 45-52 6-31 11-38 31-38 23 0 24 3 24 75 0 43-4 75-10 75-5 0-10-8-10-17-1-16-2-16-15 1-8 11-15 41-15 67 0 46-1 48-46 73-26 14-48 26-50 26s-4-12-4-27z"/>
  <path id="fh" d="m1918 2357c-6-30 0-47 17-47 12 0 25 21 25 40 0 5-8 14-19 19-16 9-20 7-23-12z"/>
  <path id="fi" d="m3220 2189c0-15-5-19-15-15-8 3-15 1-15-3 0-5 5-11 12-13 9-3 9-13 1-39-7-22-11-27-12-14-1 19-3 18-21-5l-20-25v33c0 26-4 32-22 32-12 0-18-3-15-7 4-3-2-12-13-20-34-24-24-41 28-49 26-3 101-17 166-30 66-13 121-22 124-20 2 3-1 13-7 23s-11 13-11 6c0-6-9-9-20-6s-18 9-15 13c3 5-8 11-25 15-23 5-30 12-30 30 0 23-25 45-50 45-6 0-15-10-20-22-7-17-8-7-4 35 4 39 3 57-5 57-6 0-11-9-11-21z"/>
  <path d="m1913 2183c-7-2-13-20-13-38 0-19-4-37-10-40s-10 4-10 16c0 18-3 20-12 11s-8-16 6-30c16-18 16-20-3-25-14-3-22 1-26 14-10 31-28 22-23-11 3-16 1-30-4-30s-7-4-4-8c3-5 54-1 113 9s115 19 123 19c11 1 12 3 2 7-7 3-17 16-22 29-11 27-38 32-46 9-4-8-17-15-30-15-25 0-29 10-25 63 1 15 1 27-1 26-2 0-9-3-15-6z"/>
  <path id="fj" d="m2428 2154c-3-3-3-14 0-26 4-17 10-19 41-14 20 3 45 6 56 6 15 1 12 5-15 20-34 19-71 25-82 14z"/>
  <path id="fk" d="m2620 2152c-25-8-7-31 30-37 45-8 60-2 60 24 0 15-8 18-40 17-22-1-44-2-50-4z"/>
  <path id="fl" d="m1562 1921c-34-10-65-20-67-22-2-3-1-27 3-54l7-50 67-3c85-4 108 8 108 53 0 24-5 35-15 35s-15 10-15 30c0 35-3 35-88 11z"/>
  <path id="fm" d="m3480 1870c0-61 2-70 18-70 10 0 23-5 29-11s28-9 49-7c44 3 50 15 39 84-8 53-25 58-25 7 0-46-10-38-12 10-1 33-4 36-44 46-24 6-45 11-48 11s-6-31-6-70z"/>
  <path id="fn" d="m2168 1813c-21-2-38-9-38-16 0-17-44-107-52-107-5 0-8 9-8 20 0 13-5 18-15 14s-15 0-15 13c0 22 19 48 40 56 8 3 3 6-12 6-31 1-53-31-59-84-4-30-4-30 52-33l56-3 7 39c9 62 31 80 106 91 54 7 57 8 20 8-25 0-62-2-82-4z"/>
  <path id="fo" d="m2300 1800c0-11 5-20 10-20 6 0 10 9 10 20s-4 20-10 20c-5 0-10-9-10-20z"/>
  <path id="fp" d="m3071 1783c13-15 12-16-8-11-26 7-28-2-11-35 6-12 14-29 18-37 5-10 25-16 59-18 28-2 51-1 51 1 0 3-7 24-15 47s-12 46-9 51-7 9-21 9h-26l20-26c24-31 27-54 7-54-7 0-19 20-26 45-10 34-17 45-33 45-17 0-18-2-6-17z"/>
  <path id="fq" d="m1936 1775c-6-18-2-19 26-4 19 10 20 9 13-7-19-47-23-84-9-84 8 0 14 10 14 24 0 13 9 35 20 49 27 34 26 37-19 37-25 0-41-5-45-15z"/>
  <path id="fr" d="m3740 1755c0-8 5-15 11-15s24-11 41-25c38-32 58-32 58 0 0 18-4 23-15 19-10-4-15 0-15 15 0 24-28 29-49 9-11-10-13-10-7 0 4 7 1 12-8 12s-16-7-16-15z"/>
  <path id="fs" d="m1860 1715c0-33 2-35 35-35 30 0 35 3 35 24 0 19-4 23-20 19-14-4-20 0-20 11 0 9-7 16-15 16-10 0-15-11-15-35z"/>
  <path id="ft" d="m3240 1729c0-15-5-19-15-15s-15-1-15-14c0-16 7-20 30-20 26 0 30 3 30 29 0 16-6 31-15 35-10 4-15-1-15-15z"/>
  <path id="fu" d="m3010 1713c0-26 4-33 20-33 25 0 25 11 0 41l-19 24z"/>
 </g>
 <g id="fv" transform="translate(-1277,-1679)" fill="#666">
  <path id="fw" d="m1411 3700c-14-64-14-107-1-115 6-3 14 4 19 17 9 22 10 22 10 2 1-12 8-24 16-28 10-4 17 6 25 37 17 70 33 117 37 113 3-2-3-31-12-64-22-78-16-93 18-45 19 26 27 32 27 20 0-10 5-17 12-15 14 5 36 64 37 101l1 27h-178z"/>
  <path id="fx" d="m1625 3738c-23-62-45-134-45-145 0-21 18-15 25 10 4 12 17 36 29 52 20 27 46 79 46 90s-51 4-55-7z"/>
  <path d="m3460 3746c0-16 34-93 54-123 31-44 32-32 9 60-15 58-20 67-40 67-13 0-23-2-23-4z"/>
  <path id="fy" d="m3530 3743c0-24 22-83 31-83 6 0 8 4 4 9-3 5-1 12 4 16 6 3 19-15 30-40 19-43 48-64 37-27-3 9-12 43-21 75-16 55-18 57-51 57-19 0-34-3-34-7z"/>
  <path id="fz" d="m3620 3743c0-5 11-46 24-93 19-65 25-77 25-51 1 42-28 151-40 151-5 0-9-3-9-7z"/>
  <path id="ga" d="m3681 3703c5-27 14-61 19-78 19-57 60-220 60-238 0-9 16-40 35-68s35-60 35-70c0-11 5-19 10-19 6 0 10 38 10 93 0 72-4 102-20 134-11 22-22 59-26 82-6 35-4 41 11 41 16 0 17 8 12 75-3 41-8 79-12 85-3 5-37 10-74 10h-68z"/>
  <path id="gb" d="m3692 3534c-10-11-9-21 4-51 19-44 29-27 17 29-7 30-10 34-21 22z"/>
  <path id="gc" d="m1315 3473c-3-16-11-41-17-58-6-16-13-68-15-115l-4-85 31 55c53 98 68 134 75 183l7 47h-36c-31 0-36-4-41-27z"/>
  <path id="gd" d="m2475 3439c-4-6-5-13-2-16 7-6-33-53-45-53-5 0-6 5-2 12s3 8-4 4-12-16-12-27c0-15 7-19 35-19 46 0 85 37 85 80 0 25-4 30-24 30-14 0-28-5-31-11z"/>
  <path id="ge" d="m2600 3421c0-51 29-74 99-79 33-2 61 0 61 4 0 13-18 39-27 39-25 2-53 19-67 40-10 16-26 25-41 25-21 0-25-5-25-29z"/>
  <path id="gf" d="m2289 3317c-1-6-3-25-5-40-3-26-1-28 29-25 24 2 34 9 41 30 11 32 11 33-31 41-23 5-33 3-34-6z"/>
  <path id="gg" d="m2780 3285c0-34 13-45 51-45 16 0 19 6 17 35-1 19-5 36-8 36-52 11-60 8-60-26z"/>
  <path id="gh" d="m2120 3114c0-18 4-25 14-21 7 3 18 1 24-5 13-13 65-1 57 12-3 6 3 10 15 10 13 0 20 5 18 13-3 7-28 13-66 15-61 3-62 3-62-24z"/>
  <path id="gi" d="m1692 3086c-22-24-45-53-51-65-11-20-10-21 35-21 56 0 94 30 94 73 0 17-4 26-10 22s-18-4-27-1c-12 5-13 9-3 21 27 33 0 12-38-29z"/>
  <path id="gj" d="m3402 3110c2-10-4-15-19-14-17 0-23-5-23-21 0-33 40-64 94-71l48-7-15 29c-18 35-90 105-85 84z"/>
  <path id="gk" d="m1469 3052c-6-19-19-32-35-36-15-4-24-14-24-26 0-10-4-22-10-25-5-3-10-1-10 4 0 6-4 11-10 11-5 0-15-20-21-45-10-39-13-42-26-30-30 31-32 25-49-192-6-69-5-73 15-73 15 0 21 7 22 23 1 47 24 89 57 103l32 13v-32c1-29 2-30 14-14 19 24 30 118 16 127-8 5-8 17-2 41 6 19 11 26 11 17 1-24 9-23 32 5l18 22 1-46c0-25 8-62 18-83 16-33 20-35 31-22 23 28 34 6 27-55-7-58-7-59 18-59 28 0 36 9 46 57 7 29 3 41-25 83-18 27-39 66-45 87s-19 53-27 72c-9 19-13 46-9 62 4 21 2 29-8 29-8 0-22 3-30 6-12 5-19-2-27-24z"/>
  <path d="m3618 3068c7-7 12-18 12-26 0-11-3-12-14-3-12 10-15 6-21-18-4-17-11-33-16-36-5-4-9-19-9-35 0-31-52-138-77-157-14-11-13-17 2-62 28-85 65-61 65 41 0 26 2 28 15 18 18-15 35-5 35 21 0 10 5 19 10 19 6 0 10 25 10 55s4 55 9 55c11 0 22-35 46-140 21-92 42-122 37-52-4 44-3 46 12 27 8-11 16-27 16-35 1-10 4-8 9 5 7 18 10 17 30-15 11-19 21-43 21-52 0-11 8-18 20-18 19 0 20 7 20 120 0 66-4 120-9 120-4 0-12 15-18 33l-10 32-7-32c-10-41-21-42-35-2-6 17-20 33-31 36s-20 13-20 23c0 19-23 43-32 34-3-3-16 9-28 25-12 17-29 31-38 31-12 0-13-3-4-12z"/>
  <path id="gl" d="m1665 2601c-46-15-50-19-57-56-4-22-7-57-7-77-1-37 0-38 38-38h38l23 84c12 46 21 88 19 94-2 5-25 2-54-7z"/>
  <path id="gm" d="m2450 2545c0-36 4-65 9-65s26 23 46 50c31 42 35 53 24 66-11 14-14 13-25-8l-13-23-1 23c0 15-6 22-20 22-18 0-20-7-20-65z"/>
  <path id="gn" d="m1976 2554c-3-26-6-66-6-90 0-43 0-44 35-44 42 0 53 17 62 100 4 43 2 60-6 60-6 0-14-7-17-15-9-24-24-17-24 10 0 18-5 25-19 25s-20-10-25-46z"/>
  <path id="go" d="m3387 2560c-10-35-9-79 4-122 9-35 13-38 44-38h35v53c0 87-10 127-31 127-15 0-19-7-19-32 0-36-16-28-22 12l-3 25z"/>
  <path id="gp" d="m3087 2520c-19-71-5-110 39-110h34v65c0 58-2 65-19 65-15 0-21-8-23-32l-4-33-10 35c-10 34-11 34-17 10z"/>
  <path d="m3633 2463c3-43 3-68 0-55-5 25-13 28-31 10-13-13-15-49-6-85 5-19 13-23 45-23 35 0 39 3 39 25 0 18 5 25 20 25 18 0 20 7 20 68v68l-46 22-46 23z"/>
  <path id="gq" d="m2080 2429v-60l43 3c39 3 42 5 45 33 2 17-3 43-11 58l-14 28-8-33-9-33-3 33c-3 24-9 32-24 32-17 0-19-7-19-61z"/>
  <path d="m1452 2373 3-68 38-3c36-3 37-2 36 30 0 18-4 51-8 73l-9 40-1-35c-2-58-21-73-21-17 0 41-3 47-20 47-19 0-21-5-18-67z"/>
  <path id="gr" d="m3741 2338c-1-27 4-48 9-48 12 0 12 47 0 75-6 15-9 8-9-27z"/>
  <path d="m3776 2338c0-24 3-50 7-58 3-8 13-43 23-77 24-90 44-85 43 10 0 39-3 65-6 57-2-8-7-22-9-30-9-25-25 10-23 50 2 46-10 90-25 90-7 0-11-16-10-42z"/>
  <path id="gs" d="m3831 2355c0-16 4-39 9-50 7-16 9-14 9 15 0 19-4 42-9 50-7 11-10 8-9-15z"/>
  <path d="m1327 2343c-3-5-8-29-12-55-4-27-12-48-17-48-7 0-8 15-4 40s2 40-4 40-10-38-10-96c0-116 14-121 46-17 28 92 30 96 55 82 19-10 20-8 17 22-4 38-25 50-31 17l-4-23-8 23c-7 22-20 29-28 15z"/>
  <path id="gt" d="m3111 2091-24-18 24-6c28-7 32-5 27 22-3 20-4 20-27 2z"/>
  <path d="m2395 2053c-287-23-481-51-683-98-84-19-154-35-155-35s0-23 2-51c2-40 0-50-10-47-9 3-13 18-12 42 2 32 0 36-22 36-24 0-25-3-25-54 0-57-13-82-24-43-10 36-7 77 6 77 6 0 9 2 6 5s-14 2-24-2c-15-6-19-18-19-60 0-68-19-70-23-3-3 46-5 49-23 40-15-8-19-21-19-60 0-27-5-52-11-56-9-5-10 9-7 49 4 52 3 55-14 46-10-5-18-20-18-32s-3-39-6-60c-6-35-5-37 20-37 15 0 48 9 74 20 26 10 76 27 112 36 36 8 68 20 71 26 4 6 36 12 73 15 43 4 66 10 66 18 0 16 54 25 147 25 39 0 136 10 215 22 127 20 180 23 473 23 288 0 350-3 486-23 86-12 192-22 235-22 51 0 89-6 108-15 15-8 37-15 47-15 11 0 36-9 56-20 42-23 92-26 98-7 11 35 15 117 5 117-5 0-10-20-10-44 0-47-14-67-33-46-9 10-9 11-1 6 8-4 13 10 16 42 3 26 4 48 4 48-1 1-11 4-23 8-20 6-21 4-16-32 4-28 1-41-12-52-16-13-17-10-14 40l4 54-140 32c-291 66-743 107-980 87zm-775-179c0-30 3-35 18-30s14 4-2-9c-10-8-22-12-27-10-11 7-22 63-14 75 13 21 25 9 25-26z"/>
  <path d="m3630 1876c0-31 6-34 13-6 3 11 1 23-4 26s-9-6-9-20z"/>
  <path id="gu" d="m3667 1870c8-30-6-92-20-87-7 2-11 17-10 33 2 25 1 26-6 9-5-11-10-30-10-42-1-20 4-23 33-23 19 0 38-4 41-10 3-5 34-10 67-10h61l-7 38c-3 20-6 42-6 48 0 7-8 14-19 17-16 4-17 1-10-32 6-25 4-40-4-48-9-10-13-2-15 34-3 53-8 63-27 63-9 0-17-18-21-47l-8-48-6 35c-3 19-2 43 2 52 6 12 3 20-11 28-27 14-30 13-24-10z"/>
  <path id="gv" d="m1875 1777c-38-5-71-11-73-12-8-7 28-63 43-69 35-13 45-7 45 29 0 30 3 35 24 35 31 0 56 10 56 21 0 10 2 10-95-4z"/>
  <path id="gw" d="m3242 1729c-2-39 0-49 13-49 19 0 48 26 64 58 13 25 11 26-44 35-30 5-30 5-33-44z"/>
 </g>
 <g id="gx" transform="translate(-1277,-1679)" fill="#717170">
  <path id="gy" d="m1316 3738c-19-64-31-155-34-270-3-123-1-137 13-132 20 8 45 56 45 86 0 13 5 30 11 38 8 11 9 7 5-17-6-38 6-44 22-9 13 29 48 159 66 249l14 67h-70c-46 0-70-4-72-12z"/>
  <path id="gz" d="m1470 3733c0-10-14-72-30-138-34-137-37-165-11-115 20 39 43 106 65 196 20 76 20 74-4 74-12 0-20-7-20-17z"/>
  <path id="ha" d="m3620 3743c0-27 64-231 76-243s14-12 14 5c0 11-12 71-27 132-22 90-32 113-45 113-10 0-18-3-18-7z"/>
  <path id="hb" d="m3681 3703c5-27 15-68 23-93s20-67 26-95c13-51 30-82 30-54 0 9-6 38-14 65-7 27-14 67-15 88-3 54-30 136-46 136-9 0-10-11-4-47z"/>
  <path id="hc" d="m3733 3714c8-63 46-237 59-269 7-16 23-45 35-64l23-34v119c0 65-4 135-9 154s-12 56-16 83c-5 39-10 47-27 47-18 0-20-4-14-32 24-122 17-144-12-38-20 73-47 97-39 34z"/>
  <path id="hd" d="m2496 3436c7-18-38-66-61-66-9 0-14 4-11 9 3 4-5 6-18 4-23-5-51-45-39-57 4-3 15-6 25-6 13 0 18-7 18-25 0-22 3-24 19-15 23 12 71 13 87 2 6-4 13-15 17-24 10-28 56-23 67 7 7 18 17 25 35 25 16 0 25 6 25 15 0 11 12 15 48 15 27 0 51 3 55 6 3 4-1 20-9 37-11 21-18 26-24 17-5-8-18-10-38-5-34 7-52 24-56 52-2 15-14 18-74 21-60 2-71 0-66-12z"/>
  <path id="he" d="m3641 3018c0-59 28-160 44-159 15 1 14 77-1 107-7 13-16 40-20 60-10 55-24 50-23-8z"/>
  <path id="hf" d="m1443 3002c-17-26-34-62-38-80-7-32-8-33-26-16-15 13-19 14-23 3-2-8-18-59-36-114-32-102-51-223-33-212 5 3 15 25 22 49 45 148 53 168 69 168 8 0 23 7 32 15 16 14 17 14 13-10-3-14-1-25 5-25s14 16 18 36 15 60 25 88c20 53 25 131 10 140-4 3-22-16-38-42z"/>
  <path id="hg" d="m1516 2948c-9-36-7-100 3-93 15 8 25 95 14 106-7 7-12 2-17-13z"/>
  <path id="hh" d="m3597 2963c-11-10-8-51 3-58 6-3 10-15 10-26 0-10 5-19 11-19 8 0 9 11 5 31-3 17-6 42-6 55 0 23-10 31-23 17z"/>
  <path id="hi" d="m3765 2863c2-32 6-69 10-83 36-127 58-190 66-195 23-15 7 100-30 210-21 64-41 119-44 122-3 2-4-21-2-54z"/>
  <path id="hj" d="m1557 2858c-9-7-20-29-23-48-7-34-7-35 13-17 24 21 33 14 33-27 0-17 5-38 10-46 9-13 11-13 20 0 13 20 13 40-1 40-7 0-9 11-6 27 5 27-10 83-22 83-4 0-15-6-24-12z"/>
  <path id="hk" d="m2046 2578c-3-13-6-36-6-53 0-16-10-41-21-55l-20-25 3 38c4 33 2 37-19 37-19 0-23-5-23-29 0-16-5-31-12-33-14-5 81-116 101-117 11-1 13 11 8 53l-5 55 31 3c29 3 32 7 35 38 2 20-1 47-7 60-8 22-10 22-11 5 0-11-5-27-11-35-7-11-9-3-7 33 3 38 0 47-13 47-9 0-19-10-23-22z"/>
  <path d="m3206 2558c-3-13-6-38-6-55v-33l36 17c32 16 37 16 47 2 20-27 37-10 37 36 0 37-3 43-24 47s-26 1-29-21l-3-26-12 28c-14 33-37 35-46 5z"/>
  <path id="hl" d="m3171 2486c-1-30 3-46 8-40 5 5 6 27 1 49l-8 40z"/>
  <path id="hm" d="m1503 1903c-13-5-18-45-7-55 7-7 44 28 44 41 0 11-21 19-37 14z"/>
  <path d="m3590 1865c0-30-5-47-14-51-17-7-76 22-76 38 0 6-11 8-29 5-15-3-33-1-38 4-13 13-140 30-170 22-34-8-31-43 4-43 25 0 185-34 304-65 30-8 69-15 87-15 17 0 34-4 37-10 3-5 19-10 35-10 27 0 29 2 20 24-9 26-9 44 3 64 10 15 0 32-18 32-9 0-17-18-21-47l-8-48-7 35-6 35-2-32c-1-25-6-33-19-33-31 0-39 18-32 71 5 42 4 52-11 60-32 17-39 10-39-36z"/>
  <path id="hn" d="m1758 1876c-39-5-58-13-58-22 0-8-7-14-15-14s-15-5-15-11c0-8 19-10 63-5 156 15 167 18 167 36 0 22-58 29-142 16z"/>
  <path id="ho" d="m1560 1825c0-9-9-19-20-22s-20-12-20-19c0-17 5-17 69-2 38 8 51 16 51 29 0 10-7 18-17 18-10-1-28 2-40 6-18 6-23 3-23-10z"/>
  <path id="hp" d="m3305 1760c5-8-14-20-51-35-1 0-5-10-8-22-6-20-4-23 18-23 20 0 30 9 45 39 19 37 19 51-1 51-5 0-6-4-3-10z"/>
  <path id="hq" d="m1820 1729c0-25 22-49 45-49 27 0 34 27 13 48-15 15-58 16-58 1z"/>
 </g>
 <g transform="translate(-1277,-1679)" fill="#787778">
  <path id="hr" d="m1850 3699c-52-28-103-57-112-66-15-13-48-93-48-115 0-32 184 36 195 73 4 10 12 19 19 19 6 0 25 23 41 50 16 28 33 50 37 50s8 9 8 20c0 32-35 24-140-31z"/>
  <path id="hs" d="m3150 3731c0-10 7-24 15-31s15-19 15-27c0-24 31-63 51-63 10 0 25-12 33-27 9-18 32-35 63-47 26-10 56-25 65-33s25-13 36-11c20 3 20 3 1 65-22 69-49 95-161 147-32 15-60 31-63 37-4 5-17 9-31 9-17 0-24-6-24-19z"/>
  <path id="ht" d="m2370 3350c-7-16-18-30-26-30-7 0-18-9-24-21-8-15-15-18-24-10-10 8-13 3-14-22-1-17-6-45-10-62-8-28-12-30-58-31-27 0-78 2-114 6-62 5-135-6-177-28-10-5-41-15-70-22-57-13-115-39-123-55-10-21-35-45-47-45-7 0-13-7-13-16 0-26 121-11 245 31 56 19 110 35 119 35s16 5 16 10c0 6 15 8 40 4 26-4 45-2 55 6 11 9 37 11 95 6l80-6v27c0 46 30 117 58 140 15 12 41 23 57 23 22 0 26 3 15 10s-9 11 11 19c15 5 29 16 32 25 5 13-1 15-40 9-36-5-49-3-58 11-11 15-14 13-25-14z"/>
  <path id="hu" d="m2634 3345c-14-43-9-50 34-53 27-2 45-9 49-18 4-12 8-13 13-4 4 7 13 9 20 5 19-11 60-106 60-138v-28l80 2c44 1 83-1 87-5 3-3 27-6 52-6 25-1 64-8 86-16 22-9 72-26 110-38 39-12 77-25 85-31 8-5 54-11 102-13 78-4 88-3 82 12-3 9-10 16-16 16-5 0-7 4-4 9 4 5-3 7-14 4-13-3-32 5-54 25-32 28-130 72-160 72-7 0-28 8-47 18-28 14-61 17-179 17-144 0-144 0-157 25-7 14-13 41-13 60 0 20-4 30-8 23-9-14-26-5-35 20-3 9-13 17-21 17s-17 8-20 18c-5 14-17 17-67 17-34 0-63-4-65-10z"/>
  <path d="m2595 3280c-3-5-12-7-19-4-8 3-16-4-19-16-4-17-1-21 15-18 12 2 25 13 29 26 8 22 5 30-6 12z"/>
  <path id="hv" d="m2474 2752c-6-4-14-43-18-87-8-90-24-165-38-180-7-6-8 11-3 50 3 33 10 95 14 139l7 78-59-6c-33-3-68-6-77-6-22 0-40-44-70-168-12-51-27-95-32-98-21-13 12 156 47 239 5 13 2 17-14 17-14 0-25-9-31-25-16-41-70-273-68-286 2-6-3-14-11-16-10-4-12 2-8 28 3 19 10 67 17 107 6 39 19 97 29 127 18 54 18 55-1 55-11 0-16-5-13-10 4-6-8-54-25-108-44-132-44-132-47-87-2 26 7 67 26 118l29 77h-22c-18 0-25-8-33-42-6-24-23-88-37-143-21-78-25-105-16-123 5-13 8-28 5-33-4-5 3-9 14-9 10 0 21 5 23 12 3 8 12 4 26-10 16-16 22-34 22-65 0-33 6-49 23-65 33-31 47-28 47 13v35h49c43 0 50 3 54 23 3 13 5 8 6-15 0-21 5-38 10-38 14 0 65 80 77 119 6 22 16 35 25 34 7-1 29 20 47 47 31 44 34 56 38 142 3 51 11 110 19 131 14 34 13 37-3 37-9 0-22-4-28-8zm-104-173c-13-75-30-92-30-31 0 43 19 152 28 167 13 19 13-67 2-136zm-45 89c-10-60-33-150-41-157-8-8 4 101 18 157 6 23 15 42 20 42 6 0 7-17 3-42z"/>
  <path d="m2533 2754c-7-3-13-23-13-43 0-21-4-62-10-91-12-65-5-78 27-49 18 18 28 21 41 13 9-6 71-88 137-182s124-172 129-172c9 0 1 135-10 164-5 12 0 16 20 16 16 0 26-6 26-15 0-7 5-37 11-65 9-43 14-50 35-50s24-4 24-40c0-47 7-49 43-12 21 21 27 38 27 70 0 29 5 45 15 48 8 4 15 12 15 20 0 21 18 17 25-6 3-11 9-20 13-19 4 0 28 25 54 54 54 62 54 69 12 205-28 87-27 80-14 80 14 0 29-34 48-111 17-66 18-69 37-55 16 11 19 25 17 67-1 50 0 52 13 35 8-11 15-32 15-48 0-15 5-28 10-28 6 0 10-7 10-15s-5-15-11-15c-8 0-8-4-1-12 16-20 91-192 132-303 29-81 41-101 58-103 20-3 22 1 22 40 0 24-6 68-14 100l-13 56 80 8-7-111-7-110 49 48c41 40 48 52 44 77-3 22 0 30 11 30 8 0 18-6 20-12 3-8 20 3 46 30 22 23 45 42 52 42 12 0 5 96-11 152-6 19-5 28 3 28 7 0-1 9-18 20-16 10-31 17-34 15-2-3-3-30-2-60s0-55-3-55c-2 0-9 31-16 69-8 46-17 72-27 75-9 4-17 5-19 3-2-1 4-44 13-95 9-50 14-95 10-99-10-10-18 2-19 28 0 13-5 59-11 101-9 71-13 78-39 89-16 6-30 10-33 8-2-2 3-31 11-64 15-67 18-115 6-115-4 0-14 32-21 72s-18 84-24 98-11 26-12 26c0 1-11 5-25 9-20 6-23 5-12-6 6-7 12-24 11-38 0-23-3-21-19 15-10 23-25 44-34 47-19 8-19 8-1-68 17-69 20-128 6-106-5 8-17 52-27 99-15 74-33 106-50 90-2-3 2-34 11-69 16-70 20-118 7-103-10 11-38 104-47 155l-7 36-108 27c-148 36-144 36-121-21 22-56 46-184 39-204-3-8-11 6-17 31-7 25-24 87-39 137-24 82-30 93-50 93-21 0-22-2-9-27 13-26 27-75 42-145 10-50-10-29-30 30-10 31-27 75-37 96-14 31-15 42-6 48 9 5 5 8-9 8-28 0-28 2-4-53 21-50 45-189 39-228-2-15-13 15-27 76-35 153-56 210-78 213-19 3-19 1 3-67 27-84 43-202 25-185-7 6-21 49-31 95s-26 103-35 127c-14 35-22 42-45 42-15 0-49 3-75 7l-48 6 6-92c4-50 10-110 13-133 5-28 4-39-4-34-13 8-30 86-40 186l-7 75-60 2c-33 1-66-1-72-3zm112-145c4-46 4-81 0-77-12 11-34 129-34 178v45l13-31c8-17 17-69 21-115zm129 79c13-63 19-183 9-173-24 25-45 205-24 205 5 0 11-15 15-32zm65-83c7-38 14-81 17-93 3-14 1-21-5-18-12 8-41 134-41 178 1 49 15 16 29-67z"/>
  <path id="hw" d="m2014 2692c-11-7-59-155-68-209-4-22 0-37 10-48 20-20 31-13 37 27 10 62 26 126 45 182 17 50 17 56 3 56-9 0-21-4-27-8z"/>
  <path id="hx" d="m1894 2668c-45-10-81-24-81-31-1-19-52-189-59-196-10-9 5 100 21 153 8 25 11 46 7 46-23-1-39-29-59-102-13-53-21-72-22-53 0 17 6 54 13 83 13 48 13 53-1 48-8-3-19-6-24-6s-8-3-7-7c5-16-35-143-45-143-5 0-7 10-3 23 3 12 6 36 6 54 0 17 7 39 16 47 18 19 5 21-30 5-14-7-23-15-21-19 6-9-33-201-42-209-9-9 5 132 18 168 6 17 9 35 5 38-10 11-62-17-63-35-1-9-6-57-12-107-6-49-11-91-11-93s-5 0-11 4c-13 8-5 107 12 162 6 18 9 36 6 38-3 3-55-21-116-53l-111-58 1-185c0-134 3-178 10-160 6 14 9 43 8 65-5 118 2 238 16 268 14 31 15 28 10-51-4-66-3-83 7-80 8 3 16 36 22 91 6 56 14 88 22 91 17 7 18-16 2-102-10-53-10-66 1-70 7-2 27-20 44-39 25-27 37-33 58-29 23 4 26 1 35-37 8-38 12-42 42-45l32-3v137l35-4c40-5 41-8 23-94l-12-58h-80l39-40c21-22 46-40 55-40 10 0 27 34 54 113 21 61 50 137 64 167 13 30 37 83 53 118 15 34 33 62 39 62s24-7 39-15l29-14 7 57c4 31 15 79 26 106 10 28 18 51 16 52-1 1-38-7-83-18zm2-55c-3-10-8-31-12-48-9-39-13-47-24-40-7 4 0 45 15 93 7 19 27 14 21-5z"/>
  <path id="hy" d="m3770 2414c9-83 24-89 32-12 5 40 3 47-16 56-21 9-22 8-16-44z"/>
  <path id="hz" d="m3824 2408c3-13 9-72 13-131 5-94 4-107-9-102s-14 0-4-39c7-25 15-48 19-52s7 72 7 169c0 156-2 177-16 177-12 0-15-6-10-22z"/>
  <path id="ia" d="m2470 1813c0-24 68-83 97-83 28 0 83 53 83 80 0 18-7 20-90 20-78 0-90-2-90-17z"/>
  <path id="ib" d="m1485 1790c-45-19-64-25-92-28-17-3-44-32-38-42 8-12 185 51 185 67 0 15-24 16-55 3z"/>
 </g>
 <g transform="translate(-1277,-1679)" fill="#898a89">
  <path id="ic" d="m1955 3742c-6-4-24-28-40-54-17-27-35-48-41-48s-16-11-22-25-16-25-22-25c-5 0-10-4-10-10 0-11 70-13 85-2 19 13 35 52 35 82 0 27 3 30 33 30 37 0 57 15 57 42 0 14-8 18-32 18-18 0-38-4-43-8z"/>
  <path id="id" d="m2400 3725c0-24 3-25 53-25 65 0 97 9 97 25 0 19-24 25-91 25-56 0-59-1-59-25z"/>
  <path id="ie" d="m2593 3735c-3-9-2-19 2-23 3-4 55-9 113-10 59-2 113-8 120-14 9-8 12-6 12 6 0 9 7 16 15 16s15 9 15 20c0 19-7 20-135 20-113 0-137-3-142-15z"/>
  <path id="if" d="m3217 3664c-12-13-8-71 7-83 19-16 106-27 106-12 0 6-4 11-10 11-5 0-16 14-25 30-9 18-23 30-35 30-10 0-23 7-28 15-4 9-11 12-15 9z"/>
  <path d="m3340 3549c0-11 8-23 18-26 9-4 32-18 50-31 18-14 35-22 38-19 10 9-7 47-20 47-7 0-21 9-30 19-26 28-56 34-56 10z"/>
  <path id="ig" d="m3105 3099c4-5 38-25 76-43l69-33v26c0 24-6 29-55 44-64 19-99 22-90 6z"/>
  <path id="ih" d="m1955 3095c-5-2-36-11-67-20-54-15-58-19-58-45v-29l58 21c31 12 64 27 72 34 8 6 25 15 38 18 12 4 22 12 22 17 0 9-44 11-65 4z"/>
  <path id="ii" d="m1629 3001-20-34 61 7c75 9 110 24 110 47 0 15-9 17-65 16-63-2-66-3-86-36z"/>
  <path d="m2726 2445c-20-31-20-37 2-56 9-8 26-27 38-43l20-27 2 37c4 58 9 52 22-28 13-77 32-118 75-158l27-25 65 68c35 38 62 71 59 75-3 3 4 10 16 16 33 17 61 61 54 84-9 26-75 36-84 13-3-9-11-20-19-24-9-5-13-32-14-80l-2-72-9 100c-5 55-13 104-18 109-15 15-29-37-24-85 6-62-13-17-22 51-6 46-9 50-33 49-14-1-34 2-43 6-11 4-18 3-18-4 0-6-7-11-15-11s-15-6-16-12c0-7-5-3-11 9-16 32-34 35-52 8z"/>
  <path id="ij" d="m2354 2425c-15-37-19-105-6-105 11 0 82 103 82 118 0 6-6 9-14 6s-17-1-21 5c-12 20-26 11-41-24z"/>
  <path id="ik" d="m2296 2411c-26-5-31-13-42-56-6-28-12-42-13-32 0 9-5 17-11 17-5 0-10 12-11 28-1 22-3 19-14-18l-13-45-1 46c-1 31-6 49-15 52-11 5-16-11-21-71-9-102-13-112-14-29-1 79-20 107-75 107-28 0-34-4-39-26-4-22 8-41 73-113 130-145 126-144 183-59 30 46 37 66 43 131 4 43 5 76 3 76-2-1-17-4-33-8z"/>
  <path id="il" d="m1656 2362c-4-8-12-26-16-40l-8-27-1 30c-2 30-2 30-19 10-9-11-25-19-34-17-16 3-18-6-18-74 0-88-6-92-19-13-8 52-9 53-10 13-1-31-6-43-22-50-19-9-17-13 36-63 33-32 62-51 70-47 8 3 19-2 23-11 6-10 16-14 26-10s14 12 11 18c-4 6-4 31 0 57 5 34 9 42 14 28 8-21 16-7 61 107 21 54 22 60 7 75-15 14-18 13-31-19-9-19-15-26-16-16 0 10-8 17-19 17-13 0-21 8-23 23-2 16-5 19-12 9zm49-119c-9-37-18-20-9 19 4 18 9 27 11 20 3-7 2-24-2-39z"/>
  <path id="im" d="m3456 2363c-3-3-6-15-6-26 0-16-3-17-15-7-19 16-19 18 6-102 15-71 18-103 10-108-11-6 2-64 19-83 4-4 26 10 51 31l44 39 3 110 4 110-32 17c-41 20-40 20-41-6v-23l-9 21c-10 25-24 36-34 27z"/>
  <path id="in" d="m3368 2338c-4-28 35-131 52-136 12-4 7 50-11 121-11 41-36 50-41 15z"/>
  <path id="io" d="m3596 2282c-8-13-18-142-12-142 4 0 29 21 56 46 45 42 57 74 26 74-6 0-23 7-38 14-15 8-30 12-32 8z"/>
  <path id="ip" d="m2404 1798c5-29 4-31-8-15-14 18-71 24-81 7-3-5-9-32-12-60l-6-50h533v41c0 53-15 79-45 79-13 0-25 5-27 12-2 6-31 13-65 16-48 3-64 1-82-14-25-22-27-34-6-34 19 0 20-16 1-23-7-3-34-8-59-12-44-7-45-7-40 19 3 14 10 26 16 26 5 0 2 9-8 20-13 15-31 20-68 20h-49z"/>
  <path id="iq" d="m1560 1807c-25-6-51-17-58-24s-24-13-38-13c-15 0-24-6-24-16 0-11 5-14 18-9 9 4 52 16 95 27 49 13 77 25 77 34 0 16-7 16-70 1z"/>
 </g>
 <g id="ir" transform="translate(-1277,-1679)" fill="#929492">
  <path id="is" d="m1986 3733c-13-13-20-15-23-5-10 28-20 15-64-83-8-16-21-36-29-43-12-10-6-12 40-8 51 4 157 29 168 41 3 2 1 28-4 57-8 49-11 53-39 56-18 2-37-4-49-15z"/>
  <path id="it" d="m3060 3721c0-42 9-61 30-61 10 0 20-9 23-19 6-25 68-51 120-51 39 0 40 0 22 20-10 11-15 20-11 20s-2 13-13 29c-12 16-21 36-21 43 0 30-35 48-93 48-56 0-57 0-57-29z"/>
  <path id="iu" d="m2742 3324c-7-7-19-11-27-8-28 11-15-22 25-64 23-23 45-42 50-42 6 0 10 16 10 36 0 46-39 98-58 78z"/>
  <path id="iv" d="m2357 3304c-19-26-23-69-6-79 6-4 16 0 22 8 7 8 30 27 51 41s34 26 28 26-9 6-7 13c4 8-7 12-33 12-28 1-43-5-55-21z"/>
  <path id="iw" d="m2284 3165c-3-8-3-19 1-26 5-8-8-10-46-8-31 2-56 0-57-6-3-12 121-29 154-21 25 7 34 36 10 36-7 0-16 9-19 20-6 23-35 27-43 5z"/>
  <path id="ix" d="m1830 3059c-36-12-71-22-77-24-7-3-13-18-13-35 0-29 13-40 25-20 3 6 15 10 26 10 26 0 81 29 75 39-6 9 36 31 59 31 8 0 17 5 20 10 10 16-44 11-115-11z"/>
  <path d="m3213 3060c2-24 53-50 166-85 57-17 131-13 131 8-1 31-27 45-93 50-38 3-74 10-80 15-12 9-95 32-116 32-5 0-9-9-8-20z"/>
  <path id="iy" d="m2274 2425c-16-40-31-173-15-140 5 11 10 32 10 46 1 34 31 63 31 30 0-32 17-25 24 10 8 43 8 51-4 44-6-4-10 5-10 19 0 37-19 32-36-9z"/>
  <path d="m2360 2440c-6-12-10-33-8-48 3-24 5-21 19 21 16 47 9 65-11 27z"/>
  <path id="iz" d="m2740 2451c0-6 4-12 9-15 4-3 11-20 15-37 9-47 19-28 11 20-4 25-12 41-21 41-8 0-14-4-14-9z"/>
  <path id="ja" d="m2830 2449c0-27 33-97 37-77 2 9-5 34-16 55s-20 31-21 22z"/>
  <path id="jb" d="m2219 2413c-15-49-25-242-11-228 5 6 17 57 26 115 10 58 20 115 23 128 10 40-25 26-38-15z"/>
  <path id="jc" d="m2884 2393c20-153 29-203 37-203 13 0 11 111-3 186-8 44-16 64-26 64-12 0-13-10-8-47z"/>
  <path id="jd" d="m2167 2423c-4-3-7-49-7-102 0-119 15-109 24 17 5 84 1 104-17 85z"/>
  <path id="je" d="m3030 2395c0-7-6-18-14-22-9-5-15-30-18-70l-3-62 43 41c38 38 57 68 32 53-6-3-10 5-10 19 0 31-9 56-21 56-5 0-9-7-9-15z"/>
  <path id="jf" d="m2077 2393c-18-17-5-79 22-111l29-34 7 32c5 25 2 39-14 61-12 15-21 35-21 44 0 16-12 20-23 8z"/>
  <path id="jg" d="m2849 2265c-15-33-15-35 7-55l22-22 7 22c8 24-2 90-13 90-4-1-14-16-23-35z"/>
  <path d="m1516 2271c-3-4-25-11-48-15l-43-7 54-51c62-60 74-54 64 31-5 48-15 62-27 42z"/>
  <path id="jh" d="m3585 2214c-4-36-5-67-3-70 12-11 46 30 51 63 6 35-11 73-33 73-4 0-11-30-15-66z"/>
  <path id="ji" d="m3398 2254c-8-13 9-54 22-54 5 0 10 6 10 13 0 19-26 52-32 41z"/>
  <path id="jj" d="m2205 1920c-153-18-444-60-505-74-36-7-81-22-100-32l-35-19 29-3c16-2 48 1 71 7 70 18 291 51 480 72 414 47 962 13 1381-86 58-14 118-25 132-25h27l-25 13c-77 40-291 90-530 123-174 24-230 27-525 30-181 1-361-1-400-6z"/>
  <path id="jk" d="m2354 1823-51-4-6-47c-4-26-9-57-13-69-5-20-3-23 19-23s26 6 32 40c9 54 19 57 40 12 23-47 20-45 43-33 38 20 37 135-1 129-7-1-35-3-63-5z"/>
  <path id="jl" d="m2473 1770c-6-27-8-52-5-55s23-5 44-5c27 0 38-4 38-15 0-8 7-15 15-15s15 9 15 20c0 14 7 20 21 20 48 0 70 30 53 74-9 24-49 19-69-7l-17-23-30 28c-17 15-36 28-43 28s-17-22-22-50z"/>
  <path id="jm" d="m2692 1813c0-5-2-15-6-24-10-23 16-93 37-97 12-3 17 3 17 21 0 13 9 32 19 41 19 17 20 17 30-3 6-11 11-31 11-45 0-21 5-26 26-26 24 0 26 3 20 28-4 15-9 46-13 70l-6 42h-68c-38 0-68-3-67-7z"/>
 </g>
 <g id="jn" transform="translate(-1277,-1679)" fill="#a9a8a8">
  <path d="m2023 3729c8-11 12-29 9-41-3-11 1-24 9-30 11-8 10-9-4-4-10 3-23 6-28 6s-7 11-3 25c5 21 3 24-10 19-11-4-16-15-14-32 3-23-3-27-72-52-91-33-160-67-160-80 0-20 20-19 71 4 93 42 379 123 499 141 63 10 117 19 118 21 2 1 1 12-3 23-6 20-13 21-216 21h-210z"/>
  <path id="jo" d="m2492 3730c11-16 24-20 73-20s62 4 73 20c12 19 10 20-73 20s-85-1-73-20z"/>
  <path id="jp" d="m2823 3743c-27-5-30-24-5-45 15-13 113-39 219-57 23-4 48-12 55-18s47-21 88-33c41-11 99-32 128-46 29-13 62-24 73-24 19 0 20 2 8 16-14 17-119 69-194 97-22 8-45 24-51 37-17 33-34 47-34 30 0-13-2-13-10 0-5 8-7 23-4 33 5 16-5 17-123 16-70-1-138-4-150-6z"/>
  <path id="jq" d="m2700 3308c0-8 15-29 34-47 29-28 35-43 41-92l7-59h89c98 0 123 17 33 22-54 3-57 4-60 31-4 40-50 136-69 143-23 9-31-4-17-26 19-31 14-45-8-25-11 10-20 24-20 30 0 7-7 18-15 25-12 10-15 10-15-2z"/>
  <path id="jr" d="m2343 3292c-12-9-31-43-41-74-25-70-14-108 30-108 25 0 26 3 32 63 13 157 15 147-21 119z"/>
  <path id="js" d="m1755 3033c-22-8-52-15-67-15-15 1-30-3-33-9-4-5-10-7-14-5-4 3-14-6-21-19-11-20-11-27 0-40 16-19 22-19 78 5 66 29 77 36 77 47 0 6 11 20 25 32 31 25 12 27-45 4z"/>
  <path id="jt" d="m3366 3006c16-20 40-39 54-43 14-3 35-15 47-26 32-29 57-16 48 25-9 40-5 37-43 44-24 5-32 3-32-7 0-9-7-5-18 8-9 13-32 26-51 29l-34 7z"/>
  <path id="ju" d="m2570 1769c0-6-6-9-13-7-19 5-22-5-7-29 13-21 15-21 42-5 26 15 38 41 21 43-5 0-16 2-25 4-10 2-18-1-18-6z"/>
 </g>
 <g id="jv" transform="translate(-1277,-1679)" fill="#eaebea">
  <path d="m2155 3685c-5-2-36-11-68-20-43-12-56-20-48-28 13-13 150 18 179 39 15 12 13 13-18 13-19 0-39-2-45-4z"/>
  <path id="jw" d="m2959 3663c26-18 133-32 116-16-15 15-74 33-109 33h-30z"/>
  <path id="jx" d="m2301 3212c-14-25-14-42-1-42 16 0 33 41 22 52-7 7-14 3-21-10z"/>
  <path id="jy" d="m2800 3201c13-25 27-34 34-22 10 16-5 41-25 41-16 0-18-3-9-19z"/>
  <path id="jz" d="m2479 3156c-20-42 29-197 74-234 19-16 38 6 72 82 35 80 42 137 20 160-16 15-19 15-34 1-22-19-75-20-91 0-18 21-29 19-41-9z"/>
  <path id="ka" d="m2193 2954c-78-53-158-83-239-91-49-4-68-11-86-30-22-24-22-24-4-58 11-19 25-35 32-35s59 9 116 19c57 11 122 23 146 26 47 7 80 42 101 104 13 39 15 98 4 104-5 2-36-16-70-39z"/>
  <path id="kb" d="m2866 2993c-22-22 6-130 43-171 23-26 40-32 171-56 80-14 150-26 155-26 10 0 45 50 45 64 0 3-10 6-22 6-18 0-20 2-9 9 24 15-6 41-46 41-82 0-196 42-285 105-25 19-49 31-52 28z"/>
 </g>
 <g id="kc" transform="translate(-1277,-1679)" fill="#f6faf7">
  <path id="kd" d="m2545 3118c-4-13-9-44-11-70-4-47-3-48 26-48 28 0 30 2 31 43 1 23 2 49 3 57 1 14-21 39-35 40-4 0-10-10-14-22z"/>
  <path id="ke" d="m2867 2972c1-8 3-25 3-38 0-28 30-33 50-9 17 21 5 45-24 45-13 0-26 3-29 8-2 4-2 1 0-6z"/>
  <path id="kf" d="m3215 2848c-11-7-39-13-62-14s-47-5-53-9c-19-12 1-26 33-23 32 2 76-16 89-36 9-13 36 1 52 27 8 13 5 22-14 41-21 21-28 23-45 14z"/>
 </g>
</svg>
